/* XPM */
static char * scoresept_xpm[] = {
"64 64 560 2",
"  	c #000000",
". 	c #464D4F",
"+ 	c #383F40",
"@ 	c #382B2F",
"# 	c #62797E",
"$ 	c #535E61",
"% 	c #6A7A7C",
"& 	c #7E9193",
"* 	c #829496",
"= 	c #819496",
"- 	c #7B8E90",
"; 	c #738789",
"> 	c #6D8285",
", 	c #64797E",
"' 	c #5E757A",
") 	c #5F757A",
"! 	c #5B6F74",
"~ 	c #515F62",
"{ 	c #485052",
"] 	c #475052",
"^ 	c #4D5A5C",
"/ 	c #586A6D",
"( 	c #5D7477",
"_ 	c #5E7378",
": 	c #5B6E73",
"< 	c #596B6F",
"[ 	c #56666A",
"} 	c #536164",
"| 	c #536063",
"1 	c #535F62",
"2 	c #535F61",
"3 	c #505C5F",
"4 	c #4B5456",
"5 	c #5A686A",
"6 	c #718183",
"7 	c #728284",
"8 	c #6C7C7E",
"9 	c #667779",
"0 	c #627376",
"a 	c #5B6C70",
"b 	c #58696D",
"c 	c #586A6E",
"d 	c #57696D",
"e 	c #546569",
"f 	c #4D595C",
"g 	c #474F51",
"h 	c #474E50",
"i 	c #4B5557",
"j 	c #526164",
"k 	c #57686C",
"l 	c #556568",
"m 	c #526265",
"n 	c #505F62",
"o 	c #4E5B5E",
"p 	c #4E5A5C",
"q 	c #4D595B",
"r 	c #495254",
"s 	c #657577",
"t 	c #69797B",
"u 	c #5E6B6D",
"v 	c #596465",
"w 	c #586365",
"x 	c #566062",
"y 	c #535D5F",
"z 	c #515C5E",
"A 	c #4E595C",
"B 	c #4D585A",
"C 	c #4C5658",
"D 	c #485154",
"E 	c #464D50",
"F 	c #4B5457",
"G 	c #4C575A",
"H 	c #4B5658",
"I 	c #4A5456",
"J 	c #495355",
"K 	c #485254",
"L 	c #495154",
"M 	c #0095F6",
"N 	c #00C5F4",
"O 	c #6F8082",
"P 	c #647376",
"Q 	c #546163",
"R 	c #464C4E",
"S 	c #464E50",
"T 	c #464E4F",
"U 	c #4A5457",
"V 	c #758688",
"W 	c #5C696C",
"X 	c #505C60",
"Y 	c #434749",
"Z 	c #434648",
"` 	c #434547",
" .	c #43474A",
"..	c #43484A",
"+.	c #43494B",
"@.	c #434A4C",
"#.	c #434B4C",
"$.	c #444C4D",
"%.	c #454C4E",
"&.	c #474E51",
"*.	c #4E5A5E",
"=.	c #4B5559",
"-.	c #C6F6FF",
";.	c #768689",
">.	c #555F62",
",.	c #495356",
"'.	c #404748",
").	c #3B3C3E",
"!.	c #3B383A",
"~.	c #3B393B",
"{.	c #3B3B3D",
"].	c #3B3D3F",
"^.	c #3B3C3F",
"/.	c #3B3F41",
"(.	c #3B4143",
"_.	c #3B4244",
":.	c #3D4445",
"<.	c #3E4547",
"[.	c #3F4647",
"}.	c #414849",
"|.	c #42494B",
"1.	c #F5F9ED",
"2.	c #535C5E",
"3.	c #393E3F",
"4.	c #313031",
"5.	c #30292C",
"6.	c #2F272A",
"7.	c #2F292B",
"8.	c #2F2C2E",
"9.	c #2E2E30",
"0.	c #2E2F30",
"a.	c #2E3133",
"b.	c #2E3435",
"c.	c #2F3536",
"d.	c #313737",
"e.	c #33393A",
"f.	c #34393A",
"g.	c #363B3C",
"h.	c #383D3E",
"i.	c #3B4041",
"j.	c #3F4244",
"k.	c #444A4C",
"l.	c #5594B7",
"m.	c #09E4FC",
"n.	c #768789",
"o.	c #535E5F",
"p.	c #333738",
"q.	c #2B2F31",
"r.	c #282A2C",
"s.	c #232122",
"t.	c #221E20",
"u.	c #221E1F",
"v.	c #212021",
"w.	c #202021",
"x.	c #202020",
"y.	c #202121",
"z.	c #202323",
"A.	c #212424",
"B.	c #232626",
"C.	c #252828",
"D.	c #252929",
"E.	c #26292A",
"F.	c #2C3030",
"G.	c #3B3E40",
"H.	c #545E60",
"I.	c #404546",
"J.	c #333839",
"K.	c #333D40",
"L.	c #303A3C",
"M.	c #212527",
"N.	c #1E2121",
"O.	c #1D1F20",
"P.	c #1C1D1E",
"Q.	c #1B1D1E",
"R.	c #191B1B",
"S.	c #181A1A",
"T.	c #171919",
"U.	c #171718",
"V.	c #171717",
"W.	c #171818",
"X.	c #171817",
"Y.	c #161716",
"Z.	c #151715",
"`.	c #151716",
" +	c #161816",
".+	c #181818",
"++	c #222323",
"@+	c #383D3F",
"#+	c #404345",
"$+	c #35383B",
"%+	c #394548",
"&+	c #364245",
"*+	c #242A2C",
"=+	c #202425",
"-+	c #1F2324",
";+	c #1E2223",
">+	c #1D2021",
",+	c #1C1F20",
"'+	c #191B1D",
")+	c #18191B",
"!+	c #161718",
"~+	c #161617",
"{+	c #161616",
"]+	c #151515",
"^+	c #141414",
"/+	c #131313",
"(+	c #131312",
"_+	c #1E1F1F",
":+	c #444B4D",
"<+	c #748587",
"[+	c #3F4345",
"}+	c #333436",
"|+	c #303B3E",
"1+	c #212729",
"2+	c #1D2123",
"3+	c #1C2021",
"4+	c #1B1F20",
"5+	c #1A1D1F",
"6+	c #18191A",
"7+	c #171819",
"8+	c #151616",
"9+	c #141413",
"0+	c #141514",
"a+	c #1D2121",
"b+	c #3A4345",
"c+	c #454E50",
"d+	c #6D7E81",
"e+	c #515B5D",
"f+	c #2F2D2F",
"g+	c #272E30",
"h+	c #262C2F",
"i+	c #1D2022",
"j+	c #1A1C1E",
"k+	c #181A1C",
"l+	c #17191A",
"m+	c #161717",
"n+	c #1E2222",
"o+	c #3D4748",
"p+	c #465052",
"q+	c #67787B",
"r+	c #4F595B",
"s+	c #3F4143",
"t+	c #2D2A2C",
"u+	c #212426",
"v+	c #1F2325",
"w+	c #181A1B",
"x+	c #161818",
"y+	c #151514",
"z+	c #1E2221",
"A+	c #3D4749",
"B+	c #475153",
"C+	c #697B7E",
"D+	c #505A5C",
"E+	c #3F4144",
"F+	c #2C282B",
"G+	c #1E2122",
"H+	c #1C2020",
"I+	c #3C4748",
"J+	c #465053",
"K+	c #6C7D80",
"L+	c #191B1C",
"M+	c #3C4648",
"N+	c #66777A",
"O+	c #4E585B",
"P+	c #1E2021",
"Q+	c #1C1F21",
"R+	c #191A1B",
"S+	c #151615",
"T+	c #3D4648",
"U+	c #475053",
"V+	c #5D6F73",
"W+	c #4B5558",
"X+	c #3F4042",
"Y+	c #2C282A",
"Z+	c #1D1E20",
"`+	c #1B1D1F",
" @	c #151516",
".@	c #5A6C71",
"+@	c #3E3F42",
"@@	c #2C2729",
"#@	c #1A1C1D",
"$@	c #3D494B",
"%@	c #485153",
"&@	c #536265",
"*@	c #596C70",
"=@	c #1C1E1E",
"-@	c #9C9C9C",
";@	c #FFFFFF",
">@	c #B7B7B7",
",@	c #131413",
"'@	c #1D2223",
")@	c #414D50",
"!@	c #464F51",
"~@	c #1D1F1F",
"{@	c #1A1D1E",
"]@	c #1D2324",
"^@	c #424F53",
"/@	c #4A5558",
"(@	c #2C272A",
"_@	c #1C1D1D",
":@	c #A1A1A1",
"<@	c #1C2122",
"[@	c #404C4F",
"}@	c #485356",
"|@	c #464F52",
"1@	c #2B2729",
"2@	c #1A1A1B",
"3@	c #1B1B1A",
"4@	c #292929",
"5@	c #E2E2E2",
"6@	c #F5F5F5",
"7@	c #343434",
"8@	c #404C50",
"9@	c #495457",
"0@	c #3E4042",
"a@	c #2B2829",
"b@	c #19191A",
"c@	c #7B7B7B",
"d@	c #BEBEBE",
"e@	c #131414",
"f@	c #1E2325",
"g@	c #435054",
"h@	c #4B5659",
"i@	c #3E4143",
"j@	c #2B2B2C",
"k@	c #181919",
"l@	c #D2D2D2",
"m@	c #FDFDFD",
"n@	c #5B5B5B",
"o@	c #131514",
"p@	c #1E2526",
"q@	c #455458",
"r@	c #4B585B",
"s@	c #3E4244",
"t@	c #2B2C2D",
"u@	c #5E5E5E",
"v@	c #D3D3D3",
"w@	c #455558",
"x@	c #4B595C",
"y@	c #586B6F",
"z@	c #2B2A2C",
"A@	c #C2C2C2",
"B@	c #848483",
"C@	c #1F2526",
"D@	c #56686B",
"E@	c #2B2A2B",
"F@	c #3F3F3F",
"G@	c #F7F7F7",
"H@	c #E7E7E7",
"I@	c #536266",
"J@	c #2B2D2E",
"K@	c #B0B0AF",
"L@	c #A4A4A4",
"M@	c #536467",
"N@	c #495255",
"O@	c #3E4446",
"P@	c #2B2F30",
"Q@	c #EFEFEF",
"R@	c #313130",
"S@	c #56676A",
"T@	c #4A5356",
"U@	c #9B9B9B",
"V@	c #BDBDBD",
"W@	c #4C595C",
"X@	c #546367",
"Y@	c #E3E3E3",
"Z@	c #1F2627",
"`@	c #475659",
" #	c #4D5A5D",
".#	c #505D60",
"+#	c #7F7F7F",
"@#	c #222829",
"##	c #4D5C5F",
"$#	c #505E61",
"%#	c #4E5C5F",
"&#	c #3D4446",
"*#	c #D4D4D4",
"=#	c #828282",
"-#	c #252C2C",
";#	c #546365",
">#	c #556264",
",#	c #636362",
"'#	c #E6E6E6",
")#	c #556365",
"!#	c #4A5355",
"~#	c #3E4546",
"{#	c #2C3132",
"]#	c #C5C5C5",
"^#	c #A3A3A3",
"/#	c #23292A",
"(#	c #505F61",
"_#	c #3F4648",
":#	c #2E3334",
"<#	c #181918",
"[#	c #444444",
"}#	c #F9F9F9",
"|#	c #252B2B",
"1#	c #526163",
"2#	c #404749",
"3#	c #2F3335",
"4#	c #404648",
"5#	c #242A2B",
"6#	c #516062",
"7#	c #536062",
"8#	c #526063",
"9#	c #546062",
"0#	c #414749",
"a#	c #303536",
"b#	c #181A19",
"c#	c #272E2E",
"d#	c #596769",
"e#	c #596567",
"f#	c #41484A",
"g#	c #323638",
"h#	c #191A1A",
"i#	c #293030",
"j#	c #5D6B6D",
"k#	c #5B686A",
"l#	c #4C5456",
"m#	c #42484A",
"n#	c #323738",
"o#	c #2A2F30",
"p#	c #121312",
"q#	c #292F2F",
"r#	c #5C686A",
"s#	c #42494A",
"t#	c #1A1B1A",
"u#	c #121211",
"v#	c #121110",
"w#	c #111110",
"x#	c #11110F",
"y#	c #10100F",
"z#	c #11100E",
"A#	c #100F0E",
"B#	c #0F0F0E",
"C#	c #272D2D",
"D#	c #5B696B",
"E#	c #5A6669",
"F#	c #353A3A",
"G#	c #1F2120",
"H#	c #151717",
"I#	c #141616",
"J#	c #131515",
"K#	c #121414",
"L#	c #121515",
"M#	c #131616",
"N#	c #131717",
"O#	c #141818",
"P#	c #151919",
"Q#	c #171B1B",
"R#	c #1A1D1D",
"S#	c #1B1D1D",
"T#	c #1A1E1E",
"U#	c #2B3233",
"V#	c #556164",
"W#	c #3A3F40",
"X#	c #2D3132",
"Y#	c #292E2F",
"Z#	c #282F2F",
"`#	c #293031",
" $	c #283032",
".$	c #283031",
"+$	c #282F31",
"@$	c #2A3336",
"#$	c #2B3638",
"$$	c #2D383A",
"%$	c #2F3B3E",
"&$	c #2F3C3F",
"*$	c #333E41",
"=$	c #424C4E",
"-$	c #444E4F",
";$	c #434E4F",
">$	c #434F50",
",$	c #516163",
"'$	c #4F5B5E",
")$	c #495052",
"!$	c #3C4345",
"~$	c #3D4547",
"{$	c #3E4648",
"]$	c #3F484A",
"^$	c #404B4E",
"/$	c #404C4E",
"($	c #414D4F",
"_$	c #435155",
":$	c #465458",
"<$	c #48585B",
"[$	c #4A5B60",
"}$	c #4B5D61",
"|$	c #4B5C61",
"1$	c #506165",
"2$	c #5C6D6E",
"3$	c #657576",
"4$	c #687779",
"5$	c #677678",
"6$	c #5E6E70",
"7$	c #556466",
"8$	c #484F51",
"9$	c #4F5C5F",
"0$	c #4A5557",
"a$	c #454D4F",
"b$	c #4B575A",
"c$	c #4B585A",
"d$	c #4D5C5E",
"e$	c #4F5F62",
"f$	c #516165",
"g$	c #54666B",
"h$	c #596A6E",
"i$	c #647577",
"j$	c #6D7D7F",
"k$	c #707F81",
"l$	c #6E7E80",
"m$	c #647476",
"n$	c #556265",
"o$	c #009DEB",
"p$	c #474F52",
"q$	c #4D585B",
"r$	c #4E5B5F",
"s$	c #576365",
"t$	c #5D6A6C",
"u$	c #5D696B",
"v$	c #566265",
"w$	c #4A5255",
"x$	c #4C585B",
"y$	c #4A5254",
"z$	c #4B5355",
"A$	c #495153",
"B$	c #474D4F",
"C$	c #44494B",
"D$	c #44484A",
"E$	c #44484B",
"F$	c #414144",
"G$	c #404042",
"H$	c #454B4D",
"I$	c #414648",
"J$	c #3F4547",
"K$	c #3E4345",
"L$	c #3E4043",
"M$	c #3E3D3F",
"N$	c #3E3C3E",
"O$	c #3E3B3E",
"P$	c #3E3A3D",
"Q$	c #3C3639",
"R$	c #3C383B",
"S$	c #3A393C",
"T$	c #464C4D",
"U$	c #414748",
"V$	c #3B4243",
"W$	c #394042",
"X$	c #393A3C",
"Y$	c #39393C",
"Z$	c #39363A",
"`$	c #393235",
" %	c #393034",
".%	c #393033",
"+%	c #392F33",
"@%	c #382E32",
"#%	c #383235",
"$%	c #38393B",
"%%	c #4B3F38",
"&%	c #2F5075",
"                                                                                                                                ",
". . . . . . + . + . + . + + + @ . . . . . . + . + . + . + + + @ . . . . . . + . + . + . + + + @ . . . . . . + . + . + . + + + @ ",
". + + + + + + + + + + + + + + @ . + + + + + + + + + + + + + + @ . + + + + + + + + + + + + + + @ . + + + + + + + + + + + + + + @ ",
". + # + + # # # # . + + + # + @ $ % & * = - ; > , ' ' ' ) ! ~ { ] ^ / ( ' _ : < [ } | 1 2 3 4 @ . + # + + # # # # . + + + # + @ ",
". @ + + # @ @ @ @ @ @ + @ + + @ 5 % 6 7 6 8 9 0 a b c c d e f g h i j k c k l m n o p p p q r @ . @ + + # @ @ @ @ @ @ + @ + + @ ",
". + + # @ @ @ @ @ @ @ @ . + + @ s t u v w x y z A B B B B C D E . { F G B G H i I J K K J i L @ . + + # @ @ @ @ @ @ @ @ . + + @ ",
". + # @ @ @ M N N M @ @ @ . + @ O P Q r g h h h . R . . E . . . . . . S S S S T . . . . { f U @ . + # @ @ @ M N N M @ @ @ . + @ ",
". + # @ @ M N N N N M @ @ # + @ V W X . Y Z Z Z Z ` Z Y  . .....+.@.@.@.@.#.$.$.%.. . . &.*.=.@ . + # @ @ M N N N N M @ @ # + @ ",
". + # @ @ N N -.-.N N @ @ # + @ ;.>.,.'.).!.!.!.!.!.~.{.].^.]./.(._._._.:.<.[.[.}.|.+.+. .L D @ . + # @ @ N N -.-.N N @ @ # + @ ",
". + # @ @ N N 1.1.N N @ @ # + @ V 2.@.3.4.5.6.6.6.6.7.8.9.9.0.a.b.b.b.c.d.e.f.f.g.h.3.i.j.k.. @ . + # @ @ N N 1.1.N N @ @ # + @ ",
"# . l.+ + m.m.1.1.m.m.+ + l.. + n.o.'.p.q.r.s.t.t.t.u.v.w.w.x.y.z.z.z.z.A.B.B.B.C.D.E.F.G.+.. + # . l.+ + m.m.1.1.m.m.+ + l.. + ",
". + # @ @ N N 1.1.N N @ @ # + @ n.H.I.J.K.L.M.N.N.O.P.Q.R.S.T.U.V.W.X.Y.Z.`.`.`. + +.+++@+@.. @ . + # @ @ N N 1.1.N N @ @ # + @ ",
"# . l.+ + m.m.1.1.m.m.+ + l.. + n.H.#+$+%+&+*+=+-+;+>+,+'+)+T.!+~+{+]+^+/+(+(+(+(+(+^+_++ :+. + # . l.+ + m.m.1.1.m.m.+ + l.. + ",
"# . l.+ + m.m.1.1.m.m.+ + l.. @ <+H.[+}+K.|+1+2+2+3+4+5+'+6+7+!+8+]+^+9+9+9+9+9+9+9+0+a+b+c+. @ # . l.+ + m.m.1.1.m.m.+ + l.. @ ",
"# . l.+ + m.m.1.1.m.m.+ + l.. + d+e+j.f+g+h+i+j+j+j+'+k+l+W.m+{+]+9+9+9+9+9+9+9+9+9+0+n+o+p+. + # . l.+ + m.m.1.1.m.m.+ + l.. + ",
"# . l.+ + m.m.1.1.m.m.+ + l.. @ q+r+s+t+u+v+j+'+'+w+l+7+x+~+]+y+^+9+9+9+9+9+9+9+9+9+9+z+A+B+S @ # . l.+ + m.m.1.1.m.m.+ + l.. @ ",
"# . l.+ + m.m.1.1.m.m.+ + l.. + C+D+E+F+G+3+'+k+w+6+W.m+8+]+^+9+9+9+9+9+9+9+9+9+9+9+9+H+I+J+E + # . l.+ + m.m.1.1.m.m.+ + l.. + ",
"# . l.+ + m.m.1.1.m.m.+ + l.. + K+e+E+F+N.3+L+6+7+!+m+]+^+^+9+9+9+9+9+9+9+9+9+9+9+9+9+H+M+J+E + # . l.+ + m.m.1.1.m.m.+ + l.. + ",
"# . l.+ + m.m.1.1.m.m.+ + l.. + N+O+s+F+P+Q+R+7+m+8+S+0+9+9+9+9+9+9+9+9+9+9+9+9+9+9+9+>+T+U+E + # . l.+ + m.m.1.1.m.m.+ + l.. + ",
"# . l.+ + m.m.1.1.m.m.+ + l.. + V+W+X+Y+Z+`+)+U. @^+9+9+9+9+9+9+9+9+9+9+9+9+9+9+9+9+9+>+A+] E + # . l.+ + m.m.1.1.m.m.+ + l.. + ",
"# . l.+ + m.m.1.1.m.m.+ + l.. . .@U +@@@P.#@l+m+]+9+9+9+9+9+9+9+9+9+9+9+9+9+9+9+9+9+9+3+$@%@S . # . l.+ + m.m.1.1.m.m.+ + l.. . ",
"&@. l.+ + m.m.1.1.m.m.+ + l.. + *@U +@Y+=@#@7+8+-@;@;@;@;@;@;@;@;@;@;@;@;@>@9+9+9+9+,@'@)@I !@+ &@. l.+ + m.m.1.1.m.m.+ + l.. + ",
"# . l.+ + m.m.1.1.m.m.+ + l.. . *@U +@Y+~@{@U.]+-@;@;@;@;@;@;@;@;@;@;@;@;@>@9+9+9+9+,@]@^@/@p+. # . l.+ + m.m.1.1.m.m.+ + l.. . ",
"&@. l.+ + m.m.1.1.m.m.+ + l.. + *@U +@(@_@L+~+^+-@;@;@;@;@;@;@;@;@;@;@;@;@:@9+9+9+9+,@<@[@}@|@+ &@. l.+ + m.m.1.1.m.m.+ + l.. + ",
"# . l.+ + m.m.1.1.m.m.+ + l.. . *@U +@1@2@T.S+9+3@4@4@4@4@4@4@4@4@5@;@;@6@7@9+9+9+9+,@2+8@9@|@. # . l.+ + m.m.1.1.m.m.+ + l.. . ",
"&@. l.+ + m.m.1.1.m.m.+ + l.. + *@U 0@a@b@m+y+9+9+9+9+9+9+9+9+9+c@;@;@;@d@9+9+9+9+9+e@f@g@h@] + &@. l.+ + m.m.1.1.m.m.+ + l.. + ",
"&@. l.+ + m.m.1.1.m.m.+ + l.. + *@U i@j@k@m+]+9+9+9+9+9+9+9+9+9+l@;@;@m@n@9+9+9+9+9+o@p@q@r@{ + &@. l.+ + m.m.1.1.m.m.+ + l.. + ",
"&@. l.+ + m.m.1.1.m.m.+ + l.. + *@U s@t@6+m+]+9+9+9+9+9+9+9+9+u@m@;@;@v@9+9+9+9+9+9+o@p@w@x@{ + &@. l.+ + m.m.1.1.m.m.+ + l.. + ",
"&@. l.+ + m.m.1.1.m.m.+ + l.. @ y@U s@z@k@m+]+9+9+9+9+9+9+9+9+A@;@;@;@B@9+9+9+9+9+9+o@C@w@x@{ @ &@. l.+ + m.m.1.1.m.m.+ + l.. @ ",
"&@. l.+ + m.m.1.1.m.m.+ + l.. + D@J i@E@k@~+y+9+9+9+9+9+9+9+F@G@;@;@H@9+9+9+9+9+9+9+o@C@w@x@{ + &@. l.+ + m.m.1.1.m.m.+ + l.. + ",
"&@. l.+ + m.m.1.1.m.m.+ + l.. @ I@L s@J@6+m+]+9+9+9+9+9+9+9+K@;@;@;@L@9+9+9+9+9+9+9+o@C@w@x@{ @ &@. l.+ + m.m.1.1.m.m.+ + l.. @ ",
"&@. l.+ + m.m.1.1.m.m.+ + l.. + M@N@O@P@S.m+]+9+9+9+9+9+9+x.Q@;@;@6@R@9+9+9+9+9+9+9+o@p@w@x@{ + &@. l.+ + m.m.1.1.m.m.+ + l.. + ",
"&@. l.+ + m.m.1.1.m.m.+ + l.. @ S@T@O@P@S.{+y+9+9+9+9+9+9+U@;@;@;@V@9+9+9+9+9+9+9+9+o@p@w@W@{ @ &@. l.+ + m.m.1.1.m.m.+ + l.. @ ",
"&@. l.+ + m.m.1.1.m.m.+ + l.. @ X@N@O@P@k@]+9+9+9+9+9+9+9+Y@;@;@m@n@9+9+9+9+9+9+9+9+0+Z@`@ #{ @ &@. l.+ + m.m.1.1.m.m.+ + l.. @ ",
"&@. l.+ + m.m.1.1.m.m.+ + l.. @ .#{ O@P@k@y+9+9+9+9+9+9++#;@;@;@v@9+9+9+9+9+9+9+9+9+0+@###$#L @ &@. l.+ + m.m.1.1.m.m.+ + l.. @ ",
"&@. l.+ + m.m.1.1.m.m.+ + l.. @ %#{ &#P@6+]+9+9+9+9+9+9+*#;@;@;@=#9+9+9+9+9+9+9+9+9+y+-#;#>#T@@ &@. l.+ + m.m.1.1.m.m.+ + l.. @ ",
"&@. l.+ + m.m.1.1.m.m.+ + l.. @ %#{ O@P@k@]+9+9+9+9+9+,#m@;@;@'#9+9+9+9+9+9+9+9+9+9+y+-#)#>#!#@ &@. l.+ + m.m.1.1.m.m.+ + l.. @ ",
"&@. l.+ + m.m.1.1.m.m.+ + l.. @ %#{ ~#{#T.^+9+9+9+9+9+]#;@;@;@^#9+9+9+9+9+9+9+9+9+9+0+/#(#2 r @ &@. l.+ + m.m.1.1.m.m.+ + l.. @ ",
"&@. l.+ + m.m.1.1.m.m.+ + l.. @ %#{ _#:#<#9+9+9+9+9+[#}#;@;@6@R@9+9+9+9+9+9+9+9+9+9+y+|#1#Q J @ &@. l.+ + m.m.1.1.m.m.+ + l.. @ ",
"&@. l.+ + m.m.1.1.m.m.+ + l.. @ %#{ 2#3#k@9+9+9+9+9+9+9+9+9+9+9+9+9+9+9+9+9+9+9+9+9+y+-#;#>#I @ &@. l.+ + m.m.1.1.m.m.+ + l.. @ ",
"&@. l.+ + m.m.1.1.m.m.+ + l.. @ %#{ 4#:#<#9+9+9+9+9+9+9+9+9+9+9+9+9+9+9+9+9+9+9+9+9+0+5#6#7#J @ &@. l.+ + m.m.1.1.m.m.+ + l.. @ ",
"&@. l.+ + m.m.1.1.m.m.+ + l.. @ %#{ 4#:#k@9+9+9+9+9+9+9+9+9+9+9+9+9+9+9+9+9+9+9+9+9+0+5#8#9#J @ &@. l.+ + m.m.1.1.m.m.+ + l.. @ ",
". . l.+ + m.m.1.1.m.m.+ + l.. @ %#{ 0#a#b#9+9+9+9+9+9+9+9+9+9+9+9+9+9+9+9+9+9+9+9+9+y+c#d#e#4 @ . . l.+ + m.m.1.1.m.m.+ + l.. @ ",
"&@. l.+ + m.m.1.1.m.m.+ + l.. @ %#{ f#g#h#9+9+9+9+9+9+9+9+9+9+9+9+9+9+9+9+9+9+9+9+9+y+i#j#k#l#@ &@. l.+ + m.m.1.1.m.m.+ + l.. @ ",
". . l.+ + m.m.1.1.m.m.+ + l.. @ %#{ m#n#h#9+9+9+9+9+9+9+9+9+9+9+9+9+9+9+9+9+9+9+9+9+y+o#j#k#l#@ . . l.+ + m.m.1.1.m.m.+ + l.. @ ",
"&@. l.+ + m.m.1.1.m.m.+ + l.. @ %#{ m#n#h#9+9+9+9+9+9+9+9+9+9+9+9+9+9+9+9+9+9+9+9+9+y+o#j#k#l#@ &@. l.+ + m.m.1.1.m.m.+ + l.. @ ",
". . l.+ + m.m.1.1.m.m.+ + l.. @ %#{ m#n#h#9+9+9+9+9+9+9+9+9+9+9+9+9+9+9+9+9+9+9+9+9+p#q#u r#l#@ . . l.+ + m.m.1.1.m.m.+ + l.. @ ",
"&@. l.+ + m.m.1.1.m.m.+ + l.. @ %#{ s#p.t#,@(+(+u#u#v#v#v#v#v#v#v#w#w#w#w#w#x#y#z#A#B#C#D#E#l#@ &@. l.+ + m.m.1.1.m.m.+ + l.. @ ",
". . l.+ + m.m.1.1.m.m.+ + l.. @ %#{ +.F#G#k@<#W.H#I#J#K#K#K#K#K#L#M#N#O#O#O#P#Q#R#S#T#U#)#V#J @ . . l.+ + m.m.1.1.m.m.+ + l.. @ ",
". . l.+ + m.m.1.1.m.m.+ + l.. @ %#{ k.W#X#Y#Y#Y#Z#`# $.$+$+$+$ $@$#$$$%$&$&$*$M+=$-$;$>$,$'$)$@ . . l.+ + m.m.1.1.m.m.+ + l.. @ ",
". . # + + m.m.1.1.m.m.+ + l.. @ %#K . 0#!$~$T+{$]$^$[@/$/$/$/$($_$:$<$[$}$|$1$2$3$4$5$6$7$B 8$@ . . # + + m.m.1.1.m.m.+ + l.. @ ",
". . l.+ + m.m.-.-.m.m.+ + l.. @ 9$H 0$. a$p+B+B+J /@b$b$b$b$b$c$d$e$f$e g$g$h$i$j$k$l$m$n$p J @ . . l.+ + m.m.-.-.m.m.+ + l.. @ ",
". . # + + o$m.m.m.m.o$+ + l.. @ o q o p$T 8${ { %@r J J J J J ,.H G q$o r$r$.#s$r#t$u$v$A .#0$@ . . # + + o$m.m.m.m.o$+ + l.. @ ",
". . # + + + o$m.m.o$+ + + l.. @ F w$x$g . . . . . S S S S S S S h h g p$U+p${ y$z$4 z$A$B$W+E @ . . # + + + o$m.m.o$+ + + l.. @ ",
". . . # + + + + + + + + l.. . @ R C$S :+:+:+:+:+k.k.k.k.k.C$D$D$D$D$D$D$E$E$D$D$C$C$C$Y F$Z G$@ . . . # + + + + + + + + l.. . @ ",
". . . . # + + + + + + l.. . . @ H$I$J$<.<.<.<.<.<.K$i@i@L$+@M$N$O$O$O$O$O$O$O$O$O$O$O$P$Q$R$S$@ . . . . # + + + + + + l.. . . @ ",
". . . . . # l.# l.l.l.. . . . @ T$U$V$W$W$W$W$W$W$3.X$Y$Y$Z$`$ %.%.%.%.%.%.%.%.%.%.%.%+%@%#%$%@ . . . . . # l.# l.l.l.. . . . @ ",
". + . . . . . . + . . . . . . @ . + . . . . . . + . . . . . . @ . + . . . . . . + . . . . . . @ . + . . . . . . + . . . . . . @ ",
"+ . . . . . . . . . . . . . . @ + . . . . . . . . . . . . . . @ + . . . . . . . . . . . . . . @ + . . . . . . . . . . . . . . @ ",
". . %%&%l.. . . . . . l.&%. %%@ . . %%&%l.. . . . . . l.&%. %%@ . . %%&%l.. . . . . . l.&%. %%@ . . %%&%l.. . . . . . l.&%. %%@ ",
"+ . @ &%&%. . + . . @ &%&%. . @ + . @ &%&%. . + . . @ &%&%. . @ + . @ &%&%. . + . . @ &%&%. . @ + . @ &%&%. . + . . @ &%&%. . @ ",
". . @ @ %%. . . . . @ @ . . %%@ . . @ @ %%. . . . . @ @ . . %%@ . . @ @ %%. . . . . @ @ . . %%@ . . @ @ %%. . . . . @ @ . . %%@ ",
". . . %%%%. . . . . . . . %%. @ . . . %%%%. . . . . . . . %%. @ . . . %%%%. . . . . . . . %%. @ . . . %%%%. . . . . . . . %%. @ ",
"9+@ 9+9+9+9+@ 9+@ @ @ @ @ @ @ @ 9+@ 9+9+9+9+@ 9+@ @ @ @ @ @ @ @ 9+@ 9+9+9+9+@ 9+@ @ @ @ @ @ @ @ 9+@ 9+9+9+9+@ 9+@ @ @ @ @ @ @ @ "};
