/* XPM */
static char * scorefour_xpm[] = {
"64 64 556 2",
"  	c #000000",
". 	c #464D4F",
"+ 	c #383F40",
"@ 	c #382B2F",
"# 	c #62797E",
"$ 	c #535E61",
"% 	c #6A7A7C",
"& 	c #7E9193",
"* 	c #829496",
"= 	c #819496",
"- 	c #7B8E90",
"; 	c #738789",
"> 	c #6D8285",
", 	c #64797E",
"' 	c #5E757A",
") 	c #5F757A",
"! 	c #5B6F74",
"~ 	c #515F62",
"{ 	c #485052",
"] 	c #475052",
"^ 	c #4D5A5C",
"/ 	c #586A6D",
"( 	c #5D7477",
"_ 	c #5E7378",
": 	c #5B6E73",
"< 	c #596B6F",
"[ 	c #56666A",
"} 	c #536164",
"| 	c #536063",
"1 	c #535F62",
"2 	c #535F61",
"3 	c #505C5F",
"4 	c #4B5456",
"5 	c #5A686A",
"6 	c #718183",
"7 	c #728284",
"8 	c #6C7C7E",
"9 	c #667779",
"0 	c #627376",
"a 	c #5B6C70",
"b 	c #58696D",
"c 	c #586A6E",
"d 	c #57696D",
"e 	c #546569",
"f 	c #4D595C",
"g 	c #474F51",
"h 	c #474E50",
"i 	c #4B5557",
"j 	c #526164",
"k 	c #57686C",
"l 	c #556568",
"m 	c #526265",
"n 	c #505F62",
"o 	c #4E5B5E",
"p 	c #4E5A5C",
"q 	c #4D595B",
"r 	c #495254",
"s 	c #657577",
"t 	c #69797B",
"u 	c #5E6B6D",
"v 	c #596465",
"w 	c #586365",
"x 	c #566062",
"y 	c #535D5F",
"z 	c #515C5E",
"A 	c #4E595C",
"B 	c #4D585A",
"C 	c #4C5658",
"D 	c #485154",
"E 	c #464D50",
"F 	c #4B5457",
"G 	c #4C575A",
"H 	c #4B5658",
"I 	c #4A5456",
"J 	c #495355",
"K 	c #485254",
"L 	c #495154",
"M 	c #F78300",
"N 	c #FFB62C",
"O 	c #6F8082",
"P 	c #647376",
"Q 	c #546163",
"R 	c #464C4E",
"S 	c #464E50",
"T 	c #464E4F",
"U 	c #4A5457",
"V 	c #758688",
"W 	c #5C696C",
"X 	c #505C60",
"Y 	c #434749",
"Z 	c #434648",
"` 	c #434547",
" .	c #43474A",
"..	c #43484A",
"+.	c #43494B",
"@.	c #434A4C",
"#.	c #434B4C",
"$.	c #444C4D",
"%.	c #454C4E",
"&.	c #474E51",
"*.	c #4E5A5E",
"=.	c #4B5559",
"-.	c #FFEC24",
";.	c #768689",
">.	c #555F62",
",.	c #495356",
"'.	c #404748",
").	c #3B3C3E",
"!.	c #3B383A",
"~.	c #3B393B",
"{.	c #3B3B3D",
"].	c #3B3D3F",
"^.	c #3B3C3F",
"/.	c #3B3F41",
"(.	c #3B4143",
"_.	c #3B4244",
":.	c #3D4445",
"<.	c #3E4547",
"[.	c #3F4647",
"}.	c #414849",
"|.	c #42494B",
"1.	c #F5F9ED",
"2.	c #535C5E",
"3.	c #393E3F",
"4.	c #313031",
"5.	c #30292C",
"6.	c #2F272A",
"7.	c #2F292B",
"8.	c #2F2C2E",
"9.	c #2E2E30",
"0.	c #2E2F30",
"a.	c #2E3133",
"b.	c #2E3435",
"c.	c #2F3536",
"d.	c #313737",
"e.	c #33393A",
"f.	c #34393A",
"g.	c #363B3C",
"h.	c #383D3E",
"i.	c #3B4041",
"j.	c #3F4244",
"k.	c #444A4C",
"l.	c #BAB77A",
"m.	c #FFD02C",
"n.	c #768789",
"o.	c #535E5F",
"p.	c #333738",
"q.	c #2B2F31",
"r.	c #282A2C",
"s.	c #232122",
"t.	c #221E20",
"u.	c #221E1F",
"v.	c #212021",
"w.	c #202021",
"x.	c #202020",
"y.	c #202121",
"z.	c #202323",
"A.	c #212424",
"B.	c #232626",
"C.	c #252828",
"D.	c #252929",
"E.	c #26292A",
"F.	c #2C3030",
"G.	c #3B3E40",
"H.	c #545E60",
"I.	c #404546",
"J.	c #333839",
"K.	c #333D40",
"L.	c #303A3C",
"M.	c #212527",
"N.	c #1E2121",
"O.	c #1D1F20",
"P.	c #1C1D1E",
"Q.	c #1B1D1E",
"R.	c #191B1B",
"S.	c #181A1A",
"T.	c #171919",
"U.	c #171718",
"V.	c #171717",
"W.	c #171818",
"X.	c #171817",
"Y.	c #161716",
"Z.	c #151715",
"`.	c #151716",
" +	c #161816",
".+	c #181818",
"++	c #222323",
"@+	c #383D3F",
"#+	c #404345",
"$+	c #35383B",
"%+	c #394548",
"&+	c #364245",
"*+	c #242A2C",
"=+	c #202425",
"-+	c #1F2324",
";+	c #1E2223",
">+	c #1D2021",
",+	c #1C1F20",
"'+	c #191B1D",
")+	c #18191B",
"!+	c #161718",
"~+	c #161617",
"{+	c #161616",
"]+	c #151515",
"^+	c #141414",
"/+	c #131313",
"(+	c #131312",
"_+	c #1E1F1F",
":+	c #444B4D",
"<+	c #748587",
"[+	c #3F4345",
"}+	c #333436",
"|+	c #303B3E",
"1+	c #212729",
"2+	c #1D2123",
"3+	c #1C2021",
"4+	c #1B1F20",
"5+	c #1A1D1F",
"6+	c #18191A",
"7+	c #171819",
"8+	c #151616",
"9+	c #141413",
"0+	c #141514",
"a+	c #1D2121",
"b+	c #3A4345",
"c+	c #454E50",
"d+	c #6D7E81",
"e+	c #515B5D",
"f+	c #2F2D2F",
"g+	c #272E30",
"h+	c #262C2F",
"i+	c #1D2022",
"j+	c #1A1C1E",
"k+	c #181A1C",
"l+	c #17191A",
"m+	c #161717",
"n+	c #1E2222",
"o+	c #3D4748",
"p+	c #465052",
"q+	c #67787B",
"r+	c #4F595B",
"s+	c #3F4143",
"t+	c #2D2A2C",
"u+	c #212426",
"v+	c #1F2325",
"w+	c #181A1B",
"x+	c #161818",
"y+	c #151514",
"z+	c #1E2221",
"A+	c #3D4749",
"B+	c #475153",
"C+	c #697B7E",
"D+	c #505A5C",
"E+	c #3F4144",
"F+	c #2C282B",
"G+	c #1E2122",
"H+	c #1C2020",
"I+	c #3C4748",
"J+	c #465053",
"K+	c #6C7D80",
"L+	c #191B1C",
"M+	c #3C4648",
"N+	c #66777A",
"O+	c #4E585B",
"P+	c #1E2021",
"Q+	c #1C1F21",
"R+	c #191A1B",
"S+	c #151615",
"T+	c #3D4648",
"U+	c #475053",
"V+	c #5D6F73",
"W+	c #4B5558",
"X+	c #3F4042",
"Y+	c #2C282A",
"Z+	c #1D1E20",
"`+	c #1B1D1F",
" @	c #151516",
".@	c #5A6C71",
"+@	c #3E3F42",
"@@	c #2C2729",
"#@	c #1A1C1D",
"$@	c #3D494B",
"%@	c #485153",
"&@	c #536265",
"*@	c #596C70",
"=@	c #1C1E1E",
"-@	c #131413",
";@	c #1D2223",
">@	c #414D50",
",@	c #464F51",
"'@	c #1D1F1F",
")@	c #1A1D1E",
"!@	c #6B6B6B",
"~@	c #FAFAFA",
"{@	c #FFFFFF",
"]@	c #DDDDDD",
"^@	c #1D2324",
"/@	c #424F53",
"(@	c #4A5558",
"_@	c #2C272A",
":@	c #1C1D1D",
"<@	c #252525",
"[@	c #E4E4E4",
"}@	c #1C2122",
"|@	c #404C4F",
"1@	c #485356",
"2@	c #464F52",
"3@	c #2B2729",
"4@	c #1A1A1B",
"5@	c #B9B9B9",
"6@	c #404C50",
"7@	c #495457",
"8@	c #3E4042",
"9@	c #2B2829",
"0@	c #19191A",
"a@	c #7B7B7B",
"b@	c #FDFDFD",
"c@	c #131414",
"d@	c #1E2325",
"e@	c #435054",
"f@	c #4B5659",
"g@	c #3E4143",
"h@	c #2B2B2C",
"i@	c #181919",
"j@	c #373737",
"k@	c #EBEBEB",
"l@	c #F1F1F1",
"m@	c #EFEFEF",
"n@	c #131514",
"o@	c #1E2526",
"p@	c #455458",
"q@	c #4B585B",
"r@	c #3E4244",
"s@	c #2B2C2D",
"t@	c #C5C5C5",
"u@	c #A4A4A4",
"v@	c #F3F3F3",
"w@	c #455558",
"x@	c #4B595C",
"y@	c #586B6F",
"z@	c #2B2A2C",
"A@	c #8B8B8B",
"B@	c #DEDEDE",
"C@	c #F7F7F7",
"D@	c #1F2526",
"E@	c #56686B",
"F@	c #2B2A2B",
"G@	c #484848",
"H@	c #F9F9F9",
"I@	c #636362",
"J@	c #536266",
"K@	c #2B2D2E",
"L@	c #D1D1D1",
"M@	c #ABABAB",
"N@	c #536467",
"O@	c #495255",
"P@	c #3E4446",
"Q@	c #2B2F30",
"R@	c #9B9B9B",
"S@	c #E0E0E0",
"T@	c #1B1B1A",
"U@	c #56676A",
"V@	c #4A5356",
"W@	c #595959",
"X@	c #F6F6F6",
"Y@	c #666665",
"Z@	c #4C595C",
"`@	c #546367",
" #	c #C3C3C3",
".#	c #1F2627",
"+#	c #475659",
"@#	c #4D5A5D",
"##	c #505D60",
"$#	c #C9C9C9",
"%#	c #222829",
"&#	c #4D5C5F",
"*#	c #505E61",
"=#	c #4E5C5F",
"-#	c #3D4446",
";#	c #252C2C",
">#	c #546365",
",#	c #556264",
"'#	c #292929",
")#	c #556365",
"!#	c #4A5355",
"~#	c #3E4546",
"{#	c #2C3132",
"]#	c #23292A",
"^#	c #505F61",
"/#	c #3F4648",
"(#	c #2E3334",
"_#	c #181918",
":#	c #252B2B",
"<#	c #526163",
"[#	c #404749",
"}#	c #2F3335",
"|#	c #404648",
"1#	c #242A2B",
"2#	c #516062",
"3#	c #536062",
"4#	c #526063",
"5#	c #546062",
"6#	c #414749",
"7#	c #303536",
"8#	c #181A19",
"9#	c #272E2E",
"0#	c #596769",
"a#	c #596567",
"b#	c #41484A",
"c#	c #323638",
"d#	c #191A1A",
"e#	c #293030",
"f#	c #5D6B6D",
"g#	c #5B686A",
"h#	c #4C5456",
"i#	c #42484A",
"j#	c #323738",
"k#	c #2A2F30",
"l#	c #121312",
"m#	c #292F2F",
"n#	c #5C686A",
"o#	c #42494A",
"p#	c #1A1B1A",
"q#	c #121211",
"r#	c #121110",
"s#	c #111110",
"t#	c #11110F",
"u#	c #10100F",
"v#	c #11100E",
"w#	c #100F0E",
"x#	c #0F0F0E",
"y#	c #272D2D",
"z#	c #5B696B",
"A#	c #5A6669",
"B#	c #353A3A",
"C#	c #1F2120",
"D#	c #151717",
"E#	c #141616",
"F#	c #131515",
"G#	c #121414",
"H#	c #121515",
"I#	c #131616",
"J#	c #131717",
"K#	c #141818",
"L#	c #151919",
"M#	c #171B1B",
"N#	c #1A1D1D",
"O#	c #1B1D1D",
"P#	c #1A1E1E",
"Q#	c #2B3233",
"R#	c #556164",
"S#	c #3A3F40",
"T#	c #2D3132",
"U#	c #292E2F",
"V#	c #282F2F",
"W#	c #293031",
"X#	c #283032",
"Y#	c #283031",
"Z#	c #282F31",
"`#	c #2A3336",
" $	c #2B3638",
".$	c #2D383A",
"+$	c #2F3B3E",
"@$	c #2F3C3F",
"#$	c #333E41",
"$$	c #424C4E",
"%$	c #444E4F",
"&$	c #434E4F",
"*$	c #434F50",
"=$	c #516163",
"-$	c #4F5B5E",
";$	c #495052",
">$	c #3C4345",
",$	c #3D4547",
"'$	c #3E4648",
")$	c #3F484A",
"!$	c #404B4E",
"~$	c #404C4E",
"{$	c #414D4F",
"]$	c #435155",
"^$	c #465458",
"/$	c #48585B",
"($	c #4A5B60",
"_$	c #4B5D61",
":$	c #4B5C61",
"<$	c #506165",
"[$	c #5C6D6E",
"}$	c #657576",
"|$	c #687779",
"1$	c #677678",
"2$	c #5E6E70",
"3$	c #556466",
"4$	c #484F51",
"5$	c #4F5C5F",
"6$	c #4A5557",
"7$	c #454D4F",
"8$	c #4B575A",
"9$	c #4B585A",
"0$	c #4D5C5E",
"a$	c #4F5F62",
"b$	c #516165",
"c$	c #54666B",
"d$	c #596A6E",
"e$	c #647577",
"f$	c #6D7D7F",
"g$	c #707F81",
"h$	c #6E7E80",
"i$	c #647476",
"j$	c #556265",
"k$	c #FF992C",
"l$	c #474F52",
"m$	c #4D585B",
"n$	c #4E5B5F",
"o$	c #576365",
"p$	c #5D6A6C",
"q$	c #5D696B",
"r$	c #566265",
"s$	c #4A5255",
"t$	c #4C585B",
"u$	c #4A5254",
"v$	c #4B5355",
"w$	c #495153",
"x$	c #474D4F",
"y$	c #44494B",
"z$	c #44484A",
"A$	c #44484B",
"B$	c #414144",
"C$	c #404042",
"D$	c #454B4D",
"E$	c #414648",
"F$	c #3F4547",
"G$	c #3E4345",
"H$	c #3E4043",
"I$	c #3E3D3F",
"J$	c #3E3C3E",
"K$	c #3E3B3E",
"L$	c #3E3A3D",
"M$	c #3C3639",
"N$	c #3C383B",
"O$	c #3A393C",
"P$	c #464C4D",
"Q$	c #414748",
"R$	c #3B4243",
"S$	c #394042",
"T$	c #393A3C",
"U$	c #39393C",
"V$	c #39363A",
"W$	c #393235",
"X$	c #393034",
"Y$	c #393033",
"Z$	c #392F33",
"`$	c #382E32",
" %	c #383235",
".%	c #38393B",
"+%	c #4B3F38",
"@%	c #796F47",
"                                                                                                                                ",
". . . . . . + . + . + . + + + @ . . . . . . + . + . + . + + + @ . . . . . . + . + . + . + + + @ . . . . . . + . + . + . + + + @ ",
". + + + + + + + + + + + + + + @ . + + + + + + + + + + + + + + @ . + + + + + + + + + + + + + + @ . + + + + + + + + + + + + + + @ ",
". + # + + # # # # . + + + # + @ $ % & * = - ; > , ' ' ' ) ! ~ { ] ^ / ( ' _ : < [ } | 1 2 3 4 @ . + # + + # # # # . + + + # + @ ",
". @ + + # @ @ @ @ @ @ + @ + + @ 5 % 6 7 6 8 9 0 a b c c d e f g h i j k c k l m n o p p p q r @ . @ + + # @ @ @ @ @ @ + @ + + @ ",
". + + # @ @ @ @ @ @ @ @ . + + @ s t u v w x y z A B B B B C D E . { F G B G H i I J K K J i L @ . + + # @ @ @ @ @ @ @ @ . + + @ ",
". + # @ @ @ M N N M @ @ @ . + @ O P Q r g h h h . R . . E . . . . . . S S S S T . . . . { f U @ . + # @ @ @ M N N M @ @ @ . + @ ",
". + # @ @ M N N N N M @ @ # + @ V W X . Y Z Z Z Z ` Z Y  . .....+.@.@.@.@.#.$.$.%.. . . &.*.=.@ . + # @ @ M N N N N M @ @ # + @ ",
". + # @ @ N N -.-.N N @ @ # + @ ;.>.,.'.).!.!.!.!.!.~.{.].^.]./.(._._._.:.<.[.[.}.|.+.+. .L D @ . + # @ @ N N -.-.N N @ @ # + @ ",
". + # @ @ N N 1.1.N N @ @ # + @ V 2.@.3.4.5.6.6.6.6.7.8.9.9.0.a.b.b.b.c.d.e.f.f.g.h.3.i.j.k.. @ . + # @ @ N N 1.1.N N @ @ # + @ ",
"# . l.+ + m.m.1.1.m.m.+ + l.. + n.o.'.p.q.r.s.t.t.t.u.v.w.w.x.y.z.z.z.z.A.B.B.B.C.D.E.F.G.+.. + # . l.+ + m.m.1.1.m.m.+ + l.. + ",
". + # @ @ N N 1.1.N N @ @ # + @ n.H.I.J.K.L.M.N.N.O.P.Q.R.S.T.U.V.W.X.Y.Z.`.`.`. + +.+++@+@.. @ . + # @ @ N N 1.1.N N @ @ # + @ ",
"# . l.+ + m.m.1.1.m.m.+ + l.. + n.H.#+$+%+&+*+=+-+;+>+,+'+)+T.!+~+{+]+^+/+(+(+(+(+(+^+_++ :+. + # . l.+ + m.m.1.1.m.m.+ + l.. + ",
"# . l.+ + m.m.1.1.m.m.+ + l.. @ <+H.[+}+K.|+1+2+2+3+4+5+'+6+7+!+8+]+^+9+9+9+9+9+9+9+0+a+b+c+. @ # . l.+ + m.m.1.1.m.m.+ + l.. @ ",
"# . l.+ + m.m.1.1.m.m.+ + l.. + d+e+j.f+g+h+i+j+j+j+'+k+l+W.m+{+]+9+9+9+9+9+9+9+9+9+0+n+o+p+. + # . l.+ + m.m.1.1.m.m.+ + l.. + ",
"# . l.+ + m.m.1.1.m.m.+ + l.. @ q+r+s+t+u+v+j+'+'+w+l+7+x+~+]+y+^+9+9+9+9+9+9+9+9+9+9+z+A+B+S @ # . l.+ + m.m.1.1.m.m.+ + l.. @ ",
"# . l.+ + m.m.1.1.m.m.+ + l.. + C+D+E+F+G+3+'+k+w+6+W.m+8+]+^+9+9+9+9+9+9+9+9+9+9+9+9+H+I+J+E + # . l.+ + m.m.1.1.m.m.+ + l.. + ",
"# . l.+ + m.m.1.1.m.m.+ + l.. + K+e+E+F+N.3+L+6+7+!+m+]+^+^+9+9+9+9+9+9+9+9+9+9+9+9+9+H+M+J+E + # . l.+ + m.m.1.1.m.m.+ + l.. + ",
"# . l.+ + m.m.1.1.m.m.+ + l.. + N+O+s+F+P+Q+R+7+m+8+S+0+9+9+9+9+9+9+9+9+9+9+9+9+9+9+9+>+T+U+E + # . l.+ + m.m.1.1.m.m.+ + l.. + ",
"# . l.+ + m.m.1.1.m.m.+ + l.. + V+W+X+Y+Z+`+)+U. @^+9+9+9+9+9+9+9+9+9+9+9+9+9+9+9+9+9+>+A+] E + # . l.+ + m.m.1.1.m.m.+ + l.. + ",
"# . l.+ + m.m.1.1.m.m.+ + l.. . .@U +@@@P.#@l+m+]+9+9+9+9+9+9+9+9+9+9+9+9+9+9+9+9+9+9+3+$@%@S . # . l.+ + m.m.1.1.m.m.+ + l.. . ",
"&@. l.+ + m.m.1.1.m.m.+ + l.. + *@U +@Y+=@#@7+8+^+9+9+9+9+9+9+9+9+9+9+9+9+9+9+9+9+9+-@;@>@I ,@+ &@. l.+ + m.m.1.1.m.m.+ + l.. + ",
"# . l.+ + m.m.1.1.m.m.+ + l.. . *@U +@Y+'@)@U.]+9+9+9+9+9+9+9+!@~@{@{@]@9+9+9+9+9+9+-@^@/@(@p+. # . l.+ + m.m.1.1.m.m.+ + l.. . ",
"&@. l.+ + m.m.1.1.m.m.+ + l.. + *@U +@_@:@L+~+^+9+9+9+9+9+9+<@[@{@{@{@]@9+9+9+9+9+9+-@}@|@1@2@+ &@. l.+ + m.m.1.1.m.m.+ + l.. + ",
"# . l.+ + m.m.1.1.m.m.+ + l.. . *@U +@3@4@T.S+9+9+9+9+9+9+9+5@{@{@{@{@]@9+9+9+9+9+9+-@2+6@7@2@. # . l.+ + m.m.1.1.m.m.+ + l.. . ",
"&@. l.+ + m.m.1.1.m.m.+ + l.. + *@U 8@9@0@m+y+9+9+9+9+9+9+a@b@{@{@{@{@]@9+9+9+9+9+9+c@d@e@f@] + &@. l.+ + m.m.1.1.m.m.+ + l.. + ",
"&@. l.+ + m.m.1.1.m.m.+ + l.. + *@U g@h@i@m+]+9+9+9+9+9+j@k@{@l@m@{@{@]@9+9+9+9+9+9+n@o@p@q@{ + &@. l.+ + m.m.1.1.m.m.+ + l.. + ",
"&@. l.+ + m.m.1.1.m.m.+ + l.. + *@U r@s@6+m+]+9+9+9+9+9+t@{@{@u@v@{@{@]@9+9+9+9+9+9+n@o@w@x@{ + &@. l.+ + m.m.1.1.m.m.+ + l.. + ",
"&@. l.+ + m.m.1.1.m.m.+ + l.. @ y@U r@z@i@m+]+9+9+9+9+A@{@{@B@9+C@{@{@]@9+9+9+9+9+9+n@D@w@x@{ @ &@. l.+ + m.m.1.1.m.m.+ + l.. @ ",
"&@. l.+ + m.m.1.1.m.m.+ + l.. + E@J g@F@i@~+y+9+9+9+G@l@{@H@I@9+~@{@{@]@9+9+9+9+9+9+n@D@w@x@{ + &@. l.+ + m.m.1.1.m.m.+ + l.. + ",
"&@. l.+ + m.m.1.1.m.m.+ + l.. @ J@L r@K@6+m+]+9+9+9+L@{@{@M@9+9+~@{@{@]@9+9+9+9+9+9+n@D@w@x@{ @ &@. l.+ + m.m.1.1.m.m.+ + l.. @ ",
"&@. l.+ + m.m.1.1.m.m.+ + l.. + N@O@P@Q@S.m+]+9+9+R@{@{@S@T@9+9+~@{@{@]@9+9+9+9+9+9+n@o@w@x@{ + &@. l.+ + m.m.1.1.m.m.+ + l.. + ",
"&@. l.+ + m.m.1.1.m.m.+ + l.. @ U@V@P@Q@S.{+y+9+W@X@{@~@Y@9+9+9+~@{@{@]@9+9+9+9+9+9+n@o@w@Z@{ @ &@. l.+ + m.m.1.1.m.m.+ + l.. @ ",
"&@. l.+ + m.m.1.1.m.m.+ + l.. @ `@O@P@Q@i@]+9+9+ #{@{@{@{@{@{@{@{@{@{@{@{@l@9+9+9+9+0+.#+#@#{ @ &@. l.+ + m.m.1.1.m.m.+ + l.. @ ",
"&@. l.+ + m.m.1.1.m.m.+ + l.. @ ##{ P@Q@i@y+9+9+$#{@{@{@{@{@{@{@{@{@{@{@{@l@9+9+9+9+0+%#&#*#L @ &@. l.+ + m.m.1.1.m.m.+ + l.. @ ",
"&@. l.+ + m.m.1.1.m.m.+ + l.. @ =#{ -#Q@6+]+9+9+$#{@{@{@{@{@{@{@{@{@{@{@{@l@9+9+9+9+y+;#>#,#V@@ &@. l.+ + m.m.1.1.m.m.+ + l.. @ ",
"&@. l.+ + m.m.1.1.m.m.+ + l.. @ =#{ P@Q@i@]+9+9+x.'#'#'#'#'#'#'#~@{@{@B@'#<@9+9+9+9+y+;#)#,#!#@ &@. l.+ + m.m.1.1.m.m.+ + l.. @ ",
"&@. l.+ + m.m.1.1.m.m.+ + l.. @ =#{ ~#{#T.^+9+9+9+9+9+9+9+9+9+9+~@{@{@]@9+9+9+9+9+9+0+]#^#2 r @ &@. l.+ + m.m.1.1.m.m.+ + l.. @ ",
"&@. l.+ + m.m.1.1.m.m.+ + l.. @ =#{ /#(#_#9+9+9+9+9+9+9+9+9+9+9+~@{@{@]@9+9+9+9+9+9+y+:#<#Q J @ &@. l.+ + m.m.1.1.m.m.+ + l.. @ ",
"&@. l.+ + m.m.1.1.m.m.+ + l.. @ =#{ [#}#i@9+9+9+9+9+9+9+9+9+9+9+~@{@{@]@9+9+9+9+9+9+y+;#>#,#I @ &@. l.+ + m.m.1.1.m.m.+ + l.. @ ",
"&@. l.+ + m.m.1.1.m.m.+ + l.. @ =#{ |#(#_#9+9+9+9+9+9+9+9+9+9+9+9+9+9+9+9+9+9+9+9+9+0+1#2#3#J @ &@. l.+ + m.m.1.1.m.m.+ + l.. @ ",
"&@. l.+ + m.m.1.1.m.m.+ + l.. @ =#{ |#(#i@9+9+9+9+9+9+9+9+9+9+9+9+9+9+9+9+9+9+9+9+9+0+1#4#5#J @ &@. l.+ + m.m.1.1.m.m.+ + l.. @ ",
". . l.+ + m.m.1.1.m.m.+ + l.. @ =#{ 6#7#8#9+9+9+9+9+9+9+9+9+9+9+9+9+9+9+9+9+9+9+9+9+y+9#0#a#4 @ . . l.+ + m.m.1.1.m.m.+ + l.. @ ",
"&@. l.+ + m.m.1.1.m.m.+ + l.. @ =#{ b#c#d#9+9+9+9+9+9+9+9+9+9+9+9+9+9+9+9+9+9+9+9+9+y+e#f#g#h#@ &@. l.+ + m.m.1.1.m.m.+ + l.. @ ",
". . l.+ + m.m.1.1.m.m.+ + l.. @ =#{ i#j#d#9+9+9+9+9+9+9+9+9+9+9+9+9+9+9+9+9+9+9+9+9+y+k#f#g#h#@ . . l.+ + m.m.1.1.m.m.+ + l.. @ ",
"&@. l.+ + m.m.1.1.m.m.+ + l.. @ =#{ i#j#d#9+9+9+9+9+9+9+9+9+9+9+9+9+9+9+9+9+9+9+9+9+y+k#f#g#h#@ &@. l.+ + m.m.1.1.m.m.+ + l.. @ ",
". . l.+ + m.m.1.1.m.m.+ + l.. @ =#{ i#j#d#9+9+9+9+9+9+9+9+9+9+9+9+9+9+9+9+9+9+9+9+9+l#m#u n#h#@ . . l.+ + m.m.1.1.m.m.+ + l.. @ ",
"&@. l.+ + m.m.1.1.m.m.+ + l.. @ =#{ o#p.p#-@(+(+q#q#r#r#r#r#r#r#r#s#s#s#s#s#t#u#v#w#x#y#z#A#h#@ &@. l.+ + m.m.1.1.m.m.+ + l.. @ ",
". . l.+ + m.m.1.1.m.m.+ + l.. @ =#{ +.B#C#i@_#W.D#E#F#G#G#G#G#G#H#I#J#K#K#K#L#M#N#O#P#Q#)#R#J @ . . l.+ + m.m.1.1.m.m.+ + l.. @ ",
". . l.+ + m.m.1.1.m.m.+ + l.. @ =#{ k.S#T#U#U#U#V#W#X#Y#Z#Z#Z#X#`# $.$+$@$@$#$M+$$%$&$*$=$-$;$@ . . l.+ + m.m.1.1.m.m.+ + l.. @ ",
". . # + + m.m.1.1.m.m.+ + l.. @ =#K . 6#>$,$T+'$)$!$|@~$~$~$~${$]$^$/$($_$:$<$[$}$|$1$2$3$B 4$@ . . # + + m.m.1.1.m.m.+ + l.. @ ",
". . l.+ + m.m.-.-.m.m.+ + l.. @ 5$H 6$. 7$p+B+B+J (@8$8$8$8$8$9$0$a$b$e c$c$d$e$f$g$h$i$j$p J @ . . l.+ + m.m.-.-.m.m.+ + l.. @ ",
". . # + + k$m.m.m.m.k$+ + l.. @ o q o l$T 4${ { %@r J J J J J ,.H G m$o n$n$##o$n#p$q$r$A ##6$@ . . # + + k$m.m.m.m.k$+ + l.. @ ",
". . # + + + k$m.m.k$+ + + l.. @ F s$t$g . . . . . S S S S S S S h h g l$U+l${ u$v$4 v$w$x$W+E @ . . # + + + k$m.m.k$+ + + l.. @ ",
". . . # + + + + + + + + l.. . @ R y$S :+:+:+:+:+k.k.k.k.k.y$z$z$z$z$z$z$A$A$z$z$y$y$y$Y B$Z C$@ . . . # + + + + + + + + l.. . @ ",
". . . . # + + + + + + l.. . . @ D$E$F$<.<.<.<.<.<.G$g@g@H$+@I$J$K$K$K$K$K$K$K$K$K$K$K$L$M$N$O$@ . . . . # + + + + + + l.. . . @ ",
". . . . . # l.# l.l.l.. . . . @ P$Q$R$S$S$S$S$S$S$3.T$U$U$V$W$X$Y$Y$Y$Y$Y$Y$Y$Y$Y$Y$Y$Z$`$ %.%@ . . . . . # l.# l.l.l.. . . . @ ",
". + . . . . . . + . . . . . . @ . + . . . . . . + . . . . . . @ . + . . . . . . + . . . . . . @ . + . . . . . . + . . . . . . @ ",
"+ . . . . . . . . . . . . . . @ + . . . . . . . . . . . . . . @ + . . . . . . . . . . . . . . @ + . . . . . . . . . . . . . . @ ",
". . +%@%l.. . . . . . l.@%. +%@ . . +%@%l.. . . . . . l.@%. +%@ . . +%@%l.. . . . . . l.@%. +%@ . . +%@%l.. . . . . . l.@%. +%@ ",
"+ . @ @%@%. . + . . @ @%@%. . @ + . @ @%@%. . + . . @ @%@%. . @ + . @ @%@%. . + . . @ @%@%. . @ + . @ @%@%. . + . . @ @%@%. . @ ",
". . @ @ +%. . . . . @ @ . . +%@ . . @ @ +%. . . . . @ @ . . +%@ . . @ @ +%. . . . . @ @ . . +%@ . . @ @ +%. . . . . @ @ . . +%@ ",
". . . +%+%. . . . . . . . +%. @ . . . +%+%. . . . . . . . +%. @ . . . +%+%. . . . . . . . +%. @ . . . +%+%. . . . . . . . +%. @ ",
"9+@ 9+9+9+9+@ 9+@ @ @ @ @ @ @ @ 9+@ 9+9+9+9+@ 9+@ @ @ @ @ @ @ @ 9+@ 9+9+9+9+@ 9+@ @ @ @ @ @ @ @ 9+@ 9+9+9+9+@ 9+@ @ @ @ @ @ @ @ "};
