/* XPM */
static char * scorecent_xpm[] = {
"64 64 523 2",
"  	c #000000",
". 	c #464D4F",
"+ 	c #383F40",
"@ 	c #382B2F",
"# 	c #62797E",
"$ 	c #535E61",
"% 	c #6A7A7C",
"& 	c #7E9193",
"* 	c #829496",
"= 	c #819496",
"- 	c #7B8E90",
"; 	c #738789",
"> 	c #6D8285",
", 	c #64797E",
"' 	c #5E757A",
") 	c #5F757A",
"! 	c #5B6F74",
"~ 	c #515F62",
"{ 	c #485052",
"] 	c #475052",
"^ 	c #4D5A5C",
"/ 	c #586A6D",
"( 	c #5D7477",
"_ 	c #5E7378",
": 	c #5B6E73",
"< 	c #596B6F",
"[ 	c #56666A",
"} 	c #536164",
"| 	c #536063",
"1 	c #535F62",
"2 	c #535F61",
"3 	c #505C5F",
"4 	c #4B5456",
"5 	c #5A686A",
"6 	c #718183",
"7 	c #728284",
"8 	c #6C7C7E",
"9 	c #667779",
"0 	c #627376",
"a 	c #5B6C70",
"b 	c #58696D",
"c 	c #586A6E",
"d 	c #57696D",
"e 	c #546569",
"f 	c #4D595C",
"g 	c #474F51",
"h 	c #474E50",
"i 	c #4B5557",
"j 	c #526164",
"k 	c #57686C",
"l 	c #556568",
"m 	c #526265",
"n 	c #505F62",
"o 	c #4E5B5E",
"p 	c #4E5A5C",
"q 	c #4D595B",
"r 	c #495254",
"s 	c #657577",
"t 	c #69797B",
"u 	c #5E6B6D",
"v 	c #596465",
"w 	c #586365",
"x 	c #566062",
"y 	c #535D5F",
"z 	c #515C5E",
"A 	c #4E595C",
"B 	c #4D585A",
"C 	c #4C5658",
"D 	c #485154",
"E 	c #464D50",
"F 	c #4B5457",
"G 	c #4C575A",
"H 	c #4B5658",
"I 	c #4A5456",
"J 	c #495355",
"K 	c #485254",
"L 	c #495154",
"M 	c #F78300",
"N 	c #FFB62C",
"O 	c #6F8082",
"P 	c #647376",
"Q 	c #546163",
"R 	c #464C4E",
"S 	c #464E50",
"T 	c #464E4F",
"U 	c #4A5457",
"V 	c #758688",
"W 	c #5C696C",
"X 	c #505C60",
"Y 	c #434749",
"Z 	c #434648",
"` 	c #434547",
" .	c #43474A",
"..	c #43484A",
"+.	c #43494B",
"@.	c #434A4C",
"#.	c #434B4C",
"$.	c #444C4D",
"%.	c #454C4E",
"&.	c #474E51",
"*.	c #4E5A5E",
"=.	c #4B5559",
"-.	c #FFEC24",
";.	c #768689",
">.	c #555F62",
",.	c #495356",
"'.	c #404748",
").	c #3B3C3E",
"!.	c #3B383A",
"~.	c #3B393B",
"{.	c #3B3B3D",
"].	c #3B3D3F",
"^.	c #3B3C3F",
"/.	c #3B3F41",
"(.	c #3B4143",
"_.	c #3B4244",
":.	c #3D4445",
"<.	c #3E4547",
"[.	c #3F4647",
"}.	c #414849",
"|.	c #42494B",
"1.	c #F5F9ED",
"2.	c #535C5E",
"3.	c #393E3F",
"4.	c #313031",
"5.	c #30292C",
"6.	c #2F272A",
"7.	c #2F292B",
"8.	c #2F2C2E",
"9.	c #2E2E30",
"0.	c #2E2F30",
"a.	c #2E3133",
"b.	c #2E3435",
"c.	c #2F3536",
"d.	c #313737",
"e.	c #33393A",
"f.	c #34393A",
"g.	c #363B3C",
"h.	c #383D3E",
"i.	c #3B4041",
"j.	c #3F4244",
"k.	c #444A4C",
"l.	c #BAB77A",
"m.	c #FFD02C",
"n.	c #768789",
"o.	c #535E5F",
"p.	c #333738",
"q.	c #2B2F31",
"r.	c #282A2C",
"s.	c #232122",
"t.	c #221E20",
"u.	c #221E1F",
"v.	c #212021",
"w.	c #202021",
"x.	c #202020",
"y.	c #202121",
"z.	c #202323",
"A.	c #212424",
"B.	c #232626",
"C.	c #252828",
"D.	c #252929",
"E.	c #26292A",
"F.	c #2C3030",
"G.	c #3B3E40",
"H.	c #545E60",
"I.	c #404546",
"J.	c #333839",
"K.	c #333D40",
"L.	c #303A3C",
"M.	c #212527",
"N.	c #1E2121",
"O.	c #1D1F20",
"P.	c #1C1D1E",
"Q.	c #1B1D1E",
"R.	c #191B1B",
"S.	c #181A1A",
"T.	c #171919",
"U.	c #171718",
"V.	c #171717",
"W.	c #171818",
"X.	c #171817",
"Y.	c #161716",
"Z.	c #151715",
"`.	c #151716",
" +	c #161816",
".+	c #181818",
"++	c #222323",
"@+	c #383D3F",
"#+	c #404345",
"$+	c #35383B",
"%+	c #394548",
"&+	c #364245",
"*+	c #242A2C",
"=+	c #202425",
"-+	c #1F2324",
";+	c #1E2223",
">+	c #1D2021",
",+	c #1C1F20",
"'+	c #191B1D",
")+	c #18191B",
"!+	c #161718",
"~+	c #161617",
"{+	c #161616",
"]+	c #151515",
"^+	c #141414",
"/+	c #131313",
"(+	c #131312",
"_+	c #1E1F1F",
":+	c #444B4D",
"<+	c #748587",
"[+	c #3F4345",
"}+	c #333436",
"|+	c #303B3E",
"1+	c #212729",
"2+	c #1D2123",
"3+	c #1C2021",
"4+	c #1B1F20",
"5+	c #1A1D1F",
"6+	c #18191A",
"7+	c #171819",
"8+	c #151616",
"9+	c #141413",
"0+	c #141514",
"a+	c #1D2121",
"b+	c #3A4345",
"c+	c #454E50",
"d+	c #6D7E81",
"e+	c #515B5D",
"f+	c #2F2D2F",
"g+	c #272E30",
"h+	c #262C2F",
"i+	c #1D2022",
"j+	c #1A1C1E",
"k+	c #181A1C",
"l+	c #17191A",
"m+	c #161717",
"n+	c #1E2222",
"o+	c #3D4748",
"p+	c #465052",
"q+	c #67787B",
"r+	c #4F595B",
"s+	c #3F4143",
"t+	c #2D2A2C",
"u+	c #212426",
"v+	c #1F2325",
"w+	c #181A1B",
"x+	c #161818",
"y+	c #151514",
"z+	c #1E2221",
"A+	c #3D4749",
"B+	c #475153",
"C+	c #697B7E",
"D+	c #505A5C",
"E+	c #3F4144",
"F+	c #2C282B",
"G+	c #1E2122",
"H+	c #1C2020",
"I+	c #3C4748",
"J+	c #465053",
"K+	c #6C7D80",
"L+	c #191B1C",
"M+	c #3C4648",
"N+	c #66777A",
"O+	c #4E585B",
"P+	c #1E2021",
"Q+	c #1C1F21",
"R+	c #191A1B",
"S+	c #151615",
"T+	c #3D4648",
"U+	c #475053",
"V+	c #5D6F73",
"W+	c #4B5558",
"X+	c #3F4042",
"Y+	c #2C282A",
"Z+	c #1D1E20",
"`+	c #1B1D1F",
" @	c #151516",
".@	c #5A6C71",
"+@	c #3E3F42",
"@@	c #2C2729",
"#@	c #1A1C1D",
"$@	c #3D494B",
"%@	c #485153",
"&@	c #536265",
"*@	c #596C70",
"=@	c #1C1E1E",
"-@	c #131413",
";@	c #1D2223",
">@	c #414D50",
",@	c #464F51",
"'@	c #1D1F1F",
")@	c #1A1D1E",
"!@	c #1D2324",
"~@	c #424F53",
"{@	c #4A5558",
"]@	c #2C272A",
"^@	c #1C1D1D",
"/@	c #1C2122",
"(@	c #404C4F",
"_@	c #485356",
":@	c #464F52",
"<@	c #2B2729",
"[@	c #1A1A1B",
"}@	c #404C50",
"|@	c #495457",
"1@	c #3E4042",
"2@	c #2B2829",
"3@	c #19191A",
"4@	c #131414",
"5@	c #1E2325",
"6@	c #435054",
"7@	c #4B5659",
"8@	c #3E4143",
"9@	c #2B2B2C",
"0@	c #181919",
"a@	c #131514",
"b@	c #1E2526",
"c@	c #455458",
"d@	c #4B585B",
"e@	c #3E4244",
"f@	c #2B2C2D",
"g@	c #455558",
"h@	c #4B595C",
"i@	c #586B6F",
"j@	c #2B2A2C",
"k@	c #1F2526",
"l@	c #56686B",
"m@	c #2B2A2B",
"n@	c #536266",
"o@	c #2B2D2E",
"p@	c #536467",
"q@	c #495255",
"r@	c #3E4446",
"s@	c #2B2F30",
"t@	c #56676A",
"u@	c #4A5356",
"v@	c #4C595C",
"w@	c #546367",
"x@	c #1F2627",
"y@	c #475659",
"z@	c #4D5A5D",
"A@	c #505D60",
"B@	c #222829",
"C@	c #4D5C5F",
"D@	c #505E61",
"E@	c #4E5C5F",
"F@	c #3D4446",
"G@	c #252C2C",
"H@	c #546365",
"I@	c #556264",
"J@	c #556365",
"K@	c #4A5355",
"L@	c #3E4546",
"M@	c #2C3132",
"N@	c #23292A",
"O@	c #505F61",
"P@	c #3F4648",
"Q@	c #2E3334",
"R@	c #181918",
"S@	c #252B2B",
"T@	c #526163",
"U@	c #404749",
"V@	c #2F3335",
"W@	c #404648",
"X@	c #242A2B",
"Y@	c #516062",
"Z@	c #536062",
"`@	c #526063",
" #	c #546062",
".#	c #414749",
"+#	c #303536",
"@#	c #181A19",
"##	c #272E2E",
"$#	c #596769",
"%#	c #596567",
"&#	c #41484A",
"*#	c #323638",
"=#	c #191A1A",
"-#	c #293030",
";#	c #5D6B6D",
">#	c #5B686A",
",#	c #4C5456",
"'#	c #42484A",
")#	c #323738",
"!#	c #2A2F30",
"~#	c #121312",
"{#	c #292F2F",
"]#	c #5C686A",
"^#	c #42494A",
"/#	c #1A1B1A",
"(#	c #121211",
"_#	c #121110",
":#	c #111110",
"<#	c #11110F",
"[#	c #10100F",
"}#	c #11100E",
"|#	c #100F0E",
"1#	c #0F0F0E",
"2#	c #272D2D",
"3#	c #5B696B",
"4#	c #5A6669",
"5#	c #353A3A",
"6#	c #1F2120",
"7#	c #151717",
"8#	c #141616",
"9#	c #131515",
"0#	c #121414",
"a#	c #121515",
"b#	c #131616",
"c#	c #131717",
"d#	c #141818",
"e#	c #151919",
"f#	c #171B1B",
"g#	c #1A1D1D",
"h#	c #1B1D1D",
"i#	c #1A1E1E",
"j#	c #2B3233",
"k#	c #556164",
"l#	c #3A3F40",
"m#	c #2D3132",
"n#	c #292E2F",
"o#	c #282F2F",
"p#	c #293031",
"q#	c #283032",
"r#	c #283031",
"s#	c #282F31",
"t#	c #2A3336",
"u#	c #2B3638",
"v#	c #2D383A",
"w#	c #2F3B3E",
"x#	c #2F3C3F",
"y#	c #333E41",
"z#	c #424C4E",
"A#	c #444E4F",
"B#	c #434E4F",
"C#	c #434F50",
"D#	c #516163",
"E#	c #4F5B5E",
"F#	c #495052",
"G#	c #3C4345",
"H#	c #3D4547",
"I#	c #3E4648",
"J#	c #3F484A",
"K#	c #404B4E",
"L#	c #404C4E",
"M#	c #414D4F",
"N#	c #435155",
"O#	c #465458",
"P#	c #48585B",
"Q#	c #4A5B60",
"R#	c #4B5D61",
"S#	c #4B5C61",
"T#	c #506165",
"U#	c #5C6D6E",
"V#	c #657576",
"W#	c #687779",
"X#	c #677678",
"Y#	c #5E6E70",
"Z#	c #556466",
"`#	c #484F51",
" $	c #4F5C5F",
".$	c #4A5557",
"+$	c #454D4F",
"@$	c #4B575A",
"#$	c #4B585A",
"$$	c #4D5C5E",
"%$	c #4F5F62",
"&$	c #516165",
"*$	c #54666B",
"=$	c #596A6E",
"-$	c #647577",
";$	c #6D7D7F",
">$	c #707F81",
",$	c #6E7E80",
"'$	c #647476",
")$	c #556265",
"!$	c #FF992C",
"~$	c #474F52",
"{$	c #4D585B",
"]$	c #4E5B5F",
"^$	c #576365",
"/$	c #5D6A6C",
"($	c #5D696B",
"_$	c #566265",
":$	c #4A5255",
"<$	c #4C585B",
"[$	c #4A5254",
"}$	c #4B5355",
"|$	c #495153",
"1$	c #474D4F",
"2$	c #44494B",
"3$	c #44484A",
"4$	c #44484B",
"5$	c #414144",
"6$	c #404042",
"7$	c #454B4D",
"8$	c #414648",
"9$	c #3F4547",
"0$	c #3E4345",
"a$	c #3E4043",
"b$	c #3E3D3F",
"c$	c #3E3C3E",
"d$	c #3E3B3E",
"e$	c #3E3A3D",
"f$	c #3C3639",
"g$	c #3C383B",
"h$	c #3A393C",
"i$	c #464C4D",
"j$	c #414748",
"k$	c #3B4243",
"l$	c #394042",
"m$	c #393A3C",
"n$	c #39393C",
"o$	c #39363A",
"p$	c #393235",
"q$	c #393034",
"r$	c #393033",
"s$	c #392F33",
"t$	c #382E32",
"u$	c #383235",
"v$	c #38393B",
"w$	c #4B3F38",
"x$	c #796F47",
"                                                                                                                                ",
". . . . . . + . + . + . + + + @ . . . . . . + . + . + . + + + @ . . . . . . + . + . + . + + + @ . . . . . . + . + . + . + + + @ ",
". + + + + + + + + + + + + + + @ . + + + + + + + + + + + + + + @ . + + + + + + + + + + + + + + @ . + + + + + + + + + + + + + + @ ",
". + # + + # # # # . + + + # + @ $ % & * = - ; > , ' ' ' ) ! ~ { ] ^ / ( ' _ : < [ } | 1 2 3 4 @ . + # + + # # # # . + + + # + @ ",
". @ + + # @ @ @ @ @ @ + @ + + @ 5 % 6 7 6 8 9 0 a b c c d e f g h i j k c k l m n o p p p q r @ . @ + + # @ @ @ @ @ @ + @ + + @ ",
". + + # @ @ @ @ @ @ @ @ . + + @ s t u v w x y z A B B B B C D E . { F G B G H i I J K K J i L @ . + + # @ @ @ @ @ @ @ @ . + + @ ",
". + # @ @ @ M N N M @ @ @ . + @ O P Q r g h h h . R . . E . . . . . . S S S S T . . . . { f U @ . + # @ @ @ M N N M @ @ @ . + @ ",
". + # @ @ M N N N N M @ @ # + @ V W X . Y Z Z Z Z ` Z Y  . .....+.@.@.@.@.#.$.$.%.. . . &.*.=.@ . + # @ @ M N N N N M @ @ # + @ ",
". + # @ @ N N -.-.N N @ @ # + @ ;.>.,.'.).!.!.!.!.!.~.{.].^.]./.(._._._.:.<.[.[.}.|.+.+. .L D @ . + # @ @ N N -.-.N N @ @ # + @ ",
". + # @ @ N N 1.1.N N @ @ # + @ V 2.@.3.4.5.6.6.6.6.7.8.9.9.0.a.b.b.b.c.d.e.f.f.g.h.3.i.j.k.. @ . + # @ @ N N 1.1.N N @ @ # + @ ",
"# . l.+ + m.m.1.1.m.m.+ + l.. + n.o.'.p.q.r.s.t.t.t.u.v.w.w.x.y.z.z.z.z.A.B.B.B.C.D.E.F.G.+.. + # . l.+ + m.m.1.1.m.m.+ + l.. + ",
". + # @ @ N N 1.1.N N @ @ # + @ n.H.I.J.K.L.M.N.N.O.P.Q.R.S.T.U.V.W.X.Y.Z.`.`.`. + +.+++@+@.. @ . + # @ @ N N 1.1.N N @ @ # + @ ",
"# . l.+ + m.m.1.1.m.m.+ + l.. + n.H.#+$+%+&+*+=+-+;+>+,+'+)+T.!+~+{+]+^+/+(+(+(+(+(+^+_++ :+. + # . l.+ + m.m.1.1.m.m.+ + l.. + ",
"# . l.+ + m.m.1.1.m.m.+ + l.. @ <+H.[+}+K.|+1+2+2+3+4+5+'+6+7+!+8+]+^+9+9+9+9+9+9+9+0+a+b+c+. @ # . l.+ + m.m.1.1.m.m.+ + l.. @ ",
"# . l.+ + m.m.1.1.m.m.+ + l.. + d+e+j.f+g+h+i+j+j+j+'+k+l+W.m+{+]+9+9+9+9+9+9+9+9+9+0+n+o+p+. + # . l.+ + m.m.1.1.m.m.+ + l.. + ",
"# . l.+ + m.m.1.1.m.m.+ + l.. @ q+r+s+t+u+v+j+'+'+w+l+7+x+~+]+y+^+9+9+9+9+9+9+9+9+9+9+z+A+B+S @ # . l.+ + m.m.1.1.m.m.+ + l.. @ ",
"# . l.+ + m.m.1.1.m.m.+ + l.. + C+D+E+F+G+3+'+k+w+6+W.m+8+]+^+9+9+9+9+9+9+9+9+9+9+9+9+H+I+J+E + # . l.+ + m.m.1.1.m.m.+ + l.. + ",
"# . l.+ + m.m.1.1.m.m.+ + l.. + K+e+E+F+N.3+L+6+7+!+m+]+^+^+9+9+9+9+9+9+9+9+9+9+9+9+9+H+M+J+E + # . l.+ + m.m.1.1.m.m.+ + l.. + ",
"# . l.+ + m.m.1.1.m.m.+ + l.. + N+O+s+F+P+Q+R+7+m+8+S+0+9+9+9+9+9+9+9+9+9+9+9+9+9+9+9+>+T+U+E + # . l.+ + m.m.1.1.m.m.+ + l.. + ",
"# . l.+ + m.m.1.1.m.m.+ + l.. + V+W+X+Y+Z+`+)+U. @^+9+9+9+9+9+9+9+9+9+9+9+9+9+9+9+9+9+>+A+] E + # . l.+ + m.m.1.1.m.m.+ + l.. + ",
"# . l.+ + m.m.1.1.m.m.+ + l.. . .@U +@@@P.#@l+m+]+9+9+9+9+9+9+9+9+9+9+9+9+9+9+9+9+9+9+3+$@%@S . # . l.+ + m.m.1.1.m.m.+ + l.. . ",
"&@. l.+ + m.m.1.1.m.m.+ + l.. + *@U +@Y+=@#@7+8+^+9+9+9+9+9+9+9+9+9+9+9+9+9+9+9+9+9+-@;@>@I ,@+ &@. l.+ + m.m.1.1.m.m.+ + l.. + ",
"# . l.+ + m.m.1.1.m.m.+ + l.. . *@U +@Y+'@)@U.]+9+9+9+9+9+9+9+9+9+9+9+9+9+9+9+9+9+9+-@!@~@{@p+. # . l.+ + m.m.1.1.m.m.+ + l.. . ",
"&@. l.+ + m.m.1.1.m.m.+ + l.. + *@U +@]@^@L+~+^+9+9+9+9+9+9+9+9+9+9+9+9+9+9+9+9+9+9+-@/@(@_@:@+ &@. l.+ + m.m.1.1.m.m.+ + l.. + ",
"# . l.+ + m.m.1.1.m.m.+ + l.. . *@U +@<@[@T.S+9+9+9+9+9+9+9+9+9+9+9+9+9+9+9+9+9+9+9+-@2+}@|@:@. # . l.+ + m.m.1.1.m.m.+ + l.. . ",
"&@. l.+ + m.m.1.1.m.m.+ + l.. + *@U 1@2@3@m+y+9+9+9+9+9+9+9+9+9+9+9+9+9+9+9+9+9+9+9+4@5@6@7@] + &@. l.+ + m.m.1.1.m.m.+ + l.. + ",
"&@. l.+ + m.m.1.1.m.m.+ + l.. + *@U 8@9@0@m+]+9+9+9+9+9+9+9+9+9+9+9+9+9+9+9+9+9+9+9+a@b@c@d@{ + &@. l.+ + m.m.1.1.m.m.+ + l.. + ",
"&@. l.+ + m.m.1.1.m.m.+ + l.. + *@U e@f@6+m+]+9+9+9+9+9+9+9+9+9+9+9+9+9+9+9+9+9+9+9+a@b@g@h@{ + &@. l.+ + m.m.1.1.m.m.+ + l.. + ",
"&@. l.+ + m.m.1.1.m.m.+ + l.. @ i@U e@j@0@m+]+9+9+9+9+9+9+9+9+9+9+9+9+9+9+9+9+9+9+9+a@k@g@h@{ @ &@. l.+ + m.m.1.1.m.m.+ + l.. @ ",
"&@. l.+ + m.m.1.1.m.m.+ + l.. + l@J 8@m@0@~+y+9+9+9+9+9+9+9+9+9+9+9+9+9+9+9+9+9+9+9+a@k@g@h@{ + &@. l.+ + m.m.1.1.m.m.+ + l.. + ",
"&@. l.+ + m.m.1.1.m.m.+ + l.. @ n@L e@o@6+m+]+9+9+9+9+9+9+9+9+9+9+9+9+9+9+9+9+9+9+9+a@k@g@h@{ @ &@. l.+ + m.m.1.1.m.m.+ + l.. @ ",
"&@. l.+ + m.m.1.1.m.m.+ + l.. + p@q@r@s@S.m+]+9+9+9+9+9+9+9+9+9+9+9+9+9+9+9+9+9+9+9+a@b@g@h@{ + &@. l.+ + m.m.1.1.m.m.+ + l.. + ",
"&@. l.+ + m.m.1.1.m.m.+ + l.. @ t@u@r@s@S.{+y+9+9+9+9+9+9+9+9+9+9+9+9+9+9+9+9+9+9+9+a@b@g@v@{ @ &@. l.+ + m.m.1.1.m.m.+ + l.. @ ",
"&@. l.+ + m.m.1.1.m.m.+ + l.. @ w@q@r@s@0@]+9+9+9+9+9+9+9+9+9+9+9+9+9+9+9+9+9+9+9+9+0+x@y@z@{ @ &@. l.+ + m.m.1.1.m.m.+ + l.. @ ",
"&@. l.+ + m.m.1.1.m.m.+ + l.. @ A@{ r@s@0@y+9+9+9+9+9+9+9+9+9+9+9+9+9+9+9+9+9+9+9+9+0+B@C@D@L @ &@. l.+ + m.m.1.1.m.m.+ + l.. @ ",
"&@. l.+ + m.m.1.1.m.m.+ + l.. @ E@{ F@s@6+]+9+9+9+9+9+9+9+9+9+9+9+9+9+9+9+9+9+9+9+9+y+G@H@I@u@@ &@. l.+ + m.m.1.1.m.m.+ + l.. @ ",
"&@. l.+ + m.m.1.1.m.m.+ + l.. @ E@{ r@s@0@]+9+9+9+9+9+9+9+9+9+9+9+9+9+9+9+9+9+9+9+9+y+G@J@I@K@@ &@. l.+ + m.m.1.1.m.m.+ + l.. @ ",
"&@. l.+ + m.m.1.1.m.m.+ + l.. @ E@{ L@M@T.^+9+9+9+9+9+9+9+9+9+9+9+9+9+9+9+9+9+9+9+9+0+N@O@2 r @ &@. l.+ + m.m.1.1.m.m.+ + l.. @ ",
"&@. l.+ + m.m.1.1.m.m.+ + l.. @ E@{ P@Q@R@9+9+9+9+9+9+9+9+9+9+9+9+9+9+9+9+9+9+9+9+9+y+S@T@Q J @ &@. l.+ + m.m.1.1.m.m.+ + l.. @ ",
"&@. l.+ + m.m.1.1.m.m.+ + l.. @ E@{ U@V@0@9+9+9+9+9+9+9+9+9+9+9+9+9+9+9+9+9+9+9+9+9+y+G@H@I@I @ &@. l.+ + m.m.1.1.m.m.+ + l.. @ ",
"&@. l.+ + m.m.1.1.m.m.+ + l.. @ E@{ W@Q@R@9+9+9+9+9+9+9+9+9+9+9+9+9+9+9+9+9+9+9+9+9+0+X@Y@Z@J @ &@. l.+ + m.m.1.1.m.m.+ + l.. @ ",
"&@. l.+ + m.m.1.1.m.m.+ + l.. @ E@{ W@Q@0@9+9+9+9+9+9+9+9+9+9+9+9+9+9+9+9+9+9+9+9+9+0+X@`@ #J @ &@. l.+ + m.m.1.1.m.m.+ + l.. @ ",
". . l.+ + m.m.1.1.m.m.+ + l.. @ E@{ .#+#@#9+9+9+9+9+9+9+9+9+9+9+9+9+9+9+9+9+9+9+9+9+y+##$#%#4 @ . . l.+ + m.m.1.1.m.m.+ + l.. @ ",
"&@. l.+ + m.m.1.1.m.m.+ + l.. @ E@{ &#*#=#9+9+9+9+9+9+9+9+9+9+9+9+9+9+9+9+9+9+9+9+9+y+-#;#>#,#@ &@. l.+ + m.m.1.1.m.m.+ + l.. @ ",
". . l.+ + m.m.1.1.m.m.+ + l.. @ E@{ '#)#=#9+9+9+9+9+9+9+9+9+9+9+9+9+9+9+9+9+9+9+9+9+y+!#;#>#,#@ . . l.+ + m.m.1.1.m.m.+ + l.. @ ",
"&@. l.+ + m.m.1.1.m.m.+ + l.. @ E@{ '#)#=#9+9+9+9+9+9+9+9+9+9+9+9+9+9+9+9+9+9+9+9+9+y+!#;#>#,#@ &@. l.+ + m.m.1.1.m.m.+ + l.. @ ",
". . l.+ + m.m.1.1.m.m.+ + l.. @ E@{ '#)#=#9+9+9+9+9+9+9+9+9+9+9+9+9+9+9+9+9+9+9+9+9+~#{#u ]#,#@ . . l.+ + m.m.1.1.m.m.+ + l.. @ ",
"&@. l.+ + m.m.1.1.m.m.+ + l.. @ E@{ ^#p./#-@(+(+(#(#_#_#_#_#_#_#_#:#:#:#:#:#<#[#}#|#1#2#3#4#,#@ &@. l.+ + m.m.1.1.m.m.+ + l.. @ ",
". . l.+ + m.m.1.1.m.m.+ + l.. @ E@{ +.5#6#0@R@W.7#8#9#0#0#0#0#0#a#b#c#d#d#d#e#f#g#h#i#j#J@k#J @ . . l.+ + m.m.1.1.m.m.+ + l.. @ ",
". . l.+ + m.m.1.1.m.m.+ + l.. @ E@{ k.l#m#n#n#n#o#p#q#r#s#s#s#q#t#u#v#w#x#x#y#M+z#A#B#C#D#E#F#@ . . l.+ + m.m.1.1.m.m.+ + l.. @ ",
". . # + + m.m.1.1.m.m.+ + l.. @ E@K . .#G#H#T+I#J#K#(@L#L#L#L#M#N#O#P#Q#R#S#T#U#V#W#X#Y#Z#B `#@ . . # + + m.m.1.1.m.m.+ + l.. @ ",
". . l.+ + m.m.-.-.m.m.+ + l.. @  $H .$. +$p+B+B+J {@@$@$@$@$@$#$$$%$&$e *$*$=$-$;$>$,$'$)$p J @ . . l.+ + m.m.-.-.m.m.+ + l.. @ ",
". . # + + !$m.m.m.m.!$+ + l.. @ o q o ~$T `#{ { %@r J J J J J ,.H G {$o ]$]$A@^$]#/$($_$A A@.$@ . . # + + !$m.m.m.m.!$+ + l.. @ ",
". . # + + + !$m.m.!$+ + + l.. @ F :$<$g . . . . . S S S S S S S h h g ~$U+~${ [$}$4 }$|$1$W+E @ . . # + + + !$m.m.!$+ + + l.. @ ",
". . . # + + + + + + + + l.. . @ R 2$S :+:+:+:+:+k.k.k.k.k.2$3$3$3$3$3$3$4$4$3$3$2$2$2$Y 5$Z 6$@ . . . # + + + + + + + + l.. . @ ",
". . . . # + + + + + + l.. . . @ 7$8$9$<.<.<.<.<.<.0$8@8@a$+@b$c$d$d$d$d$d$d$d$d$d$d$d$e$f$g$h$@ . . . . # + + + + + + l.. . . @ ",
". . . . . # l.# l.l.l.. . . . @ i$j$k$l$l$l$l$l$l$3.m$n$n$o$p$q$r$r$r$r$r$r$r$r$r$r$r$s$t$u$v$@ . . . . . # l.# l.l.l.. . . . @ ",
". + . . . . . . + . . . . . . @ . + . . . . . . + . . . . . . @ . + . . . . . . + . . . . . . @ . + . . . . . . + . . . . . . @ ",
"+ . . . . . . . . . . . . . . @ + . . . . . . . . . . . . . . @ + . . . . . . . . . . . . . . @ + . . . . . . . . . . . . . . @ ",
". . w$x$l.. . . . . . l.x$. w$@ . . w$x$l.. . . . . . l.x$. w$@ . . w$x$l.. . . . . . l.x$. w$@ . . w$x$l.. . . . . . l.x$. w$@ ",
"+ . @ x$x$. . + . . @ x$x$. . @ + . @ x$x$. . + . . @ x$x$. . @ + . @ x$x$. . + . . @ x$x$. . @ + . @ x$x$. . + . . @ x$x$. . @ ",
". . @ @ w$. . . . . @ @ . . w$@ . . @ @ w$. . . . . @ @ . . w$@ . . @ @ w$. . . . . @ @ . . w$@ . . @ @ w$. . . . . @ @ . . w$@ ",
". . . w$w$. . . . . . . . w$. @ . . . w$w$. . . . . . . . w$. @ . . . w$w$. . . . . . . . w$. @ . . . w$w$. . . . . . . . w$. @ ",
"9+@ 9+9+9+9+@ 9+@ @ @ @ @ @ @ @ 9+@ 9+9+9+9+@ 9+@ @ @ @ @ @ @ @ 9+@ 9+9+9+9+@ 9+@ @ @ @ @ @ @ @ 9+@ 9+9+9+9+@ 9+@ @ @ @ @ @ @ @ "};
