/* XPM */
static char * scoreone_xpm[] = {
"64 64 547 2",
"  	c #000000",
". 	c #464D4F",
"+ 	c #383F40",
"@ 	c #382B2F",
"# 	c #62797E",
"$ 	c #535E61",
"% 	c #6A7A7C",
"& 	c #7E9193",
"* 	c #829496",
"= 	c #819496",
"- 	c #7B8E90",
"; 	c #738789",
"> 	c #6D8285",
", 	c #64797E",
"' 	c #5E757A",
") 	c #5F757A",
"! 	c #5B6F74",
"~ 	c #515F62",
"{ 	c #485052",
"] 	c #475052",
"^ 	c #4D5A5C",
"/ 	c #586A6D",
"( 	c #5D7477",
"_ 	c #5E7378",
": 	c #5B6E73",
"< 	c #596B6F",
"[ 	c #56666A",
"} 	c #536164",
"| 	c #536063",
"1 	c #535F62",
"2 	c #535F61",
"3 	c #505C5F",
"4 	c #4B5456",
"5 	c #5A686A",
"6 	c #718183",
"7 	c #728284",
"8 	c #6C7C7E",
"9 	c #667779",
"0 	c #627376",
"a 	c #5B6C70",
"b 	c #58696D",
"c 	c #586A6E",
"d 	c #57696D",
"e 	c #546569",
"f 	c #4D595C",
"g 	c #474F51",
"h 	c #474E50",
"i 	c #4B5557",
"j 	c #526164",
"k 	c #57686C",
"l 	c #556568",
"m 	c #526265",
"n 	c #505F62",
"o 	c #4E5B5E",
"p 	c #4E5A5C",
"q 	c #4D595B",
"r 	c #495254",
"s 	c #657577",
"t 	c #69797B",
"u 	c #5E6B6D",
"v 	c #596465",
"w 	c #586365",
"x 	c #566062",
"y 	c #535D5F",
"z 	c #515C5E",
"A 	c #4E595C",
"B 	c #4D585A",
"C 	c #4C5658",
"D 	c #485154",
"E 	c #464D50",
"F 	c #4B5457",
"G 	c #4C575A",
"H 	c #4B5658",
"I 	c #4A5456",
"J 	c #495355",
"K 	c #485254",
"L 	c #495154",
"M 	c #F78300",
"N 	c #FFB62C",
"O 	c #6F8082",
"P 	c #647376",
"Q 	c #546163",
"R 	c #464C4E",
"S 	c #464E50",
"T 	c #464E4F",
"U 	c #4A5457",
"V 	c #758688",
"W 	c #5C696C",
"X 	c #505C60",
"Y 	c #434749",
"Z 	c #434648",
"` 	c #434547",
" .	c #43474A",
"..	c #43484A",
"+.	c #43494B",
"@.	c #434A4C",
"#.	c #434B4C",
"$.	c #444C4D",
"%.	c #454C4E",
"&.	c #474E51",
"*.	c #4E5A5E",
"=.	c #4B5559",
"-.	c #FFEC24",
";.	c #768689",
">.	c #555F62",
",.	c #495356",
"'.	c #404748",
").	c #3B3C3E",
"!.	c #3B383A",
"~.	c #3B393B",
"{.	c #3B3B3D",
"].	c #3B3D3F",
"^.	c #3B3C3F",
"/.	c #3B3F41",
"(.	c #3B4143",
"_.	c #3B4244",
":.	c #3D4445",
"<.	c #3E4547",
"[.	c #3F4647",
"}.	c #414849",
"|.	c #42494B",
"1.	c #F5F9ED",
"2.	c #535C5E",
"3.	c #393E3F",
"4.	c #313031",
"5.	c #30292C",
"6.	c #2F272A",
"7.	c #2F292B",
"8.	c #2F2C2E",
"9.	c #2E2E30",
"0.	c #2E2F30",
"a.	c #2E3133",
"b.	c #2E3435",
"c.	c #2F3536",
"d.	c #313737",
"e.	c #33393A",
"f.	c #34393A",
"g.	c #363B3C",
"h.	c #383D3E",
"i.	c #3B4041",
"j.	c #3F4244",
"k.	c #444A4C",
"l.	c #BAB77A",
"m.	c #FFD02C",
"n.	c #768789",
"o.	c #535E5F",
"p.	c #333738",
"q.	c #2B2F31",
"r.	c #282A2C",
"s.	c #232122",
"t.	c #221E20",
"u.	c #221E1F",
"v.	c #212021",
"w.	c #202021",
"x.	c #202020",
"y.	c #202121",
"z.	c #202323",
"A.	c #212424",
"B.	c #232626",
"C.	c #252828",
"D.	c #252929",
"E.	c #26292A",
"F.	c #2C3030",
"G.	c #3B3E40",
"H.	c #545E60",
"I.	c #404546",
"J.	c #333839",
"K.	c #333D40",
"L.	c #303A3C",
"M.	c #212527",
"N.	c #1E2121",
"O.	c #1D1F20",
"P.	c #1C1D1E",
"Q.	c #1B1D1E",
"R.	c #191B1B",
"S.	c #181A1A",
"T.	c #171919",
"U.	c #171718",
"V.	c #171717",
"W.	c #171818",
"X.	c #171817",
"Y.	c #161716",
"Z.	c #151715",
"`.	c #151716",
" +	c #161816",
".+	c #181818",
"++	c #222323",
"@+	c #383D3F",
"#+	c #404345",
"$+	c #35383B",
"%+	c #394548",
"&+	c #364245",
"*+	c #242A2C",
"=+	c #202425",
"-+	c #1F2324",
";+	c #1E2223",
">+	c #1D2021",
",+	c #1C1F20",
"'+	c #191B1D",
")+	c #18191B",
"!+	c #161718",
"~+	c #161617",
"{+	c #161616",
"]+	c #151515",
"^+	c #141414",
"/+	c #131313",
"(+	c #131312",
"_+	c #1E1F1F",
":+	c #444B4D",
"<+	c #748587",
"[+	c #3F4345",
"}+	c #333436",
"|+	c #303B3E",
"1+	c #212729",
"2+	c #1D2123",
"3+	c #1C2021",
"4+	c #1B1F20",
"5+	c #1A1D1F",
"6+	c #18191A",
"7+	c #171819",
"8+	c #151616",
"9+	c #141413",
"0+	c #141514",
"a+	c #1D2121",
"b+	c #3A4345",
"c+	c #454E50",
"d+	c #6D7E81",
"e+	c #515B5D",
"f+	c #2F2D2F",
"g+	c #272E30",
"h+	c #262C2F",
"i+	c #1D2022",
"j+	c #1A1C1E",
"k+	c #181A1C",
"l+	c #17191A",
"m+	c #161717",
"n+	c #1E2222",
"o+	c #3D4748",
"p+	c #465052",
"q+	c #67787B",
"r+	c #4F595B",
"s+	c #3F4143",
"t+	c #2D2A2C",
"u+	c #212426",
"v+	c #1F2325",
"w+	c #181A1B",
"x+	c #161818",
"y+	c #151514",
"z+	c #1E2221",
"A+	c #3D4749",
"B+	c #475153",
"C+	c #697B7E",
"D+	c #505A5C",
"E+	c #3F4144",
"F+	c #2C282B",
"G+	c #1E2122",
"H+	c #1C2020",
"I+	c #3C4748",
"J+	c #465053",
"K+	c #6C7D80",
"L+	c #191B1C",
"M+	c #3C4648",
"N+	c #66777A",
"O+	c #4E585B",
"P+	c #1E2021",
"Q+	c #1C1F21",
"R+	c #191A1B",
"S+	c #151615",
"T+	c #3D4648",
"U+	c #475053",
"V+	c #5D6F73",
"W+	c #4B5558",
"X+	c #3F4042",
"Y+	c #2C282A",
"Z+	c #1D1E20",
"`+	c #1B1D1F",
" @	c #151516",
".@	c #5A6C71",
"+@	c #3E3F42",
"@@	c #2C2729",
"#@	c #1A1C1D",
"$@	c #3D494B",
"%@	c #485153",
"&@	c #536265",
"*@	c #596C70",
"=@	c #1C1E1E",
"-@	c #131413",
";@	c #1D2223",
">@	c #414D50",
",@	c #464F51",
"'@	c #1D1F1F",
")@	c #1A1D1E",
"!@	c #AEAEAE",
"~@	c #FDFDFD",
"{@	c #FFFFFF",
"]@	c #9C9C9C",
"^@	c #1D2324",
"/@	c #424F53",
"(@	c #4A5558",
"_@	c #2C272A",
":@	c #1C1D1D",
"<@	c #343434",
"[@	c #CFCFCF",
"}@	c #1C2122",
"|@	c #404C4F",
"1@	c #485356",
"2@	c #464F52",
"3@	c #2B2729",
"4@	c #1A1A1B",
"5@	c #5D5D5C",
"6@	c #E5E5E5",
"7@	c #404C50",
"8@	c #495457",
"9@	c #3E4042",
"0@	c #2B2829",
"a@	c #19191A",
"b@	c #858584",
"c@	c #F4F4F4",
"d@	c #131414",
"e@	c #1E2325",
"f@	c #435054",
"g@	c #4B5659",
"h@	c #3E4143",
"i@	c #2B2B2C",
"j@	c #181919",
"k@	c #8B8B8B",
"l@	c #FCFCFC",
"m@	c #F9F9F9",
"n@	c #CCCCCC",
"o@	c #131514",
"p@	c #1E2526",
"q@	c #455458",
"r@	c #4B585B",
"s@	c #3E4244",
"t@	c #2B2C2D",
"u@	c #373737",
"v@	c #E8E8E8",
"w@	c #F0F0F0",
"x@	c #767676",
"y@	c #ABABAB",
"z@	c #455558",
"A@	c #4B595C",
"B@	c #586B6F",
"C@	c #2B2A2C",
"D@	c #636362",
"E@	c #D6D6D5",
"F@	c #505050",
"G@	c #B1B1B1",
"H@	c #1F2526",
"I@	c #56686B",
"J@	c #2B2A2B",
"K@	c #B4B4B4",
"L@	c #536266",
"M@	c #2B2D2E",
"N@	c #536467",
"O@	c #495255",
"P@	c #3E4446",
"Q@	c #2B2F30",
"R@	c #56676A",
"S@	c #4A5356",
"T@	c #4C595C",
"U@	c #546367",
"V@	c #1F2627",
"W@	c #475659",
"X@	c #4D5A5D",
"Y@	c #505D60",
"Z@	c #222829",
"`@	c #4D5C5F",
" #	c #505E61",
".#	c #4E5C5F",
"+#	c #3D4446",
"@#	c #252C2C",
"##	c #546365",
"$#	c #556264",
"%#	c #556365",
"&#	c #4A5355",
"*#	c #3E4546",
"=#	c #2C3132",
"-#	c #23292A",
";#	c #505F61",
">#	c #3F4648",
",#	c #2E3334",
"'#	c #181918",
")#	c #252B2B",
"!#	c #526163",
"~#	c #404749",
"{#	c #2F3335",
"]#	c #404648",
"^#	c #242A2B",
"/#	c #516062",
"(#	c #536062",
"_#	c #526063",
":#	c #546062",
"<#	c #414749",
"[#	c #303536",
"}#	c #181A19",
"|#	c #272E2E",
"1#	c #596769",
"2#	c #596567",
"3#	c #41484A",
"4#	c #323638",
"5#	c #191A1A",
"6#	c #293030",
"7#	c #5D6B6D",
"8#	c #5B686A",
"9#	c #4C5456",
"0#	c #42484A",
"a#	c #323738",
"b#	c #2A2F30",
"c#	c #121312",
"d#	c #292F2F",
"e#	c #5C686A",
"f#	c #42494A",
"g#	c #1A1B1A",
"h#	c #121211",
"i#	c #121110",
"j#	c #111110",
"k#	c #11110F",
"l#	c #10100F",
"m#	c #11100E",
"n#	c #100F0E",
"o#	c #0F0F0E",
"p#	c #272D2D",
"q#	c #5B696B",
"r#	c #5A6669",
"s#	c #353A3A",
"t#	c #1F2120",
"u#	c #151717",
"v#	c #141616",
"w#	c #131515",
"x#	c #121414",
"y#	c #121515",
"z#	c #131616",
"A#	c #131717",
"B#	c #141818",
"C#	c #151919",
"D#	c #171B1B",
"E#	c #1A1D1D",
"F#	c #1B1D1D",
"G#	c #1A1E1E",
"H#	c #2B3233",
"I#	c #556164",
"J#	c #3A3F40",
"K#	c #2D3132",
"L#	c #292E2F",
"M#	c #282F2F",
"N#	c #293031",
"O#	c #283032",
"P#	c #283031",
"Q#	c #282F31",
"R#	c #2A3336",
"S#	c #2B3638",
"T#	c #2D383A",
"U#	c #2F3B3E",
"V#	c #2F3C3F",
"W#	c #333E41",
"X#	c #424C4E",
"Y#	c #444E4F",
"Z#	c #434E4F",
"`#	c #434F50",
" $	c #516163",
".$	c #4F5B5E",
"+$	c #495052",
"@$	c #3C4345",
"#$	c #3D4547",
"$$	c #3E4648",
"%$	c #3F484A",
"&$	c #404B4E",
"*$	c #404C4E",
"=$	c #414D4F",
"-$	c #435155",
";$	c #465458",
">$	c #48585B",
",$	c #4A5B60",
"'$	c #4B5D61",
")$	c #4B5C61",
"!$	c #506165",
"~$	c #5C6D6E",
"{$	c #657576",
"]$	c #687779",
"^$	c #677678",
"/$	c #5E6E70",
"($	c #556466",
"_$	c #484F51",
":$	c #4F5C5F",
"<$	c #4A5557",
"[$	c #454D4F",
"}$	c #4B575A",
"|$	c #4B585A",
"1$	c #4D5C5E",
"2$	c #4F5F62",
"3$	c #516165",
"4$	c #54666B",
"5$	c #596A6E",
"6$	c #647577",
"7$	c #6D7D7F",
"8$	c #707F81",
"9$	c #6E7E80",
"0$	c #647476",
"a$	c #556265",
"b$	c #FF992C",
"c$	c #474F52",
"d$	c #4D585B",
"e$	c #4E5B5F",
"f$	c #576365",
"g$	c #5D6A6C",
"h$	c #5D696B",
"i$	c #566265",
"j$	c #4A5255",
"k$	c #4C585B",
"l$	c #4A5254",
"m$	c #4B5355",
"n$	c #495153",
"o$	c #474D4F",
"p$	c #44494B",
"q$	c #44484A",
"r$	c #44484B",
"s$	c #414144",
"t$	c #404042",
"u$	c #454B4D",
"v$	c #414648",
"w$	c #3F4547",
"x$	c #3E4345",
"y$	c #3E4043",
"z$	c #3E3D3F",
"A$	c #3E3C3E",
"B$	c #3E3B3E",
"C$	c #3E3A3D",
"D$	c #3C3639",
"E$	c #3C383B",
"F$	c #3A393C",
"G$	c #464C4D",
"H$	c #414748",
"I$	c #3B4243",
"J$	c #394042",
"K$	c #393A3C",
"L$	c #39393C",
"M$	c #39363A",
"N$	c #393235",
"O$	c #393034",
"P$	c #393033",
"Q$	c #392F33",
"R$	c #382E32",
"S$	c #383235",
"T$	c #38393B",
"U$	c #4B3F38",
"V$	c #796F47",
"                                                                                                                                ",
". . . . . . + . + . + . + + + @ . . . . . . + . + . + . + + + @ . . . . . . + . + . + . + + + @ . . . . . . + . + . + . + + + @ ",
". + + + + + + + + + + + + + + @ . + + + + + + + + + + + + + + @ . + + + + + + + + + + + + + + @ . + + + + + + + + + + + + + + @ ",
". + # + + # # # # . + + + # + @ $ % & * = - ; > , ' ' ' ) ! ~ { ] ^ / ( ' _ : < [ } | 1 2 3 4 @ . + # + + # # # # . + + + # + @ ",
". @ + + # @ @ @ @ @ @ + @ + + @ 5 % 6 7 6 8 9 0 a b c c d e f g h i j k c k l m n o p p p q r @ . @ + + # @ @ @ @ @ @ + @ + + @ ",
". + + # @ @ @ @ @ @ @ @ . + + @ s t u v w x y z A B B B B C D E . { F G B G H i I J K K J i L @ . + + # @ @ @ @ @ @ @ @ . + + @ ",
". + # @ @ @ M N N M @ @ @ . + @ O P Q r g h h h . R . . E . . . . . . S S S S T . . . . { f U @ . + # @ @ @ M N N M @ @ @ . + @ ",
". + # @ @ M N N N N M @ @ # + @ V W X . Y Z Z Z Z ` Z Y  . .....+.@.@.@.@.#.$.$.%.. . . &.*.=.@ . + # @ @ M N N N N M @ @ # + @ ",
". + # @ @ N N -.-.N N @ @ # + @ ;.>.,.'.).!.!.!.!.!.~.{.].^.]./.(._._._.:.<.[.[.}.|.+.+. .L D @ . + # @ @ N N -.-.N N @ @ # + @ ",
". + # @ @ N N 1.1.N N @ @ # + @ V 2.@.3.4.5.6.6.6.6.7.8.9.9.0.a.b.b.b.c.d.e.f.f.g.h.3.i.j.k.. @ . + # @ @ N N 1.1.N N @ @ # + @ ",
"# . l.+ + m.m.1.1.m.m.+ + l.. + n.o.'.p.q.r.s.t.t.t.u.v.w.w.x.y.z.z.z.z.A.B.B.B.C.D.E.F.G.+.. + # . l.+ + m.m.1.1.m.m.+ + l.. + ",
". + # @ @ N N 1.1.N N @ @ # + @ n.H.I.J.K.L.M.N.N.O.P.Q.R.S.T.U.V.W.X.Y.Z.`.`.`. + +.+++@+@.. @ . + # @ @ N N 1.1.N N @ @ # + @ ",
"# . l.+ + m.m.1.1.m.m.+ + l.. + n.H.#+$+%+&+*+=+-+;+>+,+'+)+T.!+~+{+]+^+/+(+(+(+(+(+^+_++ :+. + # . l.+ + m.m.1.1.m.m.+ + l.. + ",
"# . l.+ + m.m.1.1.m.m.+ + l.. @ <+H.[+}+K.|+1+2+2+3+4+5+'+6+7+!+8+]+^+9+9+9+9+9+9+9+0+a+b+c+. @ # . l.+ + m.m.1.1.m.m.+ + l.. @ ",
"# . l.+ + m.m.1.1.m.m.+ + l.. + d+e+j.f+g+h+i+j+j+j+'+k+l+W.m+{+]+9+9+9+9+9+9+9+9+9+0+n+o+p+. + # . l.+ + m.m.1.1.m.m.+ + l.. + ",
"# . l.+ + m.m.1.1.m.m.+ + l.. @ q+r+s+t+u+v+j+'+'+w+l+7+x+~+]+y+^+9+9+9+9+9+9+9+9+9+9+z+A+B+S @ # . l.+ + m.m.1.1.m.m.+ + l.. @ ",
"# . l.+ + m.m.1.1.m.m.+ + l.. + C+D+E+F+G+3+'+k+w+6+W.m+8+]+^+9+9+9+9+9+9+9+9+9+9+9+9+H+I+J+E + # . l.+ + m.m.1.1.m.m.+ + l.. + ",
"# . l.+ + m.m.1.1.m.m.+ + l.. + K+e+E+F+N.3+L+6+7+!+m+]+^+^+9+9+9+9+9+9+9+9+9+9+9+9+9+H+M+J+E + # . l.+ + m.m.1.1.m.m.+ + l.. + ",
"# . l.+ + m.m.1.1.m.m.+ + l.. + N+O+s+F+P+Q+R+7+m+8+S+0+9+9+9+9+9+9+9+9+9+9+9+9+9+9+9+>+T+U+E + # . l.+ + m.m.1.1.m.m.+ + l.. + ",
"# . l.+ + m.m.1.1.m.m.+ + l.. + V+W+X+Y+Z+`+)+U. @^+9+9+9+9+9+9+9+9+9+9+9+9+9+9+9+9+9+>+A+] E + # . l.+ + m.m.1.1.m.m.+ + l.. + ",
"# . l.+ + m.m.1.1.m.m.+ + l.. . .@U +@@@P.#@l+m+]+9+9+9+9+9+9+9+9+9+9+9+9+9+9+9+9+9+9+3+$@%@S . # . l.+ + m.m.1.1.m.m.+ + l.. . ",
"&@. l.+ + m.m.1.1.m.m.+ + l.. + *@U +@Y+=@#@7+8+^+9+9+9+9+9+9+9+9+9+9+9+9+9+9+9+9+9+-@;@>@I ,@+ &@. l.+ + m.m.1.1.m.m.+ + l.. + ",
"# . l.+ + m.m.1.1.m.m.+ + l.. . *@U +@Y+'@)@U.]+9+9+9+9+9+9+!@~@{@{@]@9+9+9+9+9+9+9+-@^@/@(@p+. # . l.+ + m.m.1.1.m.m.+ + l.. . ",
"&@. l.+ + m.m.1.1.m.m.+ + l.. + *@U +@_@:@L+~+^+9+9+9+9+<@[@{@{@{@{@]@9+9+9+9+9+9+9+-@}@|@1@2@+ &@. l.+ + m.m.1.1.m.m.+ + l.. + ",
"# . l.+ + m.m.1.1.m.m.+ + l.. . *@U +@3@4@T.S+9+9+9+9+5@6@{@{@{@{@{@]@9+9+9+9+9+9+9+-@2+7@8@2@. # . l.+ + m.m.1.1.m.m.+ + l.. . ",
"&@. l.+ + m.m.1.1.m.m.+ + l.. + *@U 9@0@a@m+y+9+9+9+b@c@{@{@{@{@{@{@]@9+9+9+9+9+9+9+d@e@f@g@] + &@. l.+ + m.m.1.1.m.m.+ + l.. + ",
"&@. l.+ + m.m.1.1.m.m.+ + l.. + *@U h@i@j@m+]+9+9+k@l@{@{@m@n@{@{@{@]@9+9+9+9+9+9+9+o@p@q@r@{ + &@. l.+ + m.m.1.1.m.m.+ + l.. + ",
"&@. l.+ + m.m.1.1.m.m.+ + l.. + *@U s@t@6+m+]+9+9+u@v@{@w@x@y@{@{@{@]@9+9+9+9+9+9+9+o@p@z@A@{ + &@. l.+ + m.m.1.1.m.m.+ + l.. + ",
"&@. l.+ + m.m.1.1.m.m.+ + l.. @ B@U s@C@j@m+]+9+9+9+D@E@F@9+G@{@{@{@]@9+9+9+9+9+9+9+o@H@z@A@{ @ &@. l.+ + m.m.1.1.m.m.+ + l.. @ ",
"&@. l.+ + m.m.1.1.m.m.+ + l.. + I@J h@J@j@~+y+9+9+9+9+9+9+9+K@{@{@{@]@9+9+9+9+9+9+9+o@H@z@A@{ + &@. l.+ + m.m.1.1.m.m.+ + l.. + ",
"&@. l.+ + m.m.1.1.m.m.+ + l.. @ L@L s@M@6+m+]+9+9+9+9+9+9+9+K@{@{@{@]@9+9+9+9+9+9+9+o@H@z@A@{ @ &@. l.+ + m.m.1.1.m.m.+ + l.. @ ",
"&@. l.+ + m.m.1.1.m.m.+ + l.. + N@O@P@Q@S.m+]+9+9+9+9+9+9+9+K@{@{@{@]@9+9+9+9+9+9+9+o@p@z@A@{ + &@. l.+ + m.m.1.1.m.m.+ + l.. + ",
"&@. l.+ + m.m.1.1.m.m.+ + l.. @ R@S@P@Q@S.{+y+9+9+9+9+9+9+9+K@{@{@{@]@9+9+9+9+9+9+9+o@p@z@T@{ @ &@. l.+ + m.m.1.1.m.m.+ + l.. @ ",
"&@. l.+ + m.m.1.1.m.m.+ + l.. @ U@O@P@Q@j@]+9+9+9+9+9+9+9+9+K@{@{@{@]@9+9+9+9+9+9+9+0+V@W@X@{ @ &@. l.+ + m.m.1.1.m.m.+ + l.. @ ",
"&@. l.+ + m.m.1.1.m.m.+ + l.. @ Y@{ P@Q@j@y+9+9+9+9+9+9+9+9+K@{@{@{@]@9+9+9+9+9+9+9+0+Z@`@ #L @ &@. l.+ + m.m.1.1.m.m.+ + l.. @ ",
"&@. l.+ + m.m.1.1.m.m.+ + l.. @ .#{ +#Q@6+]+9+9+9+9+9+9+9+9+K@{@{@{@]@9+9+9+9+9+9+9+y+@###$#S@@ &@. l.+ + m.m.1.1.m.m.+ + l.. @ ",
"&@. l.+ + m.m.1.1.m.m.+ + l.. @ .#{ P@Q@j@]+9+9+9+9+9+9+9+9+K@{@{@{@]@9+9+9+9+9+9+9+y+@#%#$#&#@ &@. l.+ + m.m.1.1.m.m.+ + l.. @ ",
"&@. l.+ + m.m.1.1.m.m.+ + l.. @ .#{ *#=#T.^+9+9+9+9+9+9+9+9+K@{@{@{@]@9+9+9+9+9+9+9+0+-#;#2 r @ &@. l.+ + m.m.1.1.m.m.+ + l.. @ ",
"&@. l.+ + m.m.1.1.m.m.+ + l.. @ .#{ >#,#'#9+9+9+9+9+9+9+9+9+K@{@{@{@]@9+9+9+9+9+9+9+y+)#!#Q J @ &@. l.+ + m.m.1.1.m.m.+ + l.. @ ",
"&@. l.+ + m.m.1.1.m.m.+ + l.. @ .#{ ~#{#j@9+9+9+9+9+9+9+9+9+K@{@{@{@]@9+9+9+9+9+9+9+y+@###$#I @ &@. l.+ + m.m.1.1.m.m.+ + l.. @ ",
"&@. l.+ + m.m.1.1.m.m.+ + l.. @ .#{ ]#,#'#9+9+9+9+9+9+9+9+9+9+9+9+9+9+9+9+9+9+9+9+9+0+^#/#(#J @ &@. l.+ + m.m.1.1.m.m.+ + l.. @ ",
"&@. l.+ + m.m.1.1.m.m.+ + l.. @ .#{ ]#,#j@9+9+9+9+9+9+9+9+9+9+9+9+9+9+9+9+9+9+9+9+9+0+^#_#:#J @ &@. l.+ + m.m.1.1.m.m.+ + l.. @ ",
". . l.+ + m.m.1.1.m.m.+ + l.. @ .#{ <#[#}#9+9+9+9+9+9+9+9+9+9+9+9+9+9+9+9+9+9+9+9+9+y+|#1#2#4 @ . . l.+ + m.m.1.1.m.m.+ + l.. @ ",
"&@. l.+ + m.m.1.1.m.m.+ + l.. @ .#{ 3#4#5#9+9+9+9+9+9+9+9+9+9+9+9+9+9+9+9+9+9+9+9+9+y+6#7#8#9#@ &@. l.+ + m.m.1.1.m.m.+ + l.. @ ",
". . l.+ + m.m.1.1.m.m.+ + l.. @ .#{ 0#a#5#9+9+9+9+9+9+9+9+9+9+9+9+9+9+9+9+9+9+9+9+9+y+b#7#8#9#@ . . l.+ + m.m.1.1.m.m.+ + l.. @ ",
"&@. l.+ + m.m.1.1.m.m.+ + l.. @ .#{ 0#a#5#9+9+9+9+9+9+9+9+9+9+9+9+9+9+9+9+9+9+9+9+9+y+b#7#8#9#@ &@. l.+ + m.m.1.1.m.m.+ + l.. @ ",
". . l.+ + m.m.1.1.m.m.+ + l.. @ .#{ 0#a#5#9+9+9+9+9+9+9+9+9+9+9+9+9+9+9+9+9+9+9+9+9+c#d#u e#9#@ . . l.+ + m.m.1.1.m.m.+ + l.. @ ",
"&@. l.+ + m.m.1.1.m.m.+ + l.. @ .#{ f#p.g#-@(+(+h#h#i#i#i#i#i#i#i#j#j#j#j#j#k#l#m#n#o#p#q#r#9#@ &@. l.+ + m.m.1.1.m.m.+ + l.. @ ",
". . l.+ + m.m.1.1.m.m.+ + l.. @ .#{ +.s#t#j@'#W.u#v#w#x#x#x#x#x#y#z#A#B#B#B#C#D#E#F#G#H#%#I#J @ . . l.+ + m.m.1.1.m.m.+ + l.. @ ",
". . l.+ + m.m.1.1.m.m.+ + l.. @ .#{ k.J#K#L#L#L#M#N#O#P#Q#Q#Q#O#R#S#T#U#V#V#W#M+X#Y#Z#`# $.$+$@ . . l.+ + m.m.1.1.m.m.+ + l.. @ ",
". . # + + m.m.1.1.m.m.+ + l.. @ .#K . <#@$#$T+$$%$&$|@*$*$*$*$=$-$;$>$,$'$)$!$~${$]$^$/$($B _$@ . . # + + m.m.1.1.m.m.+ + l.. @ ",
". . l.+ + m.m.-.-.m.m.+ + l.. @ :$H <$. [$p+B+B+J (@}$}$}$}$}$|$1$2$3$e 4$4$5$6$7$8$9$0$a$p J @ . . l.+ + m.m.-.-.m.m.+ + l.. @ ",
". . # + + b$m.m.m.m.b$+ + l.. @ o q o c$T _${ { %@r J J J J J ,.H G d$o e$e$Y@f$e#g$h$i$A Y@<$@ . . # + + b$m.m.m.m.b$+ + l.. @ ",
". . # + + + b$m.m.b$+ + + l.. @ F j$k$g . . . . . S S S S S S S h h g c$U+c${ l$m$4 m$n$o$W+E @ . . # + + + b$m.m.b$+ + + l.. @ ",
". . . # + + + + + + + + l.. . @ R p$S :+:+:+:+:+k.k.k.k.k.p$q$q$q$q$q$q$r$r$q$q$p$p$p$Y s$Z t$@ . . . # + + + + + + + + l.. . @ ",
". . . . # + + + + + + l.. . . @ u$v$w$<.<.<.<.<.<.x$h@h@y$+@z$A$B$B$B$B$B$B$B$B$B$B$B$C$D$E$F$@ . . . . # + + + + + + l.. . . @ ",
". . . . . # l.# l.l.l.. . . . @ G$H$I$J$J$J$J$J$J$3.K$L$L$M$N$O$P$P$P$P$P$P$P$P$P$P$P$Q$R$S$T$@ . . . . . # l.# l.l.l.. . . . @ ",
". + . . . . . . + . . . . . . @ . + . . . . . . + . . . . . . @ . + . . . . . . + . . . . . . @ . + . . . . . . + . . . . . . @ ",
"+ . . . . . . . . . . . . . . @ + . . . . . . . . . . . . . . @ + . . . . . . . . . . . . . . @ + . . . . . . . . . . . . . . @ ",
". . U$V$l.. . . . . . l.V$. U$@ . . U$V$l.. . . . . . l.V$. U$@ . . U$V$l.. . . . . . l.V$. U$@ . . U$V$l.. . . . . . l.V$. U$@ ",
"+ . @ V$V$. . + . . @ V$V$. . @ + . @ V$V$. . + . . @ V$V$. . @ + . @ V$V$. . + . . @ V$V$. . @ + . @ V$V$. . + . . @ V$V$. . @ ",
". . @ @ U$. . . . . @ @ . . U$@ . . @ @ U$. . . . . @ @ . . U$@ . . @ @ U$. . . . . @ @ . . U$@ . . @ @ U$. . . . . @ @ . . U$@ ",
". . . U$U$. . . . . . . . U$. @ . . . U$U$. . . . . . . . U$. @ . . . U$U$. . . . . . . . U$. @ . . . U$U$. . . . . . . . U$. @ ",
"9+@ 9+9+9+9+@ 9+@ @ @ @ @ @ @ @ 9+@ 9+9+9+9+@ 9+@ @ @ @ @ @ @ @ 9+@ 9+9+9+9+@ 9+@ @ @ @ @ @ @ @ 9+@ 9+9+9+9+@ 9+@ @ @ @ @ @ @ @ "};
