/* XPM */
static char * scorezero_xpm[] = {
"64 64 587 2",
"  	c #000000",
". 	c #464D4F",
"+ 	c #383F40",
"@ 	c #382B2F",
"# 	c #62797E",
"$ 	c #535E61",
"% 	c #6A7A7C",
"& 	c #7E9193",
"* 	c #829496",
"= 	c #819496",
"- 	c #7B8E90",
"; 	c #738789",
"> 	c #6D8285",
", 	c #64797E",
"' 	c #5E757A",
") 	c #5F757A",
"! 	c #5B6F74",
"~ 	c #515F62",
"{ 	c #485052",
"] 	c #475052",
"^ 	c #4D5A5C",
"/ 	c #586A6D",
"( 	c #5D7477",
"_ 	c #5E7378",
": 	c #5B6E73",
"< 	c #596B6F",
"[ 	c #56666A",
"} 	c #536164",
"| 	c #536063",
"1 	c #535F62",
"2 	c #535F61",
"3 	c #505C5F",
"4 	c #4B5456",
"5 	c #5A686A",
"6 	c #718183",
"7 	c #728284",
"8 	c #6C7C7E",
"9 	c #667779",
"0 	c #627376",
"a 	c #5B6C70",
"b 	c #58696D",
"c 	c #586A6E",
"d 	c #57696D",
"e 	c #546569",
"f 	c #4D595C",
"g 	c #474F51",
"h 	c #474E50",
"i 	c #4B5557",
"j 	c #526164",
"k 	c #57686C",
"l 	c #556568",
"m 	c #526265",
"n 	c #505F62",
"o 	c #4E5B5E",
"p 	c #4E5A5C",
"q 	c #4D595B",
"r 	c #495254",
"s 	c #657577",
"t 	c #69797B",
"u 	c #5E6B6D",
"v 	c #596465",
"w 	c #586365",
"x 	c #566062",
"y 	c #535D5F",
"z 	c #515C5E",
"A 	c #4E595C",
"B 	c #4D585A",
"C 	c #4C5658",
"D 	c #485154",
"E 	c #464D50",
"F 	c #4B5457",
"G 	c #4C575A",
"H 	c #4B5658",
"I 	c #4A5456",
"J 	c #495355",
"K 	c #485254",
"L 	c #495154",
"M 	c #0095F6",
"N 	c #00C5F4",
"O 	c #6F8082",
"P 	c #647376",
"Q 	c #546163",
"R 	c #464C4E",
"S 	c #464E50",
"T 	c #464E4F",
"U 	c #4A5457",
"V 	c #758688",
"W 	c #5C696C",
"X 	c #505C60",
"Y 	c #434749",
"Z 	c #434648",
"` 	c #434547",
" .	c #43474A",
"..	c #43484A",
"+.	c #43494B",
"@.	c #434A4C",
"#.	c #434B4C",
"$.	c #444C4D",
"%.	c #454C4E",
"&.	c #474E51",
"*.	c #4E5A5E",
"=.	c #4B5559",
"-.	c #C6F6FF",
";.	c #768689",
">.	c #555F62",
",.	c #495356",
"'.	c #404748",
").	c #3B3C3E",
"!.	c #3B383A",
"~.	c #3B393B",
"{.	c #3B3B3D",
"].	c #3B3D3F",
"^.	c #3B3C3F",
"/.	c #3B3F41",
"(.	c #3B4143",
"_.	c #3B4244",
":.	c #3D4445",
"<.	c #3E4547",
"[.	c #3F4647",
"}.	c #414849",
"|.	c #42494B",
"1.	c #F5F9ED",
"2.	c #535C5E",
"3.	c #393E3F",
"4.	c #313031",
"5.	c #30292C",
"6.	c #2F272A",
"7.	c #2F292B",
"8.	c #2F2C2E",
"9.	c #2E2E30",
"0.	c #2E2F30",
"a.	c #2E3133",
"b.	c #2E3435",
"c.	c #2F3536",
"d.	c #313737",
"e.	c #33393A",
"f.	c #34393A",
"g.	c #363B3C",
"h.	c #383D3E",
"i.	c #3B4041",
"j.	c #3F4244",
"k.	c #444A4C",
"l.	c #5594B7",
"m.	c #09E4FC",
"n.	c #768789",
"o.	c #535E5F",
"p.	c #333738",
"q.	c #2B2F31",
"r.	c #282A2C",
"s.	c #232122",
"t.	c #221E20",
"u.	c #221E1F",
"v.	c #212021",
"w.	c #202021",
"x.	c #202020",
"y.	c #202121",
"z.	c #202323",
"A.	c #212424",
"B.	c #232626",
"C.	c #252828",
"D.	c #252929",
"E.	c #26292A",
"F.	c #2C3030",
"G.	c #3B3E40",
"H.	c #545E60",
"I.	c #404546",
"J.	c #333839",
"K.	c #333D40",
"L.	c #303A3C",
"M.	c #212527",
"N.	c #1E2121",
"O.	c #1D1F20",
"P.	c #1C1D1E",
"Q.	c #1B1D1E",
"R.	c #191B1B",
"S.	c #181A1A",
"T.	c #171919",
"U.	c #171718",
"V.	c #171717",
"W.	c #171818",
"X.	c #171817",
"Y.	c #161716",
"Z.	c #151715",
"`.	c #151716",
" +	c #161816",
".+	c #181818",
"++	c #222323",
"@+	c #383D3F",
"#+	c #404345",
"$+	c #35383B",
"%+	c #394548",
"&+	c #364245",
"*+	c #242A2C",
"=+	c #202425",
"-+	c #1F2324",
";+	c #1E2223",
">+	c #1D2021",
",+	c #1C1F20",
"'+	c #191B1D",
")+	c #18191B",
"!+	c #161718",
"~+	c #161617",
"{+	c #161616",
"]+	c #151515",
"^+	c #141414",
"/+	c #131313",
"(+	c #131312",
"_+	c #1E1F1F",
":+	c #444B4D",
"<+	c #748587",
"[+	c #3F4345",
"}+	c #333436",
"|+	c #303B3E",
"1+	c #212729",
"2+	c #1D2123",
"3+	c #1C2021",
"4+	c #1B1F20",
"5+	c #1A1D1F",
"6+	c #18191A",
"7+	c #171819",
"8+	c #151616",
"9+	c #141413",
"0+	c #141514",
"a+	c #1D2121",
"b+	c #3A4345",
"c+	c #454E50",
"d+	c #6D7E81",
"e+	c #515B5D",
"f+	c #2F2D2F",
"g+	c #272E30",
"h+	c #262C2F",
"i+	c #1D2022",
"j+	c #1A1C1E",
"k+	c #181A1C",
"l+	c #17191A",
"m+	c #161717",
"n+	c #1E2222",
"o+	c #3D4748",
"p+	c #465052",
"q+	c #67787B",
"r+	c #4F595B",
"s+	c #3F4143",
"t+	c #2D2A2C",
"u+	c #212426",
"v+	c #1F2325",
"w+	c #181A1B",
"x+	c #161818",
"y+	c #151514",
"z+	c #1E2221",
"A+	c #3D4749",
"B+	c #475153",
"C+	c #697B7E",
"D+	c #505A5C",
"E+	c #3F4144",
"F+	c #2C282B",
"G+	c #1E2122",
"H+	c #1C2020",
"I+	c #3C4748",
"J+	c #465053",
"K+	c #6C7D80",
"L+	c #191B1C",
"M+	c #3C4648",
"N+	c #66777A",
"O+	c #4E585B",
"P+	c #1E2021",
"Q+	c #1C1F21",
"R+	c #191A1B",
"S+	c #151615",
"T+	c #3D4648",
"U+	c #475053",
"V+	c #5D6F73",
"W+	c #4B5558",
"X+	c #3F4042",
"Y+	c #2C282A",
"Z+	c #1D1E20",
"`+	c #1B1D1F",
" @	c #151516",
".@	c #5A6C71",
"+@	c #3E3F42",
"@@	c #2C2729",
"#@	c #1A1C1D",
"$@	c #3D494B",
"%@	c #485153",
"&@	c #536265",
"*@	c #596C70",
"=@	c #1C1E1E",
"-@	c #444444",
";@	c #BCBCBC",
">@	c #EAEAEA",
",@	c #FBFBFB",
"'@	c #EDEDED",
")@	c #C3C3C3",
"!@	c #545454",
"~@	c #131413",
"{@	c #1D2223",
"]@	c #414D50",
"^@	c #464F51",
"/@	c #1D1F1F",
"(@	c #1A1D1E",
"_@	c #4E4E4E",
":@	c #ECECEC",
"<@	c #FFFFFF",
"[@	c #F5F5F5",
"}@	c #747474",
"|@	c #1D2324",
"1@	c #424F53",
"2@	c #4A5558",
"3@	c #2C272A",
"4@	c #1C1D1D",
"5@	c #DEDEDE",
"6@	c #EFEFEF",
"7@	c #313130",
"8@	c #1C2122",
"9@	c #404C4F",
"0@	c #485356",
"a@	c #464F52",
"b@	c #2B2729",
"c@	c #1A1A1B",
"d@	c #7D7D7D",
"e@	c #E6E6E6",
"f@	c #6E6E6E",
"g@	c #CFCFCF",
"h@	c #ACACAC",
"i@	c #404C50",
"j@	c #495457",
"k@	c #3E4042",
"l@	c #2B2829",
"m@	c #19191A",
"n@	c #C6C6C6",
"o@	c #7F7F7F",
"p@	c #3A3A39",
"q@	c #F7F7F7",
"r@	c #E3E3E3",
"s@	c #131414",
"t@	c #1E2325",
"u@	c #435054",
"v@	c #4B5659",
"w@	c #3E4143",
"x@	c #2B2B2C",
"y@	c #181919",
"z@	c #E4E4E4",
"A@	c #D7D7D7",
"B@	c #FEFEFE",
"C@	c #3D3D3C",
"D@	c #131514",
"E@	c #1E2526",
"F@	c #455458",
"G@	c #4B585B",
"H@	c #3E4244",
"I@	c #2B2C2D",
"J@	c #F9F9F9",
"K@	c #E5E5E5",
"L@	c #BEBEBE",
"M@	c #7B7B7B",
"N@	c #455558",
"O@	c #4B595C",
"P@	c #586B6F",
"Q@	c #2B2A2C",
"R@	c #252525",
"S@	c #DADADA",
"T@	c #AFAFAF",
"U@	c #969695",
"V@	c #1F2526",
"W@	c #56686B",
"X@	c #2B2A2B",
"Y@	c #4C4C4C",
"Z@	c #D6D6D5",
"`@	c #A9A9A9",
" #	c #A0A0A0",
".#	c #536266",
"+#	c #2B2D2E",
"@#	c #A8A8A8",
"##	c #536467",
"$#	c #495255",
"%#	c #3E4446",
"&#	c #2B2F30",
"*#	c #343434",
"=#	c #939393",
"-#	c #56676A",
";#	c #4A5356",
">#	c #BDBDBD",
",#	c #828282",
"'#	c #4C595C",
")#	c #546367",
"!#	c #E2E2E2",
"~#	c #D5D5D5",
"{#	c #1F2627",
"]#	c #475659",
"^#	c #4D5A5D",
"/#	c #505D60",
"(#	c #7E7E7E",
"_#	c #F6F6F6",
":#	c #222829",
"<#	c #4D5C5F",
"[#	c #505E61",
"}#	c #4E5C5F",
"|#	c #3D4446",
"1#	c #6C6C6C",
"2#	c #525252",
"3#	c #CDCDCD",
"4#	c #B6B6B6",
"5#	c #252C2C",
"6#	c #546365",
"7#	c #556264",
"8#	c #D0D0D0",
"9#	c #4A4A4A",
"0#	c #556365",
"a#	c #4A5355",
"b#	c #3E4546",
"c#	c #2C3132",
"d#	c #424241",
"e#	c #FAFAFA",
"f#	c #23292A",
"g#	c #505F61",
"h#	c #3F4648",
"i#	c #2E3334",
"j#	c #181918",
"k#	c #2D2D2D",
"l#	c #B2B2B2",
"m#	c #F8F8F8",
"n#	c #FDFDFD",
"o#	c #F0F0F0",
"p#	c #6A6A6A",
"q#	c #252B2B",
"r#	c #526163",
"s#	c #404749",
"t#	c #2F3335",
"u#	c #404648",
"v#	c #242A2B",
"w#	c #516062",
"x#	c #536062",
"y#	c #526063",
"z#	c #546062",
"A#	c #414749",
"B#	c #303536",
"C#	c #181A19",
"D#	c #272E2E",
"E#	c #596769",
"F#	c #596567",
"G#	c #41484A",
"H#	c #323638",
"I#	c #191A1A",
"J#	c #293030",
"K#	c #5D6B6D",
"L#	c #5B686A",
"M#	c #4C5456",
"N#	c #42484A",
"O#	c #323738",
"P#	c #2A2F30",
"Q#	c #121312",
"R#	c #292F2F",
"S#	c #5C686A",
"T#	c #42494A",
"U#	c #1A1B1A",
"V#	c #121211",
"W#	c #121110",
"X#	c #111110",
"Y#	c #11110F",
"Z#	c #10100F",
"`#	c #11100E",
" $	c #100F0E",
".$	c #0F0F0E",
"+$	c #272D2D",
"@$	c #5B696B",
"#$	c #5A6669",
"$$	c #353A3A",
"%$	c #1F2120",
"&$	c #151717",
"*$	c #141616",
"=$	c #131515",
"-$	c #121414",
";$	c #121515",
">$	c #131616",
",$	c #131717",
"'$	c #141818",
")$	c #151919",
"!$	c #171B1B",
"~$	c #1A1D1D",
"{$	c #1B1D1D",
"]$	c #1A1E1E",
"^$	c #2B3233",
"/$	c #556164",
"($	c #3A3F40",
"_$	c #2D3132",
":$	c #292E2F",
"<$	c #282F2F",
"[$	c #293031",
"}$	c #283032",
"|$	c #283031",
"1$	c #282F31",
"2$	c #2A3336",
"3$	c #2B3638",
"4$	c #2D383A",
"5$	c #2F3B3E",
"6$	c #2F3C3F",
"7$	c #333E41",
"8$	c #424C4E",
"9$	c #444E4F",
"0$	c #434E4F",
"a$	c #434F50",
"b$	c #516163",
"c$	c #4F5B5E",
"d$	c #495052",
"e$	c #3C4345",
"f$	c #3D4547",
"g$	c #3E4648",
"h$	c #3F484A",
"i$	c #404B4E",
"j$	c #404C4E",
"k$	c #414D4F",
"l$	c #435155",
"m$	c #465458",
"n$	c #48585B",
"o$	c #4A5B60",
"p$	c #4B5D61",
"q$	c #4B5C61",
"r$	c #506165",
"s$	c #5C6D6E",
"t$	c #657576",
"u$	c #687779",
"v$	c #677678",
"w$	c #5E6E70",
"x$	c #556466",
"y$	c #484F51",
"z$	c #4F5C5F",
"A$	c #4A5557",
"B$	c #454D4F",
"C$	c #4B575A",
"D$	c #4B585A",
"E$	c #4D5C5E",
"F$	c #4F5F62",
"G$	c #516165",
"H$	c #54666B",
"I$	c #596A6E",
"J$	c #647577",
"K$	c #6D7D7F",
"L$	c #707F81",
"M$	c #6E7E80",
"N$	c #647476",
"O$	c #556265",
"P$	c #009DEB",
"Q$	c #474F52",
"R$	c #4D585B",
"S$	c #4E5B5F",
"T$	c #576365",
"U$	c #5D6A6C",
"V$	c #5D696B",
"W$	c #566265",
"X$	c #4A5255",
"Y$	c #4C585B",
"Z$	c #4A5254",
"`$	c #4B5355",
" %	c #495153",
".%	c #474D4F",
"+%	c #44494B",
"@%	c #44484A",
"#%	c #44484B",
"$%	c #414144",
"%%	c #404042",
"&%	c #454B4D",
"*%	c #414648",
"=%	c #3F4547",
"-%	c #3E4345",
";%	c #3E4043",
">%	c #3E3D3F",
",%	c #3E3C3E",
"'%	c #3E3B3E",
")%	c #3E3A3D",
"!%	c #3C3639",
"~%	c #3C383B",
"{%	c #3A393C",
"]%	c #464C4D",
"^%	c #414748",
"/%	c #3B4243",
"(%	c #394042",
"_%	c #393A3C",
":%	c #39393C",
"<%	c #39363A",
"[%	c #393235",
"}%	c #393034",
"|%	c #393033",
"1%	c #392F33",
"2%	c #382E32",
"3%	c #383235",
"4%	c #38393B",
"5%	c #4B3F38",
"6%	c #2F5075",
"                                                                                                                                ",
". . . . . . + . + . + . + + + @ . . . . . . + . + . + . + + + @ . . . . . . + . + . + . + + + @ . . . . . . + . + . + . + + + @ ",
". + + + + + + + + + + + + + + @ . + + + + + + + + + + + + + + @ . + + + + + + + + + + + + + + @ . + + + + + + + + + + + + + + @ ",
". + # + + # # # # . + + + # + @ $ % & * = - ; > , ' ' ' ) ! ~ { ] ^ / ( ' _ : < [ } | 1 2 3 4 @ . + # + + # # # # . + + + # + @ ",
". @ + + # @ @ @ @ @ @ + @ + + @ 5 % 6 7 6 8 9 0 a b c c d e f g h i j k c k l m n o p p p q r @ . @ + + # @ @ @ @ @ @ + @ + + @ ",
". + + # @ @ @ @ @ @ @ @ . + + @ s t u v w x y z A B B B B C D E . { F G B G H i I J K K J i L @ . + + # @ @ @ @ @ @ @ @ . + + @ ",
". + # @ @ @ M N N M @ @ @ . + @ O P Q r g h h h . R . . E . . . . . . S S S S T . . . . { f U @ . + # @ @ @ M N N M @ @ @ . + @ ",
". + # @ @ M N N N N M @ @ # + @ V W X . Y Z Z Z Z ` Z Y  . .....+.@.@.@.@.#.$.$.%.. . . &.*.=.@ . + # @ @ M N N N N M @ @ # + @ ",
". + # @ @ N N -.-.N N @ @ # + @ ;.>.,.'.).!.!.!.!.!.~.{.].^.]./.(._._._.:.<.[.[.}.|.+.+. .L D @ . + # @ @ N N -.-.N N @ @ # + @ ",
". + # @ @ N N 1.1.N N @ @ # + @ V 2.@.3.4.5.6.6.6.6.7.8.9.9.0.a.b.b.b.c.d.e.f.f.g.h.3.i.j.k.. @ . + # @ @ N N 1.1.N N @ @ # + @ ",
"# . l.+ + m.m.1.1.m.m.+ + l.. + n.o.'.p.q.r.s.t.t.t.u.v.w.w.x.y.z.z.z.z.A.B.B.B.C.D.E.F.G.+.. + # . l.+ + m.m.1.1.m.m.+ + l.. + ",
". + # @ @ N N 1.1.N N @ @ # + @ n.H.I.J.K.L.M.N.N.O.P.Q.R.S.T.U.V.W.X.Y.Z.`.`.`. + +.+++@+@.. @ . + # @ @ N N 1.1.N N @ @ # + @ ",
"# . l.+ + m.m.1.1.m.m.+ + l.. + n.H.#+$+%+&+*+=+-+;+>+,+'+)+T.!+~+{+]+^+/+(+(+(+(+(+^+_++ :+. + # . l.+ + m.m.1.1.m.m.+ + l.. + ",
"# . l.+ + m.m.1.1.m.m.+ + l.. @ <+H.[+}+K.|+1+2+2+3+4+5+'+6+7+!+8+]+^+9+9+9+9+9+9+9+0+a+b+c+. @ # . l.+ + m.m.1.1.m.m.+ + l.. @ ",
"# . l.+ + m.m.1.1.m.m.+ + l.. + d+e+j.f+g+h+i+j+j+j+'+k+l+W.m+{+]+9+9+9+9+9+9+9+9+9+0+n+o+p+. + # . l.+ + m.m.1.1.m.m.+ + l.. + ",
"# . l.+ + m.m.1.1.m.m.+ + l.. @ q+r+s+t+u+v+j+'+'+w+l+7+x+~+]+y+^+9+9+9+9+9+9+9+9+9+9+z+A+B+S @ # . l.+ + m.m.1.1.m.m.+ + l.. @ ",
"# . l.+ + m.m.1.1.m.m.+ + l.. + C+D+E+F+G+3+'+k+w+6+W.m+8+]+^+9+9+9+9+9+9+9+9+9+9+9+9+H+I+J+E + # . l.+ + m.m.1.1.m.m.+ + l.. + ",
"# . l.+ + m.m.1.1.m.m.+ + l.. + K+e+E+F+N.3+L+6+7+!+m+]+^+^+9+9+9+9+9+9+9+9+9+9+9+9+9+H+M+J+E + # . l.+ + m.m.1.1.m.m.+ + l.. + ",
"# . l.+ + m.m.1.1.m.m.+ + l.. + N+O+s+F+P+Q+R+7+m+8+S+0+9+9+9+9+9+9+9+9+9+9+9+9+9+9+9+>+T+U+E + # . l.+ + m.m.1.1.m.m.+ + l.. + ",
"# . l.+ + m.m.1.1.m.m.+ + l.. + V+W+X+Y+Z+`+)+U. @^+9+9+9+9+9+9+9+9+9+9+9+9+9+9+9+9+9+>+A+] E + # . l.+ + m.m.1.1.m.m.+ + l.. + ",
"# . l.+ + m.m.1.1.m.m.+ + l.. . .@U +@@@P.#@l+m+]+9+9+9+9+9+9+9+9+9+9+9+9+9+9+9+9+9+9+3+$@%@S . # . l.+ + m.m.1.1.m.m.+ + l.. . ",
"&@. l.+ + m.m.1.1.m.m.+ + l.. + *@U +@Y+=@#@7+8+^+9+9+-@;@>@,@,@'@)@!@9+9+9+9+9+9+9+~@{@]@I ^@+ &@. l.+ + m.m.1.1.m.m.+ + l.. + ",
"# . l.+ + m.m.1.1.m.m.+ + l.. . *@U +@Y+/@(@U.]+9+9+_@:@<@<@<@<@<@<@[@}@9+9+9+9+9+9+~@|@1@2@p+. # . l.+ + m.m.1.1.m.m.+ + l.. . ",
"&@. l.+ + m.m.1.1.m.m.+ + l.. + *@U +@3@4@L+~+^+9+9+5@<@<@<@<@<@<@<@<@6@7@9+9+9+9+9+~@8@9@0@a@+ &@. l.+ + m.m.1.1.m.m.+ + l.. + ",
"# . l.+ + m.m.1.1.m.m.+ + l.. . *@U +@b@c@T.S+9+9+d@<@<@<@e@f@!@g@<@<@<@h@9+9+9+9+9+~@2+i@j@a@. # . l.+ + m.m.1.1.m.m.+ + l.. . ",
"&@. l.+ + m.m.1.1.m.m.+ + l.. + *@U k@l@m@m+y+9+9+n@<@<@<@o@9+9+p@q@<@<@r@9+9+9+9+9+s@t@u@v@] + &@. l.+ + m.m.1.1.m.m.+ + l.. + ",
"&@. l.+ + m.m.1.1.m.m.+ + l.. + *@U w@x@y@m+]+9+9+z@<@<@q@9+9+9+9+A@<@<@B@C@9+9+9+9+D@E@F@G@{ + &@. l.+ + m.m.1.1.m.m.+ + l.. + ",
"&@. l.+ + m.m.1.1.m.m.+ + l.. + *@U H@I@6+m+]+9+9+J@<@<@K@9+9+9+9+L@<@<@<@M@9+9+9+9+D@E@N@O@{ + &@. l.+ + m.m.1.1.m.m.+ + l.. + ",
"&@. l.+ + m.m.1.1.m.m.+ + l.. @ P@U H@Q@y@m+]+9+R@<@<@<@S@9+9+9+9+T@<@<@<@U@9+9+9+9+D@V@N@O@{ @ &@. l.+ + m.m.1.1.m.m.+ + l.. @ ",
"&@. l.+ + m.m.1.1.m.m.+ + l.. + W@J w@X@y@~+y+9+Y@<@<@<@Z@9+9+9+9+`@<@<@<@ #9+9+9+9+D@V@N@O@{ + &@. l.+ + m.m.1.1.m.m.+ + l.. + ",
"&@. l.+ + m.m.1.1.m.m.+ + l.. @ .#L H@+#6+m+]+9+_@<@<@<@Z@9+9+9+9+@#<@<@<@ #9+9+9+9+D@V@N@O@{ @ &@. l.+ + m.m.1.1.m.m.+ + l.. @ ",
"&@. l.+ + m.m.1.1.m.m.+ + l.. + ##$#%#&#S.m+]+9+*#<@<@<@S@9+9+9+9+T@<@<@<@=#9+9+9+9+D@E@N@O@{ + &@. l.+ + m.m.1.1.m.m.+ + l.. + ",
"&@. l.+ + m.m.1.1.m.m.+ + l.. @ -#;#%#&#S.{+y+9+9+q@<@<@K@9+9+9+9+>#<@<@<@,#9+9+9+9+D@E@N@'#{ @ &@. l.+ + m.m.1.1.m.m.+ + l.. @ ",
"&@. l.+ + m.m.1.1.m.m.+ + l.. @ )#$#%#&#y@]+9+9+9+!#<@<@q@9+9+9+9+~#<@<@B@-@9+9+9+9+0+{#]#^#{ @ &@. l.+ + m.m.1.1.m.m.+ + l.. @ ",
"&@. l.+ + m.m.1.1.m.m.+ + l.. @ /#{ %#&#y@y+9+9+9+;@<@<@<@(#9+9+*#_#<@<@:@9+9+9+9+9+0+:#<#[#L @ &@. l.+ + m.m.1.1.m.m.+ + l.. @ ",
"&@. l.+ + m.m.1.1.m.m.+ + l.. @ }#{ |#&#6+]+9+9+9+f@B@<@<@e@1#2#3#<@<@<@4#9+9+9+9+9+y+5#6#7#;#@ &@. l.+ + m.m.1.1.m.m.+ + l.. @ ",
"&@. l.+ + m.m.1.1.m.m.+ + l.. @ }#{ %#&#y@]+9+9+9+9+8#<@<@<@<@<@<@<@<@_#9#9+9+9+9+9+y+5#0#7#a#@ &@. l.+ + m.m.1.1.m.m.+ + l.. @ ",
"&@. l.+ + m.m.1.1.m.m.+ + l.. @ }#{ b#c#T.^+9+9+9+9+d#K@<@<@<@<@<@<@e#o@9+9+9+9+9+9+0+f#g#2 r @ &@. l.+ + m.m.1.1.m.m.+ + l.. @ ",
"&@. l.+ + m.m.1.1.m.m.+ + l.. @ }#{ h#i#j#9+9+9+9+9+9+k#l#e@m#n#o#3#p#9+9+9+9+9+9+9+y+q#r#Q J @ &@. l.+ + m.m.1.1.m.m.+ + l.. @ ",
"&@. l.+ + m.m.1.1.m.m.+ + l.. @ }#{ s#t#y@9+9+9+9+9+9+9+9+9+9+9+9+9+9+9+9+9+9+9+9+9+y+5#6#7#I @ &@. l.+ + m.m.1.1.m.m.+ + l.. @ ",
"&@. l.+ + m.m.1.1.m.m.+ + l.. @ }#{ u#i#j#9+9+9+9+9+9+9+9+9+9+9+9+9+9+9+9+9+9+9+9+9+0+v#w#x#J @ &@. l.+ + m.m.1.1.m.m.+ + l.. @ ",
"&@. l.+ + m.m.1.1.m.m.+ + l.. @ }#{ u#i#y@9+9+9+9+9+9+9+9+9+9+9+9+9+9+9+9+9+9+9+9+9+0+v#y#z#J @ &@. l.+ + m.m.1.1.m.m.+ + l.. @ ",
". . l.+ + m.m.1.1.m.m.+ + l.. @ }#{ A#B#C#9+9+9+9+9+9+9+9+9+9+9+9+9+9+9+9+9+9+9+9+9+y+D#E#F#4 @ . . l.+ + m.m.1.1.m.m.+ + l.. @ ",
"&@. l.+ + m.m.1.1.m.m.+ + l.. @ }#{ G#H#I#9+9+9+9+9+9+9+9+9+9+9+9+9+9+9+9+9+9+9+9+9+y+J#K#L#M#@ &@. l.+ + m.m.1.1.m.m.+ + l.. @ ",
". . l.+ + m.m.1.1.m.m.+ + l.. @ }#{ N#O#I#9+9+9+9+9+9+9+9+9+9+9+9+9+9+9+9+9+9+9+9+9+y+P#K#L#M#@ . . l.+ + m.m.1.1.m.m.+ + l.. @ ",
"&@. l.+ + m.m.1.1.m.m.+ + l.. @ }#{ N#O#I#9+9+9+9+9+9+9+9+9+9+9+9+9+9+9+9+9+9+9+9+9+y+P#K#L#M#@ &@. l.+ + m.m.1.1.m.m.+ + l.. @ ",
". . l.+ + m.m.1.1.m.m.+ + l.. @ }#{ N#O#I#9+9+9+9+9+9+9+9+9+9+9+9+9+9+9+9+9+9+9+9+9+Q#R#u S#M#@ . . l.+ + m.m.1.1.m.m.+ + l.. @ ",
"&@. l.+ + m.m.1.1.m.m.+ + l.. @ }#{ T#p.U#~@(+(+V#V#W#W#W#W#W#W#W#X#X#X#X#X#Y#Z#`# $.$+$@$#$M#@ &@. l.+ + m.m.1.1.m.m.+ + l.. @ ",
". . l.+ + m.m.1.1.m.m.+ + l.. @ }#{ +.$$%$y@j#W.&$*$=$-$-$-$-$-$;$>$,$'$'$'$)$!$~${$]$^$0#/$J @ . . l.+ + m.m.1.1.m.m.+ + l.. @ ",
". . l.+ + m.m.1.1.m.m.+ + l.. @ }#{ k.($_$:$:$:$<$[$}$|$1$1$1$}$2$3$4$5$6$6$7$M+8$9$0$a$b$c$d$@ . . l.+ + m.m.1.1.m.m.+ + l.. @ ",
". . # + + m.m.1.1.m.m.+ + l.. @ }#K . A#e$f$T+g$h$i$9@j$j$j$j$k$l$m$n$o$p$q$r$s$t$u$v$w$x$B y$@ . . # + + m.m.1.1.m.m.+ + l.. @ ",
". . l.+ + m.m.-.-.m.m.+ + l.. @ z$H A$. B$p+B+B+J 2@C$C$C$C$C$D$E$F$G$e H$H$I$J$K$L$M$N$O$p J @ . . l.+ + m.m.-.-.m.m.+ + l.. @ ",
". . # + + P$m.m.m.m.P$+ + l.. @ o q o Q$T y${ { %@r J J J J J ,.H G R$o S$S$/#T$S#U$V$W$A /#A$@ . . # + + P$m.m.m.m.P$+ + l.. @ ",
". . # + + + P$m.m.P$+ + + l.. @ F X$Y$g . . . . . S S S S S S S h h g Q$U+Q${ Z$`$4 `$ %.%W+E @ . . # + + + P$m.m.P$+ + + l.. @ ",
". . . # + + + + + + + + l.. . @ R +%S :+:+:+:+:+k.k.k.k.k.+%@%@%@%@%@%@%#%#%@%@%+%+%+%Y $%Z %%@ . . . # + + + + + + + + l.. . @ ",
". . . . # + + + + + + l.. . . @ &%*%=%<.<.<.<.<.<.-%w@w@;%+@>%,%'%'%'%'%'%'%'%'%'%'%'%)%!%~%{%@ . . . . # + + + + + + l.. . . @ ",
". . . . . # l.# l.l.l.. . . . @ ]%^%/%(%(%(%(%(%(%3._%:%:%<%[%}%|%|%|%|%|%|%|%|%|%|%|%1%2%3%4%@ . . . . . # l.# l.l.l.. . . . @ ",
". + . . . . . . + . . . . . . @ . + . . . . . . + . . . . . . @ . + . . . . . . + . . . . . . @ . + . . . . . . + . . . . . . @ ",
"+ . . . . . . . . . . . . . . @ + . . . . . . . . . . . . . . @ + . . . . . . . . . . . . . . @ + . . . . . . . . . . . . . . @ ",
". . 5%6%l.. . . . . . l.6%. 5%@ . . 5%6%l.. . . . . . l.6%. 5%@ . . 5%6%l.. . . . . . l.6%. 5%@ . . 5%6%l.. . . . . . l.6%. 5%@ ",
"+ . @ 6%6%. . + . . @ 6%6%. . @ + . @ 6%6%. . + . . @ 6%6%. . @ + . @ 6%6%. . + . . @ 6%6%. . @ + . @ 6%6%. . + . . @ 6%6%. . @ ",
". . @ @ 5%. . . . . @ @ . . 5%@ . . @ @ 5%. . . . . @ @ . . 5%@ . . @ @ 5%. . . . . @ @ . . 5%@ . . @ @ 5%. . . . . @ @ . . 5%@ ",
". . . 5%5%. . . . . . . . 5%. @ . . . 5%5%. . . . . . . . 5%. @ . . . 5%5%. . . . . . . . 5%. @ . . . 5%5%. . . . . . . . 5%. @ ",
"9+@ 9+9+9+9+@ 9+@ @ @ @ @ @ @ @ 9+@ 9+9+9+9+@ 9+@ @ @ @ @ @ @ @ 9+@ 9+9+9+9+@ 9+@ @ @ @ @ @ @ @ 9+@ 9+9+9+9+@ 9+@ @ @ @ @ @ @ @ "};
