/* XPM */
static char * avpd_xpm[] = {
"64 64 250 2",
"  	c #000000",
". 	c #464D4F",
"+ 	c #383F40",
"@ 	c #382B2F",
"# 	c #62797E",
"$ 	c #FFFFFF",
"% 	c #FEFEFE",
"& 	c #FDFDFD",
"* 	c #F4F4F4",
"= 	c #EFEFEF",
"- 	c #F1F1F1",
"; 	c #FBFBFB",
"> 	c #F2F2F2",
", 	c #FCFCFC",
"' 	c #F8F8F8",
") 	c #F78300",
"! 	c #FFB62C",
"~ 	c #E2E2E2",
"{ 	c #E1E1E1",
"] 	c #D9D9D9",
"^ 	c #D5D5D5",
"/ 	c #D6D6D6",
"( 	c #E0E0E0",
"_ 	c #D7D7D7",
": 	c #D4D4D4",
"< 	c #DDDDDD",
"[ 	c #E9E9E9",
"} 	c #EEEEEE",
"| 	c #646464",
"1 	c #636363",
"2 	c #5F5F5F",
"3 	c #5D5D5D",
"4 	c #5E5E5E",
"5 	c #616161",
"6 	c #626262",
"7 	c #808080",
"8 	c #DADADA",
"9 	c #FFEC24",
"0 	c #010101",
"a 	c #222222",
"b 	c #707070",
"c 	c #747474",
"d 	c #6F6F6F",
"e 	c #6E6E6E",
"f 	c #565656",
"g 	c #5B5B5B",
"h 	c #6B6B6B",
"i 	c #373737",
"j 	c #070707",
"k 	c #515151",
"l 	c #727272",
"m 	c #363636",
"n 	c #787878",
"o 	c #9B9B9B",
"p 	c #989898",
"q 	c #666666",
"r 	c #131313",
"s 	c #606060",
"t 	c #F5F9ED",
"u 	c #4F4F4F",
"v 	c #C4C4C4",
"w 	c #C0C0C0",
"x 	c #939393",
"y 	c #C2C2C2",
"z 	c #959595",
"A 	c #171717",
"B 	c #AEAEAE",
"C 	c #777777",
"D 	c #1B1B1B",
"E 	c #B5B5B5",
"F 	c #D3D3D3",
"G 	c #E4E4E4",
"H 	c #E8E8E8",
"I 	c #6C6C6C",
"J 	c #BAB77A",
"K 	c #FFD02C",
"L 	c #BEBEBE",
"M 	c #2F2F2F",
"N 	c #0C0C0C",
"O 	c #EBEBEB",
"P 	c #B6B6B6",
"Q 	c #181818",
"R 	c #B0B0B0",
"S 	c #EDEDED",
"T 	c #404040",
"U 	c #323232",
"V 	c #F6F6F6",
"W 	c #A3A3A3",
"X 	c #4E4E4E",
"Y 	c #E7E7E7",
"Z 	c #2C2C2C",
"` 	c #C5C5C5",
" .	c #CECECE",
"..	c #B3B3B3",
"+.	c #ECECEC",
"@.	c #767676",
"#.	c #868686",
"$.	c #F7F7F7",
"%.	c #F0F0F0",
"&.	c #4A4A4A",
"*.	c #CDCDCD",
"=.	c #E5E5E5",
"-.	c #656565",
";.	c #717171",
">.	c #CBCBCB",
",.	c #191919",
"'.	c #7A7A7A",
").	c #B2B2B2",
"!.	c #E3E3E3",
"~.	c #DFDFDF",
"{.	c #CFCFCF",
"].	c #8B8B8B",
"^.	c #B7B7B7",
"/.	c #575757",
"(.	c #CACACA",
"_.	c #EAEAEA",
":.	c #494949",
"<.	c #DEDEDE",
"[.	c #FAFAFA",
"}.	c #A8A8A8",
"|.	c #1F1F1F",
"1.	c #B8B8B8",
"2.	c #585858",
"3.	c #C8C8C8",
"4.	c #B1B1B1",
"5.	c #C9C9C9",
"6.	c #BDBDBD",
"7.	c #3B3B3B",
"8.	c #C6C6C6",
"9.	c #979797",
"0.	c #020202",
"a.	c #F5F5F5",
"b.	c #D1D1D1",
"c.	c #555555",
"d.	c #B9B9B9",
"e.	c #0B0B0B",
"f.	c #1E1E1E",
"g.	c #141414",
"h.	c #252525",
"i.	c #A1A1A1",
"j.	c #D8D8D8",
"k.	c #686868",
"l.	c #BABABA",
"m.	c #C7C7C7",
"n.	c #4B4B4B",
"o.	c #CCCCCC",
"p.	c #8E8E8E",
"q.	c #848484",
"r.	c #BBBBBB",
"s.	c #262626",
"t.	c #9D9D9D",
"u.	c #444444",
"v.	c #797979",
"w.	c #C3C3C3",
"x.	c #BFBFBF",
"y.	c #A6A6A6",
"z.	c #7E7E7E",
"A.	c #292929",
"B.	c #E6E6E6",
"C.	c #AAAAAA",
"D.	c #2B2B2B",
"E.	c #6A6A6A",
"F.	c #8A8A8A",
"G.	c #2E2E2E",
"H.	c #C1C1C1",
"I.	c #050505",
"J.	c #898989",
"K.	c #4D4D4D",
"L.	c #6D6D6D",
"M.	c #A7A7A7",
"N.	c #F3F3F3",
"O.	c #757575",
"P.	c #525252",
"Q.	c #101010",
"R.	c #DBDBDB",
"S.	c #828282",
"T.	c #F9F9F9",
"U.	c #818181",
"V.	c #595959",
"W.	c #3F3F3F",
"X.	c #9C9C9C",
"Y.	c #484848",
"Z.	c #D0D0D0",
"`.	c #7B7B7B",
" +	c #343434",
".+	c #676767",
"++	c #060606",
"@+	c #121212",
"#+	c #0F0F0F",
"$+	c #090909",
"%+	c #040404",
"&+	c #030303",
"*+	c #999999",
"=+	c #A9A9A9",
"-+	c #AFAFAF",
";+	c #9E9E9E",
">+	c #A2A2A2",
",+	c #ABABAB",
"'+	c #080808",
")+	c #202020",
"!+	c #383838",
"~+	c #3C3C3C",
"{+	c #393939",
"]+	c #929292",
"^+	c #8D8D8D",
"/+	c #949494",
"(+	c #969696",
"_+	c #8C8C8C",
":+	c #8F8F8F",
"<+	c #535353",
"[+	c #5C5C5C",
"}+	c #474747",
"|+	c #242424",
"1+	c #545454",
"2+	c #505050",
"3+	c #313131",
"4+	c #3A3A3A",
"5+	c #5A5A5A",
"6+	c #DCDCDC",
"7+	c #2D2D2D",
"8+	c #878787",
"9+	c #858585",
"0+	c #A4A4A4",
"a+	c #A0A0A0",
"b+	c #B4B4B4",
"c+	c #BCBCBC",
"d+	c #434343",
"e+	c #696969",
"f+	c #0A0A0A",
"g+	c #272727",
"h+	c #909090",
"i+	c #3D3D3D",
"j+	c #ADADAD",
"k+	c #D2D2D2",
"l+	c #919191",
"m+	c #838383",
"n+	c #9A9A9A",
"o+	c #1D1D1D",
"p+	c #111111",
"q+	c #454545",
"r+	c #2A2A2A",
"s+	c #353535",
"t+	c #3E3E3E",
"u+	c #282828",
"v+	c #303030",
"w+	c #FF992C",
"x+	c #5594B7",
"y+	c #4B3F38",
"z+	c #796F47",
"A+	c #141413",
"                                                                                                                                ",
". . . . . . + . + . + . + + + @ . . . . . . + . + . + . + + + @ . . . . . . + . + . + . + + + @ . . . . . . + . + . + . + + + @ ",
". + + + + + + + + + + + + + + @ . + + + + + + + + + + + + + + @ . + + + + + + + + + + + + + + @ . + + + + + + + + + + + + + + @ ",
". + # + + # # # # . + + + # + @ . + # + + # # # # . + + + # + @ . + # + + # # # # . + + + # + @ . + # + + # # # # . + + + # + @ ",
". @ + + # @ @ @ @ @ @ + @ + + @ . @ + + # @ @ @ @ @ @ + @ + + @ . @ + + # @ @ @ @ @ @ + @ + + @ . @ + + # @ @ @ @ @ @ + @ + + @ ",
". + + # @ @ @ @ @ @ @ @ . + + @ . + + # @ @ @ @ @ @ @ @ . + + @ . + + # @ @ @ @ @ @ @ @ . + + @ . + + # @ @ @ @ @ @ @ @ . + + @ ",
"$ % % & * = = = = = - ; $ $ $ $ $ & - = = = = = > % $ $ $ $ $ , = = = = = = * $ $ $ $ $ $ ' = = = + # @ @ @ ) ! ! ) @ @ @ . + @ ",
"~ ~ ~ { ] ^ ^ ^ ^ ^ / ( ~ ~ ~ ~ ~ ( / ^ ^ ^ ^ ^ _ { ~ ~ ~ ~ ~ ( : ^ ^ ^ ^ : ] ~ ~ ~ ~ ~ ~ < ] [ } + # @ @ ) ! ! ! ! ) @ @ # + @ ",
"| | | 1 2 3 3 3 3 3 4 5 | | | | | 1 4 3 3 3 3 3 3 6 1 | | | | 6 3 3 3 3 3 3 4 6 1 1 | | | 5 7 8 } + # @ @ ! ! 9 9 ! ! @ @ # + @ ",
"  0 a b c d e f 0 0                   g h i   j k l m                     0 m n o p q r 0 0 s / } + # @ @ ! ! t t ! ! @ @ # + @ ",
"  0 u [ ~ v w x   0                   y [ z   A B } C                     D E } F G H I   0 s / } . J + + K K t t K K + + J . + ",
"    u [ L M N     0                   y O P   Q R S C                     T G ] U x V W   0 s / = + # @ @ ! ! t t ! ! @ @ # + @ ",
"    X Y L Z                           ` =  .U Q ..+.@.                    X S ^ D #.$.E   0 5 ] %.. J + + K K t t K K + + J . + ",
"    &.( L M 0                         *.; =.-.Q E ~ ;.                    f * >.,.'.O ).  0 q !.% . J + + K K t t K K + + J . @ ",
"    &.~.L M 0                         {., %.].,.^.{ b                     /.* (.,.n _.R   0 q G % . J + + K K t t K K + + J . + ",
"    :.<.L M 0                         {.[.Y }.|.1.{ d                     2.* 3.Q C _.4.  0 q G % . J + + K K t t K K + + J . @ ",
"    :.<.L M 0                         {.$.5.6.7.1.( d                     /.* 8.Q | >.9.  0 q G % . J + + K K t t K K + + J . + ",
"    :.<.6.M 0 0.0.                    {.a...b.c.d.( d                     f > v Q e.f.g.    q G % . J + + K K t t K K + + J . + ",
"    :.<.6.h.    0.0                   {.a.i.j.k.l.( d                     u } m.M           q G % . J + + K K t t K K + + J . + ",
"    n.{ !.(.m.p   0                   o.> p.F q.r.G ;.                    s.w Y {.t.u.    0 -.{ [.. J + + K K t t K K + + J . + ",
"    u [ >.v.d u 0 0                   w.Y c x.y.1.S n                     0.m z.` O ( c   0 s _ = . J + + K K t t K K + + J . . ",
"    u [ L A.    0.0                   y B.h C.y r.S C                     0 0     o ' 4.  0 s / = . J + + K K t t K K + + J . + ",
"    u [ L D.0   0 0                   y B.h p.: y S C                             ].; l.  0 s / = . J + + K K t t K K + + J . . ",
"    u [ L D.0                         y B.E.2 < ] S C                     :./ y.  F., r.  0 s / } . J + + K K t t K K + + J . + ",
"    u [ L D.0                         y B.h G.] %.+.C                     k O w.  F., l.  0 s / } . J + + K K t t K K + + J . . ",
"    u [ L D.                          y B.h   H.= +.C                     k +.>.I.J.; d.    s / = . J + + K K t t K K + + J . + ",
"    K.B.L Z 0                         m.+.L.  M.N.H O.                    P.= *.Q.q.a.).    1 R.* . J + + K K t t K K + + J . + ",
"    &.~.L M 0                          .a.;.  S.T.( b                     P.- 5.A U.+.M.  0 q G % . J + + K K t t K K + + J . + ",
"    &.~.v 2 P.T 0                     {.a.;.  V.= ~.b                     W.=.{.4 X._.i.  0 q G % . J + + K K t t K K + + J . @ ",
"    Y.< H j.^ }.  0                   o.- L.  D.R.< d                     Q E { Z.8 b.h   0 q G % . J + + K K t t K K + + J . + ",
"  0 |.L.`.z.z.5 0.0.                  -.n  +  N .+e  +                    0.W.k.e E.k N 0   q G % . J + + K K t t K K + + J . @ ",
"++@+g.g.r #+$+%+&+0                   %+I.0     &+%+0                         0 0.0         q G & . J + + K K t t K K + + J . + ",
"*+M.}.=+-+R ;+/.  0                                                                         q G % . J + + K K t t K K + + J . @ ",
"N.> ] m.Z.B.G >+  0.                                                      0                 | <.$.. J + + K K t t K K + + J . @ ",
"; V 8  .H.^.,+-.'+)+!+7.~+~+~+~+~+7.!+!+!+!+!+!+{+~+~+~+~+~+~+7.!+!+!+!+!+!+{+~+~+~+~+~+~+i s _ = . J + + K K t t K K + + J . @ ",
"^ ~.( !.<.B.S 5.Y.'.v *.Z.{.Z.Z.Z. .` w.w.w.w.w.8.{.Z.Z.Z.Z.Z. .w.w.w.w.w.w.m.Z.Z.Z.Z.{.{.H..+^ = . J + + K K t t K K + + J . @ ",
"{.` W ]+X./ } _ 4 V.^+/+(+(+(+(+(+/+p._+_+_+_+_+p.z (+(+(+(+(+/+_+_+_+_+_+_+:+(+(+(+(+(+(+_+q / = . J + + K K t t K K + + J . @ ",
"=.' - O ~ [ G }.D.                                                                          s / = . J + + K K t t K K + + J . @ ",
"T <+2.[+/.k }+|+0.0                                                                         s / } . J + + K K t t K K + + J . @ ",
"  j c.V.1+k 2+K.u.@+A./.V.V.V.V.V.2.P.k :.e.    3+2.2././.2. +      4+k k 2+1+5+5+5+1+|.    s ^ } . J + + K K t t K K + + J . @ ",
"  P. .j.6+<.< R.: E.c j./ / / / / j.6+< 5.7+r 8+o._ / / / _ ` 9+,.  0+<.<.6+R.j.j.j.: ).g   | < V . J + + K K t t K K + + J . @ ",
"  ^+[ %.[.% % & & a+S.%.+.} = = = - T.[.G q 5.> T.%.S O +.= S [ {.s 6.% $ % T.+.+.} = O ( C.h G % . J + + K K t t K K + + J . @ ",
"  b+O = T.H , & &  .n.8+8+{.= = = H R _+z.^+' % , } d.F.b+= } - T.9.L % % & V c+J.F } } } _.v.G % . J + + K K t t K K + + J . @ ",
"4+*.} = * o * & % +.d+    r.= = } =.9+    _+T.& , = >+)+:+%.= > ' 9.L % $ % * 9.  v } } } _.'.G % . J + + K K t t K K + + J . @ ",
"e+8 S %.{ I ~ % & ' U.  f+r.= } } G #.  0 _+' & , = W g+h+= } - T.p 6.& & & N.p <+>.} = } !.C G $ . J + + K K t t K K + + J . @ ",
"^+Y } - : f Z.$ % ; E   $+d.= } } G 9+    ^+[.% , = W g+h+%.} - T.p 6.% % , ' O [ } = H d.1 q !.% . J + + K K t t K K + + J . @ ",
"=+S } - v i+j+$ % & j.D '+^.} } } =.#.    ^+[.% , = W g+h+%.} - T.p 6.& & & ' Y ~ _.= ( y.q .+!.% . J + + K K t t K K + + J . @ ",
"*.T.' T.{ r.k+a.* * { 6 &+L T.' ' } #.    8+%.* a.' C.A.z [.' ' = ]+P * * * %.R `.^ ' ' $.j.d R.* . J + + K K t t K K + + J . @ ",
"[ % & , > +.S } } S Y l+  H.$ % & - 9+    m+_.} - & B Z n+$ % ; [ p.4.} } } O ]+  *.& & % S ;./ } . J + + K K t t K K + + J . @ ",
"[.% % T.{ ^ b.B.= } } b+o+w $ & % > #.    U.H } %.& y m+1.$ & [.H ].4.} } } O ]+  *.& % % S ;./ = . J + + K K t t K K + + J . @ ",
"$ % & +.`.p+q+(.%.= > Z.X w $ $ $ N.#.  0 f ^.~ > & & % % % % > r.[+).= %.%.+.x    .% $ $ } l _ = . # + + K K t t K K + + J . @ ",
"( ( ( >.Y.  r+i.F F / *.2 M.!.{ { / @.  0.  s+C r.6+<.~.~.~.*.J.4+  t.F : F b.7   E ~.{ { F L._ = . J + + K K 9 9 K K + + J . @ ",
"t+t+t+i f+  %+u+4+4+7.4+Q Z W.t+W.7.o+0.0 0 0 $+7+i+i+i+i+i+ +Q.0.  A.4+4+4+{+)+  v+t+W.W.4+s / } . # + + w+K K K K w++ + J . @ ",
"I I I h e+k.k.k.k.k.e+h h I I I I h e+k.k.k.k.k.E.h h I I I I h k.k.k.k.k.e+E.h I I I I I h 8+6+= . # + + + w+K K w++ + + J . @ ",
"< 6+R.6+!.=.=.=.=.=.G < 6+6+R.6+6+< G =.=.=.=.=.G 6+6+6+6+6+< ~.=.=.=.=.=.=.~ 6+6+6+6+6+6+( H * ' . . # + + + + + + + + J . . @ ",
"= } } %.[.% $ % % % , > } } } = = - , % % % % % ; %.= = = = = > % % % % $ % ' = } = } } } V % & % . . . # + + + + + + J . . . @ ",
". . . . . # x+# x+x+x+. . . . @ . . . . . # x+# x+x+x+. . . . @ . . . . . # x+# x+x+x+. . . . @ . . . . . # J # J J J . . . . @ ",
". + . . . . . . + . . . . . . @ . + . . . . . . + . . . . . . @ . + . . . . . . + . . . . . . @ . + . . . . . . + . . . . . . @ ",
"+ . . . . . . . . . . . . . . @ + . . . . . . . . . . . . . . @ + . . . . . . . . . . . . . . @ + . . . . . . . . . . . . . . @ ",
". . y+z+J . . . . . . J z+. y+@ . . y+z+J . . . . . . J z+. y+@ . . y+z+J . . . . . . J z+. y+@ . . y+z+J . . . . . . J z+. y+@ ",
"+ . @ z+z+. . + . . @ z+z+. . @ + . @ z+z+. . + . . @ z+z+. . @ + . @ z+z+. . + . . @ z+z+. . @ + . @ z+z+. . + . . @ z+z+. . @ ",
". . @ @ y+. . . . . @ @ . . y+@ . . @ @ y+. . . . . @ @ . . y+@ . . @ @ y+. . . . . @ @ . . y+@ . . @ @ y+. . . . . @ @ . . y+@ ",
". . . y+y+. . . . . . . . y+. @ . . . y+y+. . . . . . . . y+. @ . . . y+y+. . . . . . . . y+. @ . . . y+y+. . . . . . . . y+. @ ",
"A+@ A+A+A+A+@ A+@ @ @ @ @ @ @ @ A+@ A+A+A+A+@ A+@ @ @ @ @ @ @ @ A+@ A+A+A+A+@ A+@ @ @ @ @ @ @ @ A+@ A+A+A+A+@ A+@ @ @ @ @ @ @ @ "};
