/* XPM */
static char * avpg_xpm[] = {
"64 64 298 2",
"  	c #000000",
". 	c #464D4F",
"+ 	c #383F40",
"@ 	c #382B2F",
"# 	c #62797E",
"$ 	c #535E61",
"% 	c #6A7A7C",
"& 	c #7E9193",
"* 	c #829496",
"= 	c #819496",
"- 	c #7B8E90",
"; 	c #738789",
"> 	c #6D8285",
", 	c #64797E",
"' 	c #5E757A",
") 	c #5F757A",
"! 	c #5B6F74",
"~ 	c #515F62",
"{ 	c #485052",
"] 	c #475052",
"^ 	c #4D5A5C",
"/ 	c #586A6D",
"( 	c #5D7477",
"_ 	c #5E7378",
": 	c #5B6E73",
"< 	c #596B6F",
"[ 	c #56666A",
"} 	c #536164",
"| 	c #536063",
"1 	c #535F62",
"2 	c #535F61",
"3 	c #505C5F",
"4 	c #4B5456",
"5 	c #5A686A",
"6 	c #718183",
"7 	c #728284",
"8 	c #6C7C7E",
"9 	c #667779",
"0 	c #627376",
"a 	c #5B6C70",
"b 	c #58696D",
"c 	c #586A6E",
"d 	c #57696D",
"e 	c #546569",
"f 	c #4D595C",
"g 	c #474F51",
"h 	c #474E50",
"i 	c #4B5557",
"j 	c #526164",
"k 	c #57686C",
"l 	c #556568",
"m 	c #526265",
"n 	c #505F62",
"o 	c #4E5B5E",
"p 	c #4E5A5C",
"q 	c #4D595B",
"r 	c #495254",
"s 	c #0095F6",
"t 	c #00C5F4",
"u 	c #EEEEEE",
"v 	c #EFEFEF",
"w 	c #F2F2F2",
"x 	c #FEFEFE",
"y 	c #FFFFFF",
"z 	c #FAFAFA",
"A 	c #F0F0F0",
"B 	c #F5F5F5",
"C 	c #F7F7F7",
"D 	c #F8F8F8",
"E 	c #F1F1F1",
"F 	c #E9E9E9",
"G 	c #D9D9D9",
"H 	c #D5D5D5",
"I 	c #D6D6D6",
"J 	c #E2E2E2",
"K 	c #DFDFDF",
"L 	c #DADADA",
"M 	c #DCDCDC",
"N 	c #D4D4D4",
"O 	c #DDDDDD",
"P 	c #C6F6FF",
"Q 	c #808080",
"R 	c #5D5D5D",
"S 	c #5E5E5E",
"T 	c #636363",
"U 	c #646464",
"V 	c #626262",
"W 	c #5F5F5F",
"X 	c #616161",
"Y 	c #F5F9ED",
"Z 	c #606060",
"` 	c #010101",
" .	c #141414",
"..	c #5A5A5A",
"+.	c #797979",
"@.	c #404040",
"#.	c #747474",
"$.	c #393939",
"%.	c #020202",
"&.	c #0E0E0E",
"*.	c #535353",
"=.	c #717171",
"-.	c #2A2A2A",
";.	c #5594B7",
">.	c #09E4FC",
",.	c #3D3D3D",
"'.	c #C9C9C9",
").	c #969696",
"!.	c #050505",
"~.	c #C6C6C6",
"{.	c #7E7E7E",
"].	c #262626",
"^.	c #B1B1B1",
"/.	c #EDEDED",
"(.	c #D7D7D7",
"_.	c #474747",
":.	c #A9A9A9",
"<.	c #070707",
"[.	c #7D7D7D",
"}.	c #D8D8D8",
"|.	c #515151",
"1.	c #FDFDFD",
"2.	c #0B0B0B",
"3.	c #C3C3C3",
"4.	c #7B7B7B",
"5.	c #B0B0B0",
"6.	c #E3E3E3",
"7.	c #656565",
"8.	c #595959",
"9.	c #CDCDCD",
"0.	c #151515",
"a.	c #BABABA",
"b.	c #757575",
"c.	c #242424",
"d.	c #A7A7A7",
"e.	c #666666",
"f.	c #E4E4E4",
"g.	c #030303",
"h.	c #E6E6E6",
"i.	c #EBEBEB",
"j.	c #333333",
"k.	c #767676",
"l.	c #D3D3D3",
"m.	c #4D4D4D",
"n.	c #0D0D0D",
"o.	c #989898",
"p.	c #BFBFBF",
"q.	c #0F0F0F",
"r.	c #A5A5A5",
"s.	c #ACACAC",
"t.	c #898989",
"u.	c #B9B9B9",
"v.	c #BCBCBC",
"w.	c #8C8C8C",
"x.	c #A4A4A4",
"y.	c #E0E0E0",
"z.	c #1A1A1A",
"A.	c #CFCFCF",
"B.	c #E8E8E8",
"C.	c #B8B8B8",
"D.	c #BDBDBD",
"E.	c #787878",
"F.	c #252525",
"G.	c #AAAAAA",
"H.	c #D1D1D1",
"I.	c #ECECEC",
"J.	c #536265",
"K.	c #565656",
"L.	c #737373",
"M.	c #E1E1E1",
"N.	c #282828",
"O.	c #B2B2B2",
"P.	c #6B6B6B",
"Q.	c #C8C8C8",
"R.	c #F4F4F4",
"S.	c #C2C2C2",
"T.	c #CECECE",
"U.	c #C5C5C5",
"V.	c #A0A0A0",
"W.	c #8E8E8E",
"X.	c #9F9F9F",
"Y.	c #A6A6A6",
"Z.	c #F3F3F3",
"`.	c #DBDBDB",
" +	c #C1C1C1",
".+	c #8B8B8B",
"++	c #AFAFAF",
"@+	c #7A7A7A",
"#+	c #ADADAD",
"$+	c #171717",
"%+	c #E5E5E5",
"&+	c #696969",
"*+	c #585858",
"=+	c #B6B6B6",
"-+	c #292929",
";+	c #343434",
">+	c #525252",
",+	c #444444",
"'+	c #868686",
")+	c #4F4F4F",
"!+	c #111111",
"~+	c #3E3E3E",
"{+	c #363636",
"]+	c #CCCCCC",
"^+	c #B7B7B7",
"/+	c #3B3B3B",
"(+	c #232323",
"_+	c #676767",
":+	c #272727",
"<+	c #5B5B5B",
"[+	c #1F1F1F",
"}+	c #505050",
"|+	c #2F2F2F",
"1+	c #040404",
"2+	c #1D1D1D",
"3+	c #1B1B1B",
"4+	c #060606",
"5+	c #181818",
"6+	c #0A0A0A",
"7+	c #ABABAB",
"8+	c #4C4C4C",
"9+	c #F6F6F6",
"0+	c #AEAEAE",
"a+	c #6F6F6F",
"b+	c #727272",
"c+	c #777777",
"d+	c #6E6E6E",
"e+	c #A8A8A8",
"f+	c #313131",
"g+	c #949494",
"h+	c #D0D0D0",
"i+	c #424242",
"j+	c #B5B5B5",
"k+	c #B4B4B4",
"l+	c #707070",
"m+	c #434343",
"n+	c #464646",
"o+	c #454545",
"p+	c #8F8F8F",
"q+	c #E7E7E7",
"r+	c #9E9E9E",
"s+	c #9D9D9D",
"t+	c #BEBEBE",
"u+	c #3C3C3C",
"v+	c #838383",
"w+	c #303030",
"x+	c #161616",
"y+	c #484848",
"z+	c #222222",
"A+	c #4B4B4B",
"B+	c #555555",
"C+	c #1E1E1E",
"D+	c #545454",
"E+	c #4A4A4A",
"F+	c #DEDEDE",
"G+	c #C7C7C7",
"H+	c #6C6C6C",
"I+	c #2E2E2E",
"J+	c #CACACA",
"K+	c #6A6A6A",
"L+	c #C4C4C4",
"M+	c #F9F9F9",
"N+	c #FBFBFB",
"O+	c #FCFCFC",
"P+	c #828282",
"Q+	c #909090",
"R+	c #EAEAEA",
"S+	c #888888",
"T+	c #858585",
"U+	c #939393",
"V+	c #C0C0C0",
"W+	c #0C0C0C",
"X+	c #323232",
"Y+	c #B3B3B3",
"Z+	c #2C2C2C",
"`+	c #373737",
" @	c #8D8D8D",
".@	c #383838",
"+@	c #2B2B2B",
"@@	c #191919",
"#@	c #353535",
"$@	c #686868",
"%@	c #7C7C7C",
"&@	c #9A9A9A",
"*@	c #CBCBCB",
"=@	c #8A8A8A",
"-@	c #1C1C1C",
";@	c #A1A1A1",
">@	c #878787",
",@	c #919191",
"'@	c #D2D2D2",
")@	c #999999",
"!@	c #009DEB",
"~@	c #3A3A3A",
"{@	c #BAB77A",
"]@	c #4B3F38",
"^@	c #2F5075",
"/@	c #141413",
"                                                                                                                                ",
". . . . . . + . + . + . + + + @ . . . . . . + . + . + . + + + @ . . . . . . + . + . + . + + + @ . . . . . . + . + . + . + + + @ ",
". + + + + + + + + + + + + + + @ . + + + + + + + + + + + + + + @ . + + + + + + + + + + + + + + @ . + + + + + + + + + + + + + + @ ",
". + # + + # # # # . + + + # + @ $ % & * = - ; > , ' ' ' ) ! ~ { ] ^ / ( ' _ : < [ } | 1 2 3 4 @ . + # + + # # # # . + + + # + @ ",
". @ + + # @ @ @ @ @ @ + @ + + @ 5 % 6 7 6 8 9 0 a b c c d e f g h i j k c k l m n o p p p q r @ . @ + + # @ @ @ @ @ @ + @ + + @ ",
". + + # @ @ @ @ @ @ @ @ . + + @ . + + # @ @ @ @ @ @ @ @ . + + @ . + + # @ @ @ @ @ @ @ @ . + + @ . + + # @ @ @ @ @ @ @ @ . + + @ ",
". + # @ @ @ s t t s @ @ @ u v v v v v w x x y y y y z A v v v v v B x y y y y y C A v v v v v D x y y y y y B v v v v v E z x y ",
". + # @ @ s t t t t s @ @ u F G H H H I J J J J J J K H H H H H H L J J J J J J M H H H H H N O J J J J J J L H H H H H H O J J ",
". + # @ @ t t P P t t @ @ v L Q R R R S T U T U U U V R R R R R R W T U U U T U X R R R R R R X U U U U U U W R R R R R S X U U ",
". + # @ @ t t Y Y t t @ @ u I Z       `  ...+.@.`                     `   S #.$.                      %.&.*.=.-.`               ",
"# . ;.+ + >.>.Y Y >.>.+ + u I Z     ` ` ,.'.y ).!.                    `   ~.E {.                      ` ].^./.W %.`             ",
". + # @ @ t t Y Y t t @ @ v (.Z       %._.N y :.<.                    `   ~.A [.                        ].^./.Z ` `             ",
"# . ;.+ + >.>.Y Y >.>.+ + A }.X       ` |.K 1.~.2.                        3.u 4.                        ].5.u X `               ",
"# . ;.+ + >.>.Y Y >.>.+ + 1.6.7.      ` 8.6.v 9.0.                        a.J b.                        c.d.A e.`               ",
"# . ;.+ + >.>.Y Y >.>.+ + 1.f.e.    ` g.7.h.i.(.j.  `                     a.J k.                        c.d.A e.`               ",
"# . ;.+ + >.>.Y Y >.>.+ + 1.f.e.    ` <.Q K l.6.m.  `                     a.J k.                        c.d.A e.`               ",
"# . ;.+ + >.>.Y Y >.>.+ + 1.6.e.      n.o.M p.h.U   `                     a.J k.                        c.d.A e.`               ",
"# . ;.+ + >.>.Y Y >.>.+ + 1.6.e.    ` q.r.L s.f.t.  `                     u.J k.                        c.d.A e.`               ",
"# . ;.+ + >.>.Y Y >.>.+ + 1.6.e.      0.v.N w.6.x.                        u.J k.                        c.d.A e.`               ",
"# . ;.+ + >.>.Y Y >.>.+ + z y.U       z.l.A.=.B.C.                        D.h.E.                        F.G.A U `               ",
"# . ;.+ + >.>.Y Y >.>.+ + v I W       j.f.H.R I.I                         ~.A {.                        ].^.u Z `               ",
"J.. ;.+ + >.>.Y Y >.>.+ + u I W       K.E H L.F M.N.                      ~.E {.                        ].O.u Z `               ",
"# . ;.+ + >.>.Y Y >.>.+ + u I W       P.z F Q.R.B.R                       ~.E {.                        ].^./.W `               ",
"J.. ;.+ + >.>.Y Y >.>.+ + u I W       Q C S.*.T./.[.                      U.E [.                        ].^./.W `               ",
"# . ;.+ + >.>.Y Y >.>.+ + u I W       V.B :.  r.E W.                      U.E [.                        ].^./.W `               ",
"J.. ;.+ + >.>.Y Y >.>.+ + u I W       O.B X.  ).C Y.                      U.E [.                        ].^./.W `               ",
"J.. ;.+ + >.>.Y Y >.>.+ + Z.`.V        +u .+  {.Z.++                       +i.@+                        F.#+u V `               ",
"J.. ;.+ + >.>.Y Y >.>.+ + x f.e.    $+`.%+&+  *+h.=+-+                    a.J k.                        c.d.A e.`               ",
"J.. ;.+ + >.>.Y Y >.>.+ + 1.f.e.    ;+6.J >+  @.f.~.,+                `   a.6.'+m.)+!+                ` c.d.A e.%.              ",
"J.. ;.+ + >.>.Y Y >.>.+ + 1.f.e.    X f.`.~+  {+`.]+)+                `   ^+B.H.A.T./+                ` (+r.I.U `               ",
"J.. ;.+ + >.>.Y Y >.>.+ + 1.6.e.    $.#._+!+  0.&+_+:+                `   <+b.b.+.E.[+                ` n.}+k.|+` ` `     ` `   ",
"J.. ;.+ + >.>.Y Y >.>.+ + 1.f.e.    %.!.g.      g.1+`                     g.!.!.!.!.                  ` %.!+2+3+4+` ` g.5+$+6+g.",
"J.. ;.+ + >.>.Y Y >.>.+ + 1.6.e.                                                                      ` g.S 7+5.7.  ` )+^.7+*+8+",
"J.. ;.+ + >.>.Y Y >.>.+ + 9+O T                                                                           S M B D.`   0+D K 7.5.",
"J.. ;.+ + >.>.Y Y >.>.+ + u I =.a+=.b+L.+.+.E.E.E.E.c+b+=.=.=.=.=.#.E.+.+.+.+.+.k.b+=.=.=.=.=.b.E.E.E.+.U   X.F K d+8.K I.e+f+v.",
"J.. ;.+ + >.>.Y Y >.>.+ + u H g+'.T.A.h+`.`.`.`.`.`.}.T.T.T.T.T.T.l.M M M M M M I A.A.A.A.A.T.I M `.`.`.u.  i+H.I.j+k+I.N S 1+l+",
"J.. ;.+ + >.>.Y Y >.>.+ + u I e.@.i+i+m+n+_._._._._.n+i+i+i+i+i+m+,+_._._._._._.,+i+i+i+i+i+m+o+_._._.o+/+    p+i.f.q+i.r+  $+s+",
"J.. ;.+ + >.>.Y Y >.>.+ + u I W                                                                             ` {+t+I./.h+u+  n.v+",
"J.. ;.+ + >.>.Y Y >.>.+ + u I W                                                                               g.w+m.)+u+1+%.%.x+",
"J.. ;.+ + >.>.Y Y >.>.+ + u I Z y+>+}+>+*+8.8.*+i+    !.;+>+|.|.}+*.8.*+8.z+  ` 2.A+>+|.|.|.}+B+8.|.C+)+8.8.D+|.|.}+|.E+    %.` ",
"J.. ;.+ + >.>.Y Y >.>.+ + C F+e.G+O O M (.(.(.(.G+'+F.$+g+F+O O M `.(.I (.u.H+  I+J+F+F+F+F+M L (.U.D+p.I (.`.F+F+F+O G s.8+    ",
"J.. ;.+ + >.>.Y Y >.>.+ + 1.6.K+6.1.1.z u I.I.u /.%+L+8.G.x x x 1.9+i.u v /.M.s.|.q+1.x y x z w I.}.S I v v M+x N+N+1.O+D L P+q.",
". . ;.+ + >.>.Y Y >.>.+ + 1.6.K+6.1.x N+h.Q+7+R+u u w W.G.y x x x D.Q+G+v u u `.k.q+1.1.N+I.Q+S+T+E.@.H u u D i.U+#+w O+O+R.V+[+",
"J.. ;.+ + >.>.Y Y >.>.+ + x f.K+f.x 1.N+6.m+'+B.u u w p+G.y y x x g+z+s.v v v M c+q+x x O+q+W+      |+I u v D h.X+4.u 1.1.R. +C+",
". . ;.+ + >.>.Y Y >.>.+ + 1.6.K+6.1.1.z 6._..+q+v u w W.G.x x x 1.X...0+u u u }.b+q+x 1.O+E Y+G.x._+Z+I u u D h.`+[./.1.1.R. +2+",
"J.. ;.+ + >.>.Y Y >.>.+ + 1.f.K+f.x 1.M+%+w.7+R+u u A  @G.x x x 1.Z.R+I.u R+3.l+,.B.x 1.O+O+N+w B. @-+H u u D h..@[.u 1.O+R. +2+",
". . ;.+ + >.>.Y Y >.>.+ + x f.K+f.x 1.M+u /.v v /.J 3.Z G.x 1.1.1.v 6.B.u %+#+l+,+q+1.x 1.C `.H.Q.L.+@H u u D h..@{.u x 1.R. +f+",
"J.. ;.+ + >.>.Y Y >.>.+ + R.M e.`.B Z.R.R.(.]+Q.++{.j.@@x.R.R.R.B 5.v+V+D D D `.l+F+R.R.R.y.E+f+:+&.w+O D D C F+#@+.%+R.B D '.m.",
". . ;.+ + >.>.Y Y >.>.+ + u I T H u u E E b+,+i+Z+`   3+V.v u u A .+:+#+1.1.x R+4.}./.u u `.].  %.  f+J x x B G j.b.M.u v z T.$@",
". . ;.+ + >.>.Y Y >.>.+ + u I T H u u A v K.  ` ` ` ` 3+V.v u u A .+N.0+1.1.x R+4.}.u u u K E.c+4.#.m.M.1.1.B O %@&@6./.v z *@=@",
". . # + + >.>.Y Y >.>.+ + u I T I v A E A |.          -@;@A v v E w.N.0+x x x i.%@L v A v A /.9+1.v >@6.x x B v u v v v I.(.,@Y+",
". . ;.+ + >.>.P P >.>.+ + u I V t+'@l.H l.i+        ` $+ @N l.l.N @+z+)@y.M.M.h+H+V+'@N l.l.l.L K N c+Q.y.y.}.l.l.l.l.h+s+K.z+++",
". . # + + !@>.>.>.>.!@+ + u I W j.$.~@/+~@2.          g.c.~@~@~@~@C+4+:+~+~+~+$.@@;+$.~@~@~@~@u+~+~@-@{+~+~+/+~@~@~@~@.@C+` 1+I+",
". . # + + + !@>.>.!@+ + + u `.'+$@$@&+K+P.H+H+H+H+H+P.$@$@$@$@$@&+K+P.H+H+H+H+H+P.&+$@$@$@$@&+K+P.H+H+H+H+H+K+$@$@$@$@$@K+K+P.H+",
". . . # + + + + + + + + ;.C Z.q+%+%+%+6.M M `.`.`.`.F+%+%+%+%+%+h.J M M `.M O O M.%+%+%+%+%+%+y.M O O O O O J %+%+%+%+%+%+K M O ",
". . . . # + + + + + + ;.. 1.1.x x x x N+A u u u u u w x y y x x y M+v u u u v v C x x y x y x B v v v v v v M+x x x y y 1.R.v v ",
". . . . . # ;.# ;.;.;.. . . . @ . . . . . # {@# {@{@{@. . . . @ . . . . . # {@# {@{@{@. . . . @ . . . . . # {@# {@{@{@. . . . @ ",
". + . . . . . . + . . . . . . @ . + . . . . . . + . . . . . . @ . + . . . . . . + . . . . . . @ . + . . . . . . + . . . . . . @ ",
"+ . . . . . . . . . . . . . . @ + . . . . . . . . . . . . . . @ + . . . . . . . . . . . . . . @ + . . . . . . . . . . . . . . @ ",
". . ]@^@;.. . . . . . ;.^@. ]@@ . . ]@^@;.. . . . . . ;.^@. ]@@ . . ]@^@;.. . . . . . ;.^@. ]@@ . . ]@^@;.. . . . . . ;.^@. ]@@ ",
"+ . @ ^@^@. . + . . @ ^@^@. . @ + . @ ^@^@. . + . . @ ^@^@. . @ + . @ ^@^@. . + . . @ ^@^@. . @ + . @ ^@^@. . + . . @ ^@^@. . @ ",
". . @ @ ]@. . . . . @ @ . . ]@@ . . @ @ ]@. . . . . @ @ . . ]@@ . . @ @ ]@. . . . . @ @ . . ]@@ . . @ @ ]@. . . . . @ @ . . ]@@ ",
". . . ]@]@. . . . . . . . ]@. @ . . . ]@]@. . . . . . . . ]@. @ . . . ]@]@. . . . . . . . ]@. @ . . . ]@]@. . . . . . . . ]@. @ ",
"/@@ /@/@/@/@@ /@@ @ @ @ @ @ @ @ /@@ /@/@/@/@@ /@@ @ @ @ @ @ @ @ /@@ /@/@/@/@@ /@@ @ @ @ @ @ @ @ /@@ /@/@/@/@@ /@@ @ @ @ @ @ @ @ "};
