/* XPM */
static char * coinbd_xpm[] = {
"64 64 347 2",
"  	c #000000",
". 	c #464D4F",
"+ 	c #383F40",
"@ 	c #382B2F",
"# 	c #62797E",
"$ 	c #FEFEFE",
"% 	c #FDFDFD",
"& 	c #FFFFFF",
"* 	c #FCFCFC",
"= 	c #0095F6",
"- 	c #00C5F4",
"; 	c #FBFBFB",
"> 	c #F9F9F9",
", 	c #F8F8F8",
"' 	c #FAFAFA",
") 	c #F7F7F7",
"! 	c #F2F2F2",
"~ 	c #F0F0F0",
"{ 	c #F4F4F4",
"] 	c #F3F3F3",
"^ 	c #F1F1F1",
"/ 	c #EFEFEF",
"( 	c #C6F6FF",
"_ 	c #EEEEEE",
": 	c #F5F9ED",
"< 	c #EBEBEB",
"[ 	c #EAEAEA",
"} 	c #EDEDED",
"| 	c #ECECEC",
"1 	c #E9E9E9",
"2 	c #E8E8E8",
"3 	c #5594B7",
"4 	c #09E4FC",
"5 	c #E4E4E4",
"6 	c #E3E3E3",
"7 	c #E6E6E6",
"8 	c #E5E5E5",
"9 	c #E2E2E2",
"0 	c #DEDEDE",
"a 	c #E1E1E1",
"b 	c #E0E0E0",
"c 	c #DDDDDD",
"d 	c #D7D7D7",
"e 	c #D0D0D0",
"f 	c #CCCCCC",
"g 	c #C3C3C3",
"h 	c #BBBBBB",
"i 	c #C2C2C2",
"j 	c #CFCFCF",
"k 	c #D8D8D8",
"l 	c #DBDBDB",
"m 	c #D9D9D9",
"n 	c #DCDCDC",
"o 	c #D1D1D1",
"p 	c #C8C8C8",
"q 	c #BFBFBF",
"r 	c #B5B5B5",
"s 	c #A7A7A7",
"t 	c #878787",
"u 	c #484848",
"v 	c #4D4D4D",
"w 	c #717171",
"x 	c #9D9D9D",
"y 	c #C6C6C6",
"z 	c #DADADA",
"A 	c #D3D3D3",
"B 	c #B2B2B2",
"C 	c #B8B8B8",
"D 	c #BDBDBD",
"E 	c #B9B9B9",
"F 	c #727272",
"G 	c #252525",
"H 	c #101010",
"I 	c #767676",
"J 	c #D4D4D4",
"K 	c #D2D2D2",
"L 	c #CECECE",
"M 	c #AFAFAF",
"N 	c #A9A9A9",
"O 	c #5E5E5E",
"P 	c #131313",
"Q 	c #212121",
"R 	c #272727",
"S 	c #292929",
"T 	c #393939",
"U 	c #B4B4B4",
"V 	c #CDCDCD",
"W 	c #C9C9C9",
"X 	c #B7B7B7",
"Y 	c #9C9C9C",
"Z 	c #989898",
"` 	c #797979",
" .	c #2A2A2A",
"..	c #282828",
"+.	c #2F2F2F",
"@.	c #414141",
"#.	c #494949",
"$.	c #444444",
"%.	c #434343",
"&.	c #353535",
"*.	c #262626",
"=.	c #CBCBCB",
"-.	c #CACACA",
";.	c #909090",
">.	c #5F5F5F",
",.	c #7B7B7B",
"'.	c #474747",
").	c #3F3F3F",
"!.	c #3B3B3B",
"~.	c #313131",
"{.	c #323232",
"].	c #1B1B1B",
"^.	c #838383",
"/.	c #C5C5C5",
"(.	c #C7C7C7",
"_.	c #BABABA",
":.	c #C0C0C0",
"<.	c #C4C4C4",
"[.	c #ACACAC",
"}.	c #8B8B8B",
"|.	c #565656",
"1.	c #070707",
"2.	c #3E3E3E",
"3.	c #404040",
"4.	c #303030",
"5.	c #2C2C2C",
"6.	c #1E1E1E",
"7.	c #151515",
"8.	c #535353",
"9.	c #B3B3B3",
"0.	c #929292",
"a.	c #818181",
"b.	c #777777",
"c.	c #7D7D7D",
"d.	c #858585",
"e.	c #979797",
"f.	c #BEBEBE",
"g.	c #BCBCBC",
"h.	c #AAAAAA",
"i.	c #898989",
"j.	c #545454",
"k.	c #121212",
"l.	c #373737",
"m.	c #424242",
"n.	c #383838",
"o.	c #1C1C1C",
"p.	c #333333",
"q.	c #636363",
"r.	c #ADADAD",
"s.	c #848484",
"t.	c #666666",
"u.	c #585858",
"v.	c #5B5B5B",
"w.	c #5A5A5A",
"x.	c #505050",
"y.	c #363636",
"z.	c #A2A2A2",
"A.	c #C1C1C1",
"B.	c #D5D5D5",
"C.	c #B1B1B1",
"D.	c #A4A4A4",
"E.	c #090909",
"F.	c #1D1D1D",
"G.	c #2D2D2D",
"H.	c #2B2B2B",
"I.	c #4A4A4A",
"J.	c #737373",
"K.	c #8A8A8A",
"L.	c #A0A0A0",
"M.	c #9B9B9B",
"N.	c #8D8D8D",
"O.	c #949494",
"P.	c #A1A1A1",
"Q.	c #A3A3A3",
"R.	c #9E9E9E",
"S.	c #8C8C8C",
"T.	c #AEAEAE",
"U.	c #707070",
"V.	c #4E4E4E",
"W.	c #1A1A1A",
"X.	c #181818",
"Y.	c #0C0C0C",
"Z.	c #6E6E6E",
"`.	c #B6B6B6",
" +	c #A6A6A6",
".+	c #888888",
"++	c #536265",
"@+	c #B0B0B0",
"#+	c #A5A5A5",
"$+	c #2E2E2E",
"%+	c #939393",
"&+	c #868686",
"*+	c #9F9F9F",
"=+	c #919191",
"-+	c #050505",
";+	c #959595",
">+	c #7E7E7E",
",+	c #ABABAB",
"'+	c #A8A8A8",
")+	c #010101",
"!+	c #656565",
"~+	c #969696",
"{+	c #9A9A9A",
"]+	c #696969",
"^+	c #060606",
"/+	c #161616",
"(+	c #3A3A3A",
"_+	c #5D5D5D",
":+	c #7F7F7F",
"<+	c #6C6C6C",
"[+	c #6D6D6D",
"}+	c #999999",
"|+	c #616161",
"1+	c #7C7C7C",
"2+	c #6A6A6A",
"3+	c #8F8F8F",
"4+	c #808080",
"5+	c #4B4B4B",
"6+	c #8E8E8E",
"7+	c #828282",
"8+	c #232323",
"9+	c #595959",
"0+	c #454545",
"a+	c #222222",
"b+	c #606060",
"c+	c #525252",
"d+	c #676767",
"e+	c #7A7A7A",
"f+	c #747474",
"g+	c #5C5C5C",
"h+	c #0A0A0A",
"i+	c #020202",
"j+	c #0D0D0D",
"k+	c #4F4F4F",
"l+	c #464646",
"m+	c #DFDFDF",
"n+	c #0B0B0B",
"o+	c #4C4C4C",
"p+	c #686868",
"q+	c #343434",
"r+	c #555555",
"s+	c #646464",
"t+	c #242424",
"u+	c #757575",
"v+	c #787878",
"w+	c #6B6B6B",
"x+	c #191919",
"y+	c #6F6F6F",
"z+	c #030303",
"A+	c #3C3C3C",
"B+	c #040404",
"C+	c #707071",
"D+	c #6F6F70",
"E+	c #69696A",
"F+	c #626262",
"G+	c #515151",
"H+	c #676768",
"I+	c #505051",
"J+	c #6D6D6E",
"K+	c #7B7B7C",
"L+	c #111111",
"M+	c #5E5E5F",
"N+	c #636364",
"O+	c #111112",
"P+	c #575757",
"Q+	c #5F5F60",
"R+	c #3D3D3D",
"S+	c #252526",
"T+	c #5A5A5B",
"U+	c #5D5D5E",
"V+	c #363637",
"W+	c #4F4F50",
"X+	c #202021",
"Y+	c #3A3A3B",
"Z+	c #3F3F40",
"`+	c #404041",
" @	c #545455",
".@	c #686869",
"+@	c #606061",
"@@	c #59595A",
"#@	c #454546",
"$@	c #4D4D4E",
"%@	c #555556",
"&@	c #6E6E6F",
"*@	c #4C4C4D",
"=@	c #080809",
"-@	c #515152",
";@	c #585859",
">@	c #757576",
",@	c #464647",
"'@	c #565657",
")@	c #616162",
"!@	c #5B5B5C",
"~@	c #282829",
"{@	c #434344",
"]@	c #4A4A4B",
"^@	c #5C5C5D",
"/@	c #525253",
"(@	c #717172",
"_@	c #69696B",
":@	c #6A6A6B",
"<@	c #575758",
"[@	c #6B6B6C",
"}@	c #414142",
"|@	c #646465",
"1@	c #474748",
"2@	c #5F5F61",
"3@	c #4B4B4C",
"4@	c #484849",
"5@	c #424243",
"6@	c #626263",
"7@	c #535354",
"8@	c #4B4B4A",
"9@	c #3A3A39",
"0@	c #444445",
"a@	c #393938",
"b@	c #525254",
"c@	c #1F1F1F",
"d@	c #202020",
"e@	c #3C3C3D",
"f@	c #3E3E3F",
"g@	c #373738",
"h@	c #4E4E4F",
"i@	c #3D3D3E",
"j@	c #3B3B3C",
"k@	c #49494A",
"l@	c #171717",
"m@	c #333334",
"n@	c #009DEB",
"o@	c #141414",
"p@	c #0F0F0F",
"q@	c #1B1B1C",
"r@	c #1D1D1E",
"s@	c #2F2F30",
"t@	c #030304",
"u@	c #666667",
"v@	c #29292A",
"w@	c #0E0E0E",
"x@	c #1A1A1B",
"y@	c #313132",
"z@	c #101011",
"A@	c #262627",
"B@	c #2A2A2B",
"C@	c #2B2B2C",
"D@	c #4B3F38",
"E@	c #2F5075",
"F@	c #141413",
"                                                                                                                                ",
". . . . . . + . + . + . + + + @ . . . . . . + . + . + . + + + @ . . . . . . + . + . + . + + + @ . . . . . . + . + . + . + + + @ ",
". + + + + + + + + + + + + + + @ . + + + + + + + + + + + + + + @ . + + + + + + + + + + + + + + @ . + + + + + + + + + + + + + + @ ",
". + # + + # # # # . + + + # + @ . + # + + # # # # . + + + # + @ . + # + + # # # # . + + + # + @ . + # + + # # # # . + + + # + @ ",
". @ + + # @ @ @ @ @ @ + @ + + @ . @ + + # @ @ @ @ @ @ + @ + + @ . @ + + # @ @ @ @ @ @ + @ + + @ . @ + + # @ @ @ @ @ @ + @ + + @ ",
". + + # @ @ @ @ @ @ @ @ . + + @ . + + # @ @ @ @ @ @ @ @ . + + @ . + + # @ @ @ @ @ @ @ @ . + + @ . + + # @ @ @ @ @ @ @ @ . + + @ ",
"$ % & $ % & & $ % & & $ $ & $ $ & & % $ & & * & & & % & & % % & $ % & & % % & & % $ & % $ & & * . + # @ @ @ = - - = @ @ @ . + @ ",
"; > % * > % % ; , % % ' ' % ; ' * % > * % % ) * % * > % * ' ' % ; > % % > ' % % > ; % ' ; % % , . + # @ @ = - - - - = @ @ # + @ ",
"! ~ { ] ^ { { ! ~ { { ^ ^ { ! ^ ] { ~ ] { { / ] { ] ~ { ] ^ ^ { ! ^ { { ~ ^ { { ~ ! { ~ ^ ] { ! . + # @ @ - - ( ( - - @ @ # + @ ",
"! ~ { ] ~ { { ! ~ { { ^ ^ { ! ^ ] { ~ ] { { _ ] { ] ~ { ] ^ ^ { ! ^ { ] ~ ~ ] ] ~ ! ] ~ ^ ] ] ] . + # @ @ - - : : - - @ @ # + @ ",
"< [ } | [ } } < 1 } } < < _ | [ | } [ | } } 2 } } } 1 } } [ < } < [ } } [ < } } [ < } [ < | | / # . 3 + + 4 4 : : 4 4 + + 3 . + ",
"5 6 7 8 6 7 7 5 9 7 7 5 5 7 8 6 6 6 0 a 5 8 a 7 7 7 9 7 7 6 5 7 5 6 7 7 6 6 7 7 6 8 7 6 5 8 8 [ . + # @ @ - - : : - - @ @ # + @ ",
"9 b 6 6 a 6 6 9 b 5 5 a a 9 c d e f g h i j k 6 6 6 b 6 6 a a 6 9 a 6 5 b a 5 6 a 9 6 b a 6 6 1 # . 3 + + 4 4 : : 4 4 + + 3 . + ",
"l m n l m n n l m n n k o p q q r s t u v w x y z n m n n z z n l z n n z z n n z l n z z n c 5 # . 3 + + 4 4 : : 4 4 + + 3 . @ ",
"m k z z k z l m d z A i B C D E s F G       H I f m d z z k k l m k l l k k l l k m z k k z l 5 # . 3 + + 4 4 : : 4 4 + + 3 . + ",
"A o J A K J J A L y M N h i N O P Q R R R S Q T U K o J A o K J K o J J o K J J o A J K K A J b # . 3 + + 4 4 : : 4 4 + + 3 . @ ",
"V f L L f L L W X Y Z X U `  ...+.@.#.$.%.&.*.#.E f =.L V f f L V f L L f f L L =.V L f f V j c # . 3 + + 4 4 : : 4 4 + + 3 . + ",
"W p -.-.p -.y B ;.>.,.;.'.S ).$.T T !.~.{.+.].^./.-.p -.W (.i D _._.D :.g p -.-.p W -.p p -.=.n # . 3 + + 4 4 : : 4 4 + + 3 . + ",
"g i <.<.i :.[.}.|.1.].~.2.3.4. .5. .6.  7.8.F 9.i g q h s 0.a.b.F F I c.d.e.X <.i i g i i g <.d # . 3 + + 4 4 : : 4 4 + + 3 . + ",
"f.f.q q g.h.i.j.  k.l.m.n.{.l.o.  p.q.c.;.x r.f.q E h.s.t.|.u.v.w.x.n.    y.z.A.D f.f.f.D f.:.B.# . 3 + + 4 4 : : 4 4 + + 3 . + ",
"E C E C.D.}.u.E.F.p.+.S ~.G.H.I.J.K.L.C._.h C E E U M.N.O.Y P.Q.z.R.Z S.I w K.L.9.E E C C E h K # . 3 + + 4 4 : : 4 4 + + 3 . . ",
"U 9.T.0.U.V.W.  X.G Y.  +.T Z.e.Q.D.s 9.r r 9.r r U h.9.`.r r `.r r `.U h. +L.0..+ +U 9.U U `.e ++. 3 + + 4 4 : : 4 4 + + 3 . + ",
"@+T.#+b.$+              k.m.%+[.R.&+*+M C.C.M C.C.C.@+C.C.@+@+C.@+@+C.C.@+@+C.N =+c.Q.M @+@+B j # . 3 + + 4 4 : : 4 4 + + 3 . . ",
"h.N Q.b.-+                8.;+R.` >+Q.,+,+,+N h.N N N h.h.h.h.,+h.h.,+,+h.h.,+,+'+N.c.z.h.h.[.=.++. 3 + + 4 4 : : 4 4 + + 3 . + ",
"#+#+Q.t l.)+              !+;.d.q.=+D.Q.L.L.M.~+O.K.^.}.{+'+ + + +#+ + +#+ + + + +'+I }.Q.#+'+-.# . 3 + + 4 4 : : 4 4 + + 3 . . ",
"L.L.L.~+]+^+-+^+/+(+u._+8.!+:+<+[+e.}+=+s.F |+w.|.F .+Z Y P.P.L.L.L.L.L.L.L.L.L.L.D.;+Z.}+P.Q.(.++. 3 + + 4 4 : : 4 4 + + 3 . + ",
"}+Y Y M.N.1+r.W z a 9 j %+O 2+8.b.3+4+!+u 4.5+I S.0.Z Y M.M.M.M.M.M.M.M.M.M.M.M.M.M. +_+K.{+R./.++. 3 + + 4 4 : : 4 4 + + 3 . + ",
",.~+e.~+%+x B.c =.h '+N 6+O j.w.]+7+d.V.8+t.&+;.M.e.e.e.e.e.e.e.e.e.e.e.e.e.e.e.e.e.#+2+` O.{+g ++. 3 + + 4 4 : : 4 4 + + 3 . + ",
"[+` 7+7+^..+;+S.>+[+]+J.[+w._+9+0+x.'.a+].m.v.b+U.4+K.0.=+=+0.0.0.0.0.0.0.0.0.0.0.0.*+w ]+N.;+:.++. 3 + + 4 4 : : 4 4 + + 3 . @ ",
"s c+d+I e+F F a.N.s.S.O.f+g+j.#.'.S h+i+j+5.5+k+k+m.l+c+[+d.N.S.S.S.S.S.N.S.S.S.S.S.M.U.b+&+3+q ++. 3 + + 4 4 : : 4 4 + + 3 . + ",
"U d+d.d.d.,.%+d a 5 a m+x Z.c.|+).7.-+n+y.~.@.l+Z.U.<+v.I.o+a.t t t &+&+t t &+&+t t M.]+9+a.K.g.++. 3 + + 4 4 : : 4 4 + + 3 . @ ",
"d.,.s.s.s.1+t @+U h.e.>+c+p+4+F u. .S l.q+6.F.].r+a.^.s.w 6.|.s.^.s.^.^.s.s.^.^.s..+}+8.g+:+t _.++. 3 + + 4 4 : : 4 4 + + 3 . + ",
"c.c.c.c.>+c.` f+e+s+!+f+J.f+,.w !+5+G t+{.l+8+j+8+t.>+:+,.0+&.[+>+c.1+1+>+>+1+1+>+N.t ).!+,.a.C ++. 3 + + 4 4 : : 4 4 + + 3 . @ ",
"e+,.` e+,.` u+>+=+I f+t i.v+` F O I.#.S H.l+2.H.E.4.I e+,.w+x+x.>+e+` ` e+e+` ` :+0.t.H.w e+>+`.++. 3 + + 4 4 : : 4 4 + + 3 . @ ",
"J.f+J.J.f+J.F 1+t w y+d.&+F J.J.>.!.>.u.5++.7.z+  X.8.f+f+f+#.A+U.u+J.F f+J.w f+.+4+2.u w F b.r ++. 3 + + 4 4 : : 4 4 + + 3 . @ ",
"Z.y+Z.Z.y+Z.Z.y+U.[+[+7+7+[+Z.w+2+0+t.f+]+9+'.p.*.B+5.Z.[+F w+p.>.b.C+D+y+y+U.4+d.k+F.t.y+[+J.9.++. 3 + + 4 4 : : 4 4 + + 3 . @ ",
"w+<+2+w+<+2+2+w+<+2+w+,.` ]+]+t.q.0+>.2+2+w+u+Z._++.Q w.2+[+Z.r+&.O E+C+D+F >+7+r+X.'.[+<+2+U.C.++. 3 + + 4 4 : : 4 4 + + 3 . @ ",
"q.!+F+q.!+|+|+q.!+F+F+d+!+_+9+G+l.T b+q.F+F+t.q.q.>.*.l+]+s+[+H+    ].I+J+K+e+V.L+q+s+d+s+F+]+@+++. 3 + + 4 4 : : 4 4 + + 3 . @ ",
"b+F+>._+O _+M+N+q.O O O w.G+n.X.$+9+w+F+O O q.b+s+p+l.n.p+!+w w+    n+O+$.!+%.)+p.b+F+|+b+O !+T.++. 3 + + 4 4 : : 4 4 + + 3 . @ ",
"_+O u.9+P+|.c+w.M+Q+O |.x.4.6.R+w.O O g+v.g+q.t.t.|+!.o.!.u.]+s+  P a+H.S+q+&.R+O >.v.O _+v.F+[.++. 3 + + 4 4 : : 4 4 + + 3 . @ ",
"|.T+_+>.U+V+R  .T W+P+v 4.4.v O 9+r+9+|.|._+b+|+G+G+P+m.H.)+X+Y+Q A+Z+&.`+ @r+O g+|.r+u.P+r+_+,+++. 3 + + 4 4 : : 4 4 + + 3 . @ ",
"j.!+.@+@@@m.@.4.n+  y.'.3.r+v.|.8.c+|.w.v.O P+x.8.|.d+u.c+5+0+#@$@c+v.c+%@&@g+8.r+j.c+r+j.8.v.N ++. 3 + + 4 4 : : 4 4 + + 3 . @ ",
"o+w.I.x.*@*@q+X.    =@).r+v I.o+#.v r+u.u.c+9+x.j.o+v.r+r+]+d+-@N+P+F+F+;@>@T+'.o+#.u o+I.u c+'+. . 3 + + 4 4 : : 4 4 + + 3 . @ ",
"u ,@'@)@!@'@v l+  ~@{@u I.'.#.I.x.x.G+r+v.8.9+#.l+'.k+v.c+|+y+]@^@U+T+.@/@(@)@l+5+#.'.5+#.'.G+s ++. 3 + + 4 4 : : 4 4 + + 3 . @ ",
"{@U+_@@@]@,@G+$@8+#.k+I.0+m.0+l+j.v u v x.0+#.%.m.%.u o+u.;@:@<@^@M+x.E+c+%@W+m.'.$.m.l+$.m.v  +. . 3 + + 4 4 : : 4 4 + + 3 . @ ",
"5+[@)@%.v *@{@V+}@$.n.A+A+T !.R+x.R+x.@.n.T @.(+T T 2.R+V.P++@H+v.F+Q+|@*@!.l.n.2.!.n.R+!.n.0+#+++. 3 + + 4 4 : : 4 4 + + 3 . @ ",
"'./@ @ @1@{@I+2.0+n.T A+A+T !.R+l+R+0+u A+T @.(+T T 2.T 3.|.+@C+t.!@|@2@m.R+n.n.2.(+n.R+!.n.0+D.. . 3 + + 4 4 : : 4 4 + + 3 . @ ",
"q+)._+,@3@j.k+R+T {.{.&.&.~.&.l.&.u +.I.T {.A+p.{.p.n.{.q+l+g+t.C+4@5@$.l.l.~.~.n.q+~.y.&.{.3.Q.++. 3 + + 4 4 : : 4 4 + + 3 . @ ",
"&. @6@6@)@x.!.q+y.+.+.p.p.+.{.q+~.V.S +.%.q+T 4.+.4.y.+.4.(+^@(@7@k+8@9@&.&.+.+.y.~.$+q+{.+.2.z.. . 3 + + 4 4 : : 4 4 + + 3 . @ ",
"q+.@{@1@0@{.R 5.+.....5.5...H.G.S R+l.x+#.u x.`+ .S +...S G.`+'@m.(+a@u u q+R S '.9+k+y.H...T P.. . 3 + + 4 4 : : 4 4 + + 3 . @ ",
" .b@t+c@R 6.6.8+R 6.6.t+t+6.8+G Q G @.d@2.<@V+e@5+y...c@d@t+t+R l.@.~.a+R+'.~.G._+V.%.%@f@8+q+P.. . # + + 4 4 : : 4 4 + + 3 . @ ",
"S q+*.R G.G t+..5.t+t+S S t+.. .*.*.#.t+W.#@~.!.u '.0+ .4.l.g@&.T @.u l.7.+.'.I._+T f@I.h@0+(+L.. . 3 + + 4 4 ( ( 4 4 + + 3 . @ ",
"o.a+x+o.t+x+X.6.a+X...(+i@2.j@2.G.$+$@S+  G 3@.. .l+!@'@%@/@k@,@k@W+-@_+o+l@c@a+H.,@m@q+h@^@,@*+. . # + + n@4 4 4 4 n@+ + 3 . @ ",
"o@].L+o@F.H p@G Y+y.5.x+q@o.r@a+f@'.s@Y.t@V+l./+7.g@u@|@v@*.Q Q t+~@..5.(+s@w@  ~@@.G 6.R 5+.@P.. . # + + + n@4 4 n@+ + + 3 . @ ",
"o.Q x+].8+X.+.%.8+W.x@y@0@k@;@<@*@]@I.R z@1@4.].t+]@]@3@{@I+I+@@g+ @7@$@v v $.G 5@q+W.d@o.R U+L.. . . # + + + + + + + + 3 . . @ ",
"F.a+].F.8+S m.m.$@7@+@'@I.#@l.5.*.t+H.#@k@V+ .o.Q 0@]@A@ .3.R+B@G.5...A@C@ .q+]@{@*.W.Q 6.].n.*+. . . . # + + + + + + 3 . . . @ ",
"t.d+!+t.p+<+1+u+]+]+w+]+p+d+t.t.t.!+d+p+p+t.p+t.!+d+]+!+t.d+d+!+t.d+!+!+d+d+t.p+]+t.!+d+t.!+<+@+. . . . . # 3 # 3 3 3 . . . . @ ",
". + . . . . . . + . . . . . . @ . + . . . . . . + . . . . . . @ . + . . . . . . + . . . . . . @ . + . . . . . . + . . . . . . @ ",
"+ . . . . . . . . . . . . . . @ + . . . . . . . . . . . . . . @ + . . . . . . . . . . . . . . @ + . . . . . . . . . . . . . . @ ",
". . D@E@3 . . . . . . 3 E@. D@@ . . D@E@3 . . . . . . 3 E@. D@@ . . D@E@3 . . . . . . 3 E@. D@@ . . D@E@3 . . . . . . 3 E@. D@@ ",
"+ . @ E@E@. . + . . @ E@E@. . @ + . @ E@E@. . + . . @ E@E@. . @ + . @ E@E@. . + . . @ E@E@. . @ + . @ E@E@. . + . . @ E@E@. . @ ",
". . @ @ D@. . . . . @ @ . . D@@ . . @ @ D@. . . . . @ @ . . D@@ . . @ @ D@. . . . . @ @ . . D@@ . . @ @ D@. . . . . @ @ . . D@@ ",
". . . D@D@. . . . . . . . D@. @ . . . D@D@. . . . . . . . D@. @ . . . D@D@. . . . . . . . D@. @ . . . D@D@. . . . . . . . D@. @ ",
"F@@ F@F@F@F@@ F@@ @ @ @ @ @ @ @ F@@ F@F@F@F@@ F@@ @ @ @ @ @ @ @ F@@ F@F@F@F@@ F@@ @ @ @ @ @ @ @ F@@ F@F@F@F@@ F@@ @ @ @ @ @ @ @ "};
