/* XPM */
static char * coinbd_xpm[] = {
"64 64 603 2",
"  	c #000000",
". 	c #464D4F",
"+ 	c #383F40",
"@ 	c #382B2F",
"# 	c #62797E",
"$ 	c #F78300",
"% 	c #FFB62C",
"& 	c #FFFFFF",
"* 	c #FCFCFC",
"= 	c #FEFEFE",
"- 	c #FDFDFD",
"; 	c #F7F7F7",
"> 	c #F9F9F9",
", 	c #FAFAFA",
"' 	c #FBFBFB",
") 	c #F8F8F8",
"! 	c #FFEC24",
"~ 	c #F3F3F3",
"{ 	c #EFEFEF",
"] 	c #F4F4F4",
"^ 	c #F0F0F0",
"/ 	c #F2F2F2",
"( 	c #F1F1F1",
"_ 	c #EDEDED",
": 	c #E4E4E4",
"< 	c #E1E1E1",
"[ 	c #E9E9E9",
"} 	c #F5F9ED",
"| 	c #E7E7E7",
"1 	c #DDDDDD",
"2 	c #D1D1D1",
"3 	c #D3D3D3",
"4 	c #DCDCDC",
"5 	c #DFDFDF",
"6 	c #ECECEC",
"7 	c #BAB77A",
"8 	c #FFD02C",
"9 	c #EAEAEA",
"0 	c #D9D9D9",
"a 	c #CACACA",
"b 	c #D4D4D4",
"c 	c #D7D7D7",
"d 	c #E6E6E6",
"e 	c #E8E8E8",
"f 	c #E3E3E3",
"g 	c #DEDEDE",
"h 	c #DCDDDD",
"i 	c #D7D8D8",
"j 	c #E2E3E3",
"k 	c #EBEBEB",
"l 	c #EEEEEE",
"m 	c #E2E2E2",
"n 	c #E5E5E5",
"o 	c #CCCCCC",
"p 	c #C8C8C8",
"q 	c #D6D6D6",
"r 	c #AEAEAE",
"s 	c #9C9C9D",
"t 	c #ABADAE",
"u 	c #BEC4C5",
"v 	c #BDC4C4",
"w 	c #BAC2C3",
"x 	c #BBC2C2",
"y 	c #C0C4C4",
"z 	c #D0D2D2",
"A 	c #DFE0E0",
"B 	c #E0E0E0",
"C 	c #C9C9C9",
"D 	c #A8A5A7",
"E 	c #8E8C8F",
"F 	c #B7BFC0",
"G 	c #CAD4D5",
"H 	c #CAD3D4",
"I 	c #CDD6D7",
"J 	c #CCD5D6",
"K 	c #C1CACB",
"L 	c #B8BFBF",
"M 	c #C6CACB",
"N 	c #DBDCDC",
"O 	c #DBDBDB",
"P 	c #BFBFBF",
"Q 	c #D8D8D8",
"R 	c #CBCBCB",
"S 	c #B1B1B1",
"T 	c #918F90",
"U 	c #A6A2A5",
"V 	c #B4B5B8",
"W 	c #C0C7C8",
"X 	c #C5CFD0",
"Y 	c #C9D1D2",
"Z 	c #C9D3D4",
"` 	c #C6CFD0",
" .	c #BCC5C6",
"..	c #C4CDCE",
"+.	c #C5CBCB",
"@.	c #D5D6D6",
"#.	c #DADADA",
"$.	c #D2D2D2",
"%.	c #BABABA",
"&.	c #A7A7A7",
"*.	c #777777",
"=.	c #6B6B6B",
"-.	c #A3A0A2",
";.	c #ACA7AB",
">.	c #B0B0B3",
",.	c #C2C9CA",
"'.	c #CBD5D6",
").	c #C1CACA",
"!.	c #C5CECE",
"~.	c #C4CCCD",
"{.	c #BFC2C2",
"].	c #CDCDCD",
"^.	c #C2C2C2",
"/.	c #C1C1C1",
"(.	c #F6F6F6",
"_.	c #CFCFCF",
":.	c #CECECE",
"<.	c #B4B4B4",
"[.	c #7A7A7A",
"}.	c #606060",
"|.	c #757575",
"1.	c #A2A4A5",
"2.	c #ACA8AC",
"3.	c #AEACAF",
"4.	c #BBC0C1",
"5.	c #C5CDCE",
"6.	c #C7D0D1",
"7.	c #C8D1D2",
"8.	c #A2A7A7",
"9.	c #AAAAAA",
"0.	c #B8B8B8",
"a.	c #B6B6B6",
"b.	c #969696",
"c.	c #A3A3A3",
"d.	c #BBBBBB",
"e.	c #B9B9B9",
"f.	c #8A8A8A",
"g.	c #5C5C5C",
"h.	c #4C4C4C",
"i.	c #2E2F2F",
"j.	c #979D9D",
"k.	c #BCC4C5",
"l.	c #B1B5B7",
"m.	c #9B9CA2",
"n.	c #ABA9AC",
"o.	c #BBC0C2",
"p.	c #C9D2D3",
"q.	c #C2CACB",
"r.	c #BABEC0",
"s.	c #A7A7A9",
"t.	c #ABAAAB",
"u.	c #C5C5C5",
"v.	c #F5F5F5",
"w.	c #9D9D9D",
"x.	c #999999",
"y.	c #979797",
"z.	c #A5A5A5",
"A.	c #BEBEBE",
"B.	c #9B9B9B",
"C.	c #676767",
"D.	c #5D5D5D",
"E.	c #505050",
"F.	c #444444",
"G.	c #A3A9AA",
"H.	c #C2CBCC",
"I.	c #C2CCCE",
"J.	c #8E9CA3",
"K.	c #898F96",
"L.	c #A5A3A7",
"M.	c #B6B9BB",
"N.	c #BBBEC0",
"O.	c #B1B1B4",
"P.	c #A8A5A8",
"Q.	c #AEACAE",
"R.	c #C0C0C0",
"S.	c #BCBCBC",
"T.	c #A1A1A1",
"U.	c #7D7D7D",
"V.	c #6D6E6E",
"W.	c #5D5E5E",
"X.	c #4E4E4E",
"Y.	c #4B4B4B",
"Z.	c #9BA2A2",
"`.	c #C5CECF",
" +	c #B9C6C9",
".+	c #9FADB2",
"++	c #ADB0B3",
"@+	c #A9A8AB",
"#+	c #A1A2A5",
"$+	c #94959A",
"%+	c #9E9D9F",
"&+	c #B8B7B8",
"*+	c #C4C4C4",
"=+	c #C3C3C3",
"-+	c #D0D0D0",
";+	c #BDBDBD",
">+	c #D6D7D7",
",+	c #C3C7C8",
"'+	c #A2A5A5",
")+	c #989898",
"!+	c #999A9A",
"~+	c #A8ACAD",
"{+	c #B2B8B9",
"]+	c #B0B7B7",
"^+	c #AEB5B6",
"/+	c #ABB3B3",
"(+	c #A0A7A8",
"_+	c #888E8E",
":+	c #878B8B",
"<+	c #BFC7C7",
"[+	c #C3CBCD",
"}+	c #B9C0C1",
"|+	c #B6BDBF",
"1+	c #A8B1B3",
"2+	c #A4A4A4",
"3+	c #C5C5C4",
"4+	c #B3B6B6",
"5+	c #C9D2D2",
"6+	c #BFC7C8",
"7+	c #989999",
"8+	c #A6ABAB",
"9+	c #BEC7C8",
"0+	c #CED8D9",
"a+	c #D1DBDC",
"b+	c #CFD9DA",
"c+	c #B5BCBD",
"d+	c #ACB1B2",
"e+	c #536265",
"f+	c #B5B5B5",
"g+	c #AFAFAF",
"h+	c #9C9C9C",
"i+	c #ACACAC",
"j+	c #A0A2A2",
"k+	c #C0C8C8",
"l+	c #C3CCCC",
"m+	c #A7AAAA",
"n+	c #909090",
"o+	c #8F9292",
"p+	c #AFB6B6",
"q+	c #D0DADB",
"r+	c #D0D9DA",
"s+	c #C2CBCB",
"t+	c #B9C1C2",
"u+	c #CCD6D7",
"v+	c #CDD7D8",
"w+	c #C3CBCC",
"x+	c #AEB4B5",
"y+	c #B4B6B7",
"z+	c #B2B2B2",
"A+	c #B3B3B3",
"B+	c #C6C6C6",
"C+	c #A9A9A9",
"D+	c #8F8F8F",
"E+	c #9A9A9A",
"F+	c #ABAFAF",
"G+	c #B5BCBC",
"H+	c #898989",
"I+	c #919595",
"J+	c #B6BEBE",
"K+	c #C7D1D2",
"L+	c #BDC6C6",
"M+	c #ABB1B1",
"N+	c #A1A4A5",
"O+	c #B7BEBF",
"P+	c #C0C8C9",
"Q+	c #C1C9CA",
"R+	c #C4CCCC",
"S+	c #B5B9B9",
"T+	c #B0B0B0",
"U+	c #999998",
"V+	c #9E9F9F",
"W+	c #888888",
"X+	c #898A8A",
"Y+	c #A0A3A3",
"Z+	c #A9AEAE",
"`+	c #ADB3B3",
" @	c #AEB3B4",
".@	c #ADB3B4",
"+@	c #BEC6C7",
"@@	c #B4BABC",
"#@	c #B1B7B7",
"$@	c #C3CCCD",
"%@	c #C3CACB",
"&@	c #ACAFAF",
"*@	c #ABABAB",
"=@	c #A8A8A8",
"-@	c #959595",
";@	c #BDC5C6",
">@	c #9CA0A0",
",@	c #909191",
"'@	c #919191",
")@	c #929292",
"!@	c #9B9C9C",
"~@	c #A8AEAE",
"{@	c #C5CFCF",
"]@	c #B8BEBE",
"^@	c #AAADAD",
"/@	c #A6A5A6",
"(@	c #A6A6A6",
"_@	c #A0A0A0",
":@	c #9F9F9F",
"<@	c #8B8B8B",
"[@	c #A7ABAC",
"}@	c #C8D1D1",
"|@	c #B3BABA",
"1@	c #8D8D8D",
"2@	c #828282",
"3@	c #929191",
"4@	c #9A9C9C",
"5@	c #BBC4C5",
"6@	c #CBD4D5",
"7@	c #C4CDCD",
"8@	c #C8D2D2",
"9@	c #A2A4A4",
"0@	c #A2A2A2",
"a@	c #9E9E9E",
"b@	c #949494",
"c@	c #9A9B9B",
"d@	c #ABB0B0",
"e@	c #8E8E8E",
"f@	c #8C8C8C",
"g@	c #737373",
"h@	c #878787",
"i@	c #969797",
"j@	c #C8D2D3",
"k@	c #B6BCBD",
"l@	c #939393",
"m@	c #9FA1A1",
"n@	c #BBC2C3",
"o@	c #B0B6B6",
"p@	c #959696",
"q@	c #8B8B8A",
"r@	c #7B7B7B",
"s@	c #686868",
"t@	c #808080",
"u@	c #929494",
"v@	c #CED8D8",
"w@	c #B4BABA",
"x@	c #9D9F9F",
"y@	c #979898",
"z@	c #7F7F7F",
"A@	c #747474",
"B@	c #969999",
"C@	c #868686",
"D@	c #707070",
"E@	c #6A6A6A",
"F@	c #6E6E6E",
"G@	c #888B8B",
"H@	c #CBD6D6",
"I@	c #BAC1C2",
"J@	c #838383",
"K@	c #939595",
"L@	c #8E8F90",
"M@	c #767676",
"N@	c #787878",
"O@	c #6C6C6C",
"P@	c #626262",
"Q@	c #818282",
"R@	c #BBC3C3",
"S@	c #C9D3D3",
"T@	c #B7BEBE",
"U@	c #9B9D9D",
"V@	c #9EA0A0",
"W@	c #B2B8B8",
"X@	c #ADADAD",
"Y@	c #858585",
"Z@	c #868A8A",
"`@	c #A7ACAC",
" #	c #969898",
".#	c #8F9090",
"+#	c #939494",
"@#	c #A4A7A7",
"##	c #A6A9A9",
"$#	c #A7ABAB",
"%#	c #989797",
"&#	c #818181",
"*#	c #848484",
"=#	c #7E7E7E",
"-#	c #6E7070",
";#	c #919494",
">#	c #8D8E8E",
",#	c #8C8D8E",
"'#	c #989A9B",
")#	c #A1A3A4",
"!#	c #BDC4C5",
"~#	c #B8BEC0",
"{#	c #9FA5A5",
"]#	c #C6CECF",
"^#	c #B2B9BA",
"/#	c #A9B0B0",
"(#	c #A2A7A8",
"_#	c #A4A6A6",
":#	c #C0C6C6",
"<#	c #D4D7D8",
"[#	c #DDDEDD",
"}#	c #7C7C7C",
"|#	c #797979",
"1#	c #8D9191",
"2#	c #CCD5D5",
"3#	c #AAAFB0",
"4#	c #929393",
"5#	c #727272",
"6#	c #888C8C",
"7#	c #C7D0D0",
"8#	c #AFB4B5",
"9#	c #989B9B",
"0#	c #8B8E8E",
"a#	c #787979",
"b#	c #6F6F6F",
"c#	c #6D6D6D",
"d#	c #838787",
"e#	c #BAC3C3",
"f#	c #B5BBBB",
"g#	c #B0B5B6",
"h#	c #A8ACAC",
"i#	c #949999",
"j#	c #717171",
"k#	c #696969",
"l#	c #818484",
"m#	c #B8C0C0",
"n#	c #A4A8A8",
"o#	c #B9C1C1",
"p#	c #6A6969",
"q#	c #666666",
"r#	c #636363",
"s#	c #646464",
"t#	c #656565",
"u#	c #676868",
"v#	c #C7D1D1",
"w#	c #A6AAAA",
"x#	c #8C9191",
"y#	c #626161",
"z#	c #5F5F5F",
"A#	c #616161",
"B#	c #676969",
"C#	c #A7AEAE",
"D#	c #9A9C9D",
"E#	c #7A7C7D",
"F#	c #5E5E5E",
"G#	c #585858",
"H#	c #7D7F7F",
"I#	c #ABB2B3",
"J#	c #7B7E7E",
"K#	c #5B5B5B",
"L#	c #5A5A5A",
"M#	c #565656",
"N#	c #575757",
"O#	c #595959",
"P#	c #555555",
"Q#	c #727676",
"R#	c #999D9D",
"S#	c #ACB0B1",
"T#	c #9FA2A2",
"U#	c #9A9D9D",
"V#	c #C7D0D2",
"W#	c #9CA2A3",
"X#	c #535353",
"Y#	c #545454",
"Z#	c #9BA0A0",
"`#	c #525252",
" $	c #878989",
".$	c #BCC3C4",
"+$	c #9FA5A6",
"@$	c #494949",
"#$	c #4A4A4A",
"$$	c #484848",
"%$	c #4D4D4D",
"&$	c #464646",
"*$	c #979899",
"=$	c #B5BDBE",
"-$	c #727575",
";$	c #4F4F4F",
">$	c #8F9293",
",$	c #474747",
"'$	c #959494",
")$	c #A9ADAE",
"!$	c #C1C9C9",
"~$	c #A1A8A8",
"{$	c #5D5F5F",
"]$	c #434343",
"^$	c #454545",
"/$	c #6F7373",
"($	c #484747",
"_$	c #424242",
":$	c #404040",
"<$	c #393939",
"[$	c #3B3B3B",
"}$	c #3E3E3E",
"|$	c #3C3C3C",
"1$	c #3A3A3A",
"2$	c #666766",
"3$	c #3B3C3B",
"4$	c #393838",
"5$	c #3F3F3F",
"6$	c #3D3D3D",
"7$	c #383838",
"8$	c #333333",
"9$	c #323232",
"0$	c #343434",
"a$	c #373737",
"b$	c #363636",
"c$	c #303030",
"d$	c #313131",
"e$	c #353535",
"f$	c #2F2F2F",
"g$	c #515151",
"h$	c #282828",
"i$	c #2A2A2A",
"j$	c #2E2E2E",
"k$	c #2D2D2D",
"l$	c #292929",
"m$	c #414141",
"n$	c #2B2B2B",
"o$	c #202020",
"p$	c #1F1F1F",
"q$	c #222222",
"r$	c #262626",
"s$	c #1E1E1E",
"t$	c #2C2C2C",
"u$	c #555656",
"v$	c #272727",
"w$	c #212121",
"x$	c #8F8E8F",
"y$	c #323333",
"z$	c #252525",
"A$	c #999B9B",
"B$	c #AFB6B7",
"C$	c #424344",
"D$	c #A9ADAD",
"E$	c #BEC5C6",
"F$	c #9C9D9D",
"G$	c #878C8C",
"H$	c #4F5253",
"I$	c #FF992C",
"J$	c #242424",
"K$	c #191919",
"L$	c #1C1C1C",
"M$	c #131313",
"N$	c #676B6B",
"O$	c #202121",
"P$	c #1A1A1A",
"Q$	c #232323",
"R$	c #1B1B1B",
"S$	c #A3A6A6",
"T$	c #BAC2C2",
"U$	c #B6BDBD",
"V$	c #959B9C",
"W$	c #404242",
"X$	c #111111",
"Y$	c #101010",
"Z$	c #141414",
"`$	c #0A0A0A",
" %	c #5C5B5B",
".%	c #BCC4C4",
"+%	c #CFD8D9",
"@%	c #C4CECE",
"#%	c #7F8586",
"$%	c #2A2B2B",
"%%	c #A1A4A4",
"&%	c #CED7D8",
"*%	c #B4BCBD",
"=%	c #606464",
"-%	c #121111",
";%	c #121212",
">%	c #9EA2A2",
",%	c #BDC6C7",
"'%	c #B4BBBC",
")%	c #B5BEBE",
"!%	c #B9C2C2",
"~%	c #BBC3C4",
"{%	c #717576",
"]%	c #292A2B",
"^%	c #181818",
"/%	c #3F3E3E",
"(%	c #AFB5B5",
"_%	c #CBD5D5",
":%	c #B2BBBB",
"<%	c #656A6A",
"[%	c #1A1818",
"}%	c #1D1D1D",
"|%	c #424343",
"1%	c #4A4D4E",
"2%	c #4A4E4E",
"3%	c #4C4F50",
"4%	c #4B4E4E",
"5%	c #464949",
"6%	c #474A4A",
"7%	c #4D5050",
"8%	c #4A4D4D",
"9%	c #323434",
"0%	c #696C6D",
"a%	c #757A7A",
"b%	c #757A7B",
"c%	c #74797A",
"d%	c #737778",
"e%	c #717676",
"f%	c #737879",
"g%	c #393C3C",
"h%	c #686969",
"i%	c #6A6B6B",
"j%	c #4B3F38",
"k%	c #796F47",
"l%	c #141413",
"                                                                                                                                ",
". . . . . . + . + . + . + + + @ . . . . . . + . + . + . + + + @ . . . . . . + . + . + . + + + @ . . . . . . + . + . + . + + + @ ",
". + + + + + + + + + + + + + + @ . + + + + + + + + + + + + + + @ . + + + + + + + + + + + + + + @ . + + + + + + + + + + + + + + @ ",
". + # + + # # # # . + + + # + @ . + # + + # # # # . + + + # + @ . + # + + # # # # . + + + # + @ . + # + + # # # # . + + + # + @ ",
". @ + + # @ @ @ @ @ @ + @ + + @ . @ + + # @ @ @ @ @ @ + @ + + @ . @ + + # @ @ @ @ @ @ + @ + + @ . @ + + # @ @ @ @ @ @ + @ + + @ ",
". + + # @ @ @ @ @ @ @ @ . + + @ . + + # @ @ @ @ @ @ @ @ . + + @ . + + # @ @ @ @ @ @ @ @ . + + @ . + + # @ @ @ @ @ @ @ @ . + + @ ",
". + # @ @ @ $ % % $ @ @ @ . + @ & & * & & = - & = - & & = = & & - = & & - & & * & & = * & & = - & & = = & - = & & - = & & * & & ",
". + # @ @ $ % % % % $ @ @ # + @ = * ; - - * > - , > - - > > * - > ' - - > * - ) * - * ) - - ' > - - , , - , , - - > ' - - ) * - ",
". + # @ @ % % ! ! % % @ @ # + @ ; ~ { ] ] ~ ^ ] / { ( _ : < [ ^ { / ] ] ^ ~ ] { ~ ] ~ { ] ] / ^ ] ] ( ( ] ( / ] ] { / ] ] { ~ ] ",
". + # @ @ % % } } % % @ @ # + @ ; ~ { ] ] ~ ^ ] ^ | 1 2 3 4 5 6 ^ / ] ] ^ ~ / _ / ~ ~ { ] ] / ^ ] ] ( ( ] ( / ] ] ^ / ] ] { ~ ] ",
"# . 7 + + 8 8 } } 8 8 + + 7 . + ( _ [ _ _ 6 9 [ 0 a b 5 c b 1 d e 6 [ f 1 g h i h j d | _ _ 6 9 _ _ k k l 9 k _ _ [ 6 _ _ [ _ _ ",
". + # @ @ % % } } % % @ @ # + @ 6 d m d d n 4 o p f 9 q q 1 5 n f n 3 r s t u v w x y z A n n f d d : f d f : d d f n d d m d d ",
"# . 7 + + 8 8 } } 8 8 + + 7 . + 9 : B : : g p C 6 { f 9 f B : : B < 2 D E F G H I J K L M N m B : : m < : < m : : B m : : B f : ",
"# . 7 + + 8 8 } } 8 8 + + 7 . @ n 1 0 1 O a P k ; ^ ( < Q O 1 1 c R S T U V W X Y Z `  ...+.@.#.1 1 O O 1 #.O 1 1 0 4 1 1 0 4 1 ",
"# . 7 + + 8 8 } } 8 8 + + 7 . + : #.c #.$.%.1 * ; ] B 0 Q 0 O #.R &.*.=.-.;.>.,.'.'.H ).!.~.{.].#.O 0 Q O Q 0 O #.Q 0 #.#.c #.#.",
"# . 7 + + 8 8 } } 8 8 + + 7 . @ 5 b 2 $.^./.(.> (.1 %.p _.3 b :.<.[.}.|.1.>.2.3.4.5.6.).7...8.9.2 b $.$.b $.$.b b 2 3 b b 2 b b ",
"# . 7 + + 8 8 } } 8 8 + + 7 . + O :.R C 0.0 * ; l a.b.c.d.o a e.f.g.h.i.j.k.l.m.n.o.p.G q.r.s.t.a :.].o :.o ].:.:.R ].:.:.R :.:.",
"# . 7 + + 8 8 } } 8 8 + + 7 . + Q R p u.%.e * v.5 w.x.y.z.A.d.B.C.D.E.F.G.H.I.J.K.L.M.N.O.P.Q.R.R a C C R C C a a p a a a p a a ",
"# . 7 + + 8 8 } } 8 8 + + 7 . + 3 u.^./.S.g > l o b.x.x.y.c.T.U.V.W.X.Y.Z.`.Z  +.+++@+#+$+%+&+^.*+*+=+^.*+^.=+*+*+^.=+*+*+^.*+*+",
"# . 7 + + 8 8 } } 8 8 + + 7 . + -+R.;+P %.*+n >+,+'+)+)+!+~+{+]+^+/+(+_+:+<+p.H '.[+}+|+1+2+A.;+P R.A.A.R.A.A.R.P ;+P P P ;+P P ",
"# . 7 + + 8 8 } } 8 8 + + 7 . . o d.0.%.<.9.3+4+5+6+~+)+7+8+9+0+a+a+b+..c+L ` p.` '...H.d+S e.0.%.%.e.0.%.0.e.%.%.0.e.e.e.0.e.e.",
"e+. 7 + + 8 8 } } 8 8 + + 7 . + C a.<.f+g+h+i+j+k+b+l+m+n+o+p+..` Z 0+q+r+s+t+u+..v+w+ .x+y+z+A+f+f+<.<.f+<.<.f+f+A+<.f+f+A+f+f+",
"# . 7 + + 8 8 } } 8 8 + + 7 . . B+z+g+S C+D+E+E+F+6.b+G+H+I+J+K+G Z 6.l+L+M+N+O+P+J Q+X H R+S+r S S T+T+S T+T+S S g+T+S S g+S S ",
"e+. 7 + + 8 8 } } 8 8 + + 7 . + ^.i+C+9.w.H+)+U+V+}+a+O+W+X+Y+Z+`+ @.@k.l++@@@`+#@$@w Z b+0+%@&@*@*@9.9.*@9.9.*@*@9.*@*@*@C+*@*@",
"# . 7 + + 8 8 } } 8 8 + + 7 . . P =@z.2+-@f.x.x.j+k.q+;@>@,@'@)@'@b.!@~@K 6.$@9+w+{@k.7.6.~.]@^@/@(@(@(@(@(@(@(@(@z.(@(@(@z.(@(@",
"e+. 7 + + 8 8 } } 8 8 + + 7 . + S.c._@:@)@<@x.)+[@K+v+}@|@7+n+1@H+2@3@4@5@6@u+u+{@`.p.7@8@q.9@0@T.T.T.T.T.T.T.T.T._@T.T.T._@T.T.",
"e+. 7 + + 8 8 } } 8 8 + + 7 . + e.a@h+B.b@W+x.c@#@b+G %@d@e@f@W+f.g@h@i@P+0+b+v+{@`.J j@k@d@E+h+h+h+h+h+h+h+h+h+h+h+h+h+h+h+)+)@",
"e+. 7 + + 8 8 } } 8 8 + + 7 . + a.x.y.y.l@f.b.m@n@q+j@o@p@q@f.W+r@s@t@u@`.b+v@`.u+J l+j@w@~+x@y@y.y.y.y.y.y.y.y.y.y.y.w.)+f@z@A@",
"e+. 7 + + 8 8 } } 8 8 + + 7 . @ A+-@)@)@)@e@f@y@.@7.w B@h@H+C@D@[.E@F@G@`.K+`.H@v@p.H.` w+H 6.I@Y+)@l@)@)@)@)@)@)@l@h+2+h+J@h@H+",
"e+. 7 + + 8 8 } } 8 8 + + 7 . + T+D+1@1@1@f@<@<@,@K@L@f.f.f@f.M@N@O@P@Q@R@H '.S@T@U@V@W@6.v+0+v+t+K@)@D+f@1@1@1@D+B.i+/.z.2+<.R.",
"e+. 7 + + 8 8 } } 8 8 + + 7 . @ X@f.W+h@h@W+W+h@W+h@h@h@W+W+h@Y@Y@z@F@r@Z@`+`@ #.#<@H++#@###L 0+`.$#%#)+)@f.H+)@a@;+O e.^.a@&#i+",
"e+. 7 + + 8 8 } } 8 8 + + 7 . + *@h@Y@*#*#*#*#*#*#*#*#*#*#*#*#*#Y@*#2@=#-#;#u@>#<@1@,#'#E+x.)#!#u+~#a@_@_@B._@%.1 k ].c f+f@W+f+",
"e+. 7 + + 8 8 } } 8 8 + + 7 . @ &.t@z@U.U.=#z@U.=#=#U.U.=#=#U.U.z@=#U.r@{#]#Q+^#/#(#F $@Y+x.x._#:#<#[#g g f ^ > l 1 [ /.<@z@=#2@",
"e+. 7 + + 8 8 } } 8 8 + + 7 . @ z.U.}#|#|#[.r@|#[.r@|#|#[.[.|#|#r@[.N@1#q.2#~.G u+..H l+3#4#)@p@a.d ~ ; ) (.] ( / l ;+h@[.r@[.|#",
"e+. 7 + + 8 8 } } 8 8 + + 7 . @ 0@M@|.g@5#g@A@5#A@A@5#5#A@g@5#5#A@5#6#J+7@$@7.'.v+H 7#8#9#0#a#t@&.1 > , ) > ) ~ #.0@[.g@g@A@g@g@",
"e+. 7 + + 8 8 } } 8 8 + + 7 . @ _@5#D@F@F@b#D@F@b#D@F@F@b#b#F@c#b#d#e#v+v+f#@#g#6+q.h#x.V+M+i#a#|#B.:.| n 4 B+a@[.j#b#F@F@D@F@F@",
"e+. 7 + + 8 8 } } 8 8 + + 7 . @ w.b#c#E@E@=.c#E@O@O@E@E@O@O@E@k#l#m#v+b+Q+m@y.y.l@!+x.x.x.n#o#I+p#=.b#5#F@b#F@=.E@c#=.E@E@c#=.E@",
"e+. 7 + + 8 8 } } 8 8 + + 7 . @ E+s@q#r#r#s#t#r#s#t#r#r#s#s#P@u#^+I b+v#w#y@b.l@N@f.y.x.x.h+'+x#y#r#t#t#r#t#s#r#r#q#s#r#r#t#r#P@",
"e+. 7 + + 8 8 } } 8 8 + + 7 . @ x.s#r#z#z#}.A#z#A#P@z#z#A#}.z#B#C#G '.8#c@b.)@U.P@k#H+)+x.!@D#E#P@z#A#A#z#A#A#z#z#P@}.z#z#P@}.z#",
"e+. 7 + + 8 8 } } 8 8 + + 7 . @ y.A#}.g.g.D.F#g.F#z#g.g.F#D.g.G#H#c+k@x@)+n+M@A#g.D.s@H+!@8#+@I#J#K#F#F#g.F#F#g.g.z#D.g.g.z#g.g.",
"e+. 7 + + 8 8 } } 8 8 + + 7 . @ -@g.L#M#M#N#O#M#G#O#M#M#G#N#P#Q#R#S#T#x.n+5#O#L#M#M#N#=.U#H.G V#W#X#G#O#M#G#G#M#M#O#N#M#M#L#M#M#",
"e+. 7 + + 8 8 } } 8 8 + + 7 . @ b@O#G#X#X#Y#M#X#P#M#X#X#Y#X#P@Z#Q+`  @.#b#P#`#N#X#`#X#}. $d@#@.$+$E.P#P#`#P#P#`#`#M#Y#`#`#N#X#`#",
". . 7 + + 8 8 } } 8 8 + + 7 . @ n+E.X.@$@$#$h.$$Y.%$$$&$E.k#2@*$I@u+=$-$;$@$$$%$$$$$#$O#[.-@-@V@>$E.Y.h.$$h.Y.$$$$h.#$$$$$%$@$$$",
"e+. 7 + + 8 8 } } 8 8 + + 7 . @ n+;$%$$$$$@$Y.,$#$Y.,$O#M@f@-@'$)$!$~${$Y.$$$$h.$$,$@$z#J@l@b@b.1@q#@$Y.,$Y.#$,$,$Y.@$,$,$h.$$,$",
". . 7 + + 8 8 } } 8 8 + + 7 . @ e@Y.@$]$]$F.,$]$&$^$M#=#'@-@-@b.j+>@/$@$($F.]$$$]$_$&$P@e@b.b@b@-@A@F.&$_$&$^$_$_$,$F._$_$$$]$_$",
"e+. 7 + + 8 8 } } 8 8 + + 7 . @ f@]$:$<$<$[$}$<$|$1$s#e@b@b.l@b.b.2$3$4$5$1$<$5$1$<$5$C.l@b.-@-@y.M@1$}$<$6$|$<$<$}$1$<$<$5$1$1$",
". . 7 + + 8 8 } } 8 8 + + 7 . @ f@]$:$<$<$[$}$<$|$5$F@-@b.b@b@x.Y@E.7$<$5$1$<$5$<$<$}$r#'@l@-@-@b.M@1$}$<$6$|$<$<$}$1$<$<$5$1$1$",
"e+. 7 + + 8 8 } } 8 8 + + 7 . @ f.6$1$8$9$0$a$9$0$$$r@b.b@b.x.f@r#1$9$9$7$8$8$<$8$9$0$%$z@-@-@-@y.|.9$7$9$a$b$9$9$7$0$9$9$<$8$9$",
". . 7 + + 8 8 } } 8 8 + + 7 . @ H+[$a$c$c$d$e$f$d$;$&#y.y.)+-@}#X.9$f$c$b$d$c$a$c$c$d$[$D.D+b@y.y.U.g$]$f$0$8$f$f$e$9$f$c$b$c$f$",
". . 7 + + 8 8 } } 8 8 + + 7 . @ W+e$d$h$h$i$j$h$h$g.1@y.b.)+y.n+J@P#k$h$f$l$h$c$l$h$l$c$m$N@y.y.)+l@<@*#r#7$n$h$h$f$i$h$h$c$l$h$",
". . # + + 8 8 } } 8 8 + + 7 . @ C@f$l$o$p$q$r$s$t$F@y.b@l@x.)#x@)+h@u$h$v$w$o$l$o$p$w$i$F.U.)+-@l@x.)+y.x$k#y$s$p$v$q$p$o$h$w$p$",
". . 7 + + 8 8 ! ! 8 8 + + 7 . @ h@8$j$z$z$v$i$q$^$t@y.x@W@Q+` s+d+A$B$_+C$r$r$k$r$z$r$c$P#e@-@7+D$L E$g#F$A$G$H$q$t$h$z$z$k$r$z$",
". . # + + I$8 8 8 8 I$+ + 7 . @ Y@n$J$K$K$L$o$M$`#f@##W '.0+b+0+7.}+6.H.N$O$P$Q$P$K$R$j$r#)+S$E$S@u+0+G T$U$H.V$W$p$L$K$K$Q$R$K$",
". . # + + + I$8 8 I$+ + + 7 . @ Y@v$s$X$Y$Z$K$`$ %V@.%0+b++%0+6.@%H `.H #%$%X$L$X$Y$M$e$5#%%).&%b+b+b+G H.$@G *%=%-%Z$Y$X$L$;%Y$",
". . . # + + + + + + + + 7 . . @ Y@n$Q$K$K$R$p$p$g.>%w ,%+@k.'%)%!%~%w =${%]%K$q$K$^%R$/%Q@(%_%u+u+S@s+@%Z 6@`.:%<%[%R$^%^%q$P$^%",
". . . . # + + + + + + 7 . . . @ C@t$Q$R$R$}%o$R$n$|%1%2%3%4%5%6%7%4%8%6%9%s$R$q$R$P$L$n$X.0%a%b%c%d%e%f%c%b%f%<%g%p$}%P$R$q$L$R$",
". . . . . # 7 # 7 7 7 . . . . @ h+E@C.t#t#q#C.t#q#C.t#t#q#q#t#t#C.q#t#t#C.q#t#C.t#t#q#C.C.h%E@i%k#k#i%=.k#i%E@s@q#C.q#t#t#C.t#t#",
". + . . . . . . + . . . . . . @ . + . . . . . . + . . . . . . @ . + . . . . . . + . . . . . . @ . + . . . . . . + . . . . . . @ ",
"+ . . . . . . . . . . . . . . @ + . . . . . . . . . . . . . . @ + . . . . . . . . . . . . . . @ + . . . . . . . . . . . . . . @ ",
". . j%k%7 . . . . . . 7 k%. j%@ . . j%k%7 . . . . . . 7 k%. j%@ . . j%k%7 . . . . . . 7 k%. j%@ . . j%k%7 . . . . . . 7 k%. j%@ ",
"+ . @ k%k%. . + . . @ k%k%. . @ + . @ k%k%. . + . . @ k%k%. . @ + . @ k%k%. . + . . @ k%k%. . @ + . @ k%k%. . + . . @ k%k%. . @ ",
". . @ @ j%. . . . . @ @ . . j%@ . . @ @ j%. . . . . @ @ . . j%@ . . @ @ j%. . . . . @ @ . . j%@ . . @ @ j%. . . . . @ @ . . j%@ ",
". . . j%j%. . . . . . . . j%. @ . . . j%j%. . . . . . . . j%. @ . . . j%j%. . . . . . . . j%. @ . . . j%j%. . . . . . . . j%. @ ",
"l%@ l%l%l%l%@ l%@ @ @ @ @ @ @ @ l%@ l%l%l%l%@ l%@ @ @ @ @ @ @ @ l%@ l%l%l%l%@ l%@ @ @ @ @ @ @ @ l%@ l%l%l%l%@ l%@ @ @ @ @ @ @ @ "};
