/* XPM */
static char * coinhg_xpm[] = {
"64 64 655 2",
"  	c #000000",
". 	c #464D4F",
"+ 	c #383F40",
"@ 	c #382B2F",
"# 	c #62797E",
"$ 	c #535E61",
"% 	c #6A7A7C",
"& 	c #7E9193",
"* 	c #829496",
"= 	c #819496",
"- 	c #7B8E90",
"; 	c #738789",
"> 	c #6D8285",
", 	c #64797E",
"' 	c #5E757A",
") 	c #5F757A",
"! 	c #5B6F74",
"~ 	c #515F62",
"{ 	c #485052",
"] 	c #475052",
"^ 	c #4D5A5C",
"/ 	c #586A6D",
"( 	c #5D7477",
"_ 	c #5E7378",
": 	c #5B6E73",
"< 	c #596B6F",
"[ 	c #56666A",
"} 	c #536164",
"| 	c #536063",
"1 	c #535F62",
"2 	c #535F61",
"3 	c #505C5F",
"4 	c #4B5456",
"5 	c #5A686A",
"6 	c #718183",
"7 	c #728284",
"8 	c #6C7C7E",
"9 	c #667779",
"0 	c #627376",
"a 	c #5B6C70",
"b 	c #58696D",
"c 	c #586A6E",
"d 	c #57696D",
"e 	c #546569",
"f 	c #4D595C",
"g 	c #474F51",
"h 	c #474E50",
"i 	c #4B5557",
"j 	c #526164",
"k 	c #57686C",
"l 	c #556568",
"m 	c #526265",
"n 	c #505F62",
"o 	c #4E5B5E",
"p 	c #4E5A5C",
"q 	c #4D595B",
"r 	c #495254",
"s 	c #0095F6",
"t 	c #00C5F4",
"u 	c #FFFFFF",
"v 	c #FCFCFC",
"w 	c #FEFEFE",
"x 	c #FDFDFD",
"y 	c #F7F7F7",
"z 	c #F9F9F9",
"A 	c #FAFAFA",
"B 	c #FBFBFB",
"C 	c #F8F8F8",
"D 	c #C6F6FF",
"E 	c #F3F3F3",
"F 	c #EFEFEF",
"G 	c #F4F4F4",
"H 	c #F0F0F0",
"I 	c #F2F2F2",
"J 	c #F1F1F1",
"K 	c #EDEDED",
"L 	c #E4E4E4",
"M 	c #E1E1E1",
"N 	c #E9E9E9",
"O 	c #F5F9ED",
"P 	c #E7E7E7",
"Q 	c #DDDDDD",
"R 	c #D1D1D1",
"S 	c #D3D3D3",
"T 	c #DCDCDC",
"U 	c #DFDFDF",
"V 	c #ECECEC",
"W 	c #5594B7",
"X 	c #09E4FC",
"Y 	c #EAEAEA",
"Z 	c #D9D9D9",
"` 	c #CACACA",
" .	c #D4D4D4",
"..	c #D7D7D7",
"+.	c #E6E6E6",
"@.	c #E8E8E8",
"#.	c #E3E3E3",
"$.	c #DEDEDE",
"%.	c #DCDDDD",
"&.	c #D7D8D8",
"*.	c #E2E3E3",
"=.	c #EBEBEB",
"-.	c #EEEEEE",
";.	c #E2E2E2",
">.	c #E5E5E5",
",.	c #CCCCCC",
"'.	c #C8C8C8",
").	c #D6D6D6",
"!.	c #AEAEAE",
"~.	c #9C9C9D",
"{.	c #ABADAE",
"].	c #BEC4C5",
"^.	c #BDC4C4",
"/.	c #BAC2C3",
"(.	c #BBC2C2",
"_.	c #C0C4C4",
":.	c #D0D2D2",
"<.	c #DFE0E0",
"[.	c #E0E0E0",
"}.	c #C9C9C9",
"|.	c #A8A5A7",
"1.	c #8E8C8F",
"2.	c #B7BFC0",
"3.	c #CAD4D5",
"4.	c #CAD3D4",
"5.	c #CDD6D7",
"6.	c #CCD5D6",
"7.	c #C1CACB",
"8.	c #B8BFBF",
"9.	c #C6CACB",
"0.	c #DBDCDC",
"a.	c #DBDBDB",
"b.	c #BFBFBF",
"c.	c #D8D8D8",
"d.	c #CBCBCB",
"e.	c #B1B1B1",
"f.	c #918F90",
"g.	c #A6A2A5",
"h.	c #B4B5B8",
"i.	c #C0C7C8",
"j.	c #C5CFD0",
"k.	c #C9D1D2",
"l.	c #C9D3D4",
"m.	c #C6CFD0",
"n.	c #BCC5C6",
"o.	c #C4CDCE",
"p.	c #C5CBCB",
"q.	c #D5D6D6",
"r.	c #DADADA",
"s.	c #D2D2D2",
"t.	c #BABABA",
"u.	c #A7A7A7",
"v.	c #777777",
"w.	c #6B6B6B",
"x.	c #A3A0A2",
"y.	c #ACA7AB",
"z.	c #B0B0B3",
"A.	c #C2C9CA",
"B.	c #CBD5D6",
"C.	c #C1CACA",
"D.	c #C5CECE",
"E.	c #C4CCCD",
"F.	c #BFC2C2",
"G.	c #CDCDCD",
"H.	c #C2C2C2",
"I.	c #C1C1C1",
"J.	c #F6F6F6",
"K.	c #CFCFCF",
"L.	c #CECECE",
"M.	c #B4B4B4",
"N.	c #7A7A7A",
"O.	c #606060",
"P.	c #757575",
"Q.	c #A2A4A5",
"R.	c #ACA8AC",
"S.	c #AEACAF",
"T.	c #BBC0C1",
"U.	c #C5CDCE",
"V.	c #C7D0D1",
"W.	c #C8D1D2",
"X.	c #A2A7A7",
"Y.	c #AAAAAA",
"Z.	c #B8B8B8",
"`.	c #B6B6B6",
" +	c #969696",
".+	c #A3A3A3",
"++	c #BBBBBB",
"@+	c #B9B9B9",
"#+	c #8A8A8A",
"$+	c #5C5C5C",
"%+	c #4C4C4C",
"&+	c #2E2F2F",
"*+	c #979D9D",
"=+	c #BCC4C5",
"-+	c #B1B5B7",
";+	c #9B9CA2",
">+	c #ABA9AC",
",+	c #BBC0C2",
"'+	c #C9D2D3",
")+	c #C2CACB",
"!+	c #BABEC0",
"~+	c #A7A7A9",
"{+	c #ABAAAB",
"]+	c #C5C5C5",
"^+	c #F5F5F5",
"/+	c #9D9D9D",
"(+	c #999999",
"_+	c #979797",
":+	c #A5A5A5",
"<+	c #BEBEBE",
"[+	c #9B9B9B",
"}+	c #676767",
"|+	c #5D5D5D",
"1+	c #505050",
"2+	c #444444",
"3+	c #A3A9AA",
"4+	c #C2CBCC",
"5+	c #C2CCCE",
"6+	c #8E9CA3",
"7+	c #898F96",
"8+	c #A5A3A7",
"9+	c #B6B9BB",
"0+	c #BBBEC0",
"a+	c #B1B1B4",
"b+	c #A8A5A8",
"c+	c #AEACAE",
"d+	c #C0C0C0",
"e+	c #BCBCBC",
"f+	c #A1A1A1",
"g+	c #7D7D7D",
"h+	c #6D6E6E",
"i+	c #5D5E5E",
"j+	c #4E4E4E",
"k+	c #4B4B4B",
"l+	c #9BA2A2",
"m+	c #C5CECF",
"n+	c #B9C6C9",
"o+	c #9FADB2",
"p+	c #ADB0B3",
"q+	c #A9A8AB",
"r+	c #A1A2A5",
"s+	c #94959A",
"t+	c #9E9D9F",
"u+	c #B8B7B8",
"v+	c #C4C4C4",
"w+	c #C3C3C3",
"x+	c #D0D0D0",
"y+	c #BDBDBD",
"z+	c #D6D7D7",
"A+	c #C3C7C8",
"B+	c #A2A5A5",
"C+	c #989898",
"D+	c #999A9A",
"E+	c #A8ACAD",
"F+	c #B2B8B9",
"G+	c #B0B7B7",
"H+	c #AEB5B6",
"I+	c #ABB3B3",
"J+	c #A0A7A8",
"K+	c #888E8E",
"L+	c #878B8B",
"M+	c #BFC7C7",
"N+	c #C3CBCD",
"O+	c #B9C0C1",
"P+	c #B6BDBF",
"Q+	c #A8B1B3",
"R+	c #A4A4A4",
"S+	c #C5C5C4",
"T+	c #B3B6B6",
"U+	c #C9D2D2",
"V+	c #BFC7C8",
"W+	c #989999",
"X+	c #A6ABAB",
"Y+	c #BEC7C8",
"Z+	c #CED8D9",
"`+	c #D1DBDC",
" @	c #CFD9DA",
".@	c #B5BCBD",
"+@	c #ACB1B2",
"@@	c #536265",
"#@	c #B5B5B5",
"$@	c #AFAFAF",
"%@	c #9C9C9C",
"&@	c #ACACAC",
"*@	c #A0A2A2",
"=@	c #C0C8C8",
"-@	c #C3CCCC",
";@	c #A7AAAA",
">@	c #909090",
",@	c #8F9292",
"'@	c #AFB6B6",
")@	c #D0DADB",
"!@	c #D0D9DA",
"~@	c #C2CBCB",
"{@	c #B9C1C2",
"]@	c #CCD6D7",
"^@	c #CDD7D8",
"/@	c #C3CBCC",
"(@	c #AEB4B5",
"_@	c #B4B6B7",
":@	c #B2B2B2",
"<@	c #B3B3B3",
"[@	c #C6C6C6",
"}@	c #A9A9A9",
"|@	c #8F8F8F",
"1@	c #9A9A9A",
"2@	c #ABAFAF",
"3@	c #B5BCBC",
"4@	c #898989",
"5@	c #919595",
"6@	c #B6BEBE",
"7@	c #C7D1D2",
"8@	c #BDC6C6",
"9@	c #ABB1B1",
"0@	c #A1A4A5",
"a@	c #B7BEBF",
"b@	c #C0C8C9",
"c@	c #C1C9CA",
"d@	c #C4CCCC",
"e@	c #B5B9B9",
"f@	c #B0B0B0",
"g@	c #999998",
"h@	c #9E9F9F",
"i@	c #888888",
"j@	c #898A8A",
"k@	c #A0A3A3",
"l@	c #A9AEAE",
"m@	c #ADB3B3",
"n@	c #AEB3B4",
"o@	c #ADB3B4",
"p@	c #BEC6C7",
"q@	c #B4BABC",
"r@	c #B1B7B7",
"s@	c #C3CCCD",
"t@	c #C3CACB",
"u@	c #ACAFAF",
"v@	c #ABABAB",
"w@	c #A8A8A8",
"x@	c #959595",
"y@	c #BDC5C6",
"z@	c #9CA0A0",
"A@	c #909191",
"B@	c #919191",
"C@	c #929292",
"D@	c #9B9C9C",
"E@	c #A8AEAE",
"F@	c #C5CFCF",
"G@	c #B8BEBE",
"H@	c #AAADAD",
"I@	c #A6A5A6",
"J@	c #A6A6A6",
"K@	c #A0A0A0",
"L@	c #9F9F9F",
"M@	c #8B8B8B",
"N@	c #A7ABAC",
"O@	c #C8D1D1",
"P@	c #B3BABA",
"Q@	c #8D8D8D",
"R@	c #828282",
"S@	c #929191",
"T@	c #9A9C9C",
"U@	c #BBC4C5",
"V@	c #CBD4D5",
"W@	c #C4CDCD",
"X@	c #C8D2D2",
"Y@	c #A2A4A4",
"Z@	c #A2A2A2",
"`@	c #9E9E9E",
" #	c #949494",
".#	c #9A9B9B",
"+#	c #ABB0B0",
"@#	c #8E8E8E",
"##	c #8C8C8C",
"$#	c #737373",
"%#	c #878787",
"&#	c #969797",
"*#	c #C8D2D3",
"=#	c #B6BCBD",
"-#	c #939393",
";#	c #9FA1A1",
">#	c #BBC2C3",
",#	c #B0B6B6",
"'#	c #959696",
")#	c #8B8B8A",
"!#	c #7B7B7B",
"~#	c #686868",
"{#	c #808080",
"]#	c #929494",
"^#	c #CED8D8",
"/#	c #B4BABA",
"(#	c #9D9F9F",
"_#	c #979898",
":#	c #7F7F7F",
"<#	c #747474",
"[#	c #969999",
"}#	c #868686",
"|#	c #707070",
"1#	c #6A6A6A",
"2#	c #6E6E6E",
"3#	c #888B8B",
"4#	c #CBD6D6",
"5#	c #BAC1C2",
"6#	c #838383",
"7#	c #939595",
"8#	c #8E8F90",
"9#	c #767676",
"0#	c #787878",
"a#	c #6C6C6C",
"b#	c #626262",
"c#	c #818282",
"d#	c #BBC3C3",
"e#	c #C9D3D3",
"f#	c #B7BEBE",
"g#	c #9B9D9D",
"h#	c #9EA0A0",
"i#	c #B2B8B8",
"j#	c #ADADAD",
"k#	c #858585",
"l#	c #868A8A",
"m#	c #A7ACAC",
"n#	c #969898",
"o#	c #8F9090",
"p#	c #939494",
"q#	c #A4A7A7",
"r#	c #A6A9A9",
"s#	c #A7ABAB",
"t#	c #989797",
"u#	c #818181",
"v#	c #848484",
"w#	c #7E7E7E",
"x#	c #6E7070",
"y#	c #919494",
"z#	c #8D8E8E",
"A#	c #8C8D8E",
"B#	c #989A9B",
"C#	c #A1A3A4",
"D#	c #BDC4C5",
"E#	c #B8BEC0",
"F#	c #9FA5A5",
"G#	c #C6CECF",
"H#	c #B2B9BA",
"I#	c #A9B0B0",
"J#	c #A2A7A8",
"K#	c #A4A6A6",
"L#	c #C0C6C6",
"M#	c #D4D7D8",
"N#	c #DDDEDD",
"O#	c #7C7C7C",
"P#	c #797979",
"Q#	c #8D9191",
"R#	c #CCD5D5",
"S#	c #AAAFB0",
"T#	c #929393",
"U#	c #727272",
"V#	c #888C8C",
"W#	c #C7D0D0",
"X#	c #AFB4B5",
"Y#	c #989B9B",
"Z#	c #8B8E8E",
"`#	c #787979",
" $	c #6F6F6F",
".$	c #6D6D6D",
"+$	c #838787",
"@$	c #BAC3C3",
"#$	c #B5BBBB",
"$$	c #B0B5B6",
"%$	c #A8ACAC",
"&$	c #949999",
"*$	c #717171",
"=$	c #696969",
"-$	c #818484",
";$	c #B8C0C0",
">$	c #A4A8A8",
",$	c #B9C1C1",
"'$	c #6A6969",
")$	c #666666",
"!$	c #636363",
"~$	c #646464",
"{$	c #656565",
"]$	c #676868",
"^$	c #C7D1D1",
"/$	c #A6AAAA",
"($	c #8C9191",
"_$	c #626161",
":$	c #5F5F5F",
"<$	c #616161",
"[$	c #676969",
"}$	c #A7AEAE",
"|$	c #9A9C9D",
"1$	c #7A7C7D",
"2$	c #5E5E5E",
"3$	c #585858",
"4$	c #7D7F7F",
"5$	c #ABB2B3",
"6$	c #7B7E7E",
"7$	c #5B5B5B",
"8$	c #5A5A5A",
"9$	c #565656",
"0$	c #575757",
"a$	c #595959",
"b$	c #555555",
"c$	c #727676",
"d$	c #999D9D",
"e$	c #ACB0B1",
"f$	c #9FA2A2",
"g$	c #9A9D9D",
"h$	c #C7D0D2",
"i$	c #9CA2A3",
"j$	c #535353",
"k$	c #545454",
"l$	c #9BA0A0",
"m$	c #525252",
"n$	c #878989",
"o$	c #BCC3C4",
"p$	c #9FA5A6",
"q$	c #494949",
"r$	c #4A4A4A",
"s$	c #484848",
"t$	c #4D4D4D",
"u$	c #464646",
"v$	c #979899",
"w$	c #B5BDBE",
"x$	c #727575",
"y$	c #4F4F4F",
"z$	c #8F9293",
"A$	c #474747",
"B$	c #959494",
"C$	c #A9ADAE",
"D$	c #C1C9C9",
"E$	c #A1A8A8",
"F$	c #5D5F5F",
"G$	c #434343",
"H$	c #454545",
"I$	c #6F7373",
"J$	c #484747",
"K$	c #424242",
"L$	c #404040",
"M$	c #393939",
"N$	c #3B3B3B",
"O$	c #3E3E3E",
"P$	c #3C3C3C",
"Q$	c #3A3A3A",
"R$	c #666766",
"S$	c #3B3C3B",
"T$	c #393838",
"U$	c #3F3F3F",
"V$	c #3D3D3D",
"W$	c #383838",
"X$	c #333333",
"Y$	c #323232",
"Z$	c #343434",
"`$	c #373737",
" %	c #363636",
".%	c #303030",
"+%	c #313131",
"@%	c #353535",
"#%	c #2F2F2F",
"$%	c #515151",
"%%	c #282828",
"&%	c #2A2A2A",
"*%	c #2E2E2E",
"=%	c #2D2D2D",
"-%	c #292929",
";%	c #414141",
">%	c #2B2B2B",
",%	c #202020",
"'%	c #1F1F1F",
")%	c #222222",
"!%	c #262626",
"~%	c #1E1E1E",
"{%	c #2C2C2C",
"]%	c #555656",
"^%	c #272727",
"/%	c #212121",
"(%	c #8F8E8F",
"_%	c #323333",
":%	c #252525",
"<%	c #999B9B",
"[%	c #AFB6B7",
"}%	c #424344",
"|%	c #A9ADAD",
"1%	c #BEC5C6",
"2%	c #9C9D9D",
"3%	c #878C8C",
"4%	c #4F5253",
"5%	c #009DEB",
"6%	c #242424",
"7%	c #191919",
"8%	c #1C1C1C",
"9%	c #131313",
"0%	c #676B6B",
"a%	c #202121",
"b%	c #1A1A1A",
"c%	c #232323",
"d%	c #1B1B1B",
"e%	c #A3A6A6",
"f%	c #BAC2C2",
"g%	c #B6BDBD",
"h%	c #959B9C",
"i%	c #404242",
"j%	c #111111",
"k%	c #101010",
"l%	c #141414",
"m%	c #0A0A0A",
"n%	c #5C5B5B",
"o%	c #BCC4C4",
"p%	c #CFD8D9",
"q%	c #C4CECE",
"r%	c #7F8586",
"s%	c #2A2B2B",
"t%	c #A1A4A4",
"u%	c #CED7D8",
"v%	c #B4BCBD",
"w%	c #606464",
"x%	c #121111",
"y%	c #121212",
"z%	c #9EA2A2",
"A%	c #BDC6C7",
"B%	c #B4BBBC",
"C%	c #B5BEBE",
"D%	c #B9C2C2",
"E%	c #BBC3C4",
"F%	c #717576",
"G%	c #292A2B",
"H%	c #181818",
"I%	c #3F3E3E",
"J%	c #AFB5B5",
"K%	c #CBD5D5",
"L%	c #B2BBBB",
"M%	c #656A6A",
"N%	c #1A1818",
"O%	c #1D1D1D",
"P%	c #424343",
"Q%	c #4A4D4E",
"R%	c #4A4E4E",
"S%	c #4C4F50",
"T%	c #4B4E4E",
"U%	c #464949",
"V%	c #474A4A",
"W%	c #4D5050",
"X%	c #4A4D4D",
"Y%	c #323434",
"Z%	c #696C6D",
"`%	c #757A7A",
" &	c #757A7B",
".&	c #74797A",
"+&	c #737778",
"@&	c #717676",
"#&	c #737879",
"$&	c #393C3C",
"%&	c #686969",
"&&	c #6A6B6B",
"*&	c #4B3F38",
"=&	c #2F5075",
"-&	c #141413",
"                                                                                                                                ",
". . . . . . + . + . + . + + + @ . . . . . . + . + . + . + + + @ . . . . . . + . + . + . + + + @ . . . . . . + . + . + . + + + @ ",
". + + + + + + + + + + + + + + @ . + + + + + + + + + + + + + + @ . + + + + + + + + + + + + + + @ . + + + + + + + + + + + + + + @ ",
". + # + + # # # # . + + + # + @ $ % & * = - ; > , ' ' ' ) ! ~ { ] ^ / ( ' _ : < [ } | 1 2 3 4 @ . + # + + # # # # . + + + # + @ ",
". @ + + # @ @ @ @ @ @ + @ + + @ 5 % 6 7 6 8 9 0 a b c c d e f g h i j k c k l m n o p p p q r @ . @ + + # @ @ @ @ @ @ + @ + + @ ",
". + + # @ @ @ @ @ @ @ @ . + + @ . + + # @ @ @ @ @ @ @ @ . + + @ . + + # @ @ @ @ @ @ @ @ . + + @ . + + # @ @ @ @ @ @ @ @ . + + @ ",
". + # @ @ @ s t t s @ @ @ . + @ u u v u u w x u w x u u w w u u x w u u x u u v u u w v u u w x u u w w u x w u u x w u u v u u ",
". + # @ @ s t t t t s @ @ # + @ w v y x x v z x A z x x z z v x z B x x z v x C v x v C x x B z x x A A x A A x x z B x x C v x ",
". + # @ @ t t D D t t @ @ # + @ y E F G G E H G I F J K L M N H F I G G H E G F E G E F G G I H G G J J G J I G G F I G G F E G ",
". + # @ @ t t O O t t @ @ # + @ y E F G G E H G H P Q R S T U V H I G G H E I K I E E F G G I H G G J J G J I G G H I G G F E G ",
"# . W + + X X O O X X + + W . + J K N K K V Y N Z `  .U .. .Q +.@.V N #.Q $.%.&.%.*.+.P K K V Y K K =.=.-.Y =.K K N V K K N K K ",
". + # @ @ t t O O t t @ @ # + @ V +.;.+.+.>.T ,.'.#.Y ).).Q U >.#.>.S !.~.{.].^./.(._.:.<.>.>.#.+.+.L #.+.#.L +.+.#.>.+.+.;.+.+.",
"# . W + + X X O O X X + + W . + Y L [.L L $.'.}.V F #.Y #.[.L L [.M R |.1.2.3.4.5.6.7.8.9.0.;.[.L L ;.M L M ;.L L [.;.L L [.#.L ",
"# . W + + X X O O X X + + W . @ >.Q Z Q a.` b.=.y H J M c.a.Q Q ..d.e.f.g.h.i.j.k.l.m.n.o.p.q.r.Q Q a.a.Q r.a.Q Q Z T Q Q Z T Q ",
"# . W + + X X O O X X + + W . + L r...r.s.t.Q v y G [.Z c.Z a.r.d.u.v.w.x.y.z.A.B.B.4.C.D.E.F.G.r.a.Z c.a.c.Z a.r.c.Z r.r...r.r.",
"# . W + + X X O O X X + + W . @ U  .R s.H.I.J.z J.Q t.'.K.S  .L.M.N.O.P.Q.z.R.S.T.U.V.C.W.o.X.Y.R  .s.s. .s.s. . .R S  . .R  . .",
"# . W + + X X O O X X + + W . + a.L.d.}.Z.Z v y -.`. +.+++,.` @+#+$+%+&+*+=+-+;+>+,+'+3.)+!+~+{+` L.G.,.L.,.G.L.L.d.G.L.L.d.L.L.",
"# . W + + X X O O X X + + W . + c.d.'.]+t.@.v ^+U /+(+_+:+<+++[+}+|+1+2+3+4+5+6+7+8+9+0+a+b+c+d+d.` }.}.d.}.}.` ` '.` ` ` '.` ` ",
"# . W + + X X O O X X + + W . + S ]+H.I.e+$.z -.,. +(+(+_+.+f+g+h+i+j+k+l+m+l.n+o+p+q+r+s+t+u+H.v+v+w+H.v+H.w+v+v+H.w+v+v+H.v+v+",
"# . W + + X X O O X X + + W . + x+d+y+b.t.v+>.z+A+B+C+C+D+E+F+G+H+I+J+K+L+M+'+4.B.N+O+P+Q+R+<+y+b.d+<+<+d+<+<+d+b.y+b.b.b.y+b.b.",
"# . W + + X X O O X X + + W . . ,.++Z.t.M.Y.S+T+U+V+E+C+W+X+Y+Z+`+`+ @o..@8.m.'+m.B.o.4++@e.@+Z.t.t.@+Z.t.Z.@+t.t.Z.@+@+@+Z.@+@+",
"@@. W + + X X O O X X + + W . + }.`.M.#@$@%@&@*@=@ @-@;@>@,@'@o.m.l.Z+)@!@~@{@]@o.^@/@n.(@_@:@<@#@#@M.M.#@M.M.#@#@<@M.#@#@<@#@#@",
"# . W + + X X O O X X + + W . . [@:@$@e.}@|@1@1@2@V. @3@4@5@6@7@3.l.V.-@8@9@0@a@b@6.c@j.4.d@e@!.e.e.f@f@e.f@f@e.e.$@f@e.e.$@e.e.",
"@@. W + + X X O O X X + + W . + H.&@}@Y./+4@C+g@h@O+`+a@i@j@k@l@m@n@o@=+-@p@q@m@r@s@/.l. @Z+t@u@v@v@Y.Y.v@Y.Y.v@v@Y.v@v@v@}@v@v@",
"# . W + + X X O O X X + + W . . b.w@:+R+x@#+(+(+*@=+)@y@z@A@B@C@B@ +D@E@7.V.s@Y+/@F@=+W.V.E.G@H@I@J@J@J@J@J@J@J@J@:+J@J@J@:+J@J@",
"@@. W + + X X O O X X + + W . + e+.+K@L@C@M@(+C+N@7@^@O@P@W+>@Q@4@R@S@T@U@V@]@]@F@m+'+W@X@)+Y@Z@f+f+f+f+f+f+f+f+f+K@f+f+f+K@f+f+",
"@@. W + + X X O O X X + + W . + @+`@%@[+ #i@(+.#r@ @3.t@+#@###i@#+$#%#&#b@Z+ @^@F@m+6.*#=#+#1@%@%@%@%@%@%@%@%@%@%@%@%@%@%@%@C+C@",
"@@. W + + X X O O X X + + W . + `.(+_+_+-##+ +;#>#)@*#,#'#)##+i@!#~#{#]#m+ @^#m+]@6.-@*#/#E+(#_#_+_+_+_+_+_+_+_+_+_+_+/+C+##:#<#",
"@@. W + + X X O O X X + + W . @ <@x@C@C@C@@###_#o@W./.[#%#4@}#|#N.1#2#3#m+7@m+4#^#'+4+m./@4.V.5#k@C@-#C@C@C@C@C@C@-#%@R+%@6#%#4@",
"@@. W + + X X O O X X + + W . + f@|@Q@Q@Q@##M@M@A@7#8##+#+###+9#0#a#b#c#d#4.B.e#f#g#h#i#V.^@Z+^@{@7#C@|@##Q@Q@Q@|@[+&@I.:+R+M.d+",
"@@. W + + X X O O X X + + W . @ j##+i@%#%#i@i@%#i@%#%#%#i@i@%#k#k#:#2#!#l#m@m#n#o#M@4@p#q#r#8.Z+m+s#t#C+C@#+4@C@`@y+a.@+H.`@u#&@",
"@@. W + + X X O O X X + + W . + v@%#k#v#v#v#v#v#v#v#v#v#v#v#v#v#k#v#R@w#x#y#]#z#M@Q@A#B#1@(+C#D#]@E#`@K@K@[+K@t.Q =.G...#@##i@#@",
"@@. W + + X X O O X X + + W . @ u.{#:#g+g+w#:#g+w#w#g+g+w#w#g+g+:#w#g+!#F#G#c@H#I#J#2.s@k@(+(+K#L#M#N#$.$.#.H z -.Q N I.M@:#w#R@",
"@@. W + + X X O O X X + + W . @ :+g+O#P#P#N.!#P#N.!#P#P#N.N.P#P#!#N.0#Q#)+R#E.3.]@o.4.-@S#T#C@'#`.+.E y C J.G J I -.y+%#N.!#N.P#",
"@@. W + + X X O O X X + + W . @ Z@9#P.$#U#$#<#U#<#<#U#U#<#$#U#U#<#U#V#6@W@s@W.B.^@4.W#X#Y#Z#`#{#u.Q z A C z C E r.Z@N.$#$#<#$#$#",
"@@. W + + X X O O X X + + W . @ K@U#|#2#2# $|#2# $|#2#2# $ $2#.$ $+$@$^@^@#$q#$$V+)+%$(+h@9@&$`#P#[+L.P >.T [@`@N.*$ $2#2#|#2#2#",
"@@. W + + X X O O X X + + W . @ /+ $.$1#1#w..$1#a#a#1#1#a#a#1#=$-$;$^@ @c@;#_+_+-#D+(+(+(+>$,$5@'$w. $U#2# $2#w.1#.$w.1#1#.$w.1#",
"@@. W + + X X O O X X + + W . @ 1@~#)$!$!$~${$!$~${$!$!$~$~$b#]$H+5. @^$/$_# +-#0##+_+(+(+%@B+($_$!${${$!${$~$!$!$)$~$!$!${$!$b#",
"@@. W + + X X O O X X + + W . @ (+~$!$:$:$O.<$:$<$b#:$:$<$O.:$[$}$3.B.X#.# +C@g+b#=$4@C+(+D@|$1$b#:$<$<$:$<$<$:$:$b#O.:$:$b#O.:$",
"@@. W + + X X O O X X + + W . @ _+<$O.$+$+|+2$$+2$:$$+$+2$|+$+3$4$.@=#(#C+>@9#<$$+|+~#4@D@X#p@5$6$7$2$2$$+2$2$$+$+:$|+$+$+:$$+$+",
"@@. W + + X X O O X X + + W . @ x@$+8$9$9$0$a$9$3$a$9$9$3$0$b$c$d$e$f$(+>@U#a$8$9$9$0$w.g$4+3.h$i$j$3$a$9$3$3$9$9$a$0$9$9$8$9$9$",
"@@. W + + X X O O X X + + W . @  #a$3$j$j$k$9$j$b$9$j$j$k$j$b#l$c@m.n@o# $b$m$0$j$m$j$O.n$+#r@o$p$1+b$b$m$b$b$m$m$9$k$m$m$0$j$m$",
". . W + + X X O O X X + + W . @ >@1+j+q$q$r$%+s$k+t$s$u$1+=$R@v$5#]@w$x$y$q$s$t$s$s$r$a$N.x@x@h#z$1+k+%+s$%+k+s$s$%+r$s$s$t$q$s$",
"@@. W + + X X O O X X + + W . @ >@y$t$s$s$q$k+A$r$k+A$a$9###x@B$C$D$E$F$k+s$s$%+s$A$q$:$6#-# # +Q@)$q$k+A$k+r$A$A$k+q$A$A$%+s$A$",
". . W + + X X O O X X + + W . @ @#k+q$G$G$2+A$G$u$H$9$w#B@x@x@ +*@z@I$q$J$2+G$s$G$K$u$b#@# + # #x@<#2+u$K$u$H$K$K$A$2+K$K$s$G$K$",
"@@. W + + X X O O X X + + W . @ ##G$L$M$M$N$O$M$P$Q$~$@# # +-# + +R$S$T$U$Q$M$U$Q$M$U$}+-# +x@x@_+9#Q$O$M$V$P$M$M$O$Q$M$M$U$Q$Q$",
". . W + + X X O O X X + + W . @ ##G$L$M$M$N$O$M$P$U$2#x@ + # #(+k#1+W$M$U$Q$M$U$M$M$O$!$B@-#x@x@ +9#Q$O$M$V$P$M$M$O$Q$M$M$U$Q$Q$",
"@@. W + + X X O O X X + + W . @ #+V$Q$X$Y$Z$`$Y$Z$s$!# + # +(+##!$Q$Y$Y$W$X$X$M$X$Y$Z$t$:#x@x@x@_+P.Y$W$Y$`$ %Y$Y$W$Z$Y$Y$M$X$Y$",
". . W + + X X O O X X + + W . @ 4@N$`$.%.%+%@%#%+%y$u#_+_+C+x@O#j+Y$#%.% %+%.%`$.%.%+%N$|+|@ #_+_+g+$%G$#%Z$X$#%#%@%Y$#%.% %.%#%",
". . W + + X X O O X X + + W . @ i@@%+%%%%%&%*%%%%%$+Q@_+ +C+_+>@6#b$=%%%#%-%%%.%-%%%-%.%;%0#_+_+C+-#M@v#!$W$>%%%%%#%&%%%%%.%-%%%",
". . # + + X X O O X X + + W . @ }##%-%,%'%)%!%~%{%2#_+ #-#(+C#(#C+%#]%%%^%/%,%-%,%'%/%&%2+g+C+x@-#(+C+_+(%=$_%~%'%^%)%'%,%%%/%'%",
". . W + + X X D D X X + + W . @ %#X$*%:%:%^%&%)%H${#_+(#i#c@m.~@+@<%[%K+}%!%!%=%!%:%!%.%b$@#x@W+|%8.1%$$2%<%3%4%)%{%%%:%:%=%!%:%",
". . # + + 5%X X X X 5%+ + W . @ k#>%6%7%7%8%,%9%m$##r#i.B.Z+ @Z+W.O+V.4+0%a%b%c%b%7%d%*%!$C+e%1%e#]@Z+3.f%g%4+h%i%'%8%7%7%c%d%7%",
". . # + + + 5%X X 5%+ + + W . @ k#^%~%j%k%l%7%m%n%h#o%Z+ @p%Z+V.q%4.m+4.r%s%j%8%j%k%9%@%U#t%C.u% @ @ @3.4+s@3.v%w%x%l%k%j%8%y%k%",
". . . # + + + + + + + + W . . @ k#>%c%7%7%d%'%'%$+z%/.A%p@=+B%C%D%E%/.w$F%G%7%)%7%H%d%I%c#J%K%]@]@e#~@q%l.V@m+L%M%N%d%H%H%)%b%H%",
". . . . # + + + + + + W . . . @ }#{%c%d%d%O%,%d%>%P%Q%R%S%T%U%V%W%T%X%V%Y%~%d%)%d%b%8%>%j+Z%`% &.&+&@&#&.& &#&M%$&'%O%b%d%)%8%d%",
". . . . . # W # W W W . . . . @ %@1#}+{${$)$}+{$)$}+{${$)$)${${$}+)${${$}+)${$}+{${$)$}+}+%&1#&&=$=$&&w.=$&&1#~#)$}+)${${$}+{${$",
". + . . . . . . + . . . . . . @ . + . . . . . . + . . . . . . @ . + . . . . . . + . . . . . . @ . + . . . . . . + . . . . . . @ ",
"+ . . . . . . . . . . . . . . @ + . . . . . . . . . . . . . . @ + . . . . . . . . . . . . . . @ + . . . . . . . . . . . . . . @ ",
". . *&=&W . . . . . . W =&. *&@ . . *&=&W . . . . . . W =&. *&@ . . *&=&W . . . . . . W =&. *&@ . . *&=&W . . . . . . W =&. *&@ ",
"+ . @ =&=&. . + . . @ =&=&. . @ + . @ =&=&. . + . . @ =&=&. . @ + . @ =&=&. . + . . @ =&=&. . @ + . @ =&=&. . + . . @ =&=&. . @ ",
". . @ @ *&. . . . . @ @ . . *&@ . . @ @ *&. . . . . @ @ . . *&@ . . @ @ *&. . . . . @ @ . . *&@ . . @ @ *&. . . . . @ @ . . *&@ ",
". . . *&*&. . . . . . . . *&. @ . . . *&*&. . . . . . . . *&. @ . . . *&*&. . . . . . . . *&. @ . . . *&*&. . . . . . . . *&. @ ",
"-&@ -&-&-&-&@ -&@ @ @ @ @ @ @ @ -&@ -&-&-&-&@ -&@ @ @ @ @ @ @ @ -&@ -&-&-&-&@ -&@ @ @ @ @ @ @ @ -&@ -&-&-&-&@ -&@ @ @ @ @ @ @ @ "};
