/* XPM */
static char * collect_xpm[] = {
"64 64 150 2",
"  	c None",
". 	c #889C9E",
"+ 	c #62797E",
"@ 	c #536265",
"# 	c #464D4F",
"$ 	c #43494B",
"% 	c #363C3D",
"& 	c #614346",
"* 	c #383F40",
"= 	c #382B2F",
"- 	c #3D4344",
"; 	c #323737",
"> 	c #47250A",
", 	c #8C5029",
"' 	c #B15540",
") 	c #584749",
"! 	c #4C4B4D",
"~ 	c #444B4D",
"{ 	c #101008",
"] 	c #7B3236",
"^ 	c #E39F61",
"/ 	c #604346",
"( 	c #4A4C4E",
"_ 	c #434A4B",
": 	c #34393A",
"< 	c #C99457",
"[ 	c #929273",
"} 	c #9A5345",
"| 	c #634245",
"1 	c #404748",
"2 	c #13130D",
"3 	c #DFDFD1",
"4 	c #B05540",
"5 	c #76363A",
"6 	c #2A2E2D",
"7 	c #472B1C",
"8 	c #E8D38D",
"9 	c #E29F61",
"0 	c #75373A",
"a 	c #241B17",
"b 	c #1E1917",
"c 	c #6C2D30",
"d 	c #482C30",
"e 	c #383E3F",
"f 	c #74373B",
"g 	c #56484A",
"h 	c #4B3F38",
"i 	c #1D201D",
"j 	c #793337",
"k 	c #55484A",
"l 	c #654144",
"m 	c #594749",
"n 	c #343A3B",
"o 	c #111109",
"p 	c #472F22",
"q 	c #323839",
"r 	c #595D40",
"s 	c #333523",
"t 	c #1C1F1D",
"u 	c #212422",
"v 	c #2C3030",
"w 	c #454C4E",
"x 	c #404648",
"y 	c #3F4647",
"z 	c #414849",
"A 	c #2F3434",
"B 	c #262B2A",
"C 	c #333524",
"D 	c #89502C",
"E 	c #373C3D",
"F 	c #1C1E1B",
"G 	c #191B18",
"H 	c #353C3D",
"I 	c #13140E",
"J 	c #313636",
"K 	c #28221F",
"L 	c #141510",
"M 	c #3E4546",
"N 	c #5F4446",
"O 	c #473B36",
"P 	c #3A4041",
"Q 	c #472B1B",
"R 	c #2A2E2E",
"S 	c #52494B",
"T 	c #644244",
"U 	c #242726",
"V 	c #764F3B",
"W 	c #74383B",
"X 	c #472813",
"Y 	c #161712",
"Z 	c #434A4C",
"` 	c #3C4244",
" .	c #473933",
"..	c #191B17",
"+.	c #1E201D",
"@.	c #363C3C",
"#.	c #474D4F",
"$.	c #4A5151",
"%.	c #909072",
"&.	c #323738",
"*.	c #3E433F",
"=.	c #4F5549",
"-.	c #303535",
";.	c #2B302F",
">.	c #1A1C18",
",.	c #1B1D19",
"'.	c #575C42",
").	c #3E4446",
"!.	c #3A3F40",
"~.	c #95978F",
"{.	c #3F4441",
"].	c #424948",
"^.	c #2F1C17",
"/.	c #363D3E",
"(.	c #3D413C",
"_.	c #505F62",
":.	c #12120C",
"<.	c #919173",
"[.	c #444A4C",
"}.	c #252827",
"|.	c #383B31",
"1.	c #404542",
"2.	c #41484A",
"3.	c #2F2527",
"4.	c #1F211F",
"5.	c #1E211F",
"6.	c #393F40",
"7.	c #1A1C19",
"8.	c #272B2A",
"9.	c #1B1D1A",
"0.	c #585C41",
"a.	c #3A3D35",
"b.	c #2F3333",
"c.	c #454B4D",
"d.	c #2B2F2F",
"e.	c #2C3130",
"f.	c #3C4243",
"g.	c #303435",
"h.	c #161813",
"i.	c #445457",
"j.	c #5D7377",
"k.	c #415153",
"l.	c #364344",
"m.	c #373A2F",
"n.	c #373A2E",
"o.	c #2E3333",
"p.	c #404543",
"q.	c #36392D",
"r.	c #1F2220",
"s.	c #141413",
". . . + + + + + + @ + + + + @ + @ + @ + @ + @ @ @ @ @ @ + @ + @ + @ + + + + + + + + + + + + + + + + + + + + + + + @ + + + + @ + ",
"+ # # # # # # # # # # # # # # # # # # # # # # # # # # # # # # # # # # # # # # # # # # # # # # # # # # # # # # # # # # # # # # # ",
"+ # # # # # # # # # # # # # # # # # # # # # # # # # # $ % % % % & # # # # # # # # # # # # # # # # # # # # # # # # # # # # # # * ",
"@ # = + * # # # # # # # # # # # # # # # # # # # # - - ; > > , , ' ) ) ! # # # # # # # # # # # # # # # # # # # # # # = + * # # # ",
"+ # = * * # # # # # # # # # # # # # # # # # # # ~ { > > ] ' ^ ^ ^ ] ] / ( # # # # # # # # # # # # # # # # # # # # # = * * # # * ",
"@ # = = # # # # # # # # # # # # # # # # # # # _ : > ] , , ' < < ^ [ ' } | # # # # # # # # # # # # # # # # # # # # # = = # # # # ",
"@ # # # # # # # # # # # # # # # # # # # # # # 1 2 ] ' ' ' ' ' < ^ 3 ^ 4 5 # # # # # # # # # # # # # # # # # # # # # # # # # # * ",
"@ # # # # # # # # # # # # # # # # # # # # # 6 7 ] ] ' ' ' ' ' < ^ ^ 3 8 9 0 # # # # # # # # # # # # # # # # # # # # # # # # # * ",
"# # # # # # # # a a = = = = = = = * = * = = b > ] ] ' ' ' ' ' ' ' ^ 8 ^ ^ ' c d = = = = = = = = = * = * = * * * # # # # # # # * ",
"@ # # # # # # # = * # # # # # # # # # # # e f ] ] ] , ' ' ' ' ' ' ^ ^ 8 8 < ] g h # # # # # # # # # # # # # # # # # # # # # # * ",
"# # # # # # # # * # # # # # # # # # # # # i j ] ] ] ] ' ' ' ' ' ' < ^ 8 3 ^ ] k # # # # # # # # # # # # # # # @ # # # # # # # * ",
"@ # # # # # # # = # # # # # # # # # # # # { ] ] ] ] ] ] ' ' ' ' < ' < 8 3 < , l m # # # * # # # # # # # # # # # # # # # # # # * ",
"@ # # # # # # # * # # # # # # # # # # # # { ] ] ] ] ] ] ] ] , < ^ < ] ] > ] ' ] 0 n # * # # # # # # # # # # # @ # # # # # # # = ",
"@ # # # # # # # * # # # # # # # # # # # # { { > ] ] ] ] ] ' ^ ' { { < , > { { ' ' o * # # # # # # # # # # # # @ # # # # # # # * ",
"@ # # # # # # # * # # # # # # # # # # # # { ] ] > > ' ' ' > ] , , < < ^ ^ { { > p q # # # # # # # # # # # # # @ # # # # # # # = ",
"@ # # # # # # # * # # # # # # # # # # # # { ] ] > > , , , r s , ' < < ^ 8 { t u v w # # # # # # # # # # # # # @ # # # # # # # = ",
"@ # # # # # # # * # # # # # # # # # # # # { > > ] ' > > > < 8 8 < r ' ^ ^ { x y z # # # # # # # # # # # # # # + # # # # # # # = ",
"@ # # # # # # # * # # # # # # # # A A A B C s { > ] { { ] ' ^ ^ < ' > , D % # # # # # # # # # # # # # # # # # + # # # # # # # * ",
"@ # # # # # # # * # # # # # # # E s r r r r s { { { s r ] , < < < < [ r F # # # # # # # # # # # # # # # # # # + # # # # # # # = ",
"@ # # # # # # # * # # # # # # # { r [ [ [ r s s { { r r { , < < < [ 3 [ G H # # # # # # # # # # # # # # # # # + # # # # # # # * ",
"@ # # # # # # # * # # # # # # # { r r r [ s s s s { s s s ] ' < < < 3 [ I J # # # # # # # # # # # # # # # # # + # # # # # # # * ",
"@ # # # # # # # * # # # # # # # { r s s s > { s r s { s r { , ' < 8 8 [ { { w # # # # # # # # # # # # # # # # + # # # # # # # * ",
"@ # # # # # # # * # # # # # # K { r s { { ^ ' ' { [ r s { { { > , < < , { s L M # # # # # # # # # # # # # # # + # # # # # # # * ",
"@ # # # # # # # * # # # # # = + $ { ] ] ^ ^ ^ < { [ r s s { { { > s > r r s { y # # # # # # # # # # # # # # # + # # # # # # # * ",
"@ # # # # # # # * # # # # * @ # N , ' < < < < ' , r r s s { ] > { ] { r [ { , O P # # # # # # # # # # # # # # + # # # # # # # * ",
"@ # # # # # # # * # # # # # # # 5 ' < ^ ] ' < ' ' s r r s { ] > { ] { r [ { ' Q R # # # # # # # # # # # # # # + # # # # # # # * ",
"@ # # # # # # # * # # # # # S T ] < ^ ^ , ' , ' ' { r r s { > > { ] { r [ { ' > U # # # # # # # # # # # # # # + # # # # # # # * ",
"@ # # # # # # # * # # # # m V ] ' ^ ^ < ' , ] ] ] { r r { s s { { ] > r s { ' ] W - # # # # # # # # # # # # # + # # # # # # # = ",
"@ # # # # # # # * # # # # ] , ' ^ ^ < ' ' { ] ] { { { { s r r s > ' ] > { { ^ ' ' { # # # # # # # # # # # # # + # # # # # # # * ",
"# # # # # # # # * # # # # X ] ] ^ ' ' ] > { > > ] { { s r [ s > ] ] ] > { { ' < < { # # # # # # # # # # # # # @ # # # # # # # = ",
"@ # # # # # # # * h # # # Y ] ] ^ ' ' ' > , ] > ] { s r r [ s > ] ] ] > { { ' < < > z w # # # # # # # # # # # + # # # # # # # * ",
"# # # # # # # # = # # # # { ] ' ' ^ ^ ^ ' ^ ' ' { { r r [ [ s { > ] ' ] { ] ' ' ' ' F Z # # # # # # # # # # # @ # # # # # # # = ",
"@ # # # # # # # * h # # # `  .] ] ' ' ' ^ < > ] < ' s s r r [ s { > > ] ] > ] ' ' ' { $ # # # # # # # # # # # @ # # # # # # # = ",
"# # # # # # # # = # # # # # 1 : > ] ' ' < ] ' ' < 8 s { s r [ [ [ { r r > { ' ' ' , { $ # # # # # # # # # # # @ # # # # # # # = ",
"@ # # # # # # # * h # h # # * # ..] ' ' ' { < < < 8 r r > r r [ [ s [ r s { ' ' ' ] +.Z # # # # # # # # # # # @ # # # # # # # = ",
"@ # # # # # # # = # h # # * # * @.] ] , ' { < < < < [ [ ' s r [ [ r [ r r s ] , ] ] E w # # # # # # # # # # # @ # # # # # # # = ",
"@ # # # # # # # = h h # * # * # # { { { ] { < < < , 8 8 < { r [ [ [ r [ [ r s { { { # # # # # # # # # # # # # @ # # # # # # # = ",
"@ # # # # # h # = h # * # # # # # { s s { { < < < < , > { { { { { r { { { [ [ s s { w # # #.$.w w # # # # # # @ # # # # # # # = ",
"@ # # # # h # h = h h # # # # # # { s s s { s > , , > > ] { s s s { { ' < { r [ [ { L Z # # %.2 : # # # # # # @ # # # # # # # = ",
"@ # # # h # h h = h # h # # # # # J u s s { > ] > > , , ' { s s r { ] , ' < ' [ r r s &.*.=.r -.- # # # # # # @ # # # # # # # = ",
"# # # h # h # # = h h # # # # # # $ ;.{ s { ] ] { { ' ' ' { s r r { , , ' 8 < , s [ r >.,.'.s $ ~ # # # # # # @ # # # # # # # = ",
"@ # # # # # # # * h # # # # # # # # ).E s { ] ] > ] < < ] s s [ [ { > ] ' ^ ' ^ ^ r [ [ [ s !.# # # # # # # # @ # # # # # # # = ",
"# # # # # # # # = # # # # # # # # # # # { { ] ] , < ^ < { r [ [ [ > ] ] > , > < < > [ [ [ r ~.{.].# # # # # # @ # # # # # # # ^.",
"# # # # # # # # * # # # # # # # # # # /.{ > ] ] ' ^ ^ < r r [ r { ] ' ] > r r > { ] { r r [ 3 s (.# # # # # # @ # # # # # # # = ",
"# # # # # # # # = # # # # # # # # # # _.{ ] ] ] ' ' ^ ^ < { [ r { > ] , ' < < ' , ] :.C C r <.C *.# # # # # # @ # # # # # # # ^.",
"# # # # # # # # * # # # # # # # # # @ [.{ ] ] ] ' ' ^ ^ ^ { [ r { > ] ' ' < < ' ' ] }.U U |.|.|.1.# # # # # # @ # # # # # # # = ",
"# # # # # # # # * # # # # # # # # # # [.{ ] ] ] ] ' ^ < ' ] { { { ] ] ' ' ] ] ' ' ] w w w w w w # # # # # # # @ # # # # # # # = ",
"@ # # # # # # # * # # # # # # # # # # Z { ] ' ' ' ] , , ' > 2.z z > ] ] ] ' ^ ' ' > # # # # # # # # # # # # # @ # # # # # # # = ",
"# # # # # # # # * # # # # # # # # # # w 3.> ] ] ] ' ] ] ] { # # # { ] ' ' ] , ] ] { # # # # # # # # # # # # # @ # # # # # # # = ",
"@ # # # # # # # * # # # # # # # # # # = + { s s { ' ] ] ] 4.w # # 5.] ' ' ] s s s { # # # # # # # # # # # # # + # # # # # # # = ",
"@ # # # # # # # * # # # # # # # # # * + # { r r { ] ] ] ] 6.* # # 6.] > ] ] [ r r s # # # # # # # # # # # # # @ # # # # # # # = ",
"@ # # # # # # # * # # # # # # # # * @ # # { r r r { { 7.8.= @ # # # 8.9.{ { [ r 0.a.# # # # # # # # # # # # # + # # # # # # # = ",
"@ # # # # # # # * # # # # # # # # # # # z s r r [ s { v * @ # # # # # b.{ s [ r |.c.# # # # # # # # # # # # # @ # # # # # # # ^.",
"@ # # # # # # # * # # # # # # # # # # Z { r [ [ [ { :.d.# # # # # # # e.{ { [ [ [ s # # # # # # # # # # # # # + # # # # # # # = ",
"@ # # # # # # # * # # # # # # # # # f.; s s r r [ { g.!.# # # # # # # e.{ r r r r s # # # # # # # # # # # # # + # # # # # # # ^.",
"@ # # # # # # # * # # # # # # # # # -.h.s { { s r { x w # # # # # # # e.{ r s s { { # # # # # # # # # # # # # + # # # # # # # ^.",
"@ # # # # # # # # @ @ @ @ + + + + + i.{ { [ [ [ { { j.@ + + + + + + + k.{ s { [ [ r l.+ + + + @ + @ + + . . . . # # # # # # # ^.",
"@ # # # # # # # # # # # # # # # # A m.s s [ [ [ r { Z # # # # # # # A n.s { s [ [ 3 r o.A A # # # # # # # # # # # # # # # # # ^.",
"# # # # # # # # # # # # # # # # # { s s r r < 8 8 s p.x # # # # # # { s s r r r [ 3 8 [ r r f.# # # # # # # # # # # # # # # # ^.",
"@ # = + * # # # # # # # # # # # # { s s r [ 8 3 3 r q.-.# # # # # # { s s r r [ [ [ 3 3 [ [ r.# # # # # # # # # # # = + * # # ^.",
"# # = * * # # # # # # # # # # # # { s s r [ 3 3 3 [ s 6 # # # # # # { s s r r [ [ [ 3 3 8 [ { # # # # # # # # # # # = * * # # ^.",
"@ # = = # # # # # # # # # # # # # { { { { { { { { { { R # # # # # # { { { { { { { { { { { { { # # # # # # # # # # # = = = # # ^.",
"# # # # # # # # # # # # # # # # # # # # # # # # # # # # # # # # # # # # # # # # # # # # # # # # # # # # # # # # # # # = = # # ^.",
"= ^.^.^.^.^.^.= ^.= ^.= = = = = = = ^.= ^.= s.= s.= s.s.s.s.= s.= = = = = = = = ^.= ^.= = ^.= ^.= ^.^.^.^.^.^.= ^.= ^.s.s.^.^.^."};
