/* XPM */
static char * ennemy_gauche_xpm[] = {
"64 64 249 2",
"  	c #889C9E",
". 	c #62797E",
"+ 	c #536265",
"@ 	c #5A6564",
"# 	c #768584",
"$ 	c #848B86",
"% 	c #707060",
"& 	c #505040",
"* 	c #A8A898",
"= 	c #667B7F",
"- 	c #464D4F",
"; 	c #777971",
"> 	c #D7D7C7",
", 	c #D8D8C8",
"' 	c #F8F8F8",
") 	c #323738",
"! 	c #4A5050",
"~ 	c #6E716B",
"{ 	c #33383A",
"] 	c #474D4E",
"^ 	c #919286",
"/ 	c #4B5151",
"( 	c #474E4F",
"_ 	c #505555",
": 	c #383F40",
"< 	c #382B2F",
"[ 	c #9C9D8E",
"} 	c #6D6E5F",
"| 	c #4A4E4A",
"1 	c #7C7E75",
"2 	c #464B4C",
"3 	c #8E9088",
"4 	c #A5A696",
"5 	c #101010",
"6 	c #4E5043",
"7 	c #4D4F46",
"8 	c #B2B3B3",
"9 	c #403000",
"0 	c #585D5B",
"a 	c #7D7F76",
"b 	c #454B4B",
"c 	c #5A5D56",
"d 	c #A7A898",
"e 	c #9FA091",
"f 	c #4C5253",
"g 	c #241B17",
"h 	c #443B39",
"i 	c #A0A091",
"j 	c #D6D6C6",
"k 	c #77746B",
"l 	c #6E6E5F",
"m 	c #9C9E94",
"n 	c #D3D3C3",
"o 	c #9D9F95",
"p 	c #494F50",
"q 	c #4C5251",
"r 	c #555955",
"s 	c #865F22",
"t 	c #5A5248",
"u 	c #565A55",
"v 	c #A6A696",
"w 	c #C8A860",
"x 	c #E8C888",
"y 	c #A38541",
"z 	c #625C4C",
"A 	c #886020",
"B 	c #8C7B56",
"C 	c #222526",
"D 	c #A88840",
"E 	c #F8E8B8",
"F 	c #383E3F",
"G 	c #876021",
"H 	c #986000",
"I 	c #7B5B32",
"J 	c #474D4F",
"K 	c #69563F",
"L 	c #C88800",
"M 	c #604000",
"N 	c #7D6B49",
"O 	c #43423B",
"P 	c #BD9F5E",
"Q 	c #595850",
"R 	c #4D4A46",
"S 	c #976003",
"T 	c #865F23",
"U 	c #404748",
"V 	c #565149",
"W 	c #605A4D",
"X 	c #867A61",
"Y 	c #3E3F3C",
"Z 	c #554636",
"` 	c #403105",
" .	c #A58641",
"..	c #594838",
"+.	c #E2C385",
"@.	c #3C382E",
"#.	c #997E44",
"$.	c #4D4F45",
"%.	c #E3C486",
"&.	c #625444",
"*.	c #42494B",
"=.	c #BDA575",
"-.	c #7B6F54",
";.	c #3A3C37",
">.	c #C5A660",
",.	c #6D624B",
"'.	c #515554",
").	c #505250",
"!.	c #4A4F4F",
"~.	c #3E3F3D",
"{.	c #5C4320",
"].	c #B1965C",
"^.	c #43413A",
"/.	c #5C421D",
"(.	c #4A4C4A",
"_.	c #454A4A",
":.	c #42484A",
"<.	c #41484A",
"[.	c #161718",
"}.	c #161717",
"|.	c #151616",
"1.	c #A78740",
"2.	c #A48541",
"3.	c #5D5B51",
"4.	c #454A49",
"5.	c #5F410D",
"6.	c #555954",
"7.	c #444B4D",
"8.	c #292D2E",
"9.	c #2A2E2F",
"0.	c #785B34",
"a.	c #655542",
"b.	c #5F410B",
"c.	c #575149",
"d.	c #947A45",
"e.	c #898B80",
"f.	c #4B3F38",
"g.	c #41361F",
"h.	c #A68740",
"i.	c #5A5E57",
"j.	c #423926",
"k.	c #67685C",
"l.	c #4C5151",
"m.	c #393F40",
"n.	c #404749",
"o.	c #886021",
"p.	c #5F4109",
"q.	c #5C421E",
"r.	c #2F3335",
"s.	c #775A35",
"t.	c #484F50",
"u.	c #454C4E",
"v.	c #7F5D2D",
"w.	c #433F34",
"x.	c #4B4E4D",
"y.	c #5E594D",
"z.	c #A48641",
"A.	c #4B4F48",
"B.	c #4B4E49",
"C.	c #413721",
"D.	c #2D3233",
"E.	c #686252",
"F.	c #505041",
"G.	c #494E4B",
"H.	c #423B2C",
"I.	c #3A4042",
"J.	c #434A4C",
"K.	c #5E5A4D",
"L.	c #4E4F44",
"M.	c #484D4D",
"N.	c #816E48",
"O.	c #E7C787",
"P.	c #484E4C",
"Q.	c #5F6259",
"R.	c #6C6C5E",
"S.	c #6F6F60",
"T.	c #4F5042",
"U.	c #6E6F5F",
"V.	c #2F1C17",
"W.	c #484E4D",
"X.	c #403109",
"Y.	c #494E4C",
"Z.	c #6F6F5F",
"`.	c #131414",
" +	c #525753",
".+	c #3F4647",
"++	c #413825",
"@+	c #4D5B5E",
"#+	c #202324",
"$+	c #414749",
"%+	c #4C4F47",
"&+	c #696A5D",
"*+	c #464C4D",
"=+	c #393F41",
"-+	c #181A1A",
";+	c #4E4F43",
">+	c #313738",
",+	c #1E2122",
"'+	c #4A4E49",
")+	c #2D3132",
"!+	c #4E5352",
"~+	c #40320B",
"{+	c #423C2F",
"]+	c #5B5247",
"^+	c #484D4F",
"/+	c #4C4F46",
"(+	c #A0A092",
"_+	c #755A37",
":+	c #745938",
"<+	c #4C4E4D",
"[+	c #4F4F4C",
"}+	c #535958",
"|+	c #68695D",
"1+	c #DABD82",
"2+	c #535652",
"3+	c #71583A",
"4+	c #897F63",
"5+	c #ABA082",
"6+	c #9D8552",
"7+	c #978458",
"8+	c #7D7E6F",
"9+	c #9C9172",
"0+	c #988767",
"a+	c #795B33",
"b+	c #977C44",
"c+	c #855F25",
"d+	c #605B4D",
"e+	c #5E5C54",
"f+	c #BEA05E",
"g+	c #B4995C",
"h+	c #5B4325",
"i+	c #433F35",
"j+	c #B3985C",
"k+	c #454846",
"l+	c #8F7D56",
"m+	c #40320C",
"n+	c #44443E",
"o+	c #44433E",
"p+	c #78694A",
"q+	c #8B7A56",
"r+	c #7F7154",
"s+	c #604003",
"t+	c #595148",
"u+	c #525552",
"v+	c #53544E",
"w+	c #51534E",
"x+	c #C6A760",
"y+	c #CEB37D",
"z+	c #141413",
"      . . . . . . + . . . . + . + . + . @ # $ % % & & % * * = + . + . . . . . . . . . . . . . . . . . . . . . . . + . . . . + . ",
". - - - - - - - - - - - - - - - - - - ; > , ' , % & * , * % ) - - - - - - - - - - - - - - - - - - - - - - - - - - - - - - - - - ",
". - - - - - - - - - - - - - - - - ! ~ > ' ' , * % * , * & % & { ] ! ^ / - ( _ - - - - - - - - - - - - - - - - - - - - - - - - : ",
"+ - < . : - - - - - - - - - - - - [ * ' ' ' , , , , % % & & * & & * , } | 1 [ 2 - - - - - - - - - - - - - - - - - - < . : - - - ",
". - < : : - - - - - - - - - - - 3 4 * * ' ' , * * % & % * 5 & % % , , , * ' , 6 7 - - - - - - - - - - - - - - - - - < : : - - : ",
"+ - < < - - - - - - - - - - - - 8 , * ' , , , ' * % & 5 % % 5 9 & % ' , * , , % , * 0 - - - - - - - - - - - - - - - < < - - - - ",
"+ - - - - - - - - - - - - - - - a , ' * * * & % % & * % 5 & & % & & * % % * * , ' % b - - - - - - - - - - - - - - - - - - - - : ",
"+ - - - - - - - - - - - - - - - c d , % & & * ' , % ' , & % % % , * & , , * & , * % e f - - - - - - - - - - - - - - - - - - - : ",
"- - - - - - - - g g < < < < < < h i * , , , , , % % * * & * , ' ' ' * % , ' * & % , j k < < < < < : < : < : : : - - - - - - - : ",
"+ - - - - - - - < : - - - - - - a , , ' , * % % % * , % & , ' ' , * % & & % , * % * l - - - - - - - - - - - - - - - - - - - - : ",
"- - - - - - - - : - - - - - - - m ' * ' , * , , * , , % & * , * % * ' ' , * * * % % n - - - - - - - - - - - - + - - - - - - - : ",
"+ - - - - - - - < - - - - - - - o * * , , , , * * ' , & % % % * * , , ' ' ' * & * ' n - : - - - - - - - - - - - - - - - - - - : ",
"+ - - - - - - - : - - - - - - - p q | & % & & & * , * * * * & % % % * , ' ' , % % * l : - - - - - - - - - - - + - - - - - - - < ",
"+ - - - - - - - : - - - - - - - - r * * , & % * * * * % , * * % % * % * * , * % & % s t - - - - - - - - - - - + - - - - - - - : ",
"+ - - - - - - - : - - - - - - - u v * % % * ' , % w * * , * * , , , % x * , , * * % x y z - - - - - - - - - - + - - - - - - - < ",
"+ - - - - - - - : - - - - - - - | & & A x * * , ' , * % * * * * * * * x x , ' , * % x x B - - - - - - - - - - + - - - - - - - < ",
"+ - - - - - - - : - - - - - - - - C D A x x * x E x * % * , , ' ' * * , * , , * * D x E D - - - - - - - - - - . - - - - - - - < ",
"+ - - - - - - - : - - - - - - - F G w D w x w x E E * H A A % * , * * * % ' ' ' , * D w D I J - - - - - - - - . - - - - - - - : ",
"+ - - - - - - - : - - - - - - - K w E w D x w w w x w 9 H L M w * * , , * , ' ' ' ' % % x w N - - - - - - - - . - - - - - - - < ",
"+ - - - - - - - : - - - - - - - O w x w D A D w w w w A M H L A x x & * * , * , ' , % % % E P Q - - - - - - - . - - - - - - - : ",
"+ - - - - - - - : - R S T U V W ) A w x w D A A D D D A 9 H H M M A % % % , ' , * * % * % x E X - - - - - - - . - - - - - - - : ",
"+ - - - - - - - Y Z ` M w * A w M 9 & & D A w A D D D w A 9 9 M M 9 * * * , * * , , , , % E E  .- - - - - - - . - - - - - - - : ",
"+ - - - - - - - ..H M A & w D D * % % % * % w D M A w D x x x D w w D & % % % % , % % % x x w +.- - - - - - - . - - - - - - - : ",
"+ - - - - - - - @.M 9 w x D 5 x D * , , % * D D #.$.w A D x x w x E w x x D * , , , % x E E E %.- - - - - - - . - - - - - - - : ",
"+ - - - - - - - M M D x w % 5 % % * , , % * w D &.*.M w w D x x w E w D w % & & & 9 w x x x =.-.- - - - - - - . - - - - - - - : ",
"+ - - - - - - - ;.9 & % & 9 M 9 % * * % * * x >.,.- { D D D w w D D & 5 5 5 9 9 H H M 7 '.).!.- - - - - - - - . - - - - - - - : ",
"+ - - - - - - - ~.{.D w D 9 M 5 & & & % * w x ].- - ^.5 5 5 * & 5 5 5 5 M H H L L L H /.(.- - - - - - - - - - . - - - - - - - : ",
"+ - - - - - - - : 2 _.:.<.[.}.|.5 & % % A 1.2.3.- 4.5.M 9 5 % & 9 M H L H H L L A M & % 6.- - - - - - - - - - . - - - - - - - < ",
"+ - - - - - - - : - - - - - - 7.8.9.9.0.0.a.- - - b.A H A % * , * % M M H H A x x D , , * - - - - - - - - - - . - - - - - - - : ",
"- - - - - - - - : - - - - - - - - - - - - - - c.d.1.D M M % * ' ' , % H D D w E E , ' ' ' e.- - - - - - - - - + - - - - - - - < ",
"+ - - - - - - - : f.- - - - - - - - - - - 7.g.h.x x w w w D % , ' * & A x E x E E * * , ' , i.- - - - - - - - . - - - - - - - : ",
"- - - - - - - - < - - - - - - - - - - - 7.j.A w x x w x x D A % , % A x E E x E E , ' ' , * k.] - - - - - - - + - - - - - - - < ",
"+ - - - - - - - : f.- - - - - - - - - - *.M w x x w x x x D A A % % w E E x E E E * , , ' , % l.- - - - - - - + - - - - - - - < ",
"- - - - - - - - < - - - - - - - - - - - m.A w x x w E x w D D w & A x E E x E E E * * , , * % l.- - - - - - - + - - - - - - - < ",
"+ - - - - - - - : f.- f.- - : - : - n.8.o.D x x w w E x w D x x & A x E E x E E E w w , ' * % l.- - - - - - - + - - - - - - - < ",
"+ - - - - - - - < - f.- - : - : - :.p.D D w x x w x E w D x x D 9 A w E x x E E E x x w ' , % ] - - - - - - - + - - - - - - - < ",
"+ - - - - - - - < f.f.- : - : - - q.D x w w x w w x x w w x D M r.s.D x w x E E E E E x ' * & ] - - - - - - - + - - - - - - - < ",
"+ - - - - - f.- < f.- : - - t.t.u.v.w x x w x E w D w D w D A w.u.x.y.z.x x x x x E E E x * A.- - - - - - - - + - - - - - - - < ",
"+ - - - - f.- f.< f.f.- - B.% * % & w x w x E E w A A A A C.D.- - - - E.x E x w w E E x D F.G.- - - - - - - - + - - - - - - - < ",
"+ - - - f.- f.f.< f.- f.- % * ' * % A A w x w % % & H.I.I.J.- - - - - K.x E E * , ' ' , % v.- - - - - - - - - + - - - - - - - < ",
"- - - f.- f.- - < f.f.- L.% , ' ' % & 5 9 9 5 5 5 & & M.- - - - - - - J N.O.* ' ' ' ' ' , % F.P.- - - - - - - + - - - - - - - < ",
"+ - - - - - - - : f.- - B.% , ' , % & 5 5 & & & & % * Q.- : + - - - - - - R., ' ' ' ' ' , % % S.G.- - - - - - + - - - - - - - < ",
"- - - - - - - - < - - - - & * , * % * , * * % % & & * F.: . - - - - - - - T.* , ' ' ' ' * * , * U.P.- - - - - + - - - - - - - V.",
"- - - - - - - - : - - - - W.} , % * , ' , * * % & & % X.+ - - - - - - - - T.% % * ' ' * * , ' , * Y.- - - - - + - - - - - - - < ",
"- - - - - - - - < - - - - - P.Z.% * , , , , * % & & & `.- - - - - - - - - T.% * , * , * , ' ' , *  +- - - - - + - - - - - - - V.",
"- - - - - - - - : - - - - - - M.& % * , , * % % & & & .+- - - - - - - - - ] % , , ' ' ' ' ' ' , *  +- - - - - + - - - - - - - < ",
"- - - - - - - - : - - - - - - 7.++& % * * % % & & 5 5 @+- - - - - - - - - - $.* , ' ' ' ' ' ' , %  +- - - - - + - - - - - - - < ",
"+ - - - - - - - : - - - - - - - 7.#+5 9 9 & 5 5 5 5 & $+- - - - - - - - - - G.% * , ' ' ' , , % & Y.- - - - - + - - - - - - - < ",
"- - - - - - - - : - - - - - - - - u.5 9 5 5 5 9 & % % $+- - - - - - - - - - - %+&+* * , * * & & & & P.- - - - + - - - - - - - < ",
"+ - - - - - - - : - - - - - - - - - ) & % * % & & & % $+- - - - - - - - - - - - *+=+-+& & & & & % % ;+- - - - . - - - - - - - < ",
"+ - - - - - - - : - - - - - - - - - >+& % , % & & & & $+- - : - - - - - - - - - - - T.9 & % * , * % % | - - - + - - - - - - - < ",
"+ - - - - - - - : - - - - - - - - : @+,+% , * & & & & $+- < + - - - - - - - - - - - T.% * , , ' , % % '+- - - . - - - - - - - < ",
"+ - - - - - - - : - - - - - - - - - - )+& * * % & & & $+: + - - - - - - - - - - - - P.% % * , ' , * % '+- - - + - - - - - - - V.",
"+ - - - - - - - : - - - - - - - - - - !+~+% * & & & {+]+- - - - - - - - - - - - - - - G.U.* * , ' * % %+^+- - . - - - - - - - < ",
"+ - - - - - - - : - - - - - - - - - /+(+* % % D D A M A _+z - - - - - - - - - - - - - - G.% * * * % & D :+- - . - - - - - - - V.",
"+ - - - - - - - : - - - - - <+[+}+|+, , * * D D x D 9 w h.1+2+- - - - - - - - - - - - - - u % % % * , D D 3+- . - - - - - - - V.",
"+ - - - - - - - - + + + 4+5+6+A % * * * w D D x w A M w 7+. . . . . . . . . . . . . . . 8+w D , ' ' ' % w 9+    - - - - - - - V.",
"+ - - - - - - - - - - 0+>.D D x w & & M w w D x D 9 A D a+- - - - - - - - - - - - - - - b+D M * ' ' , % M c+d+- - - - - - - - V.",
"- - - - - - - - - - e+f+D x E x w D A 9 M D x g+h+++++++i+- - - - - - - - - - - - - - - j+9 M * ' ' , x w M k+- - - - - - - - V.",
"+ - < . : - - - - - - l+w w A m+n+o+o+o+o+p+q+- - - - - - - - - - - - - - - - - - - - - r+s+D D * * x E x w t+- - - < . : - - V.",
"- - < : : - - - - - - u+v+v+2 2 - - - - - - - - - - - - - - - - - - - - - - - - - - - - w+x+x D x w w E D E 2.- - - < : : - - V.",
"+ - < < - - - - - - - - - - - - - - - - - - - - - - - - - - - - - - - - - - - - - - - - j+x D x x D D x D w w - - - < < < - - V.",
"- - - - - - - - - - - - - - - - - - - - - - - - - - - - - - - - - - - - - - - - - - - - y+A M E D M M x A M x - - - - < < - - V.",
"< V.V.V.V.V.V.< V.< V.< < < < < < < V.< V.< z+< z+< z+z+z+z+< z+< < < < < < < < V.< V.< < V.< V.< V.V.V.V.V.V.< V.< V.z+z+V.V.V."};
