/* XPM */
static char * ennemy_droite_xpm[] = {
"64 64 249 2",
"  	c #889C9E",
". 	c #62797E",
"+ 	c #536265",
"@ 	c #868B82",
"# 	c #D8D8C8",
"$ 	c #707060",
"% 	c #505040",
"& 	c #9EA194",
"* 	c #849290",
"= 	c #758584",
"- 	c #64787B",
"; 	c #464D4F",
"> 	c #444B4D",
", 	c #232627",
"' 	c #A8A898",
") 	c #F8F8F8",
"! 	c #CBCBBD",
"~ 	c #5A5E5C",
"{ 	c #474E4F",
"] 	c #4C5253",
"^ 	c #86887D",
"/ 	c #5D625F",
"( 	c #494F50",
"_ 	c #464C4D",
": 	c #41351A",
"< 	c #D0D0C1",
"[ 	c #535857",
"} 	c #383F40",
"| 	c #382B2F",
"1 	c #585B55",
"2 	c #97978A",
"3 	c #565A55",
"4 	c #4B4E49",
"5 	c #101010",
"6 	c #7F8177",
"7 	c #484D4D",
"8 	c #4D4F45",
"9 	c #9E9E90",
"0 	c #5E6361",
"a 	c #99998C",
"b 	c #D4D4C5",
"c 	c #403000",
"d 	c #737678",
"e 	c #4E4F43",
"f 	c #5A5F5C",
"g 	c #777971",
"h 	c #6F6F5F",
"i 	c #4D5251",
"j 	c #241B17",
"k 	c #4D514E",
"l 	c #CECEBF",
"m 	c #5E5B50",
"n 	c #3A2F31",
"o 	c #5C5F57",
"p 	c #9FA197",
"q 	c #686C69",
"r 	c #50534C",
"s 	c #484F50",
"t 	c #474D4F",
"u 	c #6F583C",
"v 	c #A88840",
"w 	c #696A5D",
"x 	c #826F48",
"y 	c #C8A860",
"z 	c #949588",
"A 	c #C4A55F",
"B 	c #F8E8B8",
"C 	c #E8C888",
"D 	c #474D4D",
"E 	c #775A35",
"F 	c #886020",
"G 	c #353A3B",
"H 	c #54504A",
"I 	c #825E2A",
"J 	c #413824",
"K 	c #444A4C",
"L 	c #4A4E4E",
"M 	c #A38541",
"N 	c #986000",
"O 	c #C88800",
"P 	c #604000",
"Q 	c #52504B",
"R 	c #807355",
"S 	c #DCBE83",
"T 	c #42494B",
"U 	c #464B4C",
"V 	c #423B2A",
"W 	c #835A2D",
"X 	c #40320C",
"Y 	c #A48641",
"Z 	c #4F5041",
"` 	c #6E6F5F",
" .	c #423A28",
"..	c #494C4B",
"+.	c #9C8658",
"@.	c #4F4F4C",
"#.	c #B39D71",
"$.	c #604004",
"%.	c #484C4C",
"&.	c #8C794F",
"*.	c #E3D6AC",
"=.	c #413416",
"-.	c #7F5D2D",
";.	c #927F57",
">.	c #A7946D",
",.	c #BCB291",
"'.	c #363C3D",
").	c #9C8043",
"!.	c #43423C",
"~.	c #4B4B48",
"{.	c #58564E",
"].	c #C7A860",
"^.	c #604005",
"/.	c #484C4D",
"(.	c #505041",
"_.	c #444541",
":.	c #494F4F",
"<.	c #B3985C",
"[.	c #403108",
"}.	c #2A2E2F",
"|.	c #423B2B",
"1.	c #454745",
"2.	c #A7A797",
"3.	c #5F4006",
"4.	c #44443E",
"5.	c #51524E",
"6.	c #71644B",
"7.	c #865F24",
"8.	c #131414",
"9.	c #3B4143",
"0.	c #3B4142",
"a.	c #3D4344",
"b.	c #4A5152",
"c.	c #745938",
"d.	c #514F4B",
"e.	c #4B4E4D",
"f.	c #4C4E4D",
"g.	c #4B3F38",
"h.	c #8D8E82",
"i.	c #6A563F",
"j.	c #414749",
"k.	c #5E4217",
"l.	c #434A4C",
"m.	c #4F5042",
"n.	c #413314",
"o.	c #6B6C5E",
"p.	c #191A1B",
"q.	c #4D4E40",
"r.	c #886021",
"s.	c #303536",
"t.	c #3C4244",
"u.	c #5F410B",
"v.	c #4E4F44",
"w.	c #C3A45F",
"x.	c #805D2C",
"y.	c #494E4E",
"z.	c #2C3031",
"A.	c #6B563F",
"B.	c #A38441",
"C.	c #4D4A46",
"D.	c #423D31",
"E.	c #5B5E57",
"F.	c #B79B5D",
"G.	c #454C4E",
"H.	c #3F4647",
"I.	c #403104",
"J.	c #484E4D",
"K.	c #8E7746",
"L.	c #41484A",
"M.	c #161717",
"N.	c #6C6D5E",
"O.	c #474D4E",
"P.	c #494E4B",
"Q.	c #887347",
"R.	c #64665B",
"S.	c #4C4F47",
"T.	c #484E4C",
"U.	c #525753",
"V.	c #3D4445",
"W.	c #A6A697",
"X.	c #464D4E",
"Y.	c #2F1C17",
"Z.	c #4C4F46",
"`.	c #6F6F60",
" +	c #5F6158",
".+	c #62645A",
"++	c #515851",
"@+	c #2B3031",
"#+	c #141515",
"$+	c #6E6F60",
"%+	c #3B4140",
"&+	c #2B2F30",
"*+	c #3C4243",
"=+	c #393E40",
"-+	c #6D6D5F",
";+	c #6E7164",
">+	c #202324",
",+	c #4A4E49",
"'+	c #54686D",
")+	c #403001",
"!+	c #34393A",
"~+	c #4B4F48",
"{+	c #2F3435",
"]+	c #3F4547",
"^+	c #695640",
"/+	c #52483C",
"(+	c #5F4109",
"_+	c #4B5151",
":+	c #675034",
"<+	c #A78740",
"[+	c #917945",
"}+	c #815D2B",
"|+	c #4D4F46",
"1+	c #595148",
"2+	c #6D7268",
"3+	c #677A7C",
"4+	c #A79E82",
"5+	c #B9A067",
"6+	c #8F968D",
"7+	c #657779",
"8+	c #6B7472",
"9+	c #576262",
"0+	c #635C4C",
"a+	c #947B45",
"b+	c #4B4F4F",
"c+	c #937A45",
"d+	c #B9A174",
"e+	c #7E7154",
"f+	c #A28442",
"g+	c #4F514E",
"h+	c #C5A65F",
"i+	c #7C725D",
"j+	c #535550",
"k+	c #464C4E",
"l+	c #423B2C",
"m+	c #785A34",
"n+	c #B4985C",
"o+	c #CBB17B",
"p+	c #70583B",
"q+	c #4A4F4F",
"r+	c #565650",
"s+	c #958566",
"t+	c #393F41",
"u+	c #696352",
"v+	c #8E7C56",
"w+	c #50524E",
"x+	c #545550",
"y+	c #4F4138",
"z+	c #141413",
"      . . . . . . + . . . . + . + . + . + . + + + + + + . + . @ # $ % % % $ & * = - . . . . . . . . . . . . . . . + . . . . + . ",
". ; ; ; ; ; ; ; ; ; ; ; ; ; ; ; ; ; ; ; ; ; ; ; ; ; ; ; ; ; > , ' # ' $ $ ' # ) # ! ~ ; ; ; ; ; ; ; ; ; ; ; ; ; ; ; ; ; ; ; ; ; ",
". ; ; ; ; ; ; ; ; ; ; ; ; ; ; ; ; ; ; ; ; ; { ] ; ; ^ / ( _ : $ % $ # # ' $ ' ) ) ) < [ { ; ; ; ; ; ; ; ; ; ; ; ; ; ; ; ; ; ; } ",
"+ ; | . } ; ; ; ; ; ; ; ; ; ; ; ; ; ; ; ; ; 1 2 3 4 ' # $ % $ ' 5 % % ' # # # # ) ) # ' 6 ; ; ; ; ; ; ; ; ; ; ; ; ; | . } ; ; ; ",
". ; | } } ; ; ; ; ; ; ; ; ; ; ; ; ; ; ; 7 8 $ ) # $ # # ' $ $ 5 % ' % % $ ' # # ) # ' ' 9 0 ; ; ; ; ; ; ; ; ; ; ; ; | } } ; ; } ",
"+ ; | | ; ; ; ; ; ; ; ; ; ; ; ; ; ; ; a b ' $ ) # $ ) # % c 5 c ' % % % $ # ) ) # # ) ' # d ; ; ; ; ; ; ; ; ; ; ; ; | | ; ; ; ; ",
"+ ; ; ; ; ; ; ; ; ; ; ; ; ; ; ; ; ; ; e # ) ' ' ' % ' $ % $ % % c % ' $ $ $ $ $ # ' # ) # f ; ; ; ; ; ; ; ; ; ; ; ; ; ; ; ; ; } ",
"+ ; ; ; ; ; ; ; ; ; ; ; ; ; ; ; ; ; g h $ # $ $ ' # ' $ # ' % $ $ $ ) # $ # # $ 5 % $ # ' i ; ; ; ; ; ; ; ; ; ; ; ; ; ; ; ; ; } ",
"; ; ; ; ; ; ; ; j j | | | | | | | k l ) ' % $ # ) ' % ) ) ) # ' % $ ' ' % ' # # # # # $ m n | | | } | } | } } } ; ; ; ; ; ; ; } ",
"+ ; ; ; ; ; ; ; | } ; ; ; ; ; ; ; ; o ' ' % # # % % % ' # ) ) ) $ % ' # $ $ $ ' # # # # # f ; ; ; ; ; ; ; ; ; ; ; ; ; ; ; ; ; } ",
"; ; ; ; ; ; ; ; } ; ; ; ; ; ; ; ; ; p ' $ $ # $ ' ) ) ) $ $ ' # $ % ' ) ' # # ' ' # # # # q ; ; ; ; ; ; ; ; ; + ; ; ; ; ; ; ; } ",
"+ ; ; ; ; ; ; ; | ; ; ; ; ; ; ; ; ; p ) # $ % ' ) ) ) # # ' $ $ $ % $ ) # ' # # # # # ' # q ; ; ; ; ; ; ; ; ; ; ; ; ; ; ; ; ; } ",
"+ ; ; ; ; ; ; ; } ; ; ; ; ; ; ; ; ; o ' ' $ ' # ) # # ' $ $ $ % ' ' ' ' # % % $ $ % % r 3 s ; ; ; ; ; ; ; ; ; + ; ; ; ; ; ; ; | ",
"+ ; ; ; ; ; ; ; } ; ; ; ; ; ; ; ; t u v % % $ # # ' ' $ $ $ $ $ # # ' # # # ' % $ # ' w s ; ; ; ; ; ; ; ; ; ; + ; ; ; ; ; ; ; } ",
"+ ; ; ; ; ; ; ; } ; ; ; ; ; ; ; ; x y $ $ ' ' ' ' ' ' ' # # # # ' # ' ' v ' ) # $ ' ' # z ( ; ; ; ; ; ; ; ; ; + ; ; ; ; ; ; ; | ",
"+ ; ; ; ; ; ; ; } ; ; ; ; ; ; ; ; A B $ ' # ) ) ' C ' $ ' ' ' $ $ ' $ # ) ) # ' v y % $ $ D ; ; ; ; ; ; ; ; ; + ; ; ; ; ; ; ; | ",
"+ ; ; ; ; ; ; ; } ; ; ; ; ; ; ; E C B v ' ' ' ' # # # $ # ) ) ) # ' ' ' C C ' ' B y F F G ; ; ; ; ; ; ; ; ; ; . ; ; ; ; ; ; ; | ",
"+ ; ; ; ; ; ; ; } ; ; ; ; ; ; H I y y v ' # ) ) ' ' ' ' ' # ' $ % F v B B B y y C y y v J K ; ; ; ; ; ; ; ; ; . ; ; ; ; ; ; ; } ",
"+ ; ; ; ; ; ; ; } ; ; ; ; ; L M y y % # ) ) ) ) ' # ) # $ # % N O P c B B C y C C v C B v Q ; ; ; ; ; ; ; ; ; . ; ; ; ; ; ; ; | ",
"+ ; ; ; ; ; ; ; } ; ; ; ; ; R C B $ % ' ) ) # # ' $ $ % B C F N N N F v v v v v v v C C v Q ; ; ; ; ; ; ; ; ; . ; ; ; ; ; ; ; } ",
"+ ; ; ; ; ; ; ; } ; ; ; ; ; S C v $ $ $ # # # ) # $ % v v F P N P c v v v v v v v y C y F T ; ; U V W ; ; ; ; . ; ; ; ; ; ; ; } ",
"+ ; ; ; ; ; ; ; } ; ; ; ; x B B ' ' ' ' # ) # ' $ ' # $ c N P c P F y v y F F v v v % c 5 X Y Z ` v P  ...; ; . ; ; ; ; ; ; ; } ",
"+ ; ; ; ; ; ; ; } ; ; ; ; +.y C C ' # # ' $ $ # ' % % F v v F v ' y v v F F y y $ $ % % % y v v C $ F P N @.; . ; ; ; ; ; ; ; } ",
"+ ; ; ; ; ; ; ; } ; ; ; ; #.B B B B ' ' # ) # % v C y C C y C B C v y y $.v v v ' $ ' ' $ C ' % v C y P P %.; . ; ; ; ; ; ; ; } ",
"+ ; ; ; ; ; ; ; } ; ; ; ; &.*.B C C y v $ ' % y C C v B C y y y v v F =.; -.v v # ' # # ' % y c y v $ % P =.; . ; ; ; ; ; ; ; } ",
"+ ; ; ; ; ; ; ; } ; ; ; ; ; ; ;.>.,.v F P 5 5 5 5 F P y y y C C v y v '.; ).C v # $ ' ' ' % 5 c c v v F P !.; . ; ; ; ; ; ; ; } ",
"+ ; ; ; ; ; ; ; } ; ; ; ; ; ; ; ; ~.P N O O N P 5 5 5 c c % $ $ c % 5 > ; {.].y ' ' $ $ $ % c P % C C v ^./.; . ; ; ; ; ; ; ; } ",
"+ ; ; ; ; ; ; ; } ; ; ; ; ; ; ; ; (.F N N O O O N N F P 5 5 $ $ 5 c c _.; :.<.C v $ $ % % % 5 c [.}.}.|.1.; ; . ; ; ; ; ; ; ; | ",
"+ ; ; ; ; ; ; ; } ; ; ; ; ; ; ; o 2.' $ y y F N O N N P % $ # $ % P N 3.4.; 5.6.7.F $ % 5 8.9.0.a.; ; ; ; ; ; . ; ; ; ; ; ; ; } ",
"; ; ; ; ; ; ; ; } ; ; ; ; ; ; b.z # ) # C B y v F O P $ # ) ) ' $ N P v c.d.; ; e.f._ > > > ; ; ; ; ; ; ; ; ; + ; ; ; ; ; ; ; | ",
"+ ; ; ; ; ; ; ; } g.; ; ; ; { h.) ) # # ' B C y C v % ' ) ) # $ v v v v y v i.j.; ; ; ; ; ; ; ; ; ; ; ; ; ; ; . ; ; ; ; ; ; ; } ",
"; ; ; ; ; ; ; ; | ; ; ; ; ; ( ' # # ) ) ' B B C B C F $ # # $ $ y C y y C C v k.l.; ; ; ; ; ; ; ; ; ; ; ; ; ; + ; ; ; ; ; ; ; | ",
"+ ; ; ; ; ; ; ; } g.; ; ; ; m.' # ) ) ) C B B C B B y $ $ $ % v y C C y C C y v n.; ; ; ; ; ; ; ; ; ; ; ; ; ; + ; ; ; ; ; ; ; | ",
"; ; ; ; ; ; ; ; | ; ; ; ; ; o.' # # ' ' B B B B C B B v % F v F v C C C y B C v p.; ; ; ; ; ; ; ; ; ; ; ; ; ; + ; ; ; ; ; ; ; | ",
"+ ; ; ; ; ; ; ; } g.; g.; ; q.' # ) # v B B B B C B B v P v C v v y B B y C B y r.s.> ; ; ; ; ; ; ; ; ; ; ; ; + ; ; ; ; ; ; ; | ",
"+ ; ; ; ; ; ; ; | ; g.; ; } o.' ) # y y C B B B C B B v P v C C y y C B y C C y v F P t.; ; ; ; ; ; ; ; ; ; ; + ; ; ; ; ; ; ; | ",
"+ ; ; ; ; ; ; ; | g.g.; } ; q.' ) ' C B C B B B C C C v F c v C y y C C C y C C y y v u.9.; ; ; ; ; ; ; ; ; ; + ; ; ; ; ; ; ; | ",
"+ ; ; ; ; ; g.; | g.; } ; ; v.$ # ' B B B B B C C y w.x.y.z.F v C y y C y y y y y y C v A.; ; ; ; ; ; ; ; ; ; + ; ; ; ; ; ; ; | ",
"+ ; ; ; ; g.; g.| g.g.; ; ; ; $ v C B B B C C C B B.C.; ; ; D.P F v v v v C B C y C C y 8 4 E.4 ; ; ; ; ; ; ; + ; ; ; ; ; ; ; | ",
"+ ; ; ; g.; g.g.| g.; g.; ; ; i.v $ # # # ' B B B F.; ; ; ; G.H.: I.I.F v C C B C v y F % ' ' $ 8 ; ; ; ; ; ; + ; ; ; ; ; ; ; | ",
"; ; ; g.; g.; ; | g.g.; ; ; J.i.$ # ) ) ) ) ' B C K.; ; ; ; ; ; ; ; L.M.5 5 c y y F F % ' # ) ' N.O.; ; ; ; ; + ; ; ; ; ; ; ; | ",
"+ ; ; ; ; ; ; ; } g.; ; ; P.(.$ # ) ) ) ) ) ) ' Q.; ; ; ; } + ; ; ; R.' % 5 5 5 5 5 5 % ' ) ) # $ S.; ; ; ; ; + ; ; ; ; ; ; ; | ",
"; ; ; ; ; ; ; ; | ; ; ; T.h ' ' ' ) ) ) ) ) # ' U.; ; ; } . ; ; ; V.W.$ $ % $ $ % % % % ' # # ' m.X.; ; ; ; ; + ; ; ; ; ; ; ; Y.",
"; ; ; ; ; ; ; ; } ; ; ; % ' # # ' # ) ) ) # ' $ T.; ; ; + ; ; ; ; t.$ $ % $ $ ' ' # # ' $ ' # ' Z.; ; ; ; ; ; + ; ; ; ; ; ; ; | ",
"; ; ; ; ; ; ; ; | ; ; ; `.# ) ) # ' # # # ' $ % T.; } ; ; ; ; ; ; t.% % % $ $ ' # # ) # ' $ '  +; ; ; ; ; ; ; + ; ; ; ; ; ; ; Y.",
"; ; ; ; ; ; ; ; } ; ; ; `.# ) ) ) # ' ' ' # ' h T.} ; ; ; ; ; ; ; V.% % % $ $ ' # # # # $ % .+; ; ; ; ; ; ; ; + ; ; ; ; ; ; ; | ",
"; ; ; ; ; ; ; ; } ; ; ; `.# ) ) ) ) ) ) # # ' ++} ; } + ; ; ; ; ; ; @+% % $ $ $ ' # # ' % #+; ; ; ; ; ; ; ; ; + ; ; ; ; ; ; ; | ",
"+ ; ; ; ; ; ; ; } ; ; ; (.' ) ) ) ) ) ) # ' $+%+; | . ; ; ; ; ; ; ; &+5 5 5 % $ $ $ $ % 5 *+; ; ; ; ; ; ; ; ; + ; ; ; ; ; ; ; | ",
"; ; ; ; ; ; ; ; } ; ; 7 % % ' # # ) ) # ' $ v.; } + ; ; ; ; ; ; ; ; &+$ c 5 5 5 5 5 5 #+=+; ; ; ; ; ; ; ; ; ; + ; ; ; ; ; ; ; | ",
"+ ; ; ; ; ; ; ; } ; T.-+$ % % $ $ ' ' ' ;+4 ; } ; ; ; ; ; ; ; ; ; ; &+' % % % % c % % >+; ; ; ; ; ; ; ; ; ; ; . ; ; ; ; ; ; ; | ",
"+ ; ; ; ; ; ; ; } ; ,+$ $ $ % % % % 5 '+O.; ; ; ; ; ; ; ; ; } ; ; ; &+$ % % % ' # $ )+T ; ; ; ; ; ; ; ; ; ; ; + ; ; ; ; ; ; ; | ",
"+ ; ; ; ; ; ; ; } O.% $ ' # ' ' $ $ % J.; ; ; ; ; ; ; ; ; | + ; ; ; &+$ % % % ' # $ 5 G.; ; ; ; ; ; ; ; ; ; ; . ; ; ; ; ; ; ; | ",
"+ ; ; ; ; ; ; ; } O.% $ # ) ) # ' $ $ T.; ; ; ; ; ; ; ; } + ; ; ; ; &+% % % $ # ' % !+; ; ; ; ; ; ; ; ; ; ; ; + ; ; ; ; ; ; ; Y.",
"+ ; ; ; ; ; ; ; } O.% ' # ) # # $ $ ~+; ; ; ; ; ; ; ; ; ; ; ; ; ; ; {+% % % $ # $ (.]+; ; ; ; ; ; ; ; ; ; ; ; . ; ; ; ; ; ; ; | ",
"+ ; ; ; ; ; ; ; } ^+% ' # ) # ' $ ~+; ; ; ; ; ; ; ; ; ; ; ; ; ; ; d./+(+% % $ $ % v._+; ; ; ; ; ; ; ; ; ; ; ; . ; ; ; ; ; ; ; Y.",
"+ ; ; ; ; ; ; ; :+<+$ $ ' ' ' $ 4 ; ; ; ; ; ; ; ; ; ; ; ; ; ; ; [+}+F F v y v $ ' # 9 |+; ; ; ; ; ; ; ; ; ; ; . ; ; ; ; ; ; ; Y.",
"+ ; ; ; ; ; ; 1+v y ' # ' $ $ 2+3+. . . . . . . . + . + . . . 4+5+v F P y C F v ' ' # # 6+7+8+9+. + . .         ; ; ; ; ; ; ; Y.",
"+ ; ; ; ; ; ; 0+v F # ) ) # $ y a+b+; ; ; ; ; ; ; ; ; ; ; ; ; ; X.y v c F C y v y y $ ' ' $ v c+d+e+; ; ; ; ; ; ; ; ; ; ; ; ; Y.",
"; ; ; ; ; ; ; f+P % ' ) ) # % F v g+; ; ; ; ; ; ; ; ; ; ; ; ; ; L F v c P y C F C v c % F C y v v h+i+; ; ; ; ; ; ; ; ; ; ; ; Y.",
"+ ; | . } ; ; c v y C # ) # F c v j+; ; ; ; ; ; ; ; ; ; ; ; ; ; k+|.l+l+l+m+n+y v c c v v y C C C v o+; ; ; ; ; ; ; | . } ; ; Y.",
"; ; | } } ; ; v C B B ' # v y v p+q+; ; ; ; ; ; ; ; ; ; ; ; ; ; ; ; ; ; ; ; r+s+P._._._._.t+c F y y u+; ; ; ; ; ; ; | } } ; ; Y.",
"+ ; | | ; ; ; C y B C y y y v C v+{ ; ; ; ; ; ; ; ; ; ; ; ; ; ; ; ; ; ; ; ; ; ; ; ; ; ; ; ; _ _ w+x+( ; ; ; ; ; ; ; | | | ; ; Y.",
"; ; ; ; ; ; ; C F C v F v C v y C j+; ; ; ; ; ; ; ; ; ; ; ; ; ; ; ; ; ; ; ; ; ; ; ; ; ; ; ; ; ; ; ; ; ; ; ; ; ; ; ; ; | | ; ; Y.",
"| Y.Y.Y.Y.Y.Y.F P C P P F C $ P y y+Y.| Y.| z+| z+| z+z+z+z+| z+| | | | | | | | Y.| Y.| | Y.| Y.| Y.Y.Y.Y.Y.Y.| Y.| Y.z+z+Y.Y.Y."};
