/* XPM */
static char * ennemy_haut_xpm[] = {
"64 64 252 2",
"  	c #889C9E",
". 	c #62797E",
"+ 	c #536265",
"@ 	c #464D4F",
"# 	c #464E51",
"$ 	c #45525D",
"% 	c #5A6773",
"& 	c #55616B",
"* 	c #4E585E",
"= 	c #5A6774",
"- 	c #454F56",
"; 	c #45525E",
"> 	c #93A3B4",
", 	c #CCDDEE",
"' 	c #99AABB",
") 	c #445565",
"! 	c #445464",
"~ 	c #445465",
"{ 	c #657686",
"] 	c #4D565C",
"^ 	c #383F40",
"/ 	c #382B2F",
"( 	c #464D50",
"_ 	c #596773",
": 	c #667788",
"< 	c #CADBEC",
"[ 	c #525D66",
"} 	c #43494B",
"| 	c #2D3132",
"1 	c #EEFFFF",
"2 	c #52463A",
"3 	c #454C4E",
"4 	c #2F3334",
"5 	c #554433",
"6 	c #544435",
"7 	c #857555",
"8 	c #5C5248",
"9 	c #313537",
"0 	c #665544",
"a 	c #AA9977",
"b 	c #DDCCAA",
"c 	c #776B53",
"d 	c #887755",
"e 	c #241B17",
"f 	c #2C3132",
"g 	c #445566",
"h 	c #333300",
"i 	c #857453",
"j 	c #444B4D",
"k 	c #383A25",
"l 	c #877655",
"m 	c #5A5249",
"n 	c #484C4C",
"o 	c #414749",
"p 	c #544536",
"q 	c #484C4D",
"r 	c #464D4E",
"s 	c #161818",
"t 	c #101010",
"u 	c #51473D",
"v 	c #474D4E",
"w 	c #4D4944",
"x 	c #554434",
"y 	c #51473C",
"z 	c #504F4C",
"A 	c #655544",
"B 	c #A69675",
"C 	c #A99876",
"D 	c #877755",
"E 	c #534538",
"F 	c #464E53",
"G 	c #555550",
"H 	c #464E52",
"I 	c #595850",
"J 	c #A49474",
"K 	c #664400",
"L 	c #4D4945",
"M 	c #646763",
"N 	c #4F4841",
"O 	c #474C4E",
"P 	c #54504B",
"Q 	c #998B6F",
"R 	c #996600",
"S 	c #524639",
"T 	c #45525F",
"U 	c #4B4A47",
"V 	c #647484",
"W 	c #4C4E4D",
"X 	c #657687",
"Y 	c #837454",
"Z 	c #393F40",
"` 	c #40443E",
" .	c #494C4B",
"..	c #455360",
"+.	c #A39373",
"@.	c #464E54",
"#.	c #3E433A",
"$.	c #333404",
"%.	c #4A4B4A",
"&.	c #445362",
"*.	c #837354",
"=.	c #4A4B49",
"-.	c #645445",
";.	c #464F55",
">.	c #544537",
",.	c #4E4943",
"'.	c #445463",
").	c #455059",
"!.	c #635445",
"~.	c #5B6976",
"{.	c #454B4D",
"].	c #45525C",
"^.	c #51473E",
"/.	c #534537",
"(.	c #5B5248",
"_.	c #8999A7",
":.	c #3F4547",
"<.	c #3B3E30",
"[.	c #34350E",
"}.	c #AEBDCB",
"|.	c #634517",
"1.	c #544535",
"2.	c #664402",
"3.	c #40453F",
"4.	c #946415",
"5.	c #494B4B",
"6.	c #111111",
"7.	c #333303",
"8.	c #615445",
"9.	c #372E29",
"0.	c #605346",
"a.	c #232627",
"b.	c #644515",
"c.	c #99AABA",
"d.	c #7C8996",
"e.	c #5E686F",
"f.	c #5F6971",
"g.	c #C7D7E8",
"h.	c #657586",
"i.	c #8995A0",
"j.	c #3E4547",
"k.	c #363B3D",
"l.	c #45515A",
"m.	c #CBDCED",
"n.	c #7D8B98",
"o.	c #4C555A",
"p.	c #656F78",
"q.	c #74818C",
"r.	c #6A767F",
"s.	c #91A1B0",
"t.	c #4B3F38",
"u.	c #96A6B7",
"v.	c #95A5B5",
"w.	c #495156",
"x.	c #55656A",
"y.	c #555E64",
"z.	c #6E7778",
"A.	c #606F7E",
"B.	c #91A1B1",
"C.	c #97A7B8",
"D.	c #535E67",
"E.	c #505A62",
"F.	c #637383",
"G.	c #4F4840",
"H.	c #56514A",
"I.	c #55504B",
"J.	c #625446",
"K.	c #45515C",
"L.	c #57514A",
"M.	c #4E4F4D",
"N.	c #50483F",
"O.	c #647485",
"P.	c #4F4F4C",
"Q.	c #494B4A",
"R.	c #5C5A51",
"S.	c #474C4D",
"T.	c #464F54",
"U.	c #2F1C17",
"V.	c #4C4A47",
"W.	c #605347",
"X.	c #4B4B48",
"Y.	c #544434",
"Z.	c #54524D",
"`.	c #191B1B",
" +	c #3C403F",
".+	c #615446",
"++	c #45413B",
"@+	c #665647",
"#+	c #534639",
"$+	c #3F4647",
"%+	c #474D4F",
"&+	c #5A5C59",
"*+	c #424744",
"=+	c #53504B",
"-+	c #4E5150",
";+	c #455058",
">+	c #4F5250",
",+	c #58514A",
"'+	c #4B4A48",
")+	c #465767",
"!+	c #5A5A55",
"~+	c #887A5D",
"{+	c #8F9B97",
"]+	c #7E9195",
"^+	c #3F443E",
"/+	c #333301",
"(+	c #8392A0",
"_+	c #4D5458",
":+	c #98A9B9",
"<+	c #8492A0",
"[+	c #485053",
"}+	c #6B757C",
"|+	c #C6D7E7",
"1+	c #B1C0CE",
"2+	c #4C5862",
"3+	c #6E7880",
"4+	c #586168",
"5+	c #C2D3E3",
"6+	c #656F75",
"7+	c #92A3B3",
"8+	c #76858C",
"9+	c #C3D4E4",
"0+	c #627282",
"a+	c #353616",
"b+	c #C9DAEA",
"c+	c #ADBABA",
"d+	c #485052",
"e+	c #454C4D",
"f+	c #444B4B",
"g+	c #353717",
"h+	c #363718",
"i+	c #66717A",
"j+	c #4D5456",
"k+	c #7E8C99",
"l+	c #303536",
"m+	c #7D5C34",
"n+	c #C4D5E5",
"o+	c #3D4137",
"p+	c #96A3AE",
"q+	c #4F575B",
"r+	c #68737C",
"s+	c #3C4034",
"t+	c #A5B3C0",
"u+	c #93A3B3",
"v+	c #555E6B",
"w+	c #75828E",
"x+	c #63666C",
"y+	c #606168",
"z+	c #141413",
"A+	c #3A2F32",
"B+	c #5E5F65",
"C+	c #464D55",
"      . . . . . . + . . . . + . + . + . + . + + + + + + . + . + . + . . . . . . . . . . . . . . . . . . . . . . . + . . . . + . ",
". @ @ @ @ @ @ @ @ @ @ @ @ @ @ @ @ @ @ @ @ @ @ @ @ @ # $ % & @ @ * = $ - @ @ @ @ @ @ @ @ @ @ @ @ @ @ @ @ @ @ @ @ @ @ @ @ @ @ @ @ ",
". @ @ @ @ @ @ @ @ @ @ @ @ @ @ @ @ @ @ @ @ @ @ @ @ ; > , ' ) ! ! ~ ' ' { ] @ @ @ @ @ @ @ @ @ @ @ @ @ @ @ @ @ @ @ @ @ @ @ @ @ @ ^ ",
"+ @ / . ^ @ @ @ @ @ @ @ @ @ @ @ @ @ @ @ @ @ @ ( _ ' , : ' ' ' : , ' ' , < [ } @ @ @ @ @ @ @ @ @ @ @ @ @ @ @ @ @ @ @ / . ^ @ @ @ ",
". @ / ^ ^ @ @ @ @ @ @ @ @ @ @ @ @ @ @ @ @ @ @ | ' 1 ' , 1 1 1 ' 1 , , , 1 ' 2 3 @ @ @ @ @ @ @ @ @ @ @ @ @ @ @ @ @ @ / ^ ^ @ @ ^ ",
"+ @ / / @ @ @ @ @ @ @ @ @ @ @ @ @ @ @ @ @ 3 4 5 , ' , 1 1 1 1 ' , 1 1 , , , : 6 7 7 7 7 7 8 @ @ @ @ @ @ @ @ @ @ @ @ / / @ @ @ @ ",
"+ @ @ @ @ @ @ @ @ @ @ @ @ @ @ @ @ @ @ @ @ 9 5 5 , , , 1 1 1 1 , , 1 1 , , 1 : 0 a b a a b c @ @ @ @ @ @ @ @ @ @ @ @ @ @ @ @ @ ^ ",
"+ @ @ @ @ @ @ @ @ @ @ @ @ @ @ @ @ @ @ @ | 5 0 5 ' , ' , 1 1 1 , , 1 , ' , ' 0 5 d a b a d 8 @ @ @ @ @ @ @ @ @ @ @ @ @ @ @ @ @ ^ ",
"@ @ @ @ @ @ @ @ e e / / / / / / / ^ / f 5 0 5 5 g ' ' , , , , , ' , , , ' : 0 h 5 a b b i / / / / ^ / ^ / ^ ^ ^ @ @ @ @ @ @ @ ^ ",
"+ @ @ @ @ @ @ @ / ^ @ @ @ @ @ @ @ @ j k 0 5 d 5 5 g ' 1 1 1 , ' , 1 1 , : g 0 5 h d b b l m n @ @ @ @ @ @ @ @ @ @ @ @ @ @ @ @ ^ ",
"@ @ @ @ @ @ @ @ ^ @ @ @ @ @ @ @ @ @ o 5 5 0 0 5 5 g : : : : , ' , , : g : ' 5 5 0 d b 0 0 0 p q r @ @ @ @ @ @ + @ @ @ @ @ @ @ ^ ",
"+ @ @ @ @ @ @ @ / @ @ @ @ @ @ @ @ @ s 5 h d 5 5 d ' , ' 5 ' g : : g ' 5 ' , 0 5 0 0 d t 5 0 5 5 u v @ @ @ @ @ @ @ @ @ @ @ @ @ ^ ",
"+ @ @ @ @ @ @ @ ^ @ @ @ @ @ @ @ @ w x 5 t 0 0 5 d : , , a d ' , , ' d a , ' 0 0 d 0 d d d 0 0 5 5 y @ @ @ @ @ + @ @ @ @ @ @ @ / ",
"+ @ @ @ @ @ @ @ ^ @ @ @ @ z A 7 B C d 0 h h d 5 d 5 : ' d d d 5 5 d b : : g 5 0 d d d 0 d a 0 a d 5 u @ @ @ @ + @ @ @ @ @ @ @ ^ ",
"+ @ @ @ @ @ @ @ ^ @ @ @ @ D a b b b a d h h 5 5 5 5 g ' g t d h t 5 a : ' g 5 5 0 d d d d d d b b d E F @ @ @ + @ @ @ @ @ @ @ / ",
"+ @ @ @ @ @ @ @ ^ @ @ @ @ l d a b b b a 5 h h g h g : , : d a h t t a a , g 5 0 0 5 0 0 0 d d a b a 0 ! # @ @ + @ @ @ @ @ @ @ / ",
"+ @ @ @ @ @ @ @ ^ @ @ @ G l d 0 d a b a 5 h h g g g : ' d a 0 ' , ' d a ' g 0 d d 0 5 d d d d d b a 0 : ! H @ . @ @ @ @ @ @ @ / ",
"+ @ @ @ @ @ @ @ ^ @ @ I J b b a d 0 0 0 5 h K : : ' : d a d 0 5 5 0 0 d d : a a a d 5 a b b a 0 a ' ' ' : ; L M N O @ @ @ @ @ ^ ",
"+ @ @ @ @ @ @ @ ^ @ @ P d a b b b d 0 5 h K K : ' , , ' a b d d a a d a d , ' b b d 5 5 0 d 0 d , 1 ' , ' ; Q d 0 E v @ @ @ @ / ",
"+ @ @ @ @ @ @ @ ^ @ @ $ : : ' : : : : : 5 K R ' 1 1 1 1 , ' ' a b b d ' , 1 b b b d 0 g : ' ' , 1 1 ' ' ' g a d 0 0 S q @ @ @ ^ ",
"+ @ @ @ @ @ @ @ ^ @ T ' , , , , , , , ' 5 K R ' 1 1 1 1 1 1 1 ' a a ' 1 1 1 , a a d 0 g g ' , : ' ' : : a 0 d d 0 d 0 U @ @ @ ^ ",
"+ @ @ @ @ @ @ @ ^ @ V 1 , 1 , , , 1 1 , g h K : ' 1 1 1 1 1 1 , ' : ' 1 1 1 , d d 0 x L H ! ! g : : a b a 0 d b d b a A W @ @ ^ ",
"+ @ @ @ @ @ @ @ ^ @ V 1 , 1 ' , , 1 1 , : h h 5 : ' ' , , , ' ' : : ' ' ' : : 0 0 5 2 @ @ @ - X ' d b d 0 0 5 a a a b a Y @ @ ^ ",
"+ @ @ @ @ @ @ @ Z @ V , ' : 0 : ' , , ' g ` h h : : : : : : ' ' , , , , , ' : g 5 x  .@ @ @ ..: ' d d a b d 0 a b d d b +.@ @ ^ ",
"+ @ @ @ @ @ @ S A 0 d d 0 0 0 0 0 g : ~ @.@ #.$.g ' , 1 1 1 1 , , ' ' ' ' ' g : g %.@ @ @ @ @ &.: 0 0 a b 0 d d a a d d *.@ @ ^ ",
"+ @ @ @ @ @ =.-.0 d a b a 0 0 5 0 5 h N @ @ @ L g ' ' , , ' ' , , ' ' , ' : : , : ;.@ @ @ @ @ ( y 5 0 0 0 b a 0 5 a a a >.@ @ ^ ",
"+ @ @ @ @ @ ,.0 0 d a a b 5 : ' K R 5 ) '.# ( @ ).' , ' , 1 1 1 ' : , , ' : ' , g ;.@ @ @ @ @ @ v 2 5 5 0 d 5 0 ' , ' d !.@ @ ^ ",
"+ @ @ @ @ @ ,.0 d d a a b 0 ' 0 K 5 g , , : ~.{.].' , ' ' , , , ' : ' , , : ' , g ;.@ @ @ @ @ @ @ @ ^./.0 K R R d ' , : (.@ @ / ",
"+ @ @ @ @ @ ,.0 d d a a a : ' 0 R : , ' ' ' ' _.t : , , , 1 1 1 , : , , ' : ' : g :.@ @ @ @ @ @ @ @ @ ~.: R a a K R d 0 <.@ @ ^ ",
"@ @ @ @ @ @ ,.0 d a a a d : ' K 5 : : , ' : , : t t : ' ' ' ' ' : : : ' ' ' ' 5 t [.@ @ @ @ @ @ @ @ 3 }.' : , , ' d R R |.@ @ / ",
"+ @ @ @ @ @ =.1.5 0 5 0 5 5 g R h ' ' ' : : ' 5 h h t 5 : , 1 1 , : , 1 , : 5 t h 2.3.@ @ @ @ @ @ @ $ ' : , ' ' , ' a R 4.@ @ ^ ",
"@ @ @ @ @ @ @ 5.6.5 0 0 5 h K 5 : g : : g g 5 h K K h t t 5 : : : 0 g : 5 t K R K 7.5.@ @ @ @ @ @ ( : , : ' , , , ' ' a 8.@ @ / ",
"+ @ @ @ @ @ @ @ ^ 9.2 0.0.a.b.5 : , ' g : ' ' ' , , a 0 h h t h 5 0 h h h R d : : : c.d.e.@ @ @ @ @ f.g.: ! h.' , ' , i.@ @ @ / ",
"@ @ @ @ @ @ @ @ / @ @ @ @ @ j.k.k.l.{ ' , 1 , , 1 1 1 ' 0 h 5 0 a a 0 5 K ' , 1 , ' , 1 m.n.o.@ @ @ @ p.q.- r.' ' , s.F @ @ @ / ",
"+ @ @ @ @ @ @ @ ^ t.@ t.@ @ ^ @ ^ ( u., 1 , , 1 1 1 1 , ' 5 0 a a b a 0 ' , 1 1 1 , ' 1 1 1 v.w.@ @ @ @ @ @ @ x.y.z.# @ @ @ @ / ",
"+ @ @ @ @ @ @ @ / @ t.@ @ ^ @ ^ # A.' 1 , , , 1 1 1 1 , ' : 0 d a b a : ' 1 1 1 1 1 , , 1 1 1 B.@ @ @ @ @ @ @ + @ @ @ @ @ @ @ / ",
"+ @ @ @ @ @ @ @ / t.t.@ ^ @ ^ @ - : ' , , , 1 1 1 1 , , ' , ' 0 a a : : : , 1 1 1 1 1 , , , , C.D.@ @ @ @ @ @ + @ @ @ @ @ @ @ / ",
"+ @ @ @ @ @ t.@ / t.@ ^ @ @ @ F { ' , , 1 , 1 1 1 , , , 1 1 , 0 0 0 : ' ' ' , 1 1 1 1 , 1 1 1 1 c.E.@ @ @ @ @ + @ @ @ @ @ @ @ / ",
"+ @ @ @ @ t.@ t./ t.t.@ @ @ @ F.' 1 1 1 1 , 1 1 1 , , 1 1 1 ' G.N ! ' , 1 1 , , 1 1 1 , 1 1 1 , ' : H.H.I.@ @ + @ @ @ @ @ @ @ / ",
"+ @ @ @ t.@ t.t./ t.@ t.@ @ @ J.: a 1 1 1 , 1 1 , ' 1 1 ' : K.@ @ F ) ' , 1 1 1 , 1 1 , , 1 , ' 0 d d a D L.@ + @ @ @ @ @ @ @ / ",
"@ @ @ t.@ t.@ @ / t.t.@  .M.N.0 a a a ' , ' 1 1 , ' ' V &.; @ @ @ @ F O.: ' , 1 , , 1 , , , ' 0 d a b b b a P.+ @ @ @ @ @ @ @ / ",
"+ @ @ @ @ @ @ @ ^ t.@ Q.p d 0 d a b b b a ' ' ' : ; l.;.@ ^ + @ @ @ @ ;.l.~.: ' ' ' , , ' : 0 0 d b b b b a R.+ @ @ @ @ @ @ @ / ",
"@ @ @ @ @ @ @ @ / @ S.1.d d d a b b b b a d 0 0 T ( @ @ ^ . @ @ @ @ @ @ @ ( H T.) 0 0 0 0 5 0 0 d b b b b a R.+ @ @ @ @ @ @ @ U.",
"@ @ @ @ @ @ @ @ ^ @ V.d a a a a a b b a a 0 5 1.@ @ @ @ + @ @ @ @ @ @ @ @ @ @ @ @ W.0 5 5 0 5 0 0 a a a b d R.+ @ @ @ @ @ @ @ / ",
"@ @ @ @ @ @ @ @ / @ -.d b b a d a a d d 0 0 0 1.@ @ ^ @ @ @ @ @ @ @ @ @ @ @ @ @ X.B 0 0 d d d d a b a d d d z + @ @ @ @ @ @ @ U.",
"@ @ @ @ @ @ @ @ ^ @ -.d b b b a d d d a a d 0 Y.@ ^ @ @ @ @ @ @ @ @ @ @ @ @ @ @ L a 0 0 d d a a b b b b b d z + @ @ @ @ @ @ @ / ",
"@ @ @ @ @ @ @ @ ^ @ p d a b b b b b b b a d 0 Z.^ @ ^ + @ @ @ @ @ @ @ @ @ @ @ @ w d 0 0 d d a a b b b b b d z + @ @ @ @ @ @ @ / ",
"+ @ @ @ @ @ @ @ ^ @ `.5 d a b b b b b a d d 0  +@ / . @ @ @ @ @ @ @ @ @ @ @ @ @ S..+0 0 0 d a a b b b b d 0 P.+ @ @ @ @ @ @ @ / ",
"@ @ @ @ @ @ @ @ ++0 h 5 5 0 d a a a a d d @+V.@ ^ + @ @ @ @ @ @ @ @ @ @ @ @ @ @ @ @ #+5 0 0 d d a a a d 0 ,.@ + @ @ @ @ @ @ @ / ",
"+ @ @ @ @ @ @ r 5 0 0 5 5 5 5 5 5 5 5 5 M V.@ ^ @ @ @ @ @ @ @ @ @ @ @ @ @ @ @ @ @ @ $+t 5 5 5 5 5 5 5 5 p @ @ . @ @ @ @ @ @ @ / ",
"+ @ @ @ @ @ @ %+0 d d a 0 0 0 5 5 5 5 &+@ @ @ @ @ @ @ @ @ @ ^ @ @ @ @ @ @ @ @ @ @ @ *+h h 5 5 5 5 0 0 0 -.@ @ + @ @ @ @ @ @ @ / ",
"+ @ @ @ @ @ @ %+0 d a a b b d d d 0 0 G.@ @ @ @ @ @ @ @ @ / + @ @ @ @ @ @ @ @ @ @ @ 0 d 0 0 0 d d b b d -.@ @ . @ @ @ @ @ @ @ / ",
"+ @ @ @ @ @ @ %+0 d a a b a d d 0 0 p  .@ @ @ @ @ @ @ @ ^ + @ @ @ @ @ @ @ @ @ @ @ @ 0 d 0 0 0 d d b b d =+@ @ + @ @ @ @ @ @ @ U.",
"+ @ @ @ @ @ @ r 5 d a a a a d d 0 5 2 @ @ @ @ @ @ @ @ @ @ @ @ @ @ @ @ @ @ @ @ @ @ @ !.0 0 0 0 0 d b a d -+@ @ . @ @ @ @ @ @ @ / ",
"+ @ @ @ @ @ @ ;+0 0 0 d d d d 0 /.N @ @ @ @ @ @ @ @ @ @ @ @ @ @ @ @ @ @ @ @ @ @ @ @ Q.0 0 0 0 0 a b a d >+@ @ . @ @ @ @ @ @ @ U.",
"+ @ @ @ @ @ ).A d a a 0 : ' ' ) n @ @ @ @ @ @ @ @ @ @ @ @ @ @ @ @ @ @ @ @ @ @ @ @ @ Q.5 0 0 0 0 0 0 0 ,+%+@ @ . @ @ @ @ @ @ @ U.",
"+ @ @ @ @ '+g a a a a d ' 1 ' )+. . . . . . . . . + . + . . . . . . . . . . . . . . . !+5 0 0 0 0 a a a ~+{+]+  @ @ @ @ @ @ @ U.",
"+ @ @ @ ^+/+d a d d 5 : , 1 , { @ @ @ @ @ @ @ @ @ @ @ @ @ @ @ @ @ @ @ @ @ @ @ @ @ @ (+: g ' ' : : d b b b a : $ - @ @ @ @ @ @ U.",
"@ @ _+[ :+: d d 0 : : 5 ' 1 , C.@ @ @ @ @ @ @ @ @ @ @ @ @ @ @ @ @ @ @ @ @ @ @ @ @ <+{ : 5 ' , : ' : d d d a a ' { F ( [+@ @ @ U.",
"+ }+|+' , ' ' ' ' , , : h ' , 1+@ @ @ @ @ @ @ @ @ @ @ @ @ @ @ @ @ @ @ @ @ @ @ @ @ @ f.: 5 : , ' ' : h : ' ' : : ' g : : 2+3+@ U.",
"4+5+' , , , , ' 1 1 ' : h ' 1 6+@ @ @ @ @ @ @ @ @ @ @ @ @ @ @ @ @ @ @ @ @ @ @ @ @ @ ;.g h h ' , 5 h g ' , ' : ' , ' ' ' g 7+4+U.",
"8+9+0+, : 1 b : , a 5 a+*+b+c+d+@ @ @ @ @ @ @ @ @ @ @ @ @ @ @ @ @ @ @ @ @ @ @ @ @ @ @ e+f+g+F.9+h.h+5 : : g 5 5 ' , g ' 0 F.i+U.",
"@ @ j+k+l+g.m+N n+9 o+@ @ p+@ @ @ @ @ @ @ @ @ @ @ @ @ @ @ @ @ @ @ @ @ @ @ @ @ @ @ @ @ @ @ @ @ q+r+@ s+s+s+s+s+s+l+t+u+v+B.@ w+U.",
"/ U.U.U.U.x+U./ y+/ U./ / / / / / / U./ U./ z+/ z+/ z+z+z+z+/ z+/ / / / / / / / U./ U./ / U./ U./ U.U.U.U.U.U./ U.A+B+z+C+U.U.U."};
