/* XPM */
static char * exitthree_xpm[] = {
"64 64 22 1",
" 	c #889C9E",
".	c #62797E",
"+	c #536265",
"@	c #464D4F",
"#	c #383F40",
"$	c #382B2F",
"%	c #241B17",
"&	c #6B634A",
"*	c #4A4229",
"=	c #FFFFFF",
"-	c #EFE7CE",
";	c #8C846B",
">	c #ADA58C",
",	c #CEC6AD",
"'	c #181000",
")	c #4B3F38",
"!	c #312910",
"~	c #B56B21",
"{	c #D6944A",
"]	c #FFD68C",
"^	c #2F1C17",
"/	c #141413",
"   ......+....+.+.+.+.++++++.+.+.+.......................+....+.",
".@@@@@@@@@@@@@@@@@@@@@@@@@@@@@@@@@@@@@@@@@@@@@@@@@@@@@@@@@@@@@@@",
".@@@@@@@@@@@@@@@@@@@@@@@@@@@@@@@@@@@@@@@@@@@@@@@@@@@@@@@@@@@@@@#",
"+@$.#@@@@@@@@@@@@@@@@@@@@@@@@@@@@@@@@@@@@@@@@@@@@@@@@@@@@@$.#@@@",
".@$##@@@@@@@@@@@@@@@@@@@@@@@@@@@@@@@@@@@@@@@@@@@@@@@@@@@@@$##@@#",
"+@$$@@@@@@@@@@@@@@@@@@@@@@@@@@@@@@@@@@@@@@@@@@@@@@@@@@@@@@$$@@@@",
"+@@@@@@@@@@@@@@@@@@@@@@@@@@@@@@@@@@@@@@@@@@@@@@@@@@@@@@@@@@@@@@#",
"+@@@@@@@@@@@@@@@@@@@@@@@@@@@@@@@@@@@@@@@@@@@@@@@@@@@@@@@@@@@@@@#",
"@@@@@@@@%%$$$$$$$#$#$$$$$$&&&&&&****%$%$$$$$$$$$$#$#$###@@@@@@@#",
"+@@@@@@@$#@@@@@@@@@@@**&&&======----******@@@@@@@@@@@@@@@@@@@@@#",
"@@@@@@@@#@@@@@@@@****---==;;;-;;;;->--,,,>***''@@@@@@@@+@@@@@@@#",
"+@@@@@@@$@@@@@@**>,,-;;-;;@@@,&@@&-&;-;;,&>>>>;'''@@@@@@@@@@@@@#",
"+@@@@@@@#@@@@@*>>*,*&@@-@@@@@,@@@*,*),@@,#;;;&&;;;''@@@+@@@@@@@$",
"+@@@@@@@#@@@@*;***>'@@@,@@**&>&&*&,*)>)@>@#@@@@&**&&'@@+@@@@@@@#",
"+@@@@@@@#@@@*;*@@*>'@**,*&&&&>&;;;,&*;**;**@@@@@!&*'&'@+@@@@@@@$",
"+@@@@@@@#@@@*;'@@*>**&&>&&&&;;;;;&,*&;&&&***!!!@!&'@'*'+@@@@@@@$",
"+@@@@@@@#@@@&;&!!*>&&&&>&&;&&;**;*&!!**&&!*****''&'@@'*'@@@@@@@$",
"+@@@@@@@#@@@&;!!&&>!!&*;&;&*~~~*;&&~~!!&*!*!*!!**&''@'*!@@@@@@@#",
"+@@@@@@@#@@@@;!&**>~!&*;&&*~~~~~;&&~{~!&*!*!*!!*!&**'&*!@@@@@@@$",
"+@@@@@@@#@@@@;&*~~~!*&*&;&{{~{{~***~{~!&*!!!*!!*&!!!*'**@@@@@@@#",
"+@@@@@@@#@@@@;&*{~{*&&*&;&{{{;{~~&~{{~!&*!!!*!!*&''!&'**@@@@@@@#",
"+@@@@@@@#@@@'&*{]{*&&*&;&]{];&]{]*]{]!*&*!!!!!!*&''!!&!*@@@@@@@#",
"+@@@@@@@#@@@'&*{]]**&*&&*]]];&;]=~]{]!***!!!!!!*''''!&!.@@@@@@@#",
"+@@@@@@@#@@'&*]]]***&*&*=]]];&&]=]]]=!***!!!*!!*!'''!;!.@@@@@@@#",
"+@@@@@@@#@@'&*]]=*;*&*&,=]]>>&>;=]=]=*!**!!!*!!!''''!!;.@@@@@@@#",
"+@@@@@@@#@@'&*]=]&>*>*&,=]=;-;>;]]=];*;*&***!!!'!''''!;.@@@@@@@#",
"+@@@@@@@#@'&*!]=]&,&>&-,]>=&-;,>;]>]&*>*>*&&*!!!'''''!&.@@@@@@@#",
"+@@@@@@@#@!*>&]={&-&,&-,];]&-;-,>];]&&;*;*>>>!;&!''!'!&!@@@@@@@$",
"+@@@@@@@#@!>;&{]&&-&,;--]>]=->-,>]>];&>&;&>;>!&;;;'!'!*!@@@@@@@#",
"@@@@@@@@#@!;;&{{>>-;,;--],]=->-,,]>>>&;&;&>&;*&*;&'*&!*!@@@@@@@$",
"+@@@@@@@#)*;;{>{>,-;,>--{-]=-,,,,{,>>>>&;&;&;*&*&&'!***!@@@@@@@#",
"@@@@@@@@$@*;;{>>>>->,,==;-{==,-,,,,>>>>&;&;&;*&*&*'!*!*!@@@@@@@$",
"+@@@@@@@#)*;;>>;>,->--=>;=;>;--,-->>>>>;;;;&&*&*&*'!!!*!@@@@@@@$",
"@@@@@@@@$@&;;>,;,>;,;>=>;=;>;-;-;;,,,>;;;;&&&&**&*!!!**+@@@@@@@$",
"+@@@@@@@#)&;;,&;*;;-&>=,&=&>;>*-;&;,,&;>;;&&&&****'!!&*+@@@@@@@$",
"+@@@@@@@$@;>;&*;*&;-&,,,&-&,,>&,;*&,&!&>>;&&&&****'!!;*+@@@@@@@$",
"+@@@@@@@$*>>;**;;&;-;,--&=&--;-,*&*,&**>&>&&&&****!!!&*+@@@@@@@$",
"+@@@@@)@$*&>;!>;;&,-;---;=;--;-,*;&,;&*>*&&;&->***!!!&*+@@@@@@@$",
"+@@@@)@)$*&>;!>;>,,->---;=;--;,,&>&>>&!>*!&;&-;!**!!!**+@@@@@@@$",
"+@@@)@))$*&*;*>;>,,->-,-;,;,>,,,;>&>>;!;&!&;&-!!*>;!!&!+@@@@@@@$",
"@@@)@)@@$)&*;*>;>;>->-==>=>=->>,>;>>;;*;&!;&*-***>&'!*!+@@@@@@@$",
"+@@@@@@@#)*;;&;;;------->->----,-,;;;;*;&*;>;>*!!>''!;&!@@@@@@@$",
"@@@@@@@@$@*;;&,,,,,-,>>,>,>->,--,>,,&;*&&*;,&>;;&>'!!;&!@@@@@@@^",
"@@@@@@@@#@*&,&,>>;;-;>,,,,>-,,;,&&>,*;*&&&;>&>;&*>&'!;&+@@@@@@@$",
"@@@@@@@@$@&>>>,&;>-;,>-=,-,>,,;&;;&,&;&;*&;;&;&**&**&;&+@@@@@@@^",
"@@@@@@@@#*>;&,;&>,-;->-=-=,>,,,;,>>&>&;&;*>;&;&**&!!*;&+@@@@@@@$",
"@@@@@@@@#*;*;,&;,,-;->-=-=,,,,,,,>>&>&;&;*>&&;&**&!!&;@+@@@@@@@$",
"+@@@@@@@#*;;>,&;,,-;->-===,-,,,,,>>&>&;;&*>&&&****!!;;@+@@@@@@@$",
"@@@@@@@@#@&;>,&,,-,;-,,===-,>>,,,>>;>&;;&*;&&&****!!&&@+@@@@@@@$",
"+@@@@@@@#@&;>,&,,->;>-=====--->>>;>;>;;;&*;&->****!!&&@.@@@@@@@$",
"+@@@@@@@#@*;>>&,>--;--=-=---,,---,;;;;;;&&;&-;!**!!!*&@+@@@@@@@$",
"+@@@@@@@#@*;&;&,--,,->=>=>>->>,,->,,&;;&*&&&-!!*>;!!&&@.@@@@@@@$",
"+@@@@@@@#@*&,,&,,-;;>,=,=,,->>;>-&>,*&;&*;*-!***>&'!*&@+@@@@@@@^",
"+@@@@@@@#*>>>>&,;->>,-====--,,>;-;&>;&;&*;;-;*!!>''!;&!.@@@@@@@$",
"+@@@@@@@*>;>&&&,;-,----===--,,,;->;>;&;&*>;,&;;&>'!!;*!.@@@@@@@^",
"+@@@@@@@';&>;;&,;-,,---===--,,,>->>>>&;&*,&>&;&&>*'!;*@.@@@@@@@^",
"+@@@@@@@'&&>;>,,;-----====-,,,,,->;;;&;&*>&>*&*&>**&;*  @@@@@@@^",
"+@@@@@@''';>;>,,;,,-,,=,=,->>>,,>>>;;&;&*>&;*&**&*!*;''''@@@@@@^",
"@@@@'''*&'''''>,;>>,-=====-->>>>;;>>;;;&&;&;****&!'''''!*''@@@@^",
"+@$'''!!**&&;&''''''''''''''''''''''''''''''''''''*&&&**!!'''@@^",
"@@$#''''!!!!*&&;;>>,,,-------,-,,,,,>>;;;&&&&&&&&&&*!!!!'''##@@^",
"+@$$@@@''''''!!!****&&;&;;;;;;;&;&&&*&****!*!*!!!!!''''''@$$$@@^",
"@@@@@@@@@@@@''''!!*!!*!**!****!*!!**'!*!'!!!''''''''@@@@@@@$$@@^",
"$^^^^^^$^$^$$$$$$$^$^$/$/$////$/$$$$$$$$^$^$$^$^$^^^^^^$^$^//^^^"};
