/* XPM */
static char * exit2_xpm[] = {
"64 64 398 2",
"  	c None",
". 	c #1C1C1B",
"+ 	c #9F7315",
"@ 	c #855A00",
"# 	c #28221F",
"$ 	c #A08648",
"% 	c #4D5B5F",
"& 	c #809395",
"* 	c #8CA1A3",
"= 	c #8A9EA0",
"- 	c #8CA0A2",
"; 	c #6D8388",
"> 	c #788D90",
", 	c #83989A",
"' 	c #60787D",
") 	c #637A7F",
"! 	c #657D82",
"~ 	c #556569",
"{ 	c #43484A",
"] 	c #464D4F",
"^ 	c #454B4D",
"/ 	c #4E5A5D",
"( 	c #5C6F73",
"_ 	c #647C81",
": 	c #5D7175",
"< 	c #566669",
"[ 	c #536265",
"} 	c #536366",
"| 	c #546467",
"1 	c #839799",
"2 	c #647172",
"3 	c #576163",
"4 	c #5B6769",
"5 	c #5B6668",
"6 	c #515D5F",
"7 	c #546062",
"8 	c #586466",
"9 	c #4D595C",
"0 	c #4A5356",
"a 	c #454C4E",
"b 	c #485052",
"c 	c #4B5659",
"d 	c #4C5759",
"e 	c #495254",
"f 	c #495255",
"g 	c #495355",
"h 	c #474E50",
"i 	c #6F7E80",
"j 	c #5B6D71",
"k 	c #475356",
"l 	c #3E4244",
"m 	c #414648",
"n 	c #414749",
"o 	c #404749",
"p 	c #444A4C",
"q 	c #43494B",
"r 	c #41484A",
"s 	c #454A4C",
"t 	c #474F51",
"u 	c #444A4B",
"v 	c #454C4D",
"w 	c #454B4C",
"x 	c #536367",
"y 	c #526164",
"z 	c #43494A",
"A 	c #3E4547",
"B 	c #363235",
"C 	c #57696D",
"D 	c #536165",
"E 	c #42494B",
"F 	c #434547",
"G 	c #434447",
"H 	c #434648",
"I 	c #434A4B",
"J 	c #434749",
"K 	c #434A4C",
"L 	c #444C4D",
"M 	c #444B4D",
"N 	c #404143",
"O 	c #56666A",
"P 	c #363D3E",
"Q 	c #392D31",
"R 	c #424446",
"S 	c #3F4748",
"T 	c #323637",
"U 	c #332327",
"V 	c #342529",
"W 	c #34262A",
"X 	c #342428",
"Y 	c #342B2E",
"Z 	c #343A3B",
"` 	c #34272A",
" .	c #343738",
"..	c #343032",
"+.	c #342C2F",
"@.	c #343B3C",
"#.	c #333A3B",
"$.	c #3A4042",
"%.	c #394041",
"&.	c #343B3B",
"*.	c #42494A",
"=.	c #3A3135",
"-.	c #404042",
";.	c #373E3F",
">.	c #2E3334",
",.	c #100E0C",
"'.	c #131210",
").	c #141312",
"!.	c #141413",
"~.	c #141514",
"{.	c #151514",
"].	c #171716",
"^.	c #292A28",
"/.	c #403F41",
"(.	c #28181B",
"_.	c #283234",
":.	c #5D7378",
"<.	c #39474A",
"[.	c #232B2C",
"}.	c #212627",
"|.	c #222829",
"1.	c #23292A",
"2.	c #1B1F20",
"3.	c #1C2021",
"4.	c #17181A",
"5.	c #181A1C",
"6.	c #17191B",
"7.	c #161818",
"8.	c #131312",
"9.	c #18191B",
"0.	c #161819",
"a.	c #161718",
"b.	c #131211",
"c.	c #131311",
"d.	c #121211",
"e.	c #121210",
"f.	c #12110F",
"g.	c #161614",
"h.	c #414748",
"i.	c #403D40",
"j.	c #2B181C",
"k.	c #212A2B",
"l.	c #4B5E62",
"m.	c #313D3F",
"n.	c #202627",
"o.	c #1D2022",
"p.	c #1E2224",
"q.	c #1B1E20",
"r.	c #1E2123",
"s.	c #191B1E",
"t.	c #161717",
"u.	c #191B1D",
"v.	c #18191A",
"w.	c #161616",
"x.	c #151616",
"y.	c #11100F",
"z.	c #4A5658",
"A.	c #4B5457",
"B.	c #2D1F22",
"C.	c #141918",
"D.	c #273032",
"E.	c #202526",
"F.	c #1A1C1D",
"G.	c #17191A",
"H.	c #171819",
"I.	c #151515",
"J.	c #141412",
"K.	c #4F5E60",
"L.	c #4D585A",
"M.	c #464C4E",
"N.	c #2D1F23",
"O.	c #131615",
"P.	c #232829",
"Q.	c #1A1C1E",
"R.	c #181A1B",
"S.	c #121110",
"T.	c #0E0D0C",
"U.	c #4E5C5F",
"V.	c #4D575A",
"W.	c #131716",
"X.	c #242A2B",
"Y.	c #1B1D1F",
"Z.	c #191A1C",
"`.	c #141414",
" +	c #151513",
".+	c #10100E",
"++	c #000000",
"@+	c #4D5C5F",
"#+	c #242B2C",
"$+	c #171818",
"%+	c #191B1C",
"&+	c #2D2023",
"*+	c #111413",
"=+	c #040302",
"-+	c #4C5A5D",
";+	c #121514",
">+	c #1F2425",
",+	c #100E0D",
"'+	c #566A6E",
")+	c #515E61",
"!+	c #222728",
"~+	c #1A1D1F",
"{+	c #596D72",
"]+	c #526063",
"^+	c #101312",
"/+	c #100F0E",
"(+	c #4E5D60",
"_+	c #4D585B",
":+	c #5C7277",
"<+	c #546266",
"[+	c #404648",
"}+	c #2D3132",
"|+	c #0F0E0C",
"1+	c #60605F",
"2+	c #D7D7D7",
"3+	c #F7F7F7",
"4+	c #F4F4F4",
"5+	c #CECECE",
"6+	c #4C4C4C",
"7+	c #292929",
"8+	c #FFFFFF",
"9+	c #FBFBFB",
"0+	c #E1E1E1",
"a+	c #636362",
"b+	c #CBCBCB",
"c+	c #CACACA",
"d+	c #B4B4B4",
"e+	c #BCBCBC",
"f+	c #5C7378",
"g+	c #546366",
"h+	c #44494B",
"i+	c #2D282A",
"j+	c #101110",
"k+	c #2E2E2D",
"l+	c #ECECEC",
"m+	c #BFBFBF",
"n+	c #525252",
"o+	c #5B5B5B",
"p+	c #CFCFCF",
"q+	c #DEDEDE",
"r+	c #FCFCFC",
"s+	c #3D3D3C",
"t+	c #CCCCCC",
"u+	c #FAFAFA",
"v+	c #EBEBEB",
"w+	c #6F6F6F",
"x+	c #474F50",
"y+	c #404043",
"z+	c #2D2729",
"A+	c #909090",
"B+	c #E8E8E8",
"C+	c #313130",
"D+	c #F5F5F5",
"E+	c #6E6E6E",
"F+	c #3A3A39",
"G+	c #F8F8F8",
"H+	c #999999",
"I+	c #D9D9D9",
"J+	c #404849",
"K+	c #2D3434",
"L+	c #0F0D0C",
"M+	c #ABABAB",
"N+	c #D3D3D3",
"O+	c #E4E4E4",
"P+	c #8F8F8F",
"Q+	c #E2E2E2",
"R+	c #646464",
"S+	c #B2B2B2",
"T+	c #898988",
"U+	c #373F40",
"V+	c #2D3333",
"W+	c #100F0F",
"X+	c #919191",
"Y+	c #2D2D2D",
"Z+	c #808080",
"`+	c #E6E6E6",
" @	c #B5B5B5",
".@	c #EDEDED",
"+@	c #505050",
"@@	c #D4D4D4",
"#@	c #E7E7E7",
"$@	c #5A7075",
"%@	c #526165",
"&@	c #372A2E",
"*@	c #D8D8D8",
"=@	c #676767",
"-@	c #0D0A09",
";@	c #7A8E90",
">@	c #647274",
",@	c #404547",
"'@	c #373A3B",
")@	c #2C3232",
"!@	c #0E0C0A",
"~@	c #718589",
"{@	c #5F6D6F",
"]@	c #424749",
"^@	c #373739",
"/@	c #424A4B",
"(@	c #313738",
"_@	c #0F0D0B",
":@	c #667B7F",
"<@	c #58676A",
"[@	c #37272C",
"}@	c #484F51",
"|@	c #3A3F41",
"1@	c #0C0907",
"2@	c #0C0908",
"3@	c #677577",
"4@	c #3F4547",
"5@	c #37292D",
"6@	c #464E50",
"7@	c #373D3E",
"8@	c #0C0A08",
"9@	c #637174",
"0@	c #3B4042",
"a@	c #0B0906",
"b@	c #839698",
"c@	c #687678",
"d@	c #3A4041",
"e@	c #0C0906",
"f@	c #0D0A08",
"g@	c #819496",
"h@	c #0B0806",
"i@	c #090604",
"j@	c #829597",
"k@	c #0F0F0E",
"l@	c #3D4344",
"m@	c #1E1D1A",
"n@	c #070100",
"o@	c #0B0805",
"p@	c #0A0603",
"q@	c #090401",
"r@	c #0A0805",
"s@	c #050000",
"t@	c #1C160F",
"u@	c #647A7E",
"v@	c #576669",
"w@	c #444B4C",
"x@	c #3B4143",
"y@	c #465356",
"z@	c #3E4648",
"A@	c #414B4D",
"B@	c #445052",
"C@	c #3B4243",
"D@	c #455255",
"E@	c #475457",
"F@	c #455355",
"G@	c #52676B",
"H@	c #4A5A5D",
"I@	c #4B5C5F",
"J@	c #54696E",
"K@	c #53686C",
"L@	c #51666B",
"M@	c #5A6E72",
"N@	c #76888A",
"O@	c #768889",
"P@	c #768789",
"Q@	c #77888A",
"R@	c #738587",
"S@	c #586B6F",
"T@	c #4F5F62",
"U@	c #43474A",
"V@	c #546367",
"W@	c #484F52",
"X@	c #505C5F",
"Y@	c #4A5355",
"Z@	c #4C5658",
"`@	c #4E5A5C",
" #	c #505D5F",
".#	c #5A6B6F",
"+#	c #5B6D72",
"@#	c #5A6C71",
"##	c #596B6F",
"$#	c #607175",
"%#	c #768688",
"&#	c #758688",
"*#	c #738486",
"=#	c #5A6D71",
"-#	c #505E61",
";#	c #516063",
">#	c #424648",
",#	c #424447",
"'#	c #5B6E72",
")#	c #536266",
"!#	c #44494A",
"~#	c #424849",
"{#	c #3E4345",
"]#	c #3E4245",
"^#	c #414345",
"/#	c #58696D",
"(#	c #56676B",
"_#	c #3E3E40",
":#	c #382F33",
"<#	c #424547",
"[#	c #392E32",
"}#	c #414244",
"|#	c #362C2F",
"1#	c #384041",
". . + + + @ . # . . + + + + . . . . + + $ + . . . . + + $ + . . . . + + + @ . # . . + + + + . . . . + + $ + . . . . + + $ + . . ",
". + $ + @ . . . . + $ + + . . . . @ + $ + . . . . + + $ + . . . . + $ + @ . . . . + $ + + . . . . @ + $ + . . . . + + $ + . . . ",
"+ $ + @ . . . . + $ + + . . . . @ + $ + # . . . + + $ + . . . . + $ + @ . . . . + $ + + . . . . @ + $ + # . . . + + $ + . . . . ",
"+ + @ . . . . + + + + . . . . + + + + # . . . @ + + + . . . . + + + @ . . . . + + + + . . . . + + + + # . . . @ + + + . . . . + ",
"+ + . . . # + + + + . . . . + + + @ . . . . @ + + + . . . . + + + + . . . # + + + + . . . . + + + @ . . . . @ + + + . . . . + + ",
"+ . . . # + + + @ . . . . + + + @ . . . . @ + + + . . . . + + + + . . . # + + + @ . . . . + + + @ . . . . @ + + + . . . . + + + ",
". . . . + + + @ . . . . + + + @ . . . . + + $ + . . . . + + + + . . . . + + + @ . . . . + + + @ . . . . + + $ + . . . . + + + + ",
". . . + + + @ . . . . + + + @ . . . . + + $ + . . . . @ + + + . . . . + + + @ . . . . + + + @ . . . . + + $ + . . . . @ + + + . ",
". . + + $ + . . . . + + + @ . # . . + + + + . . . . + + $ + . . . . + + $ + . . . . + + + @ . # . . + + + + . . . . + + $ + . . ",
". + + $ + . . . . + $ + @ . . . . + $ + + . . . . @ + $ + . . . . + + $ + . . . . + $ + @ . . . . + $ + + . . . . @ + $ + . . . ",
"+ + $ + . . . . + $ + @ . . . . + $ + + . . . . @ + $ + # . . . + + $ + . . . . + $ + @ . . . . + $ + + . . . . @ + $ + # . . . ",
"+ + + . . . . + + + @ . . . . + + + + . . . . + + + + # . . . @ + + + . . . . + + + @ . . . . + + + + . . . . + + + + # . . . @ ",
"+ + . . . . + + + + . . . # + + + + . . . . + + + @ . . . . @ + + + . . . . + + + + . . . # + + + + . . . . + + + @ . . . . @ + ",
"+ . . . . + + + + % & * = = = - ; > , ' ) ) ) ) ) ) ) ! ~ { ] ] ^ / ( _ ) ) ) _ : < ) ~ [ } } } } } | / ^ ] + + @ . . . . @ + + ",
". . . . + + + + . 1 2 3 4 5 5 4 6 7 8 9 / / / / / / / / 0 a ] ] ] b c / / / / / d 0 / 0 e f f f f g b ] ] h + @ . . . . + + $ + ",
". . . @ + $ + . . i j k l m n o p q r ^ ^ ^ ^ ^ ^ s ^ s ] t h h h ] ^ s s s u p ^ ^ s ^ a a a v v w x y z A @ . . . . + + $ + . ",
". . + + $ + . . . B C D q E F F F F F F F F F G H I F q J H K K K K K K I I h L M h K h t h h h h N ~ O m P . # . . + + + + . . ",
". @ + $ + . . . . Q R ] S T U V V V V V V V W X Y Z `  ...+.@.Z Z Z Z Z Z #.o $.%.o &.n E *.*.E K =.-.] K ;.. . . + $ + + . . . ",
"@ + $ + # . . . + ] h o >.,.'.).!.!.!.!.!.!.!.!.!.~.!.!.!.!.~.~.~.~.~.~.~.~.{.{.{.{.~.{.{.{.!.].^.q h h K ;.. . + $ + + . . . . ",
"+ + + # . . . @ + ] t /.(._.:.<.[.}.|.|.|.1.2.3.}.4.5.6.5.7.8.9.8.0.a.b.c.c.d.b.b.d.c.d.e.d.e.f.g.h.h h K ;.. + + + + . . . . + ",
"+ @ . . . . @ + + ] t i.j.k.l.m.n.o.p.p.p.p.q.q.r.s.t.u.9.a.v.t.!.w.x.!.!.!.!.!.!.!.!.!.!.!.!.e.y.z.A.] K ;.+ + + + . . . . + + ",
"@ . . . . @ + + + ] t i.B.C.D.E.F.9.5.5.5.5.G.G.5.H.a.H.I.I.H.).!.J.J.!.!.!.!.!.!.!.!.!.!.!.!.e.b.K.L.M.K ;.+ + @ . . . . + + + ",
". . . . + + $ + . ] t i.N.O.P.Q.5.u.u.R.u.5.t.a.G.J.5.I.).!.).!.!.!.!.!.!.!.!.!.!.!.!.!.!.!.!.S.T.U.V.M.K ;.+ @ . . . . + + + @ ",
". . . + + $ + . . ] t i.B.W.X.Y.Z.u.G.`.u.{.G.G.8.!.!.!.!.!.!.!.!.!.!.!.!.!.!.!.!.!.!.!.!.!. +.+++@+V.M.K ;.@ . . . . + + + @ . ",
". . + + + + . . . ] t i.B.W.#+Y.u.$+x.%+{.!.`.`.!.!.!.!.!.!.!.!.!.!.!.!.!.!.!.!.!.!.!.!.!.!.!.S.f.U.V.M.K ;.. . . . + + + @ . # ",
". + $ + + . . . . ] t i.&+*+q.Q.t.a.v.x.!.!.!.!.!.!.!.!.!.!.!.!.!.!.!.!.!.!.!.!.!.!.!.!.!.!.!.y.=+-+d M.K ;.. . . + $ + @ . . . ",
"+ $ + + . . . . @ ] t i.N.;+>+Q.4.H.t.).!.!.!.!.!.!.!.!.!.!.!.!.!.!.!.!.!.!.!.!.!.!.!.!.!.!.{.,+++'+)+w K ;.. . + $ + @ . . . . ",
"+ + + . . . . + + ] t i.N.O.!+~+5.t.8.!.!.!.!.!.!.!.!.!.!.!.!.!.!.!.!.!.!.!.!.!.!.!.!.!.!.!.{.,+++{+]+s K ;.. + + + @ . . . . + ",
"+ + . . . . + + + ] t i.&+^+5.u.x.).!.!.!.!.!.!.!.!.!.!.!.!.!.!.!.!.!.!.!.!.!.!.!.!.!.!.!.!.{./+++(+_+M.K ;.+ + + + . . . # + + ",
"@ . . . . + + + @ ] t i.N.^+u.{.!.!.!.!.!.!.!.!.!.!.!.!.!.!.!.!.!.!.!.!.!.!.!.!.!.!.!.!.!.!.{.,.++:+<+u K ;.+ + + . . . # + + + ",
". . . . + + + @ . ] h [+}+|+{.5.w.1+2+3+4+5+6+!.7+8+8+9+0+a+7+8+8+8+8+b+7+8+c+!.!.d+e+!.!.!.{.|+++f+g+h+K ;.+ + . . . . + $ + @ ",
". . . + + + @ . . ] h N i+j+G.a.k+l+m+n+o+p+q+!.7+r+!.s+t+b+7+r+!.!.!.!.7+u+v+w+!.d+e+!.!.!.{.|+++:+g+h+K ;.+ . . . . + $ + @ . ",
". . + + + @ . # . ] x+y+z+j+G.a.A+B+!.!.!.C+D+E+7+r+!.F+b+b+7+r+!.!.!.!.7+G+H+I+!.d+e+!.!.!.{.|+++:+g+h+K ;.. . . . + + $ + . . ",
". + $ + @ . . . . ] h J+K+L+I.5.M+N+!.!.!.!.O+P+7+8+8+9+Q+R+7+8+8+8+8+S+7+G+!.Q+T+d+e+!.!.!.{.|+++:+g+h+K U+. . . + + $ + . . . ",
"+ $ + @ . . . . + ] h o V+W+u.{.X+B+!.!.!.Y+D+E+7+r+!.!.!.!.7+r+!.!.!.!.7+G+!.Z+`+ @e+!.!.!.{.,.++:+g+u K ;.. . + + $ + . . . . ",
"+ + @ . . . . + + ] h o V+|+`.!.C+.@m++@o+p+q+!.7+r+!.!.!.!.7+r+!.!.!.!.7+G+!.!.@@#@e+!.!.!.{.,.++$@%@s J &@. @ + + + . . . . + ",
"+ + . . . # + + + ] h o V+/+9.~.!.a+*@3+4+5+6+!.7+r+!.!.!.!.7+8+8+8+8+2+7+G+!.!.=@r+e+!.!.!.{.-@++;@>@,@q '@@ + + + . . . . + + ",
"+ . . . # + + + @ ] h S )@/+H.~.!.!.!.!.!.!.!.!.!.!.!.!.!.!.!.!.!.!.!.!.!.!.!.!.!.!.!.!.!.!.{.!@++~@{@]@q ^@+ + + . . . . + + + ",
". . . . + + + @ . ] h /@(@!@).!.!.!.!.!.!.!.!.!.!.!.!.!.!.!.!.!.!.!.!.!.!.!.!.!.!.!.!.!.!.!.{._@++:@<@q J [@$ + . . . . + + + + ",
". . . + + + @ . . ] ] }@|@1@!.!.!.!.!.!.!.!.!.!.!.!.!.!.!.!.!.!.!.!.!.!.!.!.!.!.!.!.!.!.!.!.{.2@++& 3@4@J 5@+ . . . . @ + + + . ",
". . + + $ + . . . ] h o >.|+!.!.!.!.!.!.!.!.!.!.!.!.!.!.!.!.!.!.!.!.!.!.!.!.!.!.!.!.!.!.!.!.{.|+++:.g+p J 5@. . . . + + $ + . . ",
". + + $ + . . . . ] ] 6@7@8@!.!.!.!.!.!.!.!.!.!.!.!.!.!.!.!.!.!.!.!.!.!.!.!.!.!.!.!.!.!.!.!.{.-@++;@9@[+J 5@. . . @ + $ + . . . ",
"+ + $ + . . . . + ] ] b 0@a@!.!.!.!.!.!.!.!.!.!.!.!.!.!.!.!.!.!.!.!.!.!.!.!.!.!.!.!.!.!.!.!.{.1@++b@c@4@J 5@. . @ + $ + # . . . ",
"+ + + . . . . + + ] ] }@d@e@!.!.!.!.!.!.!.!.!.!.!.!.!.!.!.!.!.!.!.!.!.!.!.!.!.!.!.!.!.!.!.!.{.f@++g@3@4@J 5@. + + + + # . . . @ ",
"+ + . . . . + + + ] ] }@d@h@!.!.!.!.!.!.!.!.!.!.!.!.!.!.!.!.!.!.!.!.!.!.!.!.!.!.!.!.!.!.!.!.!.i@++j@c@4@J 5@+ + + @ . . . . @ + ",
"+ . . . . + + + + ] ] }@d@1@!.!.!.!.!.!.!.!.!.!.!.!.!.!.!.!.!.!.!.!.!.!.!.!.!.!.!.!.!.!.!.{.k@++++g@3@4@J 5@+ + @ . . . . @ + + ",
". . . . + + + + . ] ] }@l@m@1@n@o@p@q@r@++s@++++++++++++++++++++++++++++++++++++++++++++++++++++t@u@v@q J 5@+ @ . . . . + + $ + ",
". . . @ + $ + . . ] h+^ w@l@x@y@z@A@B@C@D@E@y@F@F@F@F@F@F@F@D@F@G@H@I@J@K@K@K@K@L@M@N@O@P@P@Q@R@S@T@t p U@5@@ . . . . + + $ + . ",
". . + + $ + . . . ] V@/ ^ }@W@X@Y@Z@`@b X@ # # # # # # # # #X@ #.#[ V@+#@#@#@#@###$#%#%#&#&#P@*#=#6@-#;#>#[@. # . . + + + + . . ",
". @ + $ + . . . . ,#'#)#h+] ] ^ ] a a ] ^ ^ ^ ^ ^ ^ ^ ^ ^ ^ ^ ^ !#s p { z z z z !#~#{#{#{#{#]#{#{ ^#/#(#_#:#. . . + $ + + . . . ",
"@ + $ + # . . . + [@<#] ] ] ] ] ] ] ] ] ] ] ] ] ] ] ] ] ] ] ] ] ] ] ] ] ] ] ] ] ] ] ] ] ] ] ] ] ] [#}#-.|#1#. . + $ + + . . . . ",
"+ + + # . . . @ + + + . . . . + + + @ . . . . + + + + . . . . + + + + # . . . @ + + + . . . . + + + @ . . . . + + + + . . . . + ",
"+ @ . . . . @ + + + . . . . + + + + . . . # + + + + . . . . + + + @ . . . . @ + + + . . . . + + + + . . . # + + + + . . . . + + ",
"@ . . . . @ + + + . . . . + + + + . . . # + + + @ . . . . + + + @ . . . . @ + + + . . . . + + + + . . . # + + + @ . . . . + + + ",
". . . . + + $ + . . . . + + $ + . . . . + + + @ . . . . + + + @ . . . . + + $ + . . . . + + $ + . . . . + + + @ . . . . + + + @ ",
". . . + + $ + . . . . @ + $ + . . . . + + + @ . . . . + + + @ . . . . + + $ + . . . . @ + $ + . . . . + + + @ . . . . + + + @ . ",
". . + + + + . . . . + + $ + . . . . + + $ + . . . . + + + @ . # . . + + + + . . . . + + $ + . . . . + + $ + . . . . + + + @ . # ",
". + $ + + . . . . @ + $ + . . . . + + $ + . . . . + $ + @ . . . . + $ + + . . . . @ + $ + . . . . + + $ + . . . . + $ + @ . . . ",
"+ $ + + . . . . @ + $ + # . . . + + $ + . . . . + $ + @ . . . . + $ + + . . . . @ + $ + # . . . + + $ + . . . . + $ + @ . . . . ",
"+ + + . . . . + + + + # . . . @ + + + . . . . + + + @ . . . . + + + + . . . . + + + + # . . . @ + + + . . . . + + + @ . . . . + ",
"+ + . . . . + + + @ . . . . @ + + + . . . . + + + + . . . # + + + + . . . . + + + @ . . . . @ + + + . . . . + + + + . . . # + + ",
"@ . . . . + + + @ . . . . @ + + + . . . . + + + + . . . # + + + @ . . . . + + + @ . . . . @ + + + . . . . + + + + . . . # + + + ",
". . . . + + + @ . . . . + + $ + . . . . + + + + . . . . + $ + @ . . . . + + + @ . . . . + + $ + . . . . + + + + . . . . + $ + @ ",
". . . + + + @ . . . . + + $ + . . . . @ $ + + . . . . + $ + @ . . . . + + + @ . . . . + + $ + . . . . @ $ + + . . . . + $ + @ . "};
