/* XPM */
static char * entree_xpm[] = {
"64 64 410 2",
"  	c None",
". 	c #141413",
"+ 	c #911C1B",
"@ 	c #792429",
"# 	c #1C1C1B",
"$ 	c #AE260B",
"% 	c #4D5B5F",
"& 	c #809395",
"* 	c #8CA1A3",
"= 	c #8A9EA0",
"- 	c #8CA0A2",
"; 	c #6D8388",
"> 	c #788D90",
", 	c #83989A",
"' 	c #60787D",
") 	c #637A7F",
"! 	c #657D82",
"~ 	c #556569",
"{ 	c #43484A",
"] 	c #464D4F",
"^ 	c #454B4D",
"/ 	c #4E5A5D",
"( 	c #5C6F73",
"_ 	c #647C81",
": 	c #5D7175",
"< 	c #566669",
"[ 	c #536265",
"} 	c #536366",
"| 	c #546467",
"1 	c #839799",
"2 	c #647172",
"3 	c #576163",
"4 	c #5B6769",
"5 	c #5B6668",
"6 	c #515D5F",
"7 	c #546062",
"8 	c #586466",
"9 	c #4D595C",
"0 	c #4A5356",
"a 	c #454C4E",
"b 	c #485052",
"c 	c #4B5659",
"d 	c #4C5759",
"e 	c #495254",
"f 	c #495255",
"g 	c #495355",
"h 	c #474E50",
"i 	c #6F7E80",
"j 	c #5B6D71",
"k 	c #475356",
"l 	c #3E4244",
"m 	c #414648",
"n 	c #414749",
"o 	c #404749",
"p 	c #444A4C",
"q 	c #43494B",
"r 	c #41484A",
"s 	c #454A4C",
"t 	c #474F51",
"u 	c #444A4B",
"v 	c #454C4D",
"w 	c #454B4C",
"x 	c #536367",
"y 	c #526164",
"z 	c #43494A",
"A 	c #3E4547",
"B 	c #363235",
"C 	c #57696D",
"D 	c #536165",
"E 	c #42494B",
"F 	c #434547",
"G 	c #434447",
"H 	c #434648",
"I 	c #434A4B",
"J 	c #434749",
"K 	c #434A4C",
"L 	c #444C4D",
"M 	c #444B4D",
"N 	c #404143",
"O 	c #56666A",
"P 	c #363D3E",
"Q 	c #392D31",
"R 	c #424446",
"S 	c #3F4748",
"T 	c #323637",
"U 	c #332327",
"V 	c #342529",
"W 	c #34262A",
"X 	c #342428",
"Y 	c #342B2E",
"Z 	c #343A3B",
"` 	c #34272A",
" .	c #343738",
"..	c #343032",
"+.	c #342C2F",
"@.	c #343B3C",
"#.	c #333A3B",
"$.	c #3A4042",
"%.	c #394041",
"&.	c #343B3B",
"*.	c #42494A",
"=.	c #3A3135",
"-.	c #404042",
";.	c #373E3F",
">.	c #2E3334",
",.	c #100E0C",
"'.	c #131210",
").	c #141312",
"!.	c #141514",
"~.	c #151514",
"{.	c #171716",
"].	c #292A28",
"^.	c #403F41",
"/.	c #28181B",
"(.	c #283234",
"_.	c #5D7378",
":.	c #39474A",
"<.	c #232B2C",
"[.	c #212627",
"}.	c #222829",
"|.	c #23292A",
"1.	c #1B1F20",
"2.	c #1C2021",
"3.	c #17181A",
"4.	c #181A1C",
"5.	c #17191B",
"6.	c #161818",
"7.	c #131312",
"8.	c #18191B",
"9.	c #161819",
"0.	c #161718",
"a.	c #131211",
"b.	c #131311",
"c.	c #121211",
"d.	c #121210",
"e.	c #12110F",
"f.	c #161614",
"g.	c #414748",
"h.	c #403D40",
"i.	c #2B181C",
"j.	c #212A2B",
"k.	c #4B5E62",
"l.	c #313D3F",
"m.	c #202627",
"n.	c #1D2022",
"o.	c #1E2224",
"p.	c #1B1E20",
"q.	c #1E2123",
"r.	c #191B1E",
"s.	c #161717",
"t.	c #191B1D",
"u.	c #18191A",
"v.	c #161616",
"w.	c #151616",
"x.	c #11100F",
"y.	c #4A5658",
"z.	c #4B5457",
"A.	c #2D1F22",
"B.	c #141918",
"C.	c #273032",
"D.	c #202526",
"E.	c #1A1C1D",
"F.	c #17191A",
"G.	c #171819",
"H.	c #151515",
"I.	c #141412",
"J.	c #4F5E60",
"K.	c #4D585A",
"L.	c #464C4E",
"M.	c #2D1F23",
"N.	c #131615",
"O.	c #232829",
"P.	c #1A1C1E",
"Q.	c #181A1B",
"R.	c #121110",
"S.	c #0E0D0C",
"T.	c #4E5C5F",
"U.	c #4D575A",
"V.	c #131716",
"W.	c #242A2B",
"X.	c #1B1D1F",
"Y.	c #191A1C",
"Z.	c #141414",
"`.	c #151513",
" +	c #10100E",
".+	c #000000",
"++	c #4D5C5F",
"@+	c #242B2C",
"#+	c #171818",
"$+	c #191B1C",
"%+	c #2D2023",
"&+	c #111413",
"*+	c #040302",
"=+	c #4C5A5D",
"-+	c #121514",
";+	c #1F2425",
">+	c #100E0D",
",+	c #566A6E",
"'+	c #515E61",
")+	c #222728",
"!+	c #1A1D1F",
"~+	c #596D72",
"{+	c #526063",
"]+	c #101312",
"^+	c #100F0E",
"/+	c #4E5D60",
"(+	c #4D585B",
"_+	c #5C7277",
":+	c #546266",
"<+	c #404648",
"[+	c #2D3132",
"}+	c #0F0E0C",
"|+	c #5D5D5D",
"1+	c #D3D3D3",
"2+	c #F4F4F4",
"3+	c #F6F6F6",
"4+	c #CFCFCF",
"5+	c #4A4A4A",
"6+	c #292929",
"7+	c #FCFCFC",
"8+	c #60605F",
"9+	c #D7D7D7",
"0+	c #F7F7F7",
"a+	c #CECECE",
"b+	c #4C4C4C",
"c+	c #C0C0C0",
"d+	c #F5F5F5",
"e+	c #C8C8C8",
"f+	c #3F3F3F",
"g+	c #FFFFFF",
"h+	c #CBCBCB",
"i+	c #5C7378",
"j+	c #546366",
"k+	c #44494B",
"l+	c #2D282A",
"m+	c #101110",
"n+	c #2E2F2F",
"o+	c #EBEBEB",
"p+	c #C2C2C2",
"q+	c #5B5B5B",
"r+	c #4E4E4E",
"s+	c #A5A5A5",
"t+	c #A4A4A4",
"u+	c #2D2D2D",
"v+	c #ECECEC",
"w+	c #BFBFBF",
"x+	c #525252",
"y+	c #DEDEDE",
"z+	c #8B8B8A",
"A+	c #F0F0F0",
"B+	c #6F6F6F",
"C+	c #ADADAD",
"D+	c #999999",
"E+	c #474F50",
"F+	c #404043",
"G+	c #2D2729",
"H+	c #909091",
"I+	c #E8E8E8",
"J+	c #909090",
"K+	c #313130",
"L+	c #6E6E6E",
"M+	c #7C7C7C",
"N+	c #E6E6E6",
"O+	c #3A3A39",
"P+	c #404849",
"Q+	c #2D3434",
"R+	c #0F0D0C",
"S+	c #ABABAB",
"T+	c #AAAAAA",
"U+	c #E4E4E4",
"V+	c #8F8F8F",
"W+	c #969695",
"X+	c #D0D0D0",
"Y+	c #D1D1D1",
"Z+	c #484848",
"`+	c #B2B2B2",
" @	c #373F40",
".@	c #2D3333",
"+@	c #100F0F",
"@@	c #919191",
"#@	c #EDEDED",
"$@	c #505050",
"%@	c #B9B9B9",
"&@	c #464646",
"*@	c #C6C6C6",
"=@	c #DBDBDB",
"-@	c #5A7075",
";@	c #526165",
">@	c #372A2E",
",@	c #5D5D5C",
"'@	c #636362",
")@	c #D8D8D8",
"!@	c #343434",
"~@	c #BDBDBD",
"{@	c #F2F2F2",
"]@	c #FAFAFA",
"^@	c #E2E2E2",
"/@	c #747474",
"(@	c #0D0A09",
"_@	c #7A8E90",
":@	c #647274",
"<@	c #404547",
"[@	c #373A3B",
"}@	c #2C3232",
"|@	c #0E0C0A",
"1@	c #718589",
"2@	c #5F6D6F",
"3@	c #424749",
"4@	c #373739",
"5@	c #424A4B",
"6@	c #313738",
"7@	c #0F0D0B",
"8@	c #667B7F",
"9@	c #58676A",
"0@	c #37272C",
"a@	c #484F51",
"b@	c #3A3F41",
"c@	c #0C0907",
"d@	c #0C0908",
"e@	c #677577",
"f@	c #3F4547",
"g@	c #37292D",
"h@	c #464E50",
"i@	c #373D3E",
"j@	c #0C0A08",
"k@	c #637174",
"l@	c #3B4042",
"m@	c #0B0906",
"n@	c #839698",
"o@	c #687678",
"p@	c #3A4041",
"q@	c #0C0906",
"r@	c #0D0A08",
"s@	c #819496",
"t@	c #0B0806",
"u@	c #090604",
"v@	c #829597",
"w@	c #0F0F0E",
"x@	c #3D4344",
"y@	c #1E1D1A",
"z@	c #070100",
"A@	c #0B0805",
"B@	c #0A0603",
"C@	c #090401",
"D@	c #0A0805",
"E@	c #050000",
"F@	c #1C160F",
"G@	c #647A7E",
"H@	c #576669",
"I@	c #444B4C",
"J@	c #3B4143",
"K@	c #465356",
"L@	c #3E4648",
"M@	c #414B4D",
"N@	c #445052",
"O@	c #3B4243",
"P@	c #455255",
"Q@	c #475457",
"R@	c #455355",
"S@	c #52676B",
"T@	c #4A5A5D",
"U@	c #4B5C5F",
"V@	c #54696E",
"W@	c #53686C",
"X@	c #51666B",
"Y@	c #5A6E72",
"Z@	c #76888A",
"`@	c #768889",
" #	c #768789",
".#	c #77888A",
"+#	c #738587",
"@#	c #586B6F",
"##	c #4F5F62",
"$#	c #43474A",
"%#	c #546367",
"&#	c #484F52",
"*#	c #505C5F",
"=#	c #4A5355",
"-#	c #4C5658",
";#	c #4E5A5C",
">#	c #505D5F",
",#	c #5A6B6F",
"'#	c #5B6D72",
")#	c #5A6C71",
"!#	c #596B6F",
"~#	c #607175",
"{#	c #768688",
"]#	c #758688",
"^#	c #738486",
"/#	c #5A6D71",
"(#	c #505E61",
"_#	c #516063",
":#	c #424648",
"<#	c #424447",
"[#	c #5B6E72",
"}#	c #536266",
"|#	c #44494A",
"1#	c #424849",
"2#	c #3E4345",
"3#	c #3E4245",
"4#	c #414345",
"5#	c #58696D",
"6#	c #56676B",
"7#	c #3E3E40",
"8#	c #382F33",
"9#	c #424547",
"0#	c #392E32",
"a#	c #414244",
"b#	c #362C2F",
"c#	c #384041",
". . + + + @ . # . . + + + + . . . . + + $ + . . . . + + $ + . . . . + + + @ . # . . + + + + . . . . + + $ + . . . . + + $ + . . ",
". + $ + @ . . . . + $ + + . . . . @ + $ + . . . . + + $ + . . . . + $ + @ . . . . + $ + + . . . . @ + $ + . . . . + + $ + . . . ",
"+ $ + @ . . . . + $ + + . . . . @ + $ + # . . . + + $ + . . . . + $ + @ . . . . + $ + + . . . . @ + $ + # . . . + + $ + . . . . ",
"+ + @ . . . . + + + + . . . . + + + + # . . . @ + + + . . . . + + + @ . . . . + + + + . . . . + + + + # . . . @ + + + . . . . + ",
"+ + . . . # + + + + . . . . + + + @ . . . . @ + + + . . . . + + + + . . . # + + + + . . . . + + + @ . . . . @ + + + . . . . + + ",
"+ . . . # + + + @ . . . . + + + @ . . . . @ + + + . . . . + + + + . . . # + + + @ . . . . + + + @ . . . . @ + + + . . . . + + + ",
". . . . + + + @ . . . . + + + @ . . . . + + $ + . . . . + + + + . . . . + + + @ . . . . + + + @ . . . . + + $ + . . . . + + + + ",
". . . + + + @ . . . . + + + @ . . . . + + $ + . . . . @ + + + . . . . + + + @ . . . . + + + @ . . . . + + $ + . . . . @ + + + . ",
". . + + $ + . . . . + + + @ . # . . + + + + . . . . + + $ + . . . . + + $ + . . . . + + + @ . # . . + + + + . . . . + + $ + . . ",
". + + $ + . . . . + $ + @ . . . . + + + @ . . . . @ + $ + . . . . + + $ + . . . . + $ + @ . . . . + + + @ . . . . @ + $ + . . . ",
"+ + $ + . . . . + $ + @ . . . . + + + @ . . . . @ + $ + # . . . + + $ + . . . . + $ + @ . . . . + + + @ . . . . @ + $ + # . . . ",
"+ + + . . . . + + + @ . . . . + + + @ . . . . + + + + # . . . @ + + + . . . . + + + @ . . . . + + + @ . . . . + + + + # . . . @ ",
"+ + . . . . + + + + . . . # + + + @ . . . . + + + @ . . . . @ + + + . . . . + + + + . . . # + + + @ . . . . + + + @ . . . . @ + ",
"+ . . . . + + + @ % & * = = = - ; > , ' ) ) ) ) ) ) ) ! ~ { ] ] ^ / ( _ ) ) ) _ : < ) ~ [ } } } } } | / ^ ] + + @ . . . . @ + + ",
". . . . + + + @ . 1 2 3 4 5 5 4 6 7 8 9 / / / / / / / / 0 a ] ] ] b c / / / / / d 0 / 0 e f f f f g b ] ] h + @ . . . . + + $ + ",
". . . @ + $ + . . i j k l m n o p q r ^ ^ ^ ^ ^ ^ s ^ s ] t h h h ] ^ s s s u p ^ ^ s ^ a a a v v w x y z A @ . . . . + + $ + . ",
". . + + $ + . . . B C D q E F F F F F F F F F G H I F q J H K K K K K K I I h L M h K h t h h h h N ~ O m P . # . . + + + + . . ",
". @ + $ + . . . . Q R ] S T U V V V V V V V W X Y Z `  ...+.@.Z Z Z Z Z Z #.o $.%.o &.n E *.*.E K =.-.] K ;.. . . + $ + + . . . ",
"@ + $ + # . . . + ] h o >.,.'.).. . . . . . . . . !.. . . . !.!.!.!.!.!.!.!.~.~.~.~.!.~.~.~.. {.].q h h K ;.. . + $ + + . . . . ",
"+ + + # . . . @ + ] t ^./.(._.:.<.[.}.}.}.|.1.2.[.3.4.5.4.6.7.8.7.9.0.a.b.b.c.a.a.c.b.c.d.c.d.e.f.g.h h K ;.. + + + + . . . . + ",
"+ @ . . . . @ + + ] t h.i.j.k.l.m.n.o.o.o.o.p.p.q.r.s.t.8.0.u.s.. v.w.. . . . . . . . . . . . d.x.y.z.] K ;.+ + + @ . . . . + + ",
"@ . . . . @ + + + ] t h.A.B.C.D.E.8.4.4.4.4.F.F.4.G.0.G.H.H.G.).. I.I.. . . . . . . . . . . . d.a.J.K.L.K ;.+ + @ . . . . + + + ",
". . . . + + + + . ] t h.M.N.O.P.4.t.t.Q.t.4.s.0.F.I.4.H.).. ).. . . . . . . . . . . . . . . . R.S.T.U.L.K ;.+ @ . . . . + + + @ ",
". . . + + + + . . ] t h.A.V.W.X.Y.t.F.Z.t.~.F.F.7.. . . . . . . . . . . . . . . . . . . . . `. +.+++U.L.K ;.@ . . . . + + + @ . ",
". . + + + + . . . ] t h.A.V.@+X.t.#+w.$+~.. Z.Z.. . . . . . . . . . . . . . . . . . . . . . . R.e.T.U.L.K ;.. . . . + + + @ . # ",
". + $ + + . . . . ] t h.%+&+p.P.s.0.u.w.. . . . . . . . . . . . . . . . . . . . . . . . . . . x.*+=+d L.K ;.. . . + + + @ . . . ",
"+ $ + + . . . . @ ] t h.M.-+;+P.3.G.s.).. . . . . . . . . . . . . . . . . . . . . . . . . . ~.>+.+,+'+w K ;.. . + + + @ . . . . ",
"+ + + . . . . + + ] t h.M.N.)+!+4.s.7.. . . . . . . . . . . . . . . . . . . . . . . . . . . ~.>+.+~+{+s K ;.. + + + @ . . . . + ",
"+ + . . . . + + + ] t h.%+]+4.t.w.).. . . . . . . . . . . . . . . . . . . . . . . . . . . . ~.^+.+/+(+L.K ;.+ + + + . . . # + + ",
"@ . . . . + + + @ ] t h.M.]+t.~.. . . . . . . . . . . . . . . . . . . . . . . . . . . . . . ~.,..+_+:+u K ;.+ + + . . . # + + + ",
". . . . + + + @ . ] h <+[+}+~.4.|+1+2+3+4+5+6+7+. . . . 8+9+0+2+a+b+. . c+d+0+e+f+6+g+g+g+g+h+}+.+i+j+k+K ;.+ + . . . . + $ + @ ",
". . . + + + @ . . ] h N l+m+F.n+o+p+q+r+s+t+6+7+. . . u+v+w+x+q+4+y+. z+A+B+5+C+D+6+7+. . . ~.}+.+_+j+k+K ;.+ . . . . + $ + @ . ",
". . + + + @ . # . ] E+F+G+m+F.H+I+. . . . . 6+7+. . . J+I+. . . K+d+L+M+N+O+. . . 6+7+. . . ~.}+.+_+j+k+K ;.. . . . + + $ + . . ",
". + $ + @ . . . . ] h P+Q+R+H.S+1+I.. . . . 6+7+. . . T+1+. . . . U+V+. W+X+Y+c+Z+6+g+g+g+g+`+}+.+_+j+k+K  @. . . + + $ + . . . ",
"+ $ + @ . . . . + ] h o .@+@t.J+I+. . . . . 6+7+. . . @@I+. . . u+d+L+. . . . C+Y+6+7+. . . ~.,..+_+j+u K ;.. . + + $ + . . . . ",
"+ + @ . . . . + + ] h o .@}+Z.u+o+p+q+r+s+t+6+7+. . . K+#@w+$@q+4+y+. @@%@8+&@*@=@6+7+. . . ~.,..+-@;@s J >@. @ + + + . . . . + ",
"+ + . . . # + + + ] h o .@^+8.!.,@1+2+0+a+5+6+g+g+g+g+w+'@)@0+2+a+b+. !@~@{@]@^@/@6+g+g+g+g+9+(@.+_@:@<@q [@@ + + + . . . . + + ",
"+ . . . # + + + @ ] h S }@^+G.!.. . . . . . . . . . . . . . . . . . . . . . . . . . . . . . ~.|@.+1@2@3@q 4@+ + + . . . . + + + ",
". . . . + + + @ . ] h 5@6@|@).. . . . . . . . . . . . . . . . . . . . . . . . . . . . . . . ~.7@.+8@9@q J 0@$ + . . . . + + + + ",
". . . + + + @ . . ] ] a@b@c@. . . . . . . . . . . . . . . . . . . . . . . . . . . . . . . . ~.d@.+& e@f@J g@+ . . . . @ + + + . ",
". . + + $ + . . . ] h o >.}+. . . . . . . . . . . . . . . . . . . . . . . . . . . . . . . . ~.}+.+_.j+p J g@. . . . + + $ + . . ",
". + + $ + . . . . ] ] h@i@j@. . . . . . . . . . . . . . . . . . . . . . . . . . . . . . . . ~.(@.+_@k@<+J g@. . . @ + $ + . . . ",
"+ + $ + . . . . + ] ] b l@m@. . . . . . . . . . . . . . . . . . . . . . . . . . . . . . . . ~.c@.+n@o@f@J g@. . @ + $ + # . . . ",
"+ + + . . . . + + ] ] a@p@q@. . . . . . . . . . . . . . . . . . . . . . . . . . . . . . . . ~.r@.+s@e@f@J g@. + + + + # . . . @ ",
"+ + . . . . + + + ] ] a@p@t@. . . . . . . . . . . . . . . . . . . . . . . . . . . . . . . . . u@.+v@o@f@J g@+ + + @ . . . . @ + ",
"+ . . . . + + + @ ] ] a@p@c@. . . . . . . . . . . . . . . . . . . . . . . . . . . . . . . ~.w@.+.+s@e@f@J g@+ + @ . . . . @ + + ",
". . . . + + + @ . ] ] a@x@y@c@z@A@B@C@D@.+E@.+.+.+.+.+.+.+.+.+.+.+.+.+.+.+.+.+.+.+.+.+.+.+.+.+.+F@G@H@q J g@+ @ . . . . + + $ + ",
". . . @ + $ + . . ] k+^ I@x@J@K@L@M@N@O@P@Q@K@R@R@R@R@R@R@R@P@R@S@T@U@V@W@W@W@W@X@Y@Z@`@ # #.#+#@###t p $#g@@ . . . . + + $ + . ",
". . + + $ + . . . ] %#/ ^ a@&#*#=#-#;#b *#>#>#>#>#>#>#>#>#>#*#>#,#[ %#'#)#)#)#)#!#~#{#{#]#]# #^#/#h@(#_#:#0@. # . . + + + + . . ",
". @ + $ + . . . . <#[#}#k+] ] ^ ] a a ] ^ ^ ^ ^ ^ ^ ^ ^ ^ ^ ^ ^ |#s p { z z z z |#1#2#2#2#2#3#2#{ 4#5#6#7#8#. . . + $ + + . . . ",
"@ + $ + # . . . + 0@9#] ] ] ] ] ] ] ] ] ] ] ] ] ] ] ] ] ] ] ] ] ] ] ] ] ] ] ] ] ] ] ] ] ] ] ] ] ] 0#a#-.b#c#. . + $ + + . . . . ",
"+ + + # . . . @ + + + . . . . + + + @ . . . . + + + + . . . . + + + + # . . . @ + + + . . . . + + + @ . . . . + + + + . . . . + ",
"+ @ . . . . @ + + + . . . . + + + + . . . # + + + @ . . . . + + + @ . . . . @ + + + . . . . + + + + . . . # + + + @ . . . . + + ",
"@ . . . . @ + + + . . . . + + + + . . . # + + + @ . . . . + + + @ . . . . @ + + + . . . . + + + + . . . # + + + @ . . . . + + + ",
". . . . + + + + . . . . + + $ + . . . . + + + @ . . . . + + + @ . . . . + + + + . . . . + + $ + . . . . + + + @ . . . . + + + @ ",
". . . + + + + . . . . @ + $ + . . . . + + + @ . . . . + + + @ . . . . + + + + . . . . @ + $ + . . . . + + + @ . . . . + + + @ . ",
". . + + + + . . . . + + $ + . . . . + + $ + . . . . + + + @ . # . . + + + + . . . . + + $ + . . . . + + $ + . . . . + + + @ . # ",
". + $ + + . . . . @ + $ + . . . . + + $ + . . . . + + + @ . . . . + $ + + . . . . @ + $ + . . . . + + $ + . . . . + + + @ . . . ",
"+ $ + + . . . . @ + $ + # . . . + + $ + . . . . + + + @ . . . . + $ + + . . . . @ + $ + # . . . + + $ + . . . . + + + @ . . . . ",
"+ + + . . . . + + + + # . . . @ + + + . . . . + + + @ . . . . + + + + . . . . + + + + # . . . @ + + + . . . . + + + @ . . . . + ",
"+ + . . . . + + + @ . . . . @ + + + . . . . + + + + . . . # + + + + . . . . + + + @ . . . . @ + + + . . . . + + + + . . . # + + ",
"@ . . . . + + + @ . . . . @ + + + . . . . + + + + . . . # + + + @ . . . . + + + @ . . . . @ + + + . . . . + + + + . . . # + + + ",
". . . . + + + @ . . . . + + $ + . . . . + + + + . . . . + $ + @ . . . . + + + @ . . . . + + $ + . . . . + + + + . . . . + $ + @ ",
". . . + + + @ . . . . + + $ + . . . . @ $ + + . . . . + $ + @ . . . . + + + @ . . . . + + $ + . . . . @ $ + + . . . . + $ + @ . "};
