/* XPM */
static char * guittwo_xpm[] = {
"64 64 205 2",
"  	c #889C9E",
". 	c #62797E",
"+ 	c #536265",
"@ 	c #464D4F",
"# 	c #383F40",
"$ 	c #382B2F",
"% 	c #241B17",
"& 	c #4B3F38",
"* 	c #2B3031",
"= 	c #101010",
"- 	c #484820",
"; 	c #474A37",
"> 	c #2B2F31",
", 	c #434A4C",
"' 	c #404748",
") 	c #131414",
"! 	c #402413",
"~ 	c #484929",
"{ 	c #464C4B",
"] 	c #454C4E",
"^ 	c #212526",
"/ 	c #41281C",
"( 	c #474B44",
"_ 	c #464C4A",
": 	c #383E40",
"< 	c #080808",
"[ 	c #48492B",
"} 	c #383D3F",
"| 	c #6E762B",
"1 	c #D6C685",
"2 	c #929955",
"3 	c #292E2F",
"4 	c #444B4D",
"5 	c #464D4D",
"6 	c #373C3E",
"7 	c #906828",
"8 	c #F8E088",
"9 	c #A8B058",
"0 	c #484822",
"a 	c #464A4C",
"b 	c #484821",
"c 	c #986800",
"d 	c #D0A058",
"e 	c #402008",
"f 	c #464D4E",
"g 	c #40432F",
"h 	c #474B3A",
"i 	c #474B39",
"j 	c #464C48",
"k 	c #3F4547",
"l 	c #303536",
"m 	c #402516",
"n 	c #707828",
"o 	c #A7AF58",
"p 	c #433936",
"q 	c #3A3F41",
"r 	c #392C2E",
"s 	c #484908",
"t 	c #484800",
"u 	c #474B3E",
"v 	c #1C1F20",
"w 	c #0E0F0F",
"x 	c #464C49",
"y 	c #484812",
"z 	c #464504",
"A 	c #4B4E32",
"B 	c #E8F088",
"C 	c #F8F8E8",
"D 	c #484825",
"E 	c #484815",
"F 	c #484814",
"G 	c #474A34",
"H 	c #43494B",
"I 	c #704000",
"J 	c #090909",
"K 	c #484827",
"L 	c #101212",
"M 	c #464C46",
"N 	c #474B42",
"O 	c #47492B",
"P 	c #464C45",
"Q 	c #484808",
"R 	c #26292A",
"S 	c #484823",
"T 	c #48491C",
"U 	c #2C3032",
"V 	c #0A0B0B",
"W 	c #1B1E1F",
"X 	c #3C4243",
"Y 	c #232728",
"Z 	c #6E7629",
"` 	c #42484A",
" .	c #6D4115",
"..	c #3D4345",
"+.	c #3E4547",
"@.	c #3D4445",
"#.	c #383E3F",
"$.	c #402000",
"%.	c #404749",
"&.	c #313638",
"*.	c #474933",
"=.	c #694322",
"-.	c #34393B",
";.	c #6E4112",
">.	c #412618",
",.	c #495B5F",
"'.	c #404648",
").	c #0C0D0E",
"!.	c #7B5F3A",
"~.	c #393E40",
"{.	c #0D0E0E",
"].	c #414749",
"^.	c #CE9F58",
"/.	c #40230B",
"(.	c #454849",
"_.	c #151718",
":.	c #6F4109",
"<.	c #3A4042",
"[.	c #474A39",
"}.	c #474B40",
"|.	c #3C4244",
"1.	c #4A3E37",
"2.	c #363C3D",
"3.	c #3A4041",
"4.	c #48480E",
"5.	c #474932",
"6.	c #2E3334",
"7.	c #3F4648",
"8.	c #474B3D",
"9.	c #6F772A",
"0.	c #1F2324",
"a.	c #191C1C",
"b.	c #211B18",
"c.	c #0A0A0A",
"d.	c #1F2223",
"e.	c #6C4218",
"f.	c #CD9E58",
"g.	c #402511",
"h.	c #41291D",
"i.	c #373D3F",
"j.	c #0B0C0C",
"k.	c #373D3E",
"l.	c #412719",
"m.	c #161919",
"n.	c #1E2222",
"o.	c #1F1A17",
"p.	c #473B35",
"q.	c #2F1C17",
"r.	c #423129",
"s.	c #443E3C",
"t.	c #454647",
"u.	c #1D2021",
"v.	c #6F7729",
"w.	c #141617",
"x.	c #393F41",
"y.	c #25292A",
"z.	c #484804",
"A.	c #191B1C",
"B.	c #191D1D",
"C.	c #202324",
"D.	c #353A3C",
"E.	c #42322B",
"F.	c #454B4D",
"G.	c #515F62",
"H.	c #404C4F",
"I.	c #494A0F",
"J.	c #151A1C",
"K.	c #586D72",
"L.	c #5F767B",
"M.	c #60777B",
"N.	c #3C4A4E",
"O.	c #171D1E",
"P.	c #405053",
"Q.	c #272B2C",
"R.	c #282C2D",
"S.	c #252829",
"T.	c #474931",
"U.	c #212324",
"V.	c #292D2E",
"W.	c #202223",
"X.	c #282C2E",
"Y.	c #1E191B",
"Z.	c #303C3E",
"`.	c #41484A",
" +	c #1D2020",
".+	c #484801",
"++	c #1C1E1F",
"@+	c #372A2E",
"#+	c #353C3D",
"$+	c #212425",
"%+	c #181211",
"&+	c #2B2F30",
"*+	c #292023",
"=+	c #312629",
"-+	c #34393A",
";+	c #2D3233",
">+	c #303436",
",+	c #31262A",
"'+	c #261815",
")+	c #131312",
"!+	c #2D2225",
"~+	c #2C1B16",
"{+	c #141413",
"]+	c #2C1A16",
"^+	c #1F1513",
"      . . . . . . + . . . . + . + . + . + . + + + + + + . + . + . + . . . . . . . . . . . . . . . . . . . . . . . + . . . . + . ",
". @ @ @ @ @ @ @ @ @ @ @ @ @ @ @ @ @ @ @ @ @ @ @ @ @ @ @ @ @ @ @ @ @ @ @ @ @ @ @ @ @ @ @ @ @ @ @ @ @ @ @ @ @ @ @ @ @ @ @ @ @ @ @ ",
". @ @ @ @ @ @ @ @ @ @ @ @ @ @ @ @ @ @ @ @ @ @ @ @ @ @ @ @ @ @ @ @ @ @ @ @ @ @ @ @ @ @ @ @ @ @ @ @ @ @ @ @ @ @ @ @ @ @ @ @ @ @ # ",
"+ @ $ . # @ @ @ @ @ @ @ @ @ @ @ @ @ @ @ @ @ @ @ @ @ @ @ @ @ @ @ @ @ @ @ @ @ @ @ @ @ @ @ @ @ @ @ @ @ @ @ @ @ @ @ @ @ $ . # @ @ @ ",
". @ $ # # @ @ @ @ @ @ @ @ @ @ @ @ @ @ @ @ @ @ @ @ @ @ @ @ @ @ @ @ @ @ @ @ @ @ @ @ @ @ @ @ @ @ @ @ @ @ @ @ @ @ @ @ @ $ # # @ @ # ",
"+ @ $ $ @ @ @ @ @ @ @ @ @ @ @ @ @ @ @ @ @ @ @ @ @ @ @ @ @ @ @ @ @ @ @ @ @ @ @ @ @ @ @ @ @ @ @ @ @ @ @ @ @ @ @ @ @ @ $ $ @ @ @ @ ",
"+ @ @ @ @ @ @ @ @ @ @ @ @ @ @ @ @ @ @ @ @ @ @ @ @ @ @ @ @ @ @ @ @ @ @ @ @ @ @ @ @ @ @ @ @ @ @ @ @ @ @ @ @ @ @ @ @ @ @ @ @ @ @ # ",
"+ @ @ @ @ @ @ @ @ @ @ @ @ @ @ @ @ @ @ @ @ @ @ @ @ @ @ @ @ @ @ @ @ @ @ @ @ @ @ @ @ @ @ @ @ @ @ @ @ @ @ @ @ @ @ @ @ @ @ @ @ @ @ # ",
"@ @ @ @ @ @ @ @ % % $ $ $ $ $ $ $ # $ # $ $ $ $ $ $ $ $ $ $ $ $ % % % % % $ % $ $ $ $ $ $ $ $ $ $ # $ # $ # # # @ @ @ @ @ @ @ # ",
"+ @ @ @ @ @ @ @ $ # @ @ @ @ @ @ @ @ @ @ @ @ @ @ @ @ @ @ @ @ @ @ & @ & & & @ & @ & @ @ @ @ @ @ @ @ @ @ @ @ @ @ @ @ @ @ @ @ @ @ # ",
"@ @ @ @ @ @ @ @ # @ @ @ @ @ @ @ @ @ @ @ @ @ @ @ @ @ @ @ @ @ @ @ @ & @ & & & @ @ @ @ @ @ @ @ @ @ * = - ; @ @ @ + @ @ @ @ @ @ @ # ",
"+ @ @ @ @ @ @ @ $ @ @ @ @ @ @ @ @ @ @ @ @ @ @ @ @ @ @ @ @ @ @ @ @ @ & @ & @ & @ @ @ @ @ # @ @ @ * = - ; @ @ @ @ @ @ @ @ @ @ @ # ",
"+ @ @ @ @ @ @ @ # @ @ @ @ @ @ @ @ @ @ @ @ @ @ @ @ @ @ @ @ @ @ @ @ @ @ & & & @ @ @ # @ # @ @ @ @ > = - ; @ @ @ + @ @ @ @ @ @ @ $ ",
"+ @ @ @ @ @ @ @ # @ @ @ @ @ @ @ @ @ @ @ @ @ @ @ @ @ @ @ @ @ @ @ @ @ @ @ & @ & @ # @ # @ @ @ @ @ , ' ) ! ~ { @ + @ @ @ @ @ @ @ # ",
"+ @ @ @ @ @ @ @ # @ @ @ @ @ @ @ @ @ @ @ @ @ @ # @ @ @ @ @ @ @ @ @ @ @ & @ & @ # @ # @ @ @ @ @ @ @ ] ^ / - ( _ + @ @ @ @ @ @ @ $ ",
"+ @ @ @ @ @ @ @ # @ @ @ @ @ @ @ @ @ @ @ @ @ $ + @ @ @ @ @ @ @ @ @ @ @ @ & @ # @ @ @ @ @ @ @ @ @ @ @ @ : < - [ + @ @ @ @ @ @ @ $ ",
"+ @ @ @ @ @ @ @ # @ @ @ @ @ @ @ @ @ @ @ @ $ + @ @ @ @ @ @ @ @ @ @ @ @ & @ @ @ @ @ @ @ @ @ @ @ @ @ @ @ } < - | 1 2 3 ] @ @ @ @ $ ",
"+ @ @ @ @ @ @ @ # @ @ @ @ @ @ @ @ @ @ @ # + @ @ @ @ @ @ @ @ @ @ @ @ & @ @ @ @ @ @ @ @ ] 4 5 5 5 5 5 5 6 < - 7 8 9 0 a ] @ @ @ # ",
"+ @ @ @ @ @ @ @ # @ @ @ @ @ @ @ @ @ @ @ @ @ @ @ @ @ @ @ @ @ @ @ @ @ @ @ @ @ @ @ @ @ @ } < b b b b b b b < 8 8 c d 8 e * @ @ @ $ ",
"+ @ @ @ @ @ @ @ # @ @ @ @ @ @ @ @ f g h h h h i j @ @ @ @ @ @ @ @ @ @ @ @ # @ @ @ @ @ k l m - - - - e n 9 d d d d o p q @ @ @ # ",
"+ @ @ @ @ @ @ @ # @ @ @ @ @ @ @ @ r s t t t t t u @ @ @ @ @ @ @ @ @ # @ # @ @ @ @ @ @ @ @ v < < < < < 9 8 7 7 8 9 w ] @ @ @ @ # ",
"+ @ @ @ @ @ @ @ # @ @ @ @ @ x y z A B B C C C n D E F G @ @ @ @ @ # @ # @ @ @ @ @ @ @ @ @ , H , 3 < < I 7 8 8 - e J K K K K K L ",
"+ @ @ @ @ @ @ @ # @ @ @ @ M N n n 9 B B C C C 9 9 n - O P 5 @ @ # # # @ @ @ @ @ @ @ @ @ @ @ @ @ * < Q I c d d < v R b - - - S v ",
"+ @ @ @ @ @ @ @ # @ @ @ @ T n 9 B B B B B C C B B B n n t j @ # @ & @ @ @ @ @ @ @ @ @ @ @ @ @ @ U = c c c c c < : @ V < < < W # ",
"+ @ @ @ @ @ @ @ # @ @ X Y Z n 9 B B B B B B B B 9 n - Q t j @ @ & & & @ @ @ @ @ @ @ @ @ @ @ ` Y  .c I I c I e < } @ ........+.# ",
"+ @ @ @ @ @ @ @ # @ @ } < n n 9 B B B B B B B B 9 - = e t j @ & @ & @ @ @ @ @ @ @ @ @ @ @ , @.< I c - I c e = < } @ @ @ @ @ @ # ",
"+ @ @ @ @ @ @ @ # @ @ #.< 9 9 9 9 9 C C C n < < 7 d e $.< %.@ @ & @ @ @ @ @ @ @ @ @ @ @ @ v = $.$.e d 7 < - - < } @ @ @ @ @ @ # ",
"+ @ @ @ @ @ @ @ # ] &.*.- 9 9 9 9 B 9 9 9 7 I I d d 7 =.-., @ @ @ @ @ @ @ @ @ @ @ @ @ k l ;.I $.7 7 7 9 d - >.,.'.@ @ @ @ @ @ $ ",
"+ @ @ @ @ @ @ @ # ] ).- n 9 9 9 B B e < < 7 7 7 d d 7 !.@ @ @ @ @ @ @ @ @ @ @ @ @ @ @ #.< c c $.9 d e 9 8 n v . @ @ @ @ @ @ @ # ",
"@ @ @ ~.{.].@ @ # ] w - n n 9 B 9 - 7 7 7 7 7 d d d 8 ^./.(.@ @ @ @ @ @ @ @ @ @ @ ] _.:.c I I d d d 8 8 d - v + @ @ @ @ @ @ @ $ ",
"+ @ <.[.n }.|.@ # 1.w - n n 9 9 n - d d 7 7 7 d d d d 9 $.2.|.@ @ @ @ ` 3.<.|.@ k 3.4.I c I 7 d d d 8 d d 5.6.. @ @ @ @ @ @ @ # ",
"@ @ < n 9 - W @ $ @ w - n 9 9 < I 7 8 8 d d d 7 I = $.= < < W @ @ @ @ #.< < W @ * = c I $.7 7 d 8 8 d 7 < ].@ + @ @ @ @ @ @ @ $ ",
"+ @ 7.8.- n 9.0.a.b.c.e Q 9 9 < 7 7 d d I 9 9 B B C - $.t n 9.0.d.d.d.e.c d f.0.g.$.e - n - - d d d - G '.] @ + @ @ @ @ @ @ @ $ ",
"@ @ @ } < n n < = e < e Q 9 9 = I 7 d 7 $.9 9 B C C n - t n n = = = - 7 7 d d n - $.< - n e - d d d h.l @ @ @ + @ @ @ @ @ @ @ $ ",
"+ @ @ i.< t t < - n = - n e e n - = 7 7 7 e < < < < d 9 $.9 9 t e = d d 8 8 8 8 9 < < - n e < < < j.] @ @ @ @ + @ @ @ @ @ @ @ $ ",
"+ @ @ ].k.l.- n n - - - - = e - Q = I 7 7 e < < 7 7 d 7 $.n n $.I 7 8 8 8 8 d d d d I I - = m.} k.} @ @ @ @ @ + @ @ @ @ @ @ @ $ ",
"+ @ @ @ @ v - 9 n = n - = = = t e < $.I 7 - e e 9 d d 9 $.t t < I 7 8 8 8 d d d 8 8 7 7 < {.n.@ @ @ @ @ @ @ @ + @ @ @ @ @ @ @ $ ",
"+ @ @ @ @ v e n - < = - n n n < < < < - 7 d d 8 d d 8 d $.= e I d d 8 8 8 d d d d d 8 d < 7.] @ @ @ @ @ @ @ @ + @ @ @ @ @ @ @ $ ",
"+ @ @ @ @ o.e n Q = n n 9 9 n - e < e Q I 7 d 8 d d d 9 = e - 7 d d d d d 9 7 d d d 8 d 7 8.3.@ @ @ @ @ @ @ @ + @ @ @ @ @ @ @ $ ",
"+ @ @ @ & W = t $.= 9 9 B 9 9 n - < t t < < - d d d $.< < I 7 d 8 8 I $.< < = I d d 8 8 d - W @ @ @ @ @ @ @ @ + @ @ @ @ @ @ @ $ ",
"@ @ @ & @ p.|.= - n 9 9 B 9 9 Q Q t n n t t Q - - - d d 8 8 8 8 d d e = < < e I d d d d d - v @ @ @ @ @ @ @ @ + @ @ @ @ @ @ @ $ ",
"+ @ @ @ @ @ %.< n n 9 9 B 9 9 t t Q n n Q t t $.n n d 8 8 8 8 8 d d e < < < e I 7 d d d d - v @ @ @ @ @ @ @ @ + @ @ @ @ @ @ @ $ ",
"@ @ @ @ @ @ ].< n 9 n n 9 n t t e = n n n e $.c d 8 8 8 8 8 8 d d d = < < < e I $.< < I c e W @ @ @ @ @ @ @ @ + @ @ @ @ @ @ @ q.",
"@ @ @ @ @ 6.r.n n n - n n - t e $.t Q - - Q 7 8 8 8 8 8 8 d d 8 d d d 7 I I I $.9 9 9 9 t s.|.@ @ @ @ @ @ @ @ + @ @ @ @ @ @ @ $ ",
"@ @ @ @ @ v e n n n t - n Q t < t t t t = I 7 8 8 8 8 8 8 d d 8 d d d d I I I = 9 B B 9 = t.4 @ @ @ @ @ @ @ @ + @ @ @ @ @ @ @ q.",
"@ @ @ @ @ v - 9 n n t t t = < < t t = e I d d 8 8 8 I 9 8 8 8 d 8 8 8 8 d - - 9 B B B B 9 b u.@ @ @ @ @ @ @ @ + @ @ @ @ @ @ @ $ ",
"@ @ @ '.-.K n B 9 9 n n t = < < e $.< Q c d d 8 d 9 7 9 d 8 8 8 8 8 d d 7 - - 9 9 B B 9 9 - v @ @ @ @ @ @ @ @ + @ @ @ @ @ @ @ $ ",
"+ @ @ } < n 9 B 9 9 9 9 t = < < < < < I c d d 8 9 < 9 9 I 8 8 8 d d I $.< t Q n 9 9 9 9 9 - v @ @ @ @ @ @ @ @ + @ @ @ @ @ @ @ $ ",
"@ @ @ } < 9 9 9 9 9 B B 9 n n 9 n n = = e - - - e < - n 9 7 7 d 8 8 I I < t Q n n n B B 9 n v.w.x.@ @ @ @ @ @ + @ @ @ @ @ @ @ $ ",
"+ @ @ } < 9 9 9 9 9 B 9 9 9 9 9 7 7 n n n 7 7 n - = n n 9 7 7 d d 8 I I < t Q n n n B 9 9 n n < } @ @ @ @ @ @ . @ @ @ @ @ @ @ $ ",
"+ @ @ } < n n 9 n n 9 9 n B B < 7 d d d d 8 8 d 7 = d 7 < 9 9 I d d I $.< t t t 9 9 t t t 9 9 < : @ @ @ @ @ @ + @ @ @ @ @ @ @ $ ",
"+ @ @ } < Q - n n n n 9 B 9 n d d d d d d 8 8 - - e 8 d d n - I d d 8 9 < t Q n n n e e = - n n [ y.] @ @ @ @ . @ @ @ @ @ @ @ $ ",
"+ @ @ x.w.z.t t n n n 9 B n - d d d d d d 8 8 e e e 8 8 d n - I d d 8 d < t Q n - t = = = - - n D A.] @ @ @ @ + @ @ @ @ @ @ @ q.",
"+ @ @ @ @ W < < < < t n 9 - e 7 d d d d 8 7 7 d 7 e 8 8 8 8 8 d 8 8 e < < t t t e < t - n 9 9 < : @ @ @ @ @ @ . @ @ @ @ @ @ @ $ ",
"+ @ @ @ @ k.-.-.B.< $.- n e e - 7 d d d 8 7 7 d 7 e d 8 8 8 8 8 d 9 = C.D.>.$.$.= = t Q n n n $.E.&.] @ @ @ @ . @ @ @ @ @ @ @ q.",
"+ @ @ @ @ @ @ @ Y c.V c.< < < < I 7 d d d - - d 7 = d d 8 8 8 8 9 < < * @ u.c.V J = t t t t t t e ).F.@ @ @ @ . @ @ @ @ @ @ @ q.",
"+ @ @ @ @ @ @ @ ] G.G.H.< < < < = = e 7 d - = e = < e e - - - - Q t t I.J.K.L.M.N.< = e t n n 9 n < O.P.        @ @ @ @ @ , @ q.",
"+ @ @ @ @ @ @ @ @ @ @ ..Q.R.S.< = e < n d - e - - - - n 9 n n - Q t t Q - s.|.@ * < e t t n n 9 n n - T.<.4 @ @ @ @ @ @ @ U.] q.",
"@ @ @ @ @ @ @ @ @ @ @ @ @ @ ].< t t < < < t Q n n n n 9 B 9 9 n - t < - n e W @ * = t t t t Q n 9 9 n - < ].@ @ @ @ @ @ @ 3.@ q.",
"+ @ $ . # @ @ @ @ @ @ @ @ @ ] '.V.= t - n n n n n Q 9 9 9 n n n - t < e Q = v @ * = t t t t t Q n n n n t W.X.@ @ ] Y.Z.v `.] q.",
"@ @ $ # # @ @ @ @ @ @ @ @ @ @ @ l  +.+- n n n n - Q 9 9 9 n n n - t < e t ++y.@ * < t t t t t t n n n n t = v @ @ @ @+#+2.V.$+%+",
"+ @ $ $ @ @ @ @ @ @ @ @ @ @ @ @ @ ] j.< < < = t t t t - n Q t t e < < < < ].@ @ &+< < < < < < < < < < < < < W @ @ @ @+*+=+@ |.q.",
"@ @ @ @ @ @ @ @ @ @ @ @ @ @ @ @ @ @ } k.k.k.-+e e e e Q - e e e ;+k.k.k.6 4 @ @ ..k.k.k.k.k.k.k.k.k.k.k.k.k.3.@ @ ] >+,+$ @ 2.'+",
"$ q.q.q.q.q.q.$ q.$ q.$ $ $ $ $ $ $ q.$ q.$ )+< < < < < < < < < !+$ $ $ $ $ $ $ q.$ q.$ $ q.$ q.$ q.q.q.q.q.q.$ q.$ ~+{+{+q.]+^+"};
