/* XPM */
static char * guitzero_xpm[] = {
"64 64 203 2",
"  	c #889C9E",
". 	c #62797E",
"+ 	c #536265",
"@ 	c #464D4F",
"# 	c #383F40",
"$ 	c #382B2F",
"% 	c #241B17",
"& 	c #4B3F38",
"* 	c #2B3031",
"= 	c #101010",
"- 	c #484820",
"; 	c #474A37",
"> 	c #383D3F",
", 	c #2D3133",
"' 	c #484821",
") 	c #484930",
"! 	c #474B42",
"~ 	c #464D4D",
"{ 	c #454C4E",
"] 	c #0E0F0F",
"^ 	c #402008",
"/ 	c #464C4A",
"( 	c #212526",
"_ 	c #41281C",
": 	c #474B44",
"< 	c #383E40",
"[ 	c #080808",
"} 	c #48492B",
"| 	c #6E762B",
"1 	c #D3C079",
"2 	c #96A166",
"3 	c #292E2F",
"4 	c #444B4D",
"5 	c #906828",
"6 	c #F8E088",
"7 	c #A8B058",
"8 	c #484822",
"9 	c #464A4C",
"0 	c #484823",
"a 	c #464D4E",
"b 	c #383E3F",
"c 	c #D0A058",
"d 	c #986800",
"e 	c #40210A",
"f 	c #2C3032",
"g 	c #474B3B",
"h 	c #40432E",
"i 	c #474B3A",
"j 	c #474B39",
"k 	c #464C48",
"l 	c #3F4547",
"m 	c #303536",
"n 	c #402516",
"o 	c #474B3E",
"p 	c #7D6038",
"q 	c #484802",
"r 	c #484800",
"s 	c #1C1F20",
"t 	c #464C49",
"u 	c #484812",
"v 	c #484815",
"w 	c #464620",
"x 	c #E8F088",
"y 	c #F8F8E8",
"z 	c #707828",
"A 	c #484825",
"B 	c #484814",
"C 	c #474A34",
"D 	c #434A4C",
"E 	c #43494B",
"F 	c #704000",
"G 	c #402310",
"H 	c #484826",
"I 	c #464C46",
"J 	c #666E36",
"K 	c #3D4345",
"L 	c #484808",
"M 	c #474C47",
"N 	c #3A3938",
"O 	c #48491C",
"P 	c #414749",
"Q 	c #3C4243",
"R 	c #232728",
"S 	c #6F772A",
"T 	c #412E25",
"U 	c #42484A",
"V 	c #6D4115",
"W 	c #3D4445",
"X 	c #566A6E",
"Y 	c #1D1F1F",
"Z 	c #282D2D",
"` 	c #402617",
" .	c #232627",
"..	c #161819",
"+.	c #141617",
"@.	c #2E3334",
"#.	c #402000",
"$.	c #404749",
"%.	c #313638",
"&.	c #474933",
"*.	c #694322",
"=.	c #34393B",
"-.	c #402512",
";.	c #373E3F",
">.	c #0C0D0E",
",.	c #7B5F3A",
"'.	c #393E40",
").	c #0D0E0E",
"!.	c #8F6729",
"~.	c #40230B",
"{.	c #454849",
"].	c #151718",
"^.	c #6F4109",
"/.	c #3A4042",
"(.	c #474A39",
"_.	c #474B40",
":.	c #3C4244",
"<.	c #0E0D0C",
"[.	c #363C3D",
"}.	c #3A4041",
"|.	c #48480E",
"1.	c #423129",
"2.	c #1B1E1F",
"3.	c #3F4648",
"4.	c #474B3D",
"5.	c #1F2324",
"6.	c #1F2223",
"7.	c #1C1F1F",
"8.	c #484801",
"9.	c #6C4218",
"0.	c #966708",
"a.	c #402511",
"b.	c #656D37",
"c.	c #404648",
"d.	c #1D2020",
"e.	c #373D3F",
"f.	c #0B0C0C",
"g.	c #373D3E",
"h.	c #412719",
"i.	c #161919",
"j.	c #1E2222",
"k.	c #1D1916",
"l.	c #42494B",
"m.	c #403630",
"n.	c #2F1C17",
"o.	c #282C2D",
"p.	c #111213",
"q.	c #454647",
"r.	c #1D2021",
"s.	c #6F7729",
"t.	c #393F41",
"u.	c #25292A",
"v.	c #191B1C",
"w.	c #412D24",
"x.	c #202324",
"y.	c #353A3C",
"z.	c #412618",
"A.	c #42322B",
"B.	c #090909",
"C.	c #0A0B0B",
"D.	c #0A0A0A",
"E.	c #454B4D",
"F.	c #515F62",
"G.	c #414D4F",
"H.	c #494A0F",
"I.	c #151A1C",
"J.	c #586D72",
"K.	c #5F767B",
"L.	c #60777B",
"M.	c #3C4A4E",
"N.	c #131718",
"O.	c #405053",
"P.	c #272B2C",
"Q.	c #272A2B",
"R.	c #443E3C",
"S.	c #474931",
"T.	c #212324",
"U.	c #42332C",
"V.	c #202223",
"W.	c #282C2E",
"X.	c #252829",
"Y.	c #1D181A",
"Z.	c #2F3A3C",
"`.	c #343B3C",
" +	c #1C1E1F",
".+	c #35292D",
"++	c #222526",
"@+	c #212425",
"#+	c #202323",
"$+	c #281915",
"%+	c #2B2F30",
"&+	c #292023",
"*+	c #312629",
"=+	c #34393A",
"-+	c #2D3233",
";+	c #373C3E",
">+	c #303436",
",+	c #3E4446",
"'+	c #34272B",
")+	c #34282C",
"!+	c #141413",
"~+	c #2C1A16",
"{+	c #1F1513",
"      . . . . . . + . . . . + . + . + . + . + + + + + + . + . + . + . . . . . . . . . . . . . . . . . . . . . . . + . . . . + . ",
". @ @ @ @ @ @ @ @ @ @ @ @ @ @ @ @ @ @ @ @ @ @ @ @ @ @ @ @ @ @ @ @ @ @ @ @ @ @ @ @ @ @ @ @ @ @ @ @ @ @ @ @ @ @ @ @ @ @ @ @ @ @ @ ",
". @ @ @ @ @ @ @ @ @ @ @ @ @ @ @ @ @ @ @ @ @ @ @ @ @ @ @ @ @ @ @ @ @ @ @ @ @ @ @ @ @ @ @ @ @ @ @ @ @ @ @ @ @ @ @ @ @ @ @ @ @ @ # ",
"+ @ $ . # @ @ @ @ @ @ @ @ @ @ @ @ @ @ @ @ @ @ @ @ @ @ @ @ @ @ @ @ @ @ @ @ @ @ @ @ @ @ @ @ @ @ @ @ @ @ @ @ @ @ @ @ @ $ . # @ @ @ ",
". @ $ # # @ @ @ @ @ @ @ @ @ @ @ @ @ @ @ @ @ @ @ @ @ @ @ @ @ @ @ @ @ @ @ @ @ @ @ @ @ @ @ @ @ @ @ @ @ @ @ @ @ @ @ @ @ $ # # @ @ # ",
"+ @ $ $ @ @ @ @ @ @ @ @ @ @ @ @ @ @ @ @ @ @ @ @ @ @ @ @ @ @ @ @ @ @ @ @ @ @ @ @ @ @ @ @ @ @ @ @ @ @ @ @ @ @ @ @ @ @ $ $ @ @ @ @ ",
"+ @ @ @ @ @ @ @ @ @ @ @ @ @ @ @ @ @ @ @ @ @ @ @ @ @ @ @ @ @ @ @ @ @ @ @ @ @ @ @ @ @ @ @ @ @ @ @ @ @ @ @ @ @ @ @ @ @ @ @ @ @ @ # ",
"+ @ @ @ @ @ @ @ @ @ @ @ @ @ @ @ @ @ @ @ @ @ @ @ @ @ @ @ @ @ @ @ @ @ @ @ @ @ @ @ @ @ @ @ @ @ @ @ @ @ @ @ @ @ @ @ @ @ @ @ @ @ @ # ",
"@ @ @ @ @ @ @ @ % % $ $ $ $ $ $ $ # $ # $ $ $ $ $ $ $ $ $ $ $ $ % % % % % $ % $ $ $ $ $ $ $ $ $ $ # $ # $ # # # @ @ @ @ @ @ @ # ",
"+ @ @ @ @ @ @ @ $ # @ @ @ @ @ @ @ @ @ @ @ @ @ @ @ @ @ @ @ @ @ @ & @ & & & @ & @ & @ @ @ @ @ @ @ @ @ @ @ @ @ @ @ @ @ @ @ @ @ @ # ",
"@ @ @ @ @ @ @ @ # @ @ @ @ @ @ @ @ @ @ @ @ @ @ @ @ @ @ @ @ @ @ @ @ & @ & & & @ @ @ @ @ @ @ @ @ * = - ; @ @ @ @ + @ @ @ @ @ @ @ # ",
"+ @ @ @ @ @ @ @ $ @ @ @ @ @ @ @ @ @ @ @ @ @ @ @ @ @ @ @ @ @ @ @ @ @ & @ & @ & @ @ @ @ @ # @ @ > , ' ) ! ~ @ @ @ @ @ @ @ @ @ @ # ",
"+ @ @ @ @ @ @ @ # @ @ @ @ @ @ @ @ @ @ @ @ @ @ @ @ @ @ @ @ @ @ @ @ @ @ & & & @ @ @ # @ # @ @ @ @ { ] ^ - / @ @ + @ @ @ @ @ @ @ $ ",
"+ @ @ @ @ @ @ @ # @ @ @ @ @ @ @ @ @ @ @ @ @ @ @ @ @ @ @ @ @ @ @ @ @ @ @ & @ & @ # @ # @ @ @ @ @ { ] ^ - / @ @ + @ @ @ @ @ @ @ # ",
"+ @ @ @ @ @ @ @ # @ @ @ @ @ @ @ @ @ @ @ @ @ @ # @ @ @ @ @ @ @ @ @ @ @ & @ & @ # @ # @ @ @ @ @ @ { ( _ - : / @ + @ @ @ @ @ @ @ $ ",
"+ @ @ @ @ @ @ @ # @ @ @ @ @ @ @ @ @ @ @ @ @ $ + @ @ @ @ @ @ @ @ @ @ @ @ & @ # @ @ @ @ @ @ @ @ @ @ @ < [ - } @ + @ @ @ @ @ @ @ $ ",
"+ @ @ @ @ @ @ @ # @ @ @ @ @ @ @ @ @ @ @ @ $ + @ @ @ @ @ @ @ @ @ @ @ @ & @ @ @ @ @ @ @ @ @ @ @ @ @ @ > [ - | 1 2 3 { @ @ @ @ @ $ ",
"+ @ @ @ @ @ @ @ # @ @ @ @ @ @ @ @ @ @ @ # + @ @ @ @ @ @ @ @ @ @ @ @ & @ @ @ @ @ @ @ { 4 ~ ~ ~ ~ ~ @ > [ - 5 6 7 8 9 { @ @ @ @ # ",
"+ @ @ @ @ @ @ @ # @ @ @ @ @ @ @ @ @ @ @ @ @ @ @ @ @ @ @ @ @ @ @ @ @ @ @ @ @ @ @ @ @ > [ ' ' ' ' 0 a b [ c c d c 6 e f @ @ @ @ $ ",
"+ @ @ @ @ @ @ @ # @ @ @ @ @ @ @ a g h i i i j k @ @ @ @ @ @ @ @ @ @ @ @ @ # @ @ @ @ l m n - - - ' o p 5 c c c c c ^ * @ @ @ @ # ",
"+ @ @ @ @ @ @ @ # @ @ @ @ @ @ @ a q r r r r r o @ @ @ @ @ @ @ @ @ @ # @ # @ @ @ @ @ @ @ s [ [ [ [ - 5 c 5 5 c 5 d = * @ @ @ @ # ",
"+ @ @ @ @ @ @ @ # @ @ @ @ t u v w x x y y y z A v B C @ @ @ @ @ @ # @ # @ @ @ @ @ @ @ @ D E D 3 [ = F d 6 6 d F ^ [ G H / @ @ # ",
"+ @ @ @ @ @ @ @ # @ @ @ I ! z z 7 x x y y y 7 7 z z J K { @ @ @ # # # @ @ @ @ @ @ @ @ @ @ @ @ * [ L F d c c d L [ [ ^ - ! M M N ",
"+ @ @ @ @ @ @ @ # @ @ @ O z 7 x x x x x x x x x x 7 z [ P @ @ # @ & @ @ @ @ @ @ @ @ @ @ @ @ @ f = d d d d d [ [ [ [ [ [ - - - ^ ",
"+ @ @ @ @ @ @ @ # @ Q R S z 7 x x x x y x x 7 7 z - z z T * @ @ & & & @ @ @ @ @ @ @ @ @ @ U R V d L F d F O W X K K K W Y ^ ^ Z ",
"+ @ @ @ @ @ @ @ # @ > [ z z 7 x x x x y x x z - ^ = - z `  .@ & @ & @ @ @ @ @ @ @ @ @ @ D W [ F d ^ F d ^ s @ . @ @ @ @  ...+.@.",
"+ @ @ @ @ @ @ @ # @ b [ 7 7 7 7 7 y x z ^ [ [ F 5 #.#.[ $.@ @ @ & @ @ @ @ @ @ @ @ @ @ @ s = #.#.#.5 5 [ [ s @ . @ @ @ @ @ @ @ # ",
"+ @ @ @ @ @ @ @ # %.&.- 7 7 7 7 x 7 7 L F 5 5 7 c 5 *.=.D @ @ @ @ @ @ @ @ @ @ @ @ @ l m -.#.#.5 5 F F F ^ s @ . @ @ @ @ @ @ @ $ ",
"+ @ @ @ @ @ @ @ ;.>.- z 7 7 7 x x ^ = #.5 5 c c c 5 ,.@ @ @ @ @ @ @ @ @ @ @ @ @ @ @ b [ #.#.#.7 c ^ F 5 ^ s @ . @ @ @ @ @ @ @ # ",
"@ @ '.).P @ @ @ ;.] - z z 7 x 7 - 5 5 5 5 5 c 6 6 c !.~.{.@ @ @ @ @ @ @ @ @ @ @ { ].^.d r - c c c 6 c 5 ^ s @ + @ @ @ @ @ @ @ $ ",
"+ /.(.z _.:.@ @ ;.<.- z z 7 7 z - 5 5 5 5 5 c c c c 5 #.[.:.@ @ @ @ U }./.:.@ l }.|.F F 5 5 c c c 6 c F 1.@.@ . @ @ @ @ @ @ @ # ",
"@ [ z 7 - 2.@ @ $ ] - z 7 7 [ F 5 c c c 5 5 5 F = #.#.#.[ 2.@ @ @ @ b [ [ 2.@ * = d F [ c c c 6 6 6 c [ P @ @ + @ @ @ @ @ @ @ $ ",
"+ 3.4.- z S 5.6.7.8.- z 7 7 [ 5 5 c c 6 c c c c c 5 F #.z S 5.6.6.6.9.d d 0.5.a.#.^ ^ [ 5 7 6 c 7 z b.c.{ @ @ + @ @ @ @ @ @ @ $ ",
"@ @ > [ z z [ [ = L - z 7 7 = F 5 c c 6 c c c c c 7 5 #.z z = = [ ^ F 5 5 5 z - #.[ = ^ 5 5 6 7 5 d.m @ @ @ @ + @ @ @ @ @ @ @ $ ",
"+ @ e.[ r r [ [ = z - [ [ ^ z - = 5 5 c - z x y y y x #.7 7 r ^ = d 5 c 6 6 6 7 [ [ - z ^ [ [ [ f.{ @ @ @ @ @ + @ @ @ @ @ @ @ $ ",
"+ @ P g.h.- z - = - L [ [ ^ z - = F 5 5 - - 7 7 c 6 7 #.z z #.#.F c c 6 c 6 6 6 c F F - = i.> g.> @ @ @ @ @ @ + @ @ @ @ @ @ @ $ ",
"+ @ @ @ s - 7 z [ r L = = ^ z - [ #.F 5 ^ = = 5 5 c 7 #.z z [ F F 6 6 6 c c 6 6 6 5 5 [ ).j.@ @ @ @ @ @ @ @ @ + @ @ @ @ @ @ @ $ ",
"+ @ @ @ s ^ z - [ [ z 7 z z = = [ [ ^ #.5 5 c 6 6 6 c #.= = [ F d 6 6 6 c c c c c 6 c [ 3.{ @ @ @ @ @ @ @ @ @ + @ @ @ @ @ @ @ $ ",
"+ @ @ @ s ^ - - - 7 7 7 7 z - ^ [ [ = #.F 5 c c c c 7 = ^ - 5 7 c c c c 7 5 c c c 6 c 5 4.}.@ @ @ @ @ @ @ @ @ + @ @ @ @ @ @ @ $ ",
"+ @ @ @ k.[ [ - z x x 7 7 7 z - [ [ [ [ [ ^ 5 5 5 #.= [ F 5 c 6 6 d F [ [ #.d c c 6 6 c - 2.@ @ @ @ @ @ @ @ @ + @ @ @ @ @ @ @ $ ",
"@ @ @ & l.m.[ - z 7 7 7 z z L L r [ [ [ r L ^ ^ ^ d 5 c 6 6 6 c c ^ ^ [ [ ^ F c c c c c - s @ @ @ @ @ @ @ @ @ + @ @ @ @ @ @ @ $ ",
"+ @ @ @ $.: - z z 7 7 7 z z z - r [ ^ - z z z - = 5 c c 6 6 6 c c ^ [ [ [ ^ F 5 c c c c - s @ @ @ @ @ @ @ @ @ + @ @ @ @ @ @ @ $ ",
"@ @ @ @ 2.- 7 7 7 7 7 7 z z 7 z [ [ 5 c 6 6 6 7 = 6 6 6 6 6 c c c = [ [ [ ^ F #.[ [ 5 c - 2.@ @ @ @ @ @ @ @ @ + @ @ @ @ @ @ @ n.",
"@ @ K o.p.- 7 z z z z z L L z - = 7 c 6 c c 7 7 c 7 c 6 c c 6 c c c 5 [ r F #.7 7 7 7 5 _.:.@ @ @ @ @ @ @ @ @ + @ @ @ @ @ @ @ $ ",
"@ @ > [ ^ - 7 z - L L r L L r ^ ^ c c 6 c c = 5 c ^ 7 6 c c 6 c c c 5 [ F F = 7 x x 7 = q.4 @ @ @ @ @ @ @ @ @ + @ @ @ @ @ @ @ n.",
"@ @ > [ 7 7 r 7 x 7 7 z 7 7 [ 5 5 6 6 c c c c 5 ^ c c 6 6 6 c 6 6 c c d ^ - 7 x x x x 7 ' r.@ @ @ @ @ @ @ @ @ + @ @ @ @ @ @ @ $ ",
"@ @ > [ 7 7 7 7 x 7 7 7 7 7 [ 5 5 6 6 c c c 5 - = 7 c c 6 6 6 6 6 c 5 F L - 7 7 x x 7 7 - s @ @ @ @ @ @ @ @ @ + @ @ @ @ @ @ @ $ ",
"+ @ > [ 7 7 x 7 7 7 7 7 x x [ 5 5 6 6 c c c [ [ = z z d 6 6 6 c c d F [ r L z 7 7 7 7 7 - s @ @ @ @ @ @ @ @ @ + @ @ @ @ @ @ @ $ ",
"@ @ > [ z z 7 7 7 x x 7 x x [ 5 5 5 c c z - c 5 5 ^ z 7 5 c 6 c 5 #.#.[ r L z z z x x 7 z s.+.t.@ @ @ @ @ @ @ + @ @ @ @ @ @ @ $ ",
"+ @ Q R S z 7 7 7 x 7 7 7 7 ^ F 5 5 5 c 5 5 c c 5 ^ z 7 5 7 6 c d #.#.[ r L z z z x 7 7 z z [ > @ @ @ @ @ @ @ . @ @ @ @ @ @ @ $ ",
"+ @ @ @ r.^ z z z z - [ [ = z - [ [ [ [ 6 6 6 c c F F z 7 7 d F F F #.[ r r r 7 7 r r r 7 7 [ < @ @ @ @ @ @ @ + @ @ @ @ @ @ @ $ ",
"+ @ @ @ s = - - - - ^ [ [ = - ^ = F #.[ c c 6 6 6 c 5 F z z d 5 c 6 7 [ r L z z z ^ ^ = - z z } u.{ @ @ @ @ @ . @ @ @ @ @ @ @ $ ",
"+ @ @ @  .+.[ = = [ [ [ = = ^ ^ ^ F r [ c c 6 6 6 c c 5 z z 5 c c 6 c [ r L z - r = = = - - z A v.{ @ @ @ @ @ + @ @ @ @ @ @ @ n.",
"+ @ @ @ @ $.[ r r = [ [ r L z z z = ^ F ^ - c 6 6 6 6 6 c c 6 6 6 ^ [ [ r r r ^ [ r - z 7 7 [ < @ @ @ @ @ @ @ . @ @ @ @ @ @ @ $ ",
"+ @ @ @ @ D =.w.#.[ = #.#.L - - - L #.#.#.F 5 c c 6 6 6 6 6 6 c 7 = x.y.z.#.#.= = r L z z z #.A.%.{ @ @ @ @ @ . @ @ @ @ @ @ @ n.",
"+ @ @ @ @ @ @ f B.C.e r = [ [ [ [ r r [ F F [ F d 6 6 6 6 6 6 7 [ [ * @ r.D.C.B.= r r r r r r ^ >.E.@ @ @ @ @ . @ @ @ @ @ @ @ n.",
"+ @ @ @ @ @ @ { 4 F.G.= [ = r r r z z r ^ = [ = ^ - - - - - - L r r H.I.J.K.L.M.[ = ^ r z z 7 z [ N.O..         @ @ @ @ D @ @ n.",
"+ @ @ @ @ @ @ @ @ @ K P.o.Q.r L - z - r ^ ^ - - - - z 7 z z - L r r L - R.:.@ * [ ^ r r z z 7 z z - S./.4 @ @ @ @ @ @ @ T.{ @ n.",
"@ @ @ @ @ @ @ @ @ @ @ @ @ P [ - z [ [ [ r L z z z z 7 x 7 7 z - r [ - z ^ 2.@ * = r r r r L z 7 7 z - [ P @ @ @ @ @ @ @ }.@ @ n.",
"+ @ $ . # @ @ @ @ @ @ @ @ { c.U.^ r - z z z z z L 7 7 7 z z z - r [ ^ L = s @ * = r r r r r L z z z z r V.W.@ @ { X.Y.Z.`.{ { n.",
"@ @ $ # # @ @ @ @ @ @ @ @ @ @ m d.8.- z z z z - L 7 7 7 z z z - r [ ^ r  +u.@ * [ r r r r r r z z z z r = s @ @ @ { .+[.++@+#+$+",
"+ @ $ $ @ @ @ @ @ @ @ @ @ @ @ @ { f.[ [ [ = r r r r - z L r r ^ [ [ [ [ P @ @ %+[ [ [ [ [ [ [ [ [ [ [ [ [ 2.@ @ @ 4 &+*+$ :.@ n.",
"@ @ @ @ @ @ @ @ @ @ @ @ @ @ @ @ @ > g.g.g.=+^ ^ ^ ^ L - ^ ^ ^ -+g.g.g.;+4 @ @ K g.g.g.g.g.g.g.g.g.g.g.g.g.}.@ @ { >+,+$ $ [.b n.",
"$ n.n.n.n.n.n.$ n.$ n.$ $ $ $ $ $ $ n.$ n.'+[ [ [ [ [ [ [ [ [ = $ $ $ $ $ $ $ $ n.$ n.$ $ n.$ n.$ n.n.n.n.n.n.$ n.)+n.!+!+~+{+n."};
