/* XPM */
static char * guitone_xpm[] = {
"64 64 219 2",
"  	c #889C9E",
". 	c #62797E",
"+ 	c #536265",
"@ 	c #464D4F",
"# 	c #383F40",
"$ 	c #382B2F",
"% 	c #241B17",
"& 	c #4B3F38",
"* 	c #454C4E",
"= 	c #4B585B",
"- 	c #464C49",
"; 	c #404748",
"> 	c #080808",
", 	c #484820",
"' 	c #484821",
") 	c #464D4E",
"! 	c #404749",
"~ 	c #484823",
"{ 	c #414749",
"] 	c #484822",
"^ 	c #40432F",
"/ 	c #474B3A",
"( 	c #474B39",
"_ 	c #464C48",
": 	c #474C45",
"< 	c #474B3E",
"[ 	c #373D3E",
"} 	c #313637",
"| 	c #402008",
"1 	c #474933",
"2 	c #474A3C",
"3 	c #392C2E",
"4 	c #484908",
"5 	c #484800",
"6 	c #474A37",
"7 	c #1B1E1F",
"8 	c #101010",
"9 	c #474B42",
"0 	c #484812",
"a 	c #464504",
"b 	c #4B4E32",
"c 	c #E8F088",
"d 	c #F8F8E8",
"e 	c #707828",
"f 	c #484825",
"g 	c #484815",
"h 	c #484814",
"i 	c #474A34",
"j 	c #2D3133",
"k 	c #1C1F20",
"l 	c #CB9D58",
"m 	c #EED784",
"n 	c #412718",
"o 	c #2F3335",
"p 	c #454646",
"q 	c #44403F",
"r 	c #484808",
"s 	c #A8B058",
"t 	c #47492B",
"u 	c #464C45",
"v 	c #464D4D",
"w 	c #34393A",
"x 	c #25292A",
"y 	c #474932",
"z 	c #464C47",
"A 	c #1D1F1F",
"B 	c #906828",
"C 	c #D0A058",
"D 	c #F8E088",
"E 	c #666E36",
"F 	c #3D4345",
"G 	c #412A1C",
"H 	c #402000",
"I 	c #0A0B0B",
"J 	c #986800",
"K 	c #404648",
"L 	c #444443",
"M 	c #422F26",
"N 	c #CD9E57",
"O 	c #323638",
"P 	c #464A4C",
"Q 	c #474B3F",
"R 	c #402310",
"S 	c #434A4C",
"T 	c #433E3C",
"U 	c #464C4E",
"V 	c #402207",
"W 	c #423630",
"X 	c #0D0E0E",
"Y 	c #704000",
"Z 	c #3B3735",
"` 	c #433936",
" .	c #8F6829",
"..	c #876431",
"+.	c #433A35",
"@.	c #3A3F41",
"#.	c #2F3436",
"$.	c #402104",
"%.	c #48492C",
"&.	c #474A3B",
"*.	c #464D4C",
"=.	c #3D2E27",
"-.	c #454848",
";.	c #2B2F31",
">.	c #0A0A0A",
",.	c #402009",
"'.	c #393E40",
").	c #484811",
"!.	c #40210C",
"~.	c #474A30",
"{.	c #464C4D",
"].	c #0F1111",
"^.	c #402206",
"/.	c #363C3D",
"(.	c #444B4D",
"_.	c #373C3E",
":.	c #484824",
"<.	c #0D0B0B",
"[.	c #3A4042",
"}.	c #474A39",
"|.	c #474B40",
"1.	c #423027",
"2.	c #3B4142",
"3.	c #3C4244",
"4.	c #42484A",
"5.	c #3A4041",
"6.	c #282C2D",
"7.	c #202424",
"8.	c #383E3F",
"9.	c #3F4648",
"0.	c #474B3D",
"a.	c #6F772A",
"b.	c #1E2122",
"c.	c #1F2223",
"d.	c #212526",
"e.	c #1C1E1F",
"f.	c #383E40",
"g.	c #353A3B",
"h.	c #41484A",
"i.	c #433D3B",
"j.	c #131414",
"k.	c #0C0D0E",
"l.	c #1E2425",
"m.	c #2C3132",
"n.	c #686F35",
"o.	c #1E2222",
"p.	c #484930",
"q.	c #423631",
"r.	c #2C3031",
"s.	c #43494B",
"t.	c #0C0C0D",
"u.	c #493D37",
"v.	c #422615",
"w.	c #41291E",
"x.	c #282C2E",
"y.	c #202223",
"z.	c #2F1C17",
"A.	c #443E3C",
"B.	c #454647",
"C.	c #1D2021",
"D.	c #6F7729",
"E.	c #141617",
"F.	c #393F41",
"G.	c #383D3F",
"H.	c #48492B",
"I.	c #232627",
"J.	c #402617",
"K.	c #191B1C",
"L.	c #34393B",
"M.	c #3E281D",
"N.	c #202324",
"O.	c #353A3C",
"P.	c #412618",
"Q.	c #42322B",
"R.	c #313638",
"S.	c #232728",
"T.	c #40210A",
"U.	c #2B3031",
"V.	c #090909",
"W.	c #454B4D",
"X.	c #515F62",
"Y.	c #414D4F",
"Z.	c #494A0F",
"`.	c #151A1C",
" +	c #586D72",
".+	c #5F767B",
"++	c #60777B",
"@+	c #3C4A4E",
"#+	c #171D1E",
"$+	c #405053",
"%+	c #272B2C",
"&+	c #252829",
"*+	c #474931",
"=+	c #212324",
"-+	c #42332C",
";+	c #1E191B",
">+	c #303C3E",
",+	c #303536",
"'+	c #1D2020",
")+	c #484801",
"!+	c #372A2E",
"~+	c #353C3D",
"{+	c #292D2E",
"]+	c #212425",
"^+	c #181211",
"/+	c #0B0C0C",
"(+	c #2B2F30",
"_+	c #292023",
":+	c #312629",
"<+	c #2D3233",
"[+	c #303436",
"}+	c #31262A",
"|+	c #261815",
"1+	c #131312",
"2+	c #2D2225",
"3+	c #2C1B16",
"4+	c #141413",
"5+	c #2C1A16",
"6+	c #1F1513",
"      . . . . . . + . . . . + . + . + . + . + + + + + + . + . + . + . . . . . . . . . . . . . . . . . . . . . . . + . . . . + . ",
". @ @ @ @ @ @ @ @ @ @ @ @ @ @ @ @ @ @ @ @ @ @ @ @ @ @ @ @ @ @ @ @ @ @ @ @ @ @ @ @ @ @ @ @ @ @ @ @ @ @ @ @ @ @ @ @ @ @ @ @ @ @ @ ",
". @ @ @ @ @ @ @ @ @ @ @ @ @ @ @ @ @ @ @ @ @ @ @ @ @ @ @ @ @ @ @ @ @ @ @ @ @ @ @ @ @ @ @ @ @ @ @ @ @ @ @ @ @ @ @ @ @ @ @ @ @ @ # ",
"+ @ $ . # @ @ @ @ @ @ @ @ @ @ @ @ @ @ @ @ @ @ @ @ @ @ @ @ @ @ @ @ @ @ @ @ @ @ @ @ @ @ @ @ @ @ @ @ @ @ @ @ @ @ @ @ @ $ . # @ @ @ ",
". @ $ # # @ @ @ @ @ @ @ @ @ @ @ @ @ @ @ @ @ @ @ @ @ @ @ @ @ @ @ @ @ @ @ @ @ @ @ @ @ @ @ @ @ @ @ @ @ @ @ @ @ @ @ @ @ $ # # @ @ # ",
"+ @ $ $ @ @ @ @ @ @ @ @ @ @ @ @ @ @ @ @ @ @ @ @ @ @ @ @ @ @ @ @ @ @ @ @ @ @ @ @ @ @ @ @ @ @ @ @ @ @ @ @ @ @ @ @ @ @ $ $ @ @ @ @ ",
"+ @ @ @ @ @ @ @ @ @ @ @ @ @ @ @ @ @ @ @ @ @ @ @ @ @ @ @ @ @ @ @ @ @ @ @ @ @ @ @ @ @ @ @ @ @ @ @ @ @ @ @ @ @ @ @ @ @ @ @ @ @ @ # ",
"+ @ @ @ @ @ @ @ @ @ @ @ @ @ @ @ @ @ @ @ @ @ @ @ @ @ @ @ @ @ @ @ @ @ @ @ @ @ @ @ @ @ @ @ @ @ @ @ @ @ @ @ @ @ @ @ @ @ @ @ @ @ @ # ",
"@ @ @ @ @ @ @ @ % % $ $ $ $ $ $ $ # $ # $ $ $ $ $ $ $ $ $ $ $ $ % % % % % $ % $ $ $ $ $ $ $ $ $ $ # $ # $ # # # @ @ @ @ @ @ @ # ",
"+ @ @ @ @ @ @ @ $ # @ @ @ @ @ @ @ @ @ @ @ @ @ @ @ @ @ @ @ @ @ @ & @ & & & @ & @ & @ @ @ @ @ @ @ @ @ @ @ @ @ @ @ @ @ @ @ @ @ @ # ",
"@ @ @ @ @ @ @ @ # @ @ @ @ @ @ @ @ @ @ @ @ @ @ @ @ @ @ @ @ @ @ @ @ & @ & & & @ @ @ @ @ @ @ @ @ @ @ @ @ @ @ @ @ + @ @ @ @ @ @ @ # ",
"+ @ @ @ @ @ @ @ $ @ @ @ @ @ @ @ @ @ @ @ @ @ @ @ @ @ @ @ @ @ @ @ @ @ & @ & @ & @ @ @ @ @ # @ @ @ @ @ @ @ @ @ @ @ @ @ @ @ @ @ @ # ",
"+ @ @ @ @ @ @ @ # @ @ @ @ @ @ @ @ @ @ @ @ @ @ @ @ @ @ @ @ @ @ @ @ @ @ & & & @ @ @ # @ # @ @ @ @ @ @ @ @ @ @ @ + @ @ @ @ @ @ @ $ ",
"+ @ @ @ @ @ @ @ # @ @ @ @ @ @ @ @ @ @ @ @ @ @ @ @ @ @ @ @ @ @ @ @ @ @ @ & @ & @ # @ # @ @ @ @ @ @ @ @ @ @ @ @ + @ @ @ @ @ @ @ # ",
"+ @ @ @ @ @ @ @ # @ @ @ @ @ @ @ @ @ @ @ @ @ @ # @ @ @ @ @ @ @ @ @ @ @ & @ & @ # @ # @ @ @ @ @ @ @ @ @ @ @ @ * = - - @ @ @ @ @ $ ",
"+ @ @ @ @ @ @ @ # @ @ @ @ @ @ @ @ @ @ @ @ @ $ + @ @ @ @ @ @ @ @ @ @ @ @ & @ # @ @ @ @ @ @ @ @ @ @ @ @ @ @ @ ; > , ' ) @ @ @ @ $ ",
"+ @ @ @ @ @ @ @ # @ @ @ @ @ @ @ @ @ @ @ @ $ + @ @ @ @ @ @ @ @ @ @ @ @ & @ @ @ @ @ @ @ @ @ @ @ @ @ @ @ @ @ @ ! > , ~ ) @ @ @ @ $ ",
"+ @ @ @ @ @ @ @ # @ @ @ @ @ @ @ @ @ @ @ # + @ @ @ @ @ @ @ @ @ @ @ @ & @ @ @ @ @ @ @ @ @ @ @ @ @ @ @ @ @ @ @ ! > , ~ ) @ @ @ @ # ",
"+ @ @ @ @ @ @ @ # @ @ @ @ @ @ @ @ @ @ @ @ @ @ @ @ @ @ @ @ @ @ @ @ @ @ @ @ @ @ @ @ @ @ @ @ @ @ @ @ @ @ @ @ @ { > , ] ) @ @ @ @ $ ",
"+ @ @ @ @ @ @ @ # @ @ @ @ @ @ @ @ ) ^ / / / / ( _ @ @ @ @ @ @ @ @ @ @ @ @ # @ @ @ @ @ @ @ @ @ @ : < < : @ [ } | 1 2 @ @ @ @ @ # ",
"+ @ @ @ @ @ @ @ # @ @ @ @ @ @ @ @ 3 4 5 5 5 5 5 < @ @ @ @ @ @ @ @ @ # @ # @ @ @ @ @ @ @ @ @ @ @ 6 , , 6 @ 7 8 , 9 @ @ @ @ @ @ # ",
"+ @ @ @ @ @ @ @ # @ @ @ @ @ - 0 a b c c d d d e f g h i @ @ @ @ @ # @ # @ @ @ @ @ @ @ @ @ @ @ @ j 8 , 6 @ k 8 , l m n o @ @ @ # ",
"+ @ @ @ @ @ @ @ # @ @ @ @ p q 5 5 r c c d d d s s e , t u v @ @ # # # @ @ @ @ @ @ @ @ @ @ @ @ @ w x , y z A , B C D B E F * @ # ",
"+ @ @ @ @ @ @ @ # @ @ @ @ G H H H H > s c c c c c c e e 5 _ @ # @ & @ @ @ @ @ @ @ @ @ @ @ @ @ @ @ @ I | , > e D C J D C > K @ # ",
"+ @ @ @ @ @ @ @ # @ @ L M N C C C D D s e s s e e e , r 5 _ @ @ & & & @ @ @ @ @ @ @ @ @ @ @ @ @ @ @ F O 8 C C C C D B E F * @ # ",
"+ @ @ @ @ @ @ @ # @ P Q , C C C D D D C > s s 5 , , 8 R 0 - @ & @ & @ @ @ @ @ @ @ @ @ @ @ @ @ @ @ @ S T 8 D D B C D | j @ @ @ # ",
"+ @ @ @ @ @ @ @ # U V B C C C D D D C B > > | B C C | W @ @ @ @ & @ @ @ @ @ @ @ @ @ @ @ @ @ @ @ @ * X Y J D D D s > , 6 @ @ @ # ",
"+ @ @ @ @ @ @ @ Z `  .C C D D C C C C B > , B C C D B ..+.P @ @ @ @ @ @ @ @ @ @ @ @ @ @ @ @ @ @ @.#.$.5 Y C C s e > | %.&.*.@ $ ",
"+ @ @ @ @ @ @ @ =.| C C C D D B C C B B > B B C D D C B H -.@ @ @ @ @ @ @ @ @ @ @ @ @ @ @ @ @ @ ;.> H H H J J > >.I I ,., - @ # ",
"@ @ @ '.X { - ).!.> | B C B B C C C | B C C C B B B r ~.{.@ @ @ @ @ @ @ @ @ @ @ @ @ @ @ @ @ { ].^.H J J J | 8 > /.(.(._.8 :.f <.",
"+ @ [.}.e |.|.e e s 8 e C B B C C s B s C C C B B B H 1.2.[.3.@ @ @ @ @ @ @ @ @ @ @ @ 4.5.[./.8 5 Y Y Y J | 8 | q @ @ F 6.:.:.7.",
"@ @ > e s , , s c c 8 > > > | B , 8 C C D C C C B B H H > > 7 @ @ @ @ @ @ @ @ @ @ @ @ 8.> > 8 H J J 8 > > > 8 , 9 @ @ @ @ 7 7 $ ",
"+ @ 9.0., e e s s s c s e | 8 | Y B B C C C C C B B H H 5 e a.b.2.@ @ 2.b.c.c.b.2.* d.e.H H H 8 | | H , B | 8 8 f.@ @ @ @ ! ! $ ",
"@ @ @ f.8 e e s s e c s e | > > Y B B B C C C C B B , , 5 e e 8 g.h.h.i.| | | , < ! j.H 5 H | , , , r Y B | k.l.5.@ @ @ @ @ @ $ ",
"+ @ @ Q 5 s s c s s e e e | > > > 8 B B C , H B C C C s H s s 5 | > > Y J J B C B > H Y J | , C C C B B C , k + @ @ @ @ @ @ @ $ ",
"+ @ m.n.s c c c s s e e , r H > > 8 B B B B s C C D C B H e e e r 8 Y B C C C D s Y H H Y Y B C C D C C C , k + @ @ @ @ @ @ @ $ ",
"+ @ > e s c c c s s e e r 5 5 > > 8 B B B C C C D D C B H 5 r e , | J C C D D D C J H H > B B C D D D D C ] o.+ @ @ @ @ @ @ @ $ ",
"+ @ > , e s s e e r r r > e e 5 | > 8 | H C C C C C C s H 8 8 > Y J D D D D D D D D J B e r r B C C , | | K * + @ @ @ @ @ @ @ $ ",
"+ @ m.p., s s e e , r r , s s e , 8 e e , B B B B B B B H | , B s C D D D D D D D D C s , , , Y B  .q.m.r.s.@ + @ @ @ @ @ @ @ $ ",
"+ @ @ 8.> e e s e e 8 , e c c s e 8 s s e | > > H H H 8 > Y B C D D C C C C C D C C D C > e e > > t.* @ @ @ @ + @ @ @ @ @ @ @ $ ",
"@ @ @ u.4.v.r e , r e e s s s s e e , e s , > > H Y C C C D D D C C B Y , , , B C C D C J r w.4.h.h.@ @ @ @ @ + @ @ @ @ @ @ @ $ ",
"+ @ @ @ @ x.y.r r r e e s e e s e e r e s , | , B B C C C D D D C C Y H > > | Y B C D C J | k @ @ @ @ @ @ @ @ + @ @ @ @ @ @ @ $ ",
"@ @ @ @ @ @ { > r r r , e e e e , 5 e , > Y B C D D D D D D D C C C 8 > > > | Y H > > Y J | 7 @ @ @ @ @ @ @ @ + @ @ @ @ @ @ @ z.",
"@ @ @ @ @ @ ! > r r | r , e e r r 5 , r Y B C D D D D D D C C D C C | > > > 8 H s s s s 5 A.3.@ @ @ @ @ @ @ @ + @ @ @ @ @ @ @ $ ",
"@ @ @ @ @ @ ! > r r > | r e e 5 5 5 > | Y C C D D D D D D C C D C C , | 8 > 8 8 s c c s 8 B.(.@ @ @ @ @ @ @ @ + @ @ @ @ @ @ @ z.",
"@ @ @ @ @ @ { > > > > > > > 8 5 5 5 > B C D D D C B D D C D D C D D C C Y | , s c c c c s ' C.@ @ @ @ @ @ @ @ + @ @ @ @ @ @ @ $ ",
"@ @ @ @ @ [ &.e e , 8 8 | | | 5 5 H > B C D D C B Y C C D D D D C C C B H H , s s c c s s , k @ @ @ @ @ @ @ @ + @ @ @ @ @ @ @ $ ",
"+ @ @ @ @ 7 , s e e 8 | r r r 5 | > > B C D D Y H H Y s D C C D s Y J Y > 5 r e s s s s s , k @ @ @ @ @ @ @ @ + @ @ @ @ @ @ @ $ ",
"@ @ @ @ @ k 8 , , r 8 8 8 r r e , > > Y J D D C B 8 s s B D D D s H | | > 5 r e e e c c s e D.E.F.@ @ @ @ @ @ + @ @ @ @ @ @ @ $ ",
"+ @ @ @ @ k | , , , | 8 > r r e , > > Y J D D C B e s e B C D D s Y 8 8 > 5 r e e e c s s e e > G.@ @ @ @ @ @ . @ @ @ @ @ @ @ $ ",
"+ @ @ @ @ k , s e e r r > r r 5 H > > | Y D D D C C > e s B B C B J H H > 5 5 5 s s 5 5 5 s s > f.@ @ @ @ @ @ + @ @ @ @ @ @ @ $ ",
"+ @ @ @ @ k , e e , r r > 8 | 5 | 8 Y H H C C D C C C B , r Y C C D C B > 5 r e e e | | 8 , e e H.x * @ @ @ @ . @ @ @ @ @ @ @ $ ",
"+ @ @ @ @ I.J.e , r r r 8 > 8 5 | 8 Y 5 > C C D C C C s | | B C D D C B > 5 r e , 5 8 8 8 , , e f K.* @ @ @ @ + @ @ @ @ @ @ @ z.",
"+ @ @ @ @ @ ! > r r r r r 8 > > > > > H Y | , C D D C C C B B D D D | > > 5 5 5 | > 5 , e s s > f.@ @ @ @ @ @ . @ @ @ @ @ @ @ $ ",
"+ @ @ @ @ @ S L.M.| | r r 8 8 H H r , , H H Y B C C D D D C C D C s 8 N.O.P.H H 8 8 5 r e e e H Q.R.* @ @ @ @ . @ @ @ @ @ @ @ z.",
"+ @ @ @ @ @ @ @ S.>.I T.r 8 8 5 5 5 e , > Y Y > Y J D D D D D D s > > U.@ C.>.I V.8 5 5 5 5 5 5 | k.W.@ @ @ @ . @ @ @ @ @ @ @ z.",
"+ @ @ @ @ @ @ @ * X.X.Y.8 > > > , e e e e | 8 > 8 | , , , , , , r 5 5 Z.`. +.+++@+> 8 | 5 e e s e > #+$+        @ @ @ @ @ S @ z.",
"+ @ @ @ @ @ @ @ @ @ @ F %+6.&+> , e e e e r | , , , , e s e e , r 5 5 r , A.3.@ U.> | 5 5 e e s e e , *+[.(.@ @ @ @ @ @ @ =+* z.",
"@ @ @ @ @ @ @ @ @ @ @ @ @ @ { > , e > > > 5 r e e e e s c s s e , 5 > , e | 7 @ U.8 5 5 5 5 r e s s e , > { @ @ @ @ @ @ @ 5.@ z.",
"+ @ $ . # @ @ @ @ @ @ @ @ @ * K -+| 5 , e e e e e r s s s e e e , 5 > | r 8 k @ U.8 5 5 5 5 5 r e e e e 5 y.x.@ @ * ;+>+k h.* z.",
"@ @ $ # # @ @ @ @ @ @ @ @ @ @ @ ,+'+)+, e e e e , r s s s e e e , 5 > | 5 e.x @ U.> 5 5 5 5 5 5 e e e e 5 8 k @ @ @ !+~+/.{+]+^+",
"+ @ $ $ @ @ @ @ @ @ @ @ @ @ @ @ @ * /+> > > 8 5 5 5 5 , e r 5 5 | > > > > { @ @ (+> > > > > > > > > > > > > 7 @ @ @ !+_+:+@ 3.z.",
"@ @ @ @ @ @ @ @ @ @ @ @ @ @ @ @ @ @ G.[ [ [ w | | | | r , | | | <+[ [ [ _.(.@ @ F [ [ [ [ [ [ [ [ [ [ [ [ [ 5.@ @ * [+}+$ @ /.|+",
"$ z.z.z.z.z.z.$ z.$ z.$ $ $ $ $ $ $ z.$ z.$ 1+> > > > > > > > > 2+$ $ $ $ $ $ $ z.$ z.$ $ z.$ z.$ z.z.z.z.z.z.$ z.$ 3+4+4+z.5+6+"};
