/* XPM */
static char * pipitwo_xpm[] = {
"64 64 456 2",
"  	c #889C9E",
". 	c #62797E",
"+ 	c #536265",
"@ 	c #61787D",
"# 	c #526164",
"$ 	c #61777C",
"% 	c #4A585A",
"& 	c #3A484A",
"* 	c #413A1E",
"= 	c #402000",
"- 	c #101008",
"; 	c #293232",
"> 	c #4E6064",
", 	c #5F767B",
"' 	c #464D4F",
") 	c #454C4E",
"! 	c #414849",
"~ 	c #3B4142",
"{ 	c #393F40",
"] 	c #43443C",
"^ 	c #413D2B",
"/ 	c #706838",
"( 	c #403818",
"_ 	c #412715",
": 	c #2E3333",
"< 	c #3C4243",
"[ 	c #434A4C",
"} 	c #43494B",
"| 	c #443F3D",
"1 	c #423127",
"2 	c #202321",
"3 	c #413B25",
"4 	c #6E673A",
"5 	c #A09868",
"6 	c #40391B",
"7 	c #412818",
"8 	c #2B302F",
"9 	c #3C4244",
"0 	c #444B4D",
"a 	c #383F40",
"b 	c #382B2F",
"c 	c #44453F",
"d 	c #666140",
"e 	c #2E3232",
"f 	c #444A4C",
"g 	c #423E2E",
"h 	c #6E6739",
"i 	c #40381A",
"j 	c #2C3130",
"k 	c #3D4344",
"l 	c #3A4041",
"m 	c #413D29",
"n 	c #403819",
"o 	c #41291A",
"p 	c #2D3131",
"q 	c #402102",
"r 	c #1B1D19",
"s 	c #323738",
"t 	c #434A4B",
"u 	c #161813",
"v 	c #303535",
"w 	c #45494A",
"x 	c #241B17",
"y 	c #2F2427",
"z 	c #3F361E",
"A 	c #6E6638",
"B 	c #625A35",
"C 	c #3B3029",
"D 	c #35292C",
"E 	c #383E3F",
"F 	c #44413F",
"G 	c #413C28",
"H 	c #B8A880",
"I 	c #B7A77F",
"J 	c #9A9366",
"K 	c #423F30",
"L 	c #625E42",
"M 	c #6C653B",
"N 	c #E8D8B0",
"O 	c #413B24",
"P 	c #363C3D",
"Q 	c #3F4547",
"R 	c #6D663B",
"S 	c #9F9768",
"T 	c #6C663B",
"U 	c #454B4B",
"V 	c #3E4445",
"W 	c #272A29",
"X 	c #9D9567",
"Y 	c #67623F",
"Z 	c #43453E",
"` 	c #414749",
" .	c #3F4647",
"..	c #6F6739",
"+.	c #9E9667",
"@.	c #69633E",
"#.	c #444540",
"$.	c #434238",
"%.	c #9C9567",
"&.	c #353B3B",
"*.	c #42484A",
"=.	c #212422",
"-.	c #2A2E2E",
";.	c #444742",
">.	c #885820",
",.	c #282C2B",
"'.	c #3E4446",
").	c #444845",
"!.	c #615E43",
"~.	c #989165",
"{.	c #222523",
"].	c #34393A",
"^.	c #424135",
"/.	c #999265",
"(.	c #B6A67F",
"_.	c #DFD167",
":.	c #D0A058",
"<.	c #151611",
"[.	c #333839",
"}.	c #42494B",
"|.	c #6F6839",
"1.	c #402309",
"2.	c #41484A",
"3.	c #CF9F58",
"4.	c #40230B",
"5.	c #28221F",
"6.	c #625F42",
"7.	c #F8D890",
"8.	c #40391D",
"9.	c #444844",
"0.	c #424033",
"a.	c #413B23",
"b.	c #402206",
"c.	c #40391C",
"d.	c #423731",
"e.	c #3F230D",
"f.	c #40391E",
"g.	c #2F3333",
"h.	c #464B4C",
"i.	c #433E3B",
"j.	c #6D663A",
"k.	c #423F2F",
"l.	c #373D3D",
"m.	c #454A4B",
"n.	c #433D3A",
"o.	c #41250E",
"p.	c #6F6838",
"q.	c #413E2C",
"r.	c #444641",
"s.	c #42494A",
"t.	c #42342C",
"u.	c #402510",
"v.	c #42332B",
"w.	c #464D4E",
"x.	c #444443",
"y.	c #423229",
"z.	c #402511",
"A.	c #402103",
"B.	c #292D2C",
"C.	c #464C4E",
"D.	c #444240",
"E.	c #412C1F",
"F.	c #2A2E2D",
"G.	c #1A1C18",
"H.	c #402104",
"I.	c #412919",
"J.	c #2F3434",
"K.	c #404748",
"L.	c #4B3F38",
"M.	c #3B4042",
"N.	c #2C3030",
"O.	c #403A20",
"P.	c #885821",
"Q.	c #313536",
"R.	c #353A3B",
"S.	c #875822",
"T.	c #3D4445",
"U.	c #363B3C",
"V.	c #413A21",
"W.	c #433833",
"X.	c #454545",
"Y.	c #444B4C",
"Z.	c #412F25",
"`.	c #412B1E",
" +	c #1D1F1C",
".+	c #363C3C",
"++	c #444743",
"@+	c #5E5C44",
"#+	c #413B22",
"$+	c #43433B",
"%+	c #383D3E",
"&+	c #1D201D",
"*+	c #423F31",
"=+	c #918B63",
"-+	c #B4A57E",
";+	c #43443B",
">+	c #404648",
",+	c #3C4143",
"'+	c #413A22",
")+	c #9E9767",
"!+	c #B7A880",
"~+	c #424034",
"{+	c #413D2A",
"]+	c #474D4F",
"^+	c #4C514D",
"/+	c #575848",
"(+	c #4E5350",
"_+	c #7A7754",
":+	c #9C7D53",
"<+	c #680000",
"[+	c #903000",
"}+	c #232624",
"|+	c #2F1C17",
"1+	c #546365",
"2+	c #515550",
"3+	c #6D6C53",
"4+	c #9F985A",
"5+	c #C6BB62",
"6+	c #B85800",
"7+	c #4C514F",
"8+	c #7B7854",
"9+	c #A39B5B",
"0+	c #ABA25C",
"a+	c #B2A85D",
"b+	c #69633D",
"c+	c #232625",
"d+	c #556365",
"e+	c #575A53",
"f+	c #78765C",
"g+	c #9C955A",
"h+	c #B9AF5F",
"i+	c #9D9553",
"j+	c #656656",
"k+	c #3C3B30",
"l+	c #968F65",
"m+	c #B5A67F",
"n+	c #212321",
"o+	c #4C5150",
"p+	c #807D5E",
"q+	c #B8AE73",
"r+	c #C2AB78",
"s+	c #978C4B",
"t+	c #7D8065",
"u+	c #3E433F",
"v+	c #59563C",
"w+	c #969067",
"x+	c #111109",
"y+	c #181915",
"z+	c #262A29",
"A+	c #4D5351",
"B+	c #959066",
"C+	c #D8CC81",
"D+	c #CBBE76",
"E+	c #85876E",
"F+	c #3E4341",
"G+	c #474E4F",
"H+	c #5B6D6F",
"I+	c #423128",
"J+	c #903001",
"K+	c #8E3108",
"L+	c #422F26",
"M+	c #3D4345",
"N+	c #485558",
"O+	c #545852",
"P+	c #9B987C",
"Q+	c #D8D0A1",
"R+	c #CECBA5",
"S+	c #777767",
"T+	c #3E4546",
"U+	c #402001",
"V+	c #402205",
"W+	c #670707",
"X+	c #8F3104",
"Y+	c #8C3311",
"Z+	c #412D22",
"`+	c #2C3434",
" @	c #2D3231",
".@	c #484E4F",
"+@	c #606155",
"@@	c #8E8963",
"#@	c #AFA883",
"$@	c #C7C6A2",
"%@	c #ABA686",
"&@	c #6B6D60",
"*@	c #402207",
"=@	c #1E211F",
"-@	c #903002",
";@	c #680404",
">@	c #41230B",
",@	c #4A5050",
"'@	c #79775C",
")@	c #C0B573",
"!@	c #D1CA89",
"~@	c #9F9869",
"{@	c #6C6E61",
"]@	c #515654",
"^@	c #424032",
"/@	c #171814",
"(@	c #1E201E",
"_@	c #323737",
":@	c #3A3F40",
"<@	c #2A2F2E",
"[@	c #14150F",
"}@	c #670909",
"|@	c #412A1C",
"1@	c #242726",
"2@	c #4A4F50",
"3@	c #7D7256",
"4@	c #D2BA83",
"5@	c #D7BD81",
"6@	c #8F8264",
"7@	c #4D5250",
"8@	c #444640",
"9@	c #656040",
"0@	c #9A9265",
"a@	c #313636",
"b@	c #2D3232",
"c@	c #402208",
"d@	c #680101",
"e@	c #680203",
"f@	c #402512",
"g@	c #42322A",
"h@	c #494F4F",
"i@	c #767454",
"j@	c #BBB15F",
"k@	c #C2B761",
"l@	c #837F56",
"m@	c #464C4C",
"n@	c #3B3C34",
"o@	c #6C6742",
"p@	c #3B4143",
"q@	c #1A1C19",
"r@	c #1E201D",
"s@	c #212624",
"t@	c #393E3F",
"u@	c #777454",
"v@	c #848056",
"w@	c #433A35",
"x@	c #413C26",
"y@	c #875821",
"z@	c #373C3D",
"A@	c #4C5E62",
"B@	c #676752",
"C@	c #8D8857",
"D@	c #B4AA5E",
"E@	c #B1A75D",
"F@	c #797654",
"G@	c #9F9767",
"H@	c #44403E",
"I@	c #454B4D",
"J@	c #423026",
"K@	c #433C38",
"L@	c #5D5F51",
"M@	c #999259",
"N@	c #B5AB5E",
"O@	c #A29B5B",
"P@	c #807C55",
"Q@	c #845726",
"R@	c #855725",
"S@	c #77867C",
"T@	c #B3AF72",
"U@	c #C9C06D",
"V@	c #A0A176",
"W@	c #6C7F7D",
"X@	c #637A7E",
"Y@	c #5E7479",
"Z@	c #53676B",
"`@	c #3F4E50",
" #	c #43402C",
".#	c #885822",
"+#	c #433F29",
"@#	c #415053",
"##	c #5C7176",
"$#	c #5A7074",
"%#	c #535F5C",
"&#	c #96926D",
"*#	c #B5A680",
"=#	c #412713",
"-#	c #7B8D8F",
";#	c #889B9D",
">#	c #525650",
",#	c #6D6D59",
"'#	c #C3B877",
")#	c #DFD284",
"!#	c #A69F6C",
"~#	c #565952",
"{#	c #464C4D",
"]#	c #2B2F2F",
"^#	c #454A49",
"/#	c #5D5B45",
"(#	c #6B653C",
"_#	c #4A504F",
":#	c #727053",
"<#	c #8F8A57",
"[#	c #7F7C55",
"}#	c #555850",
"|#	c #DED183",
"1#	c #2E3332",
"2#	c #412817",
"3#	c #433B37",
"4#	c #434741",
"5#	c #8A8557",
"6#	c #B3A95E",
"7#	c #9D965A",
"8#	c #5F6151",
"9#	c #6D6F62",
"0#	c #C3BD95",
"a#	c #DED7A8",
"b#	c #A6A283",
"c#	c #565A56",
"d#	c #454948",
"e#	c #6A643D",
"f#	c #412613",
"g#	c #865823",
"h#	c #412C20",
"i#	c #6B643C",
"j#	c #412A1B",
"k#	c #404541",
"l#	c #979059",
"m#	c #858156",
"n#	c #575A50",
"o#	c #605D43",
"p#	c #958F64",
"q#	c #656140",
"r#	c #B2A37D",
"s#	c #505450",
"t#	c #595C51",
"u#	c #756551",
"v#	c #434339",
"w#	c #6C653C",
"x#	c #343939",
"y#	c #B7A780",
"z#	c #40230A",
"A#	c #666652",
"B#	c #B0A65D",
"C#	c #C8BC62",
"D#	c #827E55",
"E#	c #412714",
"F#	c #5F5438",
"G#	c #AEA253",
"H#	c #C7BA5D",
"I#	c #928642",
"J#	c #483C32",
"K#	c #41331E",
"L#	c #94894A",
"M#	c #CDC05F",
"N#	c #16140F",
"O#	c #2A2122",
"P#	c #2D1B16",
"Q#	c #2A1A14",
"R#	c #201A19",
"S#	c #402002",
"T#	c #121109",
"U#	c #20160F",
"V#	c #2C1B15",
"W#	c #141413",
"      . . . . . . + . . . . + . + . + . + . + + + + + + . + @ # $ % & * = - - - ; > , . . . . . . . . . . . . . . + . . . . + . ",
". ' ' ' ' ' ' ' ' ' ' ' ' ' ' ' ' ' ' ' ' ' ' ' ' ' ' ' ' ) ! ~ { ] ^ / / ( ( ( _ : < [ ' ' ' ' ' ' ' ' ' ' ' ' ' ' ' ' ' ' ' ' ",
". ' ' ' ' ' ' ' ' ' ' ' ' ' ' ' ' ' ' ' ' ' ' ' ' ' ' ' ) } | 1 2 3 4 5 5 / / / 6 7 8 9 0 ' ' ' ' ' ' ' ' ' ' ' ' ' ' ' ' ' ' a ",
"+ ' b . a ' ' ' ' ' ' ' ' ' ' ' ' ' ' ' ' ' ' ' ' ' ' ' ! c d 4 / 5 5 5 5 / / / / ( 7 e ~ f ' ' ' ' ' ' ' ' ' ' ' ' b . a ' ' ' ",
". ' b a a ' ' ' ' ' ' ' ' ' ' ' ' ' ' ' ' ' ' ' ' ' ' ) < g h 5 5 5 / / / / / / / ( i _ j k f ' ' ' ' ' ' ' ' ' ' ' b a a ' ' a ",
"+ ' b b ' ' ' ' ' ' ' ' ' ' ' ' ' ' ' ' ' ' ' ' ' ' ' ) l m / 5 5 / / / / / / ( ( ( ( n o p ~ 0 ' ' ' ' ' ' ' ' ' ' b b ' ' ' ' ",
"+ ' ' ' ' ' ' ' ' ' ' ' ' ' ' ' ' ' ' ' ' ' ' ' ' ' ' ) l m / 5 / / / / / / ( ( ( ( ( ( q r s t ' ' ' ' ' ' ' ' ' ' ' ' ' ' ' a ",
"+ ' ' ' ' ' ' ' ' ' ' ' ' ' ' ' ' ' ' ' ' ' ' ' ' ' ' ) l m / 5 / / / ( ( ( ( - - - - - - u v w ' ' ' ' ' ' ' ' ' ' ' ' ' ' ' a ",
"' ' ' ' ' ' ' ' x x b b b b b b b a b a b b b b b b b b y z / 5 / / ( ( ( ( / / / / / / / A B C D E b a b a a a ' ' ' ' ' ' ' a ",
"+ ' ' ' ' ' ' ' b a ' ' ' ' ' ' ' ' ' ' ' ' ' ' ' ' ' 0 F G ( / / / / = ( / 5 H H H H H H I J K l 0 ' ' ' ' ' ' ' ' ' ' ' ' ' a ",
"' ' ' ' ' ' ' ' a ' ' ' ' ' ' ' ' ' ' ' ' ' ' ' ' ' t ~ L M / / ( / / 5 5 5 H N N H H H H H 5 O P 0 ' ' ' ' ' + ' ' ' ' ' ' ' a ",
"+ ' ' ' ' ' ' ' b ' ' ' ' ' ' ' ' ' ' ' ' ' ' ' ' ' Q p R S / / ( / 5 H H H N N N H H H H H 5 T ] U ) ' ' ' ' ' ' ' ' ' ' ' ' a ",
"+ ' ' ' ' ' ' ' a ' ' ' ' ' ' ' ' ' ' ' ' ' ' ' ' ' V W i / / ( / 5 H H H H N N N H H H H H H X Y Z ` ) ' ' ' + ' ' ' ' ' ' ' b ",
"+ ' ' ' ' ' ' ' a ' ' ' ' ' ' ' ' ' ' ' ' ' ' ' ' '  .e O ../ / 5 H N N H H H N N N H H N N N H +.@.#.w ) ' ' + ' ' ' ' ' ' ' a ",
"+ ' ' ' ' ' ' ' a ' ' ' ' ' ' ' ' ' ' ' ' ' ' a ' ' [ k $.O ( / 5 H N N H H N N N N N H N N N H 5 %.Y &.*.' ' + ' ' ' ' ' ' ' b ",
"+ ' ' ' ' ' ' ' a ' ' ' ' ' ' ' ' ' ' ' ' ' b + ' ' ' ) l =.- / / 5 N N H H N H H N N H N N N H H H ..-. .' ' + ' ' ' ' ' ' ' b ",
"+ ' ' ' ' ' ' ' a ' ' ' ' ' ' ' ' ' ' ' ' b + ' ' ' ' ) ;.m / >./ / 5 N N H 5 H N H N N N N N N H H / ,.'.) ' . ' ' ' ' ' ' ' b ",
"+ ' ' ' ' ' ' ' a ' ' ' ' ' ' ' ' ' ' ' a + ' ' ' ' [ ).!.~.5 / ( / H H H H 5 5 H H N N N N N N N H / {.].Q 0 . ' ' ' ' ' ' ' a ",
"+ ' ' ' ' ' ' ' a ' ' ' ' ' ' ' ' ' ' ' ' ' ' ' ' '  .^./.(._.5 / / H H 5 5 :./ / H N N N N N N N H / <.2 [.}.. ' ' ' ' ' ' ' b ",
"+ ' ' ' ' ' ' ' a ' ' ' ' ' ' ' ' ' a ' ' ' ' ' ' ' V 1 |.:._.5 >./ 5 H 5 :.:.5 / 5 H H N N N N H 5 / ( 1.: 2.. ' ' ' ' ' ' ' a ",
"+ ' ' ' ' ' ' ' a ' ' ' ' ' ' ' ' b + ' ' ' ' ' ' ' Q p R 3.:./ ( ( / 5 _._._.:.:.5 / / 5 N N N 5 / >.>.4.: 2.. ' ' ' ' ' ' ' a ",
"+ ' ' ' ' ' ' ' a ' ' ' ' ' ' ' 5.. ' ' ' ' ' ' ' ' [ ~ 6.T >.( = ( / :.7.7.7._.:.5 >.5 5 5 5 5 5 / >.>.8.: 2.. ' ' ' ' ' ' ' a ",
"+ ' ' ' ' ' ' ' a ' ' ' ' ' ' 5.. ' ' ' ' ' ' ' ' ' ' 0 9.0.a.b.- / 5 :.7.7.7._.:.:.:.:.5 / >./ 5 :.5 >.c.: 2.. ' ' ' ' ' ' ' a ",
"+ ' ' ' ' ' ' ' a ' ' ' ' ' b . ' ' ' ' ' ' ' ' ' ' ' ' [ < d.e.- / 5 :.7.7._.:.5 :.:.:.5 :.:.:.5 5 :./ f.g.2.. ' ' ' ' ' ' ' a ",
"+ ' ' ' ' ' ' ' a ' ' ' ' a + ' ' ' ' ' ' ' ' ' ' ' ' ' ' h.i.7 - / :._._._.:./ >.:.:.5 5 :.:.:.:.>.5 j.k.l.t . ' ' ' ' ' ' ' a ",
"+ ' ' ' ' ' ' ' a ' ' ' ' ' ' ' ' ' ' ' ' ' ' ' ' ' ' ' ' m.n.o.- / H 7._.:.:.>.>.:.:.5 5 :.:.:.:.>.p.q.r.s.) . ' ' ' ' ' ' ' a ",
"+ ' ' ' ' ' ' ' a ' ' ' ' ' ' ' ' ' ' ' ' ' ' ' ' ' ' ' w F t.u.( / _.7._.:.5 5 5 5 :.5 5 :.:.:.:.5 i v.Q ' ' . ' ' ' ' ' ' ' a ",
"+ ' ' ' ' ' ' ' a ' ' ' ' ' ' ' ' ' ' ' ' ' ' ' ' ' ' w.x.y.z.A.>.5 _.7._.5 / 5 :.5 5 :.5 / :.:.:.5 i B.Q ' ' . ' ' ' ' ' ' ' b ",
"+ ' ' ' ' ' ' ' a ' ' ' ' ' ' ' ' ' ' ' ' ' ' ' ' ' ' C.D.E.- = >.5 _.7._.5 ( >.5 5 :.:.5 / 5 :.5 / n B.Q ' ' . ' ' ' ' ' ' ' a ",
"' ' ' ' ' ' ' ' a ' ' ' ' ' ' ' ' ' ' ' ' ' ' ' ' ' ' ) k F.G.H.>.:._.7.:.5 ( ( >.:.:.:.5 / 5 :./ 6 I.J.K.' ' + ' ' ' ' ' ' ' b ",
"+ ' ' ' ' ' ' ' a L.' ' ' ' ' ' ' ' ' ' ' ' ' ' ' ' ' ' }.M.N.O.5 :.7.7.:./ ( ( >.:.:.:.5 :.:.>.P.3 Q.k f ' ' . ' ' ' ' ' ' ' a ",
"' ' ' ' ' ' ' ' b ' ' ' ' ' ' ' ' ' ' ' ' ' ' ' ' ' ' ' ' [ R.a.5 _._._.5 >.( >.>.:.:.>.>.:.>.S.3 d.T.) ' ' ' + ' ' ' ' ' ' ' b ",
"+ ' ' ' ' ' ' ' a L.' ' ' ' ' ' ' ' ' ' ' ' ' ) ) ) ) ' ' 0 U.O 5 7._.:./ ( >.5 :.5 >.>.>.>.>.V.W.X.Y.' ' ' ' + ' ' ' ' ' ' ' b ",
"' ' ' ' ' ' ' ' b ' ' ' ' ' ' ' ' ' ' ' ' ' ) K.l { k t ' 0 U.O 5 _.:.5 / >.>.5 :.>.>.= ( >.( 7 U.0 ' ' ' ' ' + ' ' ' ' ' ' ' b ",
"+ ' ' ' ' ' ' ' a L.' L.' ' a ' a ' ' ' ' ) U i.Z.`.0.).0 Y.U.O 5 :.:.>.( >.>.>.>.>.( = = ( (  +P 0 ' ' ' ' ' + ' ' ' ' ' ' ' b ",
"+ ' ' ' ' ' ' ' b ' L.' ' a ' a ' ' ' ' ) K.Z Y ../ a.^.~ *..+O / / >.>.>.>.>.>.>.( ( ( / / (  +P 0 ' ' ' ' ' + ' ' ' ' ' ' ' b ",
"+ ' ' ' ' ' ' ' b L.L.' a ' a ' ' ' ' ' ) l ^ ..5 / i V.N.++@+T / ( ( ( >.>.( = = ( ( / / / / #+$+` ) ' ' ' ' + ' ' ' ' ' ' ' b ",
"+ ' ' ' ' ' L.' b L.' a ' ' ' ' ' ' ' ' ) %+3 / / / ( ( &+*+=+-+5 5 / = ( ( ( ( ( ( / / 5 5 / h q.;+>+) ' ' ' + ' ' ' ' ' ' ' b ",
"+ ' ' ' ' L.' L.b L.L.' ' ' ' ' ' ' ' ' ) ,+B.'+p./ ( ( i ..)+!+H 5 / ( ( ( ( ( ( / / 5 5 5 / / 6 q.,+) ' ' ' + ' ' ' ' ' ' ' b ",
"+ ' ' ' L.' L.L.b L.' L.' ' ' ' ' ' ' ' ' }.~ ~+O.n ( ( / H H H 5 / 5 5 / = ( ( / / 5 5 5 / / / n {+~ ) ' ' ' + ' ' ' ' ' ' ' b ",
"' ' ' L.' L.' ' b L.L.' ' ' ' ' ' ' ' ' ' ' 0 l -.a.i / 5 H H 5 / / 5 5 ( ( ( / / 5 5 5 / ( / / n {+~ ) ' ' ' + ' ' ' ' ' ' ' b ",
"+ ' ' ' ' ' ' ' a L.' ' ' ' ' ' ' ' ' ' ' ' ]+^+/+k...H H H 5 / ( ( / ( = ( ( / / 5 5 5 / ( / / n {+~ ) ' ' ' + ' ' ' ' ' ' ' b ",
"' ' ' ' ' ' ' ' b ' ' ' ' ' ' ' ' ' ' ' a + (+_+:+@.)+N N 5 / ( = <+= [+[+( ( ( / / / / / ( ( ( n }+~ ) ' ' ' + ' ' ' ' ' ' ' |+",
"' ' ' ' ' ' ' ' a ' ' ' ' ' ' ' ' ' ' a 1+2+3+4+5+j.S N H 5 ( = = <+[+[+6+[+= = ( / / / / ( ( ( n }+~ ) ' ' ' + ' ' ' ' ' ' ' b ",
"' ' ' ' ' ' ' ' b ' ' ' ' ' ' ' ' ' ' + 7+8+9+0+a+b++.N N 5 / ( = <+<+[+[+[+[+[+[+>.( ( ( ( ( ( n c+~ ) ' ' ' + ' ' ' ' ' ' ' |+",
"' ' ' ' ' ' ' ' a ' ' ' ' ' ' ' ' ' d+e+f+g+h+i+j+k+l+m+N H 5 ( - = <+<+[+[+6+6+6+[+( ( = = ( ( n n+P *.) ' ' + ' ' ' ' ' ' ' b ",
"' ' ' ' ' ' ' ' a ' ' ' ' ' ' ' ' ' o+p+q+r+s+t+u+Q v+w+S 5 / ( ( ( ( = <+[+6+6+6+[+[+[+[+[+= = x+y+z+n.*.) ) # ) ' ' ' ' ' ' b ",
"+ ' ' ' ' ' ' ' a ' ' ' ' ' ' ' ' ' A+B+C+D+E+F+G+b H+I+i ( ( ( ( / ( = = ( [+[+[+[+6+6+6+[+[+[+<+J+K+L+| M+M+N+Q [ ' ' ' ' ' b ",
"' ' ' ' ' ' ' ' a ' ' ' ' ' ' ' ' G+O+P+Q+R+S+' a + T+,.p.5 / ( ( ( / / / ( U+V+W+X+[+[+6+6+6+6+6+[+[+Y+Z+z+z+`+ @< 0 ' ' ' ' b ",
"+ ' ' ' ' ' ' ' a ' ' ' ' ' ' ' .@+@@@#@$@%@&@a ' ' V W p.:.5 / >.( ( ( ( ( *@=.,.=@A.<+[+[+[+[+6+6+[+-@;@V+V+>@7 d.%+' ' ' ' b ",
"+ ' ' ' ' ' ' ' a ' ' ' ' ' ' ' ,@'@)@!@~@{@]@' ' ' T+^@X !+_.:.>.>.( i f./@(@_@:@<@[@= = = = = [+[+[+<+<+<+<+<+}@|@1@' ' ' ' b ",
"+ ' ' ' ' ' ' ' a ' ' ' ' ' ' ' 2@3@4@5@6@7@' ' ' ' s.8@9@0@:.:.>.>.n &+N.a@].V >+b@c@( ( ( ( ( ( <+d@d@d@d@d@e@f@g@Q.' ' ' ' b ",
"+ ' ' ' ' ' ' ' a ' ' ' ' ' ' ' h@i@j@k@l@7+' ' ' ' ) m@n@o@5 :.>.>.i z+p@} [ ) *.a@I.S.>.>.>.>.( *@q@r@r@&+ +s@W t@s.' ' ' ' |+",
"+ ' ' ' ' ' ' ' a ' ' ' ' ' ' ' h@u@j@k@v@7@' ' ' ' ' ' ~ m / :.>.>.i ,.T+' ' ' 0 k w@x@y@>.>.>.n I.: .+z@z@z@A@:@! ' ' ' ' ' b ",
"+ ' ' ' ' ' ' ' a ' ' ' ' ' ' 7@B@C@D@E@F@7+' ' ' ' ' ' M+~+M G@5 >.y@^ H@*.) ' ' I@9 J@p.:.:.5 P.x@K@Q [ 0 0 , 0 ) ' ' ' ' ' |+",
"+ ' ' ' ' ' ' ' a ' ' ' ' ' ' L@M@N@O@P@L@G+' ' ' ' ' ' t 9.^.j.5 :.>.Q@g P } ' ' ) '.y.G@_._.:.5 R@^ ].2.' ' . ' ' ' ' ' ' ' |+",
"+ ' ' ' ' ' ' ' ' + + + + . . S@T@U@V@W@X@. . . . + . + Y@Z@`@ #5 :.5 .#+#@###. . @ $#%#&#*#:.:.:.P.=#& -#;#    ' ' ' ' ' ' ' |+",
"+ ' ' ' ' 7@>#(+G+' ' ' ' ' ' ,#'#)#!#~#' ' ' ' ' ) ) {#< ]#7 |.5 _.5 >.8.p >+) ' ' I@^#/#(#5 :.:.>.i ,.V ) ' ' ' ' ' ' ' ' ' |+",
"' ' ' ' _#:#<#[#}#' ' ' ' ' ' ,#'#|#!#~#' ' ' ' 0 V E c 1#2#/ 5 _._.:.>.S.q.n. .) ' ' ) l G 5 :.:.5 y@G 3#V 0 ' ' ' ' ' ' ' ' |+",
"+ ' b . 4#5#6#7#8#' ' ' ' ' ' 9#0#a#b#c#' ' ' I@d#!.e#3 f#6 5 _._.:.:.:.P.g#h#P Y.' ) } c i#5 _._.:./ g#j#s s.' ' ' b . a ' ' |+",
"' ' b a k#i@l#m#n#' ' ' ' ' ' 9#0#a#b#c#' ' ) T.o#p#S / = ( 5 :.:.:.:.:.>.>.f#[.[ ' s.8@q#r#_._.:.:.5 >.1.: ! ' ' ' b a a ' ' |+",
"+ ' b b G+s#t#}#h@' ' ' ' ' ' ,#'#|#!#~#G+t#u#v#w#G@H / = ( / 5 :.:.5 5 >.>.G.x#f ) T+^@%.y#:.:.5 5 >.>.z#: 2.' ' ' b b b ' ' |+",
"' ' ' ' ' ' ' ' ' ' ' ' ' ' ' A#B#C#l#>#(+D#6#p#../ / / - - ( / / / / / ( ( E#x#f ) V I+p./ / / / / ( ( <.: 2.' ' ' ' b b ' ' |+",
"b |+|+|+|+|+|+b |+b |+b b b b F#G#H#I#J#K#L#M#3./ - ( - - - - - ( ( ( ( - - N#O#P#b Q#R#S#( ( ( ( - - - T#U#V#b |+b |+W#W#|+|+|+"};
