/* XPM */
static char * pipizero_xpm[] = {
"64 64 402 2",
"  	c #889C9E",
". 	c #62797E",
"+ 	c #536265",
"@ 	c #4C5A5D",
"# 	c #394749",
"$ 	c #101008",
"% 	c #272F2F",
"& 	c #4F6266",
"* 	c #61787D",
"= 	c #464D4F",
"- 	c #414849",
"; 	c #3B4142",
"> 	c #3A4041",
", 	c #43443D",
"' 	c #69633E",
") 	c #706838",
"! 	c #403818",
"~ 	c #412613",
"{ 	c #2F3333",
"] 	c #3C4244",
"^ 	c #444B4C",
"/ 	c #444B4D",
"( 	c #444540",
"_ 	c #413D2A",
": 	c #1D1F1C",
"< 	c #413B24",
"[ 	c #6F6739",
"} 	c #A09868",
"| 	c #40381A",
"1 	c #402512",
"2 	c #2A2E2D",
"3 	c #3E4445",
"4 	c #454C4E",
"5 	c #383F40",
"6 	c #382B2F",
"7 	c #373C3D",
"8 	c #66613F",
"9 	c #412715",
"0 	c #2E3332",
"a 	c #3B4143",
"b 	c #3C4243",
"c 	c #242725",
"d 	c #6F6839",
"e 	c #403819",
"f 	c #161813",
"g 	c #2B2F2F",
"h 	c #3E4546",
"i 	c #3B4042",
"j 	c #1E211F",
"k 	c #413B23",
"l 	c #2C3130",
"m 	c #454B4D",
"n 	c #202220",
"o 	c #402000",
"p 	c #323737",
"q 	c #444A4C",
"r 	c #13140E",
"s 	c #313636",
"t 	c #241B17",
"u 	c #302527",
"v 	c #1B1713",
"w 	c #6F6738",
"x 	c #625A35",
"y 	c #3B2F29",
"z 	c #35292C",
"A 	c #1F2220",
"B 	c #6E663A",
"C 	c #423E2D",
"D 	c #434A4C",
"E 	c #3C4143",
"F 	c #424136",
"G 	c #6D663B",
"H 	c #B8A880",
"I 	c #403A20",
"J 	c #404648",
"K 	c #6E673A",
"L 	c #9F9768",
"M 	c #E8D8B0",
"N 	c #413A21",
"O 	c #353A3B",
"P 	c #3F4547",
"Q 	c #252827",
"R 	c #9D9667",
"S 	c #67623F",
"T 	c #353B3B",
"U 	c #41484A",
"V 	c #404748",
"W 	c #413D29",
"X 	c #444640",
"Y 	c #43494B",
"Z 	c #3D4345",
"` 	c #434238",
" .	c #68623E",
"..	c #343A3A",
"+.	c #42494A",
"@.	c #282C2B",
"#.	c #885820",
"$.	c #272B2A",
"%.	c #3F4647",
"&.	c #605D43",
"*.	c #999266",
"=.	c #212422",
"-.	c #9B9366",
";.	c #DDCF67",
">.	c #DFD167",
",.	c #D0A058",
"'.	c #1D201D",
").	c #323738",
"!.	c #402001",
"~.	c #2E3232",
"{.	c #CF9F58",
"].	c #F8D890",
"^.	c #402205",
"/.	c #2E3333",
"(.	c #28221F",
"_.	c #625E42",
":.	c #6D663A",
"<.	c #444444",
"[.	c #42332B",
"}.	c #12120C",
"|.	c #3D4344",
"1.	c #40230A",
"2.	c #464D4E",
"3.	c #443E3C",
"4.	c #9C9466",
"5.	c #68623F",
"6.	c #464C4D",
"7.	c #433E3B",
"8.	c #41240B",
"9.	c #413E2C",
"0.	c #444742",
"a.	c #434A4B",
"b.	c #45494A",
"c.	c #44413F",
"d.	c #42342C",
"e.	c #40240D",
"f.	c #444443",
"g.	c #422F26",
"h.	c #402102",
"i.	c #CFA058",
"j.	c #2A2F2E",
"k.	c #444241",
"l.	c #41291A",
"m.	c #635F42",
"n.	c #171914",
"o.	c #413C27",
"p.	c #4B3F38",
"q.	c #2C3030",
"r.	c #40391E",
"s.	c #202321",
"t.	c #363B3C",
"u.	c #413A20",
"v.	c #875822",
"w.	c #403A1F",
"x.	c #433934",
"y.	c #414749",
"z.	c #393F40",
"A.	c #1A1C19",
"B.	c #43453D",
"C.	c #1C1E1B",
"D.	c #292D2C",
"E.	c #43453E",
"F.	c #424135",
"G.	c #191B18",
"H.	c #373D3D",
"I.	c #413C28",
"J.	c #6F6838",
"K.	c #43443C",
"L.	c #34393A",
"M.	c #383E3F",
"N.	c #2A2E2E",
"O.	c #918B63",
"P.	c #B5A67F",
"Q.	c #413D2B",
"R.	c #333839",
"S.	c #B7A780",
"T.	c #222523",
"U.	c #424033",
"V.	c #40391C",
"W.	c #412716",
"X.	c #4B504D",
"Y.	c #444845",
"Z.	c #474E4F",
"`.	c #767454",
" +	c #997B53",
".+	c #680000",
"++	c #903000",
"@+	c #2F1C17",
"#+	c #4A504F",
"$+	c #646552",
"%+	c #A19A5A",
"&+	c #CDC063",
"*+	c #6E6739",
"=+	c #B85800",
"-+	c #7A7754",
";+	c #A59D5B",
">+	c #ABA25C",
",+	c #A58354",
"'+	c #6A643D",
")+	c #494F4F",
"!+	c #979059",
"~+	c #CBBF63",
"{+	c #A9A057",
"]+	c #606154",
"^+	c #282D2C",
"/+	c #6C653B",
"(+	c #B6A67F",
"_+	c #1F211F",
":+	c #383D3E",
"<+	c #9A9359",
"[+	c #D0C361",
"}+	c #AFA966",
"|+	c #494C45",
"1+	c #58553C",
"2+	c #969168",
"3+	c #171814",
"4+	c #252927",
"5+	c #353A3A",
"6+	c #42494B",
"7+	c #5D5F54",
"8+	c #837F5F",
"9+	c #9F944E",
"0+	c #BFB566",
"a+	c #999152",
"b+	c #555850",
"c+	c #586D71",
"d+	c #272A29",
"e+	c #412E23",
"f+	c #44403E",
"g+	c #495659",
"h+	c #858160",
"i+	c #C7BA74",
"j+	c #CCC588",
"k+	c #8B8657",
"l+	c #676752",
"m+	c #3E4341",
"n+	c #8D320F",
"o+	c #412C20",
"p+	c #2A3131",
"q+	c #8E8355",
"r+	c #E3D88C",
"s+	c #D2C67E",
"t+	c #71705A",
"u+	c #262928",
"v+	c #111109",
"w+	c #1E201D",
"x+	c #433832",
"y+	c #484E4F",
"z+	c #444843",
"A+	c #A0A592",
"B+	c #DCD5A6",
"C+	c #CDC69C",
"D+	c #717263",
"E+	c #282C2C",
"F+	c #1A1C18",
"G+	c #11110A",
"H+	c #670606",
"I+	c #412818",
"J+	c #5A5B49",
"K+	c #A09D74",
"L+	c #B9B074",
"M+	c #BEB892",
"N+	c #A19E80",
"O+	c #61645B",
"P+	c #656040",
"Q+	c #9B9365",
"R+	c #2D3131",
"S+	c #323637",
"T+	c #3E4446",
"U+	c #40230B",
"V+	c #423229",
"W+	c #313536",
"X+	c #77755C",
"Y+	c #CEC37C",
"Z+	c #D8CC81",
"`+	c #938E65",
" @	c #545955",
".@	c #4A5051",
"+@	c #3B3D35",
"@@	c #43402E",
"#@	c #303435",
"$@	c #875821",
"%@	c #402104",
"&@	c #181A16",
"*@	c #1B1D1A",
"=@	c #1B1D19",
"-@	c #1C201E",
";@	c #232625",
">@	c #716F53",
",@	c #C1B660",
"'@	c #C7BC62",
")@	c #7E7A55",
"!@	c #433A36",
"~@	c #413C26",
"{@	c #373D3E",
"]@	c #4D5F62",
"^@	c #3A3F40",
"/@	c #42484A",
"(@	c #706F53",
"_@	c #BFB460",
":@	c #C7BB62",
"<@	c #807C55",
"[@	c #444140",
"}@	c #413B25",
"|@	c #454544",
"1@	c #855725",
"2@	c #412F25",
"3@	c #865724",
"4@	c #667C7E",
"5@	c #7F8B7B",
"6@	c #9C9E77",
"7@	c #B8B371",
"8@	c #B3AF72",
"9@	c #818C7B",
"0@	c #5F757A",
"a@	c #556A6E",
"b@	c #405052",
"c@	c #433E28",
"d@	c #412308",
"e@	c #3F4E51",
"f@	c #5D7378",
"g@	c #5B7075",
"h@	c #455558",
"i@	c #97936C",
"j@	c #B6A680",
"k@	c #374445",
"l@	c #7C8F90",
"m@	c #5B5D51",
"n@	c #A49C5B",
"o@	c #9D965A",
"p@	c #6E6D53",
"q@	c #525650",
"r@	c #292D2D",
"s@	c #5C5B46",
"t@	c #5E6051",
"u@	c #B3A95E",
"v@	c #CFC263",
"w@	c #938D58",
"x@	c #443F3D",
"y@	c #885821",
"z@	c #433D3A",
"A@	c #1F221F",
"B@	c #433B37",
"C@	c #646556",
"D@	c #C5BA78",
"E@	c #E4D786",
"F@	c #A39B6B",
"G@	c #454A49",
"H@	c #434237",
"I@	c #402510",
"J@	c #40391B",
"K@	c #412A1B",
"L@	c #444641",
"M@	c #6B653C",
"N@	c #5E6055",
"O@	c #C4BE96",
"P@	c #E4DCAB",
"Q@	c #A39F81",
"R@	c #484F50",
"S@	c #968F65",
"T@	c #333838",
"U@	c #656140",
"V@	c #B3A47D",
"W@	c #6D6D53",
"X@	c #626352",
"Y@	c #4D5250",
"Z@	c #595D57",
"`@	c #83826E",
" #	c #CEC79D",
".#	c #E5DDAC",
"+#	c #40240F",
"@#	c #343939",
"##	c #BCB15F",
"$#	c #A0985A",
"%#	c #4D5352",
"&#	c #949178",
"*#	c #CCC69C",
"=#	c #EBE2B0",
"-#	c #E7D987",
";#	c #A19A6A",
">#	c #40391D",
",#	c #13130D",
"'#	c #DED066",
")#	c #B9AD55",
"!#	c #63582D",
"~#	c #463B38",
"{#	c #ACA481",
"]#	c #EDE5B1",
"^#	c #F8E98F",
"/#	c #E8D986",
"(#	c #9B8F57",
"_#	c #3B2E30",
":#	c #141413",
"<#	c #2A2122",
"[#	c #101009",
"}#	c #14130D",
"|#	c #2E1C16",
"1#	c #2A1A14",
"2#	c #1F1918",
"3#	c #111008",
"4#	c #20150F",
"5#	c #2D1B16",
"      . . . . . . + . . . . + . + . + . + . + + + + + + . + . + . @ # $ $ $ $ $ % & * . . . . . . . . . . . . . . + . . . . + . ",
". = = = = = = = = = = = = = = = = = = = = = = = = = = = = = - ; > , ' ) ) ) ! ! ~ { ] ^ = = = = = = = = = = = = = = = = = = = = ",
". = = = = = = = = = = = = = = = = = = = = = = = = = = = = / ( _ : < [ } } ) ) ! | 1 2 3 4 = = = = = = = = = = = = = = = = = = 5 ",
"+ = 6 . 5 = = = = = = = = = = = = = = = = = = = = = = = - 7 8 [ ) ) ) } } ) ) ) ) ! 9 0 a / = = = = = = = = = = = = 6 . 5 = = = ",
". = 6 5 5 = = = = = = = = = = = = = = = = = = = = = = = b c d } } } ) ) ) ) ) ) ) ! e f g h 4 = = = = = = = = = = = 6 5 5 = = 5 ",
"+ = 6 6 = = = = = = = = = = = = = = = = = = = = = = = = i j ) } } ) ) ) ) ) ) ) ! ! ! ! k l ; m = = = = = = = = = = 6 6 = = = = ",
"+ = = = = = = = = = = = = = = = = = = = = = = = = = = = ; n ) } } ) ) ) ) ) ! ! ! ! ! ! o f p q = = = = = = = = = = = = = = = 5 ",
"+ = = = = = = = = = = = = = = = = = = = = = = = = = = = ; n ) } } ) ) ! ! ! o $ $ $ $ $ $ r s q = = = = = = = = = = = = = = = 5 ",
"= = = = = = = = t t 6 6 6 6 6 6 6 5 6 5 6 6 6 6 6 6 6 6 u v ) } ) ) ! o o ! ) ) ) ) ) ) ) w x y z 5 6 5 6 5 5 5 = = = = = = = 5 ",
"+ = = = = = = = 6 5 = = = = = = = = = = = = = = = = = 4 > A ) ) ) ) ! ! ! ) } } } } } } } } B C > 4 = = = = = = = = = = = = = 5 ",
"= = = = = = = = 5 = = = = = = = = = = = = = = = = = D E F G ) ) ! ) ) ) } H H H H H H H H H } I 7 = = = = = = + = = = = = = = 5 ",
"+ = = = = = = = 6 = = = = = = = = = = = = = = = = = J g K L ) ! ! ) } H M M M M M H H H H H } N O D = = = = = = = = = = = = = 5 ",
"+ = = = = = = = 5 = = = = = = = = = = = = = = = = = P Q ! ) ) ! ) } H M M M M M M M H H H H H R S T U = = = = + = = = = = = = 6 ",
"+ = = = = = = = 5 = = = = = = = = = = = = = = = = = V l N d ! ! } H M M H H H M M M M H H M M H ) W X Y 4 = = + = = = = = = = 5 ",
"+ = = = = = = = 5 = = = = = = = = = = = = = = 5 = = ^ Z ` k o ! } H H H M M M M H M M H H M M H } R  ...+.= = + = = = = = = = 6 ",
"+ = = = = = = = 5 = = = = = = = = = = = = = 6 + = = = = ; n $ ! ) } H H H M H H H M M H H M M H H } ) @.J = = + = = = = = = = 6 ",
"+ = = = = = = = 5 = = = = = = = = = = = = 6 + = = = = = ; n ! #.) ) H H } ) } H M M M M M H M M H } ) $.%.= = . = = = = = = = 6 ",
"+ = = = = = = = 5 = = = = = = = = = = = 5 + = = = = ^ Z &.*.} #.#.) } H ) #.) } H M M M M M M M M H ) =.O %.4 . = = = = = = = 5 ",
"+ = = = = = = = 5 = = = = = = = = = = = = = = = = = V l -.;.>.,.#.! ! ) ,.,.,.} } H M M M M M M M H } r '.).D . = = = = = = = 6 ",
"+ = = = = = = = 5 = = = = = = = = = 5 = = = = = = = P Q ) ,.,.,.#.o o ) ,.>.,.,.} } H H H M M M H } ) ! !.~.Y . = = = = = = = 5 ",
"+ = = = = = = = 5 = = = = = = = = 6 + = = = = = = = J g K {.,.#.! ! #.} >.].,.,.,.) ) ) } M M M } ) #.#.^./.Y . = = = = = = = 5 ",
"+ = = = = = = = 5 = = = = = = = (.. = = = = = = = = D E _.:.#.! o ! #.,.].].].>.,.,.} } } } } } } #.#.#.^./.Y . = = = = = = = 5 ",
"+ = = = = = = = 5 = = = = = = (.. = = = = = = = = = = 4 <.[.~ }.$ ) ,.>.].].].>.,.,.,.,.} ) ) ) } ,.} #.| 0 Y . = = = = = = = 5 ",
"+ = = = = = = = 5 = = = = = 6 . = = = = = = = = = = = = q |.0 1.$ ) H >.>.>.,.,.} ,.,.} } } } } } } ,.} | 0 Y . = = = = = = = 5 ",
"+ = = = = = = = 5 = = = = 5 + = = = = = = = = = = = = = = 2.3.~ $ ) H ].,.,.,.} } ,.,.#.#.,.,.,.} #.} 4.5.7 q . = = = = = = = 5 ",
"+ = = = = = = = 5 = = = = = = = = = = = = = = = = = = = = 6.7.8.$ ) H ].,.,.#.} ,.,.,.#.#.,.,.,.} #.#.9.0.a.4 . = = = = = = = 5 ",
"+ = = = = = = = 5 = = = = = = = = = = = = = = = = = = = b.c.d.e.o ) >.].,.} #.} ,.,.,.} } ,.,.,.,.#.! $.J = = . = = = = = = = 5 ",
"+ = = = = = = = 5 = = = = = = = = = = = = = = = = = = = f.g.1.h.! } >.].,.} ) ) ,.} #.,.,.#.} ,.,.i.[ j.J = = . = = = = = = = 6 ",
"+ = = = = = = = 5 = = = = = = = = = = = = = = = = = = = k.l.$ ! #.,.>.].,.} ! #.} } ,.,.,.#.} ,.} G m.> D = = . = = = = = = = 5 ",
"= = = = = = = = 5 = = = = = = = = = = = = = = = = = = = |.$.n.e } ,.].>.,.) ! ! #.,.,.,.,.#.} ,.) o.> 4 = = = + = = = = = = = 6 ",
"+ = = = = = = = 5 p.= = = = = = = = = = = = = = = = = = Y ; q.r.} >.>.,.} #.! ! #.,.,.,.} ,.,.#.#.s.b = = = = . = = = = = = = 5 ",
"= = = = = = = = 6 = = = = = = = = = = = = = = = = = = = = 4 t.u.H ].>.,.#.! ! #.#.,.,.#.#.,.} v.< q.h = = = = + = = = = = = = 6 ",
"+ = = = = = = = 5 p.= = = = = = = = = = = = = = = = = = = 4 t.u.H ].>.,.#.! #.#.,.} #.#.#.#.#.w.x.P / = = = = + = = = = = = = 6 ",
"= = = = = = = = 6 = = = = = = = = = = = = = = y.> z.|.D = 4 t.u.} >.,.} ! ! #.#.,.#.! o o ! ! A.7 4 = = = = = + = = = = = = = 6 ",
"+ = = = = = = = 5 p.= p.= = 5 = 5 = = = = = D B.W C.D.|.= 4 t.u.} ,.} #.! ! #.#.#.#.o o o ! o A.7 4 = = = = = + = = = = = = = 6 ",
"+ = = = = = = = 6 = p.= = 5 = 5 = = = = = y.E.S ) ) N F.b D 7 G.#.#.#.! ! ! ! ! ! ! ! ! ! ! ! A.H.= = = = = = + = = = = = = = 6 ",
"+ = = = = = = = 6 p.p.= 5 = 5 = = = = = = > I.J.} ) ) r.g |.K.B ) ! ! ! #.#.! o o ! ! ) ) ) ) u.L.Y 4 = = = = + = = = = = = = 6 ",
"+ = = = = = p.= 6 p.= 5 = = = = = = = = = M.A.) ) ) ! ! : N.O.P.} } ! o ! ! ! ! ! ! ) ) } } ) [ Q.R.V = = = = + = = = = = = = 6 ",
"+ = = = = p.= p.6 p.p.= = = = = = = = = = b $.I ) ! ! ! e d S.M H } ) ! ! o ! ! ! ) ) } } } ) ) ! T.b = = = = + = = = = = = = 6 ",
"+ = = = p.= p.p.6 p.= p.= = = = = = = = = a.b U.V.! ! o ) H H H } ) } } ! $ ! ! ) ) } } } ) ) ) ! s.a = = = = + = = = = = = = 6 ",
"= = = p.= p.= = 6 p.p.= = = = = = = = = = = 4 > D.W.! ) H M H } ) ! } } ! $ ! ) ) } } } ) ! ) ) ! =.E = = = = + = = = = = = = 6 ",
"+ = = = = = = = 5 p.= = = = = = = = = = = = = X.Y.D.) H M H } ) ! ! ! ! ! o ! ) ) } } ) ) ! ) ) ! =.E = = = = + = = = = = = = 6 ",
"= = = = = = = = 6 = = = = = = = = = = = 5 + Z.`. +' ) H M } ) ! $ o .+.+++! ! ! ) ) } ) ) ! ! ) ! =.E = = = = + = = = = = = = @+",
"= = = = = = = = 5 = = = = = = = = = = 5 + #+$+%+&+*+) H H ) ! $ o .+++++=+++o o ! ) ) ) ) ! ! ! ! =.E = = = = + = = = = = = = 6 ",
"= = = = = = = = 6 = = = = = = = = = = + Z.-+;+>+,+'+) H M } ) ! o .+.+++++++++++++#.! ! ! ! ! ! o =.b = = = = + = = = = = = = @+",
"= = = = = = = = 5 = = = = = = = = = + = )+!+~+{+]+^+/+(+H H ) ! $ ! o .+++++=+=+=+++o o o o ! ! o _+:+a.4 = = + = = = = = = = 6 ",
"= = = = = = = = 5 = = = = = = = = = = = = <+[+}+|+J 1+2+} ) ) ! ! ! ! o o ++++++++++++++++++o o $ 3+4+5+6+= = + = = = = = = = 6 ",
"+ = = = = = = = 5 = = = = = = = = = = 7+8+9+0+a+b+6 c+d+! ) ! ! ! ) ! ! ! ! ++++++++=+=+=+++++++o o o e+f+h 3 g+%.q = = = = = 6 ",
"= = = = = = = = 5 = = = = = = = = = = h+i+j+k+l+m++ %.d+) } ) ! ! ! ) ) ) ! ! !.!.!.++++++=+=+=+=+++++n+o+4+Q p+g |.= = = = = 6 ",
"+ = = = = = = = 5 = = = = = = = = = = q+r+s+t+5 = = P u+) ,.,.) #.! ! ) ) ! v+=.@.w+!..+++++++++=+=+++++o o o o 1 x+z.= = = = 6 ",
"+ = = = = = = = 5 = = = = = = = = y+z+A+B+C+D+= = = %.E+L >.>.,.#.#.! e V.r F+p b j.G+o o o o o ++++++.+.+.+.+.+H+I+=.= = = = 6 ",
"+ = = = = = = = 5 = = = = = = = = J+K+L+M+N+O+= = = Y :+P+Q+,.,.} #.! : R+S+R.T+U R+o ! ! ! ! ! ! .+.+.+.+.+.+.+U+V+W+= = = = 6 ",
"+ = = = = = = = 5 = = = = = = = = X+Y+Z+`+ @.@= = = = / +@@@) ,.} #.! u+|./ / 4 6+#@N $@#.#.#.#.! %@&@*@*@=@=@-@;@z.q = = = = @+",
"+ = = = = = = = 5 = = = = = = = = >@,@'@)@= = = = = = = ; _+) ,.} #.! $.V = = = / Z !@~@#.} #.#.! *@#@:+{@H.H.]@^@/@= = = = = 6 ",
"+ = = = = = = = 5 = = = = = = = = (@_@:@<@= = = = = = = Z [.G {.} #.! e+[@Y 4 = = = 3 4+) ,.,.#.#.}@7.- / 4 4 * 4 = = = = = = @+",
"+ = = = = = = = 5 = = = = = = = = (@_@:@<@= = = = = = = D |@_.K } ,.#.1@2@t.D = = = P u+} >.>.,.#.3@_ R.+.= = . = = = = = = = @+",
"+ = = = = = = = = + + + + . . 4@5@6@7@8@9@. . . . + . + 0@a@b@c@} ,.} #.d@e@f@. . . g@h@i@j@,.,.} #.! k@l@      = = = = = = = @+",
"+ = = = = = = = = = = = = = = m@n@,@o@p@q@= = = = 4 4 2.|.r@F+| H >.} #.e R+/@= = = 4 - s@/+} ,.} #.! $.P = = = = = = = = = = @+",
"= = = = = = = = = = = = = = = t@u@v@w@= = = = = 4 3 :+x@/.u.) } H >.,.#.y@Q.z@J 4 = = = ; A@} ,.,.#.#.o.B@T+m = = = = = = = = @+",
"+ = 6 . 5 = = = = = = = = = = C@D@E@F@y+= = = 4 G@H@k N I@| } >.>.,.,.,.#.J@K@t./ = = / L@M@} >.>.,.#.$@9 s a.= = = 6 . 5 = = @+",
"= = 6 5 5 = = = = = = = = = = N@O@P@Q@R@= = 4 Z &.S@} ) o ! } >.,.,.,.,.#.#.1.T@/ = 6+{@U@V@H >.,.,.#.#.!.~.Y = = = 6 5 5 = = @+",
"+ = 6 6 W@X@Y@= = = = = = R@Z@`@ #.#Q@R@= = / ..G H H ) $ o ) ,.,.,.,.,.#.! +#@#/ = P @.J.H >.,.,.,.#.#.^./.Y = = = 6 6 6 = = @+",
"= = = = ##$#X@= = = = = = %#&#*#=#-#;#y+= = / R.>#) } ) $ $ ! ) ) ) ) ) ! ! 3+@#/ = h Q ) } } ) ) ) #.! ,#/.Y = = = = 6 6 = = @+",
"6 @+@+@+'#)#!#6 @+6 @+6 6 ~#{#]#^#/#(#_#@+6 :#<#[#$ $ $ $ $ $ $ $ $ $ $ $ $ }#<#|#6 1#2#$ $ $ $ $ $ $ $ 3#4#5#6 @+6 @+:#:#@+@+@+"};
