/* XPM */
static char * pipione_xpm[] = {
"64 64 419 2",
"  	c #889C9E",
". 	c #62797E",
"+ 	c #536265",
"@ 	c #4C5A5D",
"# 	c #394749",
"$ 	c #101008",
"% 	c #272F2F",
"& 	c #4F6266",
"* 	c #61787D",
"= 	c #464D4F",
"- 	c #414849",
"; 	c #3B4142",
"> 	c #3A4041",
", 	c #43443D",
"' 	c #69633E",
") 	c #706838",
"! 	c #403818",
"~ 	c #412613",
"{ 	c #2F3333",
"] 	c #3C4244",
"^ 	c #444B4C",
"/ 	c #444B4D",
"( 	c #444540",
"_ 	c #413D2A",
": 	c #1D1F1C",
"< 	c #413B24",
"[ 	c #6F6739",
"} 	c #A09868",
"| 	c #40381A",
"1 	c #402512",
"2 	c #2A2E2D",
"3 	c #3E4445",
"4 	c #454C4E",
"5 	c #383F40",
"6 	c #382B2F",
"7 	c #373C3D",
"8 	c #66613F",
"9 	c #412715",
"0 	c #2E3332",
"a 	c #3B4143",
"b 	c #3C4243",
"c 	c #242725",
"d 	c #6F6839",
"e 	c #403819",
"f 	c #161813",
"g 	c #2B2F2F",
"h 	c #3E4546",
"i 	c #3B4042",
"j 	c #1E211F",
"k 	c #413B23",
"l 	c #2C3130",
"m 	c #454B4D",
"n 	c #202220",
"o 	c #402000",
"p 	c #323737",
"q 	c #444A4C",
"r 	c #13140E",
"s 	c #313636",
"t 	c #241B17",
"u 	c #302527",
"v 	c #1B1713",
"w 	c #6F6738",
"x 	c #625A35",
"y 	c #3B2F29",
"z 	c #35292C",
"A 	c #1F2220",
"B 	c #6E663A",
"C 	c #423E2D",
"D 	c #434A4C",
"E 	c #3C4143",
"F 	c #424136",
"G 	c #6D663B",
"H 	c #B8A880",
"I 	c #403A20",
"J 	c #404648",
"K 	c #6E673A",
"L 	c #9F9768",
"M 	c #E8D8B0",
"N 	c #413A21",
"O 	c #353A3B",
"P 	c #3F4547",
"Q 	c #252827",
"R 	c #9D9667",
"S 	c #67623F",
"T 	c #353B3B",
"U 	c #414749",
"V 	c #404748",
"W 	c #232625",
"X 	c #3D4345",
"Y 	c #434238",
"Z 	c #202321",
"` 	c #6C653C",
" .	c #885820",
"..	c #9E9667",
"+.	c #6B643C",
"@.	c #313536",
"#.	c #605D43",
"$.	c #999266",
"%.	c #353A3A",
"&.	c #3F4647",
"*.	c #9B9366",
"=.	c #DDCF67",
"-.	c #DFD167",
";.	c #D0A058",
">.	c #1D201D",
",.	c #323738",
"'.	c #402001",
").	c #2E3232",
"!.	c #43494B",
"~.	c #CF9F58",
"{.	c #402205",
"].	c #2E3333",
"^.	c #28221F",
"/.	c #625E42",
"(.	c #6D663A",
"_.	c #F8D890",
":.	c #444444",
"<.	c #42332B",
"[.	c #12120C",
"}.	c #3D4344",
"|.	c #40230A",
"1.	c #464D4E",
"2.	c #443E3C",
"3.	c #464C4D",
"4.	c #433E3B",
"5.	c #41240B",
"6.	c #2F3434",
"7.	c #45494A",
"8.	c #44413F",
"9.	c #42342C",
"0.	c #40240D",
"a.	c #1B1D1A",
"b.	c #3A3F40",
"c.	c #444443",
"d.	c #422F26",
"e.	c #11110A",
"f.	c #262928",
"g.	c #444241",
"h.	c #41291A",
"i.	c #272B2A",
"j.	c #171914",
"k.	c #402103",
"l.	c #1A1C18",
"m.	c #2D3231",
"n.	c #4B3F38",
"o.	c #2C3030",
"p.	c #40391E",
"q.	c #1C1E1B",
"r.	c #3D4445",
"s.	c #363B3C",
"t.	c #413A20",
"u.	c #212422",
"v.	c #393F40",
"w.	c #14150F",
"x.	c #222523",
"y.	c #43453D",
"z.	c #413D29",
"A.	c #292D2C",
"B.	c #191A17",
"C.	c #333838",
"D.	c #41484A",
"E.	c #43453E",
"F.	c #424135",
"G.	c #191B18",
"H.	c #1B1D19",
"I.	c #383D3E",
"J.	c #413C28",
"K.	c #6F6838",
"L.	c #43443C",
"M.	c #34393A",
"N.	c #383E3F",
"O.	c #1A1C19",
"P.	c #2A2E2E",
"Q.	c #918B63",
"R.	c #B5A67F",
"S.	c #413D2B",
"T.	c #333839",
"U.	c #B7A780",
"V.	c #434A4B",
"W.	c #424033",
"X.	c #40391C",
"Y.	c #412716",
"Z.	c #4B504D",
"`.	c #444845",
" +	c #474E4F",
".+	c #767454",
"++	c #997B53",
"@+	c #680000",
"#+	c #903000",
"$+	c #2F1C17",
"%+	c #4A504F",
"&+	c #646552",
"*+	c #A19A5A",
"=+	c #CDC063",
"-+	c #6E6739",
";+	c #B85800",
">+	c #787654",
",+	c #A79E5B",
"'+	c #ACA35C",
")+	c #A58354",
"!+	c #6A643D",
"~+	c #525752",
"{+	c #706F59",
"]+	c #9C955A",
"^+	c #C1B660",
"/+	c #9E9654",
"(+	c #5F6054",
"_+	c #282D2C",
":+	c #6C653B",
"<+	c #B6A67F",
"[+	c #1F211F",
"}+	c #7D7A5D",
"|+	c #BDB375",
"1+	c #C5BA78",
"2+	c #968B4A",
"3+	c #7A7E65",
"4+	c #3C4240",
"5+	c #58553C",
"6+	c #969168",
"7+	c #171814",
"8+	c #252927",
"9+	c #42494B",
"0+	c #918B64",
"a+	c #DFD284",
"b+	c #D0C279",
"c+	c #7C806C",
"d+	c #586D71",
"e+	c #272A29",
"f+	c #412E23",
"g+	c #44403E",
"h+	c #495659",
"i+	c #939177",
"j+	c #DED6A6",
"k+	c #D3CFA7",
"l+	c #717263",
"m+	c #8D320F",
"n+	c #412C20",
"o+	c #2A3131",
"p+	c #5C5E54",
"q+	c #8C8762",
"r+	c #AEA266",
"s+	c #CBC9A4",
"t+	c #AFAB89",
"u+	c #66685E",
"v+	c #111109",
"w+	c #282C2B",
"x+	c #1E201D",
"y+	c #433832",
"z+	c #74735B",
"A+	c #C6BB76",
"B+	c #D7CE8A",
"C+	c #9B9468",
"D+	c #65675D",
"E+	c #4D5352",
"F+	c #282C2C",
"G+	c #2A2F2E",
"H+	c #670606",
"I+	c #412818",
"J+	c #756B53",
"K+	c #D7BE85",
"L+	c #DEC284",
"M+	c #7E7A55",
"N+	c #656040",
"O+	c #9B9365",
"P+	c #2D3131",
"Q+	c #323637",
"R+	c #3E4446",
"S+	c #40230B",
"T+	c #423229",
"U+	c #716F53",
"V+	c #BFB460",
"W+	c #C7BB62",
"X+	c #7F7C55",
"Y+	c #3B3D35",
"Z+	c #43402E",
"`+	c #303435",
" @	c #875821",
".@	c #402104",
"+@	c #181A16",
"@@	c #1C201E",
"#@	c #6E6D53",
"$@	c #C0B560",
"%@	c #C8BC62",
"&@	c #817D55",
"*@	c #433A36",
"=@	c #413C26",
"-@	c #373D3E",
";@	c #373D3D",
">@	c #4D5F62",
",@	c #42484A",
"'@	c #5E6055",
")@	c #79775C",
"!@	c #6F6E59",
"~@	c #545652",
"{@	c #606151",
"]@	c #888456",
"^@	c #B8AE5F",
"/@	c #B7AD5F",
"(@	c #777554",
"_@	c #444140",
":@	c #413B25",
"<@	c #8B8662",
"[@	c #C6BB79",
"}@	c #AFA66F",
"|@	c #716B5A",
"1@	c #999259",
"2@	c #B9AE5F",
"3@	c #A29A5B",
"4@	c #7E7B55",
"5@	c #595C51",
"6@	c #454544",
"7@	c #855725",
"8@	c #412F25",
"9@	c #865724",
"0@	c #42494A",
"a@	c #909070",
"b@	c #CAC388",
"c@	c #B4B385",
"d@	c #869081",
"e@	c #B5B172",
"f@	c #CFC56C",
"g@	c #9C9F77",
"h@	c #808C80",
"i@	c #9A9F82",
"j@	c #8A9381",
"k@	c #677C7E",
"l@	c #5F757A",
"m@	c #556A6E",
"n@	c #405052",
"o@	c #433E28",
"p@	c #412308",
"q@	c #3F4E51",
"r@	c #5D7378",
"s@	c #5B7075",
"t@	c #455558",
"u@	c #97936C",
"v@	c #B6A680",
"w@	c #374445",
"x@	c #7C8F90",
"y@	c #6A6A58",
"z@	c #E4D786",
"A@	c #A39B6B",
"B@	c #D1C57E",
"C@	c #AFA770",
"D@	c #5A5D53",
"E@	c #292D2D",
"F@	c #5C5B46",
"G@	c #646556",
"H@	c #8D8963",
"I@	c #BCB275",
"J@	c #9B9568",
"K@	c #545753",
"L@	c #443F3D",
"M@	c #885821",
"N@	c #433D3A",
"O@	c #1F221F",
"P@	c #413C27",
"Q@	c #433B37",
"R@	c #575A50",
"S@	c #565950",
"T@	c #64665D",
"U@	c #C5BF97",
"V@	c #E4DCAC",
"W@	c #A39F81",
"X@	c #565952",
"Y@	c #676857",
"Z@	c #5D5F51",
"`@	c #454A49",
" #	c #434237",
".#	c #402510",
"+#	c #40391B",
"@#	c #412A1B",
"##	c #444641",
"$#	c #6B653C",
"%#	c #626352",
"&#	c #9B9459",
"*#	c #484F50",
"=#	c #968F65",
"-#	c #656140",
";#	c #B3A47D",
">#	c #4C514F",
",#	c #878256",
"'#	c #BAAF5F",
")#	c #B4AA5E",
"!#	c #6F6E53",
"~#	c #484E4F",
"{#	c #343A3A",
"]#	c #40240F",
"^#	c #343939",
"/#	c #5C5E51",
"(#	c #B5AB5E",
"_#	c #A49C5B",
":#	c #848056",
"<#	c #5B5D51",
"[#	c #5E6051",
"}#	c #B2A85D",
"|#	c #CDC163",
"1#	c #948E58",
"2#	c #40391D",
"3#	c #13130D",
"4#	c #594E28",
"5#	c #B6AA56",
"6#	c #CABC5D",
"7#	c #887D45",
"8#	c #554B36",
"9#	c #B0A454",
"0#	c #CDC060",
"a#	c #8F8341",
"b#	c #3A2D2F",
"c#	c #141413",
"d#	c #2A2122",
"e#	c #101009",
"f#	c #14130D",
"g#	c #2E1C16",
"h#	c #2A1A14",
"i#	c #1F1918",
"j#	c #111008",
"k#	c #20150F",
"l#	c #2D1B16",
"      . . . . . . + . . . . + . + . + . + . + + + + + + . + . + . @ # $ $ $ $ $ % & * . . . . . . . . . . . . . . + . . . . + . ",
". = = = = = = = = = = = = = = = = = = = = = = = = = = = = = - ; > , ' ) ) ) ! ! ~ { ] ^ = = = = = = = = = = = = = = = = = = = = ",
". = = = = = = = = = = = = = = = = = = = = = = = = = = = = / ( _ : < [ } } ) ) ! | 1 2 3 4 = = = = = = = = = = = = = = = = = = 5 ",
"+ = 6 . 5 = = = = = = = = = = = = = = = = = = = = = = = - 7 8 [ ) ) ) } } ) ) ) ) ! 9 0 a / = = = = = = = = = = = = 6 . 5 = = = ",
". = 6 5 5 = = = = = = = = = = = = = = = = = = = = = = = b c d } } } ) ) ) ) ) ) ) ! e f g h 4 = = = = = = = = = = = 6 5 5 = = 5 ",
"+ = 6 6 = = = = = = = = = = = = = = = = = = = = = = = = i j ) } } ) ) ) ) ) ) ) ! ! ! ! k l ; m = = = = = = = = = = 6 6 = = = = ",
"+ = = = = = = = = = = = = = = = = = = = = = = = = = = = ; n ) } } ) ) ) ) ) ! ! ! ! ! ! o f p q = = = = = = = = = = = = = = = 5 ",
"+ = = = = = = = = = = = = = = = = = = = = = = = = = = = ; n ) } } ) ) ! ! ! o $ $ $ $ $ $ r s q = = = = = = = = = = = = = = = 5 ",
"= = = = = = = = t t 6 6 6 6 6 6 6 5 6 5 6 6 6 6 6 6 6 6 u v ) } ) ) ! o ! ! ) ) ) ) ) ) ) w x y z 5 6 5 6 5 5 5 = = = = = = = 5 ",
"+ = = = = = = = 6 5 = = = = = = = = = = = = = = = = = 4 > A ) ) ) ) ! $ ! ) } } } } } } } } B C > 4 = = = = = = = = = = = = = 5 ",
"= = = = = = = = 5 = = = = = = = = = = = = = = = = = D E F G ) ) ! ) ) ) ) } H H H H H H H H } I 7 = = = = = = + = = = = = = = 5 ",
"+ = = = = = = = 6 = = = = = = = = = = = = = = = = = J g K L ) ! ! ) } H H H M M H H H H H H } N O D = = = = = = = = = = = = = 5 ",
"+ = = = = = = = 5 = = = = = = = = = = = = = = = = = P Q ! ) ) ! ) } H M M M M M M H H H H H H R S T U = = = = + = = = = = = = 6 ",
"+ = = = = = = = 5 = = = = = = = = = = = = = = = = = V l N d ! ! } H M M M M M M M H H H H M M H ) W b = = = = + = = = = = = = 5 ",
"+ = = = = = = = 5 = = = = = = = = = = = = = = 5 = = ^ X Y k o ! } H H H H H H H H M M H H M M H ) Z b = = = = + = = = = = = = 6 ",
"+ = = = = = = = 5 = = = = = = = = = = = = = 6 + = = = = ; n $ ! ) } H H H H H H H M M H H M M H } ` , U 4 = = + = = = = = = = 6 ",
"+ = = = = = = = 5 = = = = = = = = = = = = 6 + = = = = = ; n !  .) ) } H M M M M M H H M M H M M H ..+.@.- = = . = = = = = = = 6 ",
"+ = = = = = = = 5 = = = = = = = = = = = 5 + = = = = ^ X #.$.}  . .) H H H H H H H H M M M H H M M H ) Z %.&.4 . = = = = = = = 5 ",
"+ = = = = = = = 5 = = = = = = = = = = = = = = = = = V l *.=.-.;. .) H H } ) ) ) ) H M M M H M M H } ) r >.,.D . = = = = = = = 6 ",
"+ = = = = = = = 5 = = = = = = = = = 5 = = = = = = = P Q ) ;.;.;. .) } H } } )  .) } H H H H M M H } ) ! '.).!.. = = = = = = = 5 ",
"+ = = = = = = = 5 = = = = = = = = 6 + = = = = = = = J g K ~.;. .! ! ! } -.-.;.;.;.) ) ) } H M M } )  . .{.].!.. = = = = = = = 5 ",
"+ = = = = = = = 5 = = = = = = = ^.. = = = = = = = = D E /.(. .! o !  .;._._._.-.;.;.} } } } } } } }  . .{.].!.. = = = = = = = 5 ",
"+ = = = = = = = 5 = = = = = = ^.. = = = = = = = = = = 4 :.<.~ [.$ ! } ;._._._.-.;.;.;.;.} ) ) ) } ;.}  .| ].!.. = = = = = = = 5 ",
"+ = = = = = = = 5 = = = = = 6 . = = = = = = = = = = = = q }.0 |.$ ! } ;._._.-.;.} ;.;.} } } } } } } ;.} | ].!.. = = = = = = = 5 ",
"+ = = = = = = = 5 = = = = 5 + = = = = = = = = = = = = = = 1.2.~ $ ! } ;._._.;.}  .;.;. . .;.;.;.}  .} ) e ).!.. = = = = = = = 5 ",
"+ = = = = = = = 5 = = = = = = = = = = = = = = = = = = = = 3.4.5.$ ! } ;._._.;.}  .;.;. . .;.;.;.}  . .! |.6.!.. = = = = = = = 5 ",
"+ = = = = = = = 5 = = = = = = = = = = = = = = = = = = = 7.8.9.0.$ ) ;.-.-.-.;.}  . .;.} } ;.;.;.;. .! a.g b./ . = = = = = = = 5 ",
"+ = = = = = = = 5 = = = = = = = = = = = = = = = = = = = c.d.|.e.$ ) H _.;.;.;.) !  . .;.;. .} ;.;.;.) f.}.m = . = = = = = = = 6 ",
"+ = = = = = = = 5 = = = = = = = = = = = = = = = = = = = g.h.$ $ o ) -._.;.;.)  . . .;.;.;. .} ;.} ) ! i.J = = . = = = = = = = 5 ",
"= = = = = = = = 5 = = = = = = = = = = = = = = = = = = = }.i.j.k. .} -._.;.} ! !  .;.;.;.;. .} ;.) | l.m.U = = + = = = = = = = 6 ",
"+ = = = = = = = 5 n.= = = = = = = = = = = = = = = = = = !.; o.p. .;._._.;. .! !  .;.;.;.} ;.;. . .q.s r./ = = . = = = = = = = 5 ",
"= = = = = = = = 6 = = = = = = = = = = = = = = = = = = = = 4 s.t.} ;._.-.) ! !  . .;.;. . .;.}  .! Z ; = = = = + = = = = = = = 6 ",
"+ = = = = = = = 5 n.= = = = = = = = = = = = = = = = = = = 4 s.t.} -.-.;.) !  . .;.}  . . . . .! o u.b = = = = + = = = = = = = 6 ",
"= = = = = = = = 6 = = = = = = = = = = = = = = U > v.}.D = 4 s.t.} -.;.} ! !  . .;. .! o o ! ! w.x.s J = = = = + = = = = = = = 6 ",
"+ = = = = = = = 5 n.= n.= = 5 = 5 = = = = = D y.z.q.A.}.= 4 s.t.} ;.}  .! !  . . . .o o o ! o B.C.D.4 = = = = + = = = = = = = 6 ",
"+ = = = = = = = 6 = n.= = 5 = 5 = = = = = U E.S ) ) N F.b D 7 G. . . .! ! ! ! ! ! ! ! ! ! ! ! H.I.= = = = = = + = = = = = = = 6 ",
"+ = = = = = = = 6 n.n.= 5 = 5 = = = = = = > J.K.} ) ) p.g }.L.B ) ! ! !  . .! o o ! ! ) ) ) ) t.M.!.4 = = = = + = = = = = = = 6 ",
"+ = = = = = n.= 6 n.= 5 = = = = = = = = = N.O.) ) ) ! ! : P.Q.R.} } ! o ! ! ! ! ! ! ) ) } } ) [ S.T.V = = = = + = = = = = = = 6 ",
"+ = = = = n.= n.6 n.n.= = = = = = = = = = b i.I ) ! ! ! e d U.M H } ) ! ! o ! ! ! ) ) } } } ) ) ! x.b = = = = + = = = = = = = 6 ",
"+ = = = n.= n.n.6 n.= n.= = = = = = = = = V.b W.X.! ! o ) H H H } ) } } ! $ ! ! ) ) } } } ) ) ) ! Z a = = = = + = = = = = = = 6 ",
"= = = n.= n.= = 6 n.n.= = = = = = = = = = = 4 > A.Y.! ) H M H } ) ! } } ! $ ! ) ) } } } ) ! ) ) ! u.E = = = = + = = = = = = = 6 ",
"+ = = = = = = = 5 n.= = = = = = = = = = = = = Z.`.A.) H M H } ) ! ! ! ! ! o ! ) ) } } ) ) ! ) ) ! u.E = = = = + = = = = = = = 6 ",
"= = = = = = = = 6 = = = = = = = = = = = 5 +  +.+++' ) H M } ) ! $ o @+@+#+! ! ! ) ) } ) ) ! ! ) ! u.E = = = = + = = = = = = = $+",
"= = = = = = = = 5 = = = = = = = = = = 5 + %+&+*+=+-+) H H ) ! $ o @+#+#+;+#+o o ! ) ) ) ) ! ! ! ! u.E = = = = + = = = = = = = 6 ",
"= = = = = = = = 6 = = = = = = = = = = + = >+,+'+)+!+) H M } ) ! o @+@+#+#+#+#+#+#+ .! ! ! ! ! ! o u.b = = = = + = = = = = = = $+",
"= = = = = = = = 5 = = = = = = = = = + ~+{+]+^+/+(+_+:+<+H H ) ! $ ! o @+#+#+;+;+;+#+o o o o ! ! o [+I.V.4 = = + = = = = = = = 6 ",
"= = = = = = = = 5 = = = = = = = = = = }+|+1+2+3+4+J 5+6+} ) ) ! ! ! ! o o #+#+#+#+#+#+#+#+#+o o $ 7+8+%.9+= = + = = = = = = = 6 ",
"+ = = = = = = = 5 = = = = = = = = = = 0+a+b+c+5 = 6 d+e+! ) ! ! ! ) ! ! ! ! #+#+#+#+;+;+;+#+#+#+o o o f+g+h 3 h+&.q = = = = = 6 ",
"= = = = = = = = 5 = = = = = = = = = = i+j+k+l+= 5 + &.e+) } ) ! ! ! ) ) ) ! ! '.'.'.#+#+#+;+;+;+;+#+#+m+n+8+Q o+g }.= = = = = 6 ",
"+ = = = = = = = 5 = = = = = = = = p+q+r+s+t+u+5 = = P f.) ;.;.)  .! ! ) ) ! v+u.w+x+'.@+#+#+#+#+;+;+#+#+o o o o 1 y+v.= = = = 6 ",
"+ = = = = = = = 5 = = = = = = = = z+A+B+C+D+E+= = = &.F+L -.-.;. . .! e X.r l.p b G+e.o o o o o #+#+#+@+@+@+@+@+H+I+u.= = = = 6 ",
"+ = = = = = = = 5 = = = = = = = = J+K+L+M+= = = = = !.I.N+O+;.;.}  .! : P+Q+T.R+D.P+o ! ! ! ! ! ! @+@+@+@+@+@+@+S+T+@.= = = = 6 ",
"+ = = = = = = = 5 = = = = = = = = U+V+W+X+= = = = = = / Y+Z+) ;.}  .! f.}./ / 4 9+`+N  @ . . . .! .@+@a.a.H.H.@@W v.q = = = = $+",
"+ = = = = = = = 5 = = = = = = = = #@$@%@&@= = = = = = = ; [+) ;.}  .! i.V = = = / X *@=@ .}  . .! a.`+I.-@;@;@>@b.,@= = = = = 6 ",
"+ = = = = = = = 5 = = = '@)@!@~@{@]@^@/@(@= = = = = = = X <.G ~.}  .! f+_@!.4 = = = 3 8+) ;.;. . .:@4.- / 4 4 * 4 = = = = = = $+",
"+ = = = = = = = 5 = = = <@[@}@|@1@2@3@4@5@= = = = = = = D 6@/.K } ;. .7@8@s.D = = = P f.} -.-.;. .9@_ T.0@= = . = = = = = = = $+",
"+ = = = = = = = = + + + a@b@c@d@e@f@g@. . h@i@j@k@+ . + l@m@n@o@} ;.}  .p@q@r@. . . s@t@u@v@;.;.}  .! w@x@      = = = = = = = $+",
"+ = = = = = = = = = = = '@)@y@y@1+z@A@= = C+B@C@D@= 4 1.}.E@l.| H -.}  .e P+,@= = = 4 - F@:+} ;.}  .! i.P = = = = = = = = = = $+",
"= = = = = = = = = = = = = = = G@1+z@A@= = H@I@J@K@R+I.L@].t.) } H -.;. .M@S.N@J 4 = = = ; O@} ;.;. . .P@Q@R+m = = = = = = = = $+",
"+ = 6 . 5 = = = = = %+R@S@%+= T@U@V@W@= = X@Y@Z@`@ #k N .#| } -.-.;.;.;. .+#@#s./ = = / ##$#} -.-.;. . @9 s V.= = = 6 . 5 = = $+",
"= = 6 5 5 = = = = = %#&#&#&+= T@U@V@W@*#= = = 3 #.=#} ) o ! } -.;.;.;.;. . .|.C./ = 9+-@-#;#H -.;.;. . .'.).!.= = = 6 5 5 = = $+",
"+ = 6 6 = = = = >#Z@,#'#)#!#= G@1+z@A@~#= = / {#G H H ) $ o ) ;.;.;.;.;. .! ]#^#/ = P w+K.H -.;.;.;. . .{.].!.= = = 6 6 6 = = $+",
"= = = = = = = = /#&#(#_#:#<#= [#}#|#1# += = / T.2#) } ) $ $ ! ) ) ) ) ) ! ! 7+^#/ = h Q ) } } ) ) )  .! 3#].!.= = = = 6 6 = = $+",
"6 $+$+$+$+$+$+6 4#5#6#7#6 6 6 8#9#0#a#b#$+6 c#d#e#$ $ $ $ $ $ $ $ $ $ $ $ $ f#d#g#6 h#i#$ $ $ $ $ $ $ $ j#k#l#6 $+6 $+c#c#$+$+$+"};
