/* XPM */
static char * scoreheight_xpm[] = {
"64 64 599 2",
"  	c #000000",
". 	c #464D4F",
"+ 	c #383F40",
"@ 	c #382B2F",
"# 	c #62797E",
"$ 	c #535E61",
"% 	c #6A7A7C",
"& 	c #7E9193",
"* 	c #829496",
"= 	c #819496",
"- 	c #7B8E90",
"; 	c #738789",
"> 	c #6D8285",
", 	c #64797E",
"' 	c #5E757A",
") 	c #5F757A",
"! 	c #5B6F74",
"~ 	c #515F62",
"{ 	c #485052",
"] 	c #475052",
"^ 	c #4D5A5C",
"/ 	c #586A6D",
"( 	c #5D7477",
"_ 	c #5E7378",
": 	c #5B6E73",
"< 	c #596B6F",
"[ 	c #56666A",
"} 	c #536164",
"| 	c #536063",
"1 	c #535F62",
"2 	c #535F61",
"3 	c #505C5F",
"4 	c #4B5456",
"5 	c #5A686A",
"6 	c #718183",
"7 	c #728284",
"8 	c #6C7C7E",
"9 	c #667779",
"0 	c #627376",
"a 	c #5B6C70",
"b 	c #58696D",
"c 	c #586A6E",
"d 	c #57696D",
"e 	c #546569",
"f 	c #4D595C",
"g 	c #474F51",
"h 	c #474E50",
"i 	c #4B5557",
"j 	c #526164",
"k 	c #57686C",
"l 	c #556568",
"m 	c #526265",
"n 	c #505F62",
"o 	c #4E5B5E",
"p 	c #4E5A5C",
"q 	c #4D595B",
"r 	c #495254",
"s 	c #657577",
"t 	c #69797B",
"u 	c #5E6B6D",
"v 	c #596465",
"w 	c #586365",
"x 	c #566062",
"y 	c #535D5F",
"z 	c #515C5E",
"A 	c #4E595C",
"B 	c #4D585A",
"C 	c #4C5658",
"D 	c #485154",
"E 	c #464D50",
"F 	c #4B5457",
"G 	c #4C575A",
"H 	c #4B5658",
"I 	c #4A5456",
"J 	c #495355",
"K 	c #485254",
"L 	c #495154",
"M 	c #F78300",
"N 	c #FFB62C",
"O 	c #6F8082",
"P 	c #647376",
"Q 	c #546163",
"R 	c #464C4E",
"S 	c #464E50",
"T 	c #464E4F",
"U 	c #4A5457",
"V 	c #758688",
"W 	c #5C696C",
"X 	c #505C60",
"Y 	c #434749",
"Z 	c #434648",
"` 	c #434547",
" .	c #43474A",
"..	c #43484A",
"+.	c #43494B",
"@.	c #434A4C",
"#.	c #434B4C",
"$.	c #444C4D",
"%.	c #454C4E",
"&.	c #474E51",
"*.	c #4E5A5E",
"=.	c #4B5559",
"-.	c #FFEC24",
";.	c #768689",
">.	c #555F62",
",.	c #495356",
"'.	c #404748",
").	c #3B3C3E",
"!.	c #3B383A",
"~.	c #3B393B",
"{.	c #3B3B3D",
"].	c #3B3D3F",
"^.	c #3B3C3F",
"/.	c #3B3F41",
"(.	c #3B4143",
"_.	c #3B4244",
":.	c #3D4445",
"<.	c #3E4547",
"[.	c #3F4647",
"}.	c #414849",
"|.	c #42494B",
"1.	c #F5F9ED",
"2.	c #535C5E",
"3.	c #393E3F",
"4.	c #313031",
"5.	c #30292C",
"6.	c #2F272A",
"7.	c #2F292B",
"8.	c #2F2C2E",
"9.	c #2E2E30",
"0.	c #2E2F30",
"a.	c #2E3133",
"b.	c #2E3435",
"c.	c #2F3536",
"d.	c #313737",
"e.	c #33393A",
"f.	c #34393A",
"g.	c #363B3C",
"h.	c #383D3E",
"i.	c #3B4041",
"j.	c #3F4244",
"k.	c #444A4C",
"l.	c #BAB77A",
"m.	c #FFD02C",
"n.	c #768789",
"o.	c #535E5F",
"p.	c #333738",
"q.	c #2B2F31",
"r.	c #282A2C",
"s.	c #232122",
"t.	c #221E20",
"u.	c #221E1F",
"v.	c #212021",
"w.	c #202021",
"x.	c #202020",
"y.	c #202121",
"z.	c #202323",
"A.	c #212424",
"B.	c #232626",
"C.	c #252828",
"D.	c #252929",
"E.	c #26292A",
"F.	c #2C3030",
"G.	c #3B3E40",
"H.	c #545E60",
"I.	c #404546",
"J.	c #333839",
"K.	c #333D40",
"L.	c #303A3C",
"M.	c #212527",
"N.	c #1E2121",
"O.	c #1D1F20",
"P.	c #1C1D1E",
"Q.	c #1B1D1E",
"R.	c #191B1B",
"S.	c #181A1A",
"T.	c #171919",
"U.	c #171718",
"V.	c #171717",
"W.	c #171818",
"X.	c #171817",
"Y.	c #161716",
"Z.	c #151715",
"`.	c #151716",
" +	c #161816",
".+	c #181818",
"++	c #222323",
"@+	c #383D3F",
"#+	c #404345",
"$+	c #35383B",
"%+	c #394548",
"&+	c #364245",
"*+	c #242A2C",
"=+	c #202425",
"-+	c #1F2324",
";+	c #1E2223",
">+	c #1D2021",
",+	c #1C1F20",
"'+	c #191B1D",
")+	c #18191B",
"!+	c #161718",
"~+	c #161617",
"{+	c #161616",
"]+	c #151515",
"^+	c #141414",
"/+	c #131313",
"(+	c #131312",
"_+	c #1E1F1F",
":+	c #444B4D",
"<+	c #748587",
"[+	c #3F4345",
"}+	c #333436",
"|+	c #303B3E",
"1+	c #212729",
"2+	c #1D2123",
"3+	c #1C2021",
"4+	c #1B1F20",
"5+	c #1A1D1F",
"6+	c #18191A",
"7+	c #171819",
"8+	c #151616",
"9+	c #141413",
"0+	c #141514",
"a+	c #1D2121",
"b+	c #3A4345",
"c+	c #454E50",
"d+	c #6D7E81",
"e+	c #515B5D",
"f+	c #2F2D2F",
"g+	c #272E30",
"h+	c #262C2F",
"i+	c #1D2022",
"j+	c #1A1C1E",
"k+	c #181A1C",
"l+	c #17191A",
"m+	c #161717",
"n+	c #1E2222",
"o+	c #3D4748",
"p+	c #465052",
"q+	c #67787B",
"r+	c #4F595B",
"s+	c #3F4143",
"t+	c #2D2A2C",
"u+	c #212426",
"v+	c #1F2325",
"w+	c #181A1B",
"x+	c #161818",
"y+	c #151514",
"z+	c #1E2221",
"A+	c #3D4749",
"B+	c #475153",
"C+	c #697B7E",
"D+	c #505A5C",
"E+	c #3F4144",
"F+	c #2C282B",
"G+	c #1E2122",
"H+	c #1C2020",
"I+	c #3C4748",
"J+	c #465053",
"K+	c #6C7D80",
"L+	c #191B1C",
"M+	c #3C4648",
"N+	c #66777A",
"O+	c #4E585B",
"P+	c #1E2021",
"Q+	c #1C1F21",
"R+	c #191A1B",
"S+	c #151615",
"T+	c #3D4648",
"U+	c #475053",
"V+	c #5D6F73",
"W+	c #4B5558",
"X+	c #3F4042",
"Y+	c #2C282A",
"Z+	c #1D1E20",
"`+	c #1B1D1F",
" @	c #151516",
".@	c #5A6C71",
"+@	c #3E3F42",
"@@	c #2C2729",
"#@	c #1A1C1D",
"$@	c #3D494B",
"%@	c #485153",
"&@	c #536265",
"*@	c #596C70",
"=@	c #1C1E1E",
"-@	c #131413",
";@	c #1D2223",
">@	c #414D50",
",@	c #464F51",
"'@	c #1D1F1F",
")@	c #1A1D1E",
"!@	c #676767",
"~@	c #C5C5C5",
"{@	c #EAEAEA",
"]@	c #F9F9F9",
"^@	c #FCFCFC",
"/@	c #F1F1F1",
"(@	c #D4D4D4",
"_@	c #8E8E8E",
":@	c #1D2324",
"<@	c #424F53",
"[@	c #4A5558",
"}@	c #2C272A",
"|@	c #1C1D1D",
"1@	c #A2A2A2",
"2@	c #FFFFFF",
"3@	c #CFCFCF",
"4@	c #252525",
"5@	c #1C2122",
"6@	c #404C4F",
"7@	c #485356",
"8@	c #464F52",
"9@	c #2B2729",
"0@	c #1A1A1B",
"a@	c #6C6C6C",
"b@	c #FDFDFD",
"c@	c #AAAAAA",
"d@	c #404C50",
"e@	c #495457",
"f@	c #3E4042",
"g@	c #2B2829",
"h@	c #19191A",
"i@	c #B6B6B6",
"j@	c #CECECE",
"k@	c #616161",
"l@	c #4C4C4C",
"m@	c #ADADAD",
"n@	c #FEFEFE",
"o@	c #DEDEDE",
"p@	c #131414",
"q@	c #1E2325",
"r@	c #435054",
"s@	c #4B5659",
"t@	c #3E4143",
"u@	c #2B2B2C",
"v@	c #181919",
"w@	c #C2C2C1",
"x@	c #3A3A39",
"y@	c #E3E3E3",
"z@	c #E7E7E7",
"A@	c #131514",
"B@	c #1E2526",
"C@	c #455458",
"D@	c #4B585B",
"E@	c #3E4244",
"F@	c #2B2C2D",
"G@	c #A7A7A7",
"H@	c #777777",
"I@	c #313130",
"J@	c #D1D1D1",
"K@	c #455558",
"L@	c #4B595C",
"M@	c #586B6F",
"N@	c #2B2A2C",
"O@	c #3D3D3C",
"P@	c #F4F4F4",
"Q@	c #929292",
"R@	c #646464",
"S@	c #DDDDDD",
"T@	c #767676",
"U@	c #1F2526",
"V@	c #56686B",
"W@	c #2B2A2B",
"X@	c #7F7F7F",
"Y@	c #F8F8F8",
"Z@	c #FBFBFB",
"`@	c #979797",
" #	c #536266",
".#	c #2B2D2E",
"+#	c #707070",
"@#	c #F7F7F7",
"##	c #6E6E6E",
"$#	c #536467",
"%#	c #495255",
"&#	c #3E4446",
"*#	c #2B2F30",
"=#	c #757575",
"-#	c #EBEBEB",
";#	c #EDEDED",
">#	c #848483",
",#	c #56676A",
"'#	c #4A5356",
")#	c #717171",
"!#	c #A3A3A3",
"~#	c #A9A9A9",
"{#	c #F6F6F6",
"]#	c #939393",
"^#	c #4C595C",
"/#	c #546367",
"(#	c #585857",
"_#	c #5B5B5B",
":#	c #E8E8E8",
"<#	c #1F2627",
"[#	c #475659",
"}#	c #4D5A5D",
"|#	c #505D60",
"1#	c #292929",
"2#	c #7C7C7C",
"3#	c #222829",
"4#	c #4D5C5F",
"5#	c #505E61",
"6#	c #4E5C5F",
"7#	c #3D4446",
"8#	c #595959",
"9#	c #BEBEBE",
"0#	c #858584",
"a#	c #252C2C",
"b#	c #546365",
"c#	c #556264",
"d#	c #A5A5A5",
"e#	c #565656",
"f#	c #484848",
"g#	c #8B8B8A",
"h#	c #7B7B7B",
"i#	c #556365",
"j#	c #4A5355",
"k#	c #3E4546",
"l#	c #2C3132",
"m#	c #C7C7C7",
"n#	c #DFDFDF",
"o#	c #23292A",
"p#	c #505F61",
"q#	c #3F4648",
"r#	c #2E3334",
"s#	c #181918",
"t#	c #DBDBDB",
"u#	c #E4E4E4",
"v#	c #4E4E4E",
"w#	c #252B2B",
"x#	c #526163",
"y#	c #404749",
"z#	c #2F3335",
"A#	c #9A9A9A",
"B#	c #D7D7D7",
"C#	c #F2F2F2",
"D#	c #D8D8D8",
"E#	c #A0A0A0",
"F#	c #1B1B1A",
"G#	c #404648",
"H#	c #242A2B",
"I#	c #516062",
"J#	c #536062",
"K#	c #526063",
"L#	c #546062",
"M#	c #414749",
"N#	c #303536",
"O#	c #181A19",
"P#	c #272E2E",
"Q#	c #596769",
"R#	c #596567",
"S#	c #41484A",
"T#	c #323638",
"U#	c #191A1A",
"V#	c #293030",
"W#	c #5D6B6D",
"X#	c #5B686A",
"Y#	c #4C5456",
"Z#	c #42484A",
"`#	c #323738",
" $	c #2A2F30",
".$	c #121312",
"+$	c #292F2F",
"@$	c #5C686A",
"#$	c #42494A",
"$$	c #1A1B1A",
"%$	c #121211",
"&$	c #121110",
"*$	c #111110",
"=$	c #11110F",
"-$	c #10100F",
";$	c #11100E",
">$	c #100F0E",
",$	c #0F0F0E",
"'$	c #272D2D",
")$	c #5B696B",
"!$	c #5A6669",
"~$	c #353A3A",
"{$	c #1F2120",
"]$	c #151717",
"^$	c #141616",
"/$	c #131515",
"($	c #121414",
"_$	c #121515",
":$	c #131616",
"<$	c #131717",
"[$	c #141818",
"}$	c #151919",
"|$	c #171B1B",
"1$	c #1A1D1D",
"2$	c #1B1D1D",
"3$	c #1A1E1E",
"4$	c #2B3233",
"5$	c #556164",
"6$	c #3A3F40",
"7$	c #2D3132",
"8$	c #292E2F",
"9$	c #282F2F",
"0$	c #293031",
"a$	c #283032",
"b$	c #283031",
"c$	c #282F31",
"d$	c #2A3336",
"e$	c #2B3638",
"f$	c #2D383A",
"g$	c #2F3B3E",
"h$	c #2F3C3F",
"i$	c #333E41",
"j$	c #424C4E",
"k$	c #444E4F",
"l$	c #434E4F",
"m$	c #434F50",
"n$	c #516163",
"o$	c #4F5B5E",
"p$	c #495052",
"q$	c #3C4345",
"r$	c #3D4547",
"s$	c #3E4648",
"t$	c #3F484A",
"u$	c #404B4E",
"v$	c #404C4E",
"w$	c #414D4F",
"x$	c #435155",
"y$	c #465458",
"z$	c #48585B",
"A$	c #4A5B60",
"B$	c #4B5D61",
"C$	c #4B5C61",
"D$	c #506165",
"E$	c #5C6D6E",
"F$	c #657576",
"G$	c #687779",
"H$	c #677678",
"I$	c #5E6E70",
"J$	c #556466",
"K$	c #484F51",
"L$	c #4F5C5F",
"M$	c #4A5557",
"N$	c #454D4F",
"O$	c #4B575A",
"P$	c #4B585A",
"Q$	c #4D5C5E",
"R$	c #4F5F62",
"S$	c #516165",
"T$	c #54666B",
"U$	c #596A6E",
"V$	c #647577",
"W$	c #6D7D7F",
"X$	c #707F81",
"Y$	c #6E7E80",
"Z$	c #647476",
"`$	c #556265",
" %	c #FF992C",
".%	c #474F52",
"+%	c #4D585B",
"@%	c #4E5B5F",
"#%	c #576365",
"$%	c #5D6A6C",
"%%	c #5D696B",
"&%	c #566265",
"*%	c #4A5255",
"=%	c #4C585B",
"-%	c #4A5254",
";%	c #4B5355",
">%	c #495153",
",%	c #474D4F",
"'%	c #44494B",
")%	c #44484A",
"!%	c #44484B",
"~%	c #414144",
"{%	c #404042",
"]%	c #454B4D",
"^%	c #414648",
"/%	c #3F4547",
"(%	c #3E4345",
"_%	c #3E4043",
":%	c #3E3D3F",
"<%	c #3E3C3E",
"[%	c #3E3B3E",
"}%	c #3E3A3D",
"|%	c #3C3639",
"1%	c #3C383B",
"2%	c #3A393C",
"3%	c #464C4D",
"4%	c #414748",
"5%	c #3B4243",
"6%	c #394042",
"7%	c #393A3C",
"8%	c #39393C",
"9%	c #39363A",
"0%	c #393235",
"a%	c #393034",
"b%	c #393033",
"c%	c #392F33",
"d%	c #382E32",
"e%	c #383235",
"f%	c #38393B",
"g%	c #4B3F38",
"h%	c #796F47",
"                                                                                                                                ",
". . . . . . + . + . + . + + + @ . . . . . . + . + . + . + + + @ . . . . . . + . + . + . + + + @ . . . . . . + . + . + . + + + @ ",
". + + + + + + + + + + + + + + @ . + + + + + + + + + + + + + + @ . + + + + + + + + + + + + + + @ . + + + + + + + + + + + + + + @ ",
". + # + + # # # # . + + + # + @ $ % & * = - ; > , ' ' ' ) ! ~ { ] ^ / ( ' _ : < [ } | 1 2 3 4 @ . + # + + # # # # . + + + # + @ ",
". @ + + # @ @ @ @ @ @ + @ + + @ 5 % 6 7 6 8 9 0 a b c c d e f g h i j k c k l m n o p p p q r @ . @ + + # @ @ @ @ @ @ + @ + + @ ",
". + + # @ @ @ @ @ @ @ @ . + + @ s t u v w x y z A B B B B C D E . { F G B G H i I J K K J i L @ . + + # @ @ @ @ @ @ @ @ . + + @ ",
". + # @ @ @ M N N M @ @ @ . + @ O P Q r g h h h . R . . E . . . . . . S S S S T . . . . { f U @ . + # @ @ @ M N N M @ @ @ . + @ ",
". + # @ @ M N N N N M @ @ # + @ V W X . Y Z Z Z Z ` Z Y  . .....+.@.@.@.@.#.$.$.%.. . . &.*.=.@ . + # @ @ M N N N N M @ @ # + @ ",
". + # @ @ N N -.-.N N @ @ # + @ ;.>.,.'.).!.!.!.!.!.~.{.].^.]./.(._._._.:.<.[.[.}.|.+.+. .L D @ . + # @ @ N N -.-.N N @ @ # + @ ",
". + # @ @ N N 1.1.N N @ @ # + @ V 2.@.3.4.5.6.6.6.6.7.8.9.9.0.a.b.b.b.c.d.e.f.f.g.h.3.i.j.k.. @ . + # @ @ N N 1.1.N N @ @ # + @ ",
"# . l.+ + m.m.1.1.m.m.+ + l.. + n.o.'.p.q.r.s.t.t.t.u.v.w.w.x.y.z.z.z.z.A.B.B.B.C.D.E.F.G.+.. + # . l.+ + m.m.1.1.m.m.+ + l.. + ",
". + # @ @ N N 1.1.N N @ @ # + @ n.H.I.J.K.L.M.N.N.O.P.Q.R.S.T.U.V.W.X.Y.Z.`.`.`. + +.+++@+@.. @ . + # @ @ N N 1.1.N N @ @ # + @ ",
"# . l.+ + m.m.1.1.m.m.+ + l.. + n.H.#+$+%+&+*+=+-+;+>+,+'+)+T.!+~+{+]+^+/+(+(+(+(+(+^+_++ :+. + # . l.+ + m.m.1.1.m.m.+ + l.. + ",
"# . l.+ + m.m.1.1.m.m.+ + l.. @ <+H.[+}+K.|+1+2+2+3+4+5+'+6+7+!+8+]+^+9+9+9+9+9+9+9+0+a+b+c+. @ # . l.+ + m.m.1.1.m.m.+ + l.. @ ",
"# . l.+ + m.m.1.1.m.m.+ + l.. + d+e+j.f+g+h+i+j+j+j+'+k+l+W.m+{+]+9+9+9+9+9+9+9+9+9+0+n+o+p+. + # . l.+ + m.m.1.1.m.m.+ + l.. + ",
"# . l.+ + m.m.1.1.m.m.+ + l.. @ q+r+s+t+u+v+j+'+'+w+l+7+x+~+]+y+^+9+9+9+9+9+9+9+9+9+9+z+A+B+S @ # . l.+ + m.m.1.1.m.m.+ + l.. @ ",
"# . l.+ + m.m.1.1.m.m.+ + l.. + C+D+E+F+G+3+'+k+w+6+W.m+8+]+^+9+9+9+9+9+9+9+9+9+9+9+9+H+I+J+E + # . l.+ + m.m.1.1.m.m.+ + l.. + ",
"# . l.+ + m.m.1.1.m.m.+ + l.. + K+e+E+F+N.3+L+6+7+!+m+]+^+^+9+9+9+9+9+9+9+9+9+9+9+9+9+H+M+J+E + # . l.+ + m.m.1.1.m.m.+ + l.. + ",
"# . l.+ + m.m.1.1.m.m.+ + l.. + N+O+s+F+P+Q+R+7+m+8+S+0+9+9+9+9+9+9+9+9+9+9+9+9+9+9+9+>+T+U+E + # . l.+ + m.m.1.1.m.m.+ + l.. + ",
"# . l.+ + m.m.1.1.m.m.+ + l.. + V+W+X+Y+Z+`+)+U. @^+9+9+9+9+9+9+9+9+9+9+9+9+9+9+9+9+9+>+A+] E + # . l.+ + m.m.1.1.m.m.+ + l.. + ",
"# . l.+ + m.m.1.1.m.m.+ + l.. . .@U +@@@P.#@l+m+]+9+9+9+9+9+9+9+9+9+9+9+9+9+9+9+9+9+9+3+$@%@S . # . l.+ + m.m.1.1.m.m.+ + l.. . ",
"&@. l.+ + m.m.1.1.m.m.+ + l.. + *@U +@Y+=@#@7+8+^+9+9+9+9+9+9+9+9+9+9+9+9+9+9+9+9+9+-@;@>@I ,@+ &@. l.+ + m.m.1.1.m.m.+ + l.. + ",
"# . l.+ + m.m.1.1.m.m.+ + l.. . *@U +@Y+'@)@U.]+9+9+9+!@~@{@]@^@/@(@_@9+9+9+9+9+9+9+-@:@<@[@p+. # . l.+ + m.m.1.1.m.m.+ + l.. . ",
"&@. l.+ + m.m.1.1.m.m.+ + l.. + *@U +@}@|@L+~+^+9+9+1@^@2@2@2@2@2@2@2@3@4@9+9+9+9+9+-@5@6@7@8@+ &@. l.+ + m.m.1.1.m.m.+ + l.. + ",
"# . l.+ + m.m.1.1.m.m.+ + l.. . *@U +@9@0@T.S+9+9+a@b@2@2@2@2@2@2@2@2@2@c@9+9+9+9+9+-@2+d@e@8@. # . l.+ + m.m.1.1.m.m.+ + l.. . ",
"&@. l.+ + m.m.1.1.m.m.+ + l.. + *@U f@g@h@m+y+9+9+i@2@2@2@j@k@l@m@n@2@2@o@9+9+9+9+9+p@q@r@s@] + &@. l.+ + m.m.1.1.m.m.+ + l.. + ",
"&@. l.+ + m.m.1.1.m.m.+ + l.. + *@U t@u@v@m+]+9+9+w@2@2@2@x@9+9+9+y@2@2@z@9+9+9+9+9+A@B@C@D@{ + &@. l.+ + m.m.1.1.m.m.+ + l.. + ",
"&@. l.+ + m.m.1.1.m.m.+ + l.. + *@U E@F@6+m+]+9+9+G@2@2@2@H@9+9+I@/@2@2@J@9+9+9+9+9+A@B@K@L@{ + &@. l.+ + m.m.1.1.m.m.+ + l.. + ",
"&@. l.+ + m.m.1.1.m.m.+ + l.. @ M@U E@N@v@m+]+9+9+O@P@2@2@/@Q@R@S@2@2@b@T@9+9+9+9+9+A@U@K@L@{ @ &@. l.+ + m.m.1.1.m.m.+ + l.. @ ",
"&@. l.+ + m.m.1.1.m.m.+ + l.. + V@J t@W@v@~+y+9+9+9+X@Y@2@2@2@^@2@2@Z@`@9+9+9+9+9+9+A@U@K@L@{ + &@. l.+ + m.m.1.1.m.m.+ + l.. + ",
"&@. l.+ + m.m.1.1.m.m.+ + l.. @  #L E@.#6+m+]+9+9+9+9++#Y@2@2@2@2@@###9+9+9+9+9+9+9+A@U@K@L@{ @ &@. l.+ + m.m.1.1.m.m.+ + l.. @ ",
"&@. l.+ + m.m.1.1.m.m.+ + l.. + $#%#&#*#S.m+]+9+9+9+=#-#2@2@2@2@2@2@;#>#9+9+9+9+9+9+A@B@K@L@{ + &@. l.+ + m.m.1.1.m.m.+ + l.. + ",
"&@. l.+ + m.m.1.1.m.m.+ + l.. @ ,#'#&#*#S.{+y+9+9+)#Y@2@2@P@!#~#{#2@2@^@]#9+9+9+9+9+A@B@K@^#{ @ &@. l.+ + m.m.1.1.m.m.+ + l.. @ ",
"&@. l.+ + m.m.1.1.m.m.+ + l.. @ /#%#&#*#v@]+9+9+9+o@2@2@/@(#9+9+_#:#2@2@@#O@9+9+9+9+0+<#[#}#{ @ &@. l.+ + m.m.1.1.m.m.+ + l.. @ ",
"&@. l.+ + m.m.1.1.m.m.+ + l.. @ |#{ &#*#v@y+9+9+1#b@2@2@i@9+9+9+9+2#2@2@2@`@9+9+9+9+0+3#4#5#L @ &@. l.+ + m.m.1.1.m.m.+ + l.. @ ",
"&@. l.+ + m.m.1.1.m.m.+ + l.. @ 6#{ 7#*#6+]+9+9+8#2@2@2@9#9+9+9+9+0#2@2@2@!#9+9+9+9+y+a#b#c#'#@ &@. l.+ + m.m.1.1.m.m.+ + l.. @ ",
"&@. l.+ + m.m.1.1.m.m.+ + l.. @ 6#{ &#*#v@]+9+9+1#]@2@2@Z@d#e#f#g#-#2@2@2@h#9+9+9+9+y+a#i#c#j#@ &@. l.+ + m.m.1.1.m.m.+ + l.. @ ",
"&@. l.+ + m.m.1.1.m.m.+ + l.. @ 6#{ k#l#T.^+9+9+9+m#2@2@2@2@2@2@2@2@2@2@n#9+9+9+9+9+0+o#p#2 r @ &@. l.+ + m.m.1.1.m.m.+ + l.. @ ",
"&@. l.+ + m.m.1.1.m.m.+ + l.. @ 6#{ q#r#s#9+9+9+9+O@t#2@2@2@2@2@2@2@2@u#v#9+9+9+9+9+y+w#x#Q J @ &@. l.+ + m.m.1.1.m.m.+ + l.. @ ",
"&@. l.+ + m.m.1.1.m.m.+ + l.. @ 6#{ y#z#v@9+9+9+9+9+9+A#B#/@Z@^@C#D#E#F#9+9+9+9+9+9+y+a#b#c#I @ &@. l.+ + m.m.1.1.m.m.+ + l.. @ ",
"&@. l.+ + m.m.1.1.m.m.+ + l.. @ 6#{ G#r#s#9+9+9+9+9+9+9+9+9+9+9+9+9+9+9+9+9+9+9+9+9+0+H#I#J#J @ &@. l.+ + m.m.1.1.m.m.+ + l.. @ ",
"&@. l.+ + m.m.1.1.m.m.+ + l.. @ 6#{ G#r#v@9+9+9+9+9+9+9+9+9+9+9+9+9+9+9+9+9+9+9+9+9+0+H#K#L#J @ &@. l.+ + m.m.1.1.m.m.+ + l.. @ ",
". . l.+ + m.m.1.1.m.m.+ + l.. @ 6#{ M#N#O#9+9+9+9+9+9+9+9+9+9+9+9+9+9+9+9+9+9+9+9+9+y+P#Q#R#4 @ . . l.+ + m.m.1.1.m.m.+ + l.. @ ",
"&@. l.+ + m.m.1.1.m.m.+ + l.. @ 6#{ S#T#U#9+9+9+9+9+9+9+9+9+9+9+9+9+9+9+9+9+9+9+9+9+y+V#W#X#Y#@ &@. l.+ + m.m.1.1.m.m.+ + l.. @ ",
". . l.+ + m.m.1.1.m.m.+ + l.. @ 6#{ Z#`#U#9+9+9+9+9+9+9+9+9+9+9+9+9+9+9+9+9+9+9+9+9+y+ $W#X#Y#@ . . l.+ + m.m.1.1.m.m.+ + l.. @ ",
"&@. l.+ + m.m.1.1.m.m.+ + l.. @ 6#{ Z#`#U#9+9+9+9+9+9+9+9+9+9+9+9+9+9+9+9+9+9+9+9+9+y+ $W#X#Y#@ &@. l.+ + m.m.1.1.m.m.+ + l.. @ ",
". . l.+ + m.m.1.1.m.m.+ + l.. @ 6#{ Z#`#U#9+9+9+9+9+9+9+9+9+9+9+9+9+9+9+9+9+9+9+9+9+.$+$u @$Y#@ . . l.+ + m.m.1.1.m.m.+ + l.. @ ",
"&@. l.+ + m.m.1.1.m.m.+ + l.. @ 6#{ #$p.$$-@(+(+%$%$&$&$&$&$&$&$&$*$*$*$*$*$=$-$;$>$,$'$)$!$Y#@ &@. l.+ + m.m.1.1.m.m.+ + l.. @ ",
". . l.+ + m.m.1.1.m.m.+ + l.. @ 6#{ +.~${$v@s#W.]$^$/$($($($($($_$:$<$[$[$[$}$|$1$2$3$4$i#5$J @ . . l.+ + m.m.1.1.m.m.+ + l.. @ ",
". . l.+ + m.m.1.1.m.m.+ + l.. @ 6#{ k.6$7$8$8$8$9$0$a$b$c$c$c$a$d$e$f$g$h$h$i$M+j$k$l$m$n$o$p$@ . . l.+ + m.m.1.1.m.m.+ + l.. @ ",
". . # + + m.m.1.1.m.m.+ + l.. @ 6#K . M#q$r$T+s$t$u$6@v$v$v$v$w$x$y$z$A$B$C$D$E$F$G$H$I$J$B K$@ . . # + + m.m.1.1.m.m.+ + l.. @ ",
". . l.+ + m.m.-.-.m.m.+ + l.. @ L$H M$. N$p+B+B+J [@O$O$O$O$O$P$Q$R$S$e T$T$U$V$W$X$Y$Z$`$p J @ . . l.+ + m.m.-.-.m.m.+ + l.. @ ",
". . # + +  %m.m.m.m. %+ + l.. @ o q o .%T K${ { %@r J J J J J ,.H G +%o @%@%|##%@$$%%%&%A |#M$@ . . # + +  %m.m.m.m. %+ + l.. @ ",
". . # + + +  %m.m. %+ + + l.. @ F *%=%g . . . . . S S S S S S S h h g .%U+.%{ -%;%4 ;%>%,%W+E @ . . # + + +  %m.m. %+ + + l.. @ ",
". . . # + + + + + + + + l.. . @ R '%S :+:+:+:+:+k.k.k.k.k.'%)%)%)%)%)%)%!%!%)%)%'%'%'%Y ~%Z {%@ . . . # + + + + + + + + l.. . @ ",
". . . . # + + + + + + l.. . . @ ]%^%/%<.<.<.<.<.<.(%t@t@_%+@:%<%[%[%[%[%[%[%[%[%[%[%[%}%|%1%2%@ . . . . # + + + + + + l.. . . @ ",
". . . . . # l.# l.l.l.. . . . @ 3%4%5%6%6%6%6%6%6%3.7%8%8%9%0%a%b%b%b%b%b%b%b%b%b%b%b%c%d%e%f%@ . . . . . # l.# l.l.l.. . . . @ ",
". + . . . . . . + . . . . . . @ . + . . . . . . + . . . . . . @ . + . . . . . . + . . . . . . @ . + . . . . . . + . . . . . . @ ",
"+ . . . . . . . . . . . . . . @ + . . . . . . . . . . . . . . @ + . . . . . . . . . . . . . . @ + . . . . . . . . . . . . . . @ ",
". . g%h%l.. . . . . . l.h%. g%@ . . g%h%l.. . . . . . l.h%. g%@ . . g%h%l.. . . . . . l.h%. g%@ . . g%h%l.. . . . . . l.h%. g%@ ",
"+ . @ h%h%. . + . . @ h%h%. . @ + . @ h%h%. . + . . @ h%h%. . @ + . @ h%h%. . + . . @ h%h%. . @ + . @ h%h%. . + . . @ h%h%. . @ ",
". . @ @ g%. . . . . @ @ . . g%@ . . @ @ g%. . . . . @ @ . . g%@ . . @ @ g%. . . . . @ @ . . g%@ . . @ @ g%. . . . . @ @ . . g%@ ",
". . . g%g%. . . . . . . . g%. @ . . . g%g%. . . . . . . . g%. @ . . . g%g%. . . . . . . . g%. @ . . . g%g%. . . . . . . . g%. @ ",
"9+@ 9+9+9+9+@ 9+@ @ @ @ @ @ @ @ 9+@ 9+9+9+9+@ 9+@ @ @ @ @ @ @ @ 9+@ 9+9+9+9+@ 9+@ @ @ @ @ @ @ @ 9+@ 9+9+9+9+@ 9+@ @ @ @ @ @ @ @ "};
