/* XPM */
static char * scorefive_xpm[] = {
"64 64 577 2",
"  	c #000000",
". 	c #464D4F",
"+ 	c #383F40",
"@ 	c #382B2F",
"# 	c #62797E",
"$ 	c #535E61",
"% 	c #6A7A7C",
"& 	c #7E9193",
"* 	c #829496",
"= 	c #819496",
"- 	c #7B8E90",
"; 	c #738789",
"> 	c #6D8285",
", 	c #64797E",
"' 	c #5E757A",
") 	c #5F757A",
"! 	c #5B6F74",
"~ 	c #515F62",
"{ 	c #485052",
"] 	c #475052",
"^ 	c #4D5A5C",
"/ 	c #586A6D",
"( 	c #5D7477",
"_ 	c #5E7378",
": 	c #5B6E73",
"< 	c #596B6F",
"[ 	c #56666A",
"} 	c #536164",
"| 	c #536063",
"1 	c #535F62",
"2 	c #535F61",
"3 	c #505C5F",
"4 	c #4B5456",
"5 	c #5A686A",
"6 	c #718183",
"7 	c #728284",
"8 	c #6C7C7E",
"9 	c #667779",
"0 	c #627376",
"a 	c #5B6C70",
"b 	c #58696D",
"c 	c #586A6E",
"d 	c #57696D",
"e 	c #546569",
"f 	c #4D595C",
"g 	c #474F51",
"h 	c #474E50",
"i 	c #4B5557",
"j 	c #526164",
"k 	c #57686C",
"l 	c #556568",
"m 	c #526265",
"n 	c #505F62",
"o 	c #4E5B5E",
"p 	c #4E5A5C",
"q 	c #4D595B",
"r 	c #495254",
"s 	c #657577",
"t 	c #69797B",
"u 	c #5E6B6D",
"v 	c #596465",
"w 	c #586365",
"x 	c #566062",
"y 	c #535D5F",
"z 	c #515C5E",
"A 	c #4E595C",
"B 	c #4D585A",
"C 	c #4C5658",
"D 	c #485154",
"E 	c #464D50",
"F 	c #4B5457",
"G 	c #4C575A",
"H 	c #4B5658",
"I 	c #4A5456",
"J 	c #495355",
"K 	c #485254",
"L 	c #495154",
"M 	c #F78300",
"N 	c #FFB62C",
"O 	c #6F8082",
"P 	c #647376",
"Q 	c #546163",
"R 	c #464C4E",
"S 	c #464E50",
"T 	c #464E4F",
"U 	c #4A5457",
"V 	c #758688",
"W 	c #5C696C",
"X 	c #505C60",
"Y 	c #434749",
"Z 	c #434648",
"` 	c #434547",
" .	c #43474A",
"..	c #43484A",
"+.	c #43494B",
"@.	c #434A4C",
"#.	c #434B4C",
"$.	c #444C4D",
"%.	c #454C4E",
"&.	c #474E51",
"*.	c #4E5A5E",
"=.	c #4B5559",
"-.	c #FFEC24",
";.	c #768689",
">.	c #555F62",
",.	c #495356",
"'.	c #404748",
").	c #3B3C3E",
"!.	c #3B383A",
"~.	c #3B393B",
"{.	c #3B3B3D",
"].	c #3B3D3F",
"^.	c #3B3C3F",
"/.	c #3B3F41",
"(.	c #3B4143",
"_.	c #3B4244",
":.	c #3D4445",
"<.	c #3E4547",
"[.	c #3F4647",
"}.	c #414849",
"|.	c #42494B",
"1.	c #F5F9ED",
"2.	c #535C5E",
"3.	c #393E3F",
"4.	c #313031",
"5.	c #30292C",
"6.	c #2F272A",
"7.	c #2F292B",
"8.	c #2F2C2E",
"9.	c #2E2E30",
"0.	c #2E2F30",
"a.	c #2E3133",
"b.	c #2E3435",
"c.	c #2F3536",
"d.	c #313737",
"e.	c #33393A",
"f.	c #34393A",
"g.	c #363B3C",
"h.	c #383D3E",
"i.	c #3B4041",
"j.	c #3F4244",
"k.	c #444A4C",
"l.	c #BAB77A",
"m.	c #FFD02C",
"n.	c #768789",
"o.	c #535E5F",
"p.	c #333738",
"q.	c #2B2F31",
"r.	c #282A2C",
"s.	c #232122",
"t.	c #221E20",
"u.	c #221E1F",
"v.	c #212021",
"w.	c #202021",
"x.	c #202020",
"y.	c #202121",
"z.	c #202323",
"A.	c #212424",
"B.	c #232626",
"C.	c #252828",
"D.	c #252929",
"E.	c #26292A",
"F.	c #2C3030",
"G.	c #3B3E40",
"H.	c #545E60",
"I.	c #404546",
"J.	c #333839",
"K.	c #333D40",
"L.	c #303A3C",
"M.	c #212527",
"N.	c #1E2121",
"O.	c #1D1F20",
"P.	c #1C1D1E",
"Q.	c #1B1D1E",
"R.	c #191B1B",
"S.	c #181A1A",
"T.	c #171919",
"U.	c #171718",
"V.	c #171717",
"W.	c #171818",
"X.	c #171817",
"Y.	c #161716",
"Z.	c #151715",
"`.	c #151716",
" +	c #161816",
".+	c #181818",
"++	c #222323",
"@+	c #383D3F",
"#+	c #404345",
"$+	c #35383B",
"%+	c #394548",
"&+	c #364245",
"*+	c #242A2C",
"=+	c #202425",
"-+	c #1F2324",
";+	c #1E2223",
">+	c #1D2021",
",+	c #1C1F20",
"'+	c #191B1D",
")+	c #18191B",
"!+	c #161718",
"~+	c #161617",
"{+	c #161616",
"]+	c #151515",
"^+	c #141414",
"/+	c #131313",
"(+	c #131312",
"_+	c #1E1F1F",
":+	c #444B4D",
"<+	c #748587",
"[+	c #3F4345",
"}+	c #333436",
"|+	c #303B3E",
"1+	c #212729",
"2+	c #1D2123",
"3+	c #1C2021",
"4+	c #1B1F20",
"5+	c #1A1D1F",
"6+	c #18191A",
"7+	c #171819",
"8+	c #151616",
"9+	c #141413",
"0+	c #141514",
"a+	c #1D2121",
"b+	c #3A4345",
"c+	c #454E50",
"d+	c #6D7E81",
"e+	c #515B5D",
"f+	c #2F2D2F",
"g+	c #272E30",
"h+	c #262C2F",
"i+	c #1D2022",
"j+	c #1A1C1E",
"k+	c #181A1C",
"l+	c #17191A",
"m+	c #161717",
"n+	c #1E2222",
"o+	c #3D4748",
"p+	c #465052",
"q+	c #67787B",
"r+	c #4F595B",
"s+	c #3F4143",
"t+	c #2D2A2C",
"u+	c #212426",
"v+	c #1F2325",
"w+	c #181A1B",
"x+	c #161818",
"y+	c #151514",
"z+	c #1E2221",
"A+	c #3D4749",
"B+	c #475153",
"C+	c #697B7E",
"D+	c #505A5C",
"E+	c #3F4144",
"F+	c #2C282B",
"G+	c #1E2122",
"H+	c #1C2020",
"I+	c #3C4748",
"J+	c #465053",
"K+	c #6C7D80",
"L+	c #191B1C",
"M+	c #3C4648",
"N+	c #66777A",
"O+	c #4E585B",
"P+	c #1E2021",
"Q+	c #1C1F21",
"R+	c #191A1B",
"S+	c #151615",
"T+	c #3D4648",
"U+	c #475053",
"V+	c #5D6F73",
"W+	c #4B5558",
"X+	c #3F4042",
"Y+	c #2C282A",
"Z+	c #1D1E20",
"`+	c #1B1D1F",
" @	c #151516",
".@	c #5A6C71",
"+@	c #3E3F42",
"@@	c #2C2729",
"#@	c #1A1C1D",
"$@	c #3D494B",
"%@	c #485153",
"&@	c #536265",
"*@	c #596C70",
"=@	c #1C1E1E",
"-@	c #131413",
";@	c #1D2223",
">@	c #414D50",
",@	c #464F51",
"'@	c #1D1F1F",
")@	c #1A1D1E",
"!@	c #E6E6E6",
"~@	c #FFFFFF",
"{@	c #F7F7F7",
"]@	c #1D2324",
"^@	c #424F53",
"/@	c #4A5558",
"(@	c #2C272A",
"_@	c #1C1D1D",
":@	c #F0F0F0",
"<@	c #1C2122",
"[@	c #404C4F",
"}@	c #485356",
"|@	c #464F52",
"1@	c #2B2729",
"2@	c #1A1A1B",
"3@	c #F9F9F9",
"4@	c #404C50",
"5@	c #495457",
"6@	c #3E4042",
"7@	c #2B2829",
"8@	c #19191A",
"9@	c #313130",
"0@	c #BDBDBD",
"a@	c #292929",
"b@	c #252525",
"c@	c #131414",
"d@	c #1E2325",
"e@	c #435054",
"f@	c #4B5659",
"g@	c #3E4143",
"h@	c #2B2B2C",
"i@	c #181919",
"j@	c #5D5D5C",
"k@	c #AAAAAA",
"l@	c #131514",
"m@	c #1E2526",
"n@	c #455458",
"o@	c #4B585B",
"p@	c #3E4244",
"q@	c #2B2C2D",
"r@	c #777777",
"s@	c #959595",
"t@	c #455558",
"u@	c #4B595C",
"v@	c #586B6F",
"w@	c #2B2A2C",
"x@	c #8C8C8C",
"y@	c #EDEDED",
"z@	c #F8F8F8",
"A@	c #FDFDFD",
"B@	c #F3F3F3",
"C@	c #D7D7D7",
"D@	c #1F2526",
"E@	c #56686B",
"F@	c #2B2A2B",
"G@	c #9E9E9E",
"H@	c #C1C1C1",
"I@	c #536266",
"J@	c #2B2D2E",
"K@	c #969695",
"L@	c #FEFEFE",
"M@	c #536467",
"N@	c #495255",
"O@	c #3E4446",
"P@	c #2B2F30",
"Q@	c #747474",
"R@	c #A7A7A7",
"S@	c #757575",
"T@	c #464646",
"U@	c #969696",
"V@	c #E9E9E9",
"W@	c #E7E7E7",
"X@	c #56676A",
"Y@	c #4A5356",
"Z@	c #585857",
"`@	c #3A3A39",
" #	c #4C595C",
".#	c #546367",
"+#	c #DFDFDF",
"@#	c #676767",
"##	c #1F2627",
"$#	c #475659",
"%#	c #4D5A5D",
"&#	c #505D60",
"*#	c #E1E1E1",
"=#	c #545454",
"-#	c #222829",
";#	c #4D5C5F",
">#	c #505E61",
",#	c #4E5C5F",
"'#	c #3D4446",
")#	c #4C4C4C",
"!#	c #5B5B5B",
"~#	c #F4F4F4",
"{#	c #252C2C",
"]#	c #546365",
"^#	c #556264",
"/#	c #E3E3E3",
"(#	c #D9D9D9",
"_#	c #A6A6A6",
":#	c #707070",
"<#	c #3F3F3F",
"[#	c #565656",
"}#	c #939393",
"|#	c #C8C8C8",
"1#	c #556365",
"2#	c #4A5355",
"3#	c #3E4546",
"4#	c #2C3132",
"5#	c #E5E5E5",
"6#	c #23292A",
"7#	c #505F61",
"8#	c #3F4648",
"9#	c #2E3334",
"0#	c #181918",
"a#	c #252B2B",
"b#	c #526163",
"c#	c #404749",
"d#	c #2F3335",
"e#	c #C3C3C3",
"f#	c #FAFAFA",
"g#	c #FCFCFC",
"h#	c #DCDCDC",
"i#	c #ACACAC",
"j#	c #3D3D3C",
"k#	c #404648",
"l#	c #242A2B",
"m#	c #516062",
"n#	c #536062",
"o#	c #526063",
"p#	c #546062",
"q#	c #414749",
"r#	c #303536",
"s#	c #181A19",
"t#	c #272E2E",
"u#	c #596769",
"v#	c #596567",
"w#	c #41484A",
"x#	c #323638",
"y#	c #191A1A",
"z#	c #293030",
"A#	c #5D6B6D",
"B#	c #5B686A",
"C#	c #4C5456",
"D#	c #42484A",
"E#	c #323738",
"F#	c #2A2F30",
"G#	c #121312",
"H#	c #292F2F",
"I#	c #5C686A",
"J#	c #42494A",
"K#	c #1A1B1A",
"L#	c #121211",
"M#	c #121110",
"N#	c #111110",
"O#	c #11110F",
"P#	c #10100F",
"Q#	c #11100E",
"R#	c #100F0E",
"S#	c #0F0F0E",
"T#	c #272D2D",
"U#	c #5B696B",
"V#	c #5A6669",
"W#	c #353A3A",
"X#	c #1F2120",
"Y#	c #151717",
"Z#	c #141616",
"`#	c #131515",
" $	c #121414",
".$	c #121515",
"+$	c #131616",
"@$	c #131717",
"#$	c #141818",
"$$	c #151919",
"%$	c #171B1B",
"&$	c #1A1D1D",
"*$	c #1B1D1D",
"=$	c #1A1E1E",
"-$	c #2B3233",
";$	c #556164",
">$	c #3A3F40",
",$	c #2D3132",
"'$	c #292E2F",
")$	c #282F2F",
"!$	c #293031",
"~$	c #283032",
"{$	c #283031",
"]$	c #282F31",
"^$	c #2A3336",
"/$	c #2B3638",
"($	c #2D383A",
"_$	c #2F3B3E",
":$	c #2F3C3F",
"<$	c #333E41",
"[$	c #424C4E",
"}$	c #444E4F",
"|$	c #434E4F",
"1$	c #434F50",
"2$	c #516163",
"3$	c #4F5B5E",
"4$	c #495052",
"5$	c #3C4345",
"6$	c #3D4547",
"7$	c #3E4648",
"8$	c #3F484A",
"9$	c #404B4E",
"0$	c #404C4E",
"a$	c #414D4F",
"b$	c #435155",
"c$	c #465458",
"d$	c #48585B",
"e$	c #4A5B60",
"f$	c #4B5D61",
"g$	c #4B5C61",
"h$	c #506165",
"i$	c #5C6D6E",
"j$	c #657576",
"k$	c #687779",
"l$	c #677678",
"m$	c #5E6E70",
"n$	c #556466",
"o$	c #484F51",
"p$	c #4F5C5F",
"q$	c #4A5557",
"r$	c #454D4F",
"s$	c #4B575A",
"t$	c #4B585A",
"u$	c #4D5C5E",
"v$	c #4F5F62",
"w$	c #516165",
"x$	c #54666B",
"y$	c #596A6E",
"z$	c #647577",
"A$	c #6D7D7F",
"B$	c #707F81",
"C$	c #6E7E80",
"D$	c #647476",
"E$	c #556265",
"F$	c #FF992C",
"G$	c #474F52",
"H$	c #4D585B",
"I$	c #4E5B5F",
"J$	c #576365",
"K$	c #5D6A6C",
"L$	c #5D696B",
"M$	c #566265",
"N$	c #4A5255",
"O$	c #4C585B",
"P$	c #4A5254",
"Q$	c #4B5355",
"R$	c #495153",
"S$	c #474D4F",
"T$	c #44494B",
"U$	c #44484A",
"V$	c #44484B",
"W$	c #414144",
"X$	c #404042",
"Y$	c #454B4D",
"Z$	c #414648",
"`$	c #3F4547",
" %	c #3E4345",
".%	c #3E4043",
"+%	c #3E3D3F",
"@%	c #3E3C3E",
"#%	c #3E3B3E",
"$%	c #3E3A3D",
"%%	c #3C3639",
"&%	c #3C383B",
"*%	c #3A393C",
"=%	c #464C4D",
"-%	c #414748",
";%	c #3B4243",
">%	c #394042",
",%	c #393A3C",
"'%	c #39393C",
")%	c #39363A",
"!%	c #393235",
"~%	c #393034",
"{%	c #393033",
"]%	c #392F33",
"^%	c #382E32",
"/%	c #383235",
"(%	c #38393B",
"_%	c #4B3F38",
":%	c #796F47",
"                                                                                                                                ",
". . . . . . + . + . + . + + + @ . . . . . . + . + . + . + + + @ . . . . . . + . + . + . + + + @ . . . . . . + . + . + . + + + @ ",
". + + + + + + + + + + + + + + @ . + + + + + + + + + + + + + + @ . + + + + + + + + + + + + + + @ . + + + + + + + + + + + + + + @ ",
". + # + + # # # # . + + + # + @ $ % & * = - ; > , ' ' ' ) ! ~ { ] ^ / ( ' _ : < [ } | 1 2 3 4 @ . + # + + # # # # . + + + # + @ ",
". @ + + # @ @ @ @ @ @ + @ + + @ 5 % 6 7 6 8 9 0 a b c c d e f g h i j k c k l m n o p p p q r @ . @ + + # @ @ @ @ @ @ + @ + + @ ",
". + + # @ @ @ @ @ @ @ @ . + + @ s t u v w x y z A B B B B C D E . { F G B G H i I J K K J i L @ . + + # @ @ @ @ @ @ @ @ . + + @ ",
". + # @ @ @ M N N M @ @ @ . + @ O P Q r g h h h . R . . E . . . . . . S S S S T . . . . { f U @ . + # @ @ @ M N N M @ @ @ . + @ ",
". + # @ @ M N N N N M @ @ # + @ V W X . Y Z Z Z Z ` Z Y  . .....+.@.@.@.@.#.$.$.%.. . . &.*.=.@ . + # @ @ M N N N N M @ @ # + @ ",
". + # @ @ N N -.-.N N @ @ # + @ ;.>.,.'.).!.!.!.!.!.~.{.].^.]./.(._._._.:.<.[.[.}.|.+.+. .L D @ . + # @ @ N N -.-.N N @ @ # + @ ",
". + # @ @ N N 1.1.N N @ @ # + @ V 2.@.3.4.5.6.6.6.6.7.8.9.9.0.a.b.b.b.c.d.e.f.f.g.h.3.i.j.k.. @ . + # @ @ N N 1.1.N N @ @ # + @ ",
"# . l.+ + m.m.1.1.m.m.+ + l.. + n.o.'.p.q.r.s.t.t.t.u.v.w.w.x.y.z.z.z.z.A.B.B.B.C.D.E.F.G.+.. + # . l.+ + m.m.1.1.m.m.+ + l.. + ",
". + # @ @ N N 1.1.N N @ @ # + @ n.H.I.J.K.L.M.N.N.O.P.Q.R.S.T.U.V.W.X.Y.Z.`.`.`. + +.+++@+@.. @ . + # @ @ N N 1.1.N N @ @ # + @ ",
"# . l.+ + m.m.1.1.m.m.+ + l.. + n.H.#+$+%+&+*+=+-+;+>+,+'+)+T.!+~+{+]+^+/+(+(+(+(+(+^+_++ :+. + # . l.+ + m.m.1.1.m.m.+ + l.. + ",
"# . l.+ + m.m.1.1.m.m.+ + l.. @ <+H.[+}+K.|+1+2+2+3+4+5+'+6+7+!+8+]+^+9+9+9+9+9+9+9+0+a+b+c+. @ # . l.+ + m.m.1.1.m.m.+ + l.. @ ",
"# . l.+ + m.m.1.1.m.m.+ + l.. + d+e+j.f+g+h+i+j+j+j+'+k+l+W.m+{+]+9+9+9+9+9+9+9+9+9+0+n+o+p+. + # . l.+ + m.m.1.1.m.m.+ + l.. + ",
"# . l.+ + m.m.1.1.m.m.+ + l.. @ q+r+s+t+u+v+j+'+'+w+l+7+x+~+]+y+^+9+9+9+9+9+9+9+9+9+9+z+A+B+S @ # . l.+ + m.m.1.1.m.m.+ + l.. @ ",
"# . l.+ + m.m.1.1.m.m.+ + l.. + C+D+E+F+G+3+'+k+w+6+W.m+8+]+^+9+9+9+9+9+9+9+9+9+9+9+9+H+I+J+E + # . l.+ + m.m.1.1.m.m.+ + l.. + ",
"# . l.+ + m.m.1.1.m.m.+ + l.. + K+e+E+F+N.3+L+6+7+!+m+]+^+^+9+9+9+9+9+9+9+9+9+9+9+9+9+H+M+J+E + # . l.+ + m.m.1.1.m.m.+ + l.. + ",
"# . l.+ + m.m.1.1.m.m.+ + l.. + N+O+s+F+P+Q+R+7+m+8+S+0+9+9+9+9+9+9+9+9+9+9+9+9+9+9+9+>+T+U+E + # . l.+ + m.m.1.1.m.m.+ + l.. + ",
"# . l.+ + m.m.1.1.m.m.+ + l.. + V+W+X+Y+Z+`+)+U. @^+9+9+9+9+9+9+9+9+9+9+9+9+9+9+9+9+9+>+A+] E + # . l.+ + m.m.1.1.m.m.+ + l.. + ",
"# . l.+ + m.m.1.1.m.m.+ + l.. . .@U +@@@P.#@l+m+]+9+9+9+9+9+9+9+9+9+9+9+9+9+9+9+9+9+9+3+$@%@S . # . l.+ + m.m.1.1.m.m.+ + l.. . ",
"&@. l.+ + m.m.1.1.m.m.+ + l.. + *@U +@Y+=@#@7+8+^+9+9+9+9+9+9+9+9+9+9+9+9+9+9+9+9+9+-@;@>@I ,@+ &@. l.+ + m.m.1.1.m.m.+ + l.. + ",
"# . l.+ + m.m.1.1.m.m.+ + l.. . *@U +@Y+'@)@U.]+9+9+!@~@~@~@~@~@~@~@~@{@9+9+9+9+9+9+-@]@^@/@p+. # . l.+ + m.m.1.1.m.m.+ + l.. . ",
"&@. l.+ + m.m.1.1.m.m.+ + l.. + *@U +@(@_@L+~+^+9+9+:@~@~@~@~@~@~@~@~@{@9+9+9+9+9+9+-@<@[@}@|@+ &@. l.+ + m.m.1.1.m.m.+ + l.. + ",
"# . l.+ + m.m.1.1.m.m.+ + l.. . *@U +@1@2@T.S+9+9+9+3@~@~@~@~@~@~@~@~@{@9+9+9+9+9+9+-@2+4@5@|@. # . l.+ + m.m.1.1.m.m.+ + l.. . ",
"&@. l.+ + m.m.1.1.m.m.+ + l.. + *@U 6@7@8@m+y+9+9+9@~@~@~@0@a@a@a@a@a@b@9+9+9+9+9+9+c@d@e@f@] + &@. l.+ + m.m.1.1.m.m.+ + l.. + ",
"&@. l.+ + m.m.1.1.m.m.+ + l.. + *@U g@h@i@m+]+9+9+j@~@~@~@k@9+9+9+9+9+9+9+9+9+9+9+9+l@m@n@o@{ + &@. l.+ + m.m.1.1.m.m.+ + l.. + ",
"&@. l.+ + m.m.1.1.m.m.+ + l.. + *@U p@q@6+m+]+9+9+r@~@~@~@s@9+9+9+9+9+9+9+9+9+9+9+9+l@m@t@u@{ + &@. l.+ + m.m.1.1.m.m.+ + l.. + ",
"&@. l.+ + m.m.1.1.m.m.+ + l.. @ v@U p@w@i@m+]+9+9+x@~@~@~@y@z@A@B@C@x@9+9+9+9+9+9+9+l@D@t@u@{ @ &@. l.+ + m.m.1.1.m.m.+ + l.. @ ",
"&@. l.+ + m.m.1.1.m.m.+ + l.. + E@J g@F@i@~+y+9+9+G@~@~@~@~@~@~@~@~@~@H@9+9+9+9+9+9+l@D@t@u@{ + &@. l.+ + m.m.1.1.m.m.+ + l.. + ",
"&@. l.+ + m.m.1.1.m.m.+ + l.. @ I@L p@J@6+m+]+9+9+K@L@~@~@~@~@~@~@~@~@~@G@9+9+9+9+9+l@D@t@u@{ @ &@. l.+ + m.m.1.1.m.m.+ + l.. @ ",
"&@. l.+ + m.m.1.1.m.m.+ + l.. + M@N@O@P@S.m+]+9+9+9+Q@R@S@T@j@U@V@~@~@~@W@9+9+9+9+9+l@m@t@u@{ + &@. l.+ + m.m.1.1.m.m.+ + l.. + ",
"&@. l.+ + m.m.1.1.m.m.+ + l.. @ X@Y@O@P@S.{+y+9+9+9+9+9+9+9+9+9+Z@z@~@~@~@`@9+9+9+9+l@m@t@ #{ @ &@. l.+ + m.m.1.1.m.m.+ + l.. @ ",
"&@. l.+ + m.m.1.1.m.m.+ + l.. @ .#N@O@P@i@]+9+9+9+9+9+9+9+9+9+9+9++#~@~@~@@#9+9+9+9+0+##$#%#{ @ &@. l.+ + m.m.1.1.m.m.+ + l.. @ ",
"&@. l.+ + m.m.1.1.m.m.+ + l.. @ &#{ O@P@i@y+9+9+9+9+9+9+9+9+9+9+9+*#~@~@~@=#9+9+9+9+0+-#;#>#L @ &@. l.+ + m.m.1.1.m.m.+ + l.. @ ",
"&@. l.+ + m.m.1.1.m.m.+ + l.. @ ,#{ '#P@6+]+9+9+9+)#9+9+9+9+9+9+!#3@~@~@~#9+9+9+9+9+y+{#]#^#Y@@ &@. l.+ + m.m.1.1.m.m.+ + l.. @ ",
"&@. l.+ + m.m.1.1.m.m.+ + l.. @ ,#{ O@P@i@]+9+9+9+/#(#_#:#<#[#}#V@~@~@~@|#9+9+9+9+9+y+{#1#^#2#@ &@. l.+ + m.m.1.1.m.m.+ + l.. @ ",
"&@. l.+ + m.m.1.1.m.m.+ + l.. @ ,#{ 3#4#T.^+9+9+9+5#~@~@~@~@~@~@~@~@~@~#Z@9+9+9+9+9+0+6#7#2 r @ &@. l.+ + m.m.1.1.m.m.+ + l.. @ ",
"&@. l.+ + m.m.1.1.m.m.+ + l.. @ ,#{ 8#9#0#9+9+9+9+5#~@~@~@~@~@~@~@~@:@r@9+9+9+9+9+9+y+a#b#Q J @ &@. l.+ + m.m.1.1.m.m.+ + l.. @ ",
"&@. l.+ + m.m.1.1.m.m.+ + l.. @ ,#{ c#d#i@9+9+9+9+r@e#/#:@f#g#~#h#i#j#9+9+9+9+9+9+9+y+{#]#^#I @ &@. l.+ + m.m.1.1.m.m.+ + l.. @ ",
"&@. l.+ + m.m.1.1.m.m.+ + l.. @ ,#{ k#9#0#9+9+9+9+9+9+9+9+9+9+9+9+9+9+9+9+9+9+9+9+9+0+l#m#n#J @ &@. l.+ + m.m.1.1.m.m.+ + l.. @ ",
"&@. l.+ + m.m.1.1.m.m.+ + l.. @ ,#{ k#9#i@9+9+9+9+9+9+9+9+9+9+9+9+9+9+9+9+9+9+9+9+9+0+l#o#p#J @ &@. l.+ + m.m.1.1.m.m.+ + l.. @ ",
". . l.+ + m.m.1.1.m.m.+ + l.. @ ,#{ q#r#s#9+9+9+9+9+9+9+9+9+9+9+9+9+9+9+9+9+9+9+9+9+y+t#u#v#4 @ . . l.+ + m.m.1.1.m.m.+ + l.. @ ",
"&@. l.+ + m.m.1.1.m.m.+ + l.. @ ,#{ w#x#y#9+9+9+9+9+9+9+9+9+9+9+9+9+9+9+9+9+9+9+9+9+y+z#A#B#C#@ &@. l.+ + m.m.1.1.m.m.+ + l.. @ ",
". . l.+ + m.m.1.1.m.m.+ + l.. @ ,#{ D#E#y#9+9+9+9+9+9+9+9+9+9+9+9+9+9+9+9+9+9+9+9+9+y+F#A#B#C#@ . . l.+ + m.m.1.1.m.m.+ + l.. @ ",
"&@. l.+ + m.m.1.1.m.m.+ + l.. @ ,#{ D#E#y#9+9+9+9+9+9+9+9+9+9+9+9+9+9+9+9+9+9+9+9+9+y+F#A#B#C#@ &@. l.+ + m.m.1.1.m.m.+ + l.. @ ",
". . l.+ + m.m.1.1.m.m.+ + l.. @ ,#{ D#E#y#9+9+9+9+9+9+9+9+9+9+9+9+9+9+9+9+9+9+9+9+9+G#H#u I#C#@ . . l.+ + m.m.1.1.m.m.+ + l.. @ ",
"&@. l.+ + m.m.1.1.m.m.+ + l.. @ ,#{ J#p.K#-@(+(+L#L#M#M#M#M#M#M#M#N#N#N#N#N#O#P#Q#R#S#T#U#V#C#@ &@. l.+ + m.m.1.1.m.m.+ + l.. @ ",
". . l.+ + m.m.1.1.m.m.+ + l.. @ ,#{ +.W#X#i@0#W.Y#Z#`# $ $ $ $ $.$+$@$#$#$#$$$%$&$*$=$-$1#;$J @ . . l.+ + m.m.1.1.m.m.+ + l.. @ ",
". . l.+ + m.m.1.1.m.m.+ + l.. @ ,#{ k.>$,$'$'$'$)$!$~${$]$]$]$~$^$/$($_$:$:$<$M+[$}$|$1$2$3$4$@ . . l.+ + m.m.1.1.m.m.+ + l.. @ ",
". . # + + m.m.1.1.m.m.+ + l.. @ ,#K . q#5$6$T+7$8$9$[@0$0$0$0$a$b$c$d$e$f$g$h$i$j$k$l$m$n$B o$@ . . # + + m.m.1.1.m.m.+ + l.. @ ",
". . l.+ + m.m.-.-.m.m.+ + l.. @ p$H q$. r$p+B+B+J /@s$s$s$s$s$t$u$v$w$e x$x$y$z$A$B$C$D$E$p J @ . . l.+ + m.m.-.-.m.m.+ + l.. @ ",
". . # + + F$m.m.m.m.F$+ + l.. @ o q o G$T o${ { %@r J J J J J ,.H G H$o I$I$&#J$I#K$L$M$A &#q$@ . . # + + F$m.m.m.m.F$+ + l.. @ ",
". . # + + + F$m.m.F$+ + + l.. @ F N$O$g . . . . . S S S S S S S h h g G$U+G${ P$Q$4 Q$R$S$W+E @ . . # + + + F$m.m.F$+ + + l.. @ ",
". . . # + + + + + + + + l.. . @ R T$S :+:+:+:+:+k.k.k.k.k.T$U$U$U$U$U$U$V$V$U$U$T$T$T$Y W$Z X$@ . . . # + + + + + + + + l.. . @ ",
". . . . # + + + + + + l.. . . @ Y$Z$`$<.<.<.<.<.<. %g@g@.%+@+%@%#%#%#%#%#%#%#%#%#%#%#%$%%%&%*%@ . . . . # + + + + + + l.. . . @ ",
". . . . . # l.# l.l.l.. . . . @ =%-%;%>%>%>%>%>%>%3.,%'%'%)%!%~%{%{%{%{%{%{%{%{%{%{%{%]%^%/%(%@ . . . . . # l.# l.l.l.. . . . @ ",
". + . . . . . . + . . . . . . @ . + . . . . . . + . . . . . . @ . + . . . . . . + . . . . . . @ . + . . . . . . + . . . . . . @ ",
"+ . . . . . . . . . . . . . . @ + . . . . . . . . . . . . . . @ + . . . . . . . . . . . . . . @ + . . . . . . . . . . . . . . @ ",
". . _%:%l.. . . . . . l.:%. _%@ . . _%:%l.. . . . . . l.:%. _%@ . . _%:%l.. . . . . . l.:%. _%@ . . _%:%l.. . . . . . l.:%. _%@ ",
"+ . @ :%:%. . + . . @ :%:%. . @ + . @ :%:%. . + . . @ :%:%. . @ + . @ :%:%. . + . . @ :%:%. . @ + . @ :%:%. . + . . @ :%:%. . @ ",
". . @ @ _%. . . . . @ @ . . _%@ . . @ @ _%. . . . . @ @ . . _%@ . . @ @ _%. . . . . @ @ . . _%@ . . @ @ _%. . . . . @ @ . . _%@ ",
". . . _%_%. . . . . . . . _%. @ . . . _%_%. . . . . . . . _%. @ . . . _%_%. . . . . . . . _%. @ . . . _%_%. . . . . . . . _%. @ ",
"9+@ 9+9+9+9+@ 9+@ @ @ @ @ @ @ @ 9+@ 9+9+9+9+@ 9+@ @ @ @ @ @ @ @ 9+@ 9+9+9+9+@ 9+@ @ @ @ @ @ @ @ 9+@ 9+9+9+9+@ 9+@ @ @ @ @ @ @ @ "};
