/* XPM */
static char * scoreneuf_xpm[] = {
"64 64 586 2",
"  	c #000000",
". 	c #464D4F",
"+ 	c #383F40",
"@ 	c #382B2F",
"# 	c #62797E",
"$ 	c #535E61",
"% 	c #6A7A7C",
"& 	c #7E9193",
"* 	c #829496",
"= 	c #819496",
"- 	c #7B8E90",
"; 	c #738789",
"> 	c #6D8285",
", 	c #64797E",
"' 	c #5E757A",
") 	c #5F757A",
"! 	c #5B6F74",
"~ 	c #515F62",
"{ 	c #485052",
"] 	c #475052",
"^ 	c #4D5A5C",
"/ 	c #586A6D",
"( 	c #5D7477",
"_ 	c #5E7378",
": 	c #5B6E73",
"< 	c #596B6F",
"[ 	c #56666A",
"} 	c #536164",
"| 	c #536063",
"1 	c #535F62",
"2 	c #535F61",
"3 	c #505C5F",
"4 	c #4B5456",
"5 	c #5A686A",
"6 	c #718183",
"7 	c #728284",
"8 	c #6C7C7E",
"9 	c #667779",
"0 	c #627376",
"a 	c #5B6C70",
"b 	c #58696D",
"c 	c #586A6E",
"d 	c #57696D",
"e 	c #546569",
"f 	c #4D595C",
"g 	c #474F51",
"h 	c #474E50",
"i 	c #4B5557",
"j 	c #526164",
"k 	c #57686C",
"l 	c #556568",
"m 	c #526265",
"n 	c #505F62",
"o 	c #4E5B5E",
"p 	c #4E5A5C",
"q 	c #4D595B",
"r 	c #495254",
"s 	c #657577",
"t 	c #69797B",
"u 	c #5E6B6D",
"v 	c #596465",
"w 	c #586365",
"x 	c #566062",
"y 	c #535D5F",
"z 	c #515C5E",
"A 	c #4E595C",
"B 	c #4D585A",
"C 	c #4C5658",
"D 	c #485154",
"E 	c #464D50",
"F 	c #4B5457",
"G 	c #4C575A",
"H 	c #4B5658",
"I 	c #4A5456",
"J 	c #495355",
"K 	c #485254",
"L 	c #495154",
"M 	c #0095F6",
"N 	c #00C5F4",
"O 	c #6F8082",
"P 	c #647376",
"Q 	c #546163",
"R 	c #464C4E",
"S 	c #464E50",
"T 	c #464E4F",
"U 	c #4A5457",
"V 	c #758688",
"W 	c #5C696C",
"X 	c #505C60",
"Y 	c #434749",
"Z 	c #434648",
"` 	c #434547",
" .	c #43474A",
"..	c #43484A",
"+.	c #43494B",
"@.	c #434A4C",
"#.	c #434B4C",
"$.	c #444C4D",
"%.	c #454C4E",
"&.	c #474E51",
"*.	c #4E5A5E",
"=.	c #4B5559",
"-.	c #C6F6FF",
";.	c #768689",
">.	c #555F62",
",.	c #495356",
"'.	c #404748",
").	c #3B3C3E",
"!.	c #3B383A",
"~.	c #3B393B",
"{.	c #3B3B3D",
"].	c #3B3D3F",
"^.	c #3B3C3F",
"/.	c #3B3F41",
"(.	c #3B4143",
"_.	c #3B4244",
":.	c #3D4445",
"<.	c #3E4547",
"[.	c #3F4647",
"}.	c #414849",
"|.	c #42494B",
"1.	c #F5F9ED",
"2.	c #535C5E",
"3.	c #393E3F",
"4.	c #313031",
"5.	c #30292C",
"6.	c #2F272A",
"7.	c #2F292B",
"8.	c #2F2C2E",
"9.	c #2E2E30",
"0.	c #2E2F30",
"a.	c #2E3133",
"b.	c #2E3435",
"c.	c #2F3536",
"d.	c #313737",
"e.	c #33393A",
"f.	c #34393A",
"g.	c #363B3C",
"h.	c #383D3E",
"i.	c #3B4041",
"j.	c #3F4244",
"k.	c #444A4C",
"l.	c #5594B7",
"m.	c #09E4FC",
"n.	c #768789",
"o.	c #535E5F",
"p.	c #333738",
"q.	c #2B2F31",
"r.	c #282A2C",
"s.	c #232122",
"t.	c #221E20",
"u.	c #221E1F",
"v.	c #212021",
"w.	c #202021",
"x.	c #202020",
"y.	c #202121",
"z.	c #202323",
"A.	c #212424",
"B.	c #232626",
"C.	c #252828",
"D.	c #252929",
"E.	c #26292A",
"F.	c #2C3030",
"G.	c #3B3E40",
"H.	c #545E60",
"I.	c #404546",
"J.	c #333839",
"K.	c #333D40",
"L.	c #303A3C",
"M.	c #212527",
"N.	c #1E2121",
"O.	c #1D1F20",
"P.	c #1C1D1E",
"Q.	c #1B1D1E",
"R.	c #191B1B",
"S.	c #181A1A",
"T.	c #171919",
"U.	c #171718",
"V.	c #171717",
"W.	c #171818",
"X.	c #171817",
"Y.	c #161716",
"Z.	c #151715",
"`.	c #151716",
" +	c #161816",
".+	c #181818",
"++	c #222323",
"@+	c #383D3F",
"#+	c #404345",
"$+	c #35383B",
"%+	c #394548",
"&+	c #364245",
"*+	c #242A2C",
"=+	c #202425",
"-+	c #1F2324",
";+	c #1E2223",
">+	c #1D2021",
",+	c #1C1F20",
"'+	c #191B1D",
")+	c #18191B",
"!+	c #161718",
"~+	c #161617",
"{+	c #161616",
"]+	c #151515",
"^+	c #141414",
"/+	c #131313",
"(+	c #131312",
"_+	c #1E1F1F",
":+	c #444B4D",
"<+	c #748587",
"[+	c #3F4345",
"}+	c #333436",
"|+	c #303B3E",
"1+	c #212729",
"2+	c #1D2123",
"3+	c #1C2021",
"4+	c #1B1F20",
"5+	c #1A1D1F",
"6+	c #18191A",
"7+	c #171819",
"8+	c #151616",
"9+	c #141413",
"0+	c #141514",
"a+	c #1D2121",
"b+	c #3A4345",
"c+	c #454E50",
"d+	c #6D7E81",
"e+	c #515B5D",
"f+	c #2F2D2F",
"g+	c #272E30",
"h+	c #262C2F",
"i+	c #1D2022",
"j+	c #1A1C1E",
"k+	c #181A1C",
"l+	c #17191A",
"m+	c #161717",
"n+	c #1E2222",
"o+	c #3D4748",
"p+	c #465052",
"q+	c #67787B",
"r+	c #4F595B",
"s+	c #3F4143",
"t+	c #2D2A2C",
"u+	c #212426",
"v+	c #1F2325",
"w+	c #181A1B",
"x+	c #161818",
"y+	c #151514",
"z+	c #1E2221",
"A+	c #3D4749",
"B+	c #475153",
"C+	c #697B7E",
"D+	c #505A5C",
"E+	c #3F4144",
"F+	c #2C282B",
"G+	c #1E2122",
"H+	c #1C2020",
"I+	c #3C4748",
"J+	c #465053",
"K+	c #6C7D80",
"L+	c #191B1C",
"M+	c #3C4648",
"N+	c #66777A",
"O+	c #4E585B",
"P+	c #1E2021",
"Q+	c #1C1F21",
"R+	c #191A1B",
"S+	c #151615",
"T+	c #3D4648",
"U+	c #475053",
"V+	c #5D6F73",
"W+	c #4B5558",
"X+	c #3F4042",
"Y+	c #2C282A",
"Z+	c #1D1E20",
"`+	c #1B1D1F",
" @	c #151516",
".@	c #5A6C71",
"+@	c #3E3F42",
"@@	c #2C2729",
"#@	c #1A1C1D",
"$@	c #3D494B",
"%@	c #485153",
"&@	c #536265",
"*@	c #596C70",
"=@	c #1C1E1E",
"-@	c #6F6F6F",
";@	c #CCCCCC",
">@	c #EFEFEF",
",@	c #FBFBFB",
"'@	c #F7F7F7",
")@	c #E5E5E5",
"!@	c #B2B2B2",
"~@	c #444444",
"{@	c #131413",
"]@	c #1D2223",
"^@	c #414D50",
"/@	c #464F51",
"(@	c #1D1F1F",
"_@	c #1A1D1E",
":@	c #A2A2A2",
"<@	c #FCFCFC",
"[@	c #FFFFFF",
"}@	c #EEEEEE",
"|@	c #747474",
"1@	c #1D2324",
"2@	c #424F53",
"3@	c #4A5558",
"4@	c #2C272A",
"5@	c #1C1D1D",
"6@	c #7E7E7E",
"7@	c #FDFDFD",
"8@	c #F1F1F1",
"9@	c #464646",
"0@	c #1C2122",
"a@	c #404C4F",
"b@	c #485356",
"c@	c #464F52",
"d@	c #2B2729",
"e@	c #1A1A1B",
"f@	c #DBDBDB",
"g@	c #C2C2C2",
"h@	c #5D5D5C",
"i@	c #616161",
"j@	c #D2D2D2",
"k@	c #C5C5C5",
"l@	c #404C50",
"m@	c #495457",
"n@	c #3E4042",
"o@	c #2B2829",
"p@	c #19191A",
"q@	c #373737",
"r@	c #E4E4E4",
"s@	c #ECECEC",
"t@	c #F4F4F4",
"u@	c #131414",
"v@	c #1E2325",
"w@	c #435054",
"x@	c #4B5659",
"y@	c #3E4143",
"z@	c #2B2B2C",
"A@	c #181919",
"B@	c #6C6C6C",
"C@	c #C2C2C1",
"D@	c #B9B9B9",
"E@	c #7B7B7B",
"F@	c #131514",
"G@	c #1E2526",
"H@	c #455458",
"I@	c #4B585B",
"J@	c #3E4244",
"K@	c #2B2C2D",
"L@	c #777777",
"M@	c #BCBCBC",
"N@	c #A6A6A6",
"O@	c #959595",
"P@	c #455558",
"Q@	c #4B595C",
"R@	c #586B6F",
"S@	c #2B2A2C",
"T@	c #5E5E5E",
"U@	c #A7A7A7",
"V@	c #1F2526",
"W@	c #56686B",
"X@	c #2B2A2B",
"Y@	c #F3F3F3",
"Z@	c #545454",
"`@	c #C3C3C3",
" #	c #9F9F9F",
".#	c #536266",
"+#	c #2B2D2E",
"@#	c #8D8D8D",
"##	c #536467",
"$#	c #495255",
"%#	c #3E4446",
"&#	c #2B2F30",
"*#	c #343434",
"=#	c #E3E3E3",
"-#	c #B6B6B6",
";#	c #767676",
">#	c #56676A",
",#	c #4A5356",
"'#	c #B8B8B8",
")#	c #E1E1E1",
"!#	c #8C8C8C",
"~#	c #313130",
"{#	c #4C595C",
"]#	c #546367",
"^#	c #D9D9D9",
"/#	c #DFDFDF",
"(#	c #1F2627",
"_#	c #475659",
":#	c #4D5A5D",
"<#	c #505D60",
"[#	c #A5A5A5",
"}#	c #222829",
"|#	c #4D5C5F",
"1#	c #505E61",
"2#	c #4E5C5F",
"3#	c #3D4446",
"4#	c #585857",
"5#	c #8E8E8E",
"6#	c #EAEAEA",
"7#	c #252C2C",
"8#	c #546365",
"9#	c #556264",
"0#	c #FAFAFA",
"a#	c #556365",
"b#	c #4A5355",
"c#	c #3E4546",
"d#	c #2C3132",
"e#	c #E6E6E6",
"f#	c #6A6A6A",
"g#	c #23292A",
"h#	c #505F61",
"i#	c #3F4648",
"j#	c #2E3334",
"k#	c #181918",
"l#	c #F2F2F2",
"m#	c #FEFEFE",
"n#	c #CECECE",
"o#	c #939393",
"p#	c #252B2B",
"q#	c #526163",
"r#	c #404749",
"s#	c #2F3335",
"t#	c #404648",
"u#	c #242A2B",
"v#	c #516062",
"w#	c #536062",
"x#	c #526063",
"y#	c #546062",
"z#	c #414749",
"A#	c #303536",
"B#	c #181A19",
"C#	c #272E2E",
"D#	c #596769",
"E#	c #596567",
"F#	c #41484A",
"G#	c #323638",
"H#	c #191A1A",
"I#	c #293030",
"J#	c #5D6B6D",
"K#	c #5B686A",
"L#	c #4C5456",
"M#	c #42484A",
"N#	c #323738",
"O#	c #2A2F30",
"P#	c #121312",
"Q#	c #292F2F",
"R#	c #5C686A",
"S#	c #42494A",
"T#	c #1A1B1A",
"U#	c #121211",
"V#	c #121110",
"W#	c #111110",
"X#	c #11110F",
"Y#	c #10100F",
"Z#	c #11100E",
"`#	c #100F0E",
" $	c #0F0F0E",
".$	c #272D2D",
"+$	c #5B696B",
"@$	c #5A6669",
"#$	c #353A3A",
"$$	c #1F2120",
"%$	c #151717",
"&$	c #141616",
"*$	c #131515",
"=$	c #121414",
"-$	c #121515",
";$	c #131616",
">$	c #131717",
",$	c #141818",
"'$	c #151919",
")$	c #171B1B",
"!$	c #1A1D1D",
"~$	c #1B1D1D",
"{$	c #1A1E1E",
"]$	c #2B3233",
"^$	c #556164",
"/$	c #3A3F40",
"($	c #2D3132",
"_$	c #292E2F",
":$	c #282F2F",
"<$	c #293031",
"[$	c #283032",
"}$	c #283031",
"|$	c #282F31",
"1$	c #2A3336",
"2$	c #2B3638",
"3$	c #2D383A",
"4$	c #2F3B3E",
"5$	c #2F3C3F",
"6$	c #333E41",
"7$	c #424C4E",
"8$	c #444E4F",
"9$	c #434E4F",
"0$	c #434F50",
"a$	c #516163",
"b$	c #4F5B5E",
"c$	c #495052",
"d$	c #3C4345",
"e$	c #3D4547",
"f$	c #3E4648",
"g$	c #3F484A",
"h$	c #404B4E",
"i$	c #404C4E",
"j$	c #414D4F",
"k$	c #435155",
"l$	c #465458",
"m$	c #48585B",
"n$	c #4A5B60",
"o$	c #4B5D61",
"p$	c #4B5C61",
"q$	c #506165",
"r$	c #5C6D6E",
"s$	c #657576",
"t$	c #687779",
"u$	c #677678",
"v$	c #5E6E70",
"w$	c #556466",
"x$	c #484F51",
"y$	c #4F5C5F",
"z$	c #4A5557",
"A$	c #454D4F",
"B$	c #4B575A",
"C$	c #4B585A",
"D$	c #4D5C5E",
"E$	c #4F5F62",
"F$	c #516165",
"G$	c #54666B",
"H$	c #596A6E",
"I$	c #647577",
"J$	c #6D7D7F",
"K$	c #707F81",
"L$	c #6E7E80",
"M$	c #647476",
"N$	c #556265",
"O$	c #009DEB",
"P$	c #474F52",
"Q$	c #4D585B",
"R$	c #4E5B5F",
"S$	c #576365",
"T$	c #5D6A6C",
"U$	c #5D696B",
"V$	c #566265",
"W$	c #4A5255",
"X$	c #4C585B",
"Y$	c #4A5254",
"Z$	c #4B5355",
"`$	c #495153",
" %	c #474D4F",
".%	c #44494B",
"+%	c #44484A",
"@%	c #44484B",
"#%	c #414144",
"$%	c #404042",
"%%	c #454B4D",
"&%	c #414648",
"*%	c #3F4547",
"=%	c #3E4345",
"-%	c #3E4043",
";%	c #3E3D3F",
">%	c #3E3C3E",
",%	c #3E3B3E",
"'%	c #3E3A3D",
")%	c #3C3639",
"!%	c #3C383B",
"~%	c #3A393C",
"{%	c #464C4D",
"]%	c #414748",
"^%	c #3B4243",
"/%	c #394042",
"(%	c #393A3C",
"_%	c #39393C",
":%	c #39363A",
"<%	c #393235",
"[%	c #393034",
"}%	c #393033",
"|%	c #392F33",
"1%	c #382E32",
"2%	c #383235",
"3%	c #38393B",
"4%	c #4B3F38",
"5%	c #2F5075",
"                                                                                                                                ",
". . . . . . + . + . + . + + + @ . . . . . . + . + . + . + + + @ . . . . . . + . + . + . + + + @ . . . . . . + . + . + . + + + @ ",
". + + + + + + + + + + + + + + @ . + + + + + + + + + + + + + + @ . + + + + + + + + + + + + + + @ . + + + + + + + + + + + + + + @ ",
". + # + + # # # # . + + + # + @ $ % & * = - ; > , ' ' ' ) ! ~ { ] ^ / ( ' _ : < [ } | 1 2 3 4 @ . + # + + # # # # . + + + # + @ ",
". @ + + # @ @ @ @ @ @ + @ + + @ 5 % 6 7 6 8 9 0 a b c c d e f g h i j k c k l m n o p p p q r @ . @ + + # @ @ @ @ @ @ + @ + + @ ",
". + + # @ @ @ @ @ @ @ @ . + + @ s t u v w x y z A B B B B C D E . { F G B G H i I J K K J i L @ . + + # @ @ @ @ @ @ @ @ . + + @ ",
". + # @ @ @ M N N M @ @ @ . + @ O P Q r g h h h . R . . E . . . . . . S S S S T . . . . { f U @ . + # @ @ @ M N N M @ @ @ . + @ ",
". + # @ @ M N N N N M @ @ # + @ V W X . Y Z Z Z Z ` Z Y  . .....+.@.@.@.@.#.$.$.%.. . . &.*.=.@ . + # @ @ M N N N N M @ @ # + @ ",
". + # @ @ N N -.-.N N @ @ # + @ ;.>.,.'.).!.!.!.!.!.~.{.].^.]./.(._._._.:.<.[.[.}.|.+.+. .L D @ . + # @ @ N N -.-.N N @ @ # + @ ",
". + # @ @ N N 1.1.N N @ @ # + @ V 2.@.3.4.5.6.6.6.6.7.8.9.9.0.a.b.b.b.c.d.e.f.f.g.h.3.i.j.k.. @ . + # @ @ N N 1.1.N N @ @ # + @ ",
"# . l.+ + m.m.1.1.m.m.+ + l.. + n.o.'.p.q.r.s.t.t.t.u.v.w.w.x.y.z.z.z.z.A.B.B.B.C.D.E.F.G.+.. + # . l.+ + m.m.1.1.m.m.+ + l.. + ",
". + # @ @ N N 1.1.N N @ @ # + @ n.H.I.J.K.L.M.N.N.O.P.Q.R.S.T.U.V.W.X.Y.Z.`.`.`. + +.+++@+@.. @ . + # @ @ N N 1.1.N N @ @ # + @ ",
"# . l.+ + m.m.1.1.m.m.+ + l.. + n.H.#+$+%+&+*+=+-+;+>+,+'+)+T.!+~+{+]+^+/+(+(+(+(+(+^+_++ :+. + # . l.+ + m.m.1.1.m.m.+ + l.. + ",
"# . l.+ + m.m.1.1.m.m.+ + l.. @ <+H.[+}+K.|+1+2+2+3+4+5+'+6+7+!+8+]+^+9+9+9+9+9+9+9+0+a+b+c+. @ # . l.+ + m.m.1.1.m.m.+ + l.. @ ",
"# . l.+ + m.m.1.1.m.m.+ + l.. + d+e+j.f+g+h+i+j+j+j+'+k+l+W.m+{+]+9+9+9+9+9+9+9+9+9+0+n+o+p+. + # . l.+ + m.m.1.1.m.m.+ + l.. + ",
"# . l.+ + m.m.1.1.m.m.+ + l.. @ q+r+s+t+u+v+j+'+'+w+l+7+x+~+]+y+^+9+9+9+9+9+9+9+9+9+9+z+A+B+S @ # . l.+ + m.m.1.1.m.m.+ + l.. @ ",
"# . l.+ + m.m.1.1.m.m.+ + l.. + C+D+E+F+G+3+'+k+w+6+W.m+8+]+^+9+9+9+9+9+9+9+9+9+9+9+9+H+I+J+E + # . l.+ + m.m.1.1.m.m.+ + l.. + ",
"# . l.+ + m.m.1.1.m.m.+ + l.. + K+e+E+F+N.3+L+6+7+!+m+]+^+^+9+9+9+9+9+9+9+9+9+9+9+9+9+H+M+J+E + # . l.+ + m.m.1.1.m.m.+ + l.. + ",
"# . l.+ + m.m.1.1.m.m.+ + l.. + N+O+s+F+P+Q+R+7+m+8+S+0+9+9+9+9+9+9+9+9+9+9+9+9+9+9+9+>+T+U+E + # . l.+ + m.m.1.1.m.m.+ + l.. + ",
"# . l.+ + m.m.1.1.m.m.+ + l.. + V+W+X+Y+Z+`+)+U. @^+9+9+9+9+9+9+9+9+9+9+9+9+9+9+9+9+9+>+A+] E + # . l.+ + m.m.1.1.m.m.+ + l.. + ",
"# . l.+ + m.m.1.1.m.m.+ + l.. . .@U +@@@P.#@l+m+]+9+9+9+9+9+9+9+9+9+9+9+9+9+9+9+9+9+9+3+$@%@S . # . l.+ + m.m.1.1.m.m.+ + l.. . ",
"&@. l.+ + m.m.1.1.m.m.+ + l.. + *@U +@Y+=@#@7+8+^+9+9+-@;@>@,@'@)@!@~@9+9+9+9+9+9+9+{@]@^@I /@+ &@. l.+ + m.m.1.1.m.m.+ + l.. + ",
"# . l.+ + m.m.1.1.m.m.+ + l.. . *@U +@Y+(@_@U.]+9+9+:@<@[@[@[@[@[@[@}@|@9+9+9+9+9+9+{@1@2@3@p+. # . l.+ + m.m.1.1.m.m.+ + l.. . ",
"&@. l.+ + m.m.1.1.m.m.+ + l.. + *@U +@4@5@L+~+^+9+6@7@[@[@[@[@[@[@[@[@8@9@9+9+9+9+9+{@0@a@b@c@+ &@. l.+ + m.m.1.1.m.m.+ + l.. + ",
"# . l.+ + m.m.1.1.m.m.+ + l.. . *@U +@d@e@T.S+9+9+f@[@[@[@g@h@i@j@[@[@[@k@9+9+9+9+9+{@2+l@m@c@. # . l.+ + m.m.1.1.m.m.+ + l.. . ",
"&@. l.+ + m.m.1.1.m.m.+ + l.. + *@U n@o@p@m+y+9+q@<@[@[@r@9+9+9+x.s@[@[@t@x.9+9+9+9+u@v@w@x@] + &@. l.+ + m.m.1.1.m.m.+ + l.. + ",
"&@. l.+ + m.m.1.1.m.m.+ + l.. + *@U y@z@A@m+]+9+B@[@[@[@C@9+9+9+9+D@[@[@[@E@9+9+9+9+F@G@H@I@{ + &@. l.+ + m.m.1.1.m.m.+ + l.. + ",
"&@. l.+ + m.m.1.1.m.m.+ + l.. + *@U J@K@6+m+]+9+L@[@[@[@M@9+9+9+9+N@[@[@[@O@9+9+9+9+F@G@P@Q@{ + &@. l.+ + m.m.1.1.m.m.+ + l.. + ",
"&@. l.+ + m.m.1.1.m.m.+ + l.. @ R@U J@S@A@m+]+9+T@[@[@[@f@9+9+9+9+j@[@[@[@U@9+9+9+9+F@V@P@Q@{ @ &@. l.+ + m.m.1.1.m.m.+ + l.. @ ",
"&@. l.+ + m.m.1.1.m.m.+ + l.. + W@J y@X@A@~+y+9+9+Y@[@[@[@!@Z@T@`@[@[@[@[@ #9+9+9+9+F@V@P@Q@{ + &@. l.+ + m.m.1.1.m.m.+ + l.. + ",
"&@. l.+ + m.m.1.1.m.m.+ + l.. @ .#L J@+#6+m+]+9+9+M@[@[@[@[@[@[@[@<@[@[@[@@#9+9+9+9+F@V@P@Q@{ @ &@. l.+ + m.m.1.1.m.m.+ + l.. @ ",
"&@. l.+ + m.m.1.1.m.m.+ + l.. + ##$#%#&#S.m+]+9+9+*#=#[@[@[@[@[@7@-#[@[@[@;#9+9+9+9+F@G@P@Q@{ + &@. l.+ + m.m.1.1.m.m.+ + l.. + ",
"&@. l.+ + m.m.1.1.m.m.+ + l.. @ >#,#%#&#S.{+y+9+9+9+q@'#s@<@'@)#!# #[@[@<@~#9+9+9+9+F@G@P@{#{ @ &@. l.+ + m.m.1.1.m.m.+ + l.. @ ",
"&@. l.+ + m.m.1.1.m.m.+ + l.. @ ]#$#%#&#A@]+9+9+9+9+9+9+9+9+9+9+9+^#[@[@/#9+9+9+9+9+0+(#_#:#{ @ &@. l.+ + m.m.1.1.m.m.+ + l.. @ ",
"&@. l.+ + m.m.1.1.m.m.+ + l.. @ <#{ %#&#A@y+9+9+9+9+9+9+9+9+9+9+[#[@[@[@:@9+9+9+9+9+0+}#|#1#L @ &@. l.+ + m.m.1.1.m.m.+ + l.. @ ",
"&@. l.+ + m.m.1.1.m.m.+ + l.. @ 2#{ 3#&#6+]+9+9+9+9+-@~@~#4#5#j@[@[@[@6#x.9+9+9+9+9+y+7#8#9#,#@ &@. l.+ + m.m.1.1.m.m.+ + l.. @ ",
"&@. l.+ + m.m.1.1.m.m.+ + l.. @ 2#{ %#&#A@]+9+9+9+9+0#[@[@[@[@[@[@[@'@B@9+9+9+9+9+9+y+7#a#9#b#@ &@. l.+ + m.m.1.1.m.m.+ + l.. @ ",
"&@. l.+ + m.m.1.1.m.m.+ + l.. @ 2#{ c#d#T.^+9+9+9+9+0#[@[@[@[@[@[@e#f#9+9+9+9+9+9+9+0+g#h#2 r @ &@. l.+ + m.m.1.1.m.m.+ + l.. @ ",
"&@. l.+ + m.m.1.1.m.m.+ + l.. @ 2#{ i#j#k#9+9+9+9+9+l#[@m#'@s@n#o#9+9+9+9+9+9+9+9+9+y+p#q#Q J @ &@. l.+ + m.m.1.1.m.m.+ + l.. @ ",
"&@. l.+ + m.m.1.1.m.m.+ + l.. @ 2#{ r#s#A@9+9+9+9+9+9+9+9+9+9+9+9+9+9+9+9+9+9+9+9+9+y+7#8#9#I @ &@. l.+ + m.m.1.1.m.m.+ + l.. @ ",
"&@. l.+ + m.m.1.1.m.m.+ + l.. @ 2#{ t#j#k#9+9+9+9+9+9+9+9+9+9+9+9+9+9+9+9+9+9+9+9+9+0+u#v#w#J @ &@. l.+ + m.m.1.1.m.m.+ + l.. @ ",
"&@. l.+ + m.m.1.1.m.m.+ + l.. @ 2#{ t#j#A@9+9+9+9+9+9+9+9+9+9+9+9+9+9+9+9+9+9+9+9+9+0+u#x#y#J @ &@. l.+ + m.m.1.1.m.m.+ + l.. @ ",
". . l.+ + m.m.1.1.m.m.+ + l.. @ 2#{ z#A#B#9+9+9+9+9+9+9+9+9+9+9+9+9+9+9+9+9+9+9+9+9+y+C#D#E#4 @ . . l.+ + m.m.1.1.m.m.+ + l.. @ ",
"&@. l.+ + m.m.1.1.m.m.+ + l.. @ 2#{ F#G#H#9+9+9+9+9+9+9+9+9+9+9+9+9+9+9+9+9+9+9+9+9+y+I#J#K#L#@ &@. l.+ + m.m.1.1.m.m.+ + l.. @ ",
". . l.+ + m.m.1.1.m.m.+ + l.. @ 2#{ M#N#H#9+9+9+9+9+9+9+9+9+9+9+9+9+9+9+9+9+9+9+9+9+y+O#J#K#L#@ . . l.+ + m.m.1.1.m.m.+ + l.. @ ",
"&@. l.+ + m.m.1.1.m.m.+ + l.. @ 2#{ M#N#H#9+9+9+9+9+9+9+9+9+9+9+9+9+9+9+9+9+9+9+9+9+y+O#J#K#L#@ &@. l.+ + m.m.1.1.m.m.+ + l.. @ ",
". . l.+ + m.m.1.1.m.m.+ + l.. @ 2#{ M#N#H#9+9+9+9+9+9+9+9+9+9+9+9+9+9+9+9+9+9+9+9+9+P#Q#u R#L#@ . . l.+ + m.m.1.1.m.m.+ + l.. @ ",
"&@. l.+ + m.m.1.1.m.m.+ + l.. @ 2#{ S#p.T#{@(+(+U#U#V#V#V#V#V#V#V#W#W#W#W#W#X#Y#Z#`# $.$+$@$L#@ &@. l.+ + m.m.1.1.m.m.+ + l.. @ ",
". . l.+ + m.m.1.1.m.m.+ + l.. @ 2#{ +.#$$$A@k#W.%$&$*$=$=$=$=$=$-$;$>$,$,$,$'$)$!$~${$]$a#^$J @ . . l.+ + m.m.1.1.m.m.+ + l.. @ ",
". . l.+ + m.m.1.1.m.m.+ + l.. @ 2#{ k./$($_$_$_$:$<$[$}$|$|$|$[$1$2$3$4$5$5$6$M+7$8$9$0$a$b$c$@ . . l.+ + m.m.1.1.m.m.+ + l.. @ ",
". . # + + m.m.1.1.m.m.+ + l.. @ 2#K . z#d$e$T+f$g$h$a@i$i$i$i$j$k$l$m$n$o$p$q$r$s$t$u$v$w$B x$@ . . # + + m.m.1.1.m.m.+ + l.. @ ",
". . l.+ + m.m.-.-.m.m.+ + l.. @ y$H z$. A$p+B+B+J 3@B$B$B$B$B$C$D$E$F$e G$G$H$I$J$K$L$M$N$p J @ . . l.+ + m.m.-.-.m.m.+ + l.. @ ",
". . # + + O$m.m.m.m.O$+ + l.. @ o q o P$T x${ { %@r J J J J J ,.H G Q$o R$R$<#S$R#T$U$V$A <#z$@ . . # + + O$m.m.m.m.O$+ + l.. @ ",
". . # + + + O$m.m.O$+ + + l.. @ F W$X$g . . . . . S S S S S S S h h g P$U+P${ Y$Z$4 Z$`$ %W+E @ . . # + + + O$m.m.O$+ + + l.. @ ",
". . . # + + + + + + + + l.. . @ R .%S :+:+:+:+:+k.k.k.k.k..%+%+%+%+%+%+%@%@%+%+%.%.%.%Y #%Z $%@ . . . # + + + + + + + + l.. . @ ",
". . . . # + + + + + + l.. . . @ %%&%*%<.<.<.<.<.<.=%y@y@-%+@;%>%,%,%,%,%,%,%,%,%,%,%,%'%)%!%~%@ . . . . # + + + + + + l.. . . @ ",
". . . . . # l.# l.l.l.. . . . @ {%]%^%/%/%/%/%/%/%3.(%_%_%:%<%[%}%}%}%}%}%}%}%}%}%}%}%|%1%2%3%@ . . . . . # l.# l.l.l.. . . . @ ",
". + . . . . . . + . . . . . . @ . + . . . . . . + . . . . . . @ . + . . . . . . + . . . . . . @ . + . . . . . . + . . . . . . @ ",
"+ . . . . . . . . . . . . . . @ + . . . . . . . . . . . . . . @ + . . . . . . . . . . . . . . @ + . . . . . . . . . . . . . . @ ",
". . 4%5%l.. . . . . . l.5%. 4%@ . . 4%5%l.. . . . . . l.5%. 4%@ . . 4%5%l.. . . . . . l.5%. 4%@ . . 4%5%l.. . . . . . l.5%. 4%@ ",
"+ . @ 5%5%. . + . . @ 5%5%. . @ + . @ 5%5%. . + . . @ 5%5%. . @ + . @ 5%5%. . + . . @ 5%5%. . @ + . @ 5%5%. . + . . @ 5%5%. . @ ",
". . @ @ 4%. . . . . @ @ . . 4%@ . . @ @ 4%. . . . . @ @ . . 4%@ . . @ @ 4%. . . . . @ @ . . 4%@ . . @ @ 4%. . . . . @ @ . . 4%@ ",
". . . 4%4%. . . . . . . . 4%. @ . . . 4%4%. . . . . . . . 4%. @ . . . 4%4%. . . . . . . . 4%. @ . . . 4%4%. . . . . . . . 4%. @ ",
"9+@ 9+9+9+9+@ 9+@ @ @ @ @ @ @ @ 9+@ 9+9+9+9+@ 9+@ @ @ @ @ @ @ @ 9+@ 9+9+9+9+@ 9+@ @ @ @ @ @ @ @ 9+@ 9+9+9+9+@ 9+@ @ @ @ @ @ @ @ "};
