/* XPM */
static char * scoredeux_xpm[] = {
"64 64 575 2",
"  	c #000000",
". 	c #464D4F",
"+ 	c #383F40",
"@ 	c #382B2F",
"# 	c #62797E",
"$ 	c #535E61",
"% 	c #6A7A7C",
"& 	c #7E9193",
"* 	c #829496",
"= 	c #819496",
"- 	c #7B8E90",
"; 	c #738789",
"> 	c #6D8285",
", 	c #64797E",
"' 	c #5E757A",
") 	c #5F757A",
"! 	c #5B6F74",
"~ 	c #515F62",
"{ 	c #485052",
"] 	c #475052",
"^ 	c #4D5A5C",
"/ 	c #586A6D",
"( 	c #5D7477",
"_ 	c #5E7378",
": 	c #5B6E73",
"< 	c #596B6F",
"[ 	c #56666A",
"} 	c #536164",
"| 	c #536063",
"1 	c #535F62",
"2 	c #535F61",
"3 	c #505C5F",
"4 	c #4B5456",
"5 	c #5A686A",
"6 	c #718183",
"7 	c #728284",
"8 	c #6C7C7E",
"9 	c #667779",
"0 	c #627376",
"a 	c #5B6C70",
"b 	c #58696D",
"c 	c #586A6E",
"d 	c #57696D",
"e 	c #546569",
"f 	c #4D595C",
"g 	c #474F51",
"h 	c #474E50",
"i 	c #4B5557",
"j 	c #526164",
"k 	c #57686C",
"l 	c #556568",
"m 	c #526265",
"n 	c #505F62",
"o 	c #4E5B5E",
"p 	c #4E5A5C",
"q 	c #4D595B",
"r 	c #495254",
"s 	c #657577",
"t 	c #69797B",
"u 	c #5E6B6D",
"v 	c #596465",
"w 	c #586365",
"x 	c #566062",
"y 	c #535D5F",
"z 	c #515C5E",
"A 	c #4E595C",
"B 	c #4D585A",
"C 	c #4C5658",
"D 	c #485154",
"E 	c #464D50",
"F 	c #4B5457",
"G 	c #4C575A",
"H 	c #4B5658",
"I 	c #4A5456",
"J 	c #495355",
"K 	c #485254",
"L 	c #495154",
"M 	c #0095F6",
"N 	c #00C5F4",
"O 	c #6F8082",
"P 	c #647376",
"Q 	c #546163",
"R 	c #464C4E",
"S 	c #464E50",
"T 	c #464E4F",
"U 	c #4A5457",
"V 	c #758688",
"W 	c #5C696C",
"X 	c #505C60",
"Y 	c #434749",
"Z 	c #434648",
"` 	c #434547",
" .	c #43474A",
"..	c #43484A",
"+.	c #43494B",
"@.	c #434A4C",
"#.	c #434B4C",
"$.	c #444C4D",
"%.	c #454C4E",
"&.	c #474E51",
"*.	c #4E5A5E",
"=.	c #4B5559",
"-.	c #C6F6FF",
";.	c #768689",
">.	c #555F62",
",.	c #495356",
"'.	c #404748",
").	c #3B3C3E",
"!.	c #3B383A",
"~.	c #3B393B",
"{.	c #3B3B3D",
"].	c #3B3D3F",
"^.	c #3B3C3F",
"/.	c #3B3F41",
"(.	c #3B4143",
"_.	c #3B4244",
":.	c #3D4445",
"<.	c #3E4547",
"[.	c #3F4647",
"}.	c #414849",
"|.	c #42494B",
"1.	c #F5F9ED",
"2.	c #535C5E",
"3.	c #393E3F",
"4.	c #313031",
"5.	c #30292C",
"6.	c #2F272A",
"7.	c #2F292B",
"8.	c #2F2C2E",
"9.	c #2E2E30",
"0.	c #2E2F30",
"a.	c #2E3133",
"b.	c #2E3435",
"c.	c #2F3536",
"d.	c #313737",
"e.	c #33393A",
"f.	c #34393A",
"g.	c #363B3C",
"h.	c #383D3E",
"i.	c #3B4041",
"j.	c #3F4244",
"k.	c #444A4C",
"l.	c #5594B7",
"m.	c #09E4FC",
"n.	c #768789",
"o.	c #535E5F",
"p.	c #333738",
"q.	c #2B2F31",
"r.	c #282A2C",
"s.	c #232122",
"t.	c #221E20",
"u.	c #221E1F",
"v.	c #212021",
"w.	c #202021",
"x.	c #202020",
"y.	c #202121",
"z.	c #202323",
"A.	c #212424",
"B.	c #232626",
"C.	c #252828",
"D.	c #252929",
"E.	c #26292A",
"F.	c #2C3030",
"G.	c #3B3E40",
"H.	c #545E60",
"I.	c #404546",
"J.	c #333839",
"K.	c #333D40",
"L.	c #303A3C",
"M.	c #212527",
"N.	c #1E2121",
"O.	c #1D1F20",
"P.	c #1C1D1E",
"Q.	c #1B1D1E",
"R.	c #191B1B",
"S.	c #181A1A",
"T.	c #171919",
"U.	c #171718",
"V.	c #171717",
"W.	c #171818",
"X.	c #171817",
"Y.	c #161716",
"Z.	c #151715",
"`.	c #151716",
" +	c #161816",
".+	c #181818",
"++	c #222323",
"@+	c #383D3F",
"#+	c #404345",
"$+	c #35383B",
"%+	c #394548",
"&+	c #364245",
"*+	c #242A2C",
"=+	c #202425",
"-+	c #1F2324",
";+	c #1E2223",
">+	c #1D2021",
",+	c #1C1F20",
"'+	c #191B1D",
")+	c #18191B",
"!+	c #161718",
"~+	c #161617",
"{+	c #161616",
"]+	c #151515",
"^+	c #141414",
"/+	c #131313",
"(+	c #131312",
"_+	c #1E1F1F",
":+	c #444B4D",
"<+	c #748587",
"[+	c #3F4345",
"}+	c #333436",
"|+	c #303B3E",
"1+	c #212729",
"2+	c #1D2123",
"3+	c #1C2021",
"4+	c #1B1F20",
"5+	c #1A1D1F",
"6+	c #18191A",
"7+	c #171819",
"8+	c #151616",
"9+	c #141413",
"0+	c #141514",
"a+	c #1D2121",
"b+	c #3A4345",
"c+	c #454E50",
"d+	c #6D7E81",
"e+	c #515B5D",
"f+	c #2F2D2F",
"g+	c #272E30",
"h+	c #262C2F",
"i+	c #1D2022",
"j+	c #1A1C1E",
"k+	c #181A1C",
"l+	c #17191A",
"m+	c #161717",
"n+	c #1E2222",
"o+	c #3D4748",
"p+	c #465052",
"q+	c #67787B",
"r+	c #4F595B",
"s+	c #3F4143",
"t+	c #2D2A2C",
"u+	c #212426",
"v+	c #1F2325",
"w+	c #181A1B",
"x+	c #161818",
"y+	c #151514",
"z+	c #1E2221",
"A+	c #3D4749",
"B+	c #475153",
"C+	c #697B7E",
"D+	c #505A5C",
"E+	c #3F4144",
"F+	c #2C282B",
"G+	c #1E2122",
"H+	c #1C2020",
"I+	c #3C4748",
"J+	c #465053",
"K+	c #6C7D80",
"L+	c #191B1C",
"M+	c #3C4648",
"N+	c #66777A",
"O+	c #4E585B",
"P+	c #1E2021",
"Q+	c #1C1F21",
"R+	c #191A1B",
"S+	c #151615",
"T+	c #3D4648",
"U+	c #475053",
"V+	c #5D6F73",
"W+	c #4B5558",
"X+	c #3F4042",
"Y+	c #2C282A",
"Z+	c #1D1E20",
"`+	c #1B1D1F",
" @	c #151516",
".@	c #5A6C71",
"+@	c #3E3F42",
"@@	c #2C2729",
"#@	c #1A1C1D",
"$@	c #3D494B",
"%@	c #485153",
"&@	c #536265",
"*@	c #596C70",
"=@	c #1C1E1E",
"-@	c #737373",
";@	c #C9C9C9",
">@	c #ECECEC",
",@	c #F9F9F9",
"'@	c #FCFCFC",
")@	c #F1F1F1",
"!@	c #D2D2D2",
"~@	c #828282",
"{@	c #131413",
"]@	c #1D2223",
"^@	c #414D50",
"/@	c #464F51",
"(@	c #1D1F1F",
"_@	c #1A1D1E",
":@	c #4C4C4C",
"<@	c #D6D6D5",
"[@	c #FFFFFF",
"}@	c #FEFEFE",
"|@	c #B8B8B8",
"1@	c #1D2324",
"2@	c #424F53",
"3@	c #4A5558",
"4@	c #2C272A",
"5@	c #1C1D1D",
"6@	c #E6E6E6",
"7@	c #949494",
"8@	c #1C2122",
"9@	c #404C4F",
"0@	c #485356",
"a@	c #464F52",
"b@	c #2B2729",
"c@	c #1A1A1B",
"d@	c #878786",
"e@	c #FDFDFD",
"f@	c #EFEFEF",
"g@	c #A4A4A4",
"h@	c #565656",
"i@	c #545454",
"j@	c #C2C2C2",
"k@	c #DFDFDF",
"l@	c #404C50",
"m@	c #495457",
"n@	c #3E4042",
"o@	c #2B2829",
"p@	c #19191A",
"q@	c #AFAFAF",
"r@	c #CFCFCF",
"s@	c #373737",
"t@	c #1B1B1A",
"u@	c #F3F3F3",
"v@	c #F5F5F5",
"w@	c #131414",
"x@	c #1E2325",
"y@	c #435054",
"z@	c #4B5659",
"A@	c #3E4143",
"B@	c #2B2B2C",
"C@	c #181919",
"D@	c #EAEAEA",
"E@	c #131514",
"F@	c #1E2526",
"G@	c #455458",
"H@	c #4B585B",
"I@	c #3E4244",
"J@	c #2B2C2D",
"K@	c #E1E1E1",
"L@	c #455558",
"M@	c #4B595C",
"N@	c #586B6F",
"O@	c #2B2A2C",
"P@	c #C5C5C5",
"Q@	c #ADADAD",
"R@	c #1F2526",
"S@	c #56686B",
"T@	c #2B2A2B",
"U@	c #999999",
"V@	c #313130",
"W@	c #536266",
"X@	c #2B2D2E",
"Y@	c #FBFBFB",
"Z@	c #7E7E7E",
"`@	c #536467",
" #	c #495255",
".#	c #3E4446",
"+#	c #2B2F30",
"@#	c #767676",
"##	c #F7F7F7",
"$#	c #9C9C9B",
"%#	c #56676A",
"&#	c #4A5356",
"*#	c #6F6F6F",
"=#	c #A1A1A1",
"-#	c #4C595C",
";#	c #546367",
">#	c #6A6A6A",
",#	c #9C9C9C",
"'#	c #1F2627",
")#	c #475659",
"!#	c #4D5A5D",
"~#	c #505D60",
"{#	c #646464",
"]#	c #959595",
"^#	c #222829",
"/#	c #4D5C5F",
"(#	c #505E61",
"_#	c #4E5C5F",
":#	c #3D4446",
"<#	c #5E5E5E",
"[#	c #F0F0F0",
"}#	c #909090",
"|#	c #292929",
"1#	c #252C2C",
"2#	c #546365",
"3#	c #556264",
"4#	c #EDEDED",
"5#	c #B7B7B7",
"6#	c #556365",
"7#	c #4A5355",
"8#	c #3E4546",
"9#	c #2C3132",
"0#	c #23292A",
"a#	c #505F61",
"b#	c #3F4648",
"c#	c #2E3334",
"d#	c #181918",
"e#	c #252B2B",
"f#	c #526163",
"g#	c #404749",
"h#	c #2F3335",
"i#	c #404648",
"j#	c #242A2B",
"k#	c #516062",
"l#	c #536062",
"m#	c #526063",
"n#	c #546062",
"o#	c #414749",
"p#	c #303536",
"q#	c #181A19",
"r#	c #272E2E",
"s#	c #596769",
"t#	c #596567",
"u#	c #41484A",
"v#	c #323638",
"w#	c #191A1A",
"x#	c #293030",
"y#	c #5D6B6D",
"z#	c #5B686A",
"A#	c #4C5456",
"B#	c #42484A",
"C#	c #323738",
"D#	c #2A2F30",
"E#	c #121312",
"F#	c #292F2F",
"G#	c #5C686A",
"H#	c #42494A",
"I#	c #1A1B1A",
"J#	c #121211",
"K#	c #121110",
"L#	c #111110",
"M#	c #11110F",
"N#	c #10100F",
"O#	c #11100E",
"P#	c #100F0E",
"Q#	c #0F0F0E",
"R#	c #272D2D",
"S#	c #5B696B",
"T#	c #5A6669",
"U#	c #353A3A",
"V#	c #1F2120",
"W#	c #151717",
"X#	c #141616",
"Y#	c #131515",
"Z#	c #121414",
"`#	c #121515",
" $	c #131616",
".$	c #131717",
"+$	c #141818",
"@$	c #151919",
"#$	c #171B1B",
"$$	c #1A1D1D",
"%$	c #1B1D1D",
"&$	c #1A1E1E",
"*$	c #2B3233",
"=$	c #556164",
"-$	c #3A3F40",
";$	c #2D3132",
">$	c #292E2F",
",$	c #282F2F",
"'$	c #293031",
")$	c #283032",
"!$	c #283031",
"~$	c #282F31",
"{$	c #2A3336",
"]$	c #2B3638",
"^$	c #2D383A",
"/$	c #2F3B3E",
"($	c #2F3C3F",
"_$	c #333E41",
":$	c #424C4E",
"<$	c #444E4F",
"[$	c #434E4F",
"}$	c #434F50",
"|$	c #516163",
"1$	c #4F5B5E",
"2$	c #495052",
"3$	c #3C4345",
"4$	c #3D4547",
"5$	c #3E4648",
"6$	c #3F484A",
"7$	c #404B4E",
"8$	c #404C4E",
"9$	c #414D4F",
"0$	c #435155",
"a$	c #465458",
"b$	c #48585B",
"c$	c #4A5B60",
"d$	c #4B5D61",
"e$	c #4B5C61",
"f$	c #506165",
"g$	c #5C6D6E",
"h$	c #657576",
"i$	c #687779",
"j$	c #677678",
"k$	c #5E6E70",
"l$	c #556466",
"m$	c #484F51",
"n$	c #4F5C5F",
"o$	c #4A5557",
"p$	c #454D4F",
"q$	c #4B575A",
"r$	c #4B585A",
"s$	c #4D5C5E",
"t$	c #4F5F62",
"u$	c #516165",
"v$	c #54666B",
"w$	c #596A6E",
"x$	c #647577",
"y$	c #6D7D7F",
"z$	c #707F81",
"A$	c #6E7E80",
"B$	c #647476",
"C$	c #556265",
"D$	c #009DEB",
"E$	c #474F52",
"F$	c #4D585B",
"G$	c #4E5B5F",
"H$	c #576365",
"I$	c #5D6A6C",
"J$	c #5D696B",
"K$	c #566265",
"L$	c #4A5255",
"M$	c #4C585B",
"N$	c #4A5254",
"O$	c #4B5355",
"P$	c #495153",
"Q$	c #474D4F",
"R$	c #44494B",
"S$	c #44484A",
"T$	c #44484B",
"U$	c #414144",
"V$	c #404042",
"W$	c #454B4D",
"X$	c #414648",
"Y$	c #3F4547",
"Z$	c #3E4345",
"`$	c #3E4043",
" %	c #3E3D3F",
".%	c #3E3C3E",
"+%	c #3E3B3E",
"@%	c #3E3A3D",
"#%	c #3C3639",
"$%	c #3C383B",
"%%	c #3A393C",
"&%	c #464C4D",
"*%	c #414748",
"=%	c #3B4243",
"-%	c #394042",
";%	c #393A3C",
">%	c #39393C",
",%	c #39363A",
"'%	c #393235",
")%	c #393034",
"!%	c #393033",
"~%	c #392F33",
"{%	c #382E32",
"]%	c #383235",
"^%	c #38393B",
"/%	c #4B3F38",
"(%	c #2F5075",
"                                                                                                                                ",
". . . . . . + . + . + . + + + @ . . . . . . + . + . + . + + + @ . . . . . . + . + . + . + + + @ . . . . . . + . + . + . + + + @ ",
". + + + + + + + + + + + + + + @ . + + + + + + + + + + + + + + @ . + + + + + + + + + + + + + + @ . + + + + + + + + + + + + + + @ ",
". + # + + # # # # . + + + # + @ $ % & * = - ; > , ' ' ' ) ! ~ { ] ^ / ( ' _ : < [ } | 1 2 3 4 @ . + # + + # # # # . + + + # + @ ",
". @ + + # @ @ @ @ @ @ + @ + + @ 5 % 6 7 6 8 9 0 a b c c d e f g h i j k c k l m n o p p p q r @ . @ + + # @ @ @ @ @ @ + @ + + @ ",
". + + # @ @ @ @ @ @ @ @ . + + @ s t u v w x y z A B B B B C D E . { F G B G H i I J K K J i L @ . + + # @ @ @ @ @ @ @ @ . + + @ ",
". + # @ @ @ M N N M @ @ @ . + @ O P Q r g h h h . R . . E . . . . . . S S S S T . . . . { f U @ . + # @ @ @ M N N M @ @ @ . + @ ",
". + # @ @ M N N N N M @ @ # + @ V W X . Y Z Z Z Z ` Z Y  . .....+.@.@.@.@.#.$.$.%.. . . &.*.=.@ . + # @ @ M N N N N M @ @ # + @ ",
". + # @ @ N N -.-.N N @ @ # + @ ;.>.,.'.).!.!.!.!.!.~.{.].^.]./.(._._._.:.<.[.[.}.|.+.+. .L D @ . + # @ @ N N -.-.N N @ @ # + @ ",
". + # @ @ N N 1.1.N N @ @ # + @ V 2.@.3.4.5.6.6.6.6.7.8.9.9.0.a.b.b.b.c.d.e.f.f.g.h.3.i.j.k.. @ . + # @ @ N N 1.1.N N @ @ # + @ ",
"# . l.+ + m.m.1.1.m.m.+ + l.. + n.o.'.p.q.r.s.t.t.t.u.v.w.w.x.y.z.z.z.z.A.B.B.B.C.D.E.F.G.+.. + # . l.+ + m.m.1.1.m.m.+ + l.. + ",
". + # @ @ N N 1.1.N N @ @ # + @ n.H.I.J.K.L.M.N.N.O.P.Q.R.S.T.U.V.W.X.Y.Z.`.`.`. + +.+++@+@.. @ . + # @ @ N N 1.1.N N @ @ # + @ ",
"# . l.+ + m.m.1.1.m.m.+ + l.. + n.H.#+$+%+&+*+=+-+;+>+,+'+)+T.!+~+{+]+^+/+(+(+(+(+(+^+_++ :+. + # . l.+ + m.m.1.1.m.m.+ + l.. + ",
"# . l.+ + m.m.1.1.m.m.+ + l.. @ <+H.[+}+K.|+1+2+2+3+4+5+'+6+7+!+8+]+^+9+9+9+9+9+9+9+0+a+b+c+. @ # . l.+ + m.m.1.1.m.m.+ + l.. @ ",
"# . l.+ + m.m.1.1.m.m.+ + l.. + d+e+j.f+g+h+i+j+j+j+'+k+l+W.m+{+]+9+9+9+9+9+9+9+9+9+0+n+o+p+. + # . l.+ + m.m.1.1.m.m.+ + l.. + ",
"# . l.+ + m.m.1.1.m.m.+ + l.. @ q+r+s+t+u+v+j+'+'+w+l+7+x+~+]+y+^+9+9+9+9+9+9+9+9+9+9+z+A+B+S @ # . l.+ + m.m.1.1.m.m.+ + l.. @ ",
"# . l.+ + m.m.1.1.m.m.+ + l.. + C+D+E+F+G+3+'+k+w+6+W.m+8+]+^+9+9+9+9+9+9+9+9+9+9+9+9+H+I+J+E + # . l.+ + m.m.1.1.m.m.+ + l.. + ",
"# . l.+ + m.m.1.1.m.m.+ + l.. + K+e+E+F+N.3+L+6+7+!+m+]+^+^+9+9+9+9+9+9+9+9+9+9+9+9+9+H+M+J+E + # . l.+ + m.m.1.1.m.m.+ + l.. + ",
"# . l.+ + m.m.1.1.m.m.+ + l.. + N+O+s+F+P+Q+R+7+m+8+S+0+9+9+9+9+9+9+9+9+9+9+9+9+9+9+9+>+T+U+E + # . l.+ + m.m.1.1.m.m.+ + l.. + ",
"# . l.+ + m.m.1.1.m.m.+ + l.. + V+W+X+Y+Z+`+)+U. @^+9+9+9+9+9+9+9+9+9+9+9+9+9+9+9+9+9+>+A+] E + # . l.+ + m.m.1.1.m.m.+ + l.. + ",
"# . l.+ + m.m.1.1.m.m.+ + l.. . .@U +@@@P.#@l+m+]+9+9+9+9+9+9+9+9+9+9+9+9+9+9+9+9+9+9+3+$@%@S . # . l.+ + m.m.1.1.m.m.+ + l.. . ",
"&@. l.+ + m.m.1.1.m.m.+ + l.. + *@U +@Y+=@#@7+8+^+9+9+-@;@>@,@'@)@!@~@9+9+9+9+9+9+9+{@]@^@I /@+ &@. l.+ + m.m.1.1.m.m.+ + l.. + ",
"# . l.+ + m.m.1.1.m.m.+ + l.. . *@U +@Y+(@_@U.]+9+:@<@[@[@[@[@[@[@[@}@|@9+9+9+9+9+9+{@1@2@3@p+. # . l.+ + m.m.1.1.m.m.+ + l.. . ",
"&@. l.+ + m.m.1.1.m.m.+ + l.. + *@U +@4@5@L+~+^+9+6@[@[@[@[@[@[@[@[@[@[@7@9+9+9+9+9+{@8@9@0@a@+ &@. l.+ + m.m.1.1.m.m.+ + l.. + ",
"# . l.+ + m.m.1.1.m.m.+ + l.. . *@U +@b@c@T.S+9+9+d@e@[@f@g@h@i@j@[@[@[@k@9+9+9+9+9+{@2+l@m@a@. # . l.+ + m.m.1.1.m.m.+ + l.. . ",
"&@. l.+ + m.m.1.1.m.m.+ + l.. + *@U n@o@p@m+y+9+9+9+q@r@s@9+9+9+t@u@[@[@v@9+9+9+9+9+w@x@y@z@] + &@. l.+ + m.m.1.1.m.m.+ + l.. + ",
"&@. l.+ + m.m.1.1.m.m.+ + l.. + *@U A@B@C@m+]+9+9+9+9+9+9+9+9+9+9+D@[@[@v@9+9+9+9+9+E@F@G@H@{ + &@. l.+ + m.m.1.1.m.m.+ + l.. + ",
"&@. l.+ + m.m.1.1.m.m.+ + l.. + *@U I@J@6+m+]+9+9+9+9+9+9+9+9+9+:@'@[@[@K@9+9+9+9+9+E@F@L@M@{ + &@. l.+ + m.m.1.1.m.m.+ + l.. + ",
"&@. l.+ + m.m.1.1.m.m.+ + l.. @ N@U I@O@C@m+]+9+9+9+9+9+9+9+9+9+P@[@[@[@Q@9+9+9+9+9+E@R@L@M@{ @ &@. l.+ + m.m.1.1.m.m.+ + l.. @ ",
"&@. l.+ + m.m.1.1.m.m.+ + l.. + S@J A@T@C@~+y+9+9+9+9+9+9+9+9+U@[@[@[@f@V@9+9+9+9+9+E@R@L@M@{ + &@. l.+ + m.m.1.1.m.m.+ + l.. + ",
"&@. l.+ + m.m.1.1.m.m.+ + l.. @ W@L I@X@6+m+]+9+9+9+9+9+9+9+~@Y@[@[@Y@Z@9+9+9+9+9+9+E@R@L@M@{ @ &@. l.+ + m.m.1.1.m.m.+ + l.. @ ",
"&@. l.+ + m.m.1.1.m.m.+ + l.. + `@ #.#+#S.m+]+9+9+9+9+9+9+@###[@[@}@$#9+9+9+9+9+9+9+E@F@L@M@{ + &@. l.+ + m.m.1.1.m.m.+ + l.. + ",
"&@. l.+ + m.m.1.1.m.m.+ + l.. @ %#&#.#+#S.{+y+9+9+9+9+9+*#v@[@[@}@=#9+9+9+9+9+9+9+9+E@F@L@-#{ @ &@. l.+ + m.m.1.1.m.m.+ + l.. @ ",
"&@. l.+ + m.m.1.1.m.m.+ + l.. @ ;# #.#+#C@]+9+9+9+9+9+>#u@[@[@e@,#9+9+9+9+9+9+9+9+9+0+'#)#!#{ @ &@. l.+ + m.m.1.1.m.m.+ + l.. @ ",
"&@. l.+ + m.m.1.1.m.m.+ + l.. @ ~#{ .#+#C@y+9+9+9+9+{#)@[@[@Y@]#9+9+9+9+9+9+9+9+9+9+0+^#/#(#L @ &@. l.+ + m.m.1.1.m.m.+ + l.. @ ",
"&@. l.+ + m.m.1.1.m.m.+ + l.. @ _#{ :#+#6+]+9+9+9+<#[#[@[@Y@}#|#|#|#|#|#|#t@9+9+9+9+y+1#2#3#&#@ &@. l.+ + m.m.1.1.m.m.+ + l.. @ ",
"&@. l.+ + m.m.1.1.m.m.+ + l.. @ _#{ .#+#C@]+9+9+9+4#[@[@[@[@[@[@[@[@[@[@[@5#9+9+9+9+y+1#6#3#7#@ &@. l.+ + m.m.1.1.m.m.+ + l.. @ ",
"&@. l.+ + m.m.1.1.m.m.+ + l.. @ _#{ 8#9#T.^+9+9+9+[@[@[@[@[@[@[@[@[@[@[@[@5#9+9+9+9+0+0#a#2 r @ &@. l.+ + m.m.1.1.m.m.+ + l.. @ ",
"&@. l.+ + m.m.1.1.m.m.+ + l.. @ _#{ b#c#d#9+9+9+9+[@[@[@[@[@[@[@[@[@[@[@[@5#9+9+9+9+y+e#f#Q J @ &@. l.+ + m.m.1.1.m.m.+ + l.. @ ",
"&@. l.+ + m.m.1.1.m.m.+ + l.. @ _#{ g#h#C@9+9+9+9+9+9+9+9+9+9+9+9+9+9+9+9+9+9+9+9+9+y+1#2#3#I @ &@. l.+ + m.m.1.1.m.m.+ + l.. @ ",
"&@. l.+ + m.m.1.1.m.m.+ + l.. @ _#{ i#c#d#9+9+9+9+9+9+9+9+9+9+9+9+9+9+9+9+9+9+9+9+9+0+j#k#l#J @ &@. l.+ + m.m.1.1.m.m.+ + l.. @ ",
"&@. l.+ + m.m.1.1.m.m.+ + l.. @ _#{ i#c#C@9+9+9+9+9+9+9+9+9+9+9+9+9+9+9+9+9+9+9+9+9+0+j#m#n#J @ &@. l.+ + m.m.1.1.m.m.+ + l.. @ ",
". . l.+ + m.m.1.1.m.m.+ + l.. @ _#{ o#p#q#9+9+9+9+9+9+9+9+9+9+9+9+9+9+9+9+9+9+9+9+9+y+r#s#t#4 @ . . l.+ + m.m.1.1.m.m.+ + l.. @ ",
"&@. l.+ + m.m.1.1.m.m.+ + l.. @ _#{ u#v#w#9+9+9+9+9+9+9+9+9+9+9+9+9+9+9+9+9+9+9+9+9+y+x#y#z#A#@ &@. l.+ + m.m.1.1.m.m.+ + l.. @ ",
". . l.+ + m.m.1.1.m.m.+ + l.. @ _#{ B#C#w#9+9+9+9+9+9+9+9+9+9+9+9+9+9+9+9+9+9+9+9+9+y+D#y#z#A#@ . . l.+ + m.m.1.1.m.m.+ + l.. @ ",
"&@. l.+ + m.m.1.1.m.m.+ + l.. @ _#{ B#C#w#9+9+9+9+9+9+9+9+9+9+9+9+9+9+9+9+9+9+9+9+9+y+D#y#z#A#@ &@. l.+ + m.m.1.1.m.m.+ + l.. @ ",
". . l.+ + m.m.1.1.m.m.+ + l.. @ _#{ B#C#w#9+9+9+9+9+9+9+9+9+9+9+9+9+9+9+9+9+9+9+9+9+E#F#u G#A#@ . . l.+ + m.m.1.1.m.m.+ + l.. @ ",
"&@. l.+ + m.m.1.1.m.m.+ + l.. @ _#{ H#p.I#{@(+(+J#J#K#K#K#K#K#K#K#L#L#L#L#L#M#N#O#P#Q#R#S#T#A#@ &@. l.+ + m.m.1.1.m.m.+ + l.. @ ",
". . l.+ + m.m.1.1.m.m.+ + l.. @ _#{ +.U#V#C@d#W.W#X#Y#Z#Z#Z#Z#Z#`# $.$+$+$+$@$#$$$%$&$*$6#=$J @ . . l.+ + m.m.1.1.m.m.+ + l.. @ ",
". . l.+ + m.m.1.1.m.m.+ + l.. @ _#{ k.-$;$>$>$>$,$'$)$!$~$~$~$)${$]$^$/$($($_$M+:$<$[$}$|$1$2$@ . . l.+ + m.m.1.1.m.m.+ + l.. @ ",
". . # + + m.m.1.1.m.m.+ + l.. @ _#K . o#3$4$T+5$6$7$9@8$8$8$8$9$0$a$b$c$d$e$f$g$h$i$j$k$l$B m$@ . . # + + m.m.1.1.m.m.+ + l.. @ ",
". . l.+ + m.m.-.-.m.m.+ + l.. @ n$H o$. p$p+B+B+J 3@q$q$q$q$q$r$s$t$u$e v$v$w$x$y$z$A$B$C$p J @ . . l.+ + m.m.-.-.m.m.+ + l.. @ ",
". . # + + D$m.m.m.m.D$+ + l.. @ o q o E$T m${ { %@r J J J J J ,.H G F$o G$G$~#H$G#I$J$K$A ~#o$@ . . # + + D$m.m.m.m.D$+ + l.. @ ",
". . # + + + D$m.m.D$+ + + l.. @ F L$M$g . . . . . S S S S S S S h h g E$U+E${ N$O$4 O$P$Q$W+E @ . . # + + + D$m.m.D$+ + + l.. @ ",
". . . # + + + + + + + + l.. . @ R R$S :+:+:+:+:+k.k.k.k.k.R$S$S$S$S$S$S$T$T$S$S$R$R$R$Y U$Z V$@ . . . # + + + + + + + + l.. . @ ",
". . . . # + + + + + + l.. . . @ W$X$Y$<.<.<.<.<.<.Z$A@A@`$+@ %.%+%+%+%+%+%+%+%+%+%+%+%@%#%$%%%@ . . . . # + + + + + + l.. . . @ ",
". . . . . # l.# l.l.l.. . . . @ &%*%=%-%-%-%-%-%-%3.;%>%>%,%'%)%!%!%!%!%!%!%!%!%!%!%!%~%{%]%^%@ . . . . . # l.# l.l.l.. . . . @ ",
". + . . . . . . + . . . . . . @ . + . . . . . . + . . . . . . @ . + . . . . . . + . . . . . . @ . + . . . . . . + . . . . . . @ ",
"+ . . . . . . . . . . . . . . @ + . . . . . . . . . . . . . . @ + . . . . . . . . . . . . . . @ + . . . . . . . . . . . . . . @ ",
". . /%(%l.. . . . . . l.(%. /%@ . . /%(%l.. . . . . . l.(%. /%@ . . /%(%l.. . . . . . l.(%. /%@ . . /%(%l.. . . . . . l.(%. /%@ ",
"+ . @ (%(%. . + . . @ (%(%. . @ + . @ (%(%. . + . . @ (%(%. . @ + . @ (%(%. . + . . @ (%(%. . @ + . @ (%(%. . + . . @ (%(%. . @ ",
". . @ @ /%. . . . . @ @ . . /%@ . . @ @ /%. . . . . @ @ . . /%@ . . @ @ /%. . . . . @ @ . . /%@ . . @ @ /%. . . . . @ @ . . /%@ ",
". . . /%/%. . . . . . . . /%. @ . . . /%/%. . . . . . . . /%. @ . . . /%/%. . . . . . . . /%. @ . . . /%/%. . . . . . . . /%. @ ",
"9+@ 9+9+9+9+@ 9+@ @ @ @ @ @ @ @ 9+@ 9+9+9+9+@ 9+@ @ @ @ @ @ @ @ 9+@ 9+9+9+9+@ 9+@ @ @ @ @ @ @ @ 9+@ 9+9+9+9+@ 9+@ @ @ @ @ @ @ @ "};
