/* XPM */
static char * scorethree_xpm[] = {
"64 64 591 2",
"  	c #000000",
". 	c #464D4F",
"+ 	c #383F40",
"@ 	c #382B2F",
"# 	c #62797E",
"$ 	c #535E61",
"% 	c #6A7A7C",
"& 	c #7E9193",
"* 	c #829496",
"= 	c #819496",
"- 	c #7B8E90",
"; 	c #738789",
"> 	c #6D8285",
", 	c #64797E",
"' 	c #5E757A",
") 	c #5F757A",
"! 	c #5B6F74",
"~ 	c #515F62",
"{ 	c #485052",
"] 	c #475052",
"^ 	c #4D5A5C",
"/ 	c #586A6D",
"( 	c #5D7477",
"_ 	c #5E7378",
": 	c #5B6E73",
"< 	c #596B6F",
"[ 	c #56666A",
"} 	c #536164",
"| 	c #536063",
"1 	c #535F62",
"2 	c #535F61",
"3 	c #505C5F",
"4 	c #4B5456",
"5 	c #5A686A",
"6 	c #718183",
"7 	c #728284",
"8 	c #6C7C7E",
"9 	c #667779",
"0 	c #627376",
"a 	c #5B6C70",
"b 	c #58696D",
"c 	c #586A6E",
"d 	c #57696D",
"e 	c #546569",
"f 	c #4D595C",
"g 	c #474F51",
"h 	c #474E50",
"i 	c #4B5557",
"j 	c #526164",
"k 	c #57686C",
"l 	c #556568",
"m 	c #526265",
"n 	c #505F62",
"o 	c #4E5B5E",
"p 	c #4E5A5C",
"q 	c #4D595B",
"r 	c #495254",
"s 	c #657577",
"t 	c #69797B",
"u 	c #5E6B6D",
"v 	c #596465",
"w 	c #586365",
"x 	c #566062",
"y 	c #535D5F",
"z 	c #515C5E",
"A 	c #4E595C",
"B 	c #4D585A",
"C 	c #4C5658",
"D 	c #485154",
"E 	c #464D50",
"F 	c #4B5457",
"G 	c #4C575A",
"H 	c #4B5658",
"I 	c #4A5456",
"J 	c #495355",
"K 	c #485254",
"L 	c #495154",
"M 	c #F78300",
"N 	c #FFB62C",
"O 	c #6F8082",
"P 	c #647376",
"Q 	c #546163",
"R 	c #464C4E",
"S 	c #464E50",
"T 	c #464E4F",
"U 	c #4A5457",
"V 	c #758688",
"W 	c #5C696C",
"X 	c #505C60",
"Y 	c #434749",
"Z 	c #434648",
"` 	c #434547",
" .	c #43474A",
"..	c #43484A",
"+.	c #43494B",
"@.	c #434A4C",
"#.	c #434B4C",
"$.	c #444C4D",
"%.	c #454C4E",
"&.	c #474E51",
"*.	c #4E5A5E",
"=.	c #4B5559",
"-.	c #FFEC24",
";.	c #768689",
">.	c #555F62",
",.	c #495356",
"'.	c #404748",
").	c #3B3C3E",
"!.	c #3B383A",
"~.	c #3B393B",
"{.	c #3B3B3D",
"].	c #3B3D3F",
"^.	c #3B3C3F",
"/.	c #3B3F41",
"(.	c #3B4143",
"_.	c #3B4244",
":.	c #3D4445",
"<.	c #3E4547",
"[.	c #3F4647",
"}.	c #414849",
"|.	c #42494B",
"1.	c #F5F9ED",
"2.	c #535C5E",
"3.	c #393E3F",
"4.	c #313031",
"5.	c #30292C",
"6.	c #2F272A",
"7.	c #2F292B",
"8.	c #2F2C2E",
"9.	c #2E2E30",
"0.	c #2E2F30",
"a.	c #2E3133",
"b.	c #2E3435",
"c.	c #2F3536",
"d.	c #313737",
"e.	c #33393A",
"f.	c #34393A",
"g.	c #363B3C",
"h.	c #383D3E",
"i.	c #3B4041",
"j.	c #3F4244",
"k.	c #444A4C",
"l.	c #BAB77A",
"m.	c #FFD02C",
"n.	c #768789",
"o.	c #535E5F",
"p.	c #333738",
"q.	c #2B2F31",
"r.	c #282A2C",
"s.	c #232122",
"t.	c #221E20",
"u.	c #221E1F",
"v.	c #212021",
"w.	c #202021",
"x.	c #202020",
"y.	c #202121",
"z.	c #202323",
"A.	c #212424",
"B.	c #232626",
"C.	c #252828",
"D.	c #252929",
"E.	c #26292A",
"F.	c #2C3030",
"G.	c #3B3E40",
"H.	c #545E60",
"I.	c #404546",
"J.	c #333839",
"K.	c #333D40",
"L.	c #303A3C",
"M.	c #212527",
"N.	c #1E2121",
"O.	c #1D1F20",
"P.	c #1C1D1E",
"Q.	c #1B1D1E",
"R.	c #191B1B",
"S.	c #181A1A",
"T.	c #171919",
"U.	c #171718",
"V.	c #171717",
"W.	c #171818",
"X.	c #171817",
"Y.	c #161716",
"Z.	c #151715",
"`.	c #151716",
" +	c #161816",
".+	c #181818",
"++	c #222323",
"@+	c #383D3F",
"#+	c #404345",
"$+	c #35383B",
"%+	c #394548",
"&+	c #364245",
"*+	c #242A2C",
"=+	c #202425",
"-+	c #1F2324",
";+	c #1E2223",
">+	c #1D2021",
",+	c #1C1F20",
"'+	c #191B1D",
")+	c #18191B",
"!+	c #161718",
"~+	c #161617",
"{+	c #161616",
"]+	c #151515",
"^+	c #141414",
"/+	c #131313",
"(+	c #131312",
"_+	c #1E1F1F",
":+	c #444B4D",
"<+	c #748587",
"[+	c #3F4345",
"}+	c #333436",
"|+	c #303B3E",
"1+	c #212729",
"2+	c #1D2123",
"3+	c #1C2021",
"4+	c #1B1F20",
"5+	c #1A1D1F",
"6+	c #18191A",
"7+	c #171819",
"8+	c #151616",
"9+	c #141413",
"0+	c #141514",
"a+	c #1D2121",
"b+	c #3A4345",
"c+	c #454E50",
"d+	c #6D7E81",
"e+	c #515B5D",
"f+	c #2F2D2F",
"g+	c #272E30",
"h+	c #262C2F",
"i+	c #1D2022",
"j+	c #1A1C1E",
"k+	c #181A1C",
"l+	c #17191A",
"m+	c #161717",
"n+	c #1E2222",
"o+	c #3D4748",
"p+	c #465052",
"q+	c #67787B",
"r+	c #4F595B",
"s+	c #3F4143",
"t+	c #2D2A2C",
"u+	c #212426",
"v+	c #1F2325",
"w+	c #181A1B",
"x+	c #161818",
"y+	c #151514",
"z+	c #1E2221",
"A+	c #3D4749",
"B+	c #475153",
"C+	c #697B7E",
"D+	c #505A5C",
"E+	c #3F4144",
"F+	c #2C282B",
"G+	c #1E2122",
"H+	c #1C2020",
"I+	c #3C4748",
"J+	c #465053",
"K+	c #6C7D80",
"L+	c #191B1C",
"M+	c #3C4648",
"N+	c #66777A",
"O+	c #4E585B",
"P+	c #1E2021",
"Q+	c #1C1F21",
"R+	c #191A1B",
"S+	c #151615",
"T+	c #3D4648",
"U+	c #475053",
"V+	c #5D6F73",
"W+	c #4B5558",
"X+	c #3F4042",
"Y+	c #2C282A",
"Z+	c #1D1E20",
"`+	c #1B1D1F",
" @	c #151516",
".@	c #5A6C71",
"+@	c #3E3F42",
"@@	c #2C2729",
"#@	c #1A1C1D",
"$@	c #3D494B",
"%@	c #485153",
"&@	c #536265",
"*@	c #596C70",
"=@	c #1C1E1E",
"-@	c #131413",
";@	c #1D2223",
">@	c #414D50",
",@	c #464F51",
"'@	c #1D1F1F",
")@	c #1A1D1E",
"!@	c #616161",
"~@	c #BCBCBC",
"{@	c #E2E2E2",
"]@	c #F5F5F5",
"^@	c #FCFCFC",
"/@	c #FBFBFB",
"(@	c #F0F0F0",
"_@	c #D3D3D3",
":@	c #909090",
"<@	c #1D2324",
"[@	c #424F53",
"}@	c #4A5558",
"|@	c #2C272A",
"1@	c #1C1D1D",
"2@	c #C5C5C5",
"3@	c #FDFDFD",
"4@	c #FFFFFF",
"5@	c #1C2122",
"6@	c #404C4F",
"7@	c #485356",
"8@	c #464F52",
"9@	c #2B2729",
"0@	c #1A1A1B",
"a@	c #ADADAD",
"b@	c #404C50",
"c@	c #495457",
"d@	c #3E4042",
"e@	c #2B2829",
"f@	c #19191A",
"g@	c #252525",
"h@	c #E4E4E4",
"i@	c #E7E7E7",
"j@	c #A5A5A5",
"k@	c #3D3D3C",
"l@	c #676767",
"m@	c #CDCDCD",
"n@	c #DDDDDD",
"o@	c #131414",
"p@	c #1E2325",
"q@	c #435054",
"r@	c #4B5659",
"s@	c #3E4143",
"t@	c #2B2B2C",
"u@	c #181919",
"v@	c #444444",
"w@	c #2D2D2D",
"x@	c #E0E0E0",
"y@	c #131514",
"z@	c #1E2526",
"A@	c #455458",
"B@	c #4B585B",
"C@	c #3E4244",
"D@	c #2B2C2D",
"E@	c #4E4E4E",
"F@	c #FEFEFE",
"G@	c #BFBFBF",
"H@	c #455558",
"I@	c #4B595C",
"J@	c #586B6F",
"K@	c #2B2A2C",
"L@	c #545454",
"M@	c #939393",
"N@	c #E5E5E5",
"O@	c #525252",
"P@	c #1F2526",
"Q@	c #56686B",
"R@	c #2B2A2B",
"S@	c #969695",
"T@	c #505050",
"U@	c #536266",
"V@	c #2B2D2E",
"W@	c #D0D0D0",
"X@	c #929292",
"Y@	c #536467",
"Z@	c #495255",
"`@	c #3E4446",
" #	c #2B2F30",
".#	c #E8E8E8",
"+#	c #636362",
"@#	c #56676A",
"##	c #4A5356",
"$#	c #1B1B1A",
"%#	c #292929",
"&#	c #3A3A39",
"*#	c #595959",
"=#	c #8E8E8E",
"-#	c #D9D9D9",
";#	c #E6E6E6",
">#	c #4C595C",
",#	c #546367",
"'#	c #ECECEC",
")#	c #747474",
"!#	c #1F2627",
"~#	c #475659",
"{#	c #4D5A5D",
"]#	c #505D60",
"^#	c #DBDBDB",
"/#	c #8F8F8F",
"(#	c #222829",
"_#	c #4D5C5F",
":#	c #505E61",
"<#	c #4E5C5F",
"[#	c #3D4446",
"}#	c #313130",
"|#	c #3F3F3F",
"1#	c #F4F4F4",
"2#	c #252C2C",
"3#	c #546365",
"4#	c #556264",
"5#	c #424241",
"6#	c #C6C6C6",
"7#	c #959595",
"8#	c #373737",
"9#	c #484848",
"0#	c #858584",
"a#	c #DEDEDE",
"b#	c #F1F1F1",
"c#	c #556365",
"d#	c #4A5355",
"e#	c #3E4546",
"f#	c #2C3132",
"g#	c #A3A3A3",
"h#	c #23292A",
"i#	c #505F61",
"j#	c #3F4648",
"k#	c #2E3334",
"l#	c #181918",
"m#	c #B0B0AF",
"n#	c #252B2B",
"o#	c #526163",
"p#	c #404749",
"q#	c #2F3335",
"r#	c #808080",
"s#	c #BEBEBE",
"t#	c #FAFAFA",
"u#	c #F3F3F3",
"v#	c #E3E3E3",
"w#	c #BABABA",
"x#	c #646464",
"y#	c #404648",
"z#	c #242A2B",
"A#	c #516062",
"B#	c #536062",
"C#	c #526063",
"D#	c #546062",
"E#	c #414749",
"F#	c #303536",
"G#	c #181A19",
"H#	c #272E2E",
"I#	c #596769",
"J#	c #596567",
"K#	c #41484A",
"L#	c #323638",
"M#	c #191A1A",
"N#	c #293030",
"O#	c #5D6B6D",
"P#	c #5B686A",
"Q#	c #4C5456",
"R#	c #42484A",
"S#	c #323738",
"T#	c #2A2F30",
"U#	c #121312",
"V#	c #292F2F",
"W#	c #5C686A",
"X#	c #42494A",
"Y#	c #1A1B1A",
"Z#	c #121211",
"`#	c #121110",
" $	c #111110",
".$	c #11110F",
"+$	c #10100F",
"@$	c #11100E",
"#$	c #100F0E",
"$$	c #0F0F0E",
"%$	c #272D2D",
"&$	c #5B696B",
"*$	c #5A6669",
"=$	c #353A3A",
"-$	c #1F2120",
";$	c #151717",
">$	c #141616",
",$	c #131515",
"'$	c #121414",
")$	c #121515",
"!$	c #131616",
"~$	c #131717",
"{$	c #141818",
"]$	c #151919",
"^$	c #171B1B",
"/$	c #1A1D1D",
"($	c #1B1D1D",
"_$	c #1A1E1E",
":$	c #2B3233",
"<$	c #556164",
"[$	c #3A3F40",
"}$	c #2D3132",
"|$	c #292E2F",
"1$	c #282F2F",
"2$	c #293031",
"3$	c #283032",
"4$	c #283031",
"5$	c #282F31",
"6$	c #2A3336",
"7$	c #2B3638",
"8$	c #2D383A",
"9$	c #2F3B3E",
"0$	c #2F3C3F",
"a$	c #333E41",
"b$	c #424C4E",
"c$	c #444E4F",
"d$	c #434E4F",
"e$	c #434F50",
"f$	c #516163",
"g$	c #4F5B5E",
"h$	c #495052",
"i$	c #3C4345",
"j$	c #3D4547",
"k$	c #3E4648",
"l$	c #3F484A",
"m$	c #404B4E",
"n$	c #404C4E",
"o$	c #414D4F",
"p$	c #435155",
"q$	c #465458",
"r$	c #48585B",
"s$	c #4A5B60",
"t$	c #4B5D61",
"u$	c #4B5C61",
"v$	c #506165",
"w$	c #5C6D6E",
"x$	c #657576",
"y$	c #687779",
"z$	c #677678",
"A$	c #5E6E70",
"B$	c #556466",
"C$	c #484F51",
"D$	c #4F5C5F",
"E$	c #4A5557",
"F$	c #454D4F",
"G$	c #4B575A",
"H$	c #4B585A",
"I$	c #4D5C5E",
"J$	c #4F5F62",
"K$	c #516165",
"L$	c #54666B",
"M$	c #596A6E",
"N$	c #647577",
"O$	c #6D7D7F",
"P$	c #707F81",
"Q$	c #6E7E80",
"R$	c #647476",
"S$	c #556265",
"T$	c #FF992C",
"U$	c #474F52",
"V$	c #4D585B",
"W$	c #4E5B5F",
"X$	c #576365",
"Y$	c #5D6A6C",
"Z$	c #5D696B",
"`$	c #566265",
" %	c #4A5255",
".%	c #4C585B",
"+%	c #4A5254",
"@%	c #4B5355",
"#%	c #495153",
"$%	c #474D4F",
"%%	c #44494B",
"&%	c #44484A",
"*%	c #44484B",
"=%	c #414144",
"-%	c #404042",
";%	c #454B4D",
">%	c #414648",
",%	c #3F4547",
"'%	c #3E4345",
")%	c #3E4043",
"!%	c #3E3D3F",
"~%	c #3E3C3E",
"{%	c #3E3B3E",
"]%	c #3E3A3D",
"^%	c #3C3639",
"/%	c #3C383B",
"(%	c #3A393C",
"_%	c #464C4D",
":%	c #414748",
"<%	c #3B4243",
"[%	c #394042",
"}%	c #393A3C",
"|%	c #39393C",
"1%	c #39363A",
"2%	c #393235",
"3%	c #393034",
"4%	c #393033",
"5%	c #392F33",
"6%	c #382E32",
"7%	c #383235",
"8%	c #38393B",
"9%	c #4B3F38",
"0%	c #796F47",
"                                                                                                                                ",
". . . . . . + . + . + . + + + @ . . . . . . + . + . + . + + + @ . . . . . . + . + . + . + + + @ . . . . . . + . + . + . + + + @ ",
". + + + + + + + + + + + + + + @ . + + + + + + + + + + + + + + @ . + + + + + + + + + + + + + + @ . + + + + + + + + + + + + + + @ ",
". + # + + # # # # . + + + # + @ $ % & * = - ; > , ' ' ' ) ! ~ { ] ^ / ( ' _ : < [ } | 1 2 3 4 @ . + # + + # # # # . + + + # + @ ",
". @ + + # @ @ @ @ @ @ + @ + + @ 5 % 6 7 6 8 9 0 a b c c d e f g h i j k c k l m n o p p p q r @ . @ + + # @ @ @ @ @ @ + @ + + @ ",
". + + # @ @ @ @ @ @ @ @ . + + @ s t u v w x y z A B B B B C D E . { F G B G H i I J K K J i L @ . + + # @ @ @ @ @ @ @ @ . + + @ ",
". + # @ @ @ M N N M @ @ @ . + @ O P Q r g h h h . R . . E . . . . . . S S S S T . . . . { f U @ . + # @ @ @ M N N M @ @ @ . + @ ",
". + # @ @ M N N N N M @ @ # + @ V W X . Y Z Z Z Z ` Z Y  . .....+.@.@.@.@.#.$.$.%.. . . &.*.=.@ . + # @ @ M N N N N M @ @ # + @ ",
". + # @ @ N N -.-.N N @ @ # + @ ;.>.,.'.).!.!.!.!.!.~.{.].^.]./.(._._._.:.<.[.[.}.|.+.+. .L D @ . + # @ @ N N -.-.N N @ @ # + @ ",
". + # @ @ N N 1.1.N N @ @ # + @ V 2.@.3.4.5.6.6.6.6.7.8.9.9.0.a.b.b.b.c.d.e.f.f.g.h.3.i.j.k.. @ . + # @ @ N N 1.1.N N @ @ # + @ ",
"# . l.+ + m.m.1.1.m.m.+ + l.. + n.o.'.p.q.r.s.t.t.t.u.v.w.w.x.y.z.z.z.z.A.B.B.B.C.D.E.F.G.+.. + # . l.+ + m.m.1.1.m.m.+ + l.. + ",
". + # @ @ N N 1.1.N N @ @ # + @ n.H.I.J.K.L.M.N.N.O.P.Q.R.S.T.U.V.W.X.Y.Z.`.`.`. + +.+++@+@.. @ . + # @ @ N N 1.1.N N @ @ # + @ ",
"# . l.+ + m.m.1.1.m.m.+ + l.. + n.H.#+$+%+&+*+=+-+;+>+,+'+)+T.!+~+{+]+^+/+(+(+(+(+(+^+_++ :+. + # . l.+ + m.m.1.1.m.m.+ + l.. + ",
"# . l.+ + m.m.1.1.m.m.+ + l.. @ <+H.[+}+K.|+1+2+2+3+4+5+'+6+7+!+8+]+^+9+9+9+9+9+9+9+0+a+b+c+. @ # . l.+ + m.m.1.1.m.m.+ + l.. @ ",
"# . l.+ + m.m.1.1.m.m.+ + l.. + d+e+j.f+g+h+i+j+j+j+'+k+l+W.m+{+]+9+9+9+9+9+9+9+9+9+0+n+o+p+. + # . l.+ + m.m.1.1.m.m.+ + l.. + ",
"# . l.+ + m.m.1.1.m.m.+ + l.. @ q+r+s+t+u+v+j+'+'+w+l+7+x+~+]+y+^+9+9+9+9+9+9+9+9+9+9+z+A+B+S @ # . l.+ + m.m.1.1.m.m.+ + l.. @ ",
"# . l.+ + m.m.1.1.m.m.+ + l.. + C+D+E+F+G+3+'+k+w+6+W.m+8+]+^+9+9+9+9+9+9+9+9+9+9+9+9+H+I+J+E + # . l.+ + m.m.1.1.m.m.+ + l.. + ",
"# . l.+ + m.m.1.1.m.m.+ + l.. + K+e+E+F+N.3+L+6+7+!+m+]+^+^+9+9+9+9+9+9+9+9+9+9+9+9+9+H+M+J+E + # . l.+ + m.m.1.1.m.m.+ + l.. + ",
"# . l.+ + m.m.1.1.m.m.+ + l.. + N+O+s+F+P+Q+R+7+m+8+S+0+9+9+9+9+9+9+9+9+9+9+9+9+9+9+9+>+T+U+E + # . l.+ + m.m.1.1.m.m.+ + l.. + ",
"# . l.+ + m.m.1.1.m.m.+ + l.. + V+W+X+Y+Z+`+)+U. @^+9+9+9+9+9+9+9+9+9+9+9+9+9+9+9+9+9+>+A+] E + # . l.+ + m.m.1.1.m.m.+ + l.. + ",
"# . l.+ + m.m.1.1.m.m.+ + l.. . .@U +@@@P.#@l+m+]+9+9+9+9+9+9+9+9+9+9+9+9+9+9+9+9+9+9+3+$@%@S . # . l.+ + m.m.1.1.m.m.+ + l.. . ",
"&@. l.+ + m.m.1.1.m.m.+ + l.. + *@U +@Y+=@#@7+8+^+9+9+9+9+9+9+9+9+9+9+9+9+9+9+9+9+9+-@;@>@I ,@+ &@. l.+ + m.m.1.1.m.m.+ + l.. + ",
"# . l.+ + m.m.1.1.m.m.+ + l.. . *@U +@Y+'@)@U.]+9+9+!@~@{@]@^@/@(@_@:@9+9+9+9+9+9+9+-@<@[@}@p+. # . l.+ + m.m.1.1.m.m.+ + l.. . ",
"&@. l.+ + m.m.1.1.m.m.+ + l.. + *@U +@|@1@L+~+^+9+2@3@4@4@4@4@4@4@4@4@_@x.9+9+9+9+9+-@5@6@7@8@+ &@. l.+ + m.m.1.1.m.m.+ + l.. + ",
"# . l.+ + m.m.1.1.m.m.+ + l.. . *@U +@9@0@T.S+9+9+~@4@4@4@4@4@4@4@4@4@4@a@9+9+9+9+9+-@2+b@c@8@. # . l.+ + m.m.1.1.m.m.+ + l.. . ",
"&@. l.+ + m.m.1.1.m.m.+ + l.. + *@U d@e@f@m+y+9+9+g@h@i@j@!@k@l@m@4@4@4@n@9+9+9+9+9+o@p@q@r@] + &@. l.+ + m.m.1.1.m.m.+ + l.. + ",
"&@. l.+ + m.m.1.1.m.m.+ + l.. + *@U s@t@u@m+]+9+9+9+v@9+9+9+9+9+w@^@4@4@x@9+9+9+9+9+y@z@A@B@{ + &@. l.+ + m.m.1.1.m.m.+ + l.. + ",
"&@. l.+ + m.m.1.1.m.m.+ + l.. + *@U C@D@6+m+]+9+9+9+9+9+9+9+9+9+E@F@4@4@G@9+9+9+9+9+y@z@H@I@{ + &@. l.+ + m.m.1.1.m.m.+ + l.. + ",
"&@. l.+ + m.m.1.1.m.m.+ + l.. @ J@U C@K@u@m+]+9+9+9+9+9+9+w@L@M@N@4@4@(@O@9+9+9+9+9+y@P@H@I@{ @ &@. l.+ + m.m.1.1.m.m.+ + l.. @ ",
"&@. l.+ + m.m.1.1.m.m.+ + l.. + Q@J s@R@u@~+y+9+9+9+9+S@4@4@4@4@4@3@_@T@9+9+9+9+9+9+y@P@H@I@{ + &@. l.+ + m.m.1.1.m.m.+ + l.. + ",
"&@. l.+ + m.m.1.1.m.m.+ + l.. @ U@L C@V@6+m+]+9+9+9+9+S@4@4@4@4@4@W@X@x.9+9+9+9+9+9+y@P@H@I@{ @ &@. l.+ + m.m.1.1.m.m.+ + l.. @ ",
"&@. l.+ + m.m.1.1.m.m.+ + l.. + Y@Z@`@ #S.m+]+9+9+9+9+S@4@4@4@4@4@4@4@.#+#9+9+9+9+9+y@z@H@I@{ + &@. l.+ + m.m.1.1.m.m.+ + l.. + ",
"&@. l.+ + m.m.1.1.m.m.+ + l.. @ @###`@ #S.{+y+9+9+9+9+$#%#&#*#=#-#4@4@4@;#9+9+9+9+9+y@z@H@>#{ @ &@. l.+ + m.m.1.1.m.m.+ + l.. @ ",
"&@. l.+ + m.m.1.1.m.m.+ + l.. @ ,#Z@`@ #u@]+9+9+9+9+9+9+9+9+9+9+$#'#4@4@4@)#9+9+9+9+0+!#~#{#{ @ &@. l.+ + m.m.1.1.m.m.+ + l.. @ ",
"&@. l.+ + m.m.1.1.m.m.+ + l.. @ ]#{ `@ #u@y+9+9+9+9+9+9+9+9+9+9+9+^#4@4@4@/#9+9+9+9+0+(#_#:#L @ &@. l.+ + m.m.1.1.m.m.+ + l.. @ ",
"&@. l.+ + m.m.1.1.m.m.+ + l.. @ <#{ [# #6+]+9+9+$#}#9+9+9+9+9+9+|#1#4@4@4@)#9+9+9+9+y+2#3#4###@ &@. l.+ + m.m.1.1.m.m.+ + l.. @ ",
"&@. l.+ + m.m.1.1.m.m.+ + l.. @ <#{ `@ #u@]+9+9+5#]@6#7#!@8#9#0#a#4@4@4@b#g@9+9+9+9+y+2#c#4#d#@ &@. l.+ + m.m.1.1.m.m.+ + l.. @ ",
"&@. l.+ + m.m.1.1.m.m.+ + l.. @ <#{ e#f#T.^+9+9+5#4@4@4@4@4@4@4@4@4@4@4@g#9+9+9+9+9+0+h#i#2 r @ &@. l.+ + m.m.1.1.m.m.+ + l.. @ ",
"&@. l.+ + m.m.1.1.m.m.+ + l.. @ <#{ j#k#l#9+9+9+5#4@4@4@4@4@4@4@4@4@/@m#9+9+9+9+9+9+y+n#o#Q J @ &@. l.+ + m.m.1.1.m.m.+ + l.. @ ",
"&@. l.+ + m.m.1.1.m.m.+ + l.. @ <#{ p#q#u@9+9+9+9+r#s#{@(@t#/@u#v#w#x#9+9+9+9+9+9+9+y+2#3#4#I @ &@. l.+ + m.m.1.1.m.m.+ + l.. @ ",
"&@. l.+ + m.m.1.1.m.m.+ + l.. @ <#{ y#k#l#9+9+9+9+9+9+9+9+9+9+9+9+9+9+9+9+9+9+9+9+9+0+z#A#B#J @ &@. l.+ + m.m.1.1.m.m.+ + l.. @ ",
"&@. l.+ + m.m.1.1.m.m.+ + l.. @ <#{ y#k#u@9+9+9+9+9+9+9+9+9+9+9+9+9+9+9+9+9+9+9+9+9+0+z#C#D#J @ &@. l.+ + m.m.1.1.m.m.+ + l.. @ ",
". . l.+ + m.m.1.1.m.m.+ + l.. @ <#{ E#F#G#9+9+9+9+9+9+9+9+9+9+9+9+9+9+9+9+9+9+9+9+9+y+H#I#J#4 @ . . l.+ + m.m.1.1.m.m.+ + l.. @ ",
"&@. l.+ + m.m.1.1.m.m.+ + l.. @ <#{ K#L#M#9+9+9+9+9+9+9+9+9+9+9+9+9+9+9+9+9+9+9+9+9+y+N#O#P#Q#@ &@. l.+ + m.m.1.1.m.m.+ + l.. @ ",
". . l.+ + m.m.1.1.m.m.+ + l.. @ <#{ R#S#M#9+9+9+9+9+9+9+9+9+9+9+9+9+9+9+9+9+9+9+9+9+y+T#O#P#Q#@ . . l.+ + m.m.1.1.m.m.+ + l.. @ ",
"&@. l.+ + m.m.1.1.m.m.+ + l.. @ <#{ R#S#M#9+9+9+9+9+9+9+9+9+9+9+9+9+9+9+9+9+9+9+9+9+y+T#O#P#Q#@ &@. l.+ + m.m.1.1.m.m.+ + l.. @ ",
". . l.+ + m.m.1.1.m.m.+ + l.. @ <#{ R#S#M#9+9+9+9+9+9+9+9+9+9+9+9+9+9+9+9+9+9+9+9+9+U#V#u W#Q#@ . . l.+ + m.m.1.1.m.m.+ + l.. @ ",
"&@. l.+ + m.m.1.1.m.m.+ + l.. @ <#{ X#p.Y#-@(+(+Z#Z#`#`#`#`#`#`#`# $ $ $ $ $.$+$@$#$$$%$&$*$Q#@ &@. l.+ + m.m.1.1.m.m.+ + l.. @ ",
". . l.+ + m.m.1.1.m.m.+ + l.. @ <#{ +.=$-$u@l#W.;$>$,$'$'$'$'$'$)$!$~${${${$]$^$/$($_$:$c#<$J @ . . l.+ + m.m.1.1.m.m.+ + l.. @ ",
". . l.+ + m.m.1.1.m.m.+ + l.. @ <#{ k.[$}$|$|$|$1$2$3$4$5$5$5$3$6$7$8$9$0$0$a$M+b$c$d$e$f$g$h$@ . . l.+ + m.m.1.1.m.m.+ + l.. @ ",
". . # + + m.m.1.1.m.m.+ + l.. @ <#K . E#i$j$T+k$l$m$6@n$n$n$n$o$p$q$r$s$t$u$v$w$x$y$z$A$B$B C$@ . . # + + m.m.1.1.m.m.+ + l.. @ ",
". . l.+ + m.m.-.-.m.m.+ + l.. @ D$H E$. F$p+B+B+J }@G$G$G$G$G$H$I$J$K$e L$L$M$N$O$P$Q$R$S$p J @ . . l.+ + m.m.-.-.m.m.+ + l.. @ ",
". . # + + T$m.m.m.m.T$+ + l.. @ o q o U$T C${ { %@r J J J J J ,.H G V$o W$W$]#X$W#Y$Z$`$A ]#E$@ . . # + + T$m.m.m.m.T$+ + l.. @ ",
". . # + + + T$m.m.T$+ + + l.. @ F  %.%g . . . . . S S S S S S S h h g U$U+U${ +%@%4 @%#%$%W+E @ . . # + + + T$m.m.T$+ + + l.. @ ",
". . . # + + + + + + + + l.. . @ R %%S :+:+:+:+:+k.k.k.k.k.%%&%&%&%&%&%&%*%*%&%&%%%%%%%Y =%Z -%@ . . . # + + + + + + + + l.. . @ ",
". . . . # + + + + + + l.. . . @ ;%>%,%<.<.<.<.<.<.'%s@s@)%+@!%~%{%{%{%{%{%{%{%{%{%{%{%]%^%/%(%@ . . . . # + + + + + + l.. . . @ ",
". . . . . # l.# l.l.l.. . . . @ _%:%<%[%[%[%[%[%[%3.}%|%|%1%2%3%4%4%4%4%4%4%4%4%4%4%4%5%6%7%8%@ . . . . . # l.# l.l.l.. . . . @ ",
". + . . . . . . + . . . . . . @ . + . . . . . . + . . . . . . @ . + . . . . . . + . . . . . . @ . + . . . . . . + . . . . . . @ ",
"+ . . . . . . . . . . . . . . @ + . . . . . . . . . . . . . . @ + . . . . . . . . . . . . . . @ + . . . . . . . . . . . . . . @ ",
". . 9%0%l.. . . . . . l.0%. 9%@ . . 9%0%l.. . . . . . l.0%. 9%@ . . 9%0%l.. . . . . . l.0%. 9%@ . . 9%0%l.. . . . . . l.0%. 9%@ ",
"+ . @ 0%0%. . + . . @ 0%0%. . @ + . @ 0%0%. . + . . @ 0%0%. . @ + . @ 0%0%. . + . . @ 0%0%. . @ + . @ 0%0%. . + . . @ 0%0%. . @ ",
". . @ @ 9%. . . . . @ @ . . 9%@ . . @ @ 9%. . . . . @ @ . . 9%@ . . @ @ 9%. . . . . @ @ . . 9%@ . . @ @ 9%. . . . . @ @ . . 9%@ ",
". . . 9%9%. . . . . . . . 9%. @ . . . 9%9%. . . . . . . . 9%. @ . . . 9%9%. . . . . . . . 9%. @ . . . 9%9%. . . . . . . . 9%. @ ",
"9+@ 9+9+9+9+@ 9+@ @ @ @ @ @ @ @ 9+@ 9+9+9+9+@ 9+@ @ @ @ @ @ @ @ 9+@ 9+9+9+9+@ 9+@ @ @ @ @ @ @ @ 9+@ 9+9+9+9+@ 9+@ @ @ @ @ @ @ @ "};
