/* XPM */
static char * scoresix_xpm[] = {
"64 64 593 2",
"  	c #000000",
". 	c #464D4F",
"+ 	c #383F40",
"@ 	c #382B2F",
"# 	c #62797E",
"$ 	c #535E61",
"% 	c #6A7A7C",
"& 	c #7E9193",
"* 	c #829496",
"= 	c #819496",
"- 	c #7B8E90",
"; 	c #738789",
"> 	c #6D8285",
", 	c #64797E",
"' 	c #5E757A",
") 	c #5F757A",
"! 	c #5B6F74",
"~ 	c #515F62",
"{ 	c #485052",
"] 	c #475052",
"^ 	c #4D5A5C",
"/ 	c #586A6D",
"( 	c #5D7477",
"_ 	c #5E7378",
": 	c #5B6E73",
"< 	c #596B6F",
"[ 	c #56666A",
"} 	c #536164",
"| 	c #536063",
"1 	c #535F62",
"2 	c #535F61",
"3 	c #505C5F",
"4 	c #4B5456",
"5 	c #5A686A",
"6 	c #718183",
"7 	c #728284",
"8 	c #6C7C7E",
"9 	c #667779",
"0 	c #627376",
"a 	c #5B6C70",
"b 	c #58696D",
"c 	c #586A6E",
"d 	c #57696D",
"e 	c #546569",
"f 	c #4D595C",
"g 	c #474F51",
"h 	c #474E50",
"i 	c #4B5557",
"j 	c #526164",
"k 	c #57686C",
"l 	c #556568",
"m 	c #526265",
"n 	c #505F62",
"o 	c #4E5B5E",
"p 	c #4E5A5C",
"q 	c #4D595B",
"r 	c #495254",
"s 	c #657577",
"t 	c #69797B",
"u 	c #5E6B6D",
"v 	c #596465",
"w 	c #586365",
"x 	c #566062",
"y 	c #535D5F",
"z 	c #515C5E",
"A 	c #4E595C",
"B 	c #4D585A",
"C 	c #4C5658",
"D 	c #485154",
"E 	c #464D50",
"F 	c #4B5457",
"G 	c #4C575A",
"H 	c #4B5658",
"I 	c #4A5456",
"J 	c #495355",
"K 	c #485254",
"L 	c #495154",
"M 	c #0095F6",
"N 	c #00C5F4",
"O 	c #6F8082",
"P 	c #647376",
"Q 	c #546163",
"R 	c #464C4E",
"S 	c #464E50",
"T 	c #464E4F",
"U 	c #4A5457",
"V 	c #758688",
"W 	c #5C696C",
"X 	c #505C60",
"Y 	c #434749",
"Z 	c #434648",
"` 	c #434547",
" .	c #43474A",
"..	c #43484A",
"+.	c #43494B",
"@.	c #434A4C",
"#.	c #434B4C",
"$.	c #444C4D",
"%.	c #454C4E",
"&.	c #474E51",
"*.	c #4E5A5E",
"=.	c #4B5559",
"-.	c #C6F6FF",
";.	c #768689",
">.	c #555F62",
",.	c #495356",
"'.	c #404748",
").	c #3B3C3E",
"!.	c #3B383A",
"~.	c #3B393B",
"{.	c #3B3B3D",
"].	c #3B3D3F",
"^.	c #3B3C3F",
"/.	c #3B3F41",
"(.	c #3B4143",
"_.	c #3B4244",
":.	c #3D4445",
"<.	c #3E4547",
"[.	c #3F4647",
"}.	c #414849",
"|.	c #42494B",
"1.	c #F5F9ED",
"2.	c #535C5E",
"3.	c #393E3F",
"4.	c #313031",
"5.	c #30292C",
"6.	c #2F272A",
"7.	c #2F292B",
"8.	c #2F2C2E",
"9.	c #2E2E30",
"0.	c #2E2F30",
"a.	c #2E3133",
"b.	c #2E3435",
"c.	c #2F3536",
"d.	c #313737",
"e.	c #33393A",
"f.	c #34393A",
"g.	c #363B3C",
"h.	c #383D3E",
"i.	c #3B4041",
"j.	c #3F4244",
"k.	c #444A4C",
"l.	c #5594B7",
"m.	c #09E4FC",
"n.	c #768789",
"o.	c #535E5F",
"p.	c #333738",
"q.	c #2B2F31",
"r.	c #282A2C",
"s.	c #232122",
"t.	c #221E20",
"u.	c #221E1F",
"v.	c #212021",
"w.	c #202021",
"x.	c #202020",
"y.	c #202121",
"z.	c #202323",
"A.	c #212424",
"B.	c #232626",
"C.	c #252828",
"D.	c #252929",
"E.	c #26292A",
"F.	c #2C3030",
"G.	c #3B3E40",
"H.	c #545E60",
"I.	c #404546",
"J.	c #333839",
"K.	c #333D40",
"L.	c #303A3C",
"M.	c #212527",
"N.	c #1E2121",
"O.	c #1D1F20",
"P.	c #1C1D1E",
"Q.	c #1B1D1E",
"R.	c #191B1B",
"S.	c #181A1A",
"T.	c #171919",
"U.	c #171718",
"V.	c #171717",
"W.	c #171818",
"X.	c #171817",
"Y.	c #161716",
"Z.	c #151715",
"`.	c #151716",
" +	c #161816",
".+	c #181818",
"++	c #222323",
"@+	c #383D3F",
"#+	c #404345",
"$+	c #35383B",
"%+	c #394548",
"&+	c #364245",
"*+	c #242A2C",
"=+	c #202425",
"-+	c #1F2324",
";+	c #1E2223",
">+	c #1D2021",
",+	c #1C1F20",
"'+	c #191B1D",
")+	c #18191B",
"!+	c #161718",
"~+	c #161617",
"{+	c #161616",
"]+	c #151515",
"^+	c #141414",
"/+	c #131313",
"(+	c #131312",
"_+	c #1E1F1F",
":+	c #444B4D",
"<+	c #748587",
"[+	c #3F4345",
"}+	c #333436",
"|+	c #303B3E",
"1+	c #212729",
"2+	c #1D2123",
"3+	c #1C2021",
"4+	c #1B1F20",
"5+	c #1A1D1F",
"6+	c #18191A",
"7+	c #171819",
"8+	c #151616",
"9+	c #141413",
"0+	c #141514",
"a+	c #1D2121",
"b+	c #3A4345",
"c+	c #454E50",
"d+	c #6D7E81",
"e+	c #515B5D",
"f+	c #2F2D2F",
"g+	c #272E30",
"h+	c #262C2F",
"i+	c #1D2022",
"j+	c #1A1C1E",
"k+	c #181A1C",
"l+	c #17191A",
"m+	c #161717",
"n+	c #1E2222",
"o+	c #3D4748",
"p+	c #465052",
"q+	c #67787B",
"r+	c #4F595B",
"s+	c #3F4143",
"t+	c #2D2A2C",
"u+	c #212426",
"v+	c #1F2325",
"w+	c #181A1B",
"x+	c #161818",
"y+	c #151514",
"z+	c #1E2221",
"A+	c #3D4749",
"B+	c #475153",
"C+	c #697B7E",
"D+	c #505A5C",
"E+	c #3F4144",
"F+	c #2C282B",
"G+	c #1E2122",
"H+	c #1C2020",
"I+	c #3C4748",
"J+	c #465053",
"K+	c #6C7D80",
"L+	c #191B1C",
"M+	c #3C4648",
"N+	c #66777A",
"O+	c #4E585B",
"P+	c #1E2021",
"Q+	c #1C1F21",
"R+	c #191A1B",
"S+	c #151615",
"T+	c #3D4648",
"U+	c #475053",
"V+	c #5D6F73",
"W+	c #4B5558",
"X+	c #3F4042",
"Y+	c #2C282A",
"Z+	c #1D1E20",
"`+	c #1B1D1F",
" @	c #151516",
".@	c #5A6C71",
"+@	c #3E3F42",
"@@	c #2C2729",
"#@	c #1A1C1D",
"$@	c #3D494B",
"%@	c #485153",
"&@	c #536265",
"*@	c #596C70",
"=@	c #1C1E1E",
"-@	c #747474",
";@	c #C2C2C2",
">@	c #E5E5E5",
",@	c #F5F5F5",
"'@	c #FCFCFC",
")@	c #FFFFFF",
"!@	c #F8F8F8",
"~@	c #7A7A7A",
"{@	c #131413",
"]@	c #1D2223",
"^@	c #414D50",
"/@	c #464F51",
"(@	c #1D1F1F",
"_@	c #1A1D1E",
":@	c #3A3A39",
"<@	c #CFCFCF",
"[@	c #828282",
"}@	c #1D2324",
"|@	c #424F53",
"1@	c #4A5558",
"2@	c #2C272A",
"3@	c #1C1D1D",
"4@	c #313130",
"5@	c #E3E3E3",
"6@	c #1C2122",
"7@	c #404C4F",
"8@	c #485356",
"9@	c #464F52",
"0@	c #2B2729",
"a@	c #1A1A1B",
"b@	c #C4C4C4",
"c@	c #E4E4E4",
"d@	c #9F9F9F",
"e@	c #666665",
"f@	c #3D3D3C",
"g@	c #424241",
"h@	c #404C50",
"i@	c #495457",
"j@	c #3E4042",
"k@	c #2B2829",
"l@	c #19191A",
"m@	c #5E5E5E",
"n@	c #CECECE",
"o@	c #252525",
"p@	c #131414",
"q@	c #1E2325",
"r@	c #435054",
"s@	c #4B5659",
"t@	c #3E4143",
"u@	c #2B2B2C",
"v@	c #181919",
"w@	c #B5B5B5",
"x@	c #3F3F3F",
"y@	c #131514",
"z@	c #1E2526",
"A@	c #455458",
"B@	c #4B585B",
"C@	c #3E4244",
"D@	c #2B2C2D",
"E@	c #DFDFDF",
"F@	c #CDCDCD",
"G@	c #F3F3F3",
"H@	c #F1F1F1",
"I@	c #C9C9C9",
"J@	c #5B5B5B",
"K@	c #455558",
"L@	c #4B595C",
"M@	c #586B6F",
"N@	c #2B2A2C",
"O@	c #C1C1C1",
"P@	c #F4F4F4",
"Q@	c #6B6B6B",
"R@	c #1F2526",
"S@	c #56686B",
"T@	c #2B2A2B",
"U@	c #1B1B1A",
"V@	c #FEFEFE",
"W@	c #FBFBFB",
"X@	c #E2E2E2",
"Y@	c #536266",
"Z@	c #2B2D2E",
"`@	c #4C4C4C",
" #	c #797979",
".#	c #464646",
"+#	c #959595",
"@#	c #F7F7F7",
"##	c #717171",
"$#	c #536467",
"%#	c #495255",
"&#	c #3E4446",
"*#	c #2B2F30",
"=#	c #373737",
"-#	c #B1B1B1",
";#	c #A4A4A4",
">#	c #56676A",
",#	c #4A5356",
"'#	c #2D2D2D",
")#	c #D4D4D4",
"!#	c #B3B3B3",
"~#	c #4C595C",
"{#	c #546367",
"]#	c #F6F6F6",
"^#	c #8C8C8C",
"/#	c #ACACAC",
"(#	c #1F2627",
"_#	c #475659",
":#	c #4D5A5D",
"<#	c #505D60",
"[#	c #D2D2D2",
"}#	c #FDFDFD",
"|#	c #686868",
"1#	c #BCBCBC",
"2#	c #8D8D8D",
"3#	c #222829",
"4#	c #4D5C5F",
"5#	c #505E61",
"6#	c #4E5C5F",
"7#	c #3D4446",
"8#	c #929292",
"9#	c #EAEAEA",
"0#	c #7E7E7E",
"a#	c #A3A3A3",
"b#	c #FAFAFA",
"c#	c #252C2C",
"d#	c #546365",
"e#	c #556264",
"f#	c #D6D6D6",
"g#	c #556365",
"h#	c #4A5355",
"i#	c #3E4546",
"j#	c #2C3132",
"k#	c #484848",
"l#	c #DBDBDB",
"m#	c #CBCBCB",
"n#	c #23292A",
"o#	c #505F61",
"p#	c #3F4648",
"q#	c #2E3334",
"r#	c #181918",
"s#	c #A0A0A0",
"t#	c #DDDDDD",
"u#	c #D9D9D9",
"v#	c #939393",
"w#	c #252B2B",
"x#	c #526163",
"y#	c #404749",
"z#	c #2F3335",
"A#	c #404648",
"B#	c #242A2B",
"C#	c #516062",
"D#	c #536062",
"E#	c #526063",
"F#	c #546062",
"G#	c #414749",
"H#	c #303536",
"I#	c #181A19",
"J#	c #272E2E",
"K#	c #596769",
"L#	c #596567",
"M#	c #41484A",
"N#	c #323638",
"O#	c #191A1A",
"P#	c #293030",
"Q#	c #5D6B6D",
"R#	c #5B686A",
"S#	c #4C5456",
"T#	c #42484A",
"U#	c #323738",
"V#	c #2A2F30",
"W#	c #121312",
"X#	c #292F2F",
"Y#	c #5C686A",
"Z#	c #42494A",
"`#	c #1A1B1A",
" $	c #121211",
".$	c #121110",
"+$	c #111110",
"@$	c #11110F",
"#$	c #10100F",
"$$	c #11100E",
"%$	c #100F0E",
"&$	c #0F0F0E",
"*$	c #272D2D",
"=$	c #5B696B",
"-$	c #5A6669",
";$	c #353A3A",
">$	c #1F2120",
",$	c #151717",
"'$	c #141616",
")$	c #131515",
"!$	c #121414",
"~$	c #121515",
"{$	c #131616",
"]$	c #131717",
"^$	c #141818",
"/$	c #151919",
"($	c #171B1B",
"_$	c #1A1D1D",
":$	c #1B1D1D",
"<$	c #1A1E1E",
"[$	c #2B3233",
"}$	c #556164",
"|$	c #3A3F40",
"1$	c #2D3132",
"2$	c #292E2F",
"3$	c #282F2F",
"4$	c #293031",
"5$	c #283032",
"6$	c #283031",
"7$	c #282F31",
"8$	c #2A3336",
"9$	c #2B3638",
"0$	c #2D383A",
"a$	c #2F3B3E",
"b$	c #2F3C3F",
"c$	c #333E41",
"d$	c #424C4E",
"e$	c #444E4F",
"f$	c #434E4F",
"g$	c #434F50",
"h$	c #516163",
"i$	c #4F5B5E",
"j$	c #495052",
"k$	c #3C4345",
"l$	c #3D4547",
"m$	c #3E4648",
"n$	c #3F484A",
"o$	c #404B4E",
"p$	c #404C4E",
"q$	c #414D4F",
"r$	c #435155",
"s$	c #465458",
"t$	c #48585B",
"u$	c #4A5B60",
"v$	c #4B5D61",
"w$	c #4B5C61",
"x$	c #506165",
"y$	c #5C6D6E",
"z$	c #657576",
"A$	c #687779",
"B$	c #677678",
"C$	c #5E6E70",
"D$	c #556466",
"E$	c #484F51",
"F$	c #4F5C5F",
"G$	c #4A5557",
"H$	c #454D4F",
"I$	c #4B575A",
"J$	c #4B585A",
"K$	c #4D5C5E",
"L$	c #4F5F62",
"M$	c #516165",
"N$	c #54666B",
"O$	c #596A6E",
"P$	c #647577",
"Q$	c #6D7D7F",
"R$	c #707F81",
"S$	c #6E7E80",
"T$	c #647476",
"U$	c #556265",
"V$	c #009DEB",
"W$	c #474F52",
"X$	c #4D585B",
"Y$	c #4E5B5F",
"Z$	c #576365",
"`$	c #5D6A6C",
" %	c #5D696B",
".%	c #566265",
"+%	c #4A5255",
"@%	c #4C585B",
"#%	c #4A5254",
"$%	c #4B5355",
"%%	c #495153",
"&%	c #474D4F",
"*%	c #44494B",
"=%	c #44484A",
"-%	c #44484B",
";%	c #414144",
">%	c #404042",
",%	c #454B4D",
"'%	c #414648",
")%	c #3F4547",
"!%	c #3E4345",
"~%	c #3E4043",
"{%	c #3E3D3F",
"]%	c #3E3C3E",
"^%	c #3E3B3E",
"/%	c #3E3A3D",
"(%	c #3C3639",
"_%	c #3C383B",
":%	c #3A393C",
"<%	c #464C4D",
"[%	c #414748",
"}%	c #3B4243",
"|%	c #394042",
"1%	c #393A3C",
"2%	c #39393C",
"3%	c #39363A",
"4%	c #393235",
"5%	c #393034",
"6%	c #393033",
"7%	c #392F33",
"8%	c #382E32",
"9%	c #383235",
"0%	c #38393B",
"a%	c #4B3F38",
"b%	c #2F5075",
"                                                                                                                                ",
". . . . . . + . + . + . + + + @ . . . . . . + . + . + . + + + @ . . . . . . + . + . + . + + + @ . . . . . . + . + . + . + + + @ ",
". + + + + + + + + + + + + + + @ . + + + + + + + + + + + + + + @ . + + + + + + + + + + + + + + @ . + + + + + + + + + + + + + + @ ",
". + # + + # # # # . + + + # + @ $ % & * = - ; > , ' ' ' ) ! ~ { ] ^ / ( ' _ : < [ } | 1 2 3 4 @ . + # + + # # # # . + + + # + @ ",
". @ + + # @ @ @ @ @ @ + @ + + @ 5 % 6 7 6 8 9 0 a b c c d e f g h i j k c k l m n o p p p q r @ . @ + + # @ @ @ @ @ @ + @ + + @ ",
". + + # @ @ @ @ @ @ @ @ . + + @ s t u v w x y z A B B B B C D E . { F G B G H i I J K K J i L @ . + + # @ @ @ @ @ @ @ @ . + + @ ",
". + # @ @ @ M N N M @ @ @ . + @ O P Q r g h h h . R . . E . . . . . . S S S S T . . . . { f U @ . + # @ @ @ M N N M @ @ @ . + @ ",
". + # @ @ M N N N N M @ @ # + @ V W X . Y Z Z Z Z ` Z Y  . .....+.@.@.@.@.#.$.$.%.. . . &.*.=.@ . + # @ @ M N N N N M @ @ # + @ ",
". + # @ @ N N -.-.N N @ @ # + @ ;.>.,.'.).!.!.!.!.!.~.{.].^.]./.(._._._.:.<.[.[.}.|.+.+. .L D @ . + # @ @ N N -.-.N N @ @ # + @ ",
". + # @ @ N N 1.1.N N @ @ # + @ V 2.@.3.4.5.6.6.6.6.7.8.9.9.0.a.b.b.b.c.d.e.f.f.g.h.3.i.j.k.. @ . + # @ @ N N 1.1.N N @ @ # + @ ",
"# . l.+ + m.m.1.1.m.m.+ + l.. + n.o.'.p.q.r.s.t.t.t.u.v.w.w.x.y.z.z.z.z.A.B.B.B.C.D.E.F.G.+.. + # . l.+ + m.m.1.1.m.m.+ + l.. + ",
". + # @ @ N N 1.1.N N @ @ # + @ n.H.I.J.K.L.M.N.N.O.P.Q.R.S.T.U.V.W.X.Y.Z.`.`.`. + +.+++@+@.. @ . + # @ @ N N 1.1.N N @ @ # + @ ",
"# . l.+ + m.m.1.1.m.m.+ + l.. + n.H.#+$+%+&+*+=+-+;+>+,+'+)+T.!+~+{+]+^+/+(+(+(+(+(+^+_++ :+. + # . l.+ + m.m.1.1.m.m.+ + l.. + ",
"# . l.+ + m.m.1.1.m.m.+ + l.. @ <+H.[+}+K.|+1+2+2+3+4+5+'+6+7+!+8+]+^+9+9+9+9+9+9+9+0+a+b+c+. @ # . l.+ + m.m.1.1.m.m.+ + l.. @ ",
"# . l.+ + m.m.1.1.m.m.+ + l.. + d+e+j.f+g+h+i+j+j+j+'+k+l+W.m+{+]+9+9+9+9+9+9+9+9+9+0+n+o+p+. + # . l.+ + m.m.1.1.m.m.+ + l.. + ",
"# . l.+ + m.m.1.1.m.m.+ + l.. @ q+r+s+t+u+v+j+'+'+w+l+7+x+~+]+y+^+9+9+9+9+9+9+9+9+9+9+z+A+B+S @ # . l.+ + m.m.1.1.m.m.+ + l.. @ ",
"# . l.+ + m.m.1.1.m.m.+ + l.. + C+D+E+F+G+3+'+k+w+6+W.m+8+]+^+9+9+9+9+9+9+9+9+9+9+9+9+H+I+J+E + # . l.+ + m.m.1.1.m.m.+ + l.. + ",
"# . l.+ + m.m.1.1.m.m.+ + l.. + K+e+E+F+N.3+L+6+7+!+m+]+^+^+9+9+9+9+9+9+9+9+9+9+9+9+9+H+M+J+E + # . l.+ + m.m.1.1.m.m.+ + l.. + ",
"# . l.+ + m.m.1.1.m.m.+ + l.. + N+O+s+F+P+Q+R+7+m+8+S+0+9+9+9+9+9+9+9+9+9+9+9+9+9+9+9+>+T+U+E + # . l.+ + m.m.1.1.m.m.+ + l.. + ",
"# . l.+ + m.m.1.1.m.m.+ + l.. + V+W+X+Y+Z+`+)+U. @^+9+9+9+9+9+9+9+9+9+9+9+9+9+9+9+9+9+>+A+] E + # . l.+ + m.m.1.1.m.m.+ + l.. + ",
"# . l.+ + m.m.1.1.m.m.+ + l.. . .@U +@@@P.#@l+m+]+9+9+9+9+9+9+9+9+9+9+9+9+9+9+9+9+9+9+3+$@%@S . # . l.+ + m.m.1.1.m.m.+ + l.. . ",
"&@. l.+ + m.m.1.1.m.m.+ + l.. + *@U +@Y+=@#@7+8+^+9+9+9+9+-@;@>@,@'@)@!@~@9+9+9+9+9+{@]@^@I /@+ &@. l.+ + m.m.1.1.m.m.+ + l.. + ",
"# . l.+ + m.m.1.1.m.m.+ + l.. . *@U +@Y+(@_@U.]+9+9+9+:@<@)@)@)@)@)@)@)@[@9+9+9+9+9+{@}@|@1@p+. # . l.+ + m.m.1.1.m.m.+ + l.. . ",
"&@. l.+ + m.m.1.1.m.m.+ + l.. + *@U +@2@3@L+~+^+9+9+4@5@)@)@)@)@)@)@)@)@[@9+9+9+9+9+{@6@7@8@9@+ &@. l.+ + m.m.1.1.m.m.+ + l.. + ",
"# . l.+ + m.m.1.1.m.m.+ + l.. . *@U +@0@a@T.S+9+9+9+b@)@)@)@c@d@e@f@f@e@g@9+9+9+9+9+{@2+h@i@9@. # . l.+ + m.m.1.1.m.m.+ + l.. . ",
"&@. l.+ + m.m.1.1.m.m.+ + l.. + *@U j@k@l@m+y+9+9+m@'@)@)@n@o@9+9+9+9+9+9+9+9+9+9+9+p@q@r@s@] + &@. l.+ + m.m.1.1.m.m.+ + l.. + ",
"&@. l.+ + m.m.1.1.m.m.+ + l.. + *@U t@u@v@m+]+9+9+w@)@)@,@x@9+9+9+9+9+9+9+9+9+9+9+9+y@z@A@B@{ + &@. l.+ + m.m.1.1.m.m.+ + l.. + ",
"&@. l.+ + m.m.1.1.m.m.+ + l.. + *@U C@D@6+m+]+9+9+E@)@)@F@m@<@G@'@H@I@J@9+9+9+9+9+9+y@z@K@L@{ + &@. l.+ + m.m.1.1.m.m.+ + l.. + ",
"&@. l.+ + m.m.1.1.m.m.+ + l.. @ M@U C@N@v@m+]+9+9+,@)@)@O@G@)@)@)@)@)@P@Q@9+9+9+9+9+y@R@K@L@{ @ &@. l.+ + m.m.1.1.m.m.+ + l.. @ ",
"&@. l.+ + m.m.1.1.m.m.+ + l.. + S@J t@T@v@~+y+9+U@V@)@)@W@)@)@)@)@)@)@)@X@9+9+9+9+9+y@R@K@L@{ + &@. l.+ + m.m.1.1.m.m.+ + l.. + ",
"&@. l.+ + m.m.1.1.m.m.+ + l.. @ Y@L C@Z@6+m+]+9+`@)@)@)@)@E@ #.#+#@#)@)@)@##9+9+9+9+y@R@K@L@{ @ &@. l.+ + m.m.1.1.m.m.+ + l.. @ ",
"&@. l.+ + m.m.1.1.m.m.+ + l.. + $#%#&#*#S.m+]+9+J@)@)@)@H@=#9+9+9+-#)@)@)@;#9+9+9+9+y@z@K@L@{ + &@. l.+ + m.m.1.1.m.m.+ + l.. + ",
"&@. l.+ + m.m.1.1.m.m.+ + l.. @ >#,#&#*#S.{+y+9+'#)@)@)@)#9+9+9+9+[@)@)@)@!#9+9+9+9+y@z@K@~#{ @ &@. l.+ + m.m.1.1.m.m.+ + l.. @ ",
"&@. l.+ + m.m.1.1.m.m.+ + l.. @ {#%#&#*#v@]+9+9+9+]#)@)@X@9+9+9+9+^#)@)@)@/#9+9+9+9+0+(#_#:#{ @ &@. l.+ + m.m.1.1.m.m.+ + l.. @ ",
"&@. l.+ + m.m.1.1.m.m.+ + l.. @ <#{ &#*#v@y+9+9+9+[#)@)@}#|#9+9+9+1#)@)@)@2#9+9+9+9+0+3#4#5#L @ &@. l.+ + m.m.1.1.m.m.+ + l.. @ ",
"&@. l.+ + m.m.1.1.m.m.+ + l.. @ 6#{ 7#*#6+]+9+9+9+8#)@)@)@9#0#`@a#b#)@)@@#:@9+9+9+9+y+c#d#e#,#@ &@. l.+ + m.m.1.1.m.m.+ + l.. @ ",
"&@. l.+ + m.m.1.1.m.m.+ + l.. @ 6#{ &#*#v@]+9+9+9+9+f#)@)@)@)@)@)@)@)@)@!#9+9+9+9+9+y+c#g#e#h#@ &@. l.+ + m.m.1.1.m.m.+ + l.. @ ",
"&@. l.+ + m.m.1.1.m.m.+ + l.. @ 6#{ i#j#T.^+9+9+9+9+k#l#)@)@)@)@)@)@)@m#U@9+9+9+9+9+0+n#o#2 r @ &@. l.+ + m.m.1.1.m.m.+ + l.. @ ",
"&@. l.+ + m.m.1.1.m.m.+ + l.. @ 6#{ p#q#r#9+9+9+9+9+9+x.s#t#G@}#,@u#v#9+9+9+9+9+9+9+y+w#x#Q J @ &@. l.+ + m.m.1.1.m.m.+ + l.. @ ",
"&@. l.+ + m.m.1.1.m.m.+ + l.. @ 6#{ y#z#v@9+9+9+9+9+9+9+9+9+9+9+9+9+9+9+9+9+9+9+9+9+y+c#d#e#I @ &@. l.+ + m.m.1.1.m.m.+ + l.. @ ",
"&@. l.+ + m.m.1.1.m.m.+ + l.. @ 6#{ A#q#r#9+9+9+9+9+9+9+9+9+9+9+9+9+9+9+9+9+9+9+9+9+0+B#C#D#J @ &@. l.+ + m.m.1.1.m.m.+ + l.. @ ",
"&@. l.+ + m.m.1.1.m.m.+ + l.. @ 6#{ A#q#v@9+9+9+9+9+9+9+9+9+9+9+9+9+9+9+9+9+9+9+9+9+0+B#E#F#J @ &@. l.+ + m.m.1.1.m.m.+ + l.. @ ",
". . l.+ + m.m.1.1.m.m.+ + l.. @ 6#{ G#H#I#9+9+9+9+9+9+9+9+9+9+9+9+9+9+9+9+9+9+9+9+9+y+J#K#L#4 @ . . l.+ + m.m.1.1.m.m.+ + l.. @ ",
"&@. l.+ + m.m.1.1.m.m.+ + l.. @ 6#{ M#N#O#9+9+9+9+9+9+9+9+9+9+9+9+9+9+9+9+9+9+9+9+9+y+P#Q#R#S#@ &@. l.+ + m.m.1.1.m.m.+ + l.. @ ",
". . l.+ + m.m.1.1.m.m.+ + l.. @ 6#{ T#U#O#9+9+9+9+9+9+9+9+9+9+9+9+9+9+9+9+9+9+9+9+9+y+V#Q#R#S#@ . . l.+ + m.m.1.1.m.m.+ + l.. @ ",
"&@. l.+ + m.m.1.1.m.m.+ + l.. @ 6#{ T#U#O#9+9+9+9+9+9+9+9+9+9+9+9+9+9+9+9+9+9+9+9+9+y+V#Q#R#S#@ &@. l.+ + m.m.1.1.m.m.+ + l.. @ ",
". . l.+ + m.m.1.1.m.m.+ + l.. @ 6#{ T#U#O#9+9+9+9+9+9+9+9+9+9+9+9+9+9+9+9+9+9+9+9+9+W#X#u Y#S#@ . . l.+ + m.m.1.1.m.m.+ + l.. @ ",
"&@. l.+ + m.m.1.1.m.m.+ + l.. @ 6#{ Z#p.`#{@(+(+ $ $.$.$.$.$.$.$.$+$+$+$+$+$@$#$$$%$&$*$=$-$S#@ &@. l.+ + m.m.1.1.m.m.+ + l.. @ ",
". . l.+ + m.m.1.1.m.m.+ + l.. @ 6#{ +.;$>$v@r#W.,$'$)$!$!$!$!$!$~${$]$^$^$^$/$($_$:$<$[$g#}$J @ . . l.+ + m.m.1.1.m.m.+ + l.. @ ",
". . l.+ + m.m.1.1.m.m.+ + l.. @ 6#{ k.|$1$2$2$2$3$4$5$6$7$7$7$5$8$9$0$a$b$b$c$M+d$e$f$g$h$i$j$@ . . l.+ + m.m.1.1.m.m.+ + l.. @ ",
". . # + + m.m.1.1.m.m.+ + l.. @ 6#K . G#k$l$T+m$n$o$7@p$p$p$p$q$r$s$t$u$v$w$x$y$z$A$B$C$D$B E$@ . . # + + m.m.1.1.m.m.+ + l.. @ ",
". . l.+ + m.m.-.-.m.m.+ + l.. @ F$H G$. H$p+B+B+J 1@I$I$I$I$I$J$K$L$M$e N$N$O$P$Q$R$S$T$U$p J @ . . l.+ + m.m.-.-.m.m.+ + l.. @ ",
". . # + + V$m.m.m.m.V$+ + l.. @ o q o W$T E${ { %@r J J J J J ,.H G X$o Y$Y$<#Z$Y#`$ %.%A <#G$@ . . # + + V$m.m.m.m.V$+ + l.. @ ",
". . # + + + V$m.m.V$+ + + l.. @ F +%@%g . . . . . S S S S S S S h h g W$U+W${ #%$%4 $%%%&%W+E @ . . # + + + V$m.m.V$+ + + l.. @ ",
". . . # + + + + + + + + l.. . @ R *%S :+:+:+:+:+k.k.k.k.k.*%=%=%=%=%=%=%-%-%=%=%*%*%*%Y ;%Z >%@ . . . # + + + + + + + + l.. . @ ",
". . . . # + + + + + + l.. . . @ ,%'%)%<.<.<.<.<.<.!%t@t@~%+@{%]%^%^%^%^%^%^%^%^%^%^%^%/%(%_%:%@ . . . . # + + + + + + l.. . . @ ",
". . . . . # l.# l.l.l.. . . . @ <%[%}%|%|%|%|%|%|%3.1%2%2%3%4%5%6%6%6%6%6%6%6%6%6%6%6%7%8%9%0%@ . . . . . # l.# l.l.l.. . . . @ ",
". + . . . . . . + . . . . . . @ . + . . . . . . + . . . . . . @ . + . . . . . . + . . . . . . @ . + . . . . . . + . . . . . . @ ",
"+ . . . . . . . . . . . . . . @ + . . . . . . . . . . . . . . @ + . . . . . . . . . . . . . . @ + . . . . . . . . . . . . . . @ ",
". . a%b%l.. . . . . . l.b%. a%@ . . a%b%l.. . . . . . l.b%. a%@ . . a%b%l.. . . . . . l.b%. a%@ . . a%b%l.. . . . . . l.b%. a%@ ",
"+ . @ b%b%. . + . . @ b%b%. . @ + . @ b%b%. . + . . @ b%b%. . @ + . @ b%b%. . + . . @ b%b%. . @ + . @ b%b%. . + . . @ b%b%. . @ ",
". . @ @ a%. . . . . @ @ . . a%@ . . @ @ a%. . . . . @ @ . . a%@ . . @ @ a%. . . . . @ @ . . a%@ . . @ @ a%. . . . . @ @ . . a%@ ",
". . . a%a%. . . . . . . . a%. @ . . . a%a%. . . . . . . . a%. @ . . . a%a%. . . . . . . . a%. @ . . . a%a%. . . . . . . . a%. @ ",
"9+@ 9+9+9+9+@ 9+@ @ @ @ @ @ @ @ 9+@ 9+9+9+9+@ 9+@ @ @ @ @ @ @ @ 9+@ 9+9+9+9+@ 9+@ @ @ @ @ @ @ @ 9+@ 9+9+9+9+@ 9+@ @ @ @ @ @ @ @ "};
