/* XPM */
static char * soldtwo_xpm[] = {
"64 64 396 2",
"  	c #889C9E",
". 	c #62797E",
"+ 	c #536265",
"@ 	c #526164",
"# 	c #516063",
"$ 	c #516062",
"% 	c #495658",
"& 	c #3A4546",
"* 	c #3D4B4D",
"= 	c #333C3D",
"- 	c #3C4A4D",
"; 	c #404843",
"> 	c #4B5A58",
", 	c #4C5959",
"' 	c #5F757A",
") 	c #60767B",
"! 	c #61787D",
"~ 	c #464D4F",
"{ 	c #454C4E",
"] 	c #414749",
"^ 	c #3C4143",
"/ 	c #393F40",
"( 	c #473B36",
"_ 	c #472D1F",
": 	c #472711",
"< 	c #7A3337",
"[ 	c #472710",
"} 	c #595D40",
"| 	c #575B42",
"1 	c #515747",
"2 	c #404542",
"3 	c #414645",
"4 	c #404748",
"5 	c #464C4E",
"6 	c #41484A",
"7 	c #363B3C",
"8 	c #473329",
"9 	c #773539",
"0 	c #B15540",
"a 	c #C99457",
"b 	c #C79357",
"c 	c #AB5441",
"d 	c #555A44",
"e 	c #463E3B",
"f 	c #464849",
"g 	c #383F40",
"h 	c #382B2F",
"i 	c #464949",
"j 	c #46403D",
"k 	c #47342B",
"l 	c #783538",
"m 	c #7B3236",
"n 	c #8C5029",
"o 	c #E39F61",
"p 	c #929273",
"q 	c #C49157",
"r 	c #9F5344",
"s 	c #6D4E41",
"t 	c #514A4C",
"u 	c #494C4E",
"v 	c #46403E",
"w 	c #473228",
"x 	c #DFDFD1",
"y 	c #E8D38D",
"z 	c #E29E61",
"A 	c #A35443",
"B 	c #6B4E42",
"C 	c #53494B",
"D 	c #444A4C",
"E 	c #46413F",
"F 	c #47332A",
"G 	c #C49156",
"H 	c #A05344",
"I 	c #644244",
"J 	c #51494C",
"K 	c #43494B",
"L 	c #473C38",
"M 	c #B05540",
"N 	c #814F34",
"O 	c #634245",
"P 	c #594E49",
"Q 	c #473D39",
"R 	c #AD5541",
"S 	c #6E4E40",
"T 	c #241B17",
"U 	c #343B3B",
"V 	c #402821",
"W 	c #773135",
"X 	c #AE543F",
"Y 	c #804A2A",
"Z 	c #602F33",
"` 	c #492C30",
" .	c #3C2B2F",
"..	c #42484A",
"+.	c #393E3F",
"@.	c #47352C",
"#.	c #793438",
"$.	c #8A502B",
"%.	c #804F34",
"&.	c #52494B",
"*.	c #484D4F",
"=.	c #3C4243",
"-.	c #47362E",
";.	c #783539",
">.	c #333523",
",.	c #89502C",
"'.	c #73383C",
").	c #5E4447",
"!.	c #4A4C4E",
"~.	c #444B4D",
"{.	c #3A4041",
"].	c #473227",
"^.	c #47260E",
"/.	c #47250A",
"(.	c #101008",
"_.	c #8B502A",
":.	c #76363A",
"<.	c #5B3A3C",
"[.	c #423027",
"}.	c #464544",
"|.	c #472915",
"1.	c #452918",
"2.	c #472E21",
"3.	c #423128",
"4.	c #464443",
"5.	c #434A4B",
"6.	c #454B4D",
"7.	c #252927",
"8.	c #585D41",
"9.	c #34382C",
"0.	c #34393A",
"a.	c #2C3232",
"b.	c #3C4244",
"c.	c #434A4C",
"d.	c #404648",
"e.	c #3D4344",
"f.	c #333838",
"g.	c #373A2E",
"h.	c #333524",
"i.	c #525740",
"j.	c #3E433F",
"k.	c #424948",
"l.	c #3D413C",
"m.	c #393C32",
"n.	c #383C32",
"o.	c #383C31",
"p.	c #565B43",
"q.	c #585C41",
"r.	c #3F4441",
"s.	c #424848",
"t.	c #3D423D",
"u.	c #565A43",
"v.	c #919172",
"w.	c #919173",
"x.	c #47260D",
"y.	c #252928",
"z.	c #3E4445",
"A.	c #373B30",
"B.	c #473024",
"C.	c #383D3E",
"D.	c #414849",
"E.	c #42494B",
"F.	c #353A3A",
"G.	c #36382B",
"H.	c #575B40",
"I.	c #272B2A",
"J.	c #373C3D",
"K.	c #353A3B",
"L.	c #1D1F1C",
"M.	c #343727",
"N.	c #393D33",
"O.	c #222523",
"P.	c #343625",
"Q.	c #353728",
"R.	c #282C2B",
"S.	c #3B4142",
"T.	c #212422",
"U.	c #383E3F",
"V.	c #464645",
"W.	c #43271B",
"X.	c #7B3438",
"Y.	c #472C1D",
"Z.	c #3F4546",
"`.	c #474D4F",
" +	c #4D4D4D",
".+	c #59443B",
"++	c #7F5642",
"@+	c #793337",
"#+	c #472F22",
"$+	c #584749",
"%+	c #754F3D",
"&+	c #A65442",
"*+	c #C89457",
"=+	c #2D3131",
"-+	c #464B4D",
";+	c #56484A",
">+	c #674043",
",+	c #845031",
"'+	c #6F3B3E",
")+	c #464241",
"!+	c #464646",
"~+	c #473934",
"{+	c #AF5541",
"]+	c #C89357",
"^+	c #87502E",
"/+	c #373E3F",
"(+	c #313536",
"_+	c #472F23",
":+	c #472C1C",
"<+	c #353C3D",
"[+	c #472B1A",
"}+	c #3A3D3C",
"|+	c #493327",
"1+	c #473127",
"2+	c #3A2A2C",
"3+	c #473C37",
"4+	c #793437",
"5+	c #262A29",
"6+	c #382F29",
"7+	c #1A1C19",
"8+	c #252827",
"9+	c #3D4445",
"0+	c #372A2E",
"a+	c #262928",
"b+	c #493E37",
"c+	c #493225",
"d+	c #AF5540",
"e+	c #75373B",
"f+	c #2E3333",
"g+	c #4B3E36",
"h+	c #452A1A",
"i+	c #3F4547",
"j+	c #484F50",
"k+	c #4E5452",
"l+	c #515653",
"m+	c #484E4E",
"n+	c #4B3F38",
"o+	c #313737",
"p+	c #303434",
"q+	c #11110A",
"r+	c #35382A",
"s+	c #444B4C",
"t+	c #474E4F",
"u+	c #66695C",
"v+	c #707261",
"w+	c #4E5449",
"x+	c #282C2C",
"y+	c #12120C",
"z+	c #434949",
"A+	c #5A5E57",
"B+	c #7C7D67",
"C+	c #8A8B6F",
"D+	c #3F4647",
"E+	c #2C3030",
"F+	c #161712",
"G+	c #909072",
"H+	c #3C413B",
"I+	c #434948",
"J+	c #4B514C",
"K+	c #545945",
"L+	c #757764",
"M+	c #6C6E5F",
"N+	c #505548",
"O+	c #3C4039",
"P+	c #42494A",
"Q+	c #8D8E70",
"R+	c #8C8C70",
"S+	c #575C42",
"T+	c #393C33",
"U+	c #47250C",
"V+	c #565B42",
"W+	c #4C524B",
"X+	c #474E4E",
"Y+	c #373D3D",
"Z+	c #272A29",
"`+	c #472917",
" @	c #BF8E56",
".@	c #545944",
"+@	c #3A3D35",
"@@	c #8C8D70",
"#@	c #525746",
"$@	c #454B4C",
"%@	c #2F1C17",
"&@	c #3E4546",
"*@	c #323637",
"=@	c #4F5549",
"-@	c #3B4143",
";@	c #3F4542",
">@	c #8D8D70",
",@	c #E5D18C",
"'@	c #8A8A6F",
")@	c #515647",
"!@	c #483023",
"~@	c #74383B",
"{@	c #444A4B",
"]@	c #404643",
"^@	c #E7D28C",
"/@	c #8F8F71",
"(@	c #424847",
"_@	c #323738",
":@	c #493226",
"<@	c #454C4D",
"[@	c #3C413C",
"}@	c #555944",
"|@	c #473A35",
"1@	c #472A18",
"2@	c #363C3D",
"3@	c #424846",
"4@	c #414746",
"5@	c #47250B",
"6@	c #12120B",
"7@	c #472B1B",
"8@	c #222624",
"9@	c #783438",
"0@	c #363C3C",
"a@	c #763639",
"b@	c #463F3C",
"c@	c #72393D",
"d@	c #8B502B",
"e@	c #373D3E",
"f@	c #464240",
"g@	c #432F25",
"h@	c #793D41",
"i@	c #73393C",
"j@	c #323939",
"k@	c #464848",
"l@	c #472712",
"m@	c #473832",
"n@	c #3A3C3C",
"o@	c #4E4F4E",
"p@	c #3B2A2A",
"q@	c #2B302F",
"r@	c #6E3C3F",
"s@	c #464342",
"t@	c #464341",
"u@	c #333624",
"v@	c #463D39",
"w@	c #3C3B39",
"x@	c #536063",
"y@	c #161713",
"z@	c #3B3F38",
"A@	c #333839",
"B@	c #292D2C",
"C@	c #242826",
"D@	c #161813",
"E@	c #242726",
"F@	c #181A16",
"G@	c #2E3232",
"H@	c #3A3E36",
"I@	c #313636",
"J@	c #353829",
"K@	c #343626",
"L@	c #5D7378",
"M@	c #56686A",
"N@	c #465350",
"O@	c #373C2F",
"P@	c #3E463E",
"Q@	c #404B4D",
"R@	c #5C7176",
"S@	c #60777C",
"T@	c #596E72",
"U@	c #405052",
"V@	c #383E32",
"W@	c #595F45",
"X@	c #3F4841",
"Y@	c #4F6265",
"Z@	c #3B3F37",
"`@	c #373A2F",
" #	c #3F4440",
".#	c #3A3F40",
"+#	c #232624",
"@#	c #1A1C18",
"##	c #535845",
"$#	c #3E4440",
"%#	c #363A2D",
"&#	c #191A17",
"*#	c #111109",
"=#	c #353B3B",
"-#	c #303535",
";#	c #323737",
">#	c #2C3130",
",#	c #525747",
"'#	c #515648",
")#	c #2B2F2E",
"!#	c #13130D",
"~#	c #434A4A",
"{#	c #32272A",
"]#	c #231C1B",
"^#	c #2B2D1E",
"/#	c #131311",
"(#	c #141413",
"_#	c #2F2527",
":#	c #1C1815",
"<#	c #333422",
"[#	c #1F150F",
"}#	c #2C1B15",
"      . . . . . . + . . . . + . + . + . + . + @ # $ % & * = - ; > , ' ) ! . . . . . . . . . . . . . . . . . . . . + . . . . + . ",
". ~ ~ ~ ~ ~ ~ ~ ~ ~ ~ ~ ~ ~ ~ ~ ~ ~ ~ ~ ~ ~ { ] ^ / ( _ : < [ } | 1 2 3 4 5 ~ ~ ~ ~ ~ ~ ~ ~ ~ ~ ~ ~ ~ ~ ~ ~ ~ ~ ~ ~ ~ ~ ~ ~ ~ ~ ",
". ~ ~ ~ ~ ~ ~ ~ ~ ~ ~ ~ ~ ~ ~ ~ ~ ~ ~ ~ ~ { 6 7 8 _ 9 < 0 0 0 a b c | d e f 5 ~ ~ ~ ~ ~ ~ ~ ~ ~ ~ ~ ~ ~ ~ ~ ~ ~ ~ ~ ~ ~ ~ ~ ~ g ",
"+ ~ h . g ~ ~ ~ ~ ~ ~ ~ ~ ~ ~ ~ ~ ~ ~ ~ 5 i j k l m m n 0 0 a o o p p q r s t u ~ ~ ~ ~ ~ ~ ~ ~ ~ ~ ~ ~ ~ ~ ~ ~ ~ ~ h . g ~ ~ ~ ",
". ~ h g g ~ ~ ~ ~ ~ ~ ~ ~ ~ ~ ~ ~ ~ ~ { i v w < 0 0 0 0 0 a o o o x x y z A B C u ~ ~ ~ ~ ~ ~ ~ ~ ~ ~ ~ ~ ~ ~ ~ ~ ~ h g g ~ ~ g ",
"+ ~ h h ~ ~ ~ ~ ~ ~ ~ ~ ~ ~ ~ ~ ~ ~ ~ D E F l n 0 0 0 0 0 a a a o x x y o G H I J u ~ ~ ~ ~ ~ ~ ~ ~ ~ ~ ~ ~ ~ ~ ~ ~ h h ~ ~ ~ ~ ",
"+ ~ ~ ~ ~ ~ ~ ~ ~ ~ ~ ~ ~ ~ ~ ~ ~ ~ ~ K L 9 m n 0 0 0 0 0 0 0 a o y x y o a M N O P u ~ ~ ~ ~ ~ ~ ~ ~ ~ ~ ~ ~ ~ ~ ~ ~ ~ ~ ~ ~ g ",
"+ ~ ~ ~ ~ ~ ~ ~ ~ ~ ~ ~ ~ ~ ~ ~ ~ ~ ~ K Q 9 m m n 0 0 0 0 0 0 a a o y o o o a R N S C u ~ ~ ~ ~ ~ ~ ~ ~ ~ ~ ~ ~ ~ ~ ~ ~ ~ ~ ~ g ",
"~ ~ ~ ~ ~ ~ ~ ~ T T h h h h h h h g h U V W m m m n n 0 0 0 0 0 0 a y y y y o a X Y Z `  .h h h h g h g h g g g ~ ~ ~ ~ ~ ~ ~ g ",
"+ ~ ~ ~ ~ ~ ~ ~ h g ~ ~ ~ ~ ~ ~ ~ { ..+.@.#.m m m m m n 0 0 0 0 0 a a y x y a a 0 $.%.O &.*.~ ~ ~ ~ ~ ~ ~ ~ ~ ~ ~ ~ ~ ~ ~ ~ ~ g ",
"~ ~ ~ ~ ~ ~ ~ ~ g ~ ~ ~ ~ ~ ~ ~ ~ { =.-.;.m m m m m m m n 0 a a a 0 m } >.>.m m m n ,.'.).!.~ ~ ~ ~ ~ ~ ~ ~ ~ + ~ ~ ~ ~ ~ ~ ~ g ",
"+ ~ ~ ~ ~ ~ ~ ~ h ~ ~ ~ ~ ~ ~ ~ ~ ~.{.].^.m m m m m m m m n 0 0 a n n 0 n /.(./.m n _.:.<.!.~ ~ ~ ~ ~ ~ ~ ~ ~ ~ ~ ~ ~ ~ ~ ~ ~ g ",
"+ ~ ~ ~ ~ ~ ~ ~ g ~ ~ ~ ~ ~ ~ ~ ~ ~.{.w ^.m m m m n 0 0 n n m m m n 0 a a 0 >./.m m :.[.}.5 ~ ~ ~ ~ ~ ~ ~ ~ ~ + ~ ~ ~ ~ ~ ~ ~ h ",
"+ ~ ~ ~ ~ ~ ~ ~ g ~ ~ ~ ~ ~ ~ ~ ~ ~.{.w ^.m m /.m n 0 0 0 n 0 0 n 0 a a o a } |.1.2.3.4.5.~ ~ ~ ~ ~ ~ ~ ~ ~ ~ + ~ ~ ~ ~ ~ ~ ~ g ",
"+ ~ ~ ~ ~ ~ ~ ~ g ~ ~ ~ ~ ~ ~ ~ ~ 6.{.7.^.m m m n n n n 0 a a a a a 0 a a a 8.9.0.a.b.c.~ ~ ~ ~ ~ ~ ~ ~ ~ ~ ~ + ~ ~ ~ ~ ~ ~ ~ h ",
"+ ~ ~ ~ ~ ~ ~ ~ g ~ ~ ~ ~ ~.d.e.e.=.f.g.h./.m m n m m n 0 a o o a a 0 n 0 G i.j.6 D ~.~ ~ ~ ~ ~ ~ ~ ~ ~ ~ ~ ~ + ~ ~ ~ ~ ~ ~ ~ h ",
"+ ~ ~ ~ ~ ~ ~ ~ g ~ ~ ~ ~.k.l.m.n.o.p.q.>.>./././././.n n 0 a a a a 0 m m '.r.] { ~ ~ ~ ~ ~ ~ ~ ~ ~ ~ ~ ~ ~ ~ . ~ ~ ~ ~ ~ ~ ~ h ",
"+ ~ ~ ~ ~ ~ ~ ~ g ~ ~ ~.s.t.u.v.w.} } } >.>.(.(.>.>.} m n 0 a a a a 0 n x.y.z.{ ~ ~ ~ ~ ~ ~ ~ ~ ~ ~ ~ ~ ~ ~ ~ . ~ ~ ~ ~ ~ ~ ~ g ",
"+ ~ ~ ~ ~ ~ ~ ~ g ~ ~ 5.r.A.q.} } } } } >.>.>.>.>.>.>.>.m n 0 a a a a a m B.C.D.{ ~ ~ ~ ~ ~ ~ ~ ~ ~ ~ ~ ~ ~ ~ . ~ ~ ~ ~ ~ ~ ~ h ",
"+ ~ ~ ~ ~ ~ ~ ~ g ~ ~ E.F.G.} } } } >.>.>.>.} } >.>.>.>.>.m n a a a o y p H.I.J.c.~ ~ ~ ~ ~ ~ ~ ~ ~ ~ ~ ~ ~ ~ . ~ ~ ~ ~ ~ ~ ~ g ",
"+ ~ ~ ~ ~ ~ ~ ~ g ~ ~ E.K.L.>.} } >.>.m n } } } } >.>.>.>././.n 0 a a o p } M.N.C.] { ~ ~ ~ ~ ~ ~ ~ ~ ~ ~ ~ ~ . ~ ~ ~ ~ ~ ~ ~ g ",
"+ ~ ~ ~ ~ ~ ~ ~ g ~ ~ 5.J.O.P.} >./.m 0 0 n } } p } >.>.(.(./.n n a a a 0 >.>.Q.R.S.{ ~ ~ ~ ~ ~ ~ ~ ~ ~ ~ ~ ~ . ~ ~ ~ ~ ~ ~ ~ g ",
"+ ~ ~ ~ ~ ~ ~ ~ g ~ ~ { d.j.A.>.m 0 a a a 0 n } } } >.>.(.(.(././.n 0 0 } } >.h.T.U.~.~ ~ ~ ~ ~ ~ ~ ~ ~ ~ ~ ~ . ~ ~ ~ ~ ~ ~ ~ g ",
"+ ~ ~ ~ ~ ~ ~ ~ g ~ ~ ~ 5 V.W.X.0 0 a o a a 0 } } >.>.>.(./././.(././.>.} } >.h.Y.( Z.~.~ ~ ~ ~ ~ ~ ~ ~ ~ ~ ~ . ~ ~ ~ ~ ~ ~ ~ g ",
"+ ~ ~ ~ ~ ~ ~ ~ g ~ ~ `. +.+++M a a a a a 0 0 n } } >.>.>./.m /./.m m >.} } >.m @+#+f.D.~ ~ ~ ~ ~ ~ ~ ~ ~ ~ ~ . ~ ~ ~ ~ ~ ~ ~ g ",
"+ ~ ~ ~ ~ ~ ~ ~ g ~ ~ !.$+%+&+*+o a 0 a a 0 n n } } >.>.} >././.m 0 m >.} } >.m 0 |.=+d.{ ~ ~ ~ ~ ~ ~ ~ ~ ~ ~ . ~ ~ ~ ~ ~ ~ ~ g ",
"+ ~ ~ ~ ~ ~ ~ ~ g ~ -+;+>+,+b o o a 0 0 n m m m m } >.>.} >.>.>./.0 m /.>.} >.n 0 $.'+)+K ~ ~ ~ ~ ~ ~ ~ ~ ~ ~ . ~ ~ ~ ~ ~ ~ ~ g ",
"+ ~ ~ ~ ~ ~ ~ ~ g ~.!+~+:.{+a o a 0 n m m m m /.(.>.>.} p } >.(./.m m m /.>.>.0 a ]+^+k {.6.~ ~ ~ ~ ~ ~ ~ ~ ~ . ~ ~ ~ ~ ~ ~ ~ h ",
"+ ~ ~ ~ ~ ~ ~ ~ /+z.(+_+_.0 a a 0 0 n m m m m m (.(.>.} p } >./.m n m m /.(.(.n a a M :+J.~.~ ~ ~ ~ ~ ~ ~ ~ ~ . ~ ~ ~ ~ ~ ~ ~ g ",
"~ ~ ~ ~ ~ ~ ~ ~ <+0.[+< 0 o a 0 n 0 0 0 m m m m /.>.} } } } >.m m 0 0 m /.(./.m a o a ;.L d.6.~ ~ ~ ~ ~ ~ ~ ~ + ~ ~ ~ ~ ~ ~ ~ h ",
"+ ~ ~ ~ ~ ~ ~ ~ }+|+[ m 0 a o a 0 0 a a 0 n n m >.} } p p } >./.m n n n m /.m n a o a $.1+f.] ~ ~ ~ ~ ~ ~ ~ ~ . ~ ~ ~ ~ ~ ~ ~ g ",
"~ ~ ~ ~ ~ ~ ~ ~ 2+3+[ m 0 a a o a a a a a n n n } } } p p p } >.>.m m n m m m m 0 a a 0 4+5+z.~ ~ ~ ~ ~ ~ ~ ~ + ~ ~ ~ ~ ~ ~ ~ h ",
"+ ~ ~ ~ ~ ~ ~ ~ <+6+7+: n n 0 a a a a 0 0 0 a a a a } } } p p } } >./.m n n /./.n 0 0 0 < 8+9+~ ~ ~ ~ ~ ~ ~ ~ + ~ ~ ~ ~ ~ ~ ~ h ",
"~ ~ ~ ~ ~ ~ ~ ~ 0+z.(+_+m m m n 0 a 0 n 0 a o y y o a } } p p p } >.} } n m /.m 0 0 0 0 @+a+z.~ ~ ~ ~ ~ ~ ~ ~ + ~ ~ ~ ~ ~ ~ ~ h ",
"+ ~ ~ ~ ~ ~ ~ ~ g b+!+c+Y.< m m n 0 n m 0 a o y y y a } } } p p p } } p } >.>.m 0 0 0 d+e+f+d.~ ~ `.`.~ ~ ~ ~ + ~ ~ ~ ~ ~ ~ ~ h ",
"+ ~ ~ ~ ~ ~ ~ ~ h ~ g+!+( h+[ /./.m m m 0 a o a a a a 0 n } } } } p p p p } } } m m m l ( i+~.~ j+k+l+m+6.~ ~ + ~ ~ ~ ~ ~ ~ ~ h ",
"+ ~ ~ ~ ~ ~ ~ ~ h n+n+~.o+p+7+q+/./.m /.0 a a a a n 0 0 m >.} } } p p p p p } } } m m r+7 s+~ t+l+u+v+w+i+{ ~ + ~ ~ ~ ~ ~ ~ ~ h ",
"+ ~ ~ ~ ~ ~ n+~ h n+~ g ~.b.x+y+>.>.>./.n 0 a a 0 n m m /.>.>.} } } } } } } p p p } } q.l.z+~.j+A+B+C+d J.{ ~ + ~ ~ ~ ~ ~ ~ ~ h ",
"+ ~ ~ ~ ~ n+~ n+h n+n+~ { D+E+F+h.>.>./.m n n 0 n m m m /.(.(.>.>.(.(./.n a y a } p p G+u.H+I+k+J+K+q.g.7 { ~ + ~ ~ ~ ~ ~ ~ ~ h ",
"+ ~ ~ ~ n+~ n+n+h n+~ n+~ ..7 5+Q.>.>.>./.m m n m m m m m /.(.>.>.>.(./.0 a a a 0 p p p 8.p.L+M+N+d p.O+=.{ ~ + ~ ~ ~ ~ ~ ~ ~ h ",
"~ ~ ~ n+~ n+~ ~ h n+n+~ ~ { P+U.a+M.h.>.m m m /.m 0 0 0 n >.>.} } >.(.m 0 a 0 a 0 0 } } } v.Q+R+S+Q.T+{.P+~ ~ + ~ ~ ~ ~ ~ ~ ~ h ",
"+ ~ ~ ~ ~ ~ ~ ~ g n+~ ~ ~ ~ { ] 7 I.Q.U+m m m m n 0 0 0 0 } >.} } >./.m n 0 n 0 a a M q.q.G+w.p } } V+H+W+X+~ + ~ ~ ~ ~ ~ ~ ~ h ",
"~ ~ ~ ~ ~ ~ ~ ~ h ~ ~ ~ ~ ~ ~ { ..Y+Z+`+m m n 0 0 0 a a 0 } } } } >./.m m m n 0 a ]+ @.@+@n.q.p p p w.@@#@J+$@+ ~ ~ ~ ~ ~ ~ ~ %@",
"~ ~ ~ ~ ~ ~ ~ ~ g ~ ~ ~ ~ ~ ~ ~ ~.&@*@h+< n 0 a a a a a 0 } } } } } /.m n n n m n {+r =@-@;@K+| >@G+p ,@'@)@z++ ~ ~ ~ ~ ~ ~ ~ h ",
"~ ~ ~ ~ ~ ~ ~ ~ h ~ ~ ~ ~ ~ ~ ~ c.S.E+!@_.n 0 0 a o o a 0 } } p p } m n 0 0 0 0 0 _.~@( z.{@]@j.H+u.G+^@/@K+(@+ ~ ~ ~ ~ ~ ~ ~ %@",
"~ ~ ~ ~ ~ ~ ~ ~ g ~ ~ ~ ~ ~ ~ ~ D._@:@x.n 0 0 0 a o o a 0 } p } } m m 0 0 0 a o a 0 < 2.C.<@<@$@k.[@.@}@.@)@z++ ~ ~ ~ ~ ~ ~ ~ h ",
"~ ~ ~ ~ ~ ~ ~ ~ g ~ ~ ~ ~ ~ ~ ~ 4 |@1@m m n 0 a a o a a 0 } >.>./.m m m n 0 a o a 0 n [+2@~.~ ~ <@z+3@4@3@z+<@+ ~ ~ ~ ~ ~ ~ ~ h ",
"+ ~ ~ ~ ~ ~ ~ ~ g ~ ~ ~ ~ ~ ~ ~ 4 |@;.m m m 0 a a o a 0 m 5@6@y+^.m m m n 0 a 0 0 0 n 7@2@~.~ ~ ~ ~ ~ ~ ~ ~ ~ + ~ ~ ~ ~ ~ ~ ~ h ",
"~ ~ ~ ~ ~ ~ ~ ~ g ~ ~ ~ ~ ~ ~ ~ 4 |@l m m n 0 0 a a a n m 4+_ 8@_+9@m n 0 0 0 n 0 0 n [+0@~.~ ~ ~ ~ ~ ~ ~ ~ ~ + ~ ~ ~ ~ ~ ~ ~ h ",
"+ ~ ~ ~ ~ ~ ~ ~ g ~ ~ ~ ~ ~ ~ ~ ] 3+a@m n n 0 n n 0 0 m < '.3+C.b@c@< n 0 n 0 0 a 0 d@_ e@~.~ ~ ~ ~ ~ ~ ~ ~ ~ . ~ ~ ~ ~ ~ ~ ~ h ",
"+ ~ ~ ~ ~ ~ ~ ~ g ~ ~ ~ ~ ~ ~ ~ K f@g@h@m n 0 0 n n m < i@Q j@D k@-.l@m n 0 0 0 0 M ,+m@e.{ ~ ~ ~ ~ ~ ~ ~ ~ ~ + ~ ~ ~ ~ ~ ~ ~ h ",
"+ ~ ~ ~ ~ ~ ~ ~ g ~ ~ ~ ~ ~ ~ ~ { n@o@B.^.m n n n m 4+~@L p@# ~ ..q@l@m n n n } n @+r@s@c.~ ~ ~ ~ ~ ~ ~ ~ ~ ~ . ~ ~ ~ ~ ~ ~ ~ h ",
"+ ~ ~ ~ ~ ~ ~ ~ g ~ ~ ~ ~ ~ ~ ~ ~ -+t@].u@} n m m m B.v@w@x@~ ~ ..E+y@5@m m m } p q.z@d.{ ~ ~ ~ ~ ~ ~ ~ ~ ~ ~ + ~ ~ ~ ~ ~ ~ ~ %@",
"+ ~ ~ ~ ~ ~ ~ ~ g ~ ~ ~ ~ ~ ~ ~ 6.d.A@g.} } } } /.(.B@z.{ ~ ~ ~ 5.0.C@D@>.>.>.} p q.z@4 ~ ~ ~ ~ ~ ~ ~ ~ ~ ~ ~ . ~ ~ ~ ~ ~ ~ ~ h ",
"+ ~ ~ ~ ~ ~ ~ ~ g ~ ~ ~ ~ ~ ~ ~ P+7 E@M.} } } } u@F@G@4 ~ ~ ~ ~ { d.7 E@M.h.>.} p q.H@(@~.~ ~ ~ ~ ~ ~ ~ ~ ~ ~ . ~ ~ ~ ~ ~ ~ ~ %@",
"+ ~ ~ ~ ~ ~ ~ ~ g ~ ~ ~ ~ ~ ~ ~ ] I@7+>.} } p } J@H@/ K ~ ~ ~ ~ ~ { 4 K.o.K@>.} p v.u.[@&@{ ~ ~ ~ ~ ~ ~ ~ ~ ~ . ~ ~ ~ ~ ~ ~ ~ %@",
"+ ~ ~ ~ ~ ~ ~ ~ ~ + + + + . ! L@M@N@O@} } } } } P@Q@R@@ . . . . . . S@T@U@V@} } } } W@X@Y@) . + . + . .         ~ ~ ~ ~ ~ ~ ~ %@",
"+ ~ ~ ~ ~ ~ ~ ~ ~ ~ ~ ~ ~ ~ { e.Z@G.P.>.>.} } } `@+.s+~ ~ ~ ~ ~ ~ ~ ~ P+(+J@} } >.>.h.r+ #s+~ ~ ~ ~ ~ ~ ~ ~ ~ ~ ~ ~ ~ ~ ~ ~ ~ %@",
"~ ~ ~ ~ ~ ~ ~ ~ ~ ~ ~ ~ ~ ~ ~..#+#h.>.} p } } >.T.+.~.~ ~ ~ ~ ~ ~ ~ ~ P+(+@#>.>.>.} p /@##+.E.~ ~ ~ ~ ~ ~ ~ ~ ~ ~ ~ ~ ~ ~ ~ ~ %@",
"+ ~ h . g ~ ~ ~ ~ ~ ~ ~ ~ { 6 $#%#>.>.p p p } >.T.+.~.~ ~ ~ ~ ~ ~ ~ 6.i+G@&#*#(.>.p p w.S+K+3 6 K 6.~ ~ ~ ~ ~ ~ ~ ~ h . g ~ ~ %@",
"~ ~ h g g ~ ~ ~ ~ ~ ~ ~ ~ ..=#o.M.>.} } p p p } g.;@c.~ ~ ~ ~ ~ ~ { i+-#g.P.>.>.} } p x w.>@.@z@;#Z.{ ~ ~ ~ ~ ~ ~ ~ h g g ~ ~ %@",
"+ ~ h h ~ ~ ~ ~ ~ ~ ~ ~ { D+>#y@h.>.} p a y o p | ,#W+<@~ ~ ~ ~ ~ { ^ 8+K@>.>.} } } p y y ^@G+/@u.'#(@~.~ ~ ~ ~ ~ ~ h h h ~ ~ %@",
"~ ~ ~ ~ ~ ~ ~ ~ ~ ~ ~ ~ { i+)#!#>.>.} p y x x y q.| H+~#~ ~ ~ ~ ~ { S.8@h.>.} } } p p p y x x x G+p.[@E.~ ~ ~ ~ ~ ~ ~ h h ~ ~ %@",
"h %@%@%@%@%@%@h %@h %@h h {#]#*#>.>.} p p p p p } >.^#/#(#(#h (#h 0+_#:#*#>.>.>.>.} } } p p p p } <#[#}#%@%@%@h %@h %@(#(#%@%@%@"};
