/* XPM */
static char * soldone_xpm[] = {
"64 64 395 2",
"  	c #889C9E",
". 	c #62797E",
"+ 	c #536265",
"@ 	c #505E61",
"# 	c #465355",
"$ 	c #394445",
"% 	c #333C3D",
"& 	c #734144",
"* 	c #79373B",
"= 	c #7B3337",
"- 	c #8C5029",
"; 	c #B15540",
"> 	c #AE5745",
", 	c #A2584A",
"' 	c #5C675A",
") 	c #535454",
"! 	c #5A6769",
"~ 	c #607478",
"{ 	c #61787D",
"] 	c #464D4F",
"^ 	c #434A4C",
"/ 	c #3C4243",
"( 	c #473933",
"_ 	c #472C1E",
": 	c #472711",
"< 	c #8B502A",
"[ 	c #C99457",
"} 	c #E39F61",
"| 	c #919172",
"1 	c #AA5442",
"2 	c #784F3A",
"3 	c #464342",
"4 	c #464A4C",
"5 	c #464B4C",
"6 	c #464544",
"7 	c #473730",
"8 	c #773539",
"9 	c #E8D38D",
"0 	c #DFDFD1",
"a 	c #E19E61",
"b 	c #C29056",
"c 	c #7C4F38",
"d 	c #5A4649",
"e 	c #454C4E",
"f 	c #383F40",
"g 	c #382B2F",
"h 	c #444B4D",
"i 	c #464444",
"j 	c #472D1F",
"k 	c #7A3336",
"l 	c #E29F61",
"m 	c #C08E56",
"n 	c #784F3B",
"o 	c #464241",
"p 	c #43494B",
"q 	c #473D39",
"r 	c #773639",
"s 	c #89502C",
"t 	c #6D3C3F",
"u 	c #464443",
"v 	c #464A4B",
"w 	c #464D4E",
"x 	c #7B3236",
"y 	c #C89357",
"z 	c #A95442",
"A 	c #7A4F39",
"B 	c #5D4547",
"C 	c #42494B",
"D 	c #473C38",
"E 	c #464341",
"F 	c #444A4C",
"G 	c #3D4345",
"H 	c #473832",
"I 	c #783538",
"J 	c #C79357",
"K 	c #6C3D40",
"L 	c #241B17",
"M 	c #373E3F",
"N 	c #322729",
"O 	c #41322B",
"P 	c #733135",
"Q 	c #7A3236",
"R 	c #929273",
"S 	c #B05540",
"T 	c #864D2A",
"U 	c #43271B",
"V 	c #302527",
"W 	c #372A2E",
"X 	c #3B4042",
"Y 	c #262928",
"Z 	c #472710",
"` 	c #333523",
" .	c #472C1D",
"..	c #373C3D",
"+.	c #3A4041",
"@.	c #252827",
"#.	c #47260E",
"$.	c #595D40",
"%.	c #47250A",
"&.	c #7A3337",
"*.	c #74383B",
"=.	c #47332A",
"-.	c #3A3F40",
";.	c #454B4D",
">.	c #252927",
",.	c #75373A",
"'.	c #393F40",
").	c #343A3B",
"!.	c #3B4142",
"~.	c #252928",
"{.	c #363A2D",
"].	c #473A35",
"^.	c #313737",
"/.	c #373D3E",
"(.	c #434A4B",
"_.	c #41484A",
":.	c #42484A",
"<.	c #404748",
"[.	c #383B30",
"}.	c #333624",
"|.	c #C69257",
"1.	c #575A3F",
"2.	c #3C403A",
"3.	c #323838",
"4.	c #444B4B",
"5.	c #3F4542",
"6.	c #3C413B",
"7.	c #303434",
"8.	c #2F3333",
"9.	c #393D34",
"0.	c #575C42",
"a.	c #333524",
"b.	c #854E2B",
"c.	c #515647",
"d.	c #373D3A",
"e.	c #444A4B",
"f.	c #404543",
"g.	c #545945",
"h.	c #585C41",
"i.	c #353728",
"j.	c #101008",
"k.	c #8B5029",
"l.	c #555A44",
"m.	c #373C39",
"n.	c #404643",
"o.	c #919173",
"p.	c #444B4C",
"q.	c #3E433F",
"r.	c #36392C",
"s.	c #303435",
"t.	c #353A3A",
"u.	c #36382B",
"v.	c #343625",
"w.	c #36392B",
"x.	c #3B4039",
"y.	c #353A3B",
"z.	c #1E201D",
"A.	c #2E3333",
"B.	c #3D4344",
"C.	c #3C4244",
"D.	c #232625",
"E.	c #454C4D",
"F.	c #47342B",
"G.	c #472E21",
"H.	c #463F3C",
"I.	c #484C4E",
"J.	c #56484A",
"K.	c #47250B",
"L.	c #783438",
"M.	c #373D3D",
"N.	c #514A4C",
"O.	c #6A4E43",
"P.	c #9F4E3D",
"Q.	c #B05641",
"R.	c #472917",
"S.	c #2E3332",
"T.	c #504A4C",
"U.	c #614346",
"V.	c #7D4C30",
"W.	c #AD5643",
"X.	c #8A502B",
"Y.	c #47362F",
"Z.	c #464545",
"`.	c #464949",
" +	c #614345",
".+	c #713A3D",
"++	c #AD5541",
"@+	c #834F32",
"#+	c #3E4445",
"$+	c #414849",
"%+	c #383D3E",
"&+	c #793438",
"*+	c #AE5541",
"=+	c #472F22",
"-+	c #363C3D",
";+	c #473024",
">+	c #C89457",
",+	c #472B1B",
"'+	c #353B3B",
")+	c #3A3D3C",
"!+	c #472812",
"~+	c #474D4F",
"{+	c #484E50",
"]+	c #484F50",
"^+	c #473C37",
"/+	c #47260F",
"(+	c #472A18",
"_+	c #292D2C",
":+	c #3E4546",
"<+	c #474E4F",
"[+	c #4D5352",
"}+	c #575C56",
"|+	c #595D56",
"1+	c #353C3C",
"2+	c #493428",
"3+	c #472814",
"4+	c #3D4445",
"5+	c #495050",
"6+	c #5E6258",
"7+	c #787965",
"8+	c #7B7D67",
"9+	c #3E4340",
"0+	c #362A2D",
"a+	c #472B1C",
"b+	c #4B5251",
"c+	c #676A5D",
"d+	c #898A6E",
"e+	c #8E8E71",
"f+	c #3A3E35",
"g+	c #536164",
"h+	c #383E3F",
"i+	c #4B3D35",
"j+	c #464240",
"k+	c #47352D",
"l+	c #472915",
"m+	c #494F4D",
"n+	c #4E5449",
"o+	c #575B42",
"p+	c #3B3F37",
"q+	c #3E4446",
"r+	c #464A4A",
"s+	c #47362E",
"t+	c #783539",
"u+	c #35382A",
"v+	c #525746",
"w+	c #535845",
"x+	c #404644",
"y+	c #4B3F38",
"z+	c #473C35",
"A+	c #272B2A",
"B+	c #151712",
"C+	c #424847",
"D+	c #262A29",
"E+	c #11110A",
"F+	c #525747",
"G+	c #4B514C",
"H+	c #536263",
"I+	c #3F4547",
"J+	c #232725",
"K+	c #13140E",
"L+	c #55615E",
"M+	c #313636",
"N+	c #1F211F",
"O+	c #343626",
"P+	c #565B43",
"Q+	c #565A43",
"R+	c #8E8F71",
"S+	c #E5D18C",
"T+	c #46514F",
"U+	c #454B4C",
"V+	c #909072",
"W+	c #373B2F",
"X+	c #414745",
"Y+	c #3F4441",
"Z+	c #555944",
"`+	c #45504D",
" @	c #373A2E",
".@	c #85856C",
"+@	c #3D423D",
"@@	c #444A4A",
"#@	c #3F4440",
"$@	c #3B3F38",
"%@	c #4A5756",
"&@	c #343727",
"*@	c #4F5449",
"=@	c #526063",
"-@	c #414749",
";@	c #363B3C",
">@	c #473126",
",@	c #34393A",
"'@	c #434949",
")@	c #272A29",
"!@	c #472916",
"~@	c #8A502C",
"{@	c #473731",
"]@	c #3F4647",
"^@	c #2F1C17",
"/@	c #452B1C",
"(@	c #6D3C40",
"_@	c #4A3A33",
":@	c #473B36",
"<@	c #4E4D4B",
"[@	c #46403D",
"}@	c #472B1A",
"|@	c #363C3C",
"1@	c #75373B",
"2@	c #472F23",
"3@	c #763639",
"4@	c #72393D",
"5@	c #8B502B",
"6@	c #432F25",
"7@	c #793D41",
"8@	c #473227",
"9@	c #2F3535",
"0@	c #464848",
"a@	c #845031",
"b@	c #3A3C3C",
"c@	c #4E4F4E",
"d@	c #42271C",
"e@	c #495659",
"f@	c #793337",
"g@	c #6E3C3F",
"h@	c #4F5252",
"i@	c #42494A",
"j@	c #473A34",
"k@	c #472C1C",
"l@	c #404648",
"m@	c #3D423E",
"n@	c #1A1C18",
"o@	c #47342C",
"p@	c #46413F",
"q@	c #3E433E",
"r@	c #383B31",
"s@	c #181A16",
"t@	c #292D2D",
"u@	c #3A3E36",
"v@	c #353829",
"w@	c #393E3F",
"x@	c #383C31",
"y@	c #3C413C",
"z@	c #60767B",
"A@	c #526569",
"B@	c #354142",
"C@	c #363A2C",
"D@	c #3E463E",
"E@	c #404B4D",
"F@	c #5C7176",
"G@	c #526164",
"H@	c #60777C",
"I@	c #596D72",
"J@	c #405052",
"K@	c #383E32",
"L@	c #595F45",
"M@	c #3F4841",
"N@	c #4F6265",
"O@	c #212422",
"P@	c #373A2F",
"Q@	c #313536",
"R@	c #2C3030",
"S@	c #8F8F71",
"T@	c #1B1D19",
"U@	c #2E3232",
"V@	c #191A17",
"W@	c #111109",
"X@	c #414645",
"Y@	c #2B2F2F",
"Z@	c #303535",
"`@	c #8D8D70",
" #	c #545944",
".#	c #323737",
"+#	c #3F4546",
"@#	c #2B2F2E",
"##	c #13130D",
"$#	c #4C524B",
"%#	c #3C4143",
"&#	c #E7D28C",
"*#	c #515648",
"=#	c #2D3232",
"-#	c #1A1C19",
";#	c #434A4A",
">#	c #222624",
",#	c #36292D",
"'#	c #312628",
")#	c #2C2324",
"!#	c #363029",
"~#	c #343327",
"{#	c #575B3F",
"]#	c #2B2D1E",
"^#	c #131311",
"/#	c #141413",
"(#	c #2F2527",
"_#	c #1C1815",
":#	c #333422",
"<#	c #1F150F",
"[#	c #2C1B15",
"      . . . . . . + . . . . + . + . + . + . @ # $ % & * = - ; ; > , ' ) ! ~ { . . . . . . . . . . . . . . . . . . + . . . . + . ",
". ] ] ] ] ] ] ] ] ] ] ] ] ] ] ] ] ] ] ] ] ^ / ( _ : < ; ; [ } } } | | 1 2 3 4 ] ] ] ] ] ] ] ] ] ] ] ] ] ] ] ] ] ] ] ] ] ] ] ] ] ",
". ] ] ] ] ] ] ] ] ] ] ] ] ] ] ] ] ] ] ] 5 6 7 8 < ; ; ; [ } } 9 0 0 9 a b c d 4 e ] ] ] ] ] ] ] ] ] ] ] ] ] ] ] ] ] ] ] ] ] ] f ",
"+ ] g . f ] ] ] ] ] ] ] ] ] ] ] ] ] ] h i ( j k ; ; ; ; [ [ } 9 0 0 0 9 l m n o ^ e ] ] ] ] ] ] ] ] ] ] ] ] ] ] ] ] g . f ] ] ] ",
". ] g f f ] ] ] ] ] ] ] ] ] ] ] ] ] ] p q r - ; ; ; ; ; ; [ } } } 0 0 0 9 [ s t u v w ] ] ] ] ] ] ] ] ] ] ] ] ] ] ] g f f ] ] f ",
"+ ] g g ] ] ] ] ] ] ] ] ] ] ] ] ] ] ] p q 8 x - ; ; ; ; ; [ [ [ } 9 0 9 } [ y z A B v e ] ] ] ] ] ] ] ] ] ] ] ] ] ] g g ] ] ] ] ",
"+ ] ] ] ] ] ] ] ] ] ] ] ] ] ] ] ] ] ] C D 8 x x - ; ; ; ; ; ; [ } } } } } 9 9 } b A E v e ] ] ] ] ] ] ] ] ] ] ] ] ] ] ] ] ] ] f ",
"+ ] ] ] ] ] ] ] ] ] ] ] ] ] ] ] ] ] F G H I x x x - ; ; ; ; ; [ [ } } } 9 0 0 9 J 1 K E C ] ] ] ] ] ] ] ] ] ] ] ] ] ] ] ] ] ] f ",
"] ] ] ] ] ] ] ] L L g g g g g g g M N O P Q x x x x - - - ; [ [ [ [ [ ; R R R R [ S T U V W g g g f g f g f f f ] ] ] ] ] ] ] f ",
"+ ] ] ] ] ] ] ] g f ] ] ] ] ] ] ] h X Y Z x x x x x x - - ; ; [ [ - x x x ` ` ` x S <  ...h ] ] ] ] ] ] ] ] ] ] ] ] ] ] ] ] ] f ",
"] ] ] ] ] ] ] ] f ] ] ] ] ] ] ] ] h +.@.#.x x x x x - - - - - x - - ; ; ; $.` %.&.r *.=.-.;.] ] ] ] ] ] ] ] ] + ] ] ] ] ] ] ] f ",
"+ ] ] ] ] ] ] ] g ] ] ] ] ] ] ] ] h +.>.#.x x x x x - - x x x x x ; [ [ } [ $.: ,.( ..'.).e ] ] ] ] ] ] ] ] ] ] ] ] ] ] ] ] ] f ",
"+ ] ] ] ] ] ] ] f ] ] ] ] ] ] ] ] e !.~.#.x x x x x x %.%.x - - ; ; ; [ } [ $.{.].^.^ /.e ] ] ] ] ] ] ] ] ] ] + ] ] ] ] ] ] ] g ",
"+ ] ] ] ] ] ] ] f ] ] ] ] e (._.:.<...[.}.%.x - - x %.%.x - ; [ [ [ - - ; |.1.2.3.F f ] ] ] ] ] ] ] ] ] ] ] ] + ] ] ] ] ] ] ] f ",
"+ ] ] ] ] ] ] ] f ] ] ] ] 4.5.6.7.8.9.0.a.` %.x x %.%.x - ; [ } 9 } [ - - b.c.d.h f ] ] ] ] ] ] ] ] ] ] ] ] ] + ] ] ] ] ] ] ] g ",
"+ ] ] ] ] ] ] ] f ] ] e e.f.g.h.h.i.h.$.$.` j.%.%.` $.x - - ; } 9 } } [ k.l.m.h ] ] ] ] ] ] ] ] ] ] ] ] ] ] ] + ] ] ] ] ] ] ] g ",
"+ ] ] ] ] ] ] ] f ] ] ^ n.9.h.R R R $.$.` ` ` j.` $.$.` - - - [ [ [ [ 9 o.l./ p.] ] ] ] ] ] ] ] ] ] ] ] ] ] ] . ] ] ] ] ] ] ] g ",
"+ ] ] ] ] ] ] ] f ] ] p q.r.$.$.$.R $.` ` ` ` ` ` ` $.$.x x - [ [ [ ; R R r.s./ h ] ] ] ] ] ] ] ] ] ] ] ] ] ] . ] ] ] ] ] ] ] f ",
"+ ] ] ] ] ] ] ] f ] ] C t.u.$.$.$.` ` x x $.$.$.$.` ` ` ` %.x ; ; ; ; [ $.v.w.x.G ^ ] ] ] ] ] ] ] ] ] ] ] ] ] . ] ] ] ] ] ] ] g ",
"+ ] ] ] ] ] ] ] f ] ] p y.z.` $.` %.x - ; - $.$.R $.` ` j.j.%.- - [ [ } $.` a.r.A.B.e ] ] ] ] ] ] ] ] ] ] ] ] . ] ] ] ] ] ] ] f ",
"+ ] ] ] ] ] ] ] f ] ] h C.x.r.a.x - [ [ [ ; - $.$.$.` ` j.j.j.%.- [ [ } ; %.` v.D.'.h ] ] ] ] ] ] ] ] ] ] ] ] . ] ] ] ] ] ] ] f ",
"+ ] ] ] ] ] ] ] f ] ] ] E.u F.#.- ; [ } } [ - $.$.` ` ` j.j.%.%.$.[ [ [ - ` ` a.G.H.C e ] ] ] ] ] ] ] ] ] ] ] . ] ] ] ] ] ] ] f ",
"+ ] ] ] ] ] ] ] f ] ] ] I.J.t k.[ [ [ } } [ - x $.$.` ` j.%.x %.` - ; ; $.R ` K.L.=.M.C ] ] ] ] ] ] ] ] ] ] ] . ] ] ] ] ] ] ] f ",
"+ ] ] ] ] ] ] ] f ] ] I.N.O.P.Q.[ [ ; [ [ ; ; x $.$.` ` ` ` x %.%.x x ` $.$.` x - R.S.<.e ] ] ] ] ] ] ] ] ] ] . ] ] ] ] ] ] ] f ",
"+ ] ] ] ] ] ] ] f ] I.T.U.V.W.} } [ ; ; ; x x x $.$.` ` $.` ` %.%.- x ` ` $.` - ; X.Y.Z.h ] ] ] ] ] ] ] ] ] ] . ] ] ] ] ] ] ] f ",
"+ ] ] ] ] ] ] ] f e `. +.+++[ } [ ; - x x x x %.` ` ` $.R $.` j.%.- x x ` ` ` - [ S @+].#+e ] ] ] ] ] ] ] ] ] . ] ] ] ] ] ] ] f ",
"+ ] ] ] ] ] ] ] M $+%+F.&+S [ [ ; ; - x x x x %.%.j.` $.R $.` %.%.x x x %.j.%.; [ [ *+=+%+h ] ] ] ] ] ] ] ] ] . ] ] ] ] ] ] ] f ",
"+ ] ] ] ] ] ] ] -+M.;+L.; [ [ ; - ; ; x %.x x x %.` $.$.$.$.` x x ; ; x %.%.x - [ } >+,+'+^ e ] ] ] ] ] ] ] ] . ] ] ] ] ] ] ] g ",
"+ ] ] ] ] ] ] ] )+D !+x ; [ [ [ ; ; [ ; - - x x ` $.$.$.$.$.` x x ; ; x %.%.x - [ } [ L.7 -.p ] ] ] ~+{+]+] ] . ] ] ] ] ] ] ] f ",
"] ] ] ] ] ] ] ] )+^+/+x ; [ } } [ [ [ [ ; - - x $.$.R R R $.` ` ` x x - x %.%.x ; [ [ < (+_+:+] ] <+[+}+|+e.;.+ ] ] ] ] ] ] ] g ",
"+ ] ] ] ] ] ] ] 1+2+3+x - ; ; [ [ [ [ [ ; ; ; ; ; - $.R R R $.$.` %.%.%.%.` ` x ; ; ; ; &.@.4+] ] 5+6+7+8+9+<.. ] ] ] ] ] ] ] f ",
"] ] ] ] ] ] ] ] 0+-.F.a+x x - ; [ [ ; ; - ; } 9 } [ ; $.$.R R R $.` $.$.$.$.` %.x - - - &.@.G e ] b+c+d+e+f+4+g+] ] ] ] ] ] ] g ",
"+ ] ] ] ] ] ] ] h+i+j+k+l+x x - ; ; ; - - [ } 9 9 9 [ $.$.R R R R $.$.R R R $.j.j.%.%.%./+D.X 4.p.m+n+o+0.p+q++ ] ] ] ] ] ] ] g ",
"] ] ] ] ] ] ] ] g e r+j+s+t+x x x - - x ; [ } } [ [ [ ; - $.$.$.$.R R $.$.$.` ` ` $.$.$.$.u+f+2.2.v+g.o+w+x+C + ] ] ] ] ] ] ] g ",
"+ ] ] ] ] ] ] ] f y+e z+h+A+B+K.%.%.x %.; [ [ [ [ - ; ; x ` $.$.$.R R $.$.$.$.$.$.R R R $.$.h.h.h.h.h.u+x.C+E.+ ] ] ] ] ] ] ] g ",
"+ ] ] ] ] ] ] ] g ] y+e C A.D+E+` ` %.%.- ; [ [ [ - - x %.` ` $.$.$.$.` ` $.[ [ [ ; $.$.$.R R R R $.$.v.o+F+G+H+] ] ] ] ] ] ] g ",
"+ ] ] ] ] ] ] ] g y+y+] h+I+J+K+` ` ` %.- ; ; [ ; - x x %.j.` ` ` ` ` ` %.- [ } 9 [ ; R R R o.| o.$.$.$.| d+7+L+e ] ] ] ] ] ] g ",
"+ ] ] ] ] ] y+] g y+] f e <.M+N+O+` ` ` %.%.x - - x x x x %.j.j.` ` j.%.%.- [ } 9 } } 9 R h.P+l.Q+R+R R R S+P+T+U+] ] ] ] ] ] g ",
"+ ] ] ] ] y+] y+g y+y+] ] h #+M+w.` ` ` ` %.%.%.x - ; ; - %.` ` $.` %.x x - - [ [ [ } 9 V+W+y.X+Y+Z+h.h.h.V+o+`+U+] ] ] ] ] ] g ",
"+ ] ] ] y+] y+y+g y+] y+] ] F h+ @` ` ` ` %.%.%.x ; ; ; - ` ` $.$.` %.x ; ; - - ; [ [ |..@+@<.e @@#@x.$@$@v+6.%@E.] ] ] ] ] ] g ",
"] ] ] y+] y+] ] g y+y+] ] ] h !.A+&@a.` ` x x x - ; ; ; - ` $.$.$.` %.- [ [ ; - x x h.Q+*@e.e ] w ;.4.4.4.4.p.=@] ] ] ] ] ] ] g ",
"+ ] ] ] ] ] ] ] f y+] ] ] ] e -@;@A+i.a.%.x x x ; ; [ ; ; x $.$.$.$.%.; [ [ [ ; - &.>@,@'@e ] ] ] ] ] ] ] ] ] + ] ] ] ] ] ] ] g ",
"] ] ] ] ] ] ] ] g ] ] ] ] ] ] e :.M.)@!@x x - ; [ } } [ ; $.$.R R $.x ; ; [ } [ ; ~@{@]@e ] ] ] ] ] ] ] ] ] ] + ] ] ] ] ] ] ] ^@",
"] ] ] ] ] ] ] ] f ] ] ] ] ] ] ] e -@y./@&.x ; [ } } } [ ; $.$.R R $.x - ; [ } } [ *+(@6 h ] ] ] ] ] ] ] ] ] ] + ] ] ] ] ] ] ] g ",
"] ] ] ] ] ] ] ] g ] ] ] ] ] ] ] ] h +._@#.x - ; [ } } [ ; - R R R $.%.- ; [ } } } J @+:@q+e ] ] ] ] ] ] ] ] ] + ] ] ] ] ] ] ] ^@",
"] ] ] ] ] ] ] ] f ] ] ] ] ] ] ] e <.<@=+#.x - ; [ } } [ ; - - ` ` ` x ; [ [ } } } [ X.G.%+h ] ] ] ] ] ] ] ] ] + ] ] ] ] ] ] ] g ",
"] ] ] ] ] ] ] ] f ] ] ] ] ] ] ] C [@.+&+K.x ; [ [ } } [ ; - x %.%.%.x - ; [ [ [ } [ - }@|@h ] ] ] ] ] ] ] ] ] + ] ] ] ] ] ] ] g ",
"+ ] ] ] ] ] ] ] f ] ] ] ] ] ] ] -@].t+x x x ; [ [ [ } [ ; - x #.#.x x x ; ; ; ; [ [ - ,+-+h ] ] ] ] ] ] ] ] ] + ] ] ] ] ] ] ] g ",
"] ] ] ] ] ] ] ] f ] ] ] ] ] ] ] <.].I x x - - - - ; [ [ ; s 1@;+2@L.x x - ; ; - ; ; - }@|@h ] ] ] ] ] ] ] ] ] + ] ] ] ] ] ] ] g ",
"+ ] ] ] ] ] ] ] f ] ] ] ] ] ] ] -@^+3@x - - ; - - - - - x G.M+%+H.4@&.x x - ; ; [ ; 5@j /.h ] ] ] ] ] ] ] ] ] . ] ] ] ] ] ] ] g ",
"+ ] ] ] ] ] ] ] f ] ] ] ] ] ] ] p j+6@7@x - ; ; - - x x x 8@9@^ 0@s+: x - ; ; ; ; S a@H B.e ] ] ] ] ] ] ] ] ] + ] ] ] ] ] ] ] g ",
"+ ] ] ] ] ] ] ] f ] ] ] ] ] ] ] e b@c@;+k x x - - x x x R.d@e@e p s._ &.- - - $.- f@g@3 ^ ] ] ] ] ] ] ] ] ] ] . ] ] ] ] ] ] ] g ",
"+ ] ] ] ] ] ] ] f ] ] ] ] ] ] ] ] h +.8@}.$.$.x x x K.L.6@h@i@e h / j@k@x x $.R R h.$@l@e ] ] ] ] ] ] ] ] ] ] + ] ] ] ] ] ] ] ^@",
"+ ] ] ] ] ] ] ] f ] ] ] ] ] ] ] e '@m@ @$.$.$.$.%.j.n@o@p@v e ] ] F j+2@a.` $.$.R h.$@<.] ] ] ] ] ] ] ] ] ] ] . ] ] ] ] ] ] ] g ",
"+ ] ] ] ] ] ] ] f ] ] ] ] ] ] ;.'@q@r@&@$.$.$.$.}.s@t@-.i@e ] ] ] e C.A+&@a.` $.R h.u@C+h ] ] ] ] ] ] ] ] ] ] . ] ] ] ] ] ] ] ^@",
"+ ] ] ] ] ] ] ] f ] ] ] ] ] e '@m@r@&@$.$.$.R $.v@u@w@C e ] ] ] ] e -@y.x@O+` $.$.$.Q+y@:+e ] ] ] ] ] ] ] ] ] . ] ] ] ] ] ] ] ^@",
"+ ] ] ] ] ] ] ] ] + + + + . z@A@B@C@v.$.$.$.$.$.D@E@F@G@. . . . . . H@I@J@K@$.$.` $.L@M@N@z@. + . + . .         ] ] ] ] ] ] ] ^@",
"+ ] ] ] ] ] ] ] ] ] ] ] ] ] h w@O@j.` ` ` $.$.$.P@w@p.] ] ] ] ] ] ] ] i@Q@v@$.$.` ` a.u+#@p.] ] ] ] ] ] ] ] ] ] ] ] ] ] ] ] ] ^@",
"] ] ] ] ] ] ] ] ] ] ] ] ] (.+.R@u+` ` $.R $.$.` O@w@h ] ] ] ] ] ] ] ] i@Q@n@` ` ` $.R S@w+w@C ] ] ] ] ] ] ] ] ] ] ] ] ] ] ] ] ^@",
"+ ] g . f ] ] ] ] ] ] ] e l@8.T@v.` $.R R R $.` O@w@h ] ] ] ] ] ] ] ;.I+U@V@W@j.` R R o.0.g.X@_.p ;.] ] ] ] ] ] ] ] g . f ] ] ^@",
"] ] g f f ] ] ] ] ] ] ] e I+Y@K+` ` $.R R R R $. @5.^ ] ] ] ] ] ] e I+Z@ @v.` ` $.$.R 0 o.`@ #$@.#+#e ] ] ] ] ] ] ] g f f ] ] ^@",
"+ ] g g ] ] ] ] ] ] ] ] e I+@###` ` $.R [ 9 } R o+F+$#E.] ] ] ] ] e %#@.O+` ` $.$.$.R 9 9 &#V+S@Q+*#C+h ] ] ] ] ] ] g g g ] ] ^@",
"] ] ] ] ] ] ] ] ] ] ] ] e ]@=#-#i.O+$.R 9 0 0 9 h.o+6.;#] ] ] ] ] e !.>#a.` $.$.$.R R R 9 0 0 0 V+P+y@C ] ] ] ] ] ] ] g g ] ] ^@",
"g ^@^@^@^@^@^@g ^@g ^@g g ,#'#)#!#~#{#R R R R R $.` ]#^#/#/#g /#g W (#_#W@` ` ` ` $.$.$.R R R R $.:#<#[#^@^@^@g ^@g ^@/#/#^@^@^@"};
