/* XPM */
static char * soldzero_xpm[] = {
"64 64 342 2",
"  	c #889C9E",
". 	c #62797E",
"+ 	c #536265",
"@ 	c #525F61",
"# 	c #475456",
"$ 	c #404C4D",
"% 	c #3F4B4C",
"& 	c #4E4E4D",
"* 	c #575F61",
"= 	c #505656",
"- 	c #60757A",
"; 	c #536264",
"> 	c #464D4F",
", 	c #454B4D",
"' 	c #41484A",
") 	c #404748",
"! 	c #464443",
"~ 	c #47352D",
"{ 	c #472812",
"] 	c #47260E",
"^ 	c #7A3337",
"/ 	c #7A3336",
"( 	c #6E3C3F",
"_ 	c #414849",
": 	c #454C4E",
"< 	c #3F4647",
"[ 	c #323737",
"} 	c #473730",
"| 	c #47352C",
"1 	c #472C1D",
"2 	c #7B3236",
"3 	c #8C5029",
"4 	c #B15540",
"5 	c #B05540",
"6 	c #A85442",
"7 	c #545945",
"8 	c #3B3F37",
"9 	c #3C413C",
"0 	c #464849",
"a 	c #383F40",
"b 	c #382B2F",
"c 	c #444B4D",
"d 	c #3F4547",
"e 	c #333838",
"f 	c #472C1C",
"g 	c #47250A",
"h 	c #C99457",
"i 	c #E39F61",
"j 	c #929273",
"k 	c #87502F",
"l 	c #634245",
"m 	c #3E4546",
"n 	c #313636",
"o 	c #472E21",
"p 	c #E8D38D",
"q 	c #DFDFD1",
"r 	c #C79357",
"s 	c #845032",
"t 	c #473B36",
"u 	c #464848",
"v 	c #3F4546",
"w 	c #472E20",
"x 	c #C89357",
"y 	c #A65443",
"z 	c #674043",
"A 	c #464C4E",
"B 	c #393E3F",
"C 	c #472F22",
"D 	c #76363A",
"E 	c #463D39",
"F 	c #404648",
"G 	c #383E3F",
"H 	c #AF5541",
"I 	c #565B43",
"J 	c #3C403A",
"K 	c #434A4A",
"L 	c #241B17",
"M 	c #372A2E",
"N 	c #2D2325",
"O 	c #452A1A",
"P 	c #89896C",
"Q 	c #444530",
"R 	c #2C2324",
"S 	c #2F2426",
"T 	c #34282C",
"U 	c #463E3A",
"V 	c #472C1E",
"W 	c #E5D08B",
"X 	c #585A3F",
"Y 	c #472D1E",
"Z 	c #29231D",
"` 	c #3B4142",
" .	c #42494A",
"..	c #463E3B",
"+.	c #473126",
"@.	c #793438",
"#.	c #1E211E",
"$.	c #393F40",
"%.	c #2A2E2D",
"&.	c #595D40",
"*.	c #333523",
"=.	c #8B5029",
"-.	c #75373A",
";.	c #473933",
">.	c #3E4445",
",.	c #282C2B",
"'.	c #101008",
").	c #6B3E41",
"!.	c #363D3E",
"~.	c #493225",
"{.	c #3C4243",
"].	c #373E3F",
"^.	c #47342C",
"/.	c #56573E",
"(.	c #464747",
"_.	c #393D33",
":.	c #343A3B",
"<.	c #42484A",
"[.	c #3E433E",
"}.	c #565A43",
"|.	c #AE5440",
"1.	c #804F35",
"2.	c #43494B",
"3.	c #3B4042",
"4.	c #393D34",
"5.	c #36392D",
"6.	c #36392B",
"7.	c #585C41",
"8.	c #47260C",
"9.	c #624245",
"0.	c #46494A",
"a.	c #383D3E",
"b.	c #393C33",
"c.	c #8B502B",
"d.	c #473127",
"e.	c #46403E",
"f.	c #414749",
"g.	c #2E3232",
"h.	c #343625",
"i.	c #8A502B",
"j.	c #292D2C",
"k.	c #3D4345",
"l.	c #444A4C",
"m.	c #2C3130",
"n.	c #161712",
"o.	c #282C2C",
"p.	c #2F3535",
"q.	c #474E4F",
"r.	c #4A5151",
"s.	c #4B5251",
"t.	c #2D3131",
"u.	c #161813",
"v.	c #4F5553",
"w.	c #65695C",
"x.	c #6A6D5E",
"y.	c #414644",
"z.	c #303535",
"A.	c #353728",
"B.	c #12120C",
"C.	c #472917",
"D.	c #464646",
"E.	c #474D4F",
"F.	c #5A5E57",
"G.	c #84846B",
"H.	c #8C8C70",
"I.	c #383C32",
"J.	c #3A4041",
"K.	c #61787D",
"L.	c #3D4344",
"M.	c #575B42",
"N.	c #773539",
"O.	c #47362F",
"P.	c #4A514C",
"Q.	c #444B4C",
"R.	c #404543",
"S.	c #373A2D",
"T.	c #472915",
"U.	c #2C3030",
"V.	c #3F4541",
"W.	c #35382A",
"X.	c #55696D",
"Y.	c #47250C",
"Z.	c #181A16",
"`.	c #1F2220",
" +	c #202321",
".+	c #36392C",
"++	c #3D453D",
"@+	c #232624",
"#+	c #353B3B",
"$+	c #414745",
"%+	c #784F3A",
"&+	c #AA5442",
"*+	c #11110A",
"=+	c #333524",
"-+	c #323637",
";+	c #393D3E",
">+	c #6C3D40",
",+	c #AE5541",
"'+	c #C89457",
")+	c #DBDCCE",
"!+	c #3E433F",
"~+	c #3D3936",
"{+	c #919172",
"]+	c #8A8D75",
"^+	c #4F5449",
"/+	c #434A4C",
"(+	c #423128",
"_+	c #383B31",
":+	c #3A3E36",
"<+	c #3A3F37",
"[+	c #46514F",
"}+	c #272B2A",
"|+	c #462815",
"1+	c #783539",
"2+	c #34393A",
"3+	c #5D7377",
"4+	c #472D1F",
"5+	c #472B1B",
"6+	c #242725",
"7+	c #3D4445",
"8+	c #AF5440",
"9+	c #434A4B",
"0+	c #473A35",
"a+	c #804D2F",
"b+	c #89502C",
"c+	c #6F3B3F",
"d+	c #444A4A",
"e+	c #494737",
"f+	c #89502D",
"g+	c #464342",
"h+	c #34282B",
"i+	c #382F29",
"j+	c #482D1C",
"k+	c #4B3F38",
"l+	c #453A33",
"m+	c #323738",
"n+	c #1D201E",
"o+	c #1B1D1A",
"p+	c #141510",
"q+	c #1E211F",
"r+	c #473329",
"s+	c #46423F",
"t+	c #4A3E37",
"u+	c #473C35",
"v+	c #3E4446",
"w+	c #2F3434",
"x+	c #171914",
"y+	c #12120B",
"z+	c #2C302F",
"A+	c #1C1E1B",
"B+	c #1A1C19",
"C+	c #3C4244",
"D+	c #191B17",
"E+	c #47260F",
"F+	c #472813",
"G+	c #2D3231",
"H+	c #2D3232",
"I+	c #472B1A",
"J+	c #47372F",
"K+	c #8B502A",
"L+	c #713A3D",
"M+	c #46403D",
"N+	c #2F1C17",
"O+	c #373C3D",
"P+	c #783538",
"Q+	c #47250B",
"R+	c #472814",
"S+	c #212422",
"T+	c #783438",
"U+	c #363B3C",
"V+	c #47342B",
"W+	c #773A3D",
"X+	c #473D38",
"Y+	c #464240",
"Z+	c #47332A",
"`+	c #472F23",
" @	c #1F211F",
".@	c #472712",
"+@	c #353A3B",
"@@	c #793437",
"#@	c #473228",
"$@	c #47362E",
"%@	c #343939",
"&@	c #72393C",
"*@	c #463D3A",
"=@	c #472711",
"-@	c #14150F",
";@	c #473D39",
">@	c #2B2F2F",
",@	c #434949",
"'@	c #473832",
")@	c #303434",
"!@	c #333624",
"~@	c #919173",
"{@	c #373B30",
"]@	c #3D423D",
"^@	c #472710",
"/@	c #473A34",
"(@	c #151611",
"_@	c #373D3E",
":@	c #2F3333",
"<@	c #343727",
"[@	c #353829",
"}@	c #343626",
"|@	c #4E5C5E",
"1@	c #3B4546",
"2@	c #1F2422",
"3@	c #414A44",
"4@	c #516468",
"5@	c #5A6F74",
"6@	c #5B7176",
"7@	c #5F767B",
"8@	c #5C7176",
"9@	c #3E4D50",
"0@	c #363A2C",
"a@	c #373B2E",
"b@	c #516162",
"c@	c #60767B",
"d@	c #262A29",
"e@	c #555944",
"f@	c #292D2D",
"g@	c #272A29",
"h@	c #404643",
"i@	c #252827",
"j@	c #1B1D19",
"k@	c #909072",
"l@	c #1C1E1C",
"m@	c #525746",
"n@	c #404644",
"o@	c #363C3C",
"p@	c #13130D",
"q@	c #333839",
"r@	c #362A2E",
"s@	c #251812",
"t@	c #12110A",
"u@	c #121109",
"v@	c #271F1F",
"w@	c #141412",
"x@	c #141413",
"y@	c #171410",
"z@	c #19130C",
"A@	c #2B1A15",
"      . . . . . . + . . . . + . + . + . + . @ # $ % & & * = - ; . + . . . . . . . . . . . . . . . . . . . . . . . + . . . . + . ",
". > > > > > > > > > > > > > > > > > > , ' ) ! ~ { ] ^ / ^ ( ! ) _ : > > > > > > > > > > > > > > > > > > > > > > > > > > > > > > ",
". > > > > > > > > > > > > > > > > > : < [ } | 1 2 3 4 4 5 6 7 8 9 0 : > > > > > > > > > > > > > > > > > > > > > > > > > > > > a ",
"+ > b . a > > > > > > > > > > > > c d e f g g 2 4 h i i i i j j k l m : > > > > > > > > > > > > > > > > > > > > > > b . a > > > ",
". > b a a > > > > > > > > > > > : < n o ^ 2 2 3 h h i p p q q p r s t u : > > > > > > > > > > > > > > > > > > > > > b a a > > a ",
"+ > b b > > > > > > > > > > > : v t w / 2 3 4 4 h i i i p p q q p x y z d A > > > > > > > > > > > > > > > > > > > > b b > > > > ",
"+ > > > > > > > > > > > > > > c B C 2 2 2 3 4 4 4 h i i i p q q q i x D E F : > > > > > > > > > > > > > > > > > > > > > > > > a ",
"+ > > > > > > > > > > > > > > c G w 2 2 2 3 4 4 4 4 h i i i p p p h 4 H I J K c , : > > > > > > > > > > > > > > > > > > > > > a ",
"> > > > > > > > L L b b b b b M N O 2 2 2 2 4 4 4 4 4 h h h h h h 4 4 p p P Q R S T b b b b b b b a b a b a a a > > > > > > > a ",
"+ > > > > > > > b a > > > > : 0 U V 2 2 2 2 2 3 4 4 4 4 4 4 4 4 4 h h p q W X Y Z ` : > > > > > > > > > > > > > > > > > > > > a ",
"> > > > > > > > a > > > > >  ...+.@.2 2 2 2 2 2 3 3 3 3 4 4 4 h i i h j j j 3 2 #.$.: > > > > > > > > > > > > + > > > > > > > a ",
"+ > > > > > > > b > > > > > F %.] 2 2 2 2 2 2 2 2 2 2 3 4 h h h h h 4 &.*.2 =.-.;.>.: > a > > > > > > > > > > > > > > > > > > a ",
"+ > > > > > > > a > > > > > < ,.'.g 2 2 2 2 2 2 g g g 2 h i i 4 3 2 *.*.g 2 @.).u !.> a > > > > > > > > > > > + > > > > > > > b ",
"+ > > > > > > > a > > > > > < ,.g 2 2 2 2 2 2 2 3 3 4 4 h 4 h h 4 4 h h j D ~.{.].> a > > > > > > > > > > > > + > > > > > > > a ",
"+ > > > > > > > a > > > > > < ^.2 2 2 g 2 2 2 3 4 3 h h j 3 3 4 h h i p j /.(.].> a > > > > > > > > > > > > > + > > > > > > > b ",
"+ > > > > > > > a > > > > : < ,.g 2 2 2 3 4 3 2 2 2 3 3 h h h 4 4 4 h i j _.:.> > > > > > > > > > > > > > > > + > > > > > > > b ",
"+ > > > > > > > a > : <.` B [.}.*.*.g 2 3 3 3 2 *.g g 2 h i h h 4 3 3 |.1.U 2.> > > > > > > > > > > > > > > > . > > > > > > > b ",
"+ > > > > > > > a > c 3.4.5.6.7.&.*.'.g g g g &.&.'.2 3 h h h h h 3 8.w 9.0.: > > > > > > > > > > > > > > > > . > > > > > > > a ",
"+ > > > > > > > a 2.a.b.7.j &.&.&.*.'.'.'.'.*.&.&.*.2 3 4 j p i h c.d.e.0 A > > > > > > > > > > > > > > > > > . > > > > > > > b ",
"+ > > > > > > > a f.g.h.&.j j &.*.&.*.'.'.*.*.&.&.*.3 3 3 j q p h i.j.k.l.a > > > > > > > > > > > > > > > > > . > > > > > > > a ",
"+ > > > > > > > a ) m.*.&.j &.&.&.*.'.*.&.*.*.*.*.&.&.g 3 4 h p p &.n.o.p.c > > > > > > > > > > > > q.r.s.: : . > > > > > > > a ",
"+ > > > > > > > a ) t.*.&.j *.&.&.2 g *.&.&.&.*.*.&.*.g 2 4 h i i 3 '.u.g.{.c > > > > > > > > > > > v.w.x.y._ . > > > > > > > a ",
"+ > > > > > > > a _ z.A.&.&.*.&.3 4 3 2 *.&.j &.*.*.*.*.g 3 h h h &.'.B.C.~ D.l.> > > > > > > > > E.F.G.H.I.J.K.> > > > > > > a ",
"+ > > > > > > > a c L.J M.*.2 4 h h h 3 2 &.&.&.*.'.'.'.'.&.3 3 3 &.*.g 2 N.O.$.: > > > > > > > > > P.}.&.5.B K.> > > > > > > a ",
"+ > > > > > > > a > Q.R.S.*.3 h i i h 4 2 &.&.*.&.&.*.g g *.g g *.&.&.&.2 2 T.U.{.k.k.k.k.k.k.k.k.k.V.M.&.W.[ X.>.<.> > > > > a ",
"+ > > > > > > > a > c $.o 4 h h h i h 4 4 3 *.*.j j &.*.2 g g 2 2 *.&.j &.g Y.Z.`. + + + + + + + + +.+&.&.h.W.++@+#+: > > > > a ",
"+ > > > > > > > a l.$+%+&+h i h h h 4 4 4 3 *.&.j j &.g g g g 2 g *.&.&.*.*.&.&.&.&.&.&.&.*+*+=+&.&.&.&.&.&.j j 7.-+: > > > > a ",
"+ > > > > > > > ;+! >+,+'+i i h 4 4 3 2 2 2 *.&.&.&.&.&.*.*.*.*.*.*.'.*.*.&.j j j j j j &.*.&.&.j j j j j j p )+}.!+: > > > > b ",
"+ > > > > > > c ~+( 6 h h h h 4 3 2 g g g g *.&.j j j j j j j j &.*.*.&.j j j j &.&.&.&.&.3 j h j &.&.&.&.&.{+]+^+< > > > > > a ",
"> > > > > > /+J.(+^ 5 h 4 4 3 3 3 2 g 2 2 2 *.&.j j j j j j j j j &.&.&.j &.&.&.2 2 3 4 3 4 i h i._+:+8 8 <+8 [+Q.> > > > > > b ",
"+ > > > > : v }+|+3 4 4 4 4 2 4 4 3 2 3 4 3 g *.&.&.&.&.&.&.&.&.&.j j j &.&.*.2 3 4 i p h 3 h h 1+2+< f.) ) f.3+: > > > > > > a ",
"> > > > > : k.4+3 h h h 4 4 4 4 h 4 h h 3 2 3 4 h h h h h 3 *.&.&.&.&.&.&.&.*.2 3 h h h 4 2 3 3 5+G c > > > > + > > > > > > > b ",
"+ > > > > : k.4+4 i i i h 4 4 h h h h 4 2 2 4 h i p p p h 3 *.&.&.&.&.&.&.&.*.2 4 h h 4 2 g Y.u.6+` : > > > > + > > > > > > > b ",
"> > > > > : 7+C 8+i h h h h h i i h 4 3 3 4 h h i p h j 3 g '.*.*.*.*.*.*.*.'.g g 2 2 g 3 3 T.j.J.9+> > > > > + > > > > > > > b ",
"+ > > > > > f.0+a+h 4 4 h h h h h h 3 2 2 4 h h h p h 2 g '.'.'.'.'.'.'.*.*.'.'.'.g g 2 3 b+c+a./+> > > > > > + > > > > > > > b ",
"+ > > > > > : d+e+N./ 2 3 4 4 4 h h 3 g 2 4 h h h h 4 3 g '.*.*.*.'.'.*.&.*.*.'.g g 3 4 f+d.g+/+: > > > > > > + > > > > > > > b ",
"+ > > > > > > : h+i+j+g g 2 2 3 4 h 3 g g 3 4 h h h 4 3 2 *.&.&.&.*.*.&.&.&.&.*.g g 2 ^ >+J.2.> > > > > > > > + > > > > > > > b ",
"+ > > > > > k+> M l+m+n+@+o+Y.2 3 3 2 g g 2 3 4 h h 3 3 g *.&.&.&.*.*.&.&.&.j &.p+q++.r+s+c > > > > > > > > > + > > > > > > > b ",
"+ > > > > k+> k+b t+u+f.v+w+x+y+g g g g 2 2 g *.&.&.*.g g '.*.*.*.2 2 *.&.&.j &..+2+< f.l.> > > > > > > > > > + > > > > > > > b ",
"+ > > > k+> k+k+b k+> k+c 3.z+A+'.g g 2 3 2 2 2 3 4 3 g 2 2 2 g g 2 2 *.&.&.j &.B+g.C+l.> > > > > > > > > > > + > > > > > > > b ",
"> > > k+> k+> > b k+k+> > : < t.D+E+2 3 4 4 4 4 h h 4 3 3 4 4 2 2 4 4 2 &.j j &.=+F+G+f.> > > > > > > > > > > + > > > > > > > b ",
"+ > > > > > > > a k+> > > > Q.{.H+I+3 4 4 h h h h h 4 3 3 3 3 3 3 4 4 3 &.&.&.&.3 ^ J+u : > > > > > > > > > > + > > > > > > > b ",
"> > > > > > > > b > > > > > > c a.w 3 4 4 h h h h 4 4 4 2 g g 4 4 4 4 4 3 2 3 4 4 K+L+M+_ > > > > > > > > > > + > > > > > > > N+",
"> > > > > > > > a > > > > > > /+O+4+2 3 4 h h 4 h h h 4 2 g 2 4 4 3 3 4 4 4 h i h h b+C B : > > > > > > > > > + > > > > > > > b ",
"> > > > > > > > b > > > > > 2.a.^.P+3 4 h h i h h i h 3 Q+Y.Y.3 4 2 2 3 4 h h i i h 4 R+#+: > > > > > > > > > + > > > > > > > N+",
"> > > > > > > > a > > > > > F ~ Y.3 4 h h i i i i i 4 ^ 1 S+C T+2 g g 3 h h 4 h h i h R+U+: > > > > > > > > > + > > > > > > > b ",
"> > > > > > > > a > > > > : v+V+g 3 4 4 h h i i h h 3 W+X+` Y+Z+^ 2 2 4 4 h 4 4 4 h 4 R+U+: > > > > > > > > > + > > > > > > > b ",
"+ > > > > > > > a > > > : d 2+`+2 2 3 4 4 h h i h 4 2  @{.> c H+.@2 2 3 4 4 4 h h 4 3 R+#+: > > > > > > > > > + > > > > > > > b ",
"> > > > > > > > a > > > /++@w @@2 2 2 3 3 4 4 h h 3 T+#@L.> c n 4+E+2 2 2 3 4 h h 4 i.w a.: > > > > > > > > > + > > > > > > > b ",
"+ > > > > > > > a > > > 9+t E+2 2 2 3 3 2 2 2 4 4 / $@B  .> : k.%@A+g 2 3 4 3 3 4 K+&@*@F : > > > > > > > > > . > > > > > > > b ",
"+ > > > > > > > a > > > /+-+=@2 2 2 3 3 3 3 3 2 2 E+%@/+> > a : ) G+o ^ 3 3 2 &.&.h.O.< : > > > > > > > > > > + > > > > > > > b ",
"+ > > > > > > > a > > > /+-+-@g g g g 3 3 4 3 3 2 T.U+, > b + > : < ;@5+2 2 &.j j &.>@,@: > > > > > > > > > > . > > > > > > > b ",
"+ > > > > > > > a > > > /+[ -@*.&.&.*.g 3 3 2 2 4+'@L.: a + > > > : d )@`.!@&.&.j ~@{@]@< : > > > > > > > > > + > > > > > > > N+",
"+ > > > > > > > a > > c d g.h.&.j j &.*.*.g ^@5+/@m c > > > > > > > , d >@(@*.&.j j 7..+_@: > > > > > > > > > . > > > > > > > b ",
"+ > > > > > > > a > : d z.S.&.j j j &.&.*.'.o+:@k.c > > > > > > > > > <.t.(@*.&.&.j j <@#+: > > > > > > > > > . > > > > > > > N+",
"+ > > > > > > > a c 7+z..+!@&.&.&.&.&.[@4.z+n L.c > > > > > > > > > > ' t.}@&.&.*.&.&.<@U+: > > > > > > > > > . > > > > > > > N+",
"+ > > > > > > > > |@1@2@<@*.*.*.&.&.*.3@4@5@6@7@. + . + . . . . . . . 8@9@0@&.&.*.*.*.a@b@c@. + . + . .         > > > > > > > N+",
"+ > > > > > > > > ) t.*+*.&.j j &.*.*.d@d > > > > > > > > > > > > > > ' t.(@*.*.*.&.j {+e@2+_ > > > > > > > > > > > > > > > > N+",
"> > > > > > > > l.{.f@'.*.&.j j j &.*.g@< > > > > > > > > > > > > > c >.%.p+'.'.*.j j j 7.}.h@_ <.c > > > > > > > > > > > > > N+",
"+ > b . a > > , 3.i@j@*.&.&.j j j j &.b.d > > > > > > > > > > > > : C+j.W.=+*.*.&.&.j q j k@}.b.>@{.c > > > > > > > b . a > > N+",
"> > b a a > > c O+-@*+*.&.&.j i p p j I [.d : > > > > > > > > > > , B l@=+*.*.&.&.&.j p p p ~@{+7.m@n@Q.> > > > > > b a a > > N+",
"+ > b b > > > c o@p@'.*.&.&.j p q q i k@.+q@/+> > > > > > > > > > c G o+*.*.&.&.&.j j j p q q q ~@7.4.f.> > > > > > b b b > > N+",
"> > > > > > > c o@p@'.*.*.&.&.j j j j &.}@z./+> > > > > > > > > > c G o+'.*.*.*.*.&.&.&.j j j j &.=+@+F > > > > > > > b b > > N+",
"b N+N+N+N+N+N+r@s@t@'.'.'.'.*.*.*.*.*.'.u@v@w@b x@b x@x@x@x@b x@b M N y@'.'.'.'.'.'.'.*.*.*.*.*.'.'.z@A@N+N+N+b N+b N+x@x@N+N+N+"};
